M48
; DRILL file {KiCad (5.1.6)-1} date 07/19/20 12:45:49
; FORMAT={-:-/ absolute / inch / decimal}
; #@! TF.CreationDate,2020-07-19T12:45:49+03:00
; #@! TF.GenerationSoftware,Kicad,Pcbnew,(5.1.6)-1
; #@! TF.FileFunction,Plated,1,4,PTH
FMAT,2
INCH
T1C0.0079
T2C0.0118
T3C0.0157
T4C0.0236
T5C0.0374
T6C0.0394
%
G90
G05
T1
X3.1671Y-3.468
X3.1671Y-3.5113
X3.1671Y-3.5546
X3.2105Y-3.468
X3.2105Y-3.5113
X3.2105Y-3.5546
X3.2538Y-3.468
X3.2538Y-3.5113
X3.2538Y-3.5546
X2.4933Y-3.5532
X2.4933Y-3.5965
X2.5367Y-3.5532
X2.5367Y-3.5965
X3.9459Y-2.998
X3.9459Y-3.0295
X3.9459Y-3.061
X3.9774Y-2.998
X3.9774Y-3.0295
X3.9774Y-3.061
X4.0089Y-2.998
X4.0089Y-3.0295
X4.0089Y-3.061
X3.937Y-2.4528
X3.937Y-2.4843
X3.937Y-2.5157
X3.9685Y-2.4528
X3.9685Y-2.4843
X3.9685Y-2.5157
X4.0Y-2.4528
X4.0Y-2.4843
X4.0Y-2.5157
X3.9587Y-3.5531
X3.9587Y-3.5846
X3.9587Y-3.6161
X3.9902Y-3.5531
X3.9902Y-3.5846
X3.9902Y-3.6161
X4.0217Y-3.5531
X4.0217Y-3.5846
X4.0217Y-3.6161
T2
X2.1969Y-2.3937
X2.3287Y-3.6476
X2.3984Y-3.75
X2.3992Y-2.3203
X2.4009Y-3.4525
X2.439Y-2.3681
X2.4859Y-3.475
X2.8189Y-2.7008
X2.8799Y-2.8091
X2.9724Y-2.8937
X2.9862Y-2.4232
X2.9902Y-2.4882
X2.9902Y-2.5453
X3.0892Y-2.6978
X3.1339Y-3.5906
X3.1437Y-2.5709
X3.1498Y-3.363
X3.1752Y-3.7028
X3.2028Y-2.7736
X3.2323Y-2.4134
X3.2422Y-2.7672
X3.2756Y-2.7539
X3.3051Y-2.5857
X3.3056Y-3.4016
X3.3155Y-3.7263
X3.3155Y-3.6063
X3.3287Y-3.4783
X3.3583Y-3.315
X3.3917Y-2.1909
X3.4055Y-2.8091
X3.4232Y-2.5846
X3.4255Y-3.4813
X3.4311Y-3.5512
X3.4311Y-3.6949
X3.437Y-2.4035
X3.4724Y-2.4606
X3.5Y-3.315
X3.5138Y-3.622
X3.5157Y-3.4213
X3.5405Y-3.4813
X3.563Y-3.2992
X3.7185Y-2.4232
X3.7894Y-2.4843
X3.8051Y-3.5295
X3.8425Y-3.7657
X3.878Y-2.3071
X3.8937Y-3.7185
X3.9164Y-3.6575
X3.9252Y-3.2579
X3.9291Y-2.7047
X3.935Y-2.8012
X3.9488Y-3.3228
T3
X2.2638Y-3.4803
X2.3307Y-3.5787
X2.5209Y-4.0275
X2.5787Y-3.5118
X2.5984Y-3.775
X2.5984Y-3.0709
X2.6969Y-3.5039
X2.7303Y-3.5728
X2.7441Y-3.3925
X3.1378Y-3.3051
X3.1457Y-3.9567
X3.3593Y-3.5256
X3.7185Y-2.9744
X3.7874Y-3.0374
X3.9803Y-2.7087
X3.9823Y-3.2539
X3.9878Y-2.3631
X3.9902Y-2.9055
X3.9921Y-3.7992
X4.0Y-3.3839
T5
X4.21Y-2.8833
X4.21Y-2.9818
X4.21Y-3.0802
X4.21Y-3.1786
X4.2126Y-3.4291
X4.2126Y-3.5276
X4.2126Y-3.626
X4.2126Y-3.7244
X4.2087Y-2.3386
X4.2087Y-2.437
X4.2087Y-2.5354
X4.2087Y-2.6339
T6
X2.2992Y-2.0181
X2.2992Y-2.1181
X2.3992Y-2.0181
X2.3992Y-2.1181
X2.4992Y-2.0181
X2.4992Y-2.1181
X2.5992Y-2.0181
X2.5992Y-2.1181
X2.6992Y-2.0181
X2.6992Y-2.1181
X2.7992Y-2.0181
X2.7992Y-2.1181
X2.8992Y-2.0181
X2.8992Y-2.1181
X2.9992Y-2.0181
X2.9992Y-2.1181
X3.0992Y-2.0181
X3.0992Y-2.1181
X3.1992Y-2.0181
X3.1992Y-2.1181
X3.2992Y-2.0181
X3.2992Y-2.1181
X3.3992Y-2.0181
X3.3992Y-2.1181
X3.4992Y-2.0181
X3.4992Y-2.1181
X3.5992Y-2.0181
X3.5992Y-2.1181
X3.6992Y-2.0181
X3.6992Y-2.1181
X3.7992Y-2.0181
X3.7992Y-2.1181
X3.8992Y-2.0181
X3.8992Y-2.1181
X3.9992Y-2.0181
X3.9992Y-2.1181
X4.0992Y-2.0181
X4.0992Y-2.1181
X4.1992Y-2.0181
X4.1992Y-2.1181
T4
G00X2.3483Y-3.9043
M15
G01X2.3483Y-3.9357
M16
G05
G00X2.3483Y-4.0539
M15
G01X2.3483Y-4.0854
M16
G05
G00X2.6885Y-3.9043
M15
G01X2.6885Y-3.9357
M16
G05
G00X2.6885Y-4.0539
M15
G01X2.6885Y-4.0854
M16
G05
T0
M30
