G04 #@! TF.GenerationSoftware,KiCad,Pcbnew,(5.1.6)-1*
G04 #@! TF.CreationDate,2020-07-19T12:45:40+03:00*
G04 #@! TF.ProjectId,AstroPiMicro,41737472-6f50-4694-9d69-63726f2e6b69,1.0.8*
G04 #@! TF.SameCoordinates,Original*
G04 #@! TF.FileFunction,Legend,Top*
G04 #@! TF.FilePolarity,Positive*
%FSLAX46Y46*%
G04 Gerber Fmt 4.6, Leading zero omitted, Abs format (unit mm)*
G04 Created by KiCad (PCBNEW (5.1.6)-1) date 2020-07-19 12:45:40*
%MOMM*%
%LPD*%
G01*
G04 APERTURE LIST*
%ADD10C,0.120000*%
G04 APERTURE END LIST*
D10*
X91350000Y-60400000D02*
X93350000Y-60400000D01*
X93350000Y-60400000D02*
X93350000Y-56500000D01*
X91350000Y-60400000D02*
X91350000Y-56500000D01*
X85937221Y-72040000D02*
X86262779Y-72040000D01*
X85937221Y-73060000D02*
X86262779Y-73060000D01*
X76590000Y-62562779D02*
X76590000Y-62237221D01*
X77610000Y-62562779D02*
X77610000Y-62237221D01*
X77110000Y-72537221D02*
X77110000Y-72862779D01*
X76090000Y-72537221D02*
X76090000Y-72862779D01*
X75600000Y-65200000D02*
X72300000Y-65200000D01*
X72300000Y-65200000D02*
X72300000Y-69200000D01*
X99390000Y-65210000D02*
X98690000Y-65210000D01*
X98690000Y-65210000D02*
X98690000Y-64510000D01*
X102210000Y-60990000D02*
X102910000Y-60990000D01*
X102910000Y-60990000D02*
X102910000Y-61690000D01*
X99390000Y-60990000D02*
X98690000Y-60990000D01*
X98690000Y-60990000D02*
X98690000Y-61690000D01*
X102210000Y-65210000D02*
X102910000Y-65210000D01*
X99940000Y-93160000D02*
X99240000Y-93160000D01*
X99240000Y-93160000D02*
X99240000Y-92460000D01*
X102760000Y-88940000D02*
X103460000Y-88940000D01*
X103460000Y-88940000D02*
X103460000Y-89640000D01*
X99940000Y-88940000D02*
X99240000Y-88940000D01*
X99240000Y-88940000D02*
X99240000Y-89640000D01*
X102760000Y-93160000D02*
X103460000Y-93160000D01*
X99615000Y-79060000D02*
X98915000Y-79060000D01*
X98915000Y-79060000D02*
X98915000Y-78360000D01*
X102435000Y-74840000D02*
X103135000Y-74840000D01*
X103135000Y-74840000D02*
X103135000Y-75540000D01*
X99615000Y-74840000D02*
X98915000Y-74840000D01*
X98915000Y-74840000D02*
X98915000Y-75540000D01*
X102435000Y-79060000D02*
X103135000Y-79060000D01*
X84410000Y-71460000D02*
X84860000Y-71460000D01*
X84860000Y-71460000D02*
X84860000Y-71010000D01*
X78090000Y-71460000D02*
X77640000Y-71460000D01*
X77640000Y-71460000D02*
X77640000Y-71010000D01*
X84410000Y-64240000D02*
X84860000Y-64240000D01*
X84860000Y-64240000D02*
X84860000Y-64690000D01*
X78090000Y-64240000D02*
X77640000Y-64240000D01*
X77640000Y-64240000D02*
X77640000Y-64690000D01*
X77640000Y-64690000D02*
X76350000Y-64690000D01*
X101802064Y-68110000D02*
X100597936Y-68110000D01*
X101802064Y-66290000D02*
X100597936Y-66290000D01*
X101802064Y-59760000D02*
X100597936Y-59760000D01*
X101802064Y-57940000D02*
X100597936Y-57940000D01*
X101940000Y-86452064D02*
X101940000Y-85247936D01*
X103760000Y-86452064D02*
X103760000Y-85247936D01*
X102252064Y-95960000D02*
X101047936Y-95960000D01*
X102252064Y-94140000D02*
X101047936Y-94140000D01*
X101952064Y-73710000D02*
X100747936Y-73710000D01*
X101952064Y-71890000D02*
X100747936Y-71890000D01*
X102002064Y-82060000D02*
X100797936Y-82060000D01*
X102002064Y-80240000D02*
X100797936Y-80240000D01*
X81249721Y-59540000D02*
X81575279Y-59540000D01*
X81249721Y-60560000D02*
X81575279Y-60560000D01*
X71100000Y-92350000D02*
X71100000Y-86750000D01*
X76500000Y-92350000D02*
X76500000Y-86750000D01*
X71100000Y-92350000D02*
X72250000Y-92350000D01*
X76500000Y-92350000D02*
X75350000Y-92350000D01*
X71100000Y-86750000D02*
X72250000Y-86750000D01*
X76500000Y-86750000D02*
X75350000Y-86750000D01*
X90260000Y-58440000D02*
X90260000Y-57290000D01*
X90260000Y-57290000D02*
X89210000Y-57290000D01*
X89210000Y-57290000D02*
X89210000Y-56300000D01*
X84040000Y-58440000D02*
X84040000Y-57290000D01*
X84040000Y-57290000D02*
X85090000Y-57290000D01*
X89090000Y-60410000D02*
X85210000Y-60410000D01*
X96546078Y-67410000D02*
X96028922Y-67410000D01*
X96546078Y-65990000D02*
X96028922Y-65990000D01*
X96274721Y-59190000D02*
X96600279Y-59190000D01*
X96274721Y-60210000D02*
X96600279Y-60210000D01*
X98210000Y-92991422D02*
X98210000Y-93508578D01*
X96790000Y-92991422D02*
X96790000Y-93508578D01*
X97190000Y-90062779D02*
X97190000Y-89737221D01*
X98210000Y-90062779D02*
X98210000Y-89737221D01*
X96758578Y-81310000D02*
X96241422Y-81310000D01*
X96758578Y-79890000D02*
X96241422Y-79890000D01*
X96387221Y-73140000D02*
X96712779Y-73140000D01*
X96387221Y-74160000D02*
X96712779Y-74160000D01*
X86487221Y-63190000D02*
X86812779Y-63190000D01*
X86487221Y-64210000D02*
X86812779Y-64210000D01*
X74112779Y-70660000D02*
X73787221Y-70660000D01*
X74112779Y-69640000D02*
X73787221Y-69640000D01*
X73749721Y-63740000D02*
X74075279Y-63740000D01*
X73749721Y-64760000D02*
X74075279Y-64760000D01*
X59674900Y-105041700D02*
X68298200Y-105041700D01*
X78450000Y-104650000D02*
X78450000Y-101750000D01*
X81350000Y-104650000D02*
X78450000Y-104650000D01*
X81350000Y-101750000D02*
X81350000Y-104650000D01*
X78450000Y-101750000D02*
X81350000Y-101750000D01*
X62746000Y-92411000D02*
X62271000Y-92411000D01*
X62271000Y-92411000D02*
X62271000Y-91936000D01*
X65016000Y-89191000D02*
X65491000Y-89191000D01*
X65491000Y-89191000D02*
X65491000Y-89666000D01*
X62746000Y-89191000D02*
X62271000Y-89191000D01*
X62271000Y-89191000D02*
X62271000Y-89666000D01*
X65016000Y-92411000D02*
X65491000Y-92411000D01*
X88400000Y-81700000D02*
G75*
G03*
X88400000Y-81700000I-1200000J0D01*
G01*
X75000000Y-94400000D02*
G75*
G03*
X75000000Y-94400000I-1200000J0D01*
G01*
X70100000Y-75900000D02*
G75*
G03*
X70100000Y-75900000I-1200000J0D01*
G01*
X54160500Y-94830500D02*
X54160500Y-96230500D01*
X54160500Y-96230500D02*
X50360500Y-96230500D01*
X50360500Y-87030500D02*
X54160500Y-87030500D01*
X54160500Y-87030500D02*
X54160500Y-88430500D01*
X54160500Y-93430500D02*
X54160500Y-92330500D01*
X54160500Y-92330500D02*
X54160500Y-92330500D01*
X54160500Y-90930500D02*
X54160500Y-89830500D01*
X54160500Y-89830500D02*
X54160500Y-89830500D01*
X50360500Y-96230500D02*
X50360500Y-94530500D01*
X50360500Y-94530500D02*
X50060500Y-94530500D01*
X50060500Y-94530500D02*
X50060500Y-93730500D01*
X50060500Y-93730500D02*
X50360500Y-93730500D01*
X50360500Y-93730500D02*
X50360500Y-92030500D01*
X50360500Y-92030500D02*
X50060500Y-92030500D01*
X50060500Y-92030500D02*
X50060500Y-91230500D01*
X50060500Y-91230500D02*
X50360500Y-91230500D01*
X50360500Y-91230500D02*
X50360500Y-89530500D01*
X50360500Y-89530500D02*
X50060500Y-89530500D01*
X50060500Y-89530500D02*
X50060500Y-88730500D01*
X50060500Y-88730500D02*
X50360500Y-88730500D01*
X50360500Y-88730500D02*
X50360500Y-87030500D01*
X50360500Y-87030500D02*
X50360500Y-87030500D01*
X48460500Y-89630500D02*
X48960500Y-89630500D01*
X48960500Y-89630500D02*
X48960500Y-89630500D01*
X48460500Y-89630500D02*
X48460500Y-90130500D01*
X48460500Y-90130500D02*
X48460500Y-90130500D01*
X48460500Y-93630500D02*
X48460500Y-93130500D01*
X48460500Y-93130500D02*
X48460500Y-93130500D01*
X48460500Y-93630500D02*
X48960500Y-93630500D01*
X48960500Y-93630500D02*
X48960500Y-93630500D01*
X49260500Y-93630500D02*
X49760500Y-93630500D01*
X49760500Y-93630500D02*
X49760500Y-93630500D01*
X49260500Y-89630500D02*
X49760500Y-89630500D01*
X49760500Y-89630500D02*
X49760500Y-89630500D01*
X48460500Y-90430500D02*
X48460500Y-90930500D01*
X48460500Y-90930500D02*
X48460500Y-90930500D01*
X48460500Y-92830500D02*
X48460500Y-92330500D01*
X48460500Y-92330500D02*
X48460500Y-92330500D01*
X48460500Y-92030500D02*
X48460500Y-91230500D01*
X48460500Y-91230500D02*
X48460500Y-91230500D01*
X58310000Y-90837221D02*
X58310000Y-91162779D01*
X57290000Y-90837221D02*
X57290000Y-91162779D01*
X91487279Y-87285000D02*
X91161721Y-87285000D01*
X91487279Y-86265000D02*
X91161721Y-86265000D01*
X91161721Y-84614000D02*
X91487279Y-84614000D01*
X91161721Y-85634000D02*
X91487279Y-85634000D01*
X80819279Y-95667000D02*
X80493721Y-95667000D01*
X80819279Y-94647000D02*
X80493721Y-94647000D01*
X83706500Y-93978221D02*
X83706500Y-94303779D01*
X82686500Y-93978221D02*
X82686500Y-94303779D01*
X67585000Y-86395779D02*
X67585000Y-86070221D01*
X68605000Y-86395779D02*
X68605000Y-86070221D01*
X65934000Y-86395779D02*
X65934000Y-86070221D01*
X66954000Y-86395779D02*
X66954000Y-86070221D01*
X69367000Y-93055221D02*
X69367000Y-93380779D01*
X68347000Y-93055221D02*
X68347000Y-93380779D01*
X65239500Y-96547721D02*
X65239500Y-96873279D01*
X64219500Y-96547721D02*
X64219500Y-96873279D01*
X63652000Y-96547721D02*
X63652000Y-96873279D01*
X62632000Y-96547721D02*
X62632000Y-96873279D01*
X66315000Y-93444279D02*
X66315000Y-93118721D01*
X67335000Y-93444279D02*
X67335000Y-93118721D01*
X60409500Y-93444279D02*
X60409500Y-93118721D01*
X61429500Y-93444279D02*
X61429500Y-93118721D01*
X116310000Y-90850000D02*
X116310000Y-97160000D01*
X116310000Y-97160000D02*
X104590000Y-97160000D01*
X104590000Y-97160000D02*
X104590000Y-95740000D01*
X104590000Y-95740000D02*
X109090000Y-95740000D01*
X109090000Y-95740000D02*
X109090000Y-90850000D01*
X116310000Y-90850000D02*
X116310000Y-84540000D01*
X116310000Y-84540000D02*
X104590000Y-84540000D01*
X104590000Y-84540000D02*
X104590000Y-85960000D01*
X104590000Y-85960000D02*
X109090000Y-85960000D01*
X109090000Y-85960000D02*
X109090000Y-90850000D01*
X110200000Y-94850000D02*
X115700000Y-94850000D01*
X115700000Y-94850000D02*
X115700000Y-94350000D01*
X115700000Y-94350000D02*
X110200000Y-94350000D01*
X110200000Y-94350000D02*
X110200000Y-94850000D01*
X110200000Y-92350000D02*
X115700000Y-92350000D01*
X115700000Y-92350000D02*
X115700000Y-91850000D01*
X115700000Y-91850000D02*
X110200000Y-91850000D01*
X110200000Y-91850000D02*
X110200000Y-92350000D01*
X110200000Y-89850000D02*
X115700000Y-89850000D01*
X115700000Y-89850000D02*
X115700000Y-89350000D01*
X115700000Y-89350000D02*
X110200000Y-89350000D01*
X110200000Y-89350000D02*
X110200000Y-89850000D01*
X110200000Y-87350000D02*
X115700000Y-87350000D01*
X115700000Y-87350000D02*
X115700000Y-86850000D01*
X115700000Y-86850000D02*
X110200000Y-86850000D01*
X110200000Y-86850000D02*
X110200000Y-87350000D01*
X105500000Y-94600000D02*
X104900000Y-94900000D01*
X104900000Y-94900000D02*
X104900000Y-94300000D01*
X104900000Y-94300000D02*
X105500000Y-94600000D01*
X116210000Y-63150000D02*
X116210000Y-69460000D01*
X116210000Y-69460000D02*
X104490000Y-69460000D01*
X104490000Y-69460000D02*
X104490000Y-68040000D01*
X104490000Y-68040000D02*
X108990000Y-68040000D01*
X108990000Y-68040000D02*
X108990000Y-63150000D01*
X116210000Y-63150000D02*
X116210000Y-56840000D01*
X116210000Y-56840000D02*
X104490000Y-56840000D01*
X104490000Y-56840000D02*
X104490000Y-58260000D01*
X104490000Y-58260000D02*
X108990000Y-58260000D01*
X108990000Y-58260000D02*
X108990000Y-63150000D01*
X110100000Y-67150000D02*
X115600000Y-67150000D01*
X115600000Y-67150000D02*
X115600000Y-66650000D01*
X115600000Y-66650000D02*
X110100000Y-66650000D01*
X110100000Y-66650000D02*
X110100000Y-67150000D01*
X110100000Y-64650000D02*
X115600000Y-64650000D01*
X115600000Y-64650000D02*
X115600000Y-64150000D01*
X115600000Y-64150000D02*
X110100000Y-64150000D01*
X110100000Y-64150000D02*
X110100000Y-64650000D01*
X110100000Y-62150000D02*
X115600000Y-62150000D01*
X115600000Y-62150000D02*
X115600000Y-61650000D01*
X115600000Y-61650000D02*
X110100000Y-61650000D01*
X110100000Y-61650000D02*
X110100000Y-62150000D01*
X110100000Y-59650000D02*
X115600000Y-59650000D01*
X115600000Y-59650000D02*
X115600000Y-59150000D01*
X115600000Y-59150000D02*
X110100000Y-59150000D01*
X110100000Y-59150000D02*
X110100000Y-59650000D01*
X105400000Y-66900000D02*
X104800000Y-67200000D01*
X104800000Y-67200000D02*
X104800000Y-66600000D01*
X104800000Y-66600000D02*
X105400000Y-66900000D01*
X116244000Y-76987000D02*
X116244000Y-83297000D01*
X116244000Y-83297000D02*
X104524000Y-83297000D01*
X104524000Y-83297000D02*
X104524000Y-81877000D01*
X104524000Y-81877000D02*
X109024000Y-81877000D01*
X109024000Y-81877000D02*
X109024000Y-76987000D01*
X116244000Y-76987000D02*
X116244000Y-70677000D01*
X116244000Y-70677000D02*
X104524000Y-70677000D01*
X104524000Y-70677000D02*
X104524000Y-72097000D01*
X104524000Y-72097000D02*
X109024000Y-72097000D01*
X109024000Y-72097000D02*
X109024000Y-76987000D01*
X110134000Y-80987000D02*
X115634000Y-80987000D01*
X115634000Y-80987000D02*
X115634000Y-80487000D01*
X115634000Y-80487000D02*
X110134000Y-80487000D01*
X110134000Y-80487000D02*
X110134000Y-80987000D01*
X110134000Y-78487000D02*
X115634000Y-78487000D01*
X115634000Y-78487000D02*
X115634000Y-77987000D01*
X115634000Y-77987000D02*
X110134000Y-77987000D01*
X110134000Y-77987000D02*
X110134000Y-78487000D01*
X110134000Y-75987000D02*
X115634000Y-75987000D01*
X115634000Y-75987000D02*
X115634000Y-75487000D01*
X115634000Y-75487000D02*
X110134000Y-75487000D01*
X110134000Y-75487000D02*
X110134000Y-75987000D01*
X110134000Y-73487000D02*
X115634000Y-73487000D01*
X115634000Y-73487000D02*
X115634000Y-72987000D01*
X115634000Y-72987000D02*
X110134000Y-72987000D01*
X110134000Y-72987000D02*
X110134000Y-73487000D01*
X105434000Y-80737000D02*
X104834000Y-81037000D01*
X104834000Y-81037000D02*
X104834000Y-80437000D01*
X104834000Y-80437000D02*
X105434000Y-80737000D01*
X62280000Y-85433000D02*
X62280000Y-87718000D01*
X62280000Y-87718000D02*
X63750000Y-87718000D01*
X63750000Y-87718000D02*
X63750000Y-85433000D01*
X64058000Y-85433000D02*
X64058000Y-87718000D01*
X64058000Y-87718000D02*
X65528000Y-87718000D01*
X65528000Y-87718000D02*
X65528000Y-85433000D01*
X97810000Y-64850000D02*
X97810000Y-60640000D01*
X97810000Y-60640000D02*
X94790000Y-60640000D01*
X94790000Y-60640000D02*
X94790000Y-64850000D01*
X100500000Y-85090000D02*
X96290000Y-85090000D01*
X96290000Y-85090000D02*
X96290000Y-88110000D01*
X96290000Y-88110000D02*
X100500000Y-88110000D01*
X89393500Y-92584000D02*
X89393500Y-84524000D01*
X89393500Y-84524000D02*
X84873500Y-84524000D01*
X84873500Y-84524000D02*
X84873500Y-92584000D01*
X98010000Y-78800000D02*
X98010000Y-74590000D01*
X98010000Y-74590000D02*
X94990000Y-74590000D01*
X94990000Y-74590000D02*
X94990000Y-78800000D01*
X60019000Y-90047578D02*
X60019000Y-89530422D01*
X61439000Y-90047578D02*
X61439000Y-89530422D01*
X66305500Y-89984078D02*
X66305500Y-89466922D01*
X67725500Y-89984078D02*
X67725500Y-89466922D01*
X63391422Y-93270000D02*
X63908578Y-93270000D01*
X63391422Y-94690000D02*
X63908578Y-94690000D01*
X59160000Y-72940000D02*
X63410000Y-72940000D01*
X63410000Y-72940000D02*
X63410000Y-73960000D01*
X63410000Y-73960000D02*
X61810000Y-73960000D01*
X61810000Y-73960000D02*
X61810000Y-75240000D01*
X61810000Y-75240000D02*
X64700000Y-75240000D01*
X59160000Y-81060000D02*
X63410000Y-81060000D01*
X63410000Y-81060000D02*
X63410000Y-80040000D01*
X63410000Y-80040000D02*
X61810000Y-80040000D01*
X61810000Y-80040000D02*
X61810000Y-78760000D01*
X55590000Y-74660000D02*
X55590000Y-79340000D01*
X82955500Y-87078000D02*
X83655500Y-87078000D01*
X83655500Y-87078000D02*
X83655500Y-87778000D01*
X80135500Y-91298000D02*
X79435500Y-91298000D01*
X79435500Y-91298000D02*
X79435500Y-90598000D01*
X82955500Y-91298000D02*
X83655500Y-91298000D01*
X83655500Y-91298000D02*
X83655500Y-90598000D01*
X80135500Y-87078000D02*
X79435500Y-87078000D01*
X50615000Y-61360000D02*
X50615000Y-65240000D01*
X55085000Y-66410000D02*
X55085000Y-65360000D01*
X52585000Y-66410000D02*
X55085000Y-66410000D01*
X55085000Y-61240000D02*
X56075000Y-61240000D01*
X55085000Y-60190000D02*
X55085000Y-61240000D01*
X52585000Y-60190000D02*
X55085000Y-60190000D01*
X81874500Y-85128578D02*
X81874500Y-84611422D01*
X80454500Y-85128578D02*
X80454500Y-84611422D01*
X80915078Y-92161000D02*
X80397922Y-92161000D01*
X80915078Y-93581000D02*
X80397922Y-93581000D01*
X107990000Y-55130000D02*
X107990000Y-49930000D01*
X59670000Y-55130000D02*
X107990000Y-55130000D01*
X57070000Y-49930000D02*
X107990000Y-49930000D01*
X59670000Y-55130000D02*
X59670000Y-52530000D01*
X59670000Y-52530000D02*
X57070000Y-52530000D01*
X57070000Y-52530000D02*
X57070000Y-49930000D01*
X58400000Y-55130000D02*
X57070000Y-55130000D01*
X57070000Y-55130000D02*
X57070000Y-53800000D01*
M02*
