G04 #@! TF.GenerationSoftware,KiCad,Pcbnew,(5.1.5)-3*
G04 #@! TF.CreationDate,2020-05-15T14:33:57+03:00*
G04 #@! TF.ProjectId,AstroPiMicro,41737472-6f50-4694-9d69-63726f2e6b69,1.0.8*
G04 #@! TF.SameCoordinates,Original*
G04 #@! TF.FileFunction,Soldermask,Top*
G04 #@! TF.FilePolarity,Negative*
%FSLAX46Y46*%
G04 Gerber Fmt 4.6, Leading zero omitted, Abs format (unit mm)*
G04 Created by KiCad (PCBNEW (5.1.5)-3) date 2020-05-15 14:33:57*
%MOMM*%
%LPD*%
G04 APERTURE LIST*
%ADD10C,0.100000*%
G04 APERTURE END LIST*
D10*
G36*
X77927085Y-94658975D02*
G01*
X78282143Y-94806045D01*
X78282145Y-94806046D01*
X78601690Y-95019559D01*
X78873441Y-95291310D01*
X79086954Y-95610855D01*
X79086955Y-95610857D01*
X79234025Y-95965915D01*
X79309000Y-96342842D01*
X79309000Y-96727158D01*
X79234025Y-97104085D01*
X79086955Y-97459143D01*
X79086954Y-97459145D01*
X78873441Y-97778690D01*
X78601690Y-98050441D01*
X78282145Y-98263954D01*
X78282144Y-98263955D01*
X78282143Y-98263955D01*
X77927085Y-98411025D01*
X77550158Y-98486000D01*
X77165842Y-98486000D01*
X76788915Y-98411025D01*
X76433857Y-98263955D01*
X76433856Y-98263955D01*
X76433855Y-98263954D01*
X76114310Y-98050441D01*
X75842559Y-97778690D01*
X75629046Y-97459145D01*
X75629045Y-97459143D01*
X75481975Y-97104085D01*
X75407000Y-96727158D01*
X75407000Y-96342842D01*
X75481975Y-95965915D01*
X75629045Y-95610857D01*
X75629046Y-95610855D01*
X75842559Y-95291310D01*
X76114310Y-95019559D01*
X76433855Y-94806046D01*
X76433857Y-94806045D01*
X76788915Y-94658975D01*
X77165842Y-94584000D01*
X77550158Y-94584000D01*
X77927085Y-94658975D01*
G37*
G36*
X60117085Y-94658975D02*
G01*
X60472143Y-94806045D01*
X60472145Y-94806046D01*
X60791690Y-95019559D01*
X61063441Y-95291310D01*
X61276954Y-95610855D01*
X61276955Y-95610857D01*
X61424025Y-95965915D01*
X61499000Y-96342842D01*
X61499000Y-96727158D01*
X61424025Y-97104085D01*
X61276955Y-97459143D01*
X61276954Y-97459145D01*
X61063441Y-97778690D01*
X60791690Y-98050441D01*
X60472145Y-98263954D01*
X60472144Y-98263955D01*
X60472143Y-98263955D01*
X60117085Y-98411025D01*
X59740158Y-98486000D01*
X59355842Y-98486000D01*
X58978915Y-98411025D01*
X58623857Y-98263955D01*
X58623856Y-98263955D01*
X58623855Y-98263954D01*
X58304310Y-98050441D01*
X58032559Y-97778690D01*
X57819046Y-97459145D01*
X57819045Y-97459143D01*
X57671975Y-97104085D01*
X57597000Y-96727158D01*
X57597000Y-96342842D01*
X57671975Y-95965915D01*
X57819045Y-95610857D01*
X57819046Y-95610855D01*
X58032559Y-95291310D01*
X58304310Y-95019559D01*
X58623855Y-94806046D01*
X58623857Y-94806045D01*
X58978915Y-94658975D01*
X59355842Y-94584000D01*
X59740158Y-94584000D01*
X60117085Y-94658975D01*
G37*
G36*
X67818018Y-92929112D02*
G01*
X66791299Y-93955831D01*
X66012068Y-93176600D01*
X67038787Y-92149881D01*
X67818018Y-92929112D01*
G37*
G36*
X72732410Y-92328071D02*
G01*
X71246071Y-93814410D01*
X69901154Y-92469493D01*
X71387493Y-90983154D01*
X72732410Y-92328071D01*
G37*
G36*
X86636085Y-89492975D02*
G01*
X86991143Y-89640045D01*
X86991145Y-89640046D01*
X87310690Y-89853559D01*
X87582441Y-90125310D01*
X87795954Y-90444855D01*
X87795955Y-90444857D01*
X87943025Y-90799915D01*
X88018000Y-91176842D01*
X88018000Y-91561158D01*
X87943025Y-91938085D01*
X87942578Y-91939163D01*
X87795954Y-92293145D01*
X87582441Y-92612690D01*
X87310690Y-92884441D01*
X86991145Y-93097954D01*
X86991144Y-93097955D01*
X86991143Y-93097955D01*
X86636085Y-93245025D01*
X86259158Y-93320000D01*
X85874842Y-93320000D01*
X85497915Y-93245025D01*
X85142857Y-93097955D01*
X85142856Y-93097955D01*
X85142855Y-93097954D01*
X84823310Y-92884441D01*
X84551559Y-92612690D01*
X84338046Y-92293145D01*
X84191422Y-91939163D01*
X84190975Y-91938085D01*
X84116000Y-91561158D01*
X84116000Y-91176842D01*
X84190975Y-90799915D01*
X84338045Y-90444857D01*
X84338046Y-90444855D01*
X84551559Y-90125310D01*
X84823310Y-89853559D01*
X85142855Y-89640046D01*
X85142857Y-89640045D01*
X85497915Y-89492975D01*
X85874842Y-89418000D01*
X86259158Y-89418000D01*
X86636085Y-89492975D01*
G37*
G36*
X102636085Y-89492975D02*
G01*
X102991143Y-89640045D01*
X102991145Y-89640046D01*
X103310690Y-89853559D01*
X103582441Y-90125310D01*
X103795954Y-90444855D01*
X103795955Y-90444857D01*
X103943025Y-90799915D01*
X104018000Y-91176842D01*
X104018000Y-91561158D01*
X103943025Y-91938085D01*
X103942578Y-91939163D01*
X103795954Y-92293145D01*
X103582441Y-92612690D01*
X103310690Y-92884441D01*
X102991145Y-93097954D01*
X102991144Y-93097955D01*
X102991143Y-93097955D01*
X102636085Y-93245025D01*
X102259158Y-93320000D01*
X101874842Y-93320000D01*
X101497915Y-93245025D01*
X101142857Y-93097955D01*
X101142856Y-93097955D01*
X101142855Y-93097954D01*
X100823310Y-92884441D01*
X100551559Y-92612690D01*
X100338046Y-92293145D01*
X100191422Y-91939163D01*
X100190975Y-91938085D01*
X100116000Y-91561158D01*
X100116000Y-91176842D01*
X100190975Y-90799915D01*
X100338045Y-90444857D01*
X100338046Y-90444855D01*
X100551559Y-90125310D01*
X100823310Y-89853559D01*
X101142855Y-89640046D01*
X101142857Y-89640045D01*
X101497915Y-89492975D01*
X101874842Y-89418000D01*
X102259158Y-89418000D01*
X102636085Y-89492975D01*
G37*
G36*
X66828068Y-91939163D02*
G01*
X65801349Y-92965882D01*
X65022118Y-92186651D01*
X66048837Y-91159932D01*
X66828068Y-91939163D01*
G37*
G36*
X65838119Y-90949213D02*
G01*
X64811400Y-91975932D01*
X64032169Y-91196701D01*
X65058888Y-90169982D01*
X65838119Y-90949213D01*
G37*
G36*
X94718000Y-89905000D02*
G01*
X93416000Y-89905000D01*
X93416000Y-88403000D01*
X94718000Y-88403000D01*
X94718000Y-89905000D01*
G37*
G36*
X97218000Y-89905000D02*
G01*
X95916000Y-89905000D01*
X95916000Y-88403000D01*
X97218000Y-88403000D01*
X97218000Y-89905000D01*
G37*
G36*
X92218000Y-89905000D02*
G01*
X90916000Y-89905000D01*
X90916000Y-88403000D01*
X92218000Y-88403000D01*
X92218000Y-89905000D01*
G37*
G36*
X72873831Y-87873299D02*
G01*
X71847112Y-88900018D01*
X71067881Y-88120787D01*
X72094600Y-87094068D01*
X72873831Y-87873299D01*
G37*
G36*
X67004846Y-86600507D02*
G01*
X65518507Y-88086846D01*
X64173590Y-86741929D01*
X65659929Y-85255590D01*
X67004846Y-86600507D01*
G37*
G36*
X71883882Y-86883349D02*
G01*
X70857163Y-87910068D01*
X70077932Y-87130837D01*
X71104651Y-86104118D01*
X71883882Y-86883349D01*
G37*
G36*
X70893932Y-85893400D02*
G01*
X69867213Y-86920119D01*
X69087982Y-86140888D01*
X70114701Y-85114169D01*
X70893932Y-85893400D01*
G37*
G36*
X94718000Y-85505000D02*
G01*
X93416000Y-85505000D01*
X93416000Y-84003000D01*
X94718000Y-84003000D01*
X94718000Y-85505000D01*
G37*
G36*
X97218000Y-85505000D02*
G01*
X95916000Y-85505000D01*
X95916000Y-84003000D01*
X97218000Y-84003000D01*
X97218000Y-85505000D01*
G37*
G36*
X92218000Y-85505000D02*
G01*
X90916000Y-85505000D01*
X90916000Y-84003000D01*
X92218000Y-84003000D01*
X92218000Y-85505000D01*
G37*
G36*
X60117085Y-80658975D02*
G01*
X60472143Y-80806045D01*
X60472145Y-80806046D01*
X60791690Y-81019559D01*
X61063441Y-81291310D01*
X61276954Y-81610855D01*
X61276955Y-81610857D01*
X61424025Y-81965915D01*
X61499000Y-82342842D01*
X61499000Y-82727158D01*
X61424025Y-83104085D01*
X61276955Y-83459143D01*
X61276954Y-83459145D01*
X61063441Y-83778690D01*
X60791690Y-84050441D01*
X60472145Y-84263954D01*
X60472144Y-84263955D01*
X60472143Y-84263955D01*
X60117085Y-84411025D01*
X59740158Y-84486000D01*
X59355842Y-84486000D01*
X58978915Y-84411025D01*
X58623857Y-84263955D01*
X58623856Y-84263955D01*
X58623855Y-84263954D01*
X58304310Y-84050441D01*
X58032559Y-83778690D01*
X57819046Y-83459145D01*
X57819045Y-83459143D01*
X57671975Y-83104085D01*
X57597000Y-82727158D01*
X57597000Y-82342842D01*
X57671975Y-81965915D01*
X57819045Y-81610857D01*
X57819046Y-81610855D01*
X58032559Y-81291310D01*
X58304310Y-81019559D01*
X58623855Y-80806046D01*
X58623857Y-80806045D01*
X58978915Y-80658975D01*
X59355842Y-80584000D01*
X59740158Y-80584000D01*
X60117085Y-80658975D01*
G37*
G36*
X77927085Y-80658975D02*
G01*
X78282143Y-80806045D01*
X78282145Y-80806046D01*
X78601690Y-81019559D01*
X78873441Y-81291310D01*
X79086954Y-81610855D01*
X79086955Y-81610857D01*
X79234025Y-81965915D01*
X79309000Y-82342842D01*
X79309000Y-82727158D01*
X79234025Y-83104085D01*
X79086955Y-83459143D01*
X79086954Y-83459145D01*
X78873441Y-83778690D01*
X78601690Y-84050441D01*
X78282145Y-84263954D01*
X78282144Y-84263955D01*
X78282143Y-84263955D01*
X77927085Y-84411025D01*
X77550158Y-84486000D01*
X77165842Y-84486000D01*
X76788915Y-84411025D01*
X76433857Y-84263955D01*
X76433856Y-84263955D01*
X76433855Y-84263954D01*
X76114310Y-84050441D01*
X75842559Y-83778690D01*
X75629046Y-83459145D01*
X75629045Y-83459143D01*
X75481975Y-83104085D01*
X75407000Y-82727158D01*
X75407000Y-82342842D01*
X75481975Y-81965915D01*
X75629045Y-81610857D01*
X75629046Y-81610855D01*
X75842559Y-81291310D01*
X76114310Y-81019559D01*
X76433855Y-80806046D01*
X76433857Y-80806045D01*
X76788915Y-80658975D01*
X77165842Y-80584000D01*
X77550158Y-80584000D01*
X77927085Y-80658975D01*
G37*
G36*
X102636085Y-80492975D02*
G01*
X102991143Y-80640045D01*
X102991145Y-80640046D01*
X103310690Y-80853559D01*
X103582441Y-81125310D01*
X103693359Y-81291311D01*
X103795955Y-81444857D01*
X103943025Y-81799915D01*
X104018000Y-82176842D01*
X104018000Y-82561158D01*
X103943025Y-82938085D01*
X103874265Y-83104085D01*
X103795954Y-83293145D01*
X103582441Y-83612690D01*
X103310690Y-83884441D01*
X102991145Y-84097954D01*
X102991144Y-84097955D01*
X102991143Y-84097955D01*
X102636085Y-84245025D01*
X102259158Y-84320000D01*
X101874842Y-84320000D01*
X101497915Y-84245025D01*
X101142857Y-84097955D01*
X101142856Y-84097955D01*
X101142855Y-84097954D01*
X100823310Y-83884441D01*
X100551559Y-83612690D01*
X100338046Y-83293145D01*
X100259735Y-83104085D01*
X100190975Y-82938085D01*
X100116000Y-82561158D01*
X100116000Y-82176842D01*
X100190975Y-81799915D01*
X100338045Y-81444857D01*
X100440641Y-81291311D01*
X100551559Y-81125310D01*
X100823310Y-80853559D01*
X101142855Y-80640046D01*
X101142857Y-80640045D01*
X101497915Y-80492975D01*
X101874842Y-80418000D01*
X102259158Y-80418000D01*
X102636085Y-80492975D01*
G37*
G36*
X86636085Y-80492975D02*
G01*
X86991143Y-80640045D01*
X86991145Y-80640046D01*
X87310690Y-80853559D01*
X87582441Y-81125310D01*
X87693359Y-81291311D01*
X87795955Y-81444857D01*
X87943025Y-81799915D01*
X88018000Y-82176842D01*
X88018000Y-82561158D01*
X87943025Y-82938085D01*
X87874265Y-83104085D01*
X87795954Y-83293145D01*
X87582441Y-83612690D01*
X87310690Y-83884441D01*
X86991145Y-84097954D01*
X86991144Y-84097955D01*
X86991143Y-84097955D01*
X86636085Y-84245025D01*
X86259158Y-84320000D01*
X85874842Y-84320000D01*
X85497915Y-84245025D01*
X85142857Y-84097955D01*
X85142856Y-84097955D01*
X85142855Y-84097954D01*
X84823310Y-83884441D01*
X84551559Y-83612690D01*
X84338046Y-83293145D01*
X84259735Y-83104085D01*
X84190975Y-82938085D01*
X84116000Y-82561158D01*
X84116000Y-82176842D01*
X84190975Y-81799915D01*
X84338045Y-81444857D01*
X84440641Y-81291311D01*
X84551559Y-81125310D01*
X84823310Y-80853559D01*
X85142855Y-80640046D01*
X85142857Y-80640045D01*
X85497915Y-80492975D01*
X85874842Y-80418000D01*
X86259158Y-80418000D01*
X86636085Y-80492975D01*
G37*
G36*
X112123053Y-72543309D02*
G01*
X112504237Y-72619131D01*
X113068401Y-72852815D01*
X113576135Y-73192072D01*
X114007928Y-73623865D01*
X114347185Y-74131599D01*
X114580869Y-74695763D01*
X114624013Y-74912664D01*
X114700000Y-75294675D01*
X114700000Y-75905325D01*
X114652192Y-76145669D01*
X114580869Y-76504237D01*
X114347185Y-77068401D01*
X114007928Y-77576135D01*
X113576135Y-78007928D01*
X113068401Y-78347185D01*
X112504237Y-78580869D01*
X112204780Y-78640434D01*
X111905325Y-78700000D01*
X111294675Y-78700000D01*
X110995220Y-78640434D01*
X110695763Y-78580869D01*
X110131599Y-78347185D01*
X109623865Y-78007928D01*
X109192072Y-77576135D01*
X108852815Y-77068401D01*
X108619131Y-76504237D01*
X108547808Y-76145669D01*
X108500000Y-75905325D01*
X108500000Y-75294675D01*
X108575987Y-74912664D01*
X108619131Y-74695763D01*
X108852815Y-74131599D01*
X109192072Y-73623865D01*
X109623865Y-73192072D01*
X110131599Y-72852815D01*
X110695763Y-72619131D01*
X111076947Y-72543309D01*
X111294675Y-72500000D01*
X111905325Y-72500000D01*
X112123053Y-72543309D01*
G37*
G36*
X54204780Y-72459566D02*
G01*
X54504237Y-72519131D01*
X55068401Y-72752815D01*
X55576135Y-73092072D01*
X56007928Y-73523865D01*
X56347185Y-74031599D01*
X56580869Y-74595763D01*
X56621410Y-74799576D01*
X56700000Y-75194675D01*
X56700000Y-75805325D01*
X56646075Y-76076425D01*
X56580869Y-76404237D01*
X56347185Y-76968401D01*
X56007928Y-77476135D01*
X55576135Y-77907928D01*
X55068401Y-78247185D01*
X54504237Y-78480869D01*
X54204780Y-78540434D01*
X53905325Y-78600000D01*
X53294675Y-78600000D01*
X52995220Y-78540434D01*
X52695763Y-78480869D01*
X52131599Y-78247185D01*
X51623865Y-77907928D01*
X51192072Y-77476135D01*
X50852815Y-76968401D01*
X50619131Y-76404237D01*
X50553925Y-76076425D01*
X50500000Y-75805325D01*
X50500000Y-75194675D01*
X50578590Y-74799576D01*
X50619131Y-74595763D01*
X50852815Y-74031599D01*
X51192072Y-73523865D01*
X51623865Y-73092072D01*
X52131599Y-72752815D01*
X52695763Y-72519131D01*
X52995220Y-72459566D01*
X53294675Y-72400000D01*
X53905325Y-72400000D01*
X54204780Y-72459566D01*
G37*
G36*
X104798617Y-74578420D02*
G01*
X104871355Y-74600485D01*
X104921335Y-74615646D01*
X105034424Y-74676094D01*
X105133554Y-74757447D01*
X105214906Y-74856575D01*
X105275354Y-74969664D01*
X105285040Y-75001596D01*
X105312580Y-75092382D01*
X105322000Y-75188027D01*
X105322000Y-75801973D01*
X105312580Y-75897618D01*
X105285040Y-75988404D01*
X105275354Y-76020336D01*
X105214906Y-76133425D01*
X105133554Y-76232554D01*
X105034425Y-76313906D01*
X104921336Y-76374354D01*
X104889404Y-76384040D01*
X104798618Y-76411580D01*
X104671000Y-76424149D01*
X104543383Y-76411580D01*
X104452597Y-76384040D01*
X104420665Y-76374354D01*
X104307576Y-76313906D01*
X104208447Y-76232554D01*
X104127096Y-76133427D01*
X104127095Y-76133425D01*
X104066647Y-76020336D01*
X104066645Y-76020333D01*
X104054237Y-75979427D01*
X104029420Y-75897618D01*
X104020000Y-75801973D01*
X104020000Y-75188028D01*
X104029420Y-75092383D01*
X104066645Y-74969669D01*
X104066646Y-74969665D01*
X104127094Y-74856576D01*
X104208447Y-74757446D01*
X104307575Y-74676094D01*
X104420664Y-74615646D01*
X104470644Y-74600485D01*
X104543382Y-74578420D01*
X104671000Y-74565851D01*
X104798617Y-74578420D01*
G37*
G36*
X102798617Y-74578420D02*
G01*
X102871355Y-74600485D01*
X102921335Y-74615646D01*
X103034424Y-74676094D01*
X103133554Y-74757447D01*
X103214906Y-74856575D01*
X103275354Y-74969664D01*
X103285040Y-75001596D01*
X103312580Y-75092382D01*
X103322000Y-75188027D01*
X103322000Y-75801973D01*
X103312580Y-75897618D01*
X103285040Y-75988404D01*
X103275354Y-76020336D01*
X103214906Y-76133425D01*
X103133554Y-76232554D01*
X103034425Y-76313906D01*
X102921336Y-76374354D01*
X102889404Y-76384040D01*
X102798618Y-76411580D01*
X102671000Y-76424149D01*
X102543383Y-76411580D01*
X102452597Y-76384040D01*
X102420665Y-76374354D01*
X102307576Y-76313906D01*
X102208447Y-76232554D01*
X102127096Y-76133427D01*
X102127095Y-76133425D01*
X102066647Y-76020336D01*
X102066645Y-76020333D01*
X102054237Y-75979427D01*
X102029420Y-75897618D01*
X102020000Y-75801973D01*
X102020000Y-75188028D01*
X102029420Y-75092383D01*
X102066645Y-74969669D01*
X102066646Y-74969665D01*
X102127094Y-74856576D01*
X102208447Y-74757446D01*
X102307575Y-74676094D01*
X102420664Y-74615646D01*
X102470644Y-74600485D01*
X102543382Y-74578420D01*
X102671000Y-74565851D01*
X102798617Y-74578420D01*
G37*
G36*
X98798617Y-74578420D02*
G01*
X98871355Y-74600485D01*
X98921335Y-74615646D01*
X99034424Y-74676094D01*
X99133554Y-74757447D01*
X99214906Y-74856575D01*
X99275354Y-74969664D01*
X99285040Y-75001596D01*
X99312580Y-75092382D01*
X99322000Y-75188027D01*
X99322000Y-75801973D01*
X99312580Y-75897618D01*
X99285040Y-75988404D01*
X99275354Y-76020336D01*
X99214906Y-76133425D01*
X99133554Y-76232554D01*
X99034425Y-76313906D01*
X98921336Y-76374354D01*
X98889404Y-76384040D01*
X98798618Y-76411580D01*
X98671000Y-76424149D01*
X98543383Y-76411580D01*
X98452597Y-76384040D01*
X98420665Y-76374354D01*
X98307576Y-76313906D01*
X98208447Y-76232554D01*
X98127096Y-76133427D01*
X98127095Y-76133425D01*
X98066647Y-76020336D01*
X98066645Y-76020333D01*
X98054237Y-75979427D01*
X98029420Y-75897618D01*
X98020000Y-75801973D01*
X98020000Y-75188028D01*
X98029420Y-75092383D01*
X98066645Y-74969669D01*
X98066646Y-74969665D01*
X98127094Y-74856576D01*
X98208447Y-74757446D01*
X98307575Y-74676094D01*
X98420664Y-74615646D01*
X98470644Y-74600485D01*
X98543382Y-74578420D01*
X98671000Y-74565851D01*
X98798617Y-74578420D01*
G37*
G36*
X96798617Y-74578420D02*
G01*
X96871355Y-74600485D01*
X96921335Y-74615646D01*
X97034424Y-74676094D01*
X97133554Y-74757447D01*
X97214906Y-74856575D01*
X97275354Y-74969664D01*
X97285040Y-75001596D01*
X97312580Y-75092382D01*
X97322000Y-75188027D01*
X97322000Y-75801973D01*
X97312580Y-75897618D01*
X97285040Y-75988404D01*
X97275354Y-76020336D01*
X97214906Y-76133425D01*
X97133554Y-76232554D01*
X97034425Y-76313906D01*
X96921336Y-76374354D01*
X96889404Y-76384040D01*
X96798618Y-76411580D01*
X96671000Y-76424149D01*
X96543383Y-76411580D01*
X96452597Y-76384040D01*
X96420665Y-76374354D01*
X96307576Y-76313906D01*
X96208447Y-76232554D01*
X96127096Y-76133427D01*
X96127095Y-76133425D01*
X96066647Y-76020336D01*
X96066645Y-76020333D01*
X96054237Y-75979427D01*
X96029420Y-75897618D01*
X96020000Y-75801973D01*
X96020000Y-75188028D01*
X96029420Y-75092383D01*
X96066645Y-74969669D01*
X96066646Y-74969665D01*
X96127094Y-74856576D01*
X96208447Y-74757446D01*
X96307575Y-74676094D01*
X96420664Y-74615646D01*
X96470644Y-74600485D01*
X96543382Y-74578420D01*
X96671000Y-74565851D01*
X96798617Y-74578420D01*
G37*
G36*
X94798617Y-74578420D02*
G01*
X94871355Y-74600485D01*
X94921335Y-74615646D01*
X95034424Y-74676094D01*
X95133554Y-74757447D01*
X95214906Y-74856575D01*
X95275354Y-74969664D01*
X95285040Y-75001596D01*
X95312580Y-75092382D01*
X95322000Y-75188027D01*
X95322000Y-75801973D01*
X95312580Y-75897618D01*
X95285040Y-75988404D01*
X95275354Y-76020336D01*
X95214906Y-76133425D01*
X95133554Y-76232554D01*
X95034425Y-76313906D01*
X94921336Y-76374354D01*
X94889404Y-76384040D01*
X94798618Y-76411580D01*
X94671000Y-76424149D01*
X94543383Y-76411580D01*
X94452597Y-76384040D01*
X94420665Y-76374354D01*
X94307576Y-76313906D01*
X94208447Y-76232554D01*
X94127096Y-76133427D01*
X94127095Y-76133425D01*
X94066647Y-76020336D01*
X94066645Y-76020333D01*
X94054237Y-75979427D01*
X94029420Y-75897618D01*
X94020000Y-75801973D01*
X94020000Y-75188028D01*
X94029420Y-75092383D01*
X94066645Y-74969669D01*
X94066646Y-74969665D01*
X94127094Y-74856576D01*
X94208447Y-74757446D01*
X94307575Y-74676094D01*
X94420664Y-74615646D01*
X94470644Y-74600485D01*
X94543382Y-74578420D01*
X94671000Y-74565851D01*
X94798617Y-74578420D01*
G37*
G36*
X92798617Y-74578420D02*
G01*
X92871355Y-74600485D01*
X92921335Y-74615646D01*
X93034424Y-74676094D01*
X93133554Y-74757447D01*
X93214906Y-74856575D01*
X93275354Y-74969664D01*
X93285040Y-75001596D01*
X93312580Y-75092382D01*
X93322000Y-75188027D01*
X93322000Y-75801973D01*
X93312580Y-75897618D01*
X93285040Y-75988404D01*
X93275354Y-76020336D01*
X93214906Y-76133425D01*
X93133554Y-76232554D01*
X93034425Y-76313906D01*
X92921336Y-76374354D01*
X92889404Y-76384040D01*
X92798618Y-76411580D01*
X92671000Y-76424149D01*
X92543383Y-76411580D01*
X92452597Y-76384040D01*
X92420665Y-76374354D01*
X92307576Y-76313906D01*
X92208447Y-76232554D01*
X92127096Y-76133427D01*
X92127095Y-76133425D01*
X92066647Y-76020336D01*
X92066645Y-76020333D01*
X92054237Y-75979427D01*
X92029420Y-75897618D01*
X92020000Y-75801973D01*
X92020000Y-75188028D01*
X92029420Y-75092383D01*
X92066645Y-74969669D01*
X92066646Y-74969665D01*
X92127094Y-74856576D01*
X92208447Y-74757446D01*
X92307575Y-74676094D01*
X92420664Y-74615646D01*
X92470644Y-74600485D01*
X92543382Y-74578420D01*
X92671000Y-74565851D01*
X92798617Y-74578420D01*
G37*
G36*
X90798617Y-74578420D02*
G01*
X90871355Y-74600485D01*
X90921335Y-74615646D01*
X91034424Y-74676094D01*
X91133554Y-74757447D01*
X91214906Y-74856575D01*
X91275354Y-74969664D01*
X91285040Y-75001596D01*
X91312580Y-75092382D01*
X91322000Y-75188027D01*
X91322000Y-75801973D01*
X91312580Y-75897618D01*
X91285040Y-75988404D01*
X91275354Y-76020336D01*
X91214906Y-76133425D01*
X91133554Y-76232554D01*
X91034425Y-76313906D01*
X90921336Y-76374354D01*
X90889404Y-76384040D01*
X90798618Y-76411580D01*
X90671000Y-76424149D01*
X90543383Y-76411580D01*
X90452597Y-76384040D01*
X90420665Y-76374354D01*
X90307576Y-76313906D01*
X90208447Y-76232554D01*
X90127096Y-76133427D01*
X90127095Y-76133425D01*
X90066647Y-76020336D01*
X90066645Y-76020333D01*
X90054237Y-75979427D01*
X90029420Y-75897618D01*
X90020000Y-75801973D01*
X90020000Y-75188028D01*
X90029420Y-75092383D01*
X90066645Y-74969669D01*
X90066646Y-74969665D01*
X90127094Y-74856576D01*
X90208447Y-74757446D01*
X90307575Y-74676094D01*
X90420664Y-74615646D01*
X90470644Y-74600485D01*
X90543382Y-74578420D01*
X90671000Y-74565851D01*
X90798617Y-74578420D01*
G37*
G36*
X88798617Y-74578420D02*
G01*
X88871355Y-74600485D01*
X88921335Y-74615646D01*
X89034424Y-74676094D01*
X89133554Y-74757447D01*
X89214906Y-74856575D01*
X89275354Y-74969664D01*
X89285040Y-75001596D01*
X89312580Y-75092382D01*
X89322000Y-75188027D01*
X89322000Y-75801973D01*
X89312580Y-75897618D01*
X89285040Y-75988404D01*
X89275354Y-76020336D01*
X89214906Y-76133425D01*
X89133554Y-76232554D01*
X89034425Y-76313906D01*
X88921336Y-76374354D01*
X88889404Y-76384040D01*
X88798618Y-76411580D01*
X88671000Y-76424149D01*
X88543383Y-76411580D01*
X88452597Y-76384040D01*
X88420665Y-76374354D01*
X88307576Y-76313906D01*
X88208447Y-76232554D01*
X88127096Y-76133427D01*
X88127095Y-76133425D01*
X88066647Y-76020336D01*
X88066645Y-76020333D01*
X88054237Y-75979427D01*
X88029420Y-75897618D01*
X88020000Y-75801973D01*
X88020000Y-75188028D01*
X88029420Y-75092383D01*
X88066645Y-74969669D01*
X88066646Y-74969665D01*
X88127094Y-74856576D01*
X88208447Y-74757446D01*
X88307575Y-74676094D01*
X88420664Y-74615646D01*
X88470644Y-74600485D01*
X88543382Y-74578420D01*
X88671000Y-74565851D01*
X88798617Y-74578420D01*
G37*
G36*
X86798617Y-74578420D02*
G01*
X86871355Y-74600485D01*
X86921335Y-74615646D01*
X87034424Y-74676094D01*
X87133554Y-74757447D01*
X87214906Y-74856575D01*
X87275354Y-74969664D01*
X87285040Y-75001596D01*
X87312580Y-75092382D01*
X87322000Y-75188027D01*
X87322000Y-75801973D01*
X87312580Y-75897618D01*
X87285040Y-75988404D01*
X87275354Y-76020336D01*
X87214906Y-76133425D01*
X87133554Y-76232554D01*
X87034425Y-76313906D01*
X86921336Y-76374354D01*
X86889404Y-76384040D01*
X86798618Y-76411580D01*
X86671000Y-76424149D01*
X86543383Y-76411580D01*
X86452597Y-76384040D01*
X86420665Y-76374354D01*
X86307576Y-76313906D01*
X86208447Y-76232554D01*
X86127096Y-76133427D01*
X86127095Y-76133425D01*
X86066647Y-76020336D01*
X86066645Y-76020333D01*
X86054237Y-75979427D01*
X86029420Y-75897618D01*
X86020000Y-75801973D01*
X86020000Y-75188028D01*
X86029420Y-75092383D01*
X86066645Y-74969669D01*
X86066646Y-74969665D01*
X86127094Y-74856576D01*
X86208447Y-74757446D01*
X86307575Y-74676094D01*
X86420664Y-74615646D01*
X86470644Y-74600485D01*
X86543382Y-74578420D01*
X86671000Y-74565851D01*
X86798617Y-74578420D01*
G37*
G36*
X100798617Y-74578420D02*
G01*
X100871355Y-74600485D01*
X100921335Y-74615646D01*
X101034424Y-74676094D01*
X101133554Y-74757447D01*
X101214906Y-74856575D01*
X101275354Y-74969664D01*
X101285040Y-75001596D01*
X101312580Y-75092382D01*
X101322000Y-75188027D01*
X101322000Y-75801973D01*
X101312580Y-75897618D01*
X101285040Y-75988404D01*
X101275354Y-76020336D01*
X101214906Y-76133425D01*
X101133554Y-76232554D01*
X101034425Y-76313906D01*
X100921336Y-76374354D01*
X100889404Y-76384040D01*
X100798618Y-76411580D01*
X100671000Y-76424149D01*
X100543383Y-76411580D01*
X100452597Y-76384040D01*
X100420665Y-76374354D01*
X100307576Y-76313906D01*
X100208447Y-76232554D01*
X100127096Y-76133427D01*
X100127095Y-76133425D01*
X100066647Y-76020336D01*
X100066645Y-76020333D01*
X100054237Y-75979427D01*
X100029420Y-75897618D01*
X100020000Y-75801973D01*
X100020000Y-75188028D01*
X100029420Y-75092383D01*
X100066645Y-74969669D01*
X100066646Y-74969665D01*
X100127094Y-74856576D01*
X100208447Y-74757446D01*
X100307575Y-74676094D01*
X100420664Y-74615646D01*
X100470644Y-74600485D01*
X100543382Y-74578420D01*
X100671000Y-74565851D01*
X100798617Y-74578420D01*
G37*
G36*
X85162242Y-74573404D02*
G01*
X85199337Y-74584657D01*
X85233515Y-74602925D01*
X85263481Y-74627519D01*
X85288075Y-74657485D01*
X85306343Y-74691663D01*
X85317596Y-74728758D01*
X85322000Y-74773474D01*
X85322000Y-76216526D01*
X85317596Y-76261242D01*
X85306343Y-76298337D01*
X85288075Y-76332515D01*
X85263481Y-76362481D01*
X85233515Y-76387075D01*
X85199337Y-76405343D01*
X85162242Y-76416596D01*
X85117526Y-76421000D01*
X84224474Y-76421000D01*
X84179758Y-76416596D01*
X84142663Y-76405343D01*
X84108485Y-76387075D01*
X84078519Y-76362481D01*
X84053925Y-76332515D01*
X84035657Y-76298337D01*
X84024404Y-76261242D01*
X84020000Y-76216526D01*
X84020000Y-74773474D01*
X84024404Y-74728758D01*
X84035657Y-74691663D01*
X84053925Y-74657485D01*
X84078519Y-74627519D01*
X84108485Y-74602925D01*
X84142663Y-74584657D01*
X84179758Y-74573404D01*
X84224474Y-74569000D01*
X85117526Y-74569000D01*
X85162242Y-74573404D01*
G37*
G36*
X77654617Y-74521420D02*
G01*
X77735399Y-74545925D01*
X77777335Y-74558646D01*
X77890424Y-74619094D01*
X77989554Y-74700447D01*
X78070906Y-74799575D01*
X78131354Y-74912664D01*
X78141040Y-74944596D01*
X78168580Y-75035382D01*
X78178000Y-75131027D01*
X78178000Y-75744973D01*
X78168580Y-75840618D01*
X78151290Y-75897616D01*
X78131354Y-75963336D01*
X78070906Y-76076425D01*
X77989554Y-76175554D01*
X77890425Y-76256906D01*
X77777336Y-76317354D01*
X77745404Y-76327040D01*
X77654618Y-76354580D01*
X77527000Y-76367149D01*
X77399383Y-76354580D01*
X77308597Y-76327040D01*
X77276665Y-76317354D01*
X77163576Y-76256906D01*
X77064447Y-76175554D01*
X76983096Y-76076427D01*
X76983095Y-76076425D01*
X76922647Y-75963336D01*
X76922645Y-75963333D01*
X76902710Y-75897616D01*
X76885420Y-75840618D01*
X76876000Y-75744973D01*
X76876000Y-75131028D01*
X76885420Y-75035383D01*
X76922645Y-74912669D01*
X76922646Y-74912665D01*
X76983094Y-74799576D01*
X77064447Y-74700446D01*
X77163575Y-74619094D01*
X77276664Y-74558646D01*
X77318600Y-74545925D01*
X77399382Y-74521420D01*
X77527000Y-74508851D01*
X77654617Y-74521420D01*
G37*
G36*
X70452617Y-74521420D02*
G01*
X70533399Y-74545925D01*
X70575335Y-74558646D01*
X70688424Y-74619094D01*
X70787554Y-74700447D01*
X70868906Y-74799575D01*
X70929354Y-74912664D01*
X70939040Y-74944596D01*
X70966580Y-75035382D01*
X70976000Y-75131027D01*
X70976000Y-75744973D01*
X70966580Y-75840618D01*
X70949290Y-75897616D01*
X70929354Y-75963336D01*
X70868906Y-76076425D01*
X70787554Y-76175554D01*
X70688425Y-76256906D01*
X70575336Y-76317354D01*
X70543404Y-76327040D01*
X70452618Y-76354580D01*
X70325000Y-76367149D01*
X70197383Y-76354580D01*
X70106597Y-76327040D01*
X70074665Y-76317354D01*
X69961576Y-76256906D01*
X69862447Y-76175554D01*
X69781096Y-76076427D01*
X69781095Y-76076425D01*
X69720647Y-75963336D01*
X69720645Y-75963333D01*
X69700710Y-75897616D01*
X69683420Y-75840618D01*
X69674000Y-75744973D01*
X69674000Y-75131028D01*
X69683420Y-75035383D01*
X69720645Y-74912669D01*
X69720646Y-74912665D01*
X69781094Y-74799576D01*
X69862447Y-74700446D01*
X69961575Y-74619094D01*
X70074664Y-74558646D01*
X70116600Y-74545925D01*
X70197382Y-74521420D01*
X70325000Y-74508851D01*
X70452617Y-74521420D01*
G37*
G36*
X68452617Y-74521420D02*
G01*
X68533399Y-74545925D01*
X68575335Y-74558646D01*
X68688424Y-74619094D01*
X68787554Y-74700447D01*
X68868906Y-74799575D01*
X68929354Y-74912664D01*
X68939040Y-74944596D01*
X68966580Y-75035382D01*
X68976000Y-75131027D01*
X68976000Y-75744973D01*
X68966580Y-75840618D01*
X68949290Y-75897616D01*
X68929354Y-75963336D01*
X68868906Y-76076425D01*
X68787554Y-76175554D01*
X68688425Y-76256906D01*
X68575336Y-76317354D01*
X68543404Y-76327040D01*
X68452618Y-76354580D01*
X68325000Y-76367149D01*
X68197383Y-76354580D01*
X68106597Y-76327040D01*
X68074665Y-76317354D01*
X67961576Y-76256906D01*
X67862447Y-76175554D01*
X67781096Y-76076427D01*
X67781095Y-76076425D01*
X67720647Y-75963336D01*
X67720645Y-75963333D01*
X67700710Y-75897616D01*
X67683420Y-75840618D01*
X67674000Y-75744973D01*
X67674000Y-75131028D01*
X67683420Y-75035383D01*
X67720645Y-74912669D01*
X67720646Y-74912665D01*
X67781094Y-74799576D01*
X67862447Y-74700446D01*
X67961575Y-74619094D01*
X68074664Y-74558646D01*
X68116600Y-74545925D01*
X68197382Y-74521420D01*
X68325000Y-74508851D01*
X68452617Y-74521420D01*
G37*
G36*
X66452617Y-74521420D02*
G01*
X66533399Y-74545925D01*
X66575335Y-74558646D01*
X66688424Y-74619094D01*
X66787554Y-74700447D01*
X66868906Y-74799575D01*
X66929354Y-74912664D01*
X66939040Y-74944596D01*
X66966580Y-75035382D01*
X66976000Y-75131027D01*
X66976000Y-75744973D01*
X66966580Y-75840618D01*
X66949290Y-75897616D01*
X66929354Y-75963336D01*
X66868906Y-76076425D01*
X66787554Y-76175554D01*
X66688425Y-76256906D01*
X66575336Y-76317354D01*
X66543404Y-76327040D01*
X66452618Y-76354580D01*
X66325000Y-76367149D01*
X66197383Y-76354580D01*
X66106597Y-76327040D01*
X66074665Y-76317354D01*
X65961576Y-76256906D01*
X65862447Y-76175554D01*
X65781096Y-76076427D01*
X65781095Y-76076425D01*
X65720647Y-75963336D01*
X65720645Y-75963333D01*
X65700710Y-75897616D01*
X65683420Y-75840618D01*
X65674000Y-75744973D01*
X65674000Y-75131028D01*
X65683420Y-75035383D01*
X65720645Y-74912669D01*
X65720646Y-74912665D01*
X65781094Y-74799576D01*
X65862447Y-74700446D01*
X65961575Y-74619094D01*
X66074664Y-74558646D01*
X66116600Y-74545925D01*
X66197382Y-74521420D01*
X66325000Y-74508851D01*
X66452617Y-74521420D01*
G37*
G36*
X64452617Y-74521420D02*
G01*
X64533399Y-74545925D01*
X64575335Y-74558646D01*
X64688424Y-74619094D01*
X64787554Y-74700447D01*
X64868906Y-74799575D01*
X64929354Y-74912664D01*
X64939040Y-74944596D01*
X64966580Y-75035382D01*
X64976000Y-75131027D01*
X64976000Y-75744973D01*
X64966580Y-75840618D01*
X64949290Y-75897616D01*
X64929354Y-75963336D01*
X64868906Y-76076425D01*
X64787554Y-76175554D01*
X64688425Y-76256906D01*
X64575336Y-76317354D01*
X64543404Y-76327040D01*
X64452618Y-76354580D01*
X64325000Y-76367149D01*
X64197383Y-76354580D01*
X64106597Y-76327040D01*
X64074665Y-76317354D01*
X63961576Y-76256906D01*
X63862447Y-76175554D01*
X63781096Y-76076427D01*
X63781095Y-76076425D01*
X63720647Y-75963336D01*
X63720645Y-75963333D01*
X63700710Y-75897616D01*
X63683420Y-75840618D01*
X63674000Y-75744973D01*
X63674000Y-75131028D01*
X63683420Y-75035383D01*
X63720645Y-74912669D01*
X63720646Y-74912665D01*
X63781094Y-74799576D01*
X63862447Y-74700446D01*
X63961575Y-74619094D01*
X64074664Y-74558646D01*
X64116600Y-74545925D01*
X64197382Y-74521420D01*
X64325000Y-74508851D01*
X64452617Y-74521420D01*
G37*
G36*
X79654617Y-74521420D02*
G01*
X79735399Y-74545925D01*
X79777335Y-74558646D01*
X79890424Y-74619094D01*
X79989554Y-74700447D01*
X80070906Y-74799575D01*
X80131354Y-74912664D01*
X80141040Y-74944596D01*
X80168580Y-75035382D01*
X80178000Y-75131027D01*
X80178000Y-75744973D01*
X80168580Y-75840618D01*
X80151290Y-75897616D01*
X80131354Y-75963336D01*
X80070906Y-76076425D01*
X79989554Y-76175554D01*
X79890425Y-76256906D01*
X79777336Y-76317354D01*
X79745404Y-76327040D01*
X79654618Y-76354580D01*
X79527000Y-76367149D01*
X79399383Y-76354580D01*
X79308597Y-76327040D01*
X79276665Y-76317354D01*
X79163576Y-76256906D01*
X79064447Y-76175554D01*
X78983096Y-76076427D01*
X78983095Y-76076425D01*
X78922647Y-75963336D01*
X78922645Y-75963333D01*
X78902710Y-75897616D01*
X78885420Y-75840618D01*
X78876000Y-75744973D01*
X78876000Y-75131028D01*
X78885420Y-75035383D01*
X78922645Y-74912669D01*
X78922646Y-74912665D01*
X78983094Y-74799576D01*
X79064447Y-74700446D01*
X79163575Y-74619094D01*
X79276664Y-74558646D01*
X79318600Y-74545925D01*
X79399382Y-74521420D01*
X79527000Y-74508851D01*
X79654617Y-74521420D01*
G37*
G36*
X62452617Y-74521420D02*
G01*
X62533399Y-74545925D01*
X62575335Y-74558646D01*
X62688424Y-74619094D01*
X62787554Y-74700447D01*
X62868906Y-74799575D01*
X62929354Y-74912664D01*
X62939040Y-74944596D01*
X62966580Y-75035382D01*
X62976000Y-75131027D01*
X62976000Y-75744973D01*
X62966580Y-75840618D01*
X62949290Y-75897616D01*
X62929354Y-75963336D01*
X62868906Y-76076425D01*
X62787554Y-76175554D01*
X62688425Y-76256906D01*
X62575336Y-76317354D01*
X62543404Y-76327040D01*
X62452618Y-76354580D01*
X62325000Y-76367149D01*
X62197383Y-76354580D01*
X62106597Y-76327040D01*
X62074665Y-76317354D01*
X61961576Y-76256906D01*
X61862447Y-76175554D01*
X61781096Y-76076427D01*
X61781095Y-76076425D01*
X61720647Y-75963336D01*
X61720645Y-75963333D01*
X61700710Y-75897616D01*
X61683420Y-75840618D01*
X61674000Y-75744973D01*
X61674000Y-75131028D01*
X61683420Y-75035383D01*
X61720645Y-74912669D01*
X61720646Y-74912665D01*
X61781094Y-74799576D01*
X61862447Y-74700446D01*
X61961575Y-74619094D01*
X62074664Y-74558646D01*
X62116600Y-74545925D01*
X62197382Y-74521420D01*
X62325000Y-74508851D01*
X62452617Y-74521420D01*
G37*
G36*
X76018242Y-74516404D02*
G01*
X76055337Y-74527657D01*
X76089515Y-74545925D01*
X76119481Y-74570519D01*
X76144075Y-74600485D01*
X76162343Y-74634663D01*
X76173596Y-74671758D01*
X76178000Y-74716474D01*
X76178000Y-76159526D01*
X76173596Y-76204242D01*
X76162343Y-76241337D01*
X76144075Y-76275515D01*
X76119481Y-76305481D01*
X76089515Y-76330075D01*
X76055337Y-76348343D01*
X76018242Y-76359596D01*
X75973526Y-76364000D01*
X75080474Y-76364000D01*
X75035758Y-76359596D01*
X74998663Y-76348343D01*
X74964485Y-76330075D01*
X74934519Y-76305481D01*
X74909925Y-76275515D01*
X74891657Y-76241337D01*
X74880404Y-76204242D01*
X74876000Y-76159526D01*
X74876000Y-74716474D01*
X74880404Y-74671758D01*
X74891657Y-74634663D01*
X74909925Y-74600485D01*
X74934519Y-74570519D01*
X74964485Y-74545925D01*
X74998663Y-74527657D01*
X75035758Y-74516404D01*
X75080474Y-74512000D01*
X75973526Y-74512000D01*
X76018242Y-74516404D01*
G37*
G36*
X60816242Y-74516404D02*
G01*
X60853337Y-74527657D01*
X60887515Y-74545925D01*
X60917481Y-74570519D01*
X60942075Y-74600485D01*
X60960343Y-74634663D01*
X60971596Y-74671758D01*
X60976000Y-74716474D01*
X60976000Y-76159526D01*
X60971596Y-76204242D01*
X60960343Y-76241337D01*
X60942075Y-76275515D01*
X60917481Y-76305481D01*
X60887515Y-76330075D01*
X60853337Y-76348343D01*
X60816242Y-76359596D01*
X60771526Y-76364000D01*
X59878474Y-76364000D01*
X59833758Y-76359596D01*
X59796663Y-76348343D01*
X59762485Y-76330075D01*
X59732519Y-76305481D01*
X59707925Y-76275515D01*
X59689657Y-76241337D01*
X59678404Y-76204242D01*
X59674000Y-76159526D01*
X59674000Y-74716474D01*
X59678404Y-74671758D01*
X59689657Y-74634663D01*
X59707925Y-74600485D01*
X59732519Y-74570519D01*
X59762485Y-74545925D01*
X59796663Y-74527657D01*
X59833758Y-74516404D01*
X59878474Y-74512000D01*
X60771526Y-74512000D01*
X60816242Y-74516404D01*
G37*
G36*
X72371499Y-71798445D02*
G01*
X72408995Y-71809820D01*
X72443554Y-71828292D01*
X72473847Y-71853153D01*
X72498708Y-71883446D01*
X72517180Y-71918005D01*
X72528555Y-71955501D01*
X72533000Y-72000638D01*
X72533000Y-72639362D01*
X72528555Y-72684499D01*
X72517180Y-72721995D01*
X72498708Y-72756554D01*
X72473847Y-72786847D01*
X72443554Y-72811708D01*
X72408995Y-72830180D01*
X72371499Y-72841555D01*
X72326362Y-72846000D01*
X71587638Y-72846000D01*
X71542501Y-72841555D01*
X71505005Y-72830180D01*
X71470446Y-72811708D01*
X71440153Y-72786847D01*
X71415292Y-72756554D01*
X71396820Y-72721995D01*
X71385445Y-72684499D01*
X71381000Y-72639362D01*
X71381000Y-72000638D01*
X71385445Y-71955501D01*
X71396820Y-71918005D01*
X71415292Y-71883446D01*
X71440153Y-71853153D01*
X71470446Y-71828292D01*
X71505005Y-71809820D01*
X71542501Y-71798445D01*
X71587638Y-71794000D01*
X72326362Y-71794000D01*
X72371499Y-71798445D01*
G37*
G36*
X70621499Y-71798445D02*
G01*
X70658995Y-71809820D01*
X70693554Y-71828292D01*
X70723847Y-71853153D01*
X70748708Y-71883446D01*
X70767180Y-71918005D01*
X70778555Y-71955501D01*
X70783000Y-72000638D01*
X70783000Y-72639362D01*
X70778555Y-72684499D01*
X70767180Y-72721995D01*
X70748708Y-72756554D01*
X70723847Y-72786847D01*
X70693554Y-72811708D01*
X70658995Y-72830180D01*
X70621499Y-72841555D01*
X70576362Y-72846000D01*
X69837638Y-72846000D01*
X69792501Y-72841555D01*
X69755005Y-72830180D01*
X69720446Y-72811708D01*
X69690153Y-72786847D01*
X69665292Y-72756554D01*
X69646820Y-72721995D01*
X69635445Y-72684499D01*
X69631000Y-72639362D01*
X69631000Y-72000638D01*
X69635445Y-71955501D01*
X69646820Y-71918005D01*
X69665292Y-71883446D01*
X69690153Y-71853153D01*
X69720446Y-71828292D01*
X69755005Y-71809820D01*
X69792501Y-71798445D01*
X69837638Y-71794000D01*
X70576362Y-71794000D01*
X70621499Y-71798445D01*
G37*
G36*
X95767499Y-71798445D02*
G01*
X95804995Y-71809820D01*
X95839554Y-71828292D01*
X95869847Y-71853153D01*
X95894708Y-71883446D01*
X95913180Y-71918005D01*
X95924555Y-71955501D01*
X95929000Y-72000638D01*
X95929000Y-72639362D01*
X95924555Y-72684499D01*
X95913180Y-72721995D01*
X95894708Y-72756554D01*
X95869847Y-72786847D01*
X95839554Y-72811708D01*
X95804995Y-72830180D01*
X95767499Y-72841555D01*
X95722362Y-72846000D01*
X94983638Y-72846000D01*
X94938501Y-72841555D01*
X94901005Y-72830180D01*
X94866446Y-72811708D01*
X94836153Y-72786847D01*
X94811292Y-72756554D01*
X94792820Y-72721995D01*
X94781445Y-72684499D01*
X94777000Y-72639362D01*
X94777000Y-72000638D01*
X94781445Y-71955501D01*
X94792820Y-71918005D01*
X94811292Y-71883446D01*
X94836153Y-71853153D01*
X94866446Y-71828292D01*
X94901005Y-71809820D01*
X94938501Y-71798445D01*
X94983638Y-71794000D01*
X95722362Y-71794000D01*
X95767499Y-71798445D01*
G37*
G36*
X97517499Y-71798445D02*
G01*
X97554995Y-71809820D01*
X97589554Y-71828292D01*
X97619847Y-71853153D01*
X97644708Y-71883446D01*
X97663180Y-71918005D01*
X97674555Y-71955501D01*
X97679000Y-72000638D01*
X97679000Y-72639362D01*
X97674555Y-72684499D01*
X97663180Y-72721995D01*
X97644708Y-72756554D01*
X97619847Y-72786847D01*
X97589554Y-72811708D01*
X97554995Y-72830180D01*
X97517499Y-72841555D01*
X97472362Y-72846000D01*
X96733638Y-72846000D01*
X96688501Y-72841555D01*
X96651005Y-72830180D01*
X96616446Y-72811708D01*
X96586153Y-72786847D01*
X96561292Y-72756554D01*
X96542820Y-72721995D01*
X96531445Y-72684499D01*
X96527000Y-72639362D01*
X96527000Y-72000638D01*
X96531445Y-71955501D01*
X96542820Y-71918005D01*
X96561292Y-71883446D01*
X96586153Y-71853153D01*
X96616446Y-71828292D01*
X96651005Y-71809820D01*
X96688501Y-71798445D01*
X96733638Y-71794000D01*
X97472362Y-71794000D01*
X97517499Y-71798445D01*
G37*
G36*
X73986499Y-71607445D02*
G01*
X74023995Y-71618820D01*
X74058554Y-71637292D01*
X74088847Y-71662153D01*
X74113708Y-71692446D01*
X74132180Y-71727005D01*
X74143555Y-71764501D01*
X74148000Y-71809638D01*
X74148000Y-72548362D01*
X74143555Y-72593499D01*
X74132180Y-72630995D01*
X74113708Y-72665554D01*
X74088847Y-72695847D01*
X74058554Y-72720708D01*
X74023995Y-72739180D01*
X73986499Y-72750555D01*
X73941362Y-72755000D01*
X73302638Y-72755000D01*
X73257501Y-72750555D01*
X73220005Y-72739180D01*
X73185446Y-72720708D01*
X73155153Y-72695847D01*
X73130292Y-72665554D01*
X73111820Y-72630995D01*
X73100445Y-72593499D01*
X73096000Y-72548362D01*
X73096000Y-71809638D01*
X73100445Y-71764501D01*
X73111820Y-71727005D01*
X73130292Y-71692446D01*
X73155153Y-71662153D01*
X73185446Y-71637292D01*
X73220005Y-71618820D01*
X73257501Y-71607445D01*
X73302638Y-71603000D01*
X73941362Y-71603000D01*
X73986499Y-71607445D01*
G37*
G36*
X100275499Y-70210445D02*
G01*
X100312995Y-70221820D01*
X100347554Y-70240292D01*
X100377847Y-70265153D01*
X100402708Y-70295446D01*
X100421180Y-70330005D01*
X100432555Y-70367501D01*
X100437000Y-70412638D01*
X100437000Y-71151362D01*
X100432555Y-71196499D01*
X100421180Y-71233995D01*
X100402708Y-71268554D01*
X100377847Y-71298847D01*
X100347554Y-71323708D01*
X100312995Y-71342180D01*
X100275499Y-71353555D01*
X100230362Y-71358000D01*
X99591638Y-71358000D01*
X99546501Y-71353555D01*
X99509005Y-71342180D01*
X99474446Y-71323708D01*
X99444153Y-71298847D01*
X99419292Y-71268554D01*
X99400820Y-71233995D01*
X99389445Y-71196499D01*
X99385000Y-71151362D01*
X99385000Y-70412638D01*
X99389445Y-70367501D01*
X99400820Y-70330005D01*
X99419292Y-70295446D01*
X99444153Y-70265153D01*
X99474446Y-70240292D01*
X99509005Y-70221820D01*
X99546501Y-70210445D01*
X99591638Y-70206000D01*
X100230362Y-70206000D01*
X100275499Y-70210445D01*
G37*
G36*
X88694242Y-70028404D02*
G01*
X88731337Y-70039657D01*
X88765515Y-70057925D01*
X88795481Y-70082519D01*
X88820075Y-70112485D01*
X88838343Y-70146663D01*
X88849596Y-70183758D01*
X88854000Y-70228474D01*
X88854000Y-71121526D01*
X88849596Y-71166242D01*
X88838343Y-71203337D01*
X88820075Y-71237515D01*
X88795481Y-71267481D01*
X88765515Y-71292075D01*
X88731337Y-71310343D01*
X88694242Y-71321596D01*
X88649526Y-71326000D01*
X87156474Y-71326000D01*
X87111758Y-71321596D01*
X87074663Y-71310343D01*
X87040485Y-71292075D01*
X87010519Y-71267481D01*
X86985925Y-71237515D01*
X86967657Y-71203337D01*
X86956404Y-71166242D01*
X86952000Y-71121526D01*
X86952000Y-70228474D01*
X86956404Y-70183758D01*
X86967657Y-70146663D01*
X86985925Y-70112485D01*
X87010519Y-70082519D01*
X87040485Y-70057925D01*
X87074663Y-70039657D01*
X87111758Y-70028404D01*
X87156474Y-70024000D01*
X88649526Y-70024000D01*
X88694242Y-70028404D01*
G37*
G36*
X95767499Y-70147445D02*
G01*
X95804995Y-70158820D01*
X95839554Y-70177292D01*
X95869847Y-70202153D01*
X95894708Y-70232446D01*
X95913180Y-70267005D01*
X95924555Y-70304501D01*
X95929000Y-70349638D01*
X95929000Y-70988362D01*
X95924555Y-71033499D01*
X95913180Y-71070995D01*
X95894708Y-71105554D01*
X95869847Y-71135847D01*
X95839554Y-71160708D01*
X95804995Y-71179180D01*
X95767499Y-71190555D01*
X95722362Y-71195000D01*
X94983638Y-71195000D01*
X94938501Y-71190555D01*
X94901005Y-71179180D01*
X94866446Y-71160708D01*
X94836153Y-71135847D01*
X94811292Y-71105554D01*
X94792820Y-71070995D01*
X94781445Y-71033499D01*
X94777000Y-70988362D01*
X94777000Y-70349638D01*
X94781445Y-70304501D01*
X94792820Y-70267005D01*
X94811292Y-70232446D01*
X94836153Y-70202153D01*
X94866446Y-70177292D01*
X94901005Y-70158820D01*
X94938501Y-70147445D01*
X94983638Y-70143000D01*
X95722362Y-70143000D01*
X95767499Y-70147445D01*
G37*
G36*
X97517499Y-70147445D02*
G01*
X97554995Y-70158820D01*
X97589554Y-70177292D01*
X97619847Y-70202153D01*
X97644708Y-70232446D01*
X97663180Y-70267005D01*
X97674555Y-70304501D01*
X97679000Y-70349638D01*
X97679000Y-70988362D01*
X97674555Y-71033499D01*
X97663180Y-71070995D01*
X97644708Y-71105554D01*
X97619847Y-71135847D01*
X97589554Y-71160708D01*
X97554995Y-71179180D01*
X97517499Y-71190555D01*
X97472362Y-71195000D01*
X96733638Y-71195000D01*
X96688501Y-71190555D01*
X96651005Y-71179180D01*
X96616446Y-71160708D01*
X96586153Y-71135847D01*
X96561292Y-71105554D01*
X96542820Y-71070995D01*
X96531445Y-71033499D01*
X96527000Y-70988362D01*
X96527000Y-70349638D01*
X96531445Y-70304501D01*
X96542820Y-70267005D01*
X96561292Y-70232446D01*
X96586153Y-70202153D01*
X96616446Y-70177292D01*
X96651005Y-70158820D01*
X96688501Y-70147445D01*
X96733638Y-70143000D01*
X97472362Y-70143000D01*
X97517499Y-70147445D01*
G37*
G36*
X73986499Y-69857445D02*
G01*
X74023995Y-69868820D01*
X74058554Y-69887292D01*
X74088847Y-69912153D01*
X74113708Y-69942446D01*
X74132180Y-69977005D01*
X74143555Y-70014501D01*
X74148000Y-70059638D01*
X74148000Y-70798362D01*
X74143555Y-70843499D01*
X74132180Y-70880995D01*
X74113708Y-70915554D01*
X74088847Y-70945847D01*
X74058554Y-70970708D01*
X74023995Y-70989180D01*
X73986499Y-71000555D01*
X73941362Y-71005000D01*
X73302638Y-71005000D01*
X73257501Y-71000555D01*
X73220005Y-70989180D01*
X73185446Y-70970708D01*
X73155153Y-70945847D01*
X73130292Y-70915554D01*
X73111820Y-70880995D01*
X73100445Y-70843499D01*
X73096000Y-70798362D01*
X73096000Y-70059638D01*
X73100445Y-70014501D01*
X73111820Y-69977005D01*
X73130292Y-69942446D01*
X73155153Y-69912153D01*
X73185446Y-69887292D01*
X73220005Y-69868820D01*
X73257501Y-69857445D01*
X73302638Y-69853000D01*
X73941362Y-69853000D01*
X73986499Y-69857445D01*
G37*
G36*
X104403499Y-69766445D02*
G01*
X104440995Y-69777820D01*
X104475554Y-69796292D01*
X104505847Y-69821153D01*
X104530708Y-69851446D01*
X104549180Y-69886005D01*
X104560555Y-69923501D01*
X104565000Y-69968638D01*
X104565000Y-70607362D01*
X104560555Y-70652499D01*
X104549180Y-70689995D01*
X104530708Y-70724554D01*
X104505847Y-70754847D01*
X104475554Y-70779708D01*
X104440995Y-70798180D01*
X104403499Y-70809555D01*
X104358362Y-70814000D01*
X103619638Y-70814000D01*
X103574501Y-70809555D01*
X103537005Y-70798180D01*
X103502446Y-70779708D01*
X103472153Y-70754847D01*
X103447292Y-70724554D01*
X103428820Y-70689995D01*
X103417445Y-70652499D01*
X103413000Y-70607362D01*
X103413000Y-69968638D01*
X103417445Y-69923501D01*
X103428820Y-69886005D01*
X103447292Y-69851446D01*
X103472153Y-69821153D01*
X103502446Y-69796292D01*
X103537005Y-69777820D01*
X103574501Y-69766445D01*
X103619638Y-69762000D01*
X104358362Y-69762000D01*
X104403499Y-69766445D01*
G37*
G36*
X106153499Y-69766445D02*
G01*
X106190995Y-69777820D01*
X106225554Y-69796292D01*
X106255847Y-69821153D01*
X106280708Y-69851446D01*
X106299180Y-69886005D01*
X106310555Y-69923501D01*
X106315000Y-69968638D01*
X106315000Y-70607362D01*
X106310555Y-70652499D01*
X106299180Y-70689995D01*
X106280708Y-70724554D01*
X106255847Y-70754847D01*
X106225554Y-70779708D01*
X106190995Y-70798180D01*
X106153499Y-70809555D01*
X106108362Y-70814000D01*
X105369638Y-70814000D01*
X105324501Y-70809555D01*
X105287005Y-70798180D01*
X105252446Y-70779708D01*
X105222153Y-70754847D01*
X105197292Y-70724554D01*
X105178820Y-70689995D01*
X105167445Y-70652499D01*
X105163000Y-70607362D01*
X105163000Y-69968638D01*
X105167445Y-69923501D01*
X105178820Y-69886005D01*
X105197292Y-69851446D01*
X105222153Y-69821153D01*
X105252446Y-69796292D01*
X105287005Y-69777820D01*
X105324501Y-69766445D01*
X105369638Y-69762000D01*
X106108362Y-69762000D01*
X106153499Y-69766445D01*
G37*
G36*
X72391468Y-69287565D02*
G01*
X72430138Y-69299296D01*
X72465777Y-69318346D01*
X72497017Y-69343983D01*
X72522654Y-69375223D01*
X72541704Y-69410862D01*
X72553435Y-69449532D01*
X72558000Y-69495888D01*
X72558000Y-70572112D01*
X72553435Y-70618468D01*
X72541704Y-70657138D01*
X72522654Y-70692777D01*
X72497017Y-70724017D01*
X72465777Y-70749654D01*
X72430138Y-70768704D01*
X72391468Y-70780435D01*
X72345112Y-70785000D01*
X71693888Y-70785000D01*
X71647532Y-70780435D01*
X71608862Y-70768704D01*
X71573223Y-70749654D01*
X71541983Y-70724017D01*
X71516346Y-70692777D01*
X71497296Y-70657138D01*
X71485565Y-70618468D01*
X71481000Y-70572112D01*
X71481000Y-69495888D01*
X71485565Y-69449532D01*
X71497296Y-69410862D01*
X71516346Y-69375223D01*
X71541983Y-69343983D01*
X71573223Y-69318346D01*
X71608862Y-69299296D01*
X71647532Y-69287565D01*
X71693888Y-69283000D01*
X72345112Y-69283000D01*
X72391468Y-69287565D01*
G37*
G36*
X70516468Y-69287565D02*
G01*
X70555138Y-69299296D01*
X70590777Y-69318346D01*
X70622017Y-69343983D01*
X70647654Y-69375223D01*
X70666704Y-69410862D01*
X70678435Y-69449532D01*
X70683000Y-69495888D01*
X70683000Y-70572112D01*
X70678435Y-70618468D01*
X70666704Y-70657138D01*
X70647654Y-70692777D01*
X70622017Y-70724017D01*
X70590777Y-70749654D01*
X70555138Y-70768704D01*
X70516468Y-70780435D01*
X70470112Y-70785000D01*
X69818888Y-70785000D01*
X69772532Y-70780435D01*
X69733862Y-70768704D01*
X69698223Y-70749654D01*
X69666983Y-70724017D01*
X69641346Y-70692777D01*
X69622296Y-70657138D01*
X69610565Y-70618468D01*
X69606000Y-70572112D01*
X69606000Y-69495888D01*
X69610565Y-69449532D01*
X69622296Y-69410862D01*
X69641346Y-69375223D01*
X69666983Y-69343983D01*
X69698223Y-69318346D01*
X69733862Y-69299296D01*
X69772532Y-69287565D01*
X69818888Y-69283000D01*
X70470112Y-69283000D01*
X70516468Y-69287565D01*
G37*
G36*
X66375000Y-70705000D02*
G01*
X62073000Y-70705000D01*
X62073000Y-68203000D01*
X66375000Y-68203000D01*
X66375000Y-70705000D01*
G37*
G36*
X78752786Y-68124746D02*
G01*
X78783461Y-68134051D01*
X78811729Y-68149161D01*
X78836506Y-68169494D01*
X78856839Y-68194271D01*
X78871949Y-68222539D01*
X78881254Y-68253214D01*
X78885000Y-68291251D01*
X78885000Y-70302749D01*
X78881254Y-70340786D01*
X78871949Y-70371461D01*
X78856839Y-70399729D01*
X78836506Y-70424506D01*
X78811729Y-70444839D01*
X78783461Y-70459949D01*
X78752786Y-70469254D01*
X78714749Y-70473000D01*
X76403251Y-70473000D01*
X76365214Y-70469254D01*
X76334539Y-70459949D01*
X76306271Y-70444839D01*
X76281494Y-70424506D01*
X76261161Y-70399729D01*
X76246051Y-70371461D01*
X76236746Y-70340786D01*
X76233000Y-70302749D01*
X76233000Y-68291251D01*
X76236746Y-68253214D01*
X76246051Y-68222539D01*
X76261161Y-68194271D01*
X76281494Y-68169494D01*
X76306271Y-68149161D01*
X76334539Y-68134051D01*
X76365214Y-68124746D01*
X76403251Y-68121000D01*
X78714749Y-68121000D01*
X78752786Y-68124746D01*
G37*
G36*
X86112928Y-69026764D02*
G01*
X86134009Y-69033160D01*
X86153445Y-69043548D01*
X86170476Y-69057524D01*
X86184452Y-69074555D01*
X86194840Y-69093991D01*
X86201236Y-69115072D01*
X86204000Y-69143140D01*
X86204000Y-69606860D01*
X86201236Y-69634928D01*
X86194840Y-69656009D01*
X86184452Y-69675445D01*
X86170476Y-69692476D01*
X86153445Y-69706452D01*
X86134009Y-69716840D01*
X86112928Y-69723236D01*
X86084860Y-69726000D01*
X84671140Y-69726000D01*
X84643072Y-69723236D01*
X84621991Y-69716840D01*
X84602555Y-69706452D01*
X84585524Y-69692476D01*
X84571548Y-69675445D01*
X84561160Y-69656009D01*
X84554764Y-69634928D01*
X84552000Y-69606860D01*
X84552000Y-69143140D01*
X84554764Y-69115072D01*
X84561160Y-69093991D01*
X84571548Y-69074555D01*
X84585524Y-69057524D01*
X84602555Y-69043548D01*
X84621991Y-69033160D01*
X84643072Y-69026764D01*
X84671140Y-69024000D01*
X86084860Y-69024000D01*
X86112928Y-69026764D01*
G37*
G36*
X100275499Y-68460445D02*
G01*
X100312995Y-68471820D01*
X100347554Y-68490292D01*
X100377847Y-68515153D01*
X100402708Y-68545446D01*
X100421180Y-68580005D01*
X100432555Y-68617501D01*
X100437000Y-68662638D01*
X100437000Y-69401362D01*
X100432555Y-69446499D01*
X100421180Y-69483995D01*
X100402708Y-69518554D01*
X100377847Y-69548847D01*
X100347554Y-69573708D01*
X100312995Y-69592180D01*
X100275499Y-69603555D01*
X100230362Y-69608000D01*
X99591638Y-69608000D01*
X99546501Y-69603555D01*
X99509005Y-69592180D01*
X99474446Y-69573708D01*
X99444153Y-69548847D01*
X99419292Y-69518554D01*
X99400820Y-69483995D01*
X99389445Y-69446499D01*
X99385000Y-69401362D01*
X99385000Y-68662638D01*
X99389445Y-68617501D01*
X99400820Y-68580005D01*
X99419292Y-68545446D01*
X99444153Y-68515153D01*
X99474446Y-68490292D01*
X99509005Y-68471820D01*
X99546501Y-68460445D01*
X99591638Y-68456000D01*
X100230362Y-68456000D01*
X100275499Y-68460445D01*
G37*
G36*
X92769051Y-67949284D02*
G01*
X92785443Y-67954257D01*
X92800555Y-67962334D01*
X92813798Y-67973202D01*
X92824667Y-67986447D01*
X92828761Y-67994106D01*
X92842374Y-68014480D01*
X92859701Y-68031807D01*
X92880076Y-68045421D01*
X92902714Y-68054798D01*
X92926748Y-68059579D01*
X92951252Y-68059579D01*
X92975285Y-68054799D01*
X92997924Y-68045421D01*
X93018298Y-68031808D01*
X93035625Y-68014481D01*
X93049239Y-67994106D01*
X93053333Y-67986447D01*
X93064202Y-67973202D01*
X93077445Y-67962334D01*
X93092557Y-67954257D01*
X93108949Y-67949284D01*
X93132141Y-67947000D01*
X93545859Y-67947000D01*
X93569051Y-67949284D01*
X93585443Y-67954257D01*
X93600555Y-67962334D01*
X93613798Y-67973202D01*
X93624667Y-67986447D01*
X93628761Y-67994106D01*
X93642374Y-68014480D01*
X93659701Y-68031807D01*
X93680076Y-68045421D01*
X93702714Y-68054798D01*
X93726748Y-68059579D01*
X93751252Y-68059579D01*
X93775285Y-68054799D01*
X93797924Y-68045421D01*
X93818298Y-68031808D01*
X93835625Y-68014481D01*
X93849239Y-67994106D01*
X93853333Y-67986447D01*
X93864202Y-67973202D01*
X93877445Y-67962334D01*
X93892557Y-67954257D01*
X93908949Y-67949284D01*
X93932141Y-67947000D01*
X94345859Y-67947000D01*
X94369051Y-67949284D01*
X94385443Y-67954257D01*
X94400555Y-67962334D01*
X94413798Y-67973202D01*
X94424667Y-67986447D01*
X94428761Y-67994106D01*
X94442374Y-68014480D01*
X94459701Y-68031807D01*
X94480076Y-68045421D01*
X94502714Y-68054798D01*
X94526748Y-68059579D01*
X94551252Y-68059579D01*
X94575285Y-68054799D01*
X94597924Y-68045421D01*
X94618298Y-68031808D01*
X94635625Y-68014481D01*
X94649239Y-67994106D01*
X94653333Y-67986447D01*
X94664202Y-67973202D01*
X94677445Y-67962334D01*
X94692557Y-67954257D01*
X94708949Y-67949284D01*
X94732141Y-67947000D01*
X95145859Y-67947000D01*
X95169051Y-67949284D01*
X95185443Y-67954257D01*
X95200555Y-67962334D01*
X95213798Y-67973202D01*
X95224667Y-67986447D01*
X95228761Y-67994106D01*
X95242374Y-68014480D01*
X95259701Y-68031807D01*
X95280076Y-68045421D01*
X95302714Y-68054798D01*
X95326748Y-68059579D01*
X95351252Y-68059579D01*
X95375285Y-68054799D01*
X95397924Y-68045421D01*
X95418298Y-68031808D01*
X95435625Y-68014481D01*
X95449239Y-67994106D01*
X95453333Y-67986447D01*
X95464202Y-67973202D01*
X95477445Y-67962334D01*
X95492557Y-67954257D01*
X95508949Y-67949284D01*
X95532141Y-67947000D01*
X95945859Y-67947000D01*
X95969051Y-67949284D01*
X95985443Y-67954257D01*
X96000555Y-67962334D01*
X96013798Y-67973202D01*
X96024667Y-67986447D01*
X96028761Y-67994106D01*
X96042374Y-68014480D01*
X96059701Y-68031807D01*
X96080076Y-68045421D01*
X96102714Y-68054798D01*
X96126748Y-68059579D01*
X96151252Y-68059579D01*
X96175285Y-68054799D01*
X96197924Y-68045421D01*
X96218298Y-68031808D01*
X96235625Y-68014481D01*
X96249239Y-67994106D01*
X96253333Y-67986447D01*
X96264202Y-67973202D01*
X96277445Y-67962334D01*
X96292557Y-67954257D01*
X96308949Y-67949284D01*
X96332141Y-67947000D01*
X96745859Y-67947000D01*
X96769051Y-67949284D01*
X96785443Y-67954257D01*
X96800555Y-67962334D01*
X96813798Y-67973202D01*
X96824667Y-67986447D01*
X96828761Y-67994106D01*
X96842374Y-68014480D01*
X96859701Y-68031807D01*
X96880076Y-68045421D01*
X96902714Y-68054798D01*
X96926748Y-68059579D01*
X96951252Y-68059579D01*
X96975285Y-68054799D01*
X96997924Y-68045421D01*
X97018298Y-68031808D01*
X97035625Y-68014481D01*
X97049239Y-67994106D01*
X97053333Y-67986447D01*
X97064202Y-67973202D01*
X97077445Y-67962334D01*
X97092557Y-67954257D01*
X97108949Y-67949284D01*
X97132141Y-67947000D01*
X97545859Y-67947000D01*
X97569051Y-67949284D01*
X97585443Y-67954257D01*
X97600555Y-67962334D01*
X97613798Y-67973202D01*
X97624667Y-67986447D01*
X97628761Y-67994106D01*
X97642374Y-68014480D01*
X97659701Y-68031807D01*
X97680076Y-68045421D01*
X97702714Y-68054798D01*
X97726748Y-68059579D01*
X97751252Y-68059579D01*
X97775285Y-68054799D01*
X97797924Y-68045421D01*
X97818298Y-68031808D01*
X97835625Y-68014481D01*
X97849239Y-67994106D01*
X97853333Y-67986447D01*
X97864202Y-67973202D01*
X97877445Y-67962334D01*
X97892557Y-67954257D01*
X97908949Y-67949284D01*
X97932141Y-67947000D01*
X98345859Y-67947000D01*
X98369051Y-67949284D01*
X98385443Y-67954257D01*
X98400555Y-67962334D01*
X98413798Y-67973202D01*
X98424666Y-67986445D01*
X98432743Y-68001557D01*
X98437716Y-68017949D01*
X98440000Y-68041141D01*
X98440000Y-69454859D01*
X98437716Y-69478051D01*
X98432743Y-69494443D01*
X98424666Y-69509555D01*
X98413798Y-69522798D01*
X98400555Y-69533666D01*
X98385443Y-69541743D01*
X98369051Y-69546716D01*
X98345859Y-69549000D01*
X97932141Y-69549000D01*
X97908949Y-69546716D01*
X97892557Y-69541743D01*
X97877445Y-69533666D01*
X97864202Y-69522798D01*
X97853333Y-69509553D01*
X97849239Y-69501894D01*
X97835626Y-69481520D01*
X97818299Y-69464193D01*
X97797924Y-69450579D01*
X97775286Y-69441202D01*
X97751252Y-69436421D01*
X97726748Y-69436421D01*
X97702715Y-69441201D01*
X97680076Y-69450579D01*
X97659702Y-69464192D01*
X97642375Y-69481519D01*
X97628761Y-69501894D01*
X97624667Y-69509553D01*
X97613798Y-69522798D01*
X97600555Y-69533666D01*
X97585443Y-69541743D01*
X97569051Y-69546716D01*
X97545859Y-69549000D01*
X97132141Y-69549000D01*
X97108949Y-69546716D01*
X97092557Y-69541743D01*
X97077445Y-69533666D01*
X97064202Y-69522798D01*
X97053333Y-69509553D01*
X97049239Y-69501894D01*
X97035626Y-69481520D01*
X97018299Y-69464193D01*
X96997924Y-69450579D01*
X96975286Y-69441202D01*
X96951252Y-69436421D01*
X96926748Y-69436421D01*
X96902715Y-69441201D01*
X96880076Y-69450579D01*
X96859702Y-69464192D01*
X96842375Y-69481519D01*
X96828761Y-69501894D01*
X96824667Y-69509553D01*
X96813798Y-69522798D01*
X96800555Y-69533666D01*
X96785443Y-69541743D01*
X96769051Y-69546716D01*
X96745859Y-69549000D01*
X96332141Y-69549000D01*
X96308949Y-69546716D01*
X96292557Y-69541743D01*
X96277445Y-69533666D01*
X96264202Y-69522798D01*
X96253333Y-69509553D01*
X96249239Y-69501894D01*
X96235626Y-69481520D01*
X96218299Y-69464193D01*
X96197924Y-69450579D01*
X96175286Y-69441202D01*
X96151252Y-69436421D01*
X96126748Y-69436421D01*
X96102715Y-69441201D01*
X96080076Y-69450579D01*
X96059702Y-69464192D01*
X96042375Y-69481519D01*
X96028761Y-69501894D01*
X96024667Y-69509553D01*
X96013798Y-69522798D01*
X96000555Y-69533666D01*
X95985443Y-69541743D01*
X95969051Y-69546716D01*
X95945859Y-69549000D01*
X95532141Y-69549000D01*
X95508949Y-69546716D01*
X95492557Y-69541743D01*
X95477445Y-69533666D01*
X95464202Y-69522798D01*
X95453333Y-69509553D01*
X95449239Y-69501894D01*
X95435626Y-69481520D01*
X95418299Y-69464193D01*
X95397924Y-69450579D01*
X95375286Y-69441202D01*
X95351252Y-69436421D01*
X95326748Y-69436421D01*
X95302715Y-69441201D01*
X95280076Y-69450579D01*
X95259702Y-69464192D01*
X95242375Y-69481519D01*
X95228761Y-69501894D01*
X95224667Y-69509553D01*
X95213798Y-69522798D01*
X95200555Y-69533666D01*
X95185443Y-69541743D01*
X95169051Y-69546716D01*
X95145859Y-69549000D01*
X94732141Y-69549000D01*
X94708949Y-69546716D01*
X94692557Y-69541743D01*
X94677445Y-69533666D01*
X94664202Y-69522798D01*
X94653333Y-69509553D01*
X94649239Y-69501894D01*
X94635626Y-69481520D01*
X94618299Y-69464193D01*
X94597924Y-69450579D01*
X94575286Y-69441202D01*
X94551252Y-69436421D01*
X94526748Y-69436421D01*
X94502715Y-69441201D01*
X94480076Y-69450579D01*
X94459702Y-69464192D01*
X94442375Y-69481519D01*
X94428761Y-69501894D01*
X94424667Y-69509553D01*
X94413798Y-69522798D01*
X94400555Y-69533666D01*
X94385443Y-69541743D01*
X94369051Y-69546716D01*
X94345859Y-69549000D01*
X93932141Y-69549000D01*
X93908949Y-69546716D01*
X93892557Y-69541743D01*
X93877445Y-69533666D01*
X93864202Y-69522798D01*
X93853333Y-69509553D01*
X93849239Y-69501894D01*
X93835626Y-69481520D01*
X93818299Y-69464193D01*
X93797924Y-69450579D01*
X93775286Y-69441202D01*
X93751252Y-69436421D01*
X93726748Y-69436421D01*
X93702715Y-69441201D01*
X93680076Y-69450579D01*
X93659702Y-69464192D01*
X93642375Y-69481519D01*
X93628761Y-69501894D01*
X93624667Y-69509553D01*
X93613798Y-69522798D01*
X93600555Y-69533666D01*
X93585443Y-69541743D01*
X93569051Y-69546716D01*
X93545859Y-69549000D01*
X93132141Y-69549000D01*
X93108949Y-69546716D01*
X93092557Y-69541743D01*
X93077445Y-69533666D01*
X93064202Y-69522798D01*
X93053333Y-69509553D01*
X93049239Y-69501894D01*
X93035626Y-69481520D01*
X93018299Y-69464193D01*
X92997924Y-69450579D01*
X92975286Y-69441202D01*
X92951252Y-69436421D01*
X92926748Y-69436421D01*
X92902715Y-69441201D01*
X92880076Y-69450579D01*
X92859702Y-69464192D01*
X92842375Y-69481519D01*
X92828761Y-69501894D01*
X92824667Y-69509553D01*
X92813798Y-69522798D01*
X92800555Y-69533666D01*
X92785443Y-69541743D01*
X92769051Y-69546716D01*
X92745859Y-69549000D01*
X92332141Y-69549000D01*
X92308949Y-69546716D01*
X92292557Y-69541743D01*
X92277445Y-69533666D01*
X92264202Y-69522798D01*
X92253334Y-69509555D01*
X92245257Y-69494443D01*
X92240284Y-69478051D01*
X92238000Y-69454859D01*
X92238000Y-68041141D01*
X92240284Y-68017949D01*
X92245257Y-68001557D01*
X92253334Y-67986445D01*
X92264202Y-67973202D01*
X92277445Y-67962334D01*
X92292557Y-67954257D01*
X92308949Y-67949284D01*
X92332141Y-67947000D01*
X92745859Y-67947000D01*
X92769051Y-67949284D01*
G37*
G36*
X104315000Y-69175000D02*
G01*
X103013000Y-69175000D01*
X103013000Y-67273000D01*
X104315000Y-67273000D01*
X104315000Y-69175000D01*
G37*
G36*
X106715000Y-69175000D02*
G01*
X105413000Y-69175000D01*
X105413000Y-67273000D01*
X106715000Y-67273000D01*
X106715000Y-69175000D01*
G37*
G36*
X52365213Y-67896249D02*
G01*
X52459652Y-67924897D01*
X52546687Y-67971418D01*
X52622975Y-68034025D01*
X52685582Y-68110313D01*
X52732103Y-68197348D01*
X52760751Y-68291787D01*
X52770424Y-68390000D01*
X52760751Y-68488213D01*
X52732103Y-68582652D01*
X52685582Y-68669687D01*
X52622975Y-68745975D01*
X52546687Y-68808582D01*
X52459652Y-68855103D01*
X52365213Y-68883751D01*
X52291612Y-68891000D01*
X51442388Y-68891000D01*
X51368787Y-68883751D01*
X51274348Y-68855103D01*
X51187313Y-68808582D01*
X51111025Y-68745975D01*
X51048418Y-68669687D01*
X51001897Y-68582652D01*
X50973249Y-68488213D01*
X50963576Y-68390000D01*
X50973249Y-68291787D01*
X51001897Y-68197348D01*
X51048418Y-68110313D01*
X51111025Y-68034025D01*
X51187313Y-67971418D01*
X51274348Y-67924897D01*
X51368787Y-67896249D01*
X51442388Y-67889000D01*
X52291612Y-67889000D01*
X52365213Y-67896249D01*
G37*
G36*
X56095213Y-67896249D02*
G01*
X56189652Y-67924897D01*
X56276687Y-67971418D01*
X56352975Y-68034025D01*
X56415582Y-68110313D01*
X56462103Y-68197348D01*
X56490751Y-68291787D01*
X56500424Y-68390000D01*
X56490751Y-68488213D01*
X56462103Y-68582652D01*
X56415582Y-68669687D01*
X56352975Y-68745975D01*
X56276687Y-68808582D01*
X56189652Y-68855103D01*
X56095213Y-68883751D01*
X56021612Y-68891000D01*
X54472388Y-68891000D01*
X54398787Y-68883751D01*
X54304348Y-68855103D01*
X54217313Y-68808582D01*
X54141025Y-68745975D01*
X54078418Y-68669687D01*
X54031897Y-68582652D01*
X54003249Y-68488213D01*
X53993576Y-68390000D01*
X54003249Y-68291787D01*
X54031897Y-68197348D01*
X54078418Y-68110313D01*
X54141025Y-68034025D01*
X54217313Y-67971418D01*
X54304348Y-67924897D01*
X54398787Y-67896249D01*
X54472388Y-67889000D01*
X56021612Y-67889000D01*
X56095213Y-67896249D01*
G37*
G36*
X71181232Y-63926563D02*
G01*
X71190595Y-63929403D01*
X71199224Y-63934016D01*
X71206782Y-63940218D01*
X71215979Y-63951425D01*
X71224374Y-63963990D01*
X71241701Y-63981317D01*
X71262076Y-63994931D01*
X71284714Y-64004309D01*
X71308748Y-64009089D01*
X71333252Y-64009089D01*
X71357285Y-64004309D01*
X71379924Y-63994931D01*
X71400298Y-63981318D01*
X71417625Y-63963991D01*
X71426021Y-63951426D01*
X71435218Y-63940218D01*
X71442776Y-63934016D01*
X71451405Y-63929403D01*
X71460768Y-63926563D01*
X71476640Y-63925000D01*
X71815360Y-63925000D01*
X71831232Y-63926563D01*
X71840595Y-63929403D01*
X71849224Y-63934016D01*
X71856782Y-63940218D01*
X71865979Y-63951425D01*
X71874374Y-63963990D01*
X71891701Y-63981317D01*
X71912076Y-63994931D01*
X71934714Y-64004309D01*
X71958748Y-64009089D01*
X71983252Y-64009089D01*
X72007285Y-64004309D01*
X72029924Y-63994931D01*
X72050298Y-63981318D01*
X72067625Y-63963991D01*
X72076021Y-63951426D01*
X72085218Y-63940218D01*
X72092776Y-63934016D01*
X72101405Y-63929403D01*
X72110768Y-63926563D01*
X72126640Y-63925000D01*
X72465360Y-63925000D01*
X72481232Y-63926563D01*
X72490595Y-63929403D01*
X72499224Y-63934016D01*
X72506782Y-63940218D01*
X72515979Y-63951425D01*
X72524374Y-63963990D01*
X72541701Y-63981317D01*
X72562076Y-63994931D01*
X72584714Y-64004309D01*
X72608748Y-64009089D01*
X72633252Y-64009089D01*
X72657285Y-64004309D01*
X72679924Y-63994931D01*
X72700298Y-63981318D01*
X72717625Y-63963991D01*
X72726021Y-63951426D01*
X72735218Y-63940218D01*
X72742776Y-63934016D01*
X72751405Y-63929403D01*
X72760768Y-63926563D01*
X72776640Y-63925000D01*
X73115360Y-63925000D01*
X73131232Y-63926563D01*
X73140595Y-63929403D01*
X73149224Y-63934016D01*
X73156782Y-63940218D01*
X73162984Y-63947776D01*
X73167597Y-63956405D01*
X73170437Y-63965768D01*
X73172000Y-63981640D01*
X73172000Y-64795360D01*
X73169450Y-64821255D01*
X73168584Y-64825604D01*
X73168582Y-64850108D01*
X73173359Y-64874142D01*
X73182734Y-64896782D01*
X73196345Y-64917158D01*
X73213670Y-64934487D01*
X73234043Y-64948103D01*
X73256696Y-64957487D01*
X73273719Y-64962651D01*
X73301071Y-64977271D01*
X73325050Y-64996950D01*
X73344729Y-65020929D01*
X73359349Y-65048281D01*
X73364513Y-65065304D01*
X73373890Y-65087943D01*
X73387504Y-65108318D01*
X73404831Y-65125645D01*
X73425205Y-65139259D01*
X73447844Y-65148636D01*
X73471877Y-65153417D01*
X73496381Y-65153417D01*
X73500729Y-65152552D01*
X73526640Y-65150000D01*
X74340360Y-65150000D01*
X74356232Y-65151563D01*
X74365595Y-65154403D01*
X74374224Y-65159016D01*
X74381782Y-65165218D01*
X74387984Y-65172776D01*
X74392597Y-65181405D01*
X74395437Y-65190768D01*
X74397000Y-65206640D01*
X74397000Y-65545360D01*
X74395437Y-65561232D01*
X74392597Y-65570595D01*
X74387984Y-65579224D01*
X74381782Y-65586782D01*
X74370575Y-65595979D01*
X74358010Y-65604374D01*
X74340683Y-65621701D01*
X74327069Y-65642076D01*
X74317691Y-65664714D01*
X74312911Y-65688748D01*
X74312911Y-65713252D01*
X74317691Y-65737285D01*
X74327069Y-65759924D01*
X74340682Y-65780298D01*
X74358009Y-65797625D01*
X74370574Y-65806021D01*
X74381782Y-65815218D01*
X74387984Y-65822776D01*
X74392597Y-65831405D01*
X74395437Y-65840768D01*
X74397000Y-65856640D01*
X74397000Y-66195360D01*
X74395437Y-66211232D01*
X74392597Y-66220595D01*
X74387984Y-66229224D01*
X74381782Y-66236782D01*
X74370575Y-66245979D01*
X74358010Y-66254374D01*
X74340683Y-66271701D01*
X74327069Y-66292076D01*
X74317691Y-66314714D01*
X74312911Y-66338748D01*
X74312911Y-66363252D01*
X74317691Y-66387285D01*
X74327069Y-66409924D01*
X74340682Y-66430298D01*
X74358009Y-66447625D01*
X74370574Y-66456021D01*
X74381782Y-66465218D01*
X74387984Y-66472776D01*
X74392597Y-66481405D01*
X74395437Y-66490768D01*
X74397000Y-66506640D01*
X74397000Y-66845360D01*
X74395437Y-66861232D01*
X74392597Y-66870595D01*
X74387984Y-66879224D01*
X74381782Y-66886782D01*
X74370575Y-66895979D01*
X74358010Y-66904374D01*
X74340683Y-66921701D01*
X74327069Y-66942076D01*
X74317691Y-66964714D01*
X74312911Y-66988748D01*
X74312911Y-67013252D01*
X74317691Y-67037285D01*
X74327069Y-67059924D01*
X74340682Y-67080298D01*
X74358009Y-67097625D01*
X74370574Y-67106021D01*
X74381782Y-67115218D01*
X74387984Y-67122776D01*
X74392597Y-67131405D01*
X74395437Y-67140768D01*
X74397000Y-67156640D01*
X74397000Y-67495360D01*
X74395437Y-67511232D01*
X74392597Y-67520595D01*
X74387984Y-67529224D01*
X74381782Y-67536782D01*
X74374224Y-67542984D01*
X74365595Y-67547597D01*
X74356232Y-67550437D01*
X74340360Y-67552000D01*
X73526640Y-67552000D01*
X73500745Y-67549450D01*
X73496396Y-67548584D01*
X73471892Y-67548582D01*
X73447858Y-67553359D01*
X73425218Y-67562734D01*
X73404842Y-67576345D01*
X73387513Y-67593670D01*
X73373897Y-67614043D01*
X73364513Y-67636696D01*
X73359349Y-67653719D01*
X73344729Y-67681071D01*
X73325050Y-67705050D01*
X73301071Y-67724729D01*
X73273719Y-67739349D01*
X73256696Y-67744513D01*
X73234057Y-67753890D01*
X73213682Y-67767504D01*
X73196355Y-67784831D01*
X73182741Y-67805205D01*
X73173364Y-67827844D01*
X73168583Y-67851877D01*
X73168583Y-67876381D01*
X73169448Y-67880729D01*
X73172000Y-67906640D01*
X73172000Y-68720360D01*
X73170437Y-68736232D01*
X73167597Y-68745595D01*
X73162984Y-68754224D01*
X73156782Y-68761782D01*
X73149224Y-68767984D01*
X73140595Y-68772597D01*
X73131232Y-68775437D01*
X73115360Y-68777000D01*
X72776640Y-68777000D01*
X72760768Y-68775437D01*
X72751405Y-68772597D01*
X72742776Y-68767984D01*
X72735218Y-68761782D01*
X72726021Y-68750575D01*
X72717626Y-68738010D01*
X72700299Y-68720683D01*
X72679924Y-68707069D01*
X72657286Y-68697691D01*
X72633252Y-68692911D01*
X72608748Y-68692911D01*
X72584715Y-68697691D01*
X72562076Y-68707069D01*
X72541702Y-68720682D01*
X72524375Y-68738009D01*
X72515979Y-68750574D01*
X72506782Y-68761782D01*
X72499224Y-68767984D01*
X72490595Y-68772597D01*
X72481232Y-68775437D01*
X72465360Y-68777000D01*
X72126640Y-68777000D01*
X72110768Y-68775437D01*
X72101405Y-68772597D01*
X72092776Y-68767984D01*
X72085218Y-68761782D01*
X72076021Y-68750575D01*
X72067626Y-68738010D01*
X72050299Y-68720683D01*
X72029924Y-68707069D01*
X72007286Y-68697691D01*
X71983252Y-68692911D01*
X71958748Y-68692911D01*
X71934715Y-68697691D01*
X71912076Y-68707069D01*
X71891702Y-68720682D01*
X71874375Y-68738009D01*
X71865979Y-68750574D01*
X71856782Y-68761782D01*
X71849224Y-68767984D01*
X71840595Y-68772597D01*
X71831232Y-68775437D01*
X71815360Y-68777000D01*
X71476640Y-68777000D01*
X71460768Y-68775437D01*
X71451405Y-68772597D01*
X71442776Y-68767984D01*
X71435218Y-68761782D01*
X71426021Y-68750575D01*
X71417626Y-68738010D01*
X71400299Y-68720683D01*
X71379924Y-68707069D01*
X71357286Y-68697691D01*
X71333252Y-68692911D01*
X71308748Y-68692911D01*
X71284715Y-68697691D01*
X71262076Y-68707069D01*
X71241702Y-68720682D01*
X71224375Y-68738009D01*
X71215979Y-68750574D01*
X71206782Y-68761782D01*
X71199224Y-68767984D01*
X71190595Y-68772597D01*
X71181232Y-68775437D01*
X71165360Y-68777000D01*
X70826640Y-68777000D01*
X70810768Y-68775437D01*
X70801405Y-68772597D01*
X70792776Y-68767984D01*
X70785218Y-68761782D01*
X70779016Y-68754224D01*
X70774403Y-68745595D01*
X70771563Y-68736232D01*
X70770000Y-68720360D01*
X70770000Y-67906640D01*
X70772550Y-67880745D01*
X70773416Y-67876396D01*
X70773418Y-67851892D01*
X70768641Y-67827858D01*
X70759266Y-67805218D01*
X70745655Y-67784842D01*
X70728330Y-67767513D01*
X70707957Y-67753897D01*
X70685304Y-67744513D01*
X70668281Y-67739349D01*
X70640929Y-67724729D01*
X70616950Y-67705050D01*
X70597271Y-67681071D01*
X70582651Y-67653719D01*
X70577487Y-67636696D01*
X70568110Y-67614057D01*
X70554496Y-67593682D01*
X70537169Y-67576355D01*
X70516795Y-67562741D01*
X70494156Y-67553364D01*
X70470123Y-67548583D01*
X70445619Y-67548583D01*
X70441271Y-67549448D01*
X70415360Y-67552000D01*
X69601640Y-67552000D01*
X69585768Y-67550437D01*
X69576405Y-67547597D01*
X69567776Y-67542984D01*
X69560218Y-67536782D01*
X69554016Y-67529224D01*
X69549403Y-67520595D01*
X69546563Y-67511232D01*
X69545000Y-67495360D01*
X69545000Y-67156640D01*
X69546563Y-67140768D01*
X69549403Y-67131405D01*
X69554016Y-67122776D01*
X69560218Y-67115218D01*
X69571425Y-67106021D01*
X69583990Y-67097626D01*
X69601317Y-67080299D01*
X69614931Y-67059924D01*
X69624309Y-67037286D01*
X69629089Y-67013252D01*
X69629089Y-66988748D01*
X69624309Y-66964715D01*
X69614931Y-66942076D01*
X69601318Y-66921702D01*
X69583991Y-66904375D01*
X69571426Y-66895979D01*
X69560218Y-66886782D01*
X69554016Y-66879224D01*
X69549403Y-66870595D01*
X69546563Y-66861232D01*
X69545000Y-66845360D01*
X69545000Y-66506640D01*
X69546563Y-66490768D01*
X69549403Y-66481405D01*
X69554016Y-66472776D01*
X69560218Y-66465218D01*
X69571425Y-66456021D01*
X69583990Y-66447626D01*
X69601317Y-66430299D01*
X69614931Y-66409924D01*
X69624309Y-66387286D01*
X69629089Y-66363252D01*
X69629089Y-66338748D01*
X69624309Y-66314715D01*
X69614931Y-66292076D01*
X69601318Y-66271702D01*
X69583991Y-66254375D01*
X69571426Y-66245979D01*
X69560218Y-66236782D01*
X69554016Y-66229224D01*
X69549403Y-66220595D01*
X69546563Y-66211232D01*
X69545000Y-66195360D01*
X69545000Y-65856640D01*
X69546563Y-65840768D01*
X69549403Y-65831405D01*
X69554016Y-65822776D01*
X69560218Y-65815218D01*
X69571425Y-65806021D01*
X69583990Y-65797626D01*
X69601317Y-65780299D01*
X69614931Y-65759924D01*
X69624309Y-65737286D01*
X69629089Y-65713252D01*
X69629089Y-65688748D01*
X69624309Y-65664715D01*
X69614931Y-65642076D01*
X69601318Y-65621702D01*
X69583991Y-65604375D01*
X69571426Y-65595979D01*
X69560218Y-65586782D01*
X69554016Y-65579224D01*
X69549403Y-65570595D01*
X69546563Y-65561232D01*
X69545000Y-65545360D01*
X69545000Y-65206640D01*
X69546563Y-65190768D01*
X69549403Y-65181405D01*
X69554016Y-65172776D01*
X69560218Y-65165218D01*
X69567776Y-65159016D01*
X69576405Y-65154403D01*
X69585768Y-65151563D01*
X69601640Y-65150000D01*
X70415360Y-65150000D01*
X70441255Y-65152550D01*
X70445604Y-65153416D01*
X70470108Y-65153418D01*
X70494142Y-65148641D01*
X70516782Y-65139266D01*
X70537158Y-65125655D01*
X70554487Y-65108330D01*
X70568103Y-65087957D01*
X70577487Y-65065304D01*
X70582651Y-65048281D01*
X70597271Y-65020929D01*
X70616950Y-64996950D01*
X70640929Y-64977271D01*
X70668281Y-64962651D01*
X70685304Y-64957487D01*
X70707943Y-64948110D01*
X70728318Y-64934496D01*
X70745645Y-64917169D01*
X70759259Y-64896795D01*
X70768636Y-64874156D01*
X70773417Y-64850123D01*
X70773417Y-64825619D01*
X70772552Y-64821271D01*
X70770000Y-64795360D01*
X70770000Y-63981640D01*
X70771563Y-63965768D01*
X70774403Y-63956405D01*
X70779016Y-63947776D01*
X70785218Y-63940218D01*
X70792776Y-63934016D01*
X70801405Y-63929403D01*
X70810768Y-63926563D01*
X70826640Y-63925000D01*
X71165360Y-63925000D01*
X71181232Y-63926563D01*
G37*
G36*
X86112928Y-68026764D02*
G01*
X86134009Y-68033160D01*
X86153445Y-68043548D01*
X86170476Y-68057524D01*
X86184452Y-68074555D01*
X86194840Y-68093991D01*
X86201236Y-68115072D01*
X86204000Y-68143140D01*
X86204000Y-68606860D01*
X86201236Y-68634928D01*
X86194840Y-68656009D01*
X86184452Y-68675445D01*
X86170476Y-68692476D01*
X86153445Y-68706452D01*
X86134009Y-68716840D01*
X86112928Y-68723236D01*
X86084860Y-68726000D01*
X84671140Y-68726000D01*
X84643072Y-68723236D01*
X84621991Y-68716840D01*
X84602555Y-68706452D01*
X84585524Y-68692476D01*
X84571548Y-68675445D01*
X84561160Y-68656009D01*
X84554764Y-68634928D01*
X84552000Y-68606860D01*
X84552000Y-68143140D01*
X84554764Y-68115072D01*
X84561160Y-68093991D01*
X84571548Y-68074555D01*
X84585524Y-68057524D01*
X84602555Y-68043548D01*
X84621991Y-68033160D01*
X84643072Y-68026764D01*
X84671140Y-68024000D01*
X86084860Y-68024000D01*
X86112928Y-68026764D01*
G37*
G36*
X86112928Y-67026764D02*
G01*
X86134009Y-67033160D01*
X86153445Y-67043548D01*
X86170476Y-67057524D01*
X86184452Y-67074555D01*
X86194840Y-67093991D01*
X86201236Y-67115072D01*
X86204000Y-67143140D01*
X86204000Y-67606860D01*
X86201236Y-67634928D01*
X86194840Y-67656009D01*
X86184452Y-67675445D01*
X86170476Y-67692476D01*
X86153445Y-67706452D01*
X86134009Y-67716840D01*
X86112928Y-67723236D01*
X86084860Y-67726000D01*
X84671140Y-67726000D01*
X84643072Y-67723236D01*
X84621991Y-67716840D01*
X84602555Y-67706452D01*
X84585524Y-67692476D01*
X84571548Y-67675445D01*
X84561160Y-67656009D01*
X84554764Y-67634928D01*
X84552000Y-67606860D01*
X84552000Y-67143140D01*
X84554764Y-67115072D01*
X84561160Y-67093991D01*
X84571548Y-67074555D01*
X84585524Y-67057524D01*
X84602555Y-67043548D01*
X84621991Y-67033160D01*
X84643072Y-67026764D01*
X84671140Y-67024000D01*
X86084860Y-67024000D01*
X86112928Y-67026764D01*
G37*
G36*
X91894051Y-61474284D02*
G01*
X91910443Y-61479257D01*
X91925555Y-61487334D01*
X91938798Y-61498202D01*
X91949666Y-61511445D01*
X91957743Y-61526557D01*
X91962716Y-61542949D01*
X91965000Y-61566141D01*
X91965000Y-61979859D01*
X91962716Y-62003051D01*
X91957743Y-62019443D01*
X91949666Y-62034555D01*
X91938798Y-62047798D01*
X91925553Y-62058667D01*
X91917894Y-62062761D01*
X91897520Y-62076374D01*
X91880193Y-62093701D01*
X91866579Y-62114076D01*
X91857202Y-62136714D01*
X91852421Y-62160748D01*
X91852421Y-62185252D01*
X91857201Y-62209285D01*
X91866579Y-62231924D01*
X91880192Y-62252298D01*
X91897519Y-62269625D01*
X91917894Y-62283239D01*
X91925553Y-62287333D01*
X91938798Y-62298202D01*
X91949666Y-62311445D01*
X91957743Y-62326557D01*
X91962716Y-62342949D01*
X91965000Y-62366141D01*
X91965000Y-62779859D01*
X91962716Y-62803051D01*
X91957743Y-62819443D01*
X91949666Y-62834555D01*
X91938798Y-62847798D01*
X91925553Y-62858667D01*
X91917894Y-62862761D01*
X91897520Y-62876374D01*
X91880193Y-62893701D01*
X91866579Y-62914076D01*
X91857202Y-62936714D01*
X91852421Y-62960748D01*
X91852421Y-62985252D01*
X91857201Y-63009285D01*
X91866579Y-63031924D01*
X91880192Y-63052298D01*
X91897519Y-63069625D01*
X91917894Y-63083239D01*
X91925553Y-63087333D01*
X91938798Y-63098202D01*
X91949666Y-63111445D01*
X91957743Y-63126557D01*
X91962716Y-63142949D01*
X91965000Y-63166141D01*
X91965000Y-63579859D01*
X91962716Y-63603051D01*
X91957743Y-63619443D01*
X91949666Y-63634555D01*
X91938798Y-63647798D01*
X91925553Y-63658667D01*
X91917894Y-63662761D01*
X91897520Y-63676374D01*
X91880193Y-63693701D01*
X91866579Y-63714076D01*
X91857202Y-63736714D01*
X91852421Y-63760748D01*
X91852421Y-63785252D01*
X91857201Y-63809285D01*
X91866579Y-63831924D01*
X91880192Y-63852298D01*
X91897519Y-63869625D01*
X91917894Y-63883239D01*
X91925553Y-63887333D01*
X91938798Y-63898202D01*
X91949666Y-63911445D01*
X91957743Y-63926557D01*
X91962716Y-63942949D01*
X91965000Y-63966141D01*
X91965000Y-64379859D01*
X91962716Y-64403051D01*
X91957743Y-64419443D01*
X91949666Y-64434555D01*
X91938798Y-64447798D01*
X91925553Y-64458667D01*
X91917894Y-64462761D01*
X91897520Y-64476374D01*
X91880193Y-64493701D01*
X91866579Y-64514076D01*
X91857202Y-64536714D01*
X91852421Y-64560748D01*
X91852421Y-64585252D01*
X91857201Y-64609285D01*
X91866579Y-64631924D01*
X91880192Y-64652298D01*
X91897519Y-64669625D01*
X91917894Y-64683239D01*
X91925553Y-64687333D01*
X91938798Y-64698202D01*
X91949666Y-64711445D01*
X91957743Y-64726557D01*
X91962716Y-64742949D01*
X91965000Y-64766141D01*
X91965000Y-65179859D01*
X91962716Y-65203051D01*
X91957743Y-65219443D01*
X91949666Y-65234555D01*
X91938798Y-65247798D01*
X91925553Y-65258667D01*
X91917894Y-65262761D01*
X91897520Y-65276374D01*
X91880193Y-65293701D01*
X91866579Y-65314076D01*
X91857202Y-65336714D01*
X91852421Y-65360748D01*
X91852421Y-65385252D01*
X91857201Y-65409285D01*
X91866579Y-65431924D01*
X91880192Y-65452298D01*
X91897519Y-65469625D01*
X91917894Y-65483239D01*
X91925553Y-65487333D01*
X91938798Y-65498202D01*
X91949666Y-65511445D01*
X91957743Y-65526557D01*
X91962716Y-65542949D01*
X91965000Y-65566141D01*
X91965000Y-65979859D01*
X91962716Y-66003051D01*
X91957743Y-66019443D01*
X91949666Y-66034555D01*
X91938798Y-66047798D01*
X91925553Y-66058667D01*
X91917894Y-66062761D01*
X91897520Y-66076374D01*
X91880193Y-66093701D01*
X91866579Y-66114076D01*
X91857202Y-66136714D01*
X91852421Y-66160748D01*
X91852421Y-66185252D01*
X91857201Y-66209285D01*
X91866579Y-66231924D01*
X91880192Y-66252298D01*
X91897519Y-66269625D01*
X91917894Y-66283239D01*
X91925553Y-66287333D01*
X91938798Y-66298202D01*
X91949666Y-66311445D01*
X91957743Y-66326557D01*
X91962716Y-66342949D01*
X91965000Y-66366141D01*
X91965000Y-66779859D01*
X91962716Y-66803051D01*
X91957743Y-66819443D01*
X91949666Y-66834555D01*
X91938798Y-66847798D01*
X91925553Y-66858667D01*
X91917894Y-66862761D01*
X91897520Y-66876374D01*
X91880193Y-66893701D01*
X91866579Y-66914076D01*
X91857202Y-66936714D01*
X91852421Y-66960748D01*
X91852421Y-66985252D01*
X91857201Y-67009285D01*
X91866579Y-67031924D01*
X91880192Y-67052298D01*
X91897519Y-67069625D01*
X91917894Y-67083239D01*
X91925553Y-67087333D01*
X91938798Y-67098202D01*
X91949666Y-67111445D01*
X91957743Y-67126557D01*
X91962716Y-67142949D01*
X91965000Y-67166141D01*
X91965000Y-67579859D01*
X91962716Y-67603051D01*
X91957743Y-67619443D01*
X91949666Y-67634555D01*
X91938798Y-67647798D01*
X91925555Y-67658666D01*
X91910443Y-67666743D01*
X91894051Y-67671716D01*
X91870859Y-67674000D01*
X90457141Y-67674000D01*
X90433949Y-67671716D01*
X90417557Y-67666743D01*
X90402445Y-67658666D01*
X90389202Y-67647798D01*
X90378334Y-67634555D01*
X90370257Y-67619443D01*
X90365284Y-67603051D01*
X90363000Y-67579859D01*
X90363000Y-67166141D01*
X90365284Y-67142949D01*
X90370257Y-67126557D01*
X90378334Y-67111445D01*
X90389202Y-67098202D01*
X90402447Y-67087333D01*
X90410106Y-67083239D01*
X90430480Y-67069626D01*
X90447807Y-67052299D01*
X90461421Y-67031924D01*
X90470798Y-67009286D01*
X90475579Y-66985252D01*
X90475579Y-66960748D01*
X90470799Y-66936715D01*
X90461421Y-66914076D01*
X90447808Y-66893702D01*
X90430481Y-66876375D01*
X90410106Y-66862761D01*
X90402447Y-66858667D01*
X90389202Y-66847798D01*
X90378334Y-66834555D01*
X90370257Y-66819443D01*
X90365284Y-66803051D01*
X90363000Y-66779859D01*
X90363000Y-66366141D01*
X90365284Y-66342949D01*
X90370257Y-66326557D01*
X90378334Y-66311445D01*
X90389202Y-66298202D01*
X90402447Y-66287333D01*
X90410106Y-66283239D01*
X90430480Y-66269626D01*
X90447807Y-66252299D01*
X90461421Y-66231924D01*
X90470798Y-66209286D01*
X90475579Y-66185252D01*
X90475579Y-66160748D01*
X90470799Y-66136715D01*
X90461421Y-66114076D01*
X90447808Y-66093702D01*
X90430481Y-66076375D01*
X90410106Y-66062761D01*
X90402447Y-66058667D01*
X90389202Y-66047798D01*
X90378334Y-66034555D01*
X90370257Y-66019443D01*
X90365284Y-66003051D01*
X90363000Y-65979859D01*
X90363000Y-65566141D01*
X90365284Y-65542949D01*
X90370257Y-65526557D01*
X90378334Y-65511445D01*
X90389202Y-65498202D01*
X90402447Y-65487333D01*
X90410106Y-65483239D01*
X90430480Y-65469626D01*
X90447807Y-65452299D01*
X90461421Y-65431924D01*
X90470798Y-65409286D01*
X90475579Y-65385252D01*
X90475579Y-65360748D01*
X90470799Y-65336715D01*
X90461421Y-65314076D01*
X90447808Y-65293702D01*
X90430481Y-65276375D01*
X90410106Y-65262761D01*
X90402447Y-65258667D01*
X90389202Y-65247798D01*
X90378334Y-65234555D01*
X90370257Y-65219443D01*
X90365284Y-65203051D01*
X90363000Y-65179859D01*
X90363000Y-64766141D01*
X90365284Y-64742949D01*
X90370257Y-64726557D01*
X90378334Y-64711445D01*
X90389202Y-64698202D01*
X90402447Y-64687333D01*
X90410106Y-64683239D01*
X90430480Y-64669626D01*
X90447807Y-64652299D01*
X90461421Y-64631924D01*
X90470798Y-64609286D01*
X90475579Y-64585252D01*
X90475579Y-64560748D01*
X90470799Y-64536715D01*
X90461421Y-64514076D01*
X90447808Y-64493702D01*
X90430481Y-64476375D01*
X90410106Y-64462761D01*
X90402447Y-64458667D01*
X90389202Y-64447798D01*
X90378334Y-64434555D01*
X90370257Y-64419443D01*
X90365284Y-64403051D01*
X90363000Y-64379859D01*
X90363000Y-63966141D01*
X90365284Y-63942949D01*
X90370257Y-63926557D01*
X90378334Y-63911445D01*
X90389202Y-63898202D01*
X90402447Y-63887333D01*
X90410106Y-63883239D01*
X90430480Y-63869626D01*
X90447807Y-63852299D01*
X90461421Y-63831924D01*
X90470798Y-63809286D01*
X90475579Y-63785252D01*
X90475579Y-63760748D01*
X90470799Y-63736715D01*
X90461421Y-63714076D01*
X90447808Y-63693702D01*
X90430481Y-63676375D01*
X90410106Y-63662761D01*
X90402447Y-63658667D01*
X90389202Y-63647798D01*
X90378334Y-63634555D01*
X90370257Y-63619443D01*
X90365284Y-63603051D01*
X90363000Y-63579859D01*
X90363000Y-63166141D01*
X90365284Y-63142949D01*
X90370257Y-63126557D01*
X90378334Y-63111445D01*
X90389202Y-63098202D01*
X90402447Y-63087333D01*
X90410106Y-63083239D01*
X90430480Y-63069626D01*
X90447807Y-63052299D01*
X90461421Y-63031924D01*
X90470798Y-63009286D01*
X90475579Y-62985252D01*
X90475579Y-62960748D01*
X90470799Y-62936715D01*
X90461421Y-62914076D01*
X90447808Y-62893702D01*
X90430481Y-62876375D01*
X90410106Y-62862761D01*
X90402447Y-62858667D01*
X90389202Y-62847798D01*
X90378334Y-62834555D01*
X90370257Y-62819443D01*
X90365284Y-62803051D01*
X90363000Y-62779859D01*
X90363000Y-62366141D01*
X90365284Y-62342949D01*
X90370257Y-62326557D01*
X90378334Y-62311445D01*
X90389202Y-62298202D01*
X90402447Y-62287333D01*
X90410106Y-62283239D01*
X90430480Y-62269626D01*
X90447807Y-62252299D01*
X90461421Y-62231924D01*
X90470798Y-62209286D01*
X90475579Y-62185252D01*
X90475579Y-62160748D01*
X90470799Y-62136715D01*
X90461421Y-62114076D01*
X90447808Y-62093702D01*
X90430481Y-62076375D01*
X90410106Y-62062761D01*
X90402447Y-62058667D01*
X90389202Y-62047798D01*
X90378334Y-62034555D01*
X90370257Y-62019443D01*
X90365284Y-62003051D01*
X90363000Y-61979859D01*
X90363000Y-61566141D01*
X90365284Y-61542949D01*
X90370257Y-61526557D01*
X90378334Y-61511445D01*
X90389202Y-61498202D01*
X90402445Y-61487334D01*
X90417557Y-61479257D01*
X90433949Y-61474284D01*
X90457141Y-61472000D01*
X91870859Y-61472000D01*
X91894051Y-61474284D01*
G37*
G36*
X100244051Y-61474284D02*
G01*
X100260443Y-61479257D01*
X100275555Y-61487334D01*
X100288798Y-61498202D01*
X100299666Y-61511445D01*
X100307743Y-61526557D01*
X100312716Y-61542949D01*
X100315000Y-61566141D01*
X100315000Y-61979859D01*
X100312716Y-62003051D01*
X100307743Y-62019443D01*
X100299666Y-62034555D01*
X100288798Y-62047798D01*
X100275553Y-62058667D01*
X100267894Y-62062761D01*
X100247520Y-62076374D01*
X100230193Y-62093701D01*
X100216579Y-62114076D01*
X100207202Y-62136714D01*
X100202421Y-62160748D01*
X100202421Y-62185252D01*
X100207201Y-62209285D01*
X100216579Y-62231924D01*
X100230192Y-62252298D01*
X100247519Y-62269625D01*
X100267894Y-62283239D01*
X100275553Y-62287333D01*
X100288798Y-62298202D01*
X100299666Y-62311445D01*
X100307743Y-62326557D01*
X100312716Y-62342949D01*
X100315000Y-62366141D01*
X100315000Y-62779859D01*
X100312716Y-62803051D01*
X100307743Y-62819443D01*
X100299666Y-62834555D01*
X100288798Y-62847798D01*
X100275553Y-62858667D01*
X100267894Y-62862761D01*
X100247520Y-62876374D01*
X100230193Y-62893701D01*
X100216579Y-62914076D01*
X100207202Y-62936714D01*
X100202421Y-62960748D01*
X100202421Y-62985252D01*
X100207201Y-63009285D01*
X100216579Y-63031924D01*
X100230192Y-63052298D01*
X100247519Y-63069625D01*
X100267894Y-63083239D01*
X100275553Y-63087333D01*
X100288798Y-63098202D01*
X100299666Y-63111445D01*
X100307743Y-63126557D01*
X100312716Y-63142949D01*
X100315000Y-63166141D01*
X100315000Y-63579859D01*
X100312716Y-63603051D01*
X100307743Y-63619443D01*
X100299666Y-63634555D01*
X100288798Y-63647798D01*
X100275553Y-63658667D01*
X100267894Y-63662761D01*
X100247520Y-63676374D01*
X100230193Y-63693701D01*
X100216579Y-63714076D01*
X100207202Y-63736714D01*
X100202421Y-63760748D01*
X100202421Y-63785252D01*
X100207201Y-63809285D01*
X100216579Y-63831924D01*
X100230192Y-63852298D01*
X100247519Y-63869625D01*
X100267894Y-63883239D01*
X100275553Y-63887333D01*
X100288798Y-63898202D01*
X100299666Y-63911445D01*
X100307743Y-63926557D01*
X100312716Y-63942949D01*
X100315000Y-63966141D01*
X100315000Y-64379859D01*
X100312716Y-64403051D01*
X100307743Y-64419443D01*
X100299666Y-64434555D01*
X100288798Y-64447798D01*
X100275553Y-64458667D01*
X100267894Y-64462761D01*
X100247520Y-64476374D01*
X100230193Y-64493701D01*
X100216579Y-64514076D01*
X100207202Y-64536714D01*
X100202421Y-64560748D01*
X100202421Y-64585252D01*
X100207201Y-64609285D01*
X100216579Y-64631924D01*
X100230192Y-64652298D01*
X100247519Y-64669625D01*
X100267894Y-64683239D01*
X100275553Y-64687333D01*
X100288798Y-64698202D01*
X100299666Y-64711445D01*
X100307743Y-64726557D01*
X100312716Y-64742949D01*
X100315000Y-64766141D01*
X100315000Y-65179859D01*
X100312716Y-65203051D01*
X100307743Y-65219443D01*
X100299666Y-65234555D01*
X100288798Y-65247798D01*
X100275553Y-65258667D01*
X100267894Y-65262761D01*
X100247520Y-65276374D01*
X100230193Y-65293701D01*
X100216579Y-65314076D01*
X100207202Y-65336714D01*
X100202421Y-65360748D01*
X100202421Y-65385252D01*
X100207201Y-65409285D01*
X100216579Y-65431924D01*
X100230192Y-65452298D01*
X100247519Y-65469625D01*
X100267894Y-65483239D01*
X100275553Y-65487333D01*
X100288798Y-65498202D01*
X100299666Y-65511445D01*
X100307743Y-65526557D01*
X100312716Y-65542949D01*
X100315000Y-65566141D01*
X100315000Y-65979859D01*
X100312716Y-66003051D01*
X100307743Y-66019443D01*
X100299666Y-66034555D01*
X100288798Y-66047798D01*
X100275553Y-66058667D01*
X100267894Y-66062761D01*
X100247520Y-66076374D01*
X100230193Y-66093701D01*
X100216579Y-66114076D01*
X100207202Y-66136714D01*
X100202421Y-66160748D01*
X100202421Y-66185252D01*
X100207201Y-66209285D01*
X100216579Y-66231924D01*
X100230192Y-66252298D01*
X100247519Y-66269625D01*
X100267894Y-66283239D01*
X100275553Y-66287333D01*
X100288798Y-66298202D01*
X100299666Y-66311445D01*
X100307743Y-66326557D01*
X100312716Y-66342949D01*
X100315000Y-66366141D01*
X100315000Y-66779859D01*
X100312716Y-66803051D01*
X100307743Y-66819443D01*
X100299666Y-66834555D01*
X100288798Y-66847798D01*
X100275553Y-66858667D01*
X100267894Y-66862761D01*
X100247520Y-66876374D01*
X100230193Y-66893701D01*
X100216579Y-66914076D01*
X100207202Y-66936714D01*
X100202421Y-66960748D01*
X100202421Y-66985252D01*
X100207201Y-67009285D01*
X100216579Y-67031924D01*
X100230192Y-67052298D01*
X100247519Y-67069625D01*
X100267894Y-67083239D01*
X100275553Y-67087333D01*
X100288798Y-67098202D01*
X100299666Y-67111445D01*
X100307743Y-67126557D01*
X100312716Y-67142949D01*
X100315000Y-67166141D01*
X100315000Y-67579859D01*
X100312716Y-67603051D01*
X100307743Y-67619443D01*
X100299666Y-67634555D01*
X100288798Y-67647798D01*
X100275555Y-67658666D01*
X100260443Y-67666743D01*
X100244051Y-67671716D01*
X100220859Y-67674000D01*
X98807141Y-67674000D01*
X98783949Y-67671716D01*
X98767557Y-67666743D01*
X98752445Y-67658666D01*
X98739202Y-67647798D01*
X98728334Y-67634555D01*
X98720257Y-67619443D01*
X98715284Y-67603051D01*
X98713000Y-67579859D01*
X98713000Y-67166141D01*
X98715284Y-67142949D01*
X98720257Y-67126557D01*
X98728334Y-67111445D01*
X98739202Y-67098202D01*
X98752447Y-67087333D01*
X98760106Y-67083239D01*
X98780480Y-67069626D01*
X98797807Y-67052299D01*
X98811421Y-67031924D01*
X98820798Y-67009286D01*
X98825579Y-66985252D01*
X98825579Y-66960748D01*
X98820799Y-66936715D01*
X98811421Y-66914076D01*
X98797808Y-66893702D01*
X98780481Y-66876375D01*
X98760106Y-66862761D01*
X98752447Y-66858667D01*
X98739202Y-66847798D01*
X98728334Y-66834555D01*
X98720257Y-66819443D01*
X98715284Y-66803051D01*
X98713000Y-66779859D01*
X98713000Y-66366141D01*
X98715284Y-66342949D01*
X98720257Y-66326557D01*
X98728334Y-66311445D01*
X98739202Y-66298202D01*
X98752447Y-66287333D01*
X98760106Y-66283239D01*
X98780480Y-66269626D01*
X98797807Y-66252299D01*
X98811421Y-66231924D01*
X98820798Y-66209286D01*
X98825579Y-66185252D01*
X98825579Y-66160748D01*
X98820799Y-66136715D01*
X98811421Y-66114076D01*
X98797808Y-66093702D01*
X98780481Y-66076375D01*
X98760106Y-66062761D01*
X98752447Y-66058667D01*
X98739202Y-66047798D01*
X98728334Y-66034555D01*
X98720257Y-66019443D01*
X98715284Y-66003051D01*
X98713000Y-65979859D01*
X98713000Y-65566141D01*
X98715284Y-65542949D01*
X98720257Y-65526557D01*
X98728334Y-65511445D01*
X98739202Y-65498202D01*
X98752447Y-65487333D01*
X98760106Y-65483239D01*
X98780480Y-65469626D01*
X98797807Y-65452299D01*
X98811421Y-65431924D01*
X98820798Y-65409286D01*
X98825579Y-65385252D01*
X98825579Y-65360748D01*
X98820799Y-65336715D01*
X98811421Y-65314076D01*
X98797808Y-65293702D01*
X98780481Y-65276375D01*
X98760106Y-65262761D01*
X98752447Y-65258667D01*
X98739202Y-65247798D01*
X98728334Y-65234555D01*
X98720257Y-65219443D01*
X98715284Y-65203051D01*
X98713000Y-65179859D01*
X98713000Y-64766141D01*
X98715284Y-64742949D01*
X98720257Y-64726557D01*
X98728334Y-64711445D01*
X98739202Y-64698202D01*
X98752447Y-64687333D01*
X98760106Y-64683239D01*
X98780480Y-64669626D01*
X98797807Y-64652299D01*
X98811421Y-64631924D01*
X98820798Y-64609286D01*
X98825579Y-64585252D01*
X98825579Y-64560748D01*
X98820799Y-64536715D01*
X98811421Y-64514076D01*
X98797808Y-64493702D01*
X98780481Y-64476375D01*
X98760106Y-64462761D01*
X98752447Y-64458667D01*
X98739202Y-64447798D01*
X98728334Y-64434555D01*
X98720257Y-64419443D01*
X98715284Y-64403051D01*
X98713000Y-64379859D01*
X98713000Y-63966141D01*
X98715284Y-63942949D01*
X98720257Y-63926557D01*
X98728334Y-63911445D01*
X98739202Y-63898202D01*
X98752447Y-63887333D01*
X98760106Y-63883239D01*
X98780480Y-63869626D01*
X98797807Y-63852299D01*
X98811421Y-63831924D01*
X98820798Y-63809286D01*
X98825579Y-63785252D01*
X98825579Y-63760748D01*
X98820799Y-63736715D01*
X98811421Y-63714076D01*
X98797808Y-63693702D01*
X98780481Y-63676375D01*
X98760106Y-63662761D01*
X98752447Y-63658667D01*
X98739202Y-63647798D01*
X98728334Y-63634555D01*
X98720257Y-63619443D01*
X98715284Y-63603051D01*
X98713000Y-63579859D01*
X98713000Y-63166141D01*
X98715284Y-63142949D01*
X98720257Y-63126557D01*
X98728334Y-63111445D01*
X98739202Y-63098202D01*
X98752447Y-63087333D01*
X98760106Y-63083239D01*
X98780480Y-63069626D01*
X98797807Y-63052299D01*
X98811421Y-63031924D01*
X98820798Y-63009286D01*
X98825579Y-62985252D01*
X98825579Y-62960748D01*
X98820799Y-62936715D01*
X98811421Y-62914076D01*
X98797808Y-62893702D01*
X98780481Y-62876375D01*
X98760106Y-62862761D01*
X98752447Y-62858667D01*
X98739202Y-62847798D01*
X98728334Y-62834555D01*
X98720257Y-62819443D01*
X98715284Y-62803051D01*
X98713000Y-62779859D01*
X98713000Y-62366141D01*
X98715284Y-62342949D01*
X98720257Y-62326557D01*
X98728334Y-62311445D01*
X98739202Y-62298202D01*
X98752447Y-62287333D01*
X98760106Y-62283239D01*
X98780480Y-62269626D01*
X98797807Y-62252299D01*
X98811421Y-62231924D01*
X98820798Y-62209286D01*
X98825579Y-62185252D01*
X98825579Y-62160748D01*
X98820799Y-62136715D01*
X98811421Y-62114076D01*
X98797808Y-62093702D01*
X98780481Y-62076375D01*
X98760106Y-62062761D01*
X98752447Y-62058667D01*
X98739202Y-62047798D01*
X98728334Y-62034555D01*
X98720257Y-62019443D01*
X98715284Y-62003051D01*
X98713000Y-61979859D01*
X98713000Y-61566141D01*
X98715284Y-61542949D01*
X98720257Y-61526557D01*
X98728334Y-61511445D01*
X98739202Y-61498202D01*
X98752445Y-61487334D01*
X98767557Y-61479257D01*
X98783949Y-61474284D01*
X98807141Y-61472000D01*
X100220859Y-61472000D01*
X100244051Y-61474284D01*
G37*
G36*
X55011672Y-60728449D02*
G01*
X55011674Y-60728450D01*
X55011675Y-60728450D01*
X55080103Y-60756793D01*
X55141686Y-60797942D01*
X55194058Y-60850314D01*
X55235207Y-60911897D01*
X55263550Y-60980325D01*
X55263551Y-60980328D01*
X55278000Y-61052966D01*
X55278000Y-61127034D01*
X55263685Y-61199000D01*
X55263550Y-61199675D01*
X55235207Y-61268103D01*
X55194058Y-61329686D01*
X55141686Y-61382058D01*
X55094524Y-61413571D01*
X55075587Y-61429113D01*
X55060042Y-61448055D01*
X55048491Y-61469665D01*
X55041378Y-61493114D01*
X55038976Y-61517500D01*
X55041378Y-61541886D01*
X55048491Y-61565335D01*
X55060042Y-61586946D01*
X55075588Y-61605888D01*
X55094524Y-61621429D01*
X55141686Y-61652942D01*
X55194058Y-61705314D01*
X55235207Y-61766897D01*
X55258254Y-61822539D01*
X55263551Y-61835328D01*
X55278000Y-61907966D01*
X55278000Y-61982034D01*
X55264546Y-62049672D01*
X55263550Y-62054675D01*
X55235207Y-62123103D01*
X55194058Y-62184686D01*
X55141686Y-62237058D01*
X55098263Y-62266073D01*
X55079328Y-62281612D01*
X55063783Y-62300554D01*
X55052232Y-62322165D01*
X55045119Y-62345614D01*
X55042717Y-62370000D01*
X55045119Y-62394386D01*
X55052232Y-62417835D01*
X55063783Y-62439446D01*
X55079328Y-62458388D01*
X55098263Y-62473927D01*
X55141686Y-62502942D01*
X55194058Y-62555314D01*
X55235207Y-62616897D01*
X55261988Y-62681555D01*
X55263551Y-62685328D01*
X55278000Y-62757966D01*
X55278000Y-62832034D01*
X55264546Y-62899672D01*
X55263550Y-62904675D01*
X55235207Y-62973103D01*
X55194058Y-63034686D01*
X55141686Y-63087058D01*
X55098263Y-63116073D01*
X55079328Y-63131612D01*
X55063783Y-63150554D01*
X55052232Y-63172165D01*
X55045119Y-63195614D01*
X55042717Y-63220000D01*
X55045119Y-63244386D01*
X55052232Y-63267835D01*
X55063783Y-63289446D01*
X55079328Y-63308388D01*
X55098263Y-63323927D01*
X55141686Y-63352942D01*
X55194058Y-63405314D01*
X55235207Y-63466897D01*
X55261479Y-63530325D01*
X55263551Y-63535328D01*
X55278000Y-63607966D01*
X55278000Y-63682034D01*
X55264089Y-63751969D01*
X55263550Y-63754675D01*
X55235207Y-63823103D01*
X55194058Y-63884686D01*
X55141686Y-63937058D01*
X55098263Y-63966073D01*
X55079328Y-63981612D01*
X55063783Y-64000554D01*
X55052232Y-64022165D01*
X55045119Y-64045614D01*
X55042717Y-64070000D01*
X55045119Y-64094386D01*
X55052232Y-64117835D01*
X55063783Y-64139446D01*
X55079328Y-64158388D01*
X55098263Y-64173927D01*
X55141686Y-64202942D01*
X55194058Y-64255314D01*
X55235207Y-64316897D01*
X55263550Y-64385325D01*
X55263551Y-64385328D01*
X55278000Y-64457966D01*
X55278000Y-64532034D01*
X55264546Y-64599672D01*
X55263550Y-64604675D01*
X55235207Y-64673103D01*
X55194058Y-64734686D01*
X55141686Y-64787058D01*
X55098263Y-64816073D01*
X55079328Y-64831612D01*
X55063783Y-64850554D01*
X55052232Y-64872165D01*
X55045119Y-64895614D01*
X55042717Y-64920000D01*
X55045119Y-64944386D01*
X55052232Y-64967835D01*
X55063783Y-64989446D01*
X55079328Y-65008388D01*
X55098263Y-65023927D01*
X55141686Y-65052942D01*
X55194058Y-65105314D01*
X55235207Y-65166897D01*
X55261311Y-65229920D01*
X55263551Y-65235328D01*
X55278000Y-65307966D01*
X55278000Y-65382034D01*
X55264546Y-65449672D01*
X55263550Y-65454675D01*
X55235207Y-65523103D01*
X55194058Y-65584686D01*
X55141686Y-65637058D01*
X55098263Y-65666073D01*
X55079328Y-65681612D01*
X55063783Y-65700554D01*
X55052232Y-65722165D01*
X55045119Y-65745614D01*
X55042717Y-65770000D01*
X55045119Y-65794386D01*
X55052232Y-65817835D01*
X55063783Y-65839446D01*
X55079328Y-65858388D01*
X55098263Y-65873927D01*
X55141686Y-65902942D01*
X55194058Y-65955314D01*
X55235207Y-66016897D01*
X55257661Y-66071108D01*
X55263551Y-66085328D01*
X55278000Y-66157966D01*
X55278000Y-66232034D01*
X55264546Y-66299672D01*
X55263550Y-66304675D01*
X55235207Y-66373103D01*
X55194058Y-66434686D01*
X55141686Y-66487058D01*
X55098263Y-66516073D01*
X55079328Y-66531612D01*
X55063783Y-66550554D01*
X55052232Y-66572165D01*
X55045119Y-66595614D01*
X55042717Y-66620000D01*
X55045119Y-66644386D01*
X55052232Y-66667835D01*
X55063783Y-66689446D01*
X55079328Y-66708388D01*
X55098263Y-66723927D01*
X55141686Y-66752942D01*
X55194058Y-66805314D01*
X55235207Y-66866897D01*
X55257907Y-66921701D01*
X55263551Y-66935328D01*
X55278000Y-67007966D01*
X55278000Y-67082034D01*
X55264546Y-67149672D01*
X55263550Y-67154675D01*
X55235207Y-67223103D01*
X55194058Y-67284686D01*
X55141686Y-67337058D01*
X55080103Y-67378207D01*
X55011675Y-67406550D01*
X55011674Y-67406550D01*
X55011672Y-67406551D01*
X54939034Y-67421000D01*
X54864966Y-67421000D01*
X54792328Y-67406551D01*
X54792326Y-67406550D01*
X54792325Y-67406550D01*
X54723897Y-67378207D01*
X54662314Y-67337058D01*
X54609942Y-67284686D01*
X54568793Y-67223103D01*
X54540450Y-67154675D01*
X54539455Y-67149672D01*
X54526000Y-67082034D01*
X54526000Y-67007966D01*
X54540449Y-66935328D01*
X54546093Y-66921701D01*
X54568793Y-66866897D01*
X54609942Y-66805314D01*
X54662314Y-66752942D01*
X54705737Y-66723927D01*
X54724672Y-66708388D01*
X54740217Y-66689446D01*
X54751768Y-66667835D01*
X54758881Y-66644386D01*
X54761283Y-66620000D01*
X54758881Y-66595614D01*
X54751768Y-66572165D01*
X54740217Y-66550554D01*
X54724672Y-66531612D01*
X54705737Y-66516073D01*
X54662314Y-66487058D01*
X54609942Y-66434686D01*
X54568793Y-66373103D01*
X54540450Y-66304675D01*
X54539455Y-66299672D01*
X54526000Y-66232034D01*
X54526000Y-66157966D01*
X54540449Y-66085328D01*
X54546339Y-66071108D01*
X54568793Y-66016897D01*
X54609942Y-65955314D01*
X54662314Y-65902942D01*
X54705737Y-65873927D01*
X54724672Y-65858388D01*
X54740217Y-65839446D01*
X54751768Y-65817835D01*
X54758881Y-65794386D01*
X54761283Y-65770000D01*
X54758881Y-65745614D01*
X54751768Y-65722165D01*
X54740217Y-65700554D01*
X54724672Y-65681612D01*
X54705737Y-65666073D01*
X54662314Y-65637058D01*
X54609942Y-65584686D01*
X54568793Y-65523103D01*
X54540450Y-65454675D01*
X54539455Y-65449672D01*
X54526000Y-65382034D01*
X54526000Y-65307966D01*
X54540449Y-65235328D01*
X54542689Y-65229920D01*
X54568793Y-65166897D01*
X54609942Y-65105314D01*
X54662314Y-65052942D01*
X54705737Y-65023927D01*
X54724672Y-65008388D01*
X54740217Y-64989446D01*
X54751768Y-64967835D01*
X54758881Y-64944386D01*
X54761283Y-64920000D01*
X54758881Y-64895614D01*
X54751768Y-64872165D01*
X54740217Y-64850554D01*
X54724672Y-64831612D01*
X54705737Y-64816073D01*
X54662314Y-64787058D01*
X54609942Y-64734686D01*
X54568793Y-64673103D01*
X54540450Y-64604675D01*
X54539455Y-64599672D01*
X54526000Y-64532034D01*
X54526000Y-64457966D01*
X54540449Y-64385328D01*
X54540450Y-64385325D01*
X54568793Y-64316897D01*
X54609942Y-64255314D01*
X54662314Y-64202942D01*
X54705737Y-64173927D01*
X54724672Y-64158388D01*
X54740217Y-64139446D01*
X54751768Y-64117835D01*
X54758881Y-64094386D01*
X54761283Y-64070000D01*
X54758881Y-64045614D01*
X54751768Y-64022165D01*
X54740217Y-64000554D01*
X54724672Y-63981612D01*
X54705737Y-63966073D01*
X54662314Y-63937058D01*
X54609942Y-63884686D01*
X54568793Y-63823103D01*
X54540450Y-63754675D01*
X54539912Y-63751969D01*
X54526000Y-63682034D01*
X54526000Y-63607966D01*
X54540449Y-63535328D01*
X54542521Y-63530325D01*
X54568793Y-63466897D01*
X54609942Y-63405314D01*
X54662314Y-63352942D01*
X54705737Y-63323927D01*
X54724672Y-63308388D01*
X54740217Y-63289446D01*
X54751768Y-63267835D01*
X54758881Y-63244386D01*
X54761283Y-63220000D01*
X54758881Y-63195614D01*
X54751768Y-63172165D01*
X54740217Y-63150554D01*
X54724672Y-63131612D01*
X54705737Y-63116073D01*
X54662314Y-63087058D01*
X54609942Y-63034686D01*
X54568793Y-62973103D01*
X54540450Y-62904675D01*
X54539455Y-62899672D01*
X54526000Y-62832034D01*
X54526000Y-62757966D01*
X54540449Y-62685328D01*
X54542012Y-62681555D01*
X54568793Y-62616897D01*
X54609942Y-62555314D01*
X54662314Y-62502942D01*
X54705737Y-62473927D01*
X54724672Y-62458388D01*
X54740217Y-62439446D01*
X54751768Y-62417835D01*
X54758881Y-62394386D01*
X54761283Y-62370000D01*
X54758881Y-62345614D01*
X54751768Y-62322165D01*
X54740217Y-62300554D01*
X54724672Y-62281612D01*
X54705737Y-62266073D01*
X54662314Y-62237058D01*
X54609942Y-62184686D01*
X54568793Y-62123103D01*
X54540450Y-62054675D01*
X54539455Y-62049672D01*
X54526000Y-61982034D01*
X54526000Y-61907966D01*
X54540449Y-61835328D01*
X54545746Y-61822539D01*
X54568793Y-61766897D01*
X54609942Y-61705314D01*
X54662314Y-61652942D01*
X54709476Y-61621429D01*
X54728413Y-61605887D01*
X54743958Y-61586945D01*
X54755509Y-61565335D01*
X54762622Y-61541886D01*
X54765024Y-61517500D01*
X54762622Y-61493114D01*
X54755509Y-61469665D01*
X54743958Y-61448054D01*
X54728412Y-61429112D01*
X54709476Y-61413571D01*
X54662314Y-61382058D01*
X54609942Y-61329686D01*
X54568793Y-61268103D01*
X54540450Y-61199675D01*
X54540316Y-61199000D01*
X54526000Y-61127034D01*
X54526000Y-61052966D01*
X54540449Y-60980328D01*
X54540450Y-60980325D01*
X54568793Y-60911897D01*
X54609942Y-60850314D01*
X54662314Y-60797942D01*
X54723897Y-60756793D01*
X54792325Y-60728450D01*
X54792326Y-60728450D01*
X54792328Y-60728449D01*
X54864966Y-60714000D01*
X54939034Y-60714000D01*
X55011672Y-60728449D01*
G37*
G36*
X56336672Y-60728449D02*
G01*
X56336674Y-60728450D01*
X56336675Y-60728450D01*
X56405103Y-60756793D01*
X56466686Y-60797942D01*
X56519058Y-60850314D01*
X56560207Y-60911897D01*
X56588550Y-60980325D01*
X56588551Y-60980328D01*
X56603000Y-61052966D01*
X56603000Y-61127034D01*
X56588685Y-61199000D01*
X56588550Y-61199675D01*
X56560207Y-61268103D01*
X56519058Y-61329686D01*
X56466686Y-61382058D01*
X56423263Y-61411073D01*
X56404328Y-61426612D01*
X56388783Y-61445554D01*
X56377232Y-61467165D01*
X56370119Y-61490614D01*
X56367717Y-61515000D01*
X56370119Y-61539386D01*
X56377232Y-61562835D01*
X56388783Y-61584446D01*
X56404328Y-61603388D01*
X56423263Y-61618927D01*
X56466686Y-61647942D01*
X56519058Y-61700314D01*
X56560207Y-61761897D01*
X56585325Y-61822539D01*
X56588551Y-61830328D01*
X56603000Y-61902966D01*
X56603000Y-61977034D01*
X56588924Y-62047798D01*
X56588550Y-62049675D01*
X56560207Y-62118103D01*
X56519058Y-62179686D01*
X56466686Y-62232058D01*
X56423263Y-62261073D01*
X56404328Y-62276612D01*
X56388783Y-62295554D01*
X56377232Y-62317165D01*
X56370119Y-62340614D01*
X56367717Y-62365000D01*
X56370119Y-62389386D01*
X56377232Y-62412835D01*
X56388783Y-62434446D01*
X56404328Y-62453388D01*
X56423263Y-62468927D01*
X56466686Y-62497942D01*
X56519058Y-62550314D01*
X56560207Y-62611897D01*
X56582608Y-62665980D01*
X56588551Y-62680328D01*
X56603000Y-62752966D01*
X56603000Y-62827034D01*
X56589739Y-62893702D01*
X56588550Y-62899675D01*
X56560207Y-62968103D01*
X56519058Y-63029686D01*
X56466686Y-63082058D01*
X56423263Y-63111073D01*
X56404328Y-63126612D01*
X56388783Y-63145554D01*
X56377232Y-63167165D01*
X56370119Y-63190614D01*
X56367717Y-63215000D01*
X56370119Y-63239386D01*
X56377232Y-63262835D01*
X56388783Y-63284446D01*
X56404328Y-63303388D01*
X56423263Y-63318927D01*
X56466686Y-63347942D01*
X56519058Y-63400314D01*
X56560207Y-63461897D01*
X56588550Y-63530325D01*
X56588551Y-63530328D01*
X56603000Y-63602966D01*
X56603000Y-63677034D01*
X56590564Y-63739554D01*
X56588550Y-63749675D01*
X56560207Y-63818103D01*
X56519058Y-63879686D01*
X56466686Y-63932058D01*
X56423263Y-63961073D01*
X56404328Y-63976612D01*
X56388783Y-63995554D01*
X56377232Y-64017165D01*
X56370119Y-64040614D01*
X56367717Y-64065000D01*
X56370119Y-64089386D01*
X56377232Y-64112835D01*
X56388783Y-64134446D01*
X56404328Y-64153388D01*
X56423263Y-64168927D01*
X56466686Y-64197942D01*
X56519058Y-64250314D01*
X56560207Y-64311897D01*
X56588357Y-64379859D01*
X56588551Y-64380328D01*
X56603000Y-64452966D01*
X56603000Y-64527034D01*
X56590405Y-64590354D01*
X56588550Y-64599675D01*
X56560207Y-64668103D01*
X56519058Y-64729686D01*
X56466686Y-64782058D01*
X56423263Y-64811073D01*
X56404328Y-64826612D01*
X56388783Y-64845554D01*
X56377232Y-64867165D01*
X56370119Y-64890614D01*
X56367717Y-64915000D01*
X56370119Y-64939386D01*
X56377232Y-64962835D01*
X56388783Y-64984446D01*
X56404328Y-65003388D01*
X56423263Y-65018927D01*
X56466686Y-65047942D01*
X56519058Y-65100314D01*
X56560207Y-65161897D01*
X56588382Y-65229920D01*
X56588551Y-65230328D01*
X56603000Y-65302966D01*
X56603000Y-65377034D01*
X56589340Y-65445708D01*
X56588550Y-65449675D01*
X56560207Y-65518103D01*
X56519058Y-65579686D01*
X56466686Y-65632058D01*
X56423263Y-65661073D01*
X56404328Y-65676612D01*
X56388783Y-65695554D01*
X56377232Y-65717165D01*
X56370119Y-65740614D01*
X56367717Y-65765000D01*
X56370119Y-65789386D01*
X56377232Y-65812835D01*
X56388783Y-65834446D01*
X56404328Y-65853388D01*
X56423263Y-65868927D01*
X56466686Y-65897942D01*
X56519058Y-65950314D01*
X56560207Y-66011897D01*
X56579579Y-66058667D01*
X56588551Y-66080328D01*
X56603000Y-66152966D01*
X56603000Y-66227034D01*
X56591777Y-66283456D01*
X56588550Y-66299675D01*
X56560207Y-66368103D01*
X56519058Y-66429686D01*
X56466686Y-66482058D01*
X56423263Y-66511073D01*
X56404328Y-66526612D01*
X56388783Y-66545554D01*
X56377232Y-66567165D01*
X56370119Y-66590614D01*
X56367717Y-66615000D01*
X56370119Y-66639386D01*
X56377232Y-66662835D01*
X56388783Y-66684446D01*
X56404328Y-66703388D01*
X56423263Y-66718927D01*
X56466686Y-66747942D01*
X56519058Y-66800314D01*
X56560207Y-66861897D01*
X56584978Y-66921701D01*
X56588551Y-66930328D01*
X56603000Y-67002966D01*
X56603000Y-67077034D01*
X56591999Y-67132339D01*
X56588550Y-67149675D01*
X56560207Y-67218103D01*
X56519058Y-67279686D01*
X56466686Y-67332058D01*
X56405103Y-67373207D01*
X56336675Y-67401550D01*
X56336674Y-67401550D01*
X56336672Y-67401551D01*
X56264034Y-67416000D01*
X56189966Y-67416000D01*
X56117328Y-67401551D01*
X56117326Y-67401550D01*
X56117325Y-67401550D01*
X56048897Y-67373207D01*
X55987314Y-67332058D01*
X55934942Y-67279686D01*
X55893793Y-67218103D01*
X55865450Y-67149675D01*
X55862002Y-67132339D01*
X55851000Y-67077034D01*
X55851000Y-67002966D01*
X55865449Y-66930328D01*
X55869022Y-66921701D01*
X55893793Y-66861897D01*
X55934942Y-66800314D01*
X55987314Y-66747942D01*
X56030737Y-66718927D01*
X56049672Y-66703388D01*
X56065217Y-66684446D01*
X56076768Y-66662835D01*
X56083881Y-66639386D01*
X56086283Y-66615000D01*
X56083881Y-66590614D01*
X56076768Y-66567165D01*
X56065217Y-66545554D01*
X56049672Y-66526612D01*
X56030737Y-66511073D01*
X55987314Y-66482058D01*
X55934942Y-66429686D01*
X55893793Y-66368103D01*
X55865450Y-66299675D01*
X55862224Y-66283456D01*
X55851000Y-66227034D01*
X55851000Y-66152966D01*
X55865449Y-66080328D01*
X55874421Y-66058667D01*
X55893793Y-66011897D01*
X55934942Y-65950314D01*
X55987314Y-65897942D01*
X56030737Y-65868927D01*
X56049672Y-65853388D01*
X56065217Y-65834446D01*
X56076768Y-65812835D01*
X56083881Y-65789386D01*
X56086283Y-65765000D01*
X56083881Y-65740614D01*
X56076768Y-65717165D01*
X56065217Y-65695554D01*
X56049672Y-65676612D01*
X56030737Y-65661073D01*
X55987314Y-65632058D01*
X55934942Y-65579686D01*
X55893793Y-65518103D01*
X55865450Y-65449675D01*
X55864661Y-65445708D01*
X55851000Y-65377034D01*
X55851000Y-65302966D01*
X55865449Y-65230328D01*
X55865618Y-65229920D01*
X55893793Y-65161897D01*
X55934942Y-65100314D01*
X55987314Y-65047942D01*
X56030737Y-65018927D01*
X56049672Y-65003388D01*
X56065217Y-64984446D01*
X56076768Y-64962835D01*
X56083881Y-64939386D01*
X56086283Y-64915000D01*
X56083881Y-64890614D01*
X56076768Y-64867165D01*
X56065217Y-64845554D01*
X56049672Y-64826612D01*
X56030737Y-64811073D01*
X55987314Y-64782058D01*
X55934942Y-64729686D01*
X55893793Y-64668103D01*
X55865450Y-64599675D01*
X55863596Y-64590354D01*
X55851000Y-64527034D01*
X55851000Y-64452966D01*
X55865449Y-64380328D01*
X55865643Y-64379859D01*
X55893793Y-64311897D01*
X55934942Y-64250314D01*
X55987314Y-64197942D01*
X56030737Y-64168927D01*
X56049672Y-64153388D01*
X56065217Y-64134446D01*
X56076768Y-64112835D01*
X56083881Y-64089386D01*
X56086283Y-64065000D01*
X56083881Y-64040614D01*
X56076768Y-64017165D01*
X56065217Y-63995554D01*
X56049672Y-63976612D01*
X56030737Y-63961073D01*
X55987314Y-63932058D01*
X55934942Y-63879686D01*
X55893793Y-63818103D01*
X55865450Y-63749675D01*
X55863437Y-63739554D01*
X55851000Y-63677034D01*
X55851000Y-63602966D01*
X55865449Y-63530328D01*
X55865450Y-63530325D01*
X55893793Y-63461897D01*
X55934942Y-63400314D01*
X55987314Y-63347942D01*
X56030737Y-63318927D01*
X56049672Y-63303388D01*
X56065217Y-63284446D01*
X56076768Y-63262835D01*
X56083881Y-63239386D01*
X56086283Y-63215000D01*
X56083881Y-63190614D01*
X56076768Y-63167165D01*
X56065217Y-63145554D01*
X56049672Y-63126612D01*
X56030737Y-63111073D01*
X55987314Y-63082058D01*
X55934942Y-63029686D01*
X55893793Y-62968103D01*
X55865450Y-62899675D01*
X55864262Y-62893702D01*
X55851000Y-62827034D01*
X55851000Y-62752966D01*
X55865449Y-62680328D01*
X55871392Y-62665980D01*
X55893793Y-62611897D01*
X55934942Y-62550314D01*
X55987314Y-62497942D01*
X56030737Y-62468927D01*
X56049672Y-62453388D01*
X56065217Y-62434446D01*
X56076768Y-62412835D01*
X56083881Y-62389386D01*
X56086283Y-62365000D01*
X56083881Y-62340614D01*
X56076768Y-62317165D01*
X56065217Y-62295554D01*
X56049672Y-62276612D01*
X56030737Y-62261073D01*
X55987314Y-62232058D01*
X55934942Y-62179686D01*
X55893793Y-62118103D01*
X55865450Y-62049675D01*
X55865077Y-62047798D01*
X55851000Y-61977034D01*
X55851000Y-61902966D01*
X55865449Y-61830328D01*
X55868675Y-61822539D01*
X55893793Y-61761897D01*
X55934942Y-61700314D01*
X55987314Y-61647942D01*
X56030737Y-61618927D01*
X56049672Y-61603388D01*
X56065217Y-61584446D01*
X56076768Y-61562835D01*
X56083881Y-61539386D01*
X56086283Y-61515000D01*
X56083881Y-61490614D01*
X56076768Y-61467165D01*
X56065217Y-61445554D01*
X56049672Y-61426612D01*
X56030737Y-61411073D01*
X55987314Y-61382058D01*
X55934942Y-61329686D01*
X55893793Y-61268103D01*
X55865450Y-61199675D01*
X55865316Y-61199000D01*
X55851000Y-61127034D01*
X55851000Y-61052966D01*
X55865449Y-60980328D01*
X55865450Y-60980325D01*
X55893793Y-60911897D01*
X55934942Y-60850314D01*
X55987314Y-60797942D01*
X56048897Y-60756793D01*
X56117325Y-60728450D01*
X56117326Y-60728450D01*
X56117328Y-60728449D01*
X56189966Y-60714000D01*
X56264034Y-60714000D01*
X56336672Y-60728449D01*
G37*
G36*
X86112928Y-66026764D02*
G01*
X86134009Y-66033160D01*
X86153445Y-66043548D01*
X86170476Y-66057524D01*
X86184452Y-66074555D01*
X86194840Y-66093991D01*
X86201236Y-66115072D01*
X86204000Y-66143140D01*
X86204000Y-66606860D01*
X86201236Y-66634928D01*
X86194840Y-66656009D01*
X86184452Y-66675445D01*
X86170476Y-66692476D01*
X86153445Y-66706452D01*
X86134009Y-66716840D01*
X86112928Y-66723236D01*
X86084860Y-66726000D01*
X84671140Y-66726000D01*
X84643072Y-66723236D01*
X84621991Y-66716840D01*
X84602555Y-66706452D01*
X84585524Y-66692476D01*
X84571548Y-66675445D01*
X84561160Y-66656009D01*
X84554764Y-66634928D01*
X84552000Y-66606860D01*
X84552000Y-66143140D01*
X84554764Y-66115072D01*
X84561160Y-66093991D01*
X84571548Y-66074555D01*
X84585524Y-66057524D01*
X84602555Y-66043548D01*
X84621991Y-66033160D01*
X84643072Y-66026764D01*
X84671140Y-66024000D01*
X86084860Y-66024000D01*
X86112928Y-66026764D01*
G37*
G36*
X66375000Y-66205000D02*
G01*
X62073000Y-66205000D01*
X62073000Y-63703000D01*
X66375000Y-63703000D01*
X66375000Y-66205000D01*
G37*
G36*
X88694242Y-64428404D02*
G01*
X88731337Y-64439657D01*
X88765515Y-64457925D01*
X88795481Y-64482519D01*
X88820075Y-64512485D01*
X88838343Y-64546663D01*
X88849596Y-64583758D01*
X88854000Y-64628474D01*
X88854000Y-65521526D01*
X88849596Y-65566242D01*
X88838343Y-65603337D01*
X88820075Y-65637515D01*
X88795481Y-65667481D01*
X88765515Y-65692075D01*
X88731337Y-65710343D01*
X88694242Y-65721596D01*
X88649526Y-65726000D01*
X87156474Y-65726000D01*
X87111758Y-65721596D01*
X87074663Y-65710343D01*
X87040485Y-65692075D01*
X87010519Y-65667481D01*
X86985925Y-65637515D01*
X86967657Y-65603337D01*
X86956404Y-65566242D01*
X86952000Y-65521526D01*
X86952000Y-64628474D01*
X86956404Y-64583758D01*
X86967657Y-64546663D01*
X86985925Y-64512485D01*
X87010519Y-64482519D01*
X87040485Y-64457925D01*
X87074663Y-64439657D01*
X87111758Y-64428404D01*
X87156474Y-64424000D01*
X88649526Y-64424000D01*
X88694242Y-64428404D01*
G37*
G36*
X58302499Y-64432445D02*
G01*
X58339995Y-64443820D01*
X58374554Y-64462292D01*
X58404847Y-64487153D01*
X58429708Y-64517446D01*
X58448180Y-64552005D01*
X58459555Y-64589501D01*
X58464000Y-64634638D01*
X58464000Y-65273362D01*
X58459555Y-65318499D01*
X58448180Y-65355995D01*
X58429708Y-65390554D01*
X58404847Y-65420847D01*
X58374554Y-65445708D01*
X58339995Y-65464180D01*
X58302499Y-65475555D01*
X58257362Y-65480000D01*
X57518638Y-65480000D01*
X57473501Y-65475555D01*
X57436005Y-65464180D01*
X57401446Y-65445708D01*
X57371153Y-65420847D01*
X57346292Y-65390554D01*
X57327820Y-65355995D01*
X57316445Y-65318499D01*
X57312000Y-65273362D01*
X57312000Y-64634638D01*
X57316445Y-64589501D01*
X57327820Y-64552005D01*
X57346292Y-64517446D01*
X57371153Y-64487153D01*
X57401446Y-64462292D01*
X57436005Y-64443820D01*
X57473501Y-64432445D01*
X57518638Y-64428000D01*
X58257362Y-64428000D01*
X58302499Y-64432445D01*
G37*
G36*
X60052499Y-64432445D02*
G01*
X60089995Y-64443820D01*
X60124554Y-64462292D01*
X60154847Y-64487153D01*
X60179708Y-64517446D01*
X60198180Y-64552005D01*
X60209555Y-64589501D01*
X60214000Y-64634638D01*
X60214000Y-65273362D01*
X60209555Y-65318499D01*
X60198180Y-65355995D01*
X60179708Y-65390554D01*
X60154847Y-65420847D01*
X60124554Y-65445708D01*
X60089995Y-65464180D01*
X60052499Y-65475555D01*
X60007362Y-65480000D01*
X59268638Y-65480000D01*
X59223501Y-65475555D01*
X59186005Y-65464180D01*
X59151446Y-65445708D01*
X59121153Y-65420847D01*
X59096292Y-65390554D01*
X59077820Y-65355995D01*
X59066445Y-65318499D01*
X59062000Y-65273362D01*
X59062000Y-64634638D01*
X59066445Y-64589501D01*
X59077820Y-64552005D01*
X59096292Y-64517446D01*
X59121153Y-64487153D01*
X59151446Y-64462292D01*
X59186005Y-64443820D01*
X59223501Y-64432445D01*
X59268638Y-64428000D01*
X60007362Y-64428000D01*
X60052499Y-64432445D01*
G37*
G36*
X106715000Y-65175000D02*
G01*
X105413000Y-65175000D01*
X105413000Y-63273000D01*
X106715000Y-63273000D01*
X106715000Y-65175000D01*
G37*
G36*
X104315000Y-65175000D02*
G01*
X103013000Y-65175000D01*
X103013000Y-63273000D01*
X104315000Y-63273000D01*
X104315000Y-65175000D01*
G37*
G36*
X83039499Y-63416445D02*
G01*
X83076995Y-63427820D01*
X83111554Y-63446292D01*
X83141847Y-63471153D01*
X83166708Y-63501446D01*
X83185180Y-63536005D01*
X83196555Y-63573501D01*
X83201000Y-63618638D01*
X83201000Y-64257362D01*
X83196555Y-64302499D01*
X83185180Y-64339995D01*
X83166708Y-64374554D01*
X83141847Y-64404847D01*
X83111554Y-64429708D01*
X83076995Y-64448180D01*
X83039499Y-64459555D01*
X82994362Y-64464000D01*
X82255638Y-64464000D01*
X82210501Y-64459555D01*
X82173005Y-64448180D01*
X82138446Y-64429708D01*
X82108153Y-64404847D01*
X82083292Y-64374554D01*
X82064820Y-64339995D01*
X82053445Y-64302499D01*
X82049000Y-64257362D01*
X82049000Y-63618638D01*
X82053445Y-63573501D01*
X82064820Y-63536005D01*
X82083292Y-63501446D01*
X82108153Y-63471153D01*
X82138446Y-63446292D01*
X82173005Y-63427820D01*
X82210501Y-63416445D01*
X82255638Y-63412000D01*
X82994362Y-63412000D01*
X83039499Y-63416445D01*
G37*
G36*
X81289499Y-63416445D02*
G01*
X81326995Y-63427820D01*
X81361554Y-63446292D01*
X81391847Y-63471153D01*
X81416708Y-63501446D01*
X81435180Y-63536005D01*
X81446555Y-63573501D01*
X81451000Y-63618638D01*
X81451000Y-64257362D01*
X81446555Y-64302499D01*
X81435180Y-64339995D01*
X81416708Y-64374554D01*
X81391847Y-64404847D01*
X81361554Y-64429708D01*
X81326995Y-64448180D01*
X81289499Y-64459555D01*
X81244362Y-64464000D01*
X80505638Y-64464000D01*
X80460501Y-64459555D01*
X80423005Y-64448180D01*
X80388446Y-64429708D01*
X80358153Y-64404847D01*
X80333292Y-64374554D01*
X80314820Y-64339995D01*
X80303445Y-64302499D01*
X80299000Y-64257362D01*
X80299000Y-63618638D01*
X80303445Y-63573501D01*
X80314820Y-63536005D01*
X80333292Y-63501446D01*
X80358153Y-63471153D01*
X80388446Y-63446292D01*
X80423005Y-63427820D01*
X80460501Y-63416445D01*
X80505638Y-63412000D01*
X81244362Y-63412000D01*
X81289499Y-63416445D01*
G37*
G36*
X78752786Y-61724746D02*
G01*
X78783461Y-61734051D01*
X78811729Y-61749161D01*
X78836506Y-61769494D01*
X78856839Y-61794271D01*
X78871949Y-61822539D01*
X78881254Y-61853214D01*
X78885000Y-61891251D01*
X78885000Y-63902749D01*
X78881254Y-63940786D01*
X78871949Y-63971461D01*
X78856839Y-63999729D01*
X78836506Y-64024506D01*
X78811729Y-64044839D01*
X78783461Y-64059949D01*
X78752786Y-64069254D01*
X78714749Y-64073000D01*
X76403251Y-64073000D01*
X76365214Y-64069254D01*
X76334539Y-64059949D01*
X76306271Y-64044839D01*
X76281494Y-64024506D01*
X76261161Y-63999729D01*
X76246051Y-63971461D01*
X76236746Y-63940786D01*
X76233000Y-63902749D01*
X76233000Y-61891251D01*
X76236746Y-61853214D01*
X76246051Y-61822539D01*
X76261161Y-61794271D01*
X76281494Y-61769494D01*
X76306271Y-61749161D01*
X76334539Y-61734051D01*
X76365214Y-61724746D01*
X76403251Y-61721000D01*
X78714749Y-61721000D01*
X78752786Y-61724746D01*
G37*
G36*
X60052499Y-62781445D02*
G01*
X60089995Y-62792820D01*
X60124554Y-62811292D01*
X60154847Y-62836153D01*
X60179708Y-62866446D01*
X60198180Y-62901005D01*
X60209555Y-62938501D01*
X60214000Y-62983638D01*
X60214000Y-63622362D01*
X60209555Y-63667499D01*
X60198180Y-63704995D01*
X60179708Y-63739554D01*
X60154847Y-63769847D01*
X60124554Y-63794708D01*
X60089995Y-63813180D01*
X60052499Y-63824555D01*
X60007362Y-63829000D01*
X59268638Y-63829000D01*
X59223501Y-63824555D01*
X59186005Y-63813180D01*
X59151446Y-63794708D01*
X59121153Y-63769847D01*
X59096292Y-63739554D01*
X59077820Y-63704995D01*
X59066445Y-63667499D01*
X59062000Y-63622362D01*
X59062000Y-62983638D01*
X59066445Y-62938501D01*
X59077820Y-62901005D01*
X59096292Y-62866446D01*
X59121153Y-62836153D01*
X59151446Y-62811292D01*
X59186005Y-62792820D01*
X59223501Y-62781445D01*
X59268638Y-62777000D01*
X60007362Y-62777000D01*
X60052499Y-62781445D01*
G37*
G36*
X58302499Y-62781445D02*
G01*
X58339995Y-62792820D01*
X58374554Y-62811292D01*
X58404847Y-62836153D01*
X58429708Y-62866446D01*
X58448180Y-62901005D01*
X58459555Y-62938501D01*
X58464000Y-62983638D01*
X58464000Y-63622362D01*
X58459555Y-63667499D01*
X58448180Y-63704995D01*
X58429708Y-63739554D01*
X58404847Y-63769847D01*
X58374554Y-63794708D01*
X58339995Y-63813180D01*
X58302499Y-63824555D01*
X58257362Y-63829000D01*
X57518638Y-63829000D01*
X57473501Y-63824555D01*
X57436005Y-63813180D01*
X57401446Y-63794708D01*
X57371153Y-63769847D01*
X57346292Y-63739554D01*
X57327820Y-63704995D01*
X57316445Y-63667499D01*
X57312000Y-63622362D01*
X57312000Y-62983638D01*
X57316445Y-62938501D01*
X57327820Y-62901005D01*
X57346292Y-62866446D01*
X57371153Y-62836153D01*
X57401446Y-62811292D01*
X57436005Y-62792820D01*
X57473501Y-62781445D01*
X57518638Y-62777000D01*
X58257362Y-62777000D01*
X58302499Y-62781445D01*
G37*
G36*
X72174468Y-62436565D02*
G01*
X72213138Y-62448296D01*
X72248777Y-62467346D01*
X72280017Y-62492983D01*
X72305654Y-62524223D01*
X72324704Y-62559862D01*
X72336435Y-62598532D01*
X72341000Y-62644888D01*
X72341000Y-63296112D01*
X72336435Y-63342468D01*
X72324704Y-63381138D01*
X72305654Y-63416777D01*
X72280017Y-63448017D01*
X72248777Y-63473654D01*
X72213138Y-63492704D01*
X72174468Y-63504435D01*
X72128112Y-63509000D01*
X71051888Y-63509000D01*
X71005532Y-63504435D01*
X70966862Y-63492704D01*
X70931223Y-63473654D01*
X70899983Y-63448017D01*
X70874346Y-63416777D01*
X70855296Y-63381138D01*
X70843565Y-63342468D01*
X70839000Y-63296112D01*
X70839000Y-62644888D01*
X70843565Y-62598532D01*
X70855296Y-62559862D01*
X70874346Y-62524223D01*
X70899983Y-62492983D01*
X70931223Y-62467346D01*
X70966862Y-62448296D01*
X71005532Y-62436565D01*
X71051888Y-62432000D01*
X72128112Y-62432000D01*
X72174468Y-62436565D01*
G37*
G36*
X81289499Y-61765445D02*
G01*
X81326995Y-61776820D01*
X81361554Y-61795292D01*
X81391847Y-61820153D01*
X81416708Y-61850446D01*
X81435180Y-61885005D01*
X81446555Y-61922501D01*
X81451000Y-61967638D01*
X81451000Y-62606362D01*
X81446555Y-62651499D01*
X81435180Y-62688995D01*
X81416708Y-62723554D01*
X81391847Y-62753847D01*
X81361554Y-62778708D01*
X81326995Y-62797180D01*
X81289499Y-62808555D01*
X81244362Y-62813000D01*
X80505638Y-62813000D01*
X80460501Y-62808555D01*
X80423005Y-62797180D01*
X80388446Y-62778708D01*
X80358153Y-62753847D01*
X80333292Y-62723554D01*
X80314820Y-62688995D01*
X80303445Y-62651499D01*
X80299000Y-62606362D01*
X80299000Y-61967638D01*
X80303445Y-61922501D01*
X80314820Y-61885005D01*
X80333292Y-61850446D01*
X80358153Y-61820153D01*
X80388446Y-61795292D01*
X80423005Y-61776820D01*
X80460501Y-61765445D01*
X80505638Y-61761000D01*
X81244362Y-61761000D01*
X81289499Y-61765445D01*
G37*
G36*
X83039499Y-61765445D02*
G01*
X83076995Y-61776820D01*
X83111554Y-61795292D01*
X83141847Y-61820153D01*
X83166708Y-61850446D01*
X83185180Y-61885005D01*
X83196555Y-61922501D01*
X83201000Y-61967638D01*
X83201000Y-62606362D01*
X83196555Y-62651499D01*
X83185180Y-62688995D01*
X83166708Y-62723554D01*
X83141847Y-62753847D01*
X83111554Y-62778708D01*
X83076995Y-62797180D01*
X83039499Y-62808555D01*
X82994362Y-62813000D01*
X82255638Y-62813000D01*
X82210501Y-62808555D01*
X82173005Y-62797180D01*
X82138446Y-62778708D01*
X82108153Y-62753847D01*
X82083292Y-62723554D01*
X82064820Y-62688995D01*
X82053445Y-62651499D01*
X82049000Y-62606362D01*
X82049000Y-61967638D01*
X82053445Y-61922501D01*
X82064820Y-61885005D01*
X82083292Y-61850446D01*
X82108153Y-61820153D01*
X82138446Y-61795292D01*
X82173005Y-61776820D01*
X82210501Y-61765445D01*
X82255638Y-61761000D01*
X82994362Y-61761000D01*
X83039499Y-61765445D01*
G37*
G36*
X106153499Y-61638445D02*
G01*
X106190995Y-61649820D01*
X106225554Y-61668292D01*
X106255847Y-61693153D01*
X106280708Y-61723446D01*
X106299180Y-61758005D01*
X106310555Y-61795501D01*
X106315000Y-61840638D01*
X106315000Y-62479362D01*
X106310555Y-62524499D01*
X106299180Y-62561995D01*
X106280708Y-62596554D01*
X106255847Y-62626847D01*
X106225554Y-62651708D01*
X106190995Y-62670180D01*
X106153499Y-62681555D01*
X106108362Y-62686000D01*
X105369638Y-62686000D01*
X105324501Y-62681555D01*
X105287005Y-62670180D01*
X105252446Y-62651708D01*
X105222153Y-62626847D01*
X105197292Y-62596554D01*
X105178820Y-62561995D01*
X105167445Y-62524499D01*
X105163000Y-62479362D01*
X105163000Y-61840638D01*
X105167445Y-61795501D01*
X105178820Y-61758005D01*
X105197292Y-61723446D01*
X105222153Y-61693153D01*
X105252446Y-61668292D01*
X105287005Y-61649820D01*
X105324501Y-61638445D01*
X105369638Y-61634000D01*
X106108362Y-61634000D01*
X106153499Y-61638445D01*
G37*
G36*
X104403499Y-61638445D02*
G01*
X104440995Y-61649820D01*
X104475554Y-61668292D01*
X104505847Y-61693153D01*
X104530708Y-61723446D01*
X104549180Y-61758005D01*
X104560555Y-61795501D01*
X104565000Y-61840638D01*
X104565000Y-62479362D01*
X104560555Y-62524499D01*
X104549180Y-62561995D01*
X104530708Y-62596554D01*
X104505847Y-62626847D01*
X104475554Y-62651708D01*
X104440995Y-62670180D01*
X104403499Y-62681555D01*
X104358362Y-62686000D01*
X103619638Y-62686000D01*
X103574501Y-62681555D01*
X103537005Y-62670180D01*
X103502446Y-62651708D01*
X103472153Y-62626847D01*
X103447292Y-62596554D01*
X103428820Y-62561995D01*
X103417445Y-62524499D01*
X103413000Y-62479362D01*
X103413000Y-61840638D01*
X103417445Y-61795501D01*
X103428820Y-61758005D01*
X103447292Y-61723446D01*
X103472153Y-61693153D01*
X103502446Y-61668292D01*
X103537005Y-61649820D01*
X103574501Y-61638445D01*
X103619638Y-61634000D01*
X104358362Y-61634000D01*
X104403499Y-61638445D01*
G37*
G36*
X67799499Y-61511445D02*
G01*
X67836995Y-61522820D01*
X67871554Y-61541292D01*
X67901847Y-61566153D01*
X67926708Y-61596446D01*
X67945180Y-61631005D01*
X67956555Y-61668501D01*
X67961000Y-61713638D01*
X67961000Y-62352362D01*
X67956555Y-62397499D01*
X67945180Y-62434995D01*
X67926708Y-62469554D01*
X67901847Y-62499847D01*
X67871554Y-62524708D01*
X67836995Y-62543180D01*
X67799499Y-62554555D01*
X67754362Y-62559000D01*
X67015638Y-62559000D01*
X66970501Y-62554555D01*
X66933005Y-62543180D01*
X66898446Y-62524708D01*
X66868153Y-62499847D01*
X66843292Y-62469554D01*
X66824820Y-62434995D01*
X66813445Y-62397499D01*
X66809000Y-62352362D01*
X66809000Y-61713638D01*
X66813445Y-61668501D01*
X66824820Y-61631005D01*
X66843292Y-61596446D01*
X66868153Y-61566153D01*
X66898446Y-61541292D01*
X66933005Y-61522820D01*
X66970501Y-61511445D01*
X67015638Y-61507000D01*
X67754362Y-61507000D01*
X67799499Y-61511445D01*
G37*
G36*
X66049499Y-61511445D02*
G01*
X66086995Y-61522820D01*
X66121554Y-61541292D01*
X66151847Y-61566153D01*
X66176708Y-61596446D01*
X66195180Y-61631005D01*
X66206555Y-61668501D01*
X66211000Y-61713638D01*
X66211000Y-62352362D01*
X66206555Y-62397499D01*
X66195180Y-62434995D01*
X66176708Y-62469554D01*
X66151847Y-62499847D01*
X66121554Y-62524708D01*
X66086995Y-62543180D01*
X66049499Y-62554555D01*
X66004362Y-62559000D01*
X65265638Y-62559000D01*
X65220501Y-62554555D01*
X65183005Y-62543180D01*
X65148446Y-62524708D01*
X65118153Y-62499847D01*
X65093292Y-62469554D01*
X65074820Y-62434995D01*
X65063445Y-62397499D01*
X65059000Y-62352362D01*
X65059000Y-61713638D01*
X65063445Y-61668501D01*
X65074820Y-61631005D01*
X65093292Y-61596446D01*
X65118153Y-61566153D01*
X65148446Y-61541292D01*
X65183005Y-61522820D01*
X65220501Y-61511445D01*
X65265638Y-61507000D01*
X66004362Y-61507000D01*
X66049499Y-61511445D01*
G37*
G36*
X62493499Y-61384445D02*
G01*
X62530995Y-61395820D01*
X62565554Y-61414292D01*
X62595847Y-61439153D01*
X62620708Y-61469446D01*
X62639180Y-61504005D01*
X62650555Y-61541501D01*
X62655000Y-61586638D01*
X62655000Y-62225362D01*
X62650555Y-62270499D01*
X62639180Y-62307995D01*
X62620708Y-62342554D01*
X62595847Y-62372847D01*
X62565554Y-62397708D01*
X62530995Y-62416180D01*
X62493499Y-62427555D01*
X62448362Y-62432000D01*
X61709638Y-62432000D01*
X61664501Y-62427555D01*
X61627005Y-62416180D01*
X61592446Y-62397708D01*
X61562153Y-62372847D01*
X61537292Y-62342554D01*
X61518820Y-62307995D01*
X61507445Y-62270499D01*
X61503000Y-62225362D01*
X61503000Y-61586638D01*
X61507445Y-61541501D01*
X61518820Y-61504005D01*
X61537292Y-61469446D01*
X61562153Y-61439153D01*
X61592446Y-61414292D01*
X61627005Y-61395820D01*
X61664501Y-61384445D01*
X61709638Y-61380000D01*
X62448362Y-61380000D01*
X62493499Y-61384445D01*
G37*
G36*
X64243499Y-61384445D02*
G01*
X64280995Y-61395820D01*
X64315554Y-61414292D01*
X64345847Y-61439153D01*
X64370708Y-61469446D01*
X64389180Y-61504005D01*
X64400555Y-61541501D01*
X64405000Y-61586638D01*
X64405000Y-62225362D01*
X64400555Y-62270499D01*
X64389180Y-62307995D01*
X64370708Y-62342554D01*
X64345847Y-62372847D01*
X64315554Y-62397708D01*
X64280995Y-62416180D01*
X64243499Y-62427555D01*
X64198362Y-62432000D01*
X63459638Y-62432000D01*
X63414501Y-62427555D01*
X63377005Y-62416180D01*
X63342446Y-62397708D01*
X63312153Y-62372847D01*
X63287292Y-62342554D01*
X63268820Y-62307995D01*
X63257445Y-62270499D01*
X63253000Y-62225362D01*
X63253000Y-61586638D01*
X63257445Y-61541501D01*
X63268820Y-61504005D01*
X63287292Y-61469446D01*
X63312153Y-61439153D01*
X63342446Y-61414292D01*
X63377005Y-61395820D01*
X63414501Y-61384445D01*
X63459638Y-61380000D01*
X64198362Y-61380000D01*
X64243499Y-61384445D01*
G37*
G36*
X58585468Y-61166565D02*
G01*
X58624138Y-61178296D01*
X58659777Y-61197346D01*
X58691017Y-61222983D01*
X58716654Y-61254223D01*
X58735704Y-61289862D01*
X58747435Y-61328532D01*
X58752000Y-61374888D01*
X58752000Y-62026112D01*
X58747435Y-62072468D01*
X58735704Y-62111138D01*
X58716654Y-62146777D01*
X58691017Y-62178017D01*
X58659777Y-62203654D01*
X58624138Y-62222704D01*
X58585468Y-62234435D01*
X58539112Y-62239000D01*
X57462888Y-62239000D01*
X57416532Y-62234435D01*
X57377862Y-62222704D01*
X57342223Y-62203654D01*
X57310983Y-62178017D01*
X57285346Y-62146777D01*
X57266296Y-62111138D01*
X57254565Y-62072468D01*
X57250000Y-62026112D01*
X57250000Y-61374888D01*
X57254565Y-61328532D01*
X57266296Y-61289862D01*
X57285346Y-61254223D01*
X57310983Y-61222983D01*
X57342223Y-61197346D01*
X57377862Y-61178296D01*
X57416532Y-61166565D01*
X57462888Y-61162000D01*
X58539112Y-61162000D01*
X58585468Y-61166565D01*
G37*
G36*
X89480499Y-61066445D02*
G01*
X89517995Y-61077820D01*
X89552554Y-61096292D01*
X89582847Y-61121153D01*
X89607708Y-61151446D01*
X89626180Y-61186005D01*
X89637555Y-61223501D01*
X89642000Y-61268638D01*
X89642000Y-62007362D01*
X89637555Y-62052499D01*
X89626180Y-62089995D01*
X89607708Y-62124554D01*
X89582847Y-62154847D01*
X89552554Y-62179708D01*
X89517995Y-62198180D01*
X89480499Y-62209555D01*
X89435362Y-62214000D01*
X88796638Y-62214000D01*
X88751501Y-62209555D01*
X88714005Y-62198180D01*
X88679446Y-62179708D01*
X88649153Y-62154847D01*
X88624292Y-62124554D01*
X88605820Y-62089995D01*
X88594445Y-62052499D01*
X88590000Y-62007362D01*
X88590000Y-61268638D01*
X88594445Y-61223501D01*
X88605820Y-61186005D01*
X88624292Y-61151446D01*
X88649153Y-61121153D01*
X88679446Y-61096292D01*
X88714005Y-61077820D01*
X88751501Y-61066445D01*
X88796638Y-61062000D01*
X89435362Y-61062000D01*
X89480499Y-61066445D01*
G37*
G36*
X72174468Y-60561565D02*
G01*
X72213138Y-60573296D01*
X72248777Y-60592346D01*
X72280017Y-60617983D01*
X72305654Y-60649223D01*
X72324704Y-60684862D01*
X72336435Y-60723532D01*
X72341000Y-60769888D01*
X72341000Y-61421112D01*
X72336435Y-61467468D01*
X72324704Y-61506138D01*
X72305654Y-61541777D01*
X72280017Y-61573017D01*
X72248777Y-61598654D01*
X72213138Y-61617704D01*
X72174468Y-61629435D01*
X72128112Y-61634000D01*
X71051888Y-61634000D01*
X71005532Y-61629435D01*
X70966862Y-61617704D01*
X70931223Y-61598654D01*
X70899983Y-61573017D01*
X70874346Y-61541777D01*
X70855296Y-61506138D01*
X70843565Y-61467468D01*
X70839000Y-61421112D01*
X70839000Y-60769888D01*
X70843565Y-60723532D01*
X70855296Y-60684862D01*
X70874346Y-60649223D01*
X70899983Y-60617983D01*
X70931223Y-60592346D01*
X70966862Y-60573296D01*
X71005532Y-60561565D01*
X71051888Y-60557000D01*
X72128112Y-60557000D01*
X72174468Y-60561565D01*
G37*
G36*
X92769051Y-59599284D02*
G01*
X92785443Y-59604257D01*
X92800555Y-59612334D01*
X92813798Y-59623202D01*
X92824667Y-59636447D01*
X92828761Y-59644106D01*
X92842374Y-59664480D01*
X92859701Y-59681807D01*
X92880076Y-59695421D01*
X92902714Y-59704798D01*
X92926748Y-59709579D01*
X92951252Y-59709579D01*
X92975285Y-59704799D01*
X92997924Y-59695421D01*
X93018298Y-59681808D01*
X93035625Y-59664481D01*
X93049239Y-59644106D01*
X93053333Y-59636447D01*
X93064202Y-59623202D01*
X93077445Y-59612334D01*
X93092557Y-59604257D01*
X93108949Y-59599284D01*
X93132141Y-59597000D01*
X93545859Y-59597000D01*
X93569051Y-59599284D01*
X93585443Y-59604257D01*
X93600555Y-59612334D01*
X93613798Y-59623202D01*
X93624667Y-59636447D01*
X93628761Y-59644106D01*
X93642374Y-59664480D01*
X93659701Y-59681807D01*
X93680076Y-59695421D01*
X93702714Y-59704798D01*
X93726748Y-59709579D01*
X93751252Y-59709579D01*
X93775285Y-59704799D01*
X93797924Y-59695421D01*
X93818298Y-59681808D01*
X93835625Y-59664481D01*
X93849239Y-59644106D01*
X93853333Y-59636447D01*
X93864202Y-59623202D01*
X93877445Y-59612334D01*
X93892557Y-59604257D01*
X93908949Y-59599284D01*
X93932141Y-59597000D01*
X94345859Y-59597000D01*
X94369051Y-59599284D01*
X94385443Y-59604257D01*
X94400555Y-59612334D01*
X94413798Y-59623202D01*
X94424667Y-59636447D01*
X94428761Y-59644106D01*
X94442374Y-59664480D01*
X94459701Y-59681807D01*
X94480076Y-59695421D01*
X94502714Y-59704798D01*
X94526748Y-59709579D01*
X94551252Y-59709579D01*
X94575285Y-59704799D01*
X94597924Y-59695421D01*
X94618298Y-59681808D01*
X94635625Y-59664481D01*
X94649239Y-59644106D01*
X94653333Y-59636447D01*
X94664202Y-59623202D01*
X94677445Y-59612334D01*
X94692557Y-59604257D01*
X94708949Y-59599284D01*
X94732141Y-59597000D01*
X95145859Y-59597000D01*
X95169051Y-59599284D01*
X95185443Y-59604257D01*
X95200555Y-59612334D01*
X95213798Y-59623202D01*
X95224667Y-59636447D01*
X95228761Y-59644106D01*
X95242374Y-59664480D01*
X95259701Y-59681807D01*
X95280076Y-59695421D01*
X95302714Y-59704798D01*
X95326748Y-59709579D01*
X95351252Y-59709579D01*
X95375285Y-59704799D01*
X95397924Y-59695421D01*
X95418298Y-59681808D01*
X95435625Y-59664481D01*
X95449239Y-59644106D01*
X95453333Y-59636447D01*
X95464202Y-59623202D01*
X95477445Y-59612334D01*
X95492557Y-59604257D01*
X95508949Y-59599284D01*
X95532141Y-59597000D01*
X95945859Y-59597000D01*
X95969051Y-59599284D01*
X95985443Y-59604257D01*
X96000555Y-59612334D01*
X96013798Y-59623202D01*
X96024667Y-59636447D01*
X96028761Y-59644106D01*
X96042374Y-59664480D01*
X96059701Y-59681807D01*
X96080076Y-59695421D01*
X96102714Y-59704798D01*
X96126748Y-59709579D01*
X96151252Y-59709579D01*
X96175285Y-59704799D01*
X96197924Y-59695421D01*
X96218298Y-59681808D01*
X96235625Y-59664481D01*
X96249239Y-59644106D01*
X96253333Y-59636447D01*
X96264202Y-59623202D01*
X96277445Y-59612334D01*
X96292557Y-59604257D01*
X96308949Y-59599284D01*
X96332141Y-59597000D01*
X96745859Y-59597000D01*
X96769051Y-59599284D01*
X96785443Y-59604257D01*
X96800555Y-59612334D01*
X96813798Y-59623202D01*
X96824667Y-59636447D01*
X96828761Y-59644106D01*
X96842374Y-59664480D01*
X96859701Y-59681807D01*
X96880076Y-59695421D01*
X96902714Y-59704798D01*
X96926748Y-59709579D01*
X96951252Y-59709579D01*
X96975285Y-59704799D01*
X96997924Y-59695421D01*
X97018298Y-59681808D01*
X97035625Y-59664481D01*
X97049239Y-59644106D01*
X97053333Y-59636447D01*
X97064202Y-59623202D01*
X97077445Y-59612334D01*
X97092557Y-59604257D01*
X97108949Y-59599284D01*
X97132141Y-59597000D01*
X97545859Y-59597000D01*
X97569051Y-59599284D01*
X97585443Y-59604257D01*
X97600555Y-59612334D01*
X97613798Y-59623202D01*
X97624667Y-59636447D01*
X97628761Y-59644106D01*
X97642374Y-59664480D01*
X97659701Y-59681807D01*
X97680076Y-59695421D01*
X97702714Y-59704798D01*
X97726748Y-59709579D01*
X97751252Y-59709579D01*
X97775285Y-59704799D01*
X97797924Y-59695421D01*
X97818298Y-59681808D01*
X97835625Y-59664481D01*
X97849239Y-59644106D01*
X97853333Y-59636447D01*
X97864202Y-59623202D01*
X97877445Y-59612334D01*
X97892557Y-59604257D01*
X97908949Y-59599284D01*
X97932141Y-59597000D01*
X98345859Y-59597000D01*
X98369051Y-59599284D01*
X98385443Y-59604257D01*
X98400555Y-59612334D01*
X98413798Y-59623202D01*
X98424666Y-59636445D01*
X98432743Y-59651557D01*
X98437716Y-59667949D01*
X98440000Y-59691141D01*
X98440000Y-61104859D01*
X98437716Y-61128051D01*
X98432743Y-61144443D01*
X98424666Y-61159555D01*
X98413798Y-61172798D01*
X98400555Y-61183666D01*
X98385443Y-61191743D01*
X98369051Y-61196716D01*
X98345859Y-61199000D01*
X97932141Y-61199000D01*
X97908949Y-61196716D01*
X97892557Y-61191743D01*
X97877445Y-61183666D01*
X97864202Y-61172798D01*
X97853333Y-61159553D01*
X97849239Y-61151894D01*
X97835626Y-61131520D01*
X97818299Y-61114193D01*
X97797924Y-61100579D01*
X97775286Y-61091202D01*
X97751252Y-61086421D01*
X97726748Y-61086421D01*
X97702715Y-61091201D01*
X97680076Y-61100579D01*
X97659702Y-61114192D01*
X97642375Y-61131519D01*
X97628761Y-61151894D01*
X97624667Y-61159553D01*
X97613798Y-61172798D01*
X97600555Y-61183666D01*
X97585443Y-61191743D01*
X97569051Y-61196716D01*
X97545859Y-61199000D01*
X97132141Y-61199000D01*
X97108949Y-61196716D01*
X97092557Y-61191743D01*
X97077445Y-61183666D01*
X97064202Y-61172798D01*
X97053333Y-61159553D01*
X97049239Y-61151894D01*
X97035626Y-61131520D01*
X97018299Y-61114193D01*
X96997924Y-61100579D01*
X96975286Y-61091202D01*
X96951252Y-61086421D01*
X96926748Y-61086421D01*
X96902715Y-61091201D01*
X96880076Y-61100579D01*
X96859702Y-61114192D01*
X96842375Y-61131519D01*
X96828761Y-61151894D01*
X96824667Y-61159553D01*
X96813798Y-61172798D01*
X96800555Y-61183666D01*
X96785443Y-61191743D01*
X96769051Y-61196716D01*
X96745859Y-61199000D01*
X96332141Y-61199000D01*
X96308949Y-61196716D01*
X96292557Y-61191743D01*
X96277445Y-61183666D01*
X96264202Y-61172798D01*
X96253333Y-61159553D01*
X96249239Y-61151894D01*
X96235626Y-61131520D01*
X96218299Y-61114193D01*
X96197924Y-61100579D01*
X96175286Y-61091202D01*
X96151252Y-61086421D01*
X96126748Y-61086421D01*
X96102715Y-61091201D01*
X96080076Y-61100579D01*
X96059702Y-61114192D01*
X96042375Y-61131519D01*
X96028761Y-61151894D01*
X96024667Y-61159553D01*
X96013798Y-61172798D01*
X96000555Y-61183666D01*
X95985443Y-61191743D01*
X95969051Y-61196716D01*
X95945859Y-61199000D01*
X95532141Y-61199000D01*
X95508949Y-61196716D01*
X95492557Y-61191743D01*
X95477445Y-61183666D01*
X95464202Y-61172798D01*
X95453333Y-61159553D01*
X95449239Y-61151894D01*
X95435626Y-61131520D01*
X95418299Y-61114193D01*
X95397924Y-61100579D01*
X95375286Y-61091202D01*
X95351252Y-61086421D01*
X95326748Y-61086421D01*
X95302715Y-61091201D01*
X95280076Y-61100579D01*
X95259702Y-61114192D01*
X95242375Y-61131519D01*
X95228761Y-61151894D01*
X95224667Y-61159553D01*
X95213798Y-61172798D01*
X95200555Y-61183666D01*
X95185443Y-61191743D01*
X95169051Y-61196716D01*
X95145859Y-61199000D01*
X94732141Y-61199000D01*
X94708949Y-61196716D01*
X94692557Y-61191743D01*
X94677445Y-61183666D01*
X94664202Y-61172798D01*
X94653333Y-61159553D01*
X94649239Y-61151894D01*
X94635626Y-61131520D01*
X94618299Y-61114193D01*
X94597924Y-61100579D01*
X94575286Y-61091202D01*
X94551252Y-61086421D01*
X94526748Y-61086421D01*
X94502715Y-61091201D01*
X94480076Y-61100579D01*
X94459702Y-61114192D01*
X94442375Y-61131519D01*
X94428761Y-61151894D01*
X94424667Y-61159553D01*
X94413798Y-61172798D01*
X94400555Y-61183666D01*
X94385443Y-61191743D01*
X94369051Y-61196716D01*
X94345859Y-61199000D01*
X93932141Y-61199000D01*
X93908949Y-61196716D01*
X93892557Y-61191743D01*
X93877445Y-61183666D01*
X93864202Y-61172798D01*
X93853333Y-61159553D01*
X93849239Y-61151894D01*
X93835626Y-61131520D01*
X93818299Y-61114193D01*
X93797924Y-61100579D01*
X93775286Y-61091202D01*
X93751252Y-61086421D01*
X93726748Y-61086421D01*
X93702715Y-61091201D01*
X93680076Y-61100579D01*
X93659702Y-61114192D01*
X93642375Y-61131519D01*
X93628761Y-61151894D01*
X93624667Y-61159553D01*
X93613798Y-61172798D01*
X93600555Y-61183666D01*
X93585443Y-61191743D01*
X93569051Y-61196716D01*
X93545859Y-61199000D01*
X93132141Y-61199000D01*
X93108949Y-61196716D01*
X93092557Y-61191743D01*
X93077445Y-61183666D01*
X93064202Y-61172798D01*
X93053333Y-61159553D01*
X93049239Y-61151894D01*
X93035626Y-61131520D01*
X93018299Y-61114193D01*
X92997924Y-61100579D01*
X92975286Y-61091202D01*
X92951252Y-61086421D01*
X92926748Y-61086421D01*
X92902715Y-61091201D01*
X92880076Y-61100579D01*
X92859702Y-61114192D01*
X92842375Y-61131519D01*
X92828761Y-61151894D01*
X92824667Y-61159553D01*
X92813798Y-61172798D01*
X92800555Y-61183666D01*
X92785443Y-61191743D01*
X92769051Y-61196716D01*
X92745859Y-61199000D01*
X92332141Y-61199000D01*
X92308949Y-61196716D01*
X92292557Y-61191743D01*
X92277445Y-61183666D01*
X92264202Y-61172798D01*
X92253334Y-61159555D01*
X92245257Y-61144443D01*
X92240284Y-61128051D01*
X92238000Y-61104859D01*
X92238000Y-59691141D01*
X92240284Y-59667949D01*
X92245257Y-59651557D01*
X92253334Y-59636445D01*
X92264202Y-59623202D01*
X92277445Y-59612334D01*
X92292557Y-59604257D01*
X92308949Y-59599284D01*
X92332141Y-59597000D01*
X92745859Y-59597000D01*
X92769051Y-59599284D01*
G37*
G36*
X104403499Y-59733445D02*
G01*
X104440995Y-59744820D01*
X104475554Y-59763292D01*
X104505847Y-59788153D01*
X104530708Y-59818446D01*
X104549180Y-59853005D01*
X104560555Y-59890501D01*
X104565000Y-59935638D01*
X104565000Y-60574362D01*
X104560555Y-60619499D01*
X104549180Y-60656995D01*
X104530708Y-60691554D01*
X104505847Y-60721847D01*
X104475554Y-60746708D01*
X104440995Y-60765180D01*
X104403499Y-60776555D01*
X104358362Y-60781000D01*
X103619638Y-60781000D01*
X103574501Y-60776555D01*
X103537005Y-60765180D01*
X103502446Y-60746708D01*
X103472153Y-60721847D01*
X103447292Y-60691554D01*
X103428820Y-60656995D01*
X103417445Y-60619499D01*
X103413000Y-60574362D01*
X103413000Y-59935638D01*
X103417445Y-59890501D01*
X103428820Y-59853005D01*
X103447292Y-59818446D01*
X103472153Y-59788153D01*
X103502446Y-59763292D01*
X103537005Y-59744820D01*
X103574501Y-59733445D01*
X103619638Y-59729000D01*
X104358362Y-59729000D01*
X104403499Y-59733445D01*
G37*
G36*
X106153499Y-59733445D02*
G01*
X106190995Y-59744820D01*
X106225554Y-59763292D01*
X106255847Y-59788153D01*
X106280708Y-59818446D01*
X106299180Y-59853005D01*
X106310555Y-59890501D01*
X106315000Y-59935638D01*
X106315000Y-60574362D01*
X106310555Y-60619499D01*
X106299180Y-60656995D01*
X106280708Y-60691554D01*
X106255847Y-60721847D01*
X106225554Y-60746708D01*
X106190995Y-60765180D01*
X106153499Y-60776555D01*
X106108362Y-60781000D01*
X105369638Y-60781000D01*
X105324501Y-60776555D01*
X105287005Y-60765180D01*
X105252446Y-60746708D01*
X105222153Y-60721847D01*
X105197292Y-60691554D01*
X105178820Y-60656995D01*
X105167445Y-60619499D01*
X105163000Y-60574362D01*
X105163000Y-59935638D01*
X105167445Y-59890501D01*
X105178820Y-59853005D01*
X105197292Y-59818446D01*
X105222153Y-59788153D01*
X105252446Y-59763292D01*
X105287005Y-59744820D01*
X105324501Y-59733445D01*
X105369638Y-59729000D01*
X106108362Y-59729000D01*
X106153499Y-59733445D01*
G37*
G36*
X62805000Y-60778000D02*
G01*
X61603000Y-60778000D01*
X61603000Y-59176000D01*
X62805000Y-59176000D01*
X62805000Y-60778000D01*
G37*
G36*
X64305000Y-60778000D02*
G01*
X63103000Y-60778000D01*
X63103000Y-59176000D01*
X64305000Y-59176000D01*
X64305000Y-60778000D01*
G37*
G36*
X68445000Y-60692000D02*
G01*
X67283000Y-60692000D01*
X67283000Y-58040000D01*
X68445000Y-58040000D01*
X68445000Y-60692000D01*
G37*
G36*
X66245000Y-60692000D02*
G01*
X65083000Y-60692000D01*
X65083000Y-59940000D01*
X66245000Y-59940000D01*
X66245000Y-60692000D01*
G37*
G36*
X89480499Y-59316445D02*
G01*
X89517995Y-59327820D01*
X89552554Y-59346292D01*
X89582847Y-59371153D01*
X89607708Y-59401446D01*
X89626180Y-59436005D01*
X89637555Y-59473501D01*
X89642000Y-59518638D01*
X89642000Y-60257362D01*
X89637555Y-60302499D01*
X89626180Y-60339995D01*
X89607708Y-60374554D01*
X89582847Y-60404847D01*
X89552554Y-60429708D01*
X89517995Y-60448180D01*
X89480499Y-60459555D01*
X89435362Y-60464000D01*
X88796638Y-60464000D01*
X88751501Y-60459555D01*
X88714005Y-60448180D01*
X88679446Y-60429708D01*
X88649153Y-60404847D01*
X88624292Y-60374554D01*
X88605820Y-60339995D01*
X88594445Y-60302499D01*
X88590000Y-60257362D01*
X88590000Y-59518638D01*
X88594445Y-59473501D01*
X88605820Y-59436005D01*
X88624292Y-59401446D01*
X88649153Y-59371153D01*
X88679446Y-59346292D01*
X88714005Y-59327820D01*
X88751501Y-59316445D01*
X88796638Y-59312000D01*
X89435362Y-59312000D01*
X89480499Y-59316445D01*
G37*
G36*
X58585468Y-59291565D02*
G01*
X58624138Y-59303296D01*
X58659777Y-59322346D01*
X58691017Y-59347983D01*
X58716654Y-59379223D01*
X58735704Y-59414862D01*
X58747435Y-59453532D01*
X58752000Y-59499888D01*
X58752000Y-60151112D01*
X58747435Y-60197468D01*
X58735704Y-60236138D01*
X58716654Y-60271777D01*
X58691017Y-60303017D01*
X58659777Y-60328654D01*
X58624138Y-60347704D01*
X58585468Y-60359435D01*
X58539112Y-60364000D01*
X57462888Y-60364000D01*
X57416532Y-60359435D01*
X57377862Y-60347704D01*
X57342223Y-60328654D01*
X57310983Y-60303017D01*
X57285346Y-60271777D01*
X57266296Y-60236138D01*
X57254565Y-60197468D01*
X57250000Y-60151112D01*
X57250000Y-59499888D01*
X57254565Y-59453532D01*
X57266296Y-59414862D01*
X57285346Y-59379223D01*
X57310983Y-59347983D01*
X57342223Y-59322346D01*
X57377862Y-59303296D01*
X57416532Y-59291565D01*
X57462888Y-59287000D01*
X58539112Y-59287000D01*
X58585468Y-59291565D01*
G37*
G36*
X56095213Y-59246249D02*
G01*
X56189652Y-59274897D01*
X56276687Y-59321418D01*
X56352975Y-59384025D01*
X56415582Y-59460313D01*
X56462103Y-59547348D01*
X56490751Y-59641787D01*
X56500424Y-59740000D01*
X56490751Y-59838213D01*
X56462103Y-59932652D01*
X56415582Y-60019687D01*
X56352975Y-60095975D01*
X56276687Y-60158582D01*
X56189652Y-60205103D01*
X56095213Y-60233751D01*
X56021612Y-60241000D01*
X54472388Y-60241000D01*
X54398787Y-60233751D01*
X54304348Y-60205103D01*
X54217313Y-60158582D01*
X54141025Y-60095975D01*
X54078418Y-60019687D01*
X54031897Y-59932652D01*
X54003249Y-59838213D01*
X53993576Y-59740000D01*
X54003249Y-59641787D01*
X54031897Y-59547348D01*
X54078418Y-59460313D01*
X54141025Y-59384025D01*
X54217313Y-59321418D01*
X54304348Y-59274897D01*
X54398787Y-59246249D01*
X54472388Y-59239000D01*
X56021612Y-59239000D01*
X56095213Y-59246249D01*
G37*
G36*
X52365213Y-59246249D02*
G01*
X52459652Y-59274897D01*
X52546687Y-59321418D01*
X52622975Y-59384025D01*
X52685582Y-59460313D01*
X52732103Y-59547348D01*
X52760751Y-59641787D01*
X52770424Y-59740000D01*
X52760751Y-59838213D01*
X52732103Y-59932652D01*
X52685582Y-60019687D01*
X52622975Y-60095975D01*
X52546687Y-60158582D01*
X52459652Y-60205103D01*
X52365213Y-60233751D01*
X52291612Y-60241000D01*
X51442388Y-60241000D01*
X51368787Y-60233751D01*
X51274348Y-60205103D01*
X51187313Y-60158582D01*
X51111025Y-60095975D01*
X51048418Y-60019687D01*
X51001897Y-59932652D01*
X50973249Y-59838213D01*
X50963576Y-59740000D01*
X50973249Y-59641787D01*
X51001897Y-59547348D01*
X51048418Y-59460313D01*
X51111025Y-59384025D01*
X51187313Y-59321418D01*
X51274348Y-59274897D01*
X51368787Y-59246249D01*
X51442388Y-59239000D01*
X52291612Y-59239000D01*
X52365213Y-59246249D01*
G37*
G36*
X104365000Y-59116000D02*
G01*
X103363000Y-59116000D01*
X103363000Y-58214000D01*
X104365000Y-58214000D01*
X104365000Y-59116000D01*
G37*
G36*
X93453499Y-57955445D02*
G01*
X93490995Y-57966820D01*
X93525554Y-57985292D01*
X93555847Y-58010153D01*
X93580708Y-58040446D01*
X93599180Y-58075005D01*
X93610555Y-58112501D01*
X93615000Y-58157638D01*
X93615000Y-58796362D01*
X93610555Y-58841499D01*
X93599180Y-58878995D01*
X93580708Y-58913554D01*
X93555847Y-58943847D01*
X93525554Y-58968708D01*
X93490995Y-58987180D01*
X93453499Y-58998555D01*
X93408362Y-59003000D01*
X92669638Y-59003000D01*
X92624501Y-58998555D01*
X92587005Y-58987180D01*
X92552446Y-58968708D01*
X92522153Y-58943847D01*
X92497292Y-58913554D01*
X92478820Y-58878995D01*
X92467445Y-58841499D01*
X92463000Y-58796362D01*
X92463000Y-58157638D01*
X92467445Y-58112501D01*
X92478820Y-58075005D01*
X92497292Y-58040446D01*
X92522153Y-58010153D01*
X92552446Y-57985292D01*
X92587005Y-57966820D01*
X92624501Y-57955445D01*
X92669638Y-57951000D01*
X93408362Y-57951000D01*
X93453499Y-57955445D01*
G37*
G36*
X91703499Y-57955445D02*
G01*
X91740995Y-57966820D01*
X91775554Y-57985292D01*
X91805847Y-58010153D01*
X91830708Y-58040446D01*
X91849180Y-58075005D01*
X91860555Y-58112501D01*
X91865000Y-58157638D01*
X91865000Y-58796362D01*
X91860555Y-58841499D01*
X91849180Y-58878995D01*
X91830708Y-58913554D01*
X91805847Y-58943847D01*
X91775554Y-58968708D01*
X91740995Y-58987180D01*
X91703499Y-58998555D01*
X91658362Y-59003000D01*
X90919638Y-59003000D01*
X90874501Y-58998555D01*
X90837005Y-58987180D01*
X90802446Y-58968708D01*
X90772153Y-58943847D01*
X90747292Y-58913554D01*
X90728820Y-58878995D01*
X90717445Y-58841499D01*
X90713000Y-58796362D01*
X90713000Y-58157638D01*
X90717445Y-58112501D01*
X90728820Y-58075005D01*
X90747292Y-58040446D01*
X90772153Y-58010153D01*
X90802446Y-57985292D01*
X90837005Y-57966820D01*
X90874501Y-57955445D01*
X90919638Y-57951000D01*
X91658362Y-57951000D01*
X91703499Y-57955445D01*
G37*
G36*
X66245000Y-58792000D02*
G01*
X65083000Y-58792000D01*
X65083000Y-58040000D01*
X66245000Y-58040000D01*
X66245000Y-58792000D01*
G37*
G36*
X106365000Y-58166000D02*
G01*
X105363000Y-58166000D01*
X105363000Y-57264000D01*
X106365000Y-57264000D01*
X106365000Y-58166000D01*
G37*
G36*
X64305000Y-57778000D02*
G01*
X63103000Y-57778000D01*
X63103000Y-56176000D01*
X64305000Y-56176000D01*
X64305000Y-57778000D01*
G37*
G36*
X62805000Y-57778000D02*
G01*
X61603000Y-57778000D01*
X61603000Y-56176000D01*
X62805000Y-56176000D01*
X62805000Y-57778000D01*
G37*
G36*
X67799499Y-56177445D02*
G01*
X67836995Y-56188820D01*
X67871554Y-56207292D01*
X67901847Y-56232153D01*
X67926708Y-56262446D01*
X67945180Y-56297005D01*
X67956555Y-56334501D01*
X67961000Y-56379638D01*
X67961000Y-57018362D01*
X67956555Y-57063499D01*
X67945180Y-57100995D01*
X67926708Y-57135554D01*
X67901847Y-57165847D01*
X67871554Y-57190708D01*
X67836995Y-57209180D01*
X67799499Y-57220555D01*
X67754362Y-57225000D01*
X67015638Y-57225000D01*
X66970501Y-57220555D01*
X66933005Y-57209180D01*
X66898446Y-57190708D01*
X66868153Y-57165847D01*
X66843292Y-57135554D01*
X66824820Y-57100995D01*
X66813445Y-57063499D01*
X66809000Y-57018362D01*
X66809000Y-56379638D01*
X66813445Y-56334501D01*
X66824820Y-56297005D01*
X66843292Y-56262446D01*
X66868153Y-56232153D01*
X66898446Y-56207292D01*
X66933005Y-56188820D01*
X66970501Y-56177445D01*
X67015638Y-56173000D01*
X67754362Y-56173000D01*
X67799499Y-56177445D01*
G37*
G36*
X66049499Y-56177445D02*
G01*
X66086995Y-56188820D01*
X66121554Y-56207292D01*
X66151847Y-56232153D01*
X66176708Y-56262446D01*
X66195180Y-56297005D01*
X66206555Y-56334501D01*
X66211000Y-56379638D01*
X66211000Y-57018362D01*
X66206555Y-57063499D01*
X66195180Y-57100995D01*
X66176708Y-57135554D01*
X66151847Y-57165847D01*
X66121554Y-57190708D01*
X66086995Y-57209180D01*
X66049499Y-57220555D01*
X66004362Y-57225000D01*
X65265638Y-57225000D01*
X65220501Y-57220555D01*
X65183005Y-57209180D01*
X65148446Y-57190708D01*
X65118153Y-57165847D01*
X65093292Y-57135554D01*
X65074820Y-57100995D01*
X65063445Y-57063499D01*
X65059000Y-57018362D01*
X65059000Y-56379638D01*
X65063445Y-56334501D01*
X65074820Y-56297005D01*
X65093292Y-56262446D01*
X65118153Y-56232153D01*
X65148446Y-56207292D01*
X65183005Y-56188820D01*
X65220501Y-56177445D01*
X65265638Y-56173000D01*
X66004362Y-56173000D01*
X66049499Y-56177445D01*
G37*
G36*
X104365000Y-57216000D02*
G01*
X103363000Y-57216000D01*
X103363000Y-56314000D01*
X104365000Y-56314000D01*
X104365000Y-57216000D01*
G37*
G36*
X54104780Y-49459566D02*
G01*
X54404237Y-49519131D01*
X54968401Y-49752815D01*
X55476135Y-50092072D01*
X55907928Y-50523865D01*
X56247185Y-51031599D01*
X56480869Y-51595763D01*
X56540435Y-51895220D01*
X56600000Y-52194675D01*
X56600000Y-52805325D01*
X56574479Y-52933625D01*
X56480869Y-53404237D01*
X56247185Y-53968401D01*
X55907928Y-54476135D01*
X55476135Y-54907928D01*
X54968401Y-55247185D01*
X54404237Y-55480869D01*
X54104780Y-55540434D01*
X53805325Y-55600000D01*
X53194675Y-55600000D01*
X52895220Y-55540434D01*
X52595763Y-55480869D01*
X52031599Y-55247185D01*
X51523865Y-54907928D01*
X51092072Y-54476135D01*
X50752815Y-53968401D01*
X50519131Y-53404237D01*
X50425521Y-52933625D01*
X50400000Y-52805325D01*
X50400000Y-52194675D01*
X50459565Y-51895220D01*
X50519131Y-51595763D01*
X50752815Y-51031599D01*
X51092072Y-50523865D01*
X51523865Y-50092072D01*
X52031599Y-49752815D01*
X52595763Y-49519131D01*
X52895220Y-49459566D01*
X53194675Y-49400000D01*
X53805325Y-49400000D01*
X54104780Y-49459566D01*
G37*
G36*
X112204780Y-49459566D02*
G01*
X112504237Y-49519131D01*
X113068401Y-49752815D01*
X113576135Y-50092072D01*
X114007928Y-50523865D01*
X114347185Y-51031599D01*
X114580869Y-51595763D01*
X114640434Y-51895220D01*
X114700000Y-52194675D01*
X114700000Y-52805325D01*
X114674479Y-52933625D01*
X114580869Y-53404237D01*
X114347185Y-53968401D01*
X114007928Y-54476135D01*
X113576135Y-54907928D01*
X113068401Y-55247185D01*
X112504237Y-55480869D01*
X112204780Y-55540434D01*
X111905325Y-55600000D01*
X111294675Y-55600000D01*
X110995220Y-55540434D01*
X110695763Y-55480869D01*
X110131599Y-55247185D01*
X109623865Y-54907928D01*
X109192072Y-54476135D01*
X108852815Y-53968401D01*
X108619131Y-53404237D01*
X108525521Y-52933625D01*
X108500000Y-52805325D01*
X108500000Y-52194675D01*
X108559566Y-51895220D01*
X108619131Y-51595763D01*
X108852815Y-51031599D01*
X109192072Y-50523865D01*
X109623865Y-50092072D01*
X110131599Y-49752815D01*
X110695763Y-49519131D01*
X110995220Y-49459566D01*
X111294675Y-49400000D01*
X111905325Y-49400000D01*
X112204780Y-49459566D01*
G37*
G36*
X94073512Y-52903927D02*
G01*
X94222812Y-52933624D01*
X94386784Y-53001544D01*
X94534354Y-53100147D01*
X94659853Y-53225646D01*
X94758456Y-53373216D01*
X94826376Y-53537188D01*
X94861000Y-53711259D01*
X94861000Y-53888741D01*
X94826376Y-54062812D01*
X94758456Y-54226784D01*
X94659853Y-54374354D01*
X94534354Y-54499853D01*
X94386784Y-54598456D01*
X94222812Y-54666376D01*
X94073512Y-54696073D01*
X94048742Y-54701000D01*
X93871258Y-54701000D01*
X93846488Y-54696073D01*
X93697188Y-54666376D01*
X93533216Y-54598456D01*
X93385646Y-54499853D01*
X93260147Y-54374354D01*
X93161544Y-54226784D01*
X93093624Y-54062812D01*
X93059000Y-53888741D01*
X93059000Y-53711259D01*
X93093624Y-53537188D01*
X93161544Y-53373216D01*
X93260147Y-53225646D01*
X93385646Y-53100147D01*
X93533216Y-53001544D01*
X93697188Y-52933624D01*
X93846488Y-52903927D01*
X93871258Y-52899000D01*
X94048742Y-52899000D01*
X94073512Y-52903927D01*
G37*
G36*
X106773512Y-52903927D02*
G01*
X106922812Y-52933624D01*
X107086784Y-53001544D01*
X107234354Y-53100147D01*
X107359853Y-53225646D01*
X107458456Y-53373216D01*
X107526376Y-53537188D01*
X107561000Y-53711259D01*
X107561000Y-53888741D01*
X107526376Y-54062812D01*
X107458456Y-54226784D01*
X107359853Y-54374354D01*
X107234354Y-54499853D01*
X107086784Y-54598456D01*
X106922812Y-54666376D01*
X106773512Y-54696073D01*
X106748742Y-54701000D01*
X106571258Y-54701000D01*
X106546488Y-54696073D01*
X106397188Y-54666376D01*
X106233216Y-54598456D01*
X106085646Y-54499853D01*
X105960147Y-54374354D01*
X105861544Y-54226784D01*
X105793624Y-54062812D01*
X105759000Y-53888741D01*
X105759000Y-53711259D01*
X105793624Y-53537188D01*
X105861544Y-53373216D01*
X105960147Y-53225646D01*
X106085646Y-53100147D01*
X106233216Y-53001544D01*
X106397188Y-52933624D01*
X106546488Y-52903927D01*
X106571258Y-52899000D01*
X106748742Y-52899000D01*
X106773512Y-52903927D01*
G37*
G36*
X104233512Y-52903927D02*
G01*
X104382812Y-52933624D01*
X104546784Y-53001544D01*
X104694354Y-53100147D01*
X104819853Y-53225646D01*
X104918456Y-53373216D01*
X104986376Y-53537188D01*
X105021000Y-53711259D01*
X105021000Y-53888741D01*
X104986376Y-54062812D01*
X104918456Y-54226784D01*
X104819853Y-54374354D01*
X104694354Y-54499853D01*
X104546784Y-54598456D01*
X104382812Y-54666376D01*
X104233512Y-54696073D01*
X104208742Y-54701000D01*
X104031258Y-54701000D01*
X104006488Y-54696073D01*
X103857188Y-54666376D01*
X103693216Y-54598456D01*
X103545646Y-54499853D01*
X103420147Y-54374354D01*
X103321544Y-54226784D01*
X103253624Y-54062812D01*
X103219000Y-53888741D01*
X103219000Y-53711259D01*
X103253624Y-53537188D01*
X103321544Y-53373216D01*
X103420147Y-53225646D01*
X103545646Y-53100147D01*
X103693216Y-53001544D01*
X103857188Y-52933624D01*
X104006488Y-52903927D01*
X104031258Y-52899000D01*
X104208742Y-52899000D01*
X104233512Y-52903927D01*
G37*
G36*
X101693512Y-52903927D02*
G01*
X101842812Y-52933624D01*
X102006784Y-53001544D01*
X102154354Y-53100147D01*
X102279853Y-53225646D01*
X102378456Y-53373216D01*
X102446376Y-53537188D01*
X102481000Y-53711259D01*
X102481000Y-53888741D01*
X102446376Y-54062812D01*
X102378456Y-54226784D01*
X102279853Y-54374354D01*
X102154354Y-54499853D01*
X102006784Y-54598456D01*
X101842812Y-54666376D01*
X101693512Y-54696073D01*
X101668742Y-54701000D01*
X101491258Y-54701000D01*
X101466488Y-54696073D01*
X101317188Y-54666376D01*
X101153216Y-54598456D01*
X101005646Y-54499853D01*
X100880147Y-54374354D01*
X100781544Y-54226784D01*
X100713624Y-54062812D01*
X100679000Y-53888741D01*
X100679000Y-53711259D01*
X100713624Y-53537188D01*
X100781544Y-53373216D01*
X100880147Y-53225646D01*
X101005646Y-53100147D01*
X101153216Y-53001544D01*
X101317188Y-52933624D01*
X101466488Y-52903927D01*
X101491258Y-52899000D01*
X101668742Y-52899000D01*
X101693512Y-52903927D01*
G37*
G36*
X99153512Y-52903927D02*
G01*
X99302812Y-52933624D01*
X99466784Y-53001544D01*
X99614354Y-53100147D01*
X99739853Y-53225646D01*
X99838456Y-53373216D01*
X99906376Y-53537188D01*
X99941000Y-53711259D01*
X99941000Y-53888741D01*
X99906376Y-54062812D01*
X99838456Y-54226784D01*
X99739853Y-54374354D01*
X99614354Y-54499853D01*
X99466784Y-54598456D01*
X99302812Y-54666376D01*
X99153512Y-54696073D01*
X99128742Y-54701000D01*
X98951258Y-54701000D01*
X98926488Y-54696073D01*
X98777188Y-54666376D01*
X98613216Y-54598456D01*
X98465646Y-54499853D01*
X98340147Y-54374354D01*
X98241544Y-54226784D01*
X98173624Y-54062812D01*
X98139000Y-53888741D01*
X98139000Y-53711259D01*
X98173624Y-53537188D01*
X98241544Y-53373216D01*
X98340147Y-53225646D01*
X98465646Y-53100147D01*
X98613216Y-53001544D01*
X98777188Y-52933624D01*
X98926488Y-52903927D01*
X98951258Y-52899000D01*
X99128742Y-52899000D01*
X99153512Y-52903927D01*
G37*
G36*
X96613512Y-52903927D02*
G01*
X96762812Y-52933624D01*
X96926784Y-53001544D01*
X97074354Y-53100147D01*
X97199853Y-53225646D01*
X97298456Y-53373216D01*
X97366376Y-53537188D01*
X97401000Y-53711259D01*
X97401000Y-53888741D01*
X97366376Y-54062812D01*
X97298456Y-54226784D01*
X97199853Y-54374354D01*
X97074354Y-54499853D01*
X96926784Y-54598456D01*
X96762812Y-54666376D01*
X96613512Y-54696073D01*
X96588742Y-54701000D01*
X96411258Y-54701000D01*
X96386488Y-54696073D01*
X96237188Y-54666376D01*
X96073216Y-54598456D01*
X95925646Y-54499853D01*
X95800147Y-54374354D01*
X95701544Y-54226784D01*
X95633624Y-54062812D01*
X95599000Y-53888741D01*
X95599000Y-53711259D01*
X95633624Y-53537188D01*
X95701544Y-53373216D01*
X95800147Y-53225646D01*
X95925646Y-53100147D01*
X96073216Y-53001544D01*
X96237188Y-52933624D01*
X96386488Y-52903927D01*
X96411258Y-52899000D01*
X96588742Y-52899000D01*
X96613512Y-52903927D01*
G37*
G36*
X91533512Y-52903927D02*
G01*
X91682812Y-52933624D01*
X91846784Y-53001544D01*
X91994354Y-53100147D01*
X92119853Y-53225646D01*
X92218456Y-53373216D01*
X92286376Y-53537188D01*
X92321000Y-53711259D01*
X92321000Y-53888741D01*
X92286376Y-54062812D01*
X92218456Y-54226784D01*
X92119853Y-54374354D01*
X91994354Y-54499853D01*
X91846784Y-54598456D01*
X91682812Y-54666376D01*
X91533512Y-54696073D01*
X91508742Y-54701000D01*
X91331258Y-54701000D01*
X91306488Y-54696073D01*
X91157188Y-54666376D01*
X90993216Y-54598456D01*
X90845646Y-54499853D01*
X90720147Y-54374354D01*
X90621544Y-54226784D01*
X90553624Y-54062812D01*
X90519000Y-53888741D01*
X90519000Y-53711259D01*
X90553624Y-53537188D01*
X90621544Y-53373216D01*
X90720147Y-53225646D01*
X90845646Y-53100147D01*
X90993216Y-53001544D01*
X91157188Y-52933624D01*
X91306488Y-52903927D01*
X91331258Y-52899000D01*
X91508742Y-52899000D01*
X91533512Y-52903927D01*
G37*
G36*
X88993512Y-52903927D02*
G01*
X89142812Y-52933624D01*
X89306784Y-53001544D01*
X89454354Y-53100147D01*
X89579853Y-53225646D01*
X89678456Y-53373216D01*
X89746376Y-53537188D01*
X89781000Y-53711259D01*
X89781000Y-53888741D01*
X89746376Y-54062812D01*
X89678456Y-54226784D01*
X89579853Y-54374354D01*
X89454354Y-54499853D01*
X89306784Y-54598456D01*
X89142812Y-54666376D01*
X88993512Y-54696073D01*
X88968742Y-54701000D01*
X88791258Y-54701000D01*
X88766488Y-54696073D01*
X88617188Y-54666376D01*
X88453216Y-54598456D01*
X88305646Y-54499853D01*
X88180147Y-54374354D01*
X88081544Y-54226784D01*
X88013624Y-54062812D01*
X87979000Y-53888741D01*
X87979000Y-53711259D01*
X88013624Y-53537188D01*
X88081544Y-53373216D01*
X88180147Y-53225646D01*
X88305646Y-53100147D01*
X88453216Y-53001544D01*
X88617188Y-52933624D01*
X88766488Y-52903927D01*
X88791258Y-52899000D01*
X88968742Y-52899000D01*
X88993512Y-52903927D01*
G37*
G36*
X86453512Y-52903927D02*
G01*
X86602812Y-52933624D01*
X86766784Y-53001544D01*
X86914354Y-53100147D01*
X87039853Y-53225646D01*
X87138456Y-53373216D01*
X87206376Y-53537188D01*
X87241000Y-53711259D01*
X87241000Y-53888741D01*
X87206376Y-54062812D01*
X87138456Y-54226784D01*
X87039853Y-54374354D01*
X86914354Y-54499853D01*
X86766784Y-54598456D01*
X86602812Y-54666376D01*
X86453512Y-54696073D01*
X86428742Y-54701000D01*
X86251258Y-54701000D01*
X86226488Y-54696073D01*
X86077188Y-54666376D01*
X85913216Y-54598456D01*
X85765646Y-54499853D01*
X85640147Y-54374354D01*
X85541544Y-54226784D01*
X85473624Y-54062812D01*
X85439000Y-53888741D01*
X85439000Y-53711259D01*
X85473624Y-53537188D01*
X85541544Y-53373216D01*
X85640147Y-53225646D01*
X85765646Y-53100147D01*
X85913216Y-53001544D01*
X86077188Y-52933624D01*
X86226488Y-52903927D01*
X86251258Y-52899000D01*
X86428742Y-52899000D01*
X86453512Y-52903927D01*
G37*
G36*
X83913512Y-52903927D02*
G01*
X84062812Y-52933624D01*
X84226784Y-53001544D01*
X84374354Y-53100147D01*
X84499853Y-53225646D01*
X84598456Y-53373216D01*
X84666376Y-53537188D01*
X84701000Y-53711259D01*
X84701000Y-53888741D01*
X84666376Y-54062812D01*
X84598456Y-54226784D01*
X84499853Y-54374354D01*
X84374354Y-54499853D01*
X84226784Y-54598456D01*
X84062812Y-54666376D01*
X83913512Y-54696073D01*
X83888742Y-54701000D01*
X83711258Y-54701000D01*
X83686488Y-54696073D01*
X83537188Y-54666376D01*
X83373216Y-54598456D01*
X83225646Y-54499853D01*
X83100147Y-54374354D01*
X83001544Y-54226784D01*
X82933624Y-54062812D01*
X82899000Y-53888741D01*
X82899000Y-53711259D01*
X82933624Y-53537188D01*
X83001544Y-53373216D01*
X83100147Y-53225646D01*
X83225646Y-53100147D01*
X83373216Y-53001544D01*
X83537188Y-52933624D01*
X83686488Y-52903927D01*
X83711258Y-52899000D01*
X83888742Y-52899000D01*
X83913512Y-52903927D01*
G37*
G36*
X78833512Y-52903927D02*
G01*
X78982812Y-52933624D01*
X79146784Y-53001544D01*
X79294354Y-53100147D01*
X79419853Y-53225646D01*
X79518456Y-53373216D01*
X79586376Y-53537188D01*
X79621000Y-53711259D01*
X79621000Y-53888741D01*
X79586376Y-54062812D01*
X79518456Y-54226784D01*
X79419853Y-54374354D01*
X79294354Y-54499853D01*
X79146784Y-54598456D01*
X78982812Y-54666376D01*
X78833512Y-54696073D01*
X78808742Y-54701000D01*
X78631258Y-54701000D01*
X78606488Y-54696073D01*
X78457188Y-54666376D01*
X78293216Y-54598456D01*
X78145646Y-54499853D01*
X78020147Y-54374354D01*
X77921544Y-54226784D01*
X77853624Y-54062812D01*
X77819000Y-53888741D01*
X77819000Y-53711259D01*
X77853624Y-53537188D01*
X77921544Y-53373216D01*
X78020147Y-53225646D01*
X78145646Y-53100147D01*
X78293216Y-53001544D01*
X78457188Y-52933624D01*
X78606488Y-52903927D01*
X78631258Y-52899000D01*
X78808742Y-52899000D01*
X78833512Y-52903927D01*
G37*
G36*
X81373512Y-52903927D02*
G01*
X81522812Y-52933624D01*
X81686784Y-53001544D01*
X81834354Y-53100147D01*
X81959853Y-53225646D01*
X82058456Y-53373216D01*
X82126376Y-53537188D01*
X82161000Y-53711259D01*
X82161000Y-53888741D01*
X82126376Y-54062812D01*
X82058456Y-54226784D01*
X81959853Y-54374354D01*
X81834354Y-54499853D01*
X81686784Y-54598456D01*
X81522812Y-54666376D01*
X81373512Y-54696073D01*
X81348742Y-54701000D01*
X81171258Y-54701000D01*
X81146488Y-54696073D01*
X80997188Y-54666376D01*
X80833216Y-54598456D01*
X80685646Y-54499853D01*
X80560147Y-54374354D01*
X80461544Y-54226784D01*
X80393624Y-54062812D01*
X80359000Y-53888741D01*
X80359000Y-53711259D01*
X80393624Y-53537188D01*
X80461544Y-53373216D01*
X80560147Y-53225646D01*
X80685646Y-53100147D01*
X80833216Y-53001544D01*
X80997188Y-52933624D01*
X81146488Y-52903927D01*
X81171258Y-52899000D01*
X81348742Y-52899000D01*
X81373512Y-52903927D01*
G37*
G36*
X61053512Y-52903927D02*
G01*
X61202812Y-52933624D01*
X61366784Y-53001544D01*
X61514354Y-53100147D01*
X61639853Y-53225646D01*
X61738456Y-53373216D01*
X61806376Y-53537188D01*
X61841000Y-53711259D01*
X61841000Y-53888741D01*
X61806376Y-54062812D01*
X61738456Y-54226784D01*
X61639853Y-54374354D01*
X61514354Y-54499853D01*
X61366784Y-54598456D01*
X61202812Y-54666376D01*
X61053512Y-54696073D01*
X61028742Y-54701000D01*
X60851258Y-54701000D01*
X60826488Y-54696073D01*
X60677188Y-54666376D01*
X60513216Y-54598456D01*
X60365646Y-54499853D01*
X60240147Y-54374354D01*
X60141544Y-54226784D01*
X60073624Y-54062812D01*
X60039000Y-53888741D01*
X60039000Y-53711259D01*
X60073624Y-53537188D01*
X60141544Y-53373216D01*
X60240147Y-53225646D01*
X60365646Y-53100147D01*
X60513216Y-53001544D01*
X60677188Y-52933624D01*
X60826488Y-52903927D01*
X60851258Y-52899000D01*
X61028742Y-52899000D01*
X61053512Y-52903927D01*
G37*
G36*
X63593512Y-52903927D02*
G01*
X63742812Y-52933624D01*
X63906784Y-53001544D01*
X64054354Y-53100147D01*
X64179853Y-53225646D01*
X64278456Y-53373216D01*
X64346376Y-53537188D01*
X64381000Y-53711259D01*
X64381000Y-53888741D01*
X64346376Y-54062812D01*
X64278456Y-54226784D01*
X64179853Y-54374354D01*
X64054354Y-54499853D01*
X63906784Y-54598456D01*
X63742812Y-54666376D01*
X63593512Y-54696073D01*
X63568742Y-54701000D01*
X63391258Y-54701000D01*
X63366488Y-54696073D01*
X63217188Y-54666376D01*
X63053216Y-54598456D01*
X62905646Y-54499853D01*
X62780147Y-54374354D01*
X62681544Y-54226784D01*
X62613624Y-54062812D01*
X62579000Y-53888741D01*
X62579000Y-53711259D01*
X62613624Y-53537188D01*
X62681544Y-53373216D01*
X62780147Y-53225646D01*
X62905646Y-53100147D01*
X63053216Y-53001544D01*
X63217188Y-52933624D01*
X63366488Y-52903927D01*
X63391258Y-52899000D01*
X63568742Y-52899000D01*
X63593512Y-52903927D01*
G37*
G36*
X66133512Y-52903927D02*
G01*
X66282812Y-52933624D01*
X66446784Y-53001544D01*
X66594354Y-53100147D01*
X66719853Y-53225646D01*
X66818456Y-53373216D01*
X66886376Y-53537188D01*
X66921000Y-53711259D01*
X66921000Y-53888741D01*
X66886376Y-54062812D01*
X66818456Y-54226784D01*
X66719853Y-54374354D01*
X66594354Y-54499853D01*
X66446784Y-54598456D01*
X66282812Y-54666376D01*
X66133512Y-54696073D01*
X66108742Y-54701000D01*
X65931258Y-54701000D01*
X65906488Y-54696073D01*
X65757188Y-54666376D01*
X65593216Y-54598456D01*
X65445646Y-54499853D01*
X65320147Y-54374354D01*
X65221544Y-54226784D01*
X65153624Y-54062812D01*
X65119000Y-53888741D01*
X65119000Y-53711259D01*
X65153624Y-53537188D01*
X65221544Y-53373216D01*
X65320147Y-53225646D01*
X65445646Y-53100147D01*
X65593216Y-53001544D01*
X65757188Y-52933624D01*
X65906488Y-52903927D01*
X65931258Y-52899000D01*
X66108742Y-52899000D01*
X66133512Y-52903927D01*
G37*
G36*
X59301000Y-54701000D02*
G01*
X57499000Y-54701000D01*
X57499000Y-52899000D01*
X59301000Y-52899000D01*
X59301000Y-54701000D01*
G37*
G36*
X68673512Y-52903927D02*
G01*
X68822812Y-52933624D01*
X68986784Y-53001544D01*
X69134354Y-53100147D01*
X69259853Y-53225646D01*
X69358456Y-53373216D01*
X69426376Y-53537188D01*
X69461000Y-53711259D01*
X69461000Y-53888741D01*
X69426376Y-54062812D01*
X69358456Y-54226784D01*
X69259853Y-54374354D01*
X69134354Y-54499853D01*
X68986784Y-54598456D01*
X68822812Y-54666376D01*
X68673512Y-54696073D01*
X68648742Y-54701000D01*
X68471258Y-54701000D01*
X68446488Y-54696073D01*
X68297188Y-54666376D01*
X68133216Y-54598456D01*
X67985646Y-54499853D01*
X67860147Y-54374354D01*
X67761544Y-54226784D01*
X67693624Y-54062812D01*
X67659000Y-53888741D01*
X67659000Y-53711259D01*
X67693624Y-53537188D01*
X67761544Y-53373216D01*
X67860147Y-53225646D01*
X67985646Y-53100147D01*
X68133216Y-53001544D01*
X68297188Y-52933624D01*
X68446488Y-52903927D01*
X68471258Y-52899000D01*
X68648742Y-52899000D01*
X68673512Y-52903927D01*
G37*
G36*
X71213512Y-52903927D02*
G01*
X71362812Y-52933624D01*
X71526784Y-53001544D01*
X71674354Y-53100147D01*
X71799853Y-53225646D01*
X71898456Y-53373216D01*
X71966376Y-53537188D01*
X72001000Y-53711259D01*
X72001000Y-53888741D01*
X71966376Y-54062812D01*
X71898456Y-54226784D01*
X71799853Y-54374354D01*
X71674354Y-54499853D01*
X71526784Y-54598456D01*
X71362812Y-54666376D01*
X71213512Y-54696073D01*
X71188742Y-54701000D01*
X71011258Y-54701000D01*
X70986488Y-54696073D01*
X70837188Y-54666376D01*
X70673216Y-54598456D01*
X70525646Y-54499853D01*
X70400147Y-54374354D01*
X70301544Y-54226784D01*
X70233624Y-54062812D01*
X70199000Y-53888741D01*
X70199000Y-53711259D01*
X70233624Y-53537188D01*
X70301544Y-53373216D01*
X70400147Y-53225646D01*
X70525646Y-53100147D01*
X70673216Y-53001544D01*
X70837188Y-52933624D01*
X70986488Y-52903927D01*
X71011258Y-52899000D01*
X71188742Y-52899000D01*
X71213512Y-52903927D01*
G37*
G36*
X73753512Y-52903927D02*
G01*
X73902812Y-52933624D01*
X74066784Y-53001544D01*
X74214354Y-53100147D01*
X74339853Y-53225646D01*
X74438456Y-53373216D01*
X74506376Y-53537188D01*
X74541000Y-53711259D01*
X74541000Y-53888741D01*
X74506376Y-54062812D01*
X74438456Y-54226784D01*
X74339853Y-54374354D01*
X74214354Y-54499853D01*
X74066784Y-54598456D01*
X73902812Y-54666376D01*
X73753512Y-54696073D01*
X73728742Y-54701000D01*
X73551258Y-54701000D01*
X73526488Y-54696073D01*
X73377188Y-54666376D01*
X73213216Y-54598456D01*
X73065646Y-54499853D01*
X72940147Y-54374354D01*
X72841544Y-54226784D01*
X72773624Y-54062812D01*
X72739000Y-53888741D01*
X72739000Y-53711259D01*
X72773624Y-53537188D01*
X72841544Y-53373216D01*
X72940147Y-53225646D01*
X73065646Y-53100147D01*
X73213216Y-53001544D01*
X73377188Y-52933624D01*
X73526488Y-52903927D01*
X73551258Y-52899000D01*
X73728742Y-52899000D01*
X73753512Y-52903927D01*
G37*
G36*
X76293512Y-52903927D02*
G01*
X76442812Y-52933624D01*
X76606784Y-53001544D01*
X76754354Y-53100147D01*
X76879853Y-53225646D01*
X76978456Y-53373216D01*
X77046376Y-53537188D01*
X77081000Y-53711259D01*
X77081000Y-53888741D01*
X77046376Y-54062812D01*
X76978456Y-54226784D01*
X76879853Y-54374354D01*
X76754354Y-54499853D01*
X76606784Y-54598456D01*
X76442812Y-54666376D01*
X76293512Y-54696073D01*
X76268742Y-54701000D01*
X76091258Y-54701000D01*
X76066488Y-54696073D01*
X75917188Y-54666376D01*
X75753216Y-54598456D01*
X75605646Y-54499853D01*
X75480147Y-54374354D01*
X75381544Y-54226784D01*
X75313624Y-54062812D01*
X75279000Y-53888741D01*
X75279000Y-53711259D01*
X75313624Y-53537188D01*
X75381544Y-53373216D01*
X75480147Y-53225646D01*
X75605646Y-53100147D01*
X75753216Y-53001544D01*
X75917188Y-52933624D01*
X76066488Y-52903927D01*
X76091258Y-52899000D01*
X76268742Y-52899000D01*
X76293512Y-52903927D01*
G37*
G36*
X86453512Y-50363927D02*
G01*
X86602812Y-50393624D01*
X86766784Y-50461544D01*
X86914354Y-50560147D01*
X87039853Y-50685646D01*
X87138456Y-50833216D01*
X87206376Y-50997188D01*
X87241000Y-51171259D01*
X87241000Y-51348741D01*
X87206376Y-51522812D01*
X87138456Y-51686784D01*
X87039853Y-51834354D01*
X86914354Y-51959853D01*
X86766784Y-52058456D01*
X86602812Y-52126376D01*
X86453512Y-52156073D01*
X86428742Y-52161000D01*
X86251258Y-52161000D01*
X86226488Y-52156073D01*
X86077188Y-52126376D01*
X85913216Y-52058456D01*
X85765646Y-51959853D01*
X85640147Y-51834354D01*
X85541544Y-51686784D01*
X85473624Y-51522812D01*
X85439000Y-51348741D01*
X85439000Y-51171259D01*
X85473624Y-50997188D01*
X85541544Y-50833216D01*
X85640147Y-50685646D01*
X85765646Y-50560147D01*
X85913216Y-50461544D01*
X86077188Y-50393624D01*
X86226488Y-50363927D01*
X86251258Y-50359000D01*
X86428742Y-50359000D01*
X86453512Y-50363927D01*
G37*
G36*
X88993512Y-50363927D02*
G01*
X89142812Y-50393624D01*
X89306784Y-50461544D01*
X89454354Y-50560147D01*
X89579853Y-50685646D01*
X89678456Y-50833216D01*
X89746376Y-50997188D01*
X89781000Y-51171259D01*
X89781000Y-51348741D01*
X89746376Y-51522812D01*
X89678456Y-51686784D01*
X89579853Y-51834354D01*
X89454354Y-51959853D01*
X89306784Y-52058456D01*
X89142812Y-52126376D01*
X88993512Y-52156073D01*
X88968742Y-52161000D01*
X88791258Y-52161000D01*
X88766488Y-52156073D01*
X88617188Y-52126376D01*
X88453216Y-52058456D01*
X88305646Y-51959853D01*
X88180147Y-51834354D01*
X88081544Y-51686784D01*
X88013624Y-51522812D01*
X87979000Y-51348741D01*
X87979000Y-51171259D01*
X88013624Y-50997188D01*
X88081544Y-50833216D01*
X88180147Y-50685646D01*
X88305646Y-50560147D01*
X88453216Y-50461544D01*
X88617188Y-50393624D01*
X88766488Y-50363927D01*
X88791258Y-50359000D01*
X88968742Y-50359000D01*
X88993512Y-50363927D01*
G37*
G36*
X91533512Y-50363927D02*
G01*
X91682812Y-50393624D01*
X91846784Y-50461544D01*
X91994354Y-50560147D01*
X92119853Y-50685646D01*
X92218456Y-50833216D01*
X92286376Y-50997188D01*
X92321000Y-51171259D01*
X92321000Y-51348741D01*
X92286376Y-51522812D01*
X92218456Y-51686784D01*
X92119853Y-51834354D01*
X91994354Y-51959853D01*
X91846784Y-52058456D01*
X91682812Y-52126376D01*
X91533512Y-52156073D01*
X91508742Y-52161000D01*
X91331258Y-52161000D01*
X91306488Y-52156073D01*
X91157188Y-52126376D01*
X90993216Y-52058456D01*
X90845646Y-51959853D01*
X90720147Y-51834354D01*
X90621544Y-51686784D01*
X90553624Y-51522812D01*
X90519000Y-51348741D01*
X90519000Y-51171259D01*
X90553624Y-50997188D01*
X90621544Y-50833216D01*
X90720147Y-50685646D01*
X90845646Y-50560147D01*
X90993216Y-50461544D01*
X91157188Y-50393624D01*
X91306488Y-50363927D01*
X91331258Y-50359000D01*
X91508742Y-50359000D01*
X91533512Y-50363927D01*
G37*
G36*
X94073512Y-50363927D02*
G01*
X94222812Y-50393624D01*
X94386784Y-50461544D01*
X94534354Y-50560147D01*
X94659853Y-50685646D01*
X94758456Y-50833216D01*
X94826376Y-50997188D01*
X94861000Y-51171259D01*
X94861000Y-51348741D01*
X94826376Y-51522812D01*
X94758456Y-51686784D01*
X94659853Y-51834354D01*
X94534354Y-51959853D01*
X94386784Y-52058456D01*
X94222812Y-52126376D01*
X94073512Y-52156073D01*
X94048742Y-52161000D01*
X93871258Y-52161000D01*
X93846488Y-52156073D01*
X93697188Y-52126376D01*
X93533216Y-52058456D01*
X93385646Y-51959853D01*
X93260147Y-51834354D01*
X93161544Y-51686784D01*
X93093624Y-51522812D01*
X93059000Y-51348741D01*
X93059000Y-51171259D01*
X93093624Y-50997188D01*
X93161544Y-50833216D01*
X93260147Y-50685646D01*
X93385646Y-50560147D01*
X93533216Y-50461544D01*
X93697188Y-50393624D01*
X93846488Y-50363927D01*
X93871258Y-50359000D01*
X94048742Y-50359000D01*
X94073512Y-50363927D01*
G37*
G36*
X83913512Y-50363927D02*
G01*
X84062812Y-50393624D01*
X84226784Y-50461544D01*
X84374354Y-50560147D01*
X84499853Y-50685646D01*
X84598456Y-50833216D01*
X84666376Y-50997188D01*
X84701000Y-51171259D01*
X84701000Y-51348741D01*
X84666376Y-51522812D01*
X84598456Y-51686784D01*
X84499853Y-51834354D01*
X84374354Y-51959853D01*
X84226784Y-52058456D01*
X84062812Y-52126376D01*
X83913512Y-52156073D01*
X83888742Y-52161000D01*
X83711258Y-52161000D01*
X83686488Y-52156073D01*
X83537188Y-52126376D01*
X83373216Y-52058456D01*
X83225646Y-51959853D01*
X83100147Y-51834354D01*
X83001544Y-51686784D01*
X82933624Y-51522812D01*
X82899000Y-51348741D01*
X82899000Y-51171259D01*
X82933624Y-50997188D01*
X83001544Y-50833216D01*
X83100147Y-50685646D01*
X83225646Y-50560147D01*
X83373216Y-50461544D01*
X83537188Y-50393624D01*
X83686488Y-50363927D01*
X83711258Y-50359000D01*
X83888742Y-50359000D01*
X83913512Y-50363927D01*
G37*
G36*
X99153512Y-50363927D02*
G01*
X99302812Y-50393624D01*
X99466784Y-50461544D01*
X99614354Y-50560147D01*
X99739853Y-50685646D01*
X99838456Y-50833216D01*
X99906376Y-50997188D01*
X99941000Y-51171259D01*
X99941000Y-51348741D01*
X99906376Y-51522812D01*
X99838456Y-51686784D01*
X99739853Y-51834354D01*
X99614354Y-51959853D01*
X99466784Y-52058456D01*
X99302812Y-52126376D01*
X99153512Y-52156073D01*
X99128742Y-52161000D01*
X98951258Y-52161000D01*
X98926488Y-52156073D01*
X98777188Y-52126376D01*
X98613216Y-52058456D01*
X98465646Y-51959853D01*
X98340147Y-51834354D01*
X98241544Y-51686784D01*
X98173624Y-51522812D01*
X98139000Y-51348741D01*
X98139000Y-51171259D01*
X98173624Y-50997188D01*
X98241544Y-50833216D01*
X98340147Y-50685646D01*
X98465646Y-50560147D01*
X98613216Y-50461544D01*
X98777188Y-50393624D01*
X98926488Y-50363927D01*
X98951258Y-50359000D01*
X99128742Y-50359000D01*
X99153512Y-50363927D01*
G37*
G36*
X101693512Y-50363927D02*
G01*
X101842812Y-50393624D01*
X102006784Y-50461544D01*
X102154354Y-50560147D01*
X102279853Y-50685646D01*
X102378456Y-50833216D01*
X102446376Y-50997188D01*
X102481000Y-51171259D01*
X102481000Y-51348741D01*
X102446376Y-51522812D01*
X102378456Y-51686784D01*
X102279853Y-51834354D01*
X102154354Y-51959853D01*
X102006784Y-52058456D01*
X101842812Y-52126376D01*
X101693512Y-52156073D01*
X101668742Y-52161000D01*
X101491258Y-52161000D01*
X101466488Y-52156073D01*
X101317188Y-52126376D01*
X101153216Y-52058456D01*
X101005646Y-51959853D01*
X100880147Y-51834354D01*
X100781544Y-51686784D01*
X100713624Y-51522812D01*
X100679000Y-51348741D01*
X100679000Y-51171259D01*
X100713624Y-50997188D01*
X100781544Y-50833216D01*
X100880147Y-50685646D01*
X101005646Y-50560147D01*
X101153216Y-50461544D01*
X101317188Y-50393624D01*
X101466488Y-50363927D01*
X101491258Y-50359000D01*
X101668742Y-50359000D01*
X101693512Y-50363927D01*
G37*
G36*
X104233512Y-50363927D02*
G01*
X104382812Y-50393624D01*
X104546784Y-50461544D01*
X104694354Y-50560147D01*
X104819853Y-50685646D01*
X104918456Y-50833216D01*
X104986376Y-50997188D01*
X105021000Y-51171259D01*
X105021000Y-51348741D01*
X104986376Y-51522812D01*
X104918456Y-51686784D01*
X104819853Y-51834354D01*
X104694354Y-51959853D01*
X104546784Y-52058456D01*
X104382812Y-52126376D01*
X104233512Y-52156073D01*
X104208742Y-52161000D01*
X104031258Y-52161000D01*
X104006488Y-52156073D01*
X103857188Y-52126376D01*
X103693216Y-52058456D01*
X103545646Y-51959853D01*
X103420147Y-51834354D01*
X103321544Y-51686784D01*
X103253624Y-51522812D01*
X103219000Y-51348741D01*
X103219000Y-51171259D01*
X103253624Y-50997188D01*
X103321544Y-50833216D01*
X103420147Y-50685646D01*
X103545646Y-50560147D01*
X103693216Y-50461544D01*
X103857188Y-50393624D01*
X104006488Y-50363927D01*
X104031258Y-50359000D01*
X104208742Y-50359000D01*
X104233512Y-50363927D01*
G37*
G36*
X106773512Y-50363927D02*
G01*
X106922812Y-50393624D01*
X107086784Y-50461544D01*
X107234354Y-50560147D01*
X107359853Y-50685646D01*
X107458456Y-50833216D01*
X107526376Y-50997188D01*
X107561000Y-51171259D01*
X107561000Y-51348741D01*
X107526376Y-51522812D01*
X107458456Y-51686784D01*
X107359853Y-51834354D01*
X107234354Y-51959853D01*
X107086784Y-52058456D01*
X106922812Y-52126376D01*
X106773512Y-52156073D01*
X106748742Y-52161000D01*
X106571258Y-52161000D01*
X106546488Y-52156073D01*
X106397188Y-52126376D01*
X106233216Y-52058456D01*
X106085646Y-51959853D01*
X105960147Y-51834354D01*
X105861544Y-51686784D01*
X105793624Y-51522812D01*
X105759000Y-51348741D01*
X105759000Y-51171259D01*
X105793624Y-50997188D01*
X105861544Y-50833216D01*
X105960147Y-50685646D01*
X106085646Y-50560147D01*
X106233216Y-50461544D01*
X106397188Y-50393624D01*
X106546488Y-50363927D01*
X106571258Y-50359000D01*
X106748742Y-50359000D01*
X106773512Y-50363927D01*
G37*
G36*
X96613512Y-50363927D02*
G01*
X96762812Y-50393624D01*
X96926784Y-50461544D01*
X97074354Y-50560147D01*
X97199853Y-50685646D01*
X97298456Y-50833216D01*
X97366376Y-50997188D01*
X97401000Y-51171259D01*
X97401000Y-51348741D01*
X97366376Y-51522812D01*
X97298456Y-51686784D01*
X97199853Y-51834354D01*
X97074354Y-51959853D01*
X96926784Y-52058456D01*
X96762812Y-52126376D01*
X96613512Y-52156073D01*
X96588742Y-52161000D01*
X96411258Y-52161000D01*
X96386488Y-52156073D01*
X96237188Y-52126376D01*
X96073216Y-52058456D01*
X95925646Y-51959853D01*
X95800147Y-51834354D01*
X95701544Y-51686784D01*
X95633624Y-51522812D01*
X95599000Y-51348741D01*
X95599000Y-51171259D01*
X95633624Y-50997188D01*
X95701544Y-50833216D01*
X95800147Y-50685646D01*
X95925646Y-50560147D01*
X96073216Y-50461544D01*
X96237188Y-50393624D01*
X96386488Y-50363927D01*
X96411258Y-50359000D01*
X96588742Y-50359000D01*
X96613512Y-50363927D01*
G37*
G36*
X58513512Y-50363927D02*
G01*
X58662812Y-50393624D01*
X58826784Y-50461544D01*
X58974354Y-50560147D01*
X59099853Y-50685646D01*
X59198456Y-50833216D01*
X59266376Y-50997188D01*
X59301000Y-51171259D01*
X59301000Y-51348741D01*
X59266376Y-51522812D01*
X59198456Y-51686784D01*
X59099853Y-51834354D01*
X58974354Y-51959853D01*
X58826784Y-52058456D01*
X58662812Y-52126376D01*
X58513512Y-52156073D01*
X58488742Y-52161000D01*
X58311258Y-52161000D01*
X58286488Y-52156073D01*
X58137188Y-52126376D01*
X57973216Y-52058456D01*
X57825646Y-51959853D01*
X57700147Y-51834354D01*
X57601544Y-51686784D01*
X57533624Y-51522812D01*
X57499000Y-51348741D01*
X57499000Y-51171259D01*
X57533624Y-50997188D01*
X57601544Y-50833216D01*
X57700147Y-50685646D01*
X57825646Y-50560147D01*
X57973216Y-50461544D01*
X58137188Y-50393624D01*
X58286488Y-50363927D01*
X58311258Y-50359000D01*
X58488742Y-50359000D01*
X58513512Y-50363927D01*
G37*
G36*
X61053512Y-50363927D02*
G01*
X61202812Y-50393624D01*
X61366784Y-50461544D01*
X61514354Y-50560147D01*
X61639853Y-50685646D01*
X61738456Y-50833216D01*
X61806376Y-50997188D01*
X61841000Y-51171259D01*
X61841000Y-51348741D01*
X61806376Y-51522812D01*
X61738456Y-51686784D01*
X61639853Y-51834354D01*
X61514354Y-51959853D01*
X61366784Y-52058456D01*
X61202812Y-52126376D01*
X61053512Y-52156073D01*
X61028742Y-52161000D01*
X60851258Y-52161000D01*
X60826488Y-52156073D01*
X60677188Y-52126376D01*
X60513216Y-52058456D01*
X60365646Y-51959853D01*
X60240147Y-51834354D01*
X60141544Y-51686784D01*
X60073624Y-51522812D01*
X60039000Y-51348741D01*
X60039000Y-51171259D01*
X60073624Y-50997188D01*
X60141544Y-50833216D01*
X60240147Y-50685646D01*
X60365646Y-50560147D01*
X60513216Y-50461544D01*
X60677188Y-50393624D01*
X60826488Y-50363927D01*
X60851258Y-50359000D01*
X61028742Y-50359000D01*
X61053512Y-50363927D01*
G37*
G36*
X63593512Y-50363927D02*
G01*
X63742812Y-50393624D01*
X63906784Y-50461544D01*
X64054354Y-50560147D01*
X64179853Y-50685646D01*
X64278456Y-50833216D01*
X64346376Y-50997188D01*
X64381000Y-51171259D01*
X64381000Y-51348741D01*
X64346376Y-51522812D01*
X64278456Y-51686784D01*
X64179853Y-51834354D01*
X64054354Y-51959853D01*
X63906784Y-52058456D01*
X63742812Y-52126376D01*
X63593512Y-52156073D01*
X63568742Y-52161000D01*
X63391258Y-52161000D01*
X63366488Y-52156073D01*
X63217188Y-52126376D01*
X63053216Y-52058456D01*
X62905646Y-51959853D01*
X62780147Y-51834354D01*
X62681544Y-51686784D01*
X62613624Y-51522812D01*
X62579000Y-51348741D01*
X62579000Y-51171259D01*
X62613624Y-50997188D01*
X62681544Y-50833216D01*
X62780147Y-50685646D01*
X62905646Y-50560147D01*
X63053216Y-50461544D01*
X63217188Y-50393624D01*
X63366488Y-50363927D01*
X63391258Y-50359000D01*
X63568742Y-50359000D01*
X63593512Y-50363927D01*
G37*
G36*
X66133512Y-50363927D02*
G01*
X66282812Y-50393624D01*
X66446784Y-50461544D01*
X66594354Y-50560147D01*
X66719853Y-50685646D01*
X66818456Y-50833216D01*
X66886376Y-50997188D01*
X66921000Y-51171259D01*
X66921000Y-51348741D01*
X66886376Y-51522812D01*
X66818456Y-51686784D01*
X66719853Y-51834354D01*
X66594354Y-51959853D01*
X66446784Y-52058456D01*
X66282812Y-52126376D01*
X66133512Y-52156073D01*
X66108742Y-52161000D01*
X65931258Y-52161000D01*
X65906488Y-52156073D01*
X65757188Y-52126376D01*
X65593216Y-52058456D01*
X65445646Y-51959853D01*
X65320147Y-51834354D01*
X65221544Y-51686784D01*
X65153624Y-51522812D01*
X65119000Y-51348741D01*
X65119000Y-51171259D01*
X65153624Y-50997188D01*
X65221544Y-50833216D01*
X65320147Y-50685646D01*
X65445646Y-50560147D01*
X65593216Y-50461544D01*
X65757188Y-50393624D01*
X65906488Y-50363927D01*
X65931258Y-50359000D01*
X66108742Y-50359000D01*
X66133512Y-50363927D01*
G37*
G36*
X68673512Y-50363927D02*
G01*
X68822812Y-50393624D01*
X68986784Y-50461544D01*
X69134354Y-50560147D01*
X69259853Y-50685646D01*
X69358456Y-50833216D01*
X69426376Y-50997188D01*
X69461000Y-51171259D01*
X69461000Y-51348741D01*
X69426376Y-51522812D01*
X69358456Y-51686784D01*
X69259853Y-51834354D01*
X69134354Y-51959853D01*
X68986784Y-52058456D01*
X68822812Y-52126376D01*
X68673512Y-52156073D01*
X68648742Y-52161000D01*
X68471258Y-52161000D01*
X68446488Y-52156073D01*
X68297188Y-52126376D01*
X68133216Y-52058456D01*
X67985646Y-51959853D01*
X67860147Y-51834354D01*
X67761544Y-51686784D01*
X67693624Y-51522812D01*
X67659000Y-51348741D01*
X67659000Y-51171259D01*
X67693624Y-50997188D01*
X67761544Y-50833216D01*
X67860147Y-50685646D01*
X67985646Y-50560147D01*
X68133216Y-50461544D01*
X68297188Y-50393624D01*
X68446488Y-50363927D01*
X68471258Y-50359000D01*
X68648742Y-50359000D01*
X68673512Y-50363927D01*
G37*
G36*
X71213512Y-50363927D02*
G01*
X71362812Y-50393624D01*
X71526784Y-50461544D01*
X71674354Y-50560147D01*
X71799853Y-50685646D01*
X71898456Y-50833216D01*
X71966376Y-50997188D01*
X72001000Y-51171259D01*
X72001000Y-51348741D01*
X71966376Y-51522812D01*
X71898456Y-51686784D01*
X71799853Y-51834354D01*
X71674354Y-51959853D01*
X71526784Y-52058456D01*
X71362812Y-52126376D01*
X71213512Y-52156073D01*
X71188742Y-52161000D01*
X71011258Y-52161000D01*
X70986488Y-52156073D01*
X70837188Y-52126376D01*
X70673216Y-52058456D01*
X70525646Y-51959853D01*
X70400147Y-51834354D01*
X70301544Y-51686784D01*
X70233624Y-51522812D01*
X70199000Y-51348741D01*
X70199000Y-51171259D01*
X70233624Y-50997188D01*
X70301544Y-50833216D01*
X70400147Y-50685646D01*
X70525646Y-50560147D01*
X70673216Y-50461544D01*
X70837188Y-50393624D01*
X70986488Y-50363927D01*
X71011258Y-50359000D01*
X71188742Y-50359000D01*
X71213512Y-50363927D01*
G37*
G36*
X73753512Y-50363927D02*
G01*
X73902812Y-50393624D01*
X74066784Y-50461544D01*
X74214354Y-50560147D01*
X74339853Y-50685646D01*
X74438456Y-50833216D01*
X74506376Y-50997188D01*
X74541000Y-51171259D01*
X74541000Y-51348741D01*
X74506376Y-51522812D01*
X74438456Y-51686784D01*
X74339853Y-51834354D01*
X74214354Y-51959853D01*
X74066784Y-52058456D01*
X73902812Y-52126376D01*
X73753512Y-52156073D01*
X73728742Y-52161000D01*
X73551258Y-52161000D01*
X73526488Y-52156073D01*
X73377188Y-52126376D01*
X73213216Y-52058456D01*
X73065646Y-51959853D01*
X72940147Y-51834354D01*
X72841544Y-51686784D01*
X72773624Y-51522812D01*
X72739000Y-51348741D01*
X72739000Y-51171259D01*
X72773624Y-50997188D01*
X72841544Y-50833216D01*
X72940147Y-50685646D01*
X73065646Y-50560147D01*
X73213216Y-50461544D01*
X73377188Y-50393624D01*
X73526488Y-50363927D01*
X73551258Y-50359000D01*
X73728742Y-50359000D01*
X73753512Y-50363927D01*
G37*
G36*
X76293512Y-50363927D02*
G01*
X76442812Y-50393624D01*
X76606784Y-50461544D01*
X76754354Y-50560147D01*
X76879853Y-50685646D01*
X76978456Y-50833216D01*
X77046376Y-50997188D01*
X77081000Y-51171259D01*
X77081000Y-51348741D01*
X77046376Y-51522812D01*
X76978456Y-51686784D01*
X76879853Y-51834354D01*
X76754354Y-51959853D01*
X76606784Y-52058456D01*
X76442812Y-52126376D01*
X76293512Y-52156073D01*
X76268742Y-52161000D01*
X76091258Y-52161000D01*
X76066488Y-52156073D01*
X75917188Y-52126376D01*
X75753216Y-52058456D01*
X75605646Y-51959853D01*
X75480147Y-51834354D01*
X75381544Y-51686784D01*
X75313624Y-51522812D01*
X75279000Y-51348741D01*
X75279000Y-51171259D01*
X75313624Y-50997188D01*
X75381544Y-50833216D01*
X75480147Y-50685646D01*
X75605646Y-50560147D01*
X75753216Y-50461544D01*
X75917188Y-50393624D01*
X76066488Y-50363927D01*
X76091258Y-50359000D01*
X76268742Y-50359000D01*
X76293512Y-50363927D01*
G37*
G36*
X78833512Y-50363927D02*
G01*
X78982812Y-50393624D01*
X79146784Y-50461544D01*
X79294354Y-50560147D01*
X79419853Y-50685646D01*
X79518456Y-50833216D01*
X79586376Y-50997188D01*
X79621000Y-51171259D01*
X79621000Y-51348741D01*
X79586376Y-51522812D01*
X79518456Y-51686784D01*
X79419853Y-51834354D01*
X79294354Y-51959853D01*
X79146784Y-52058456D01*
X78982812Y-52126376D01*
X78833512Y-52156073D01*
X78808742Y-52161000D01*
X78631258Y-52161000D01*
X78606488Y-52156073D01*
X78457188Y-52126376D01*
X78293216Y-52058456D01*
X78145646Y-51959853D01*
X78020147Y-51834354D01*
X77921544Y-51686784D01*
X77853624Y-51522812D01*
X77819000Y-51348741D01*
X77819000Y-51171259D01*
X77853624Y-50997188D01*
X77921544Y-50833216D01*
X78020147Y-50685646D01*
X78145646Y-50560147D01*
X78293216Y-50461544D01*
X78457188Y-50393624D01*
X78606488Y-50363927D01*
X78631258Y-50359000D01*
X78808742Y-50359000D01*
X78833512Y-50363927D01*
G37*
G36*
X81373512Y-50363927D02*
G01*
X81522812Y-50393624D01*
X81686784Y-50461544D01*
X81834354Y-50560147D01*
X81959853Y-50685646D01*
X82058456Y-50833216D01*
X82126376Y-50997188D01*
X82161000Y-51171259D01*
X82161000Y-51348741D01*
X82126376Y-51522812D01*
X82058456Y-51686784D01*
X81959853Y-51834354D01*
X81834354Y-51959853D01*
X81686784Y-52058456D01*
X81522812Y-52126376D01*
X81373512Y-52156073D01*
X81348742Y-52161000D01*
X81171258Y-52161000D01*
X81146488Y-52156073D01*
X80997188Y-52126376D01*
X80833216Y-52058456D01*
X80685646Y-51959853D01*
X80560147Y-51834354D01*
X80461544Y-51686784D01*
X80393624Y-51522812D01*
X80359000Y-51348741D01*
X80359000Y-51171259D01*
X80393624Y-50997188D01*
X80461544Y-50833216D01*
X80560147Y-50685646D01*
X80685646Y-50560147D01*
X80833216Y-50461544D01*
X80997188Y-50393624D01*
X81146488Y-50363927D01*
X81171258Y-50359000D01*
X81348742Y-50359000D01*
X81373512Y-50363927D01*
G37*
M02*
