G04 #@! TF.GenerationSoftware,KiCad,Pcbnew,(5.1.6)-1*
G04 #@! TF.CreationDate,2020-07-17T13:37:25+03:00*
G04 #@! TF.ProjectId,AstroPiMicro,41737472-6f50-4694-9d69-63726f2e6b69,1.0.8*
G04 #@! TF.SameCoordinates,Original*
G04 #@! TF.FileFunction,Legend,Top*
G04 #@! TF.FilePolarity,Positive*
%FSLAX46Y46*%
G04 Gerber Fmt 4.6, Leading zero omitted, Abs format (unit mm)*
G04 Created by KiCad (PCBNEW (5.1.6)-1) date 2020-07-17 13:37:25*
%MOMM*%
%LPD*%
G01*
G04 APERTURE LIST*
%ADD10C,0.150000*%
%ADD11C,0.100000*%
%ADD12C,0.120000*%
G04 APERTURE END LIST*
D10*
X77530952Y-77035714D02*
X77292857Y-77035714D01*
X77292857Y-75607142D01*
X77530952Y-75607142D01*
X78435714Y-75750000D02*
X78340476Y-75702380D01*
X78197619Y-75702380D01*
X78054761Y-75750000D01*
X77959523Y-75845238D01*
X77911904Y-75940476D01*
X77864285Y-76130952D01*
X77864285Y-76273809D01*
X77911904Y-76464285D01*
X77959523Y-76559523D01*
X78054761Y-76654761D01*
X78197619Y-76702380D01*
X78292857Y-76702380D01*
X78435714Y-76654761D01*
X78483333Y-76607142D01*
X78483333Y-76273809D01*
X78292857Y-76273809D01*
X79292857Y-76654761D02*
X79197619Y-76702380D01*
X79007142Y-76702380D01*
X78911904Y-76654761D01*
X78864285Y-76559523D01*
X78864285Y-76178571D01*
X78911904Y-76083333D01*
X79007142Y-76035714D01*
X79197619Y-76035714D01*
X79292857Y-76083333D01*
X79340476Y-76178571D01*
X79340476Y-76273809D01*
X78864285Y-76369047D01*
X80197619Y-76702380D02*
X80197619Y-76178571D01*
X80150000Y-76083333D01*
X80054761Y-76035714D01*
X79864285Y-76035714D01*
X79769047Y-76083333D01*
X80197619Y-76654761D02*
X80102380Y-76702380D01*
X79864285Y-76702380D01*
X79769047Y-76654761D01*
X79721428Y-76559523D01*
X79721428Y-76464285D01*
X79769047Y-76369047D01*
X79864285Y-76321428D01*
X80102380Y-76321428D01*
X80197619Y-76273809D01*
X80673809Y-76035714D02*
X80673809Y-76702380D01*
X80673809Y-76130952D02*
X80721428Y-76083333D01*
X80816666Y-76035714D01*
X80959523Y-76035714D01*
X81054761Y-76083333D01*
X81102380Y-76178571D01*
X81102380Y-76702380D01*
X81578571Y-76702380D02*
X81578571Y-76035714D01*
X81578571Y-75702380D02*
X81530952Y-75750000D01*
X81578571Y-75797619D01*
X81626190Y-75750000D01*
X81578571Y-75702380D01*
X81578571Y-75797619D01*
X82054761Y-76035714D02*
X82054761Y-76702380D01*
X82054761Y-76130952D02*
X82102380Y-76083333D01*
X82197619Y-76035714D01*
X82340476Y-76035714D01*
X82435714Y-76083333D01*
X82483333Y-76178571D01*
X82483333Y-76702380D01*
X83388095Y-76702380D02*
X83388095Y-76178571D01*
X83340476Y-76083333D01*
X83245238Y-76035714D01*
X83054761Y-76035714D01*
X82959523Y-76083333D01*
X83388095Y-76654761D02*
X83292857Y-76702380D01*
X83054761Y-76702380D01*
X82959523Y-76654761D01*
X82911904Y-76559523D01*
X82911904Y-76464285D01*
X82959523Y-76369047D01*
X83054761Y-76321428D01*
X83292857Y-76321428D01*
X83388095Y-76273809D01*
X83769047Y-77035714D02*
X84007142Y-77035714D01*
X84007142Y-75607142D01*
X83769047Y-75607142D01*
D11*
G36*
X88900000Y-75150000D02*
G01*
X88900000Y-74650000D01*
X88400000Y-74650000D01*
X88400000Y-75150000D01*
X88900000Y-75150000D01*
G37*
G36*
X87400000Y-75150000D02*
G01*
X87400000Y-74650000D01*
X86900000Y-74650000D01*
X86900000Y-75150000D01*
X87400000Y-75150000D01*
G37*
G36*
X85900000Y-75150000D02*
G01*
X85900000Y-74650000D01*
X85400000Y-74650000D01*
X85400000Y-75150000D01*
X85900000Y-75150000D01*
G37*
G36*
X85400000Y-75150000D02*
G01*
X85400000Y-74650000D01*
X84900000Y-74650000D01*
X84900000Y-75150000D01*
X85400000Y-75150000D01*
G37*
G36*
X84900000Y-75150000D02*
G01*
X84900000Y-74650000D01*
X84400000Y-74650000D01*
X84400000Y-75150000D01*
X84900000Y-75150000D01*
G37*
G36*
X83900000Y-75150000D02*
G01*
X83900000Y-74650000D01*
X83400000Y-74650000D01*
X83400000Y-75150000D01*
X83900000Y-75150000D01*
G37*
G36*
X83400000Y-75150000D02*
G01*
X83400000Y-74650000D01*
X82900000Y-74650000D01*
X82900000Y-75150000D01*
X83400000Y-75150000D01*
G37*
G36*
X82400000Y-75150000D02*
G01*
X82400000Y-74650000D01*
X81900000Y-74650000D01*
X81900000Y-75150000D01*
X82400000Y-75150000D01*
G37*
G36*
X81900000Y-75150000D02*
G01*
X81900000Y-74650000D01*
X81400000Y-74650000D01*
X81400000Y-75150000D01*
X81900000Y-75150000D01*
G37*
G36*
X81400000Y-75150000D02*
G01*
X81400000Y-74650000D01*
X80900000Y-74650000D01*
X80900000Y-75150000D01*
X81400000Y-75150000D01*
G37*
G36*
X79900000Y-75150000D02*
G01*
X79900000Y-74650000D01*
X79400000Y-74650000D01*
X79400000Y-75150000D01*
X79900000Y-75150000D01*
G37*
G36*
X77400000Y-75150000D02*
G01*
X77400000Y-74650000D01*
X76900000Y-74650000D01*
X76900000Y-75150000D01*
X77400000Y-75150000D01*
G37*
G36*
X76900000Y-75150000D02*
G01*
X76900000Y-74650000D01*
X76400000Y-74650000D01*
X76400000Y-75150000D01*
X76900000Y-75150000D01*
G37*
G36*
X75900000Y-75150000D02*
G01*
X75900000Y-74650000D01*
X75400000Y-74650000D01*
X75400000Y-75150000D01*
X75900000Y-75150000D01*
G37*
G36*
X75400000Y-75150000D02*
G01*
X75400000Y-74650000D01*
X74900000Y-74650000D01*
X74900000Y-75150000D01*
X75400000Y-75150000D01*
G37*
G36*
X74900000Y-75150000D02*
G01*
X74900000Y-74650000D01*
X74400000Y-74650000D01*
X74400000Y-75150000D01*
X74900000Y-75150000D01*
G37*
G36*
X74400000Y-75150000D02*
G01*
X74400000Y-74650000D01*
X73900000Y-74650000D01*
X73900000Y-75150000D01*
X74400000Y-75150000D01*
G37*
G36*
X73900000Y-75150000D02*
G01*
X73900000Y-74650000D01*
X73400000Y-74650000D01*
X73400000Y-75150000D01*
X73900000Y-75150000D01*
G37*
G36*
X73400000Y-75150000D02*
G01*
X73400000Y-74650000D01*
X72900000Y-74650000D01*
X72900000Y-75150000D01*
X73400000Y-75150000D01*
G37*
G36*
X72900000Y-75150000D02*
G01*
X72900000Y-74650000D01*
X72400000Y-74650000D01*
X72400000Y-75150000D01*
X72900000Y-75150000D01*
G37*
G36*
X87400000Y-74650000D02*
G01*
X87400000Y-74150000D01*
X86900000Y-74150000D01*
X86900000Y-74650000D01*
X87400000Y-74650000D01*
G37*
G36*
X85900000Y-74650000D02*
G01*
X85900000Y-74150000D01*
X85400000Y-74150000D01*
X85400000Y-74650000D01*
X85900000Y-74650000D01*
G37*
G36*
X84900000Y-74650000D02*
G01*
X84900000Y-74150000D01*
X84400000Y-74150000D01*
X84400000Y-74650000D01*
X84900000Y-74650000D01*
G37*
G36*
X83900000Y-74650000D02*
G01*
X83900000Y-74150000D01*
X83400000Y-74150000D01*
X83400000Y-74650000D01*
X83900000Y-74650000D01*
G37*
G36*
X83400000Y-74650000D02*
G01*
X83400000Y-74150000D01*
X82900000Y-74150000D01*
X82900000Y-74650000D01*
X83400000Y-74650000D01*
G37*
G36*
X81400000Y-74650000D02*
G01*
X81400000Y-74150000D01*
X80900000Y-74150000D01*
X80900000Y-74650000D01*
X81400000Y-74650000D01*
G37*
G36*
X80900000Y-74650000D02*
G01*
X80900000Y-74150000D01*
X80400000Y-74150000D01*
X80400000Y-74650000D01*
X80900000Y-74650000D01*
G37*
G36*
X80400000Y-74650000D02*
G01*
X80400000Y-74150000D01*
X79900000Y-74150000D01*
X79900000Y-74650000D01*
X80400000Y-74650000D01*
G37*
G36*
X79900000Y-74650000D02*
G01*
X79900000Y-74150000D01*
X79400000Y-74150000D01*
X79400000Y-74650000D01*
X79900000Y-74650000D01*
G37*
G36*
X79400000Y-74650000D02*
G01*
X79400000Y-74150000D01*
X78900000Y-74150000D01*
X78900000Y-74650000D01*
X79400000Y-74650000D01*
G37*
G36*
X78400000Y-74650000D02*
G01*
X78400000Y-74150000D01*
X77900000Y-74150000D01*
X77900000Y-74650000D01*
X78400000Y-74650000D01*
G37*
G36*
X77400000Y-74650000D02*
G01*
X77400000Y-74150000D01*
X76900000Y-74150000D01*
X76900000Y-74650000D01*
X77400000Y-74650000D01*
G37*
G36*
X75900000Y-74650000D02*
G01*
X75900000Y-74150000D01*
X75400000Y-74150000D01*
X75400000Y-74650000D01*
X75900000Y-74650000D01*
G37*
G36*
X72900000Y-74650000D02*
G01*
X72900000Y-74150000D01*
X72400000Y-74150000D01*
X72400000Y-74650000D01*
X72900000Y-74650000D01*
G37*
G36*
X87900000Y-74150000D02*
G01*
X87900000Y-73650000D01*
X87400000Y-73650000D01*
X87400000Y-74150000D01*
X87900000Y-74150000D01*
G37*
G36*
X87400000Y-74150000D02*
G01*
X87400000Y-73650000D01*
X86900000Y-73650000D01*
X86900000Y-74150000D01*
X87400000Y-74150000D01*
G37*
G36*
X86900000Y-74150000D02*
G01*
X86900000Y-73650000D01*
X86400000Y-73650000D01*
X86400000Y-74150000D01*
X86900000Y-74150000D01*
G37*
G36*
X86400000Y-74150000D02*
G01*
X86400000Y-73650000D01*
X85900000Y-73650000D01*
X85900000Y-74150000D01*
X86400000Y-74150000D01*
G37*
G36*
X85900000Y-74150000D02*
G01*
X85900000Y-73650000D01*
X85400000Y-73650000D01*
X85400000Y-74150000D01*
X85900000Y-74150000D01*
G37*
G36*
X84900000Y-74150000D02*
G01*
X84900000Y-73650000D01*
X84400000Y-73650000D01*
X84400000Y-74150000D01*
X84900000Y-74150000D01*
G37*
G36*
X84400000Y-74150000D02*
G01*
X84400000Y-73650000D01*
X83900000Y-73650000D01*
X83900000Y-74150000D01*
X84400000Y-74150000D01*
G37*
G36*
X83900000Y-74150000D02*
G01*
X83900000Y-73650000D01*
X83400000Y-73650000D01*
X83400000Y-74150000D01*
X83900000Y-74150000D01*
G37*
G36*
X83400000Y-74150000D02*
G01*
X83400000Y-73650000D01*
X82900000Y-73650000D01*
X82900000Y-74150000D01*
X83400000Y-74150000D01*
G37*
G36*
X82900000Y-74150000D02*
G01*
X82900000Y-73650000D01*
X82400000Y-73650000D01*
X82400000Y-74150000D01*
X82900000Y-74150000D01*
G37*
G36*
X81900000Y-74150000D02*
G01*
X81900000Y-73650000D01*
X81400000Y-73650000D01*
X81400000Y-74150000D01*
X81900000Y-74150000D01*
G37*
G36*
X81400000Y-74150000D02*
G01*
X81400000Y-73650000D01*
X80900000Y-73650000D01*
X80900000Y-74150000D01*
X81400000Y-74150000D01*
G37*
G36*
X80400000Y-74150000D02*
G01*
X80400000Y-73650000D01*
X79900000Y-73650000D01*
X79900000Y-74150000D01*
X80400000Y-74150000D01*
G37*
G36*
X79400000Y-74150000D02*
G01*
X79400000Y-73650000D01*
X78900000Y-73650000D01*
X78900000Y-74150000D01*
X79400000Y-74150000D01*
G37*
G36*
X78900000Y-74150000D02*
G01*
X78900000Y-73650000D01*
X78400000Y-73650000D01*
X78400000Y-74150000D01*
X78900000Y-74150000D01*
G37*
G36*
X78400000Y-74150000D02*
G01*
X78400000Y-73650000D01*
X77900000Y-73650000D01*
X77900000Y-74150000D01*
X78400000Y-74150000D01*
G37*
G36*
X77400000Y-74150000D02*
G01*
X77400000Y-73650000D01*
X76900000Y-73650000D01*
X76900000Y-74150000D01*
X77400000Y-74150000D01*
G37*
G36*
X75900000Y-74150000D02*
G01*
X75900000Y-73650000D01*
X75400000Y-73650000D01*
X75400000Y-74150000D01*
X75900000Y-74150000D01*
G37*
G36*
X74900000Y-74150000D02*
G01*
X74900000Y-73650000D01*
X74400000Y-73650000D01*
X74400000Y-74150000D01*
X74900000Y-74150000D01*
G37*
G36*
X74400000Y-74150000D02*
G01*
X74400000Y-73650000D01*
X73900000Y-73650000D01*
X73900000Y-74150000D01*
X74400000Y-74150000D01*
G37*
G36*
X73900000Y-74150000D02*
G01*
X73900000Y-73650000D01*
X73400000Y-73650000D01*
X73400000Y-74150000D01*
X73900000Y-74150000D01*
G37*
G36*
X72900000Y-74150000D02*
G01*
X72900000Y-73650000D01*
X72400000Y-73650000D01*
X72400000Y-74150000D01*
X72900000Y-74150000D01*
G37*
G36*
X88400000Y-73650000D02*
G01*
X88400000Y-73150000D01*
X87900000Y-73150000D01*
X87900000Y-73650000D01*
X88400000Y-73650000D01*
G37*
G36*
X87900000Y-73650000D02*
G01*
X87900000Y-73150000D01*
X87400000Y-73150000D01*
X87400000Y-73650000D01*
X87900000Y-73650000D01*
G37*
G36*
X87400000Y-73650000D02*
G01*
X87400000Y-73150000D01*
X86900000Y-73150000D01*
X86900000Y-73650000D01*
X87400000Y-73650000D01*
G37*
G36*
X86900000Y-73650000D02*
G01*
X86900000Y-73150000D01*
X86400000Y-73150000D01*
X86400000Y-73650000D01*
X86900000Y-73650000D01*
G37*
G36*
X86400000Y-73650000D02*
G01*
X86400000Y-73150000D01*
X85900000Y-73150000D01*
X85900000Y-73650000D01*
X86400000Y-73650000D01*
G37*
G36*
X85900000Y-73650000D02*
G01*
X85900000Y-73150000D01*
X85400000Y-73150000D01*
X85400000Y-73650000D01*
X85900000Y-73650000D01*
G37*
G36*
X84900000Y-73650000D02*
G01*
X84900000Y-73150000D01*
X84400000Y-73150000D01*
X84400000Y-73650000D01*
X84900000Y-73650000D01*
G37*
G36*
X82900000Y-73650000D02*
G01*
X82900000Y-73150000D01*
X82400000Y-73150000D01*
X82400000Y-73650000D01*
X82900000Y-73650000D01*
G37*
G36*
X82400000Y-73650000D02*
G01*
X82400000Y-73150000D01*
X81900000Y-73150000D01*
X81900000Y-73650000D01*
X82400000Y-73650000D01*
G37*
G36*
X81900000Y-73650000D02*
G01*
X81900000Y-73150000D01*
X81400000Y-73150000D01*
X81400000Y-73650000D01*
X81900000Y-73650000D01*
G37*
G36*
X81400000Y-73650000D02*
G01*
X81400000Y-73150000D01*
X80900000Y-73150000D01*
X80900000Y-73650000D01*
X81400000Y-73650000D01*
G37*
G36*
X79900000Y-73650000D02*
G01*
X79900000Y-73150000D01*
X79400000Y-73150000D01*
X79400000Y-73650000D01*
X79900000Y-73650000D01*
G37*
G36*
X78900000Y-73650000D02*
G01*
X78900000Y-73150000D01*
X78400000Y-73150000D01*
X78400000Y-73650000D01*
X78900000Y-73650000D01*
G37*
G36*
X78400000Y-73650000D02*
G01*
X78400000Y-73150000D01*
X77900000Y-73150000D01*
X77900000Y-73650000D01*
X78400000Y-73650000D01*
G37*
G36*
X77900000Y-73650000D02*
G01*
X77900000Y-73150000D01*
X77400000Y-73150000D01*
X77400000Y-73650000D01*
X77900000Y-73650000D01*
G37*
G36*
X77400000Y-73650000D02*
G01*
X77400000Y-73150000D01*
X76900000Y-73150000D01*
X76900000Y-73650000D01*
X77400000Y-73650000D01*
G37*
G36*
X75900000Y-73650000D02*
G01*
X75900000Y-73150000D01*
X75400000Y-73150000D01*
X75400000Y-73650000D01*
X75900000Y-73650000D01*
G37*
G36*
X74900000Y-73650000D02*
G01*
X74900000Y-73150000D01*
X74400000Y-73150000D01*
X74400000Y-73650000D01*
X74900000Y-73650000D01*
G37*
G36*
X74400000Y-73650000D02*
G01*
X74400000Y-73150000D01*
X73900000Y-73150000D01*
X73900000Y-73650000D01*
X74400000Y-73650000D01*
G37*
G36*
X73900000Y-73650000D02*
G01*
X73900000Y-73150000D01*
X73400000Y-73150000D01*
X73400000Y-73650000D01*
X73900000Y-73650000D01*
G37*
G36*
X72900000Y-73650000D02*
G01*
X72900000Y-73150000D01*
X72400000Y-73150000D01*
X72400000Y-73650000D01*
X72900000Y-73650000D01*
G37*
G36*
X88900000Y-73150000D02*
G01*
X88900000Y-72650000D01*
X88400000Y-72650000D01*
X88400000Y-73150000D01*
X88900000Y-73150000D01*
G37*
G36*
X87400000Y-73150000D02*
G01*
X87400000Y-72650000D01*
X86900000Y-72650000D01*
X86900000Y-73150000D01*
X87400000Y-73150000D01*
G37*
G36*
X86900000Y-73150000D02*
G01*
X86900000Y-72650000D01*
X86400000Y-72650000D01*
X86400000Y-73150000D01*
X86900000Y-73150000D01*
G37*
G36*
X86400000Y-73150000D02*
G01*
X86400000Y-72650000D01*
X85900000Y-72650000D01*
X85900000Y-73150000D01*
X86400000Y-73150000D01*
G37*
G36*
X85900000Y-73150000D02*
G01*
X85900000Y-72650000D01*
X85400000Y-72650000D01*
X85400000Y-73150000D01*
X85900000Y-73150000D01*
G37*
G36*
X85400000Y-73150000D02*
G01*
X85400000Y-72650000D01*
X84900000Y-72650000D01*
X84900000Y-73150000D01*
X85400000Y-73150000D01*
G37*
G36*
X84900000Y-73150000D02*
G01*
X84900000Y-72650000D01*
X84400000Y-72650000D01*
X84400000Y-73150000D01*
X84900000Y-73150000D01*
G37*
G36*
X83900000Y-73150000D02*
G01*
X83900000Y-72650000D01*
X83400000Y-72650000D01*
X83400000Y-73150000D01*
X83900000Y-73150000D01*
G37*
G36*
X82400000Y-73150000D02*
G01*
X82400000Y-72650000D01*
X81900000Y-72650000D01*
X81900000Y-73150000D01*
X82400000Y-73150000D01*
G37*
G36*
X80900000Y-73150000D02*
G01*
X80900000Y-72650000D01*
X80400000Y-72650000D01*
X80400000Y-73150000D01*
X80900000Y-73150000D01*
G37*
G36*
X80400000Y-73150000D02*
G01*
X80400000Y-72650000D01*
X79900000Y-72650000D01*
X79900000Y-73150000D01*
X80400000Y-73150000D01*
G37*
G36*
X79900000Y-73150000D02*
G01*
X79900000Y-72650000D01*
X79400000Y-72650000D01*
X79400000Y-73150000D01*
X79900000Y-73150000D01*
G37*
G36*
X79400000Y-73150000D02*
G01*
X79400000Y-72650000D01*
X78900000Y-72650000D01*
X78900000Y-73150000D01*
X79400000Y-73150000D01*
G37*
G36*
X78400000Y-73150000D02*
G01*
X78400000Y-72650000D01*
X77900000Y-72650000D01*
X77900000Y-73150000D01*
X78400000Y-73150000D01*
G37*
G36*
X76900000Y-73150000D02*
G01*
X76900000Y-72650000D01*
X76400000Y-72650000D01*
X76400000Y-73150000D01*
X76900000Y-73150000D01*
G37*
G36*
X75900000Y-73150000D02*
G01*
X75900000Y-72650000D01*
X75400000Y-72650000D01*
X75400000Y-73150000D01*
X75900000Y-73150000D01*
G37*
G36*
X74900000Y-73150000D02*
G01*
X74900000Y-72650000D01*
X74400000Y-72650000D01*
X74400000Y-73150000D01*
X74900000Y-73150000D01*
G37*
G36*
X74400000Y-73150000D02*
G01*
X74400000Y-72650000D01*
X73900000Y-72650000D01*
X73900000Y-73150000D01*
X74400000Y-73150000D01*
G37*
G36*
X73900000Y-73150000D02*
G01*
X73900000Y-72650000D01*
X73400000Y-72650000D01*
X73400000Y-73150000D01*
X73900000Y-73150000D01*
G37*
G36*
X72900000Y-73150000D02*
G01*
X72900000Y-72650000D01*
X72400000Y-72650000D01*
X72400000Y-73150000D01*
X72900000Y-73150000D01*
G37*
G36*
X88900000Y-72650000D02*
G01*
X88900000Y-72150000D01*
X88400000Y-72150000D01*
X88400000Y-72650000D01*
X88900000Y-72650000D01*
G37*
G36*
X86900000Y-72650000D02*
G01*
X86900000Y-72150000D01*
X86400000Y-72150000D01*
X86400000Y-72650000D01*
X86900000Y-72650000D01*
G37*
G36*
X84900000Y-72650000D02*
G01*
X84900000Y-72150000D01*
X84400000Y-72150000D01*
X84400000Y-72650000D01*
X84900000Y-72650000D01*
G37*
G36*
X83900000Y-72650000D02*
G01*
X83900000Y-72150000D01*
X83400000Y-72150000D01*
X83400000Y-72650000D01*
X83900000Y-72650000D01*
G37*
G36*
X78900000Y-72650000D02*
G01*
X78900000Y-72150000D01*
X78400000Y-72150000D01*
X78400000Y-72650000D01*
X78900000Y-72650000D01*
G37*
G36*
X78400000Y-72650000D02*
G01*
X78400000Y-72150000D01*
X77900000Y-72150000D01*
X77900000Y-72650000D01*
X78400000Y-72650000D01*
G37*
G36*
X77400000Y-72650000D02*
G01*
X77400000Y-72150000D01*
X76900000Y-72150000D01*
X76900000Y-72650000D01*
X77400000Y-72650000D01*
G37*
G36*
X75900000Y-72650000D02*
G01*
X75900000Y-72150000D01*
X75400000Y-72150000D01*
X75400000Y-72650000D01*
X75900000Y-72650000D01*
G37*
G36*
X72900000Y-72650000D02*
G01*
X72900000Y-72150000D01*
X72400000Y-72150000D01*
X72400000Y-72650000D01*
X72900000Y-72650000D01*
G37*
G36*
X88400000Y-72150000D02*
G01*
X88400000Y-71650000D01*
X87900000Y-71650000D01*
X87900000Y-72150000D01*
X88400000Y-72150000D01*
G37*
G36*
X87400000Y-72150000D02*
G01*
X87400000Y-71650000D01*
X86900000Y-71650000D01*
X86900000Y-72150000D01*
X87400000Y-72150000D01*
G37*
G36*
X86900000Y-72150000D02*
G01*
X86900000Y-71650000D01*
X86400000Y-71650000D01*
X86400000Y-72150000D01*
X86900000Y-72150000D01*
G37*
G36*
X85900000Y-72150000D02*
G01*
X85900000Y-71650000D01*
X85400000Y-71650000D01*
X85400000Y-72150000D01*
X85900000Y-72150000D01*
G37*
G36*
X84900000Y-72150000D02*
G01*
X84900000Y-71650000D01*
X84400000Y-71650000D01*
X84400000Y-72150000D01*
X84900000Y-72150000D01*
G37*
G36*
X81900000Y-72150000D02*
G01*
X81900000Y-71650000D01*
X81400000Y-71650000D01*
X81400000Y-72150000D01*
X81900000Y-72150000D01*
G37*
G36*
X80400000Y-72150000D02*
G01*
X80400000Y-71650000D01*
X79900000Y-71650000D01*
X79900000Y-72150000D01*
X80400000Y-72150000D01*
G37*
G36*
X78400000Y-72150000D02*
G01*
X78400000Y-71650000D01*
X77900000Y-71650000D01*
X77900000Y-72150000D01*
X78400000Y-72150000D01*
G37*
G36*
X76900000Y-72150000D02*
G01*
X76900000Y-71650000D01*
X76400000Y-71650000D01*
X76400000Y-72150000D01*
X76900000Y-72150000D01*
G37*
G36*
X75900000Y-72150000D02*
G01*
X75900000Y-71650000D01*
X75400000Y-71650000D01*
X75400000Y-72150000D01*
X75900000Y-72150000D01*
G37*
G36*
X75400000Y-72150000D02*
G01*
X75400000Y-71650000D01*
X74900000Y-71650000D01*
X74900000Y-72150000D01*
X75400000Y-72150000D01*
G37*
G36*
X74900000Y-72150000D02*
G01*
X74900000Y-71650000D01*
X74400000Y-71650000D01*
X74400000Y-72150000D01*
X74900000Y-72150000D01*
G37*
G36*
X74400000Y-72150000D02*
G01*
X74400000Y-71650000D01*
X73900000Y-71650000D01*
X73900000Y-72150000D01*
X74400000Y-72150000D01*
G37*
G36*
X73900000Y-72150000D02*
G01*
X73900000Y-71650000D01*
X73400000Y-71650000D01*
X73400000Y-72150000D01*
X73900000Y-72150000D01*
G37*
G36*
X73400000Y-72150000D02*
G01*
X73400000Y-71650000D01*
X72900000Y-71650000D01*
X72900000Y-72150000D01*
X73400000Y-72150000D01*
G37*
G36*
X72900000Y-72150000D02*
G01*
X72900000Y-71650000D01*
X72400000Y-71650000D01*
X72400000Y-72150000D01*
X72900000Y-72150000D01*
G37*
G36*
X88900000Y-71650000D02*
G01*
X88900000Y-71150000D01*
X88400000Y-71150000D01*
X88400000Y-71650000D01*
X88900000Y-71650000D01*
G37*
G36*
X88400000Y-71650000D02*
G01*
X88400000Y-71150000D01*
X87900000Y-71150000D01*
X87900000Y-71650000D01*
X88400000Y-71650000D01*
G37*
G36*
X87900000Y-71650000D02*
G01*
X87900000Y-71150000D01*
X87400000Y-71150000D01*
X87400000Y-71650000D01*
X87900000Y-71650000D01*
G37*
G36*
X86900000Y-71650000D02*
G01*
X86900000Y-71150000D01*
X86400000Y-71150000D01*
X86400000Y-71650000D01*
X86900000Y-71650000D01*
G37*
G36*
X84900000Y-71650000D02*
G01*
X84900000Y-71150000D01*
X84400000Y-71150000D01*
X84400000Y-71650000D01*
X84900000Y-71650000D01*
G37*
G36*
X83900000Y-71650000D02*
G01*
X83900000Y-71150000D01*
X83400000Y-71150000D01*
X83400000Y-71650000D01*
X83900000Y-71650000D01*
G37*
G36*
X83400000Y-71650000D02*
G01*
X83400000Y-71150000D01*
X82900000Y-71150000D01*
X82900000Y-71650000D01*
X83400000Y-71650000D01*
G37*
G36*
X82900000Y-71650000D02*
G01*
X82900000Y-71150000D01*
X82400000Y-71150000D01*
X82400000Y-71650000D01*
X82900000Y-71650000D01*
G37*
G36*
X81900000Y-71650000D02*
G01*
X81900000Y-71150000D01*
X81400000Y-71150000D01*
X81400000Y-71650000D01*
X81900000Y-71650000D01*
G37*
G36*
X81400000Y-71650000D02*
G01*
X81400000Y-71150000D01*
X80900000Y-71150000D01*
X80900000Y-71650000D01*
X81400000Y-71650000D01*
G37*
G36*
X80900000Y-71650000D02*
G01*
X80900000Y-71150000D01*
X80400000Y-71150000D01*
X80400000Y-71650000D01*
X80900000Y-71650000D01*
G37*
G36*
X78400000Y-71650000D02*
G01*
X78400000Y-71150000D01*
X77900000Y-71150000D01*
X77900000Y-71650000D01*
X78400000Y-71650000D01*
G37*
G36*
X76900000Y-71650000D02*
G01*
X76900000Y-71150000D01*
X76400000Y-71150000D01*
X76400000Y-71650000D01*
X76900000Y-71650000D01*
G37*
G36*
X88400000Y-71150000D02*
G01*
X88400000Y-70650000D01*
X87900000Y-70650000D01*
X87900000Y-71150000D01*
X88400000Y-71150000D01*
G37*
G36*
X87400000Y-71150000D02*
G01*
X87400000Y-70650000D01*
X86900000Y-70650000D01*
X86900000Y-71150000D01*
X87400000Y-71150000D01*
G37*
G36*
X86900000Y-71150000D02*
G01*
X86900000Y-70650000D01*
X86400000Y-70650000D01*
X86400000Y-71150000D01*
X86900000Y-71150000D01*
G37*
G36*
X86400000Y-71150000D02*
G01*
X86400000Y-70650000D01*
X85900000Y-70650000D01*
X85900000Y-71150000D01*
X86400000Y-71150000D01*
G37*
G36*
X85900000Y-71150000D02*
G01*
X85900000Y-70650000D01*
X85400000Y-70650000D01*
X85400000Y-71150000D01*
X85900000Y-71150000D01*
G37*
G36*
X85400000Y-71150000D02*
G01*
X85400000Y-70650000D01*
X84900000Y-70650000D01*
X84900000Y-71150000D01*
X85400000Y-71150000D01*
G37*
G36*
X84900000Y-71150000D02*
G01*
X84900000Y-70650000D01*
X84400000Y-70650000D01*
X84400000Y-71150000D01*
X84900000Y-71150000D01*
G37*
G36*
X83900000Y-71150000D02*
G01*
X83900000Y-70650000D01*
X83400000Y-70650000D01*
X83400000Y-71150000D01*
X83900000Y-71150000D01*
G37*
G36*
X83400000Y-71150000D02*
G01*
X83400000Y-70650000D01*
X82900000Y-70650000D01*
X82900000Y-71150000D01*
X83400000Y-71150000D01*
G37*
G36*
X82900000Y-71150000D02*
G01*
X82900000Y-70650000D01*
X82400000Y-70650000D01*
X82400000Y-71150000D01*
X82900000Y-71150000D01*
G37*
G36*
X81400000Y-71150000D02*
G01*
X81400000Y-70650000D01*
X80900000Y-70650000D01*
X80900000Y-71150000D01*
X81400000Y-71150000D01*
G37*
G36*
X80400000Y-71150000D02*
G01*
X80400000Y-70650000D01*
X79900000Y-70650000D01*
X79900000Y-71150000D01*
X80400000Y-71150000D01*
G37*
G36*
X79400000Y-71150000D02*
G01*
X79400000Y-70650000D01*
X78900000Y-70650000D01*
X78900000Y-71150000D01*
X79400000Y-71150000D01*
G37*
G36*
X78900000Y-71150000D02*
G01*
X78900000Y-70650000D01*
X78400000Y-70650000D01*
X78400000Y-71150000D01*
X78900000Y-71150000D01*
G37*
G36*
X77400000Y-71150000D02*
G01*
X77400000Y-70650000D01*
X76900000Y-70650000D01*
X76900000Y-71150000D01*
X77400000Y-71150000D01*
G37*
G36*
X75900000Y-71150000D02*
G01*
X75900000Y-70650000D01*
X75400000Y-70650000D01*
X75400000Y-71150000D01*
X75900000Y-71150000D01*
G37*
G36*
X74400000Y-71150000D02*
G01*
X74400000Y-70650000D01*
X73900000Y-70650000D01*
X73900000Y-71150000D01*
X74400000Y-71150000D01*
G37*
G36*
X73900000Y-71150000D02*
G01*
X73900000Y-70650000D01*
X73400000Y-70650000D01*
X73400000Y-71150000D01*
X73900000Y-71150000D01*
G37*
G36*
X73400000Y-71150000D02*
G01*
X73400000Y-70650000D01*
X72900000Y-70650000D01*
X72900000Y-71150000D01*
X73400000Y-71150000D01*
G37*
G36*
X72900000Y-71150000D02*
G01*
X72900000Y-70650000D01*
X72400000Y-70650000D01*
X72400000Y-71150000D01*
X72900000Y-71150000D01*
G37*
G36*
X88900000Y-70650000D02*
G01*
X88900000Y-70150000D01*
X88400000Y-70150000D01*
X88400000Y-70650000D01*
X88900000Y-70650000D01*
G37*
G36*
X88400000Y-70650000D02*
G01*
X88400000Y-70150000D01*
X87900000Y-70150000D01*
X87900000Y-70650000D01*
X88400000Y-70650000D01*
G37*
G36*
X86900000Y-70650000D02*
G01*
X86900000Y-70150000D01*
X86400000Y-70150000D01*
X86400000Y-70650000D01*
X86900000Y-70650000D01*
G37*
G36*
X84900000Y-70650000D02*
G01*
X84900000Y-70150000D01*
X84400000Y-70150000D01*
X84400000Y-70650000D01*
X84900000Y-70650000D01*
G37*
G36*
X83400000Y-70650000D02*
G01*
X83400000Y-70150000D01*
X82900000Y-70150000D01*
X82900000Y-70650000D01*
X83400000Y-70650000D01*
G37*
G36*
X82900000Y-70650000D02*
G01*
X82900000Y-70150000D01*
X82400000Y-70150000D01*
X82400000Y-70650000D01*
X82900000Y-70650000D01*
G37*
G36*
X82400000Y-70650000D02*
G01*
X82400000Y-70150000D01*
X81900000Y-70150000D01*
X81900000Y-70650000D01*
X82400000Y-70650000D01*
G37*
G36*
X81900000Y-70650000D02*
G01*
X81900000Y-70150000D01*
X81400000Y-70150000D01*
X81400000Y-70650000D01*
X81900000Y-70650000D01*
G37*
G36*
X81400000Y-70650000D02*
G01*
X81400000Y-70150000D01*
X80900000Y-70150000D01*
X80900000Y-70650000D01*
X81400000Y-70650000D01*
G37*
G36*
X78400000Y-70650000D02*
G01*
X78400000Y-70150000D01*
X77900000Y-70150000D01*
X77900000Y-70650000D01*
X78400000Y-70650000D01*
G37*
G36*
X76400000Y-70650000D02*
G01*
X76400000Y-70150000D01*
X75900000Y-70150000D01*
X75900000Y-70650000D01*
X76400000Y-70650000D01*
G37*
G36*
X74900000Y-70650000D02*
G01*
X74900000Y-70150000D01*
X74400000Y-70150000D01*
X74400000Y-70650000D01*
X74900000Y-70650000D01*
G37*
G36*
X74400000Y-70650000D02*
G01*
X74400000Y-70150000D01*
X73900000Y-70150000D01*
X73900000Y-70650000D01*
X74400000Y-70650000D01*
G37*
G36*
X88400000Y-70150000D02*
G01*
X88400000Y-69650000D01*
X87900000Y-69650000D01*
X87900000Y-70150000D01*
X88400000Y-70150000D01*
G37*
G36*
X87900000Y-70150000D02*
G01*
X87900000Y-69650000D01*
X87400000Y-69650000D01*
X87400000Y-70150000D01*
X87900000Y-70150000D01*
G37*
G36*
X87400000Y-70150000D02*
G01*
X87400000Y-69650000D01*
X86900000Y-69650000D01*
X86900000Y-70150000D01*
X87400000Y-70150000D01*
G37*
G36*
X86900000Y-70150000D02*
G01*
X86900000Y-69650000D01*
X86400000Y-69650000D01*
X86400000Y-70150000D01*
X86900000Y-70150000D01*
G37*
G36*
X86400000Y-70150000D02*
G01*
X86400000Y-69650000D01*
X85900000Y-69650000D01*
X85900000Y-70150000D01*
X86400000Y-70150000D01*
G37*
G36*
X84400000Y-70150000D02*
G01*
X84400000Y-69650000D01*
X83900000Y-69650000D01*
X83900000Y-70150000D01*
X84400000Y-70150000D01*
G37*
G36*
X83900000Y-70150000D02*
G01*
X83900000Y-69650000D01*
X83400000Y-69650000D01*
X83400000Y-70150000D01*
X83900000Y-70150000D01*
G37*
G36*
X83400000Y-70150000D02*
G01*
X83400000Y-69650000D01*
X82900000Y-69650000D01*
X82900000Y-70150000D01*
X83400000Y-70150000D01*
G37*
G36*
X82400000Y-70150000D02*
G01*
X82400000Y-69650000D01*
X81900000Y-69650000D01*
X81900000Y-70150000D01*
X82400000Y-70150000D01*
G37*
G36*
X81900000Y-70150000D02*
G01*
X81900000Y-69650000D01*
X81400000Y-69650000D01*
X81400000Y-70150000D01*
X81900000Y-70150000D01*
G37*
G36*
X80900000Y-70150000D02*
G01*
X80900000Y-69650000D01*
X80400000Y-69650000D01*
X80400000Y-70150000D01*
X80900000Y-70150000D01*
G37*
G36*
X79900000Y-70150000D02*
G01*
X79900000Y-69650000D01*
X79400000Y-69650000D01*
X79400000Y-70150000D01*
X79900000Y-70150000D01*
G37*
G36*
X78400000Y-70150000D02*
G01*
X78400000Y-69650000D01*
X77900000Y-69650000D01*
X77900000Y-70150000D01*
X78400000Y-70150000D01*
G37*
G36*
X77900000Y-70150000D02*
G01*
X77900000Y-69650000D01*
X77400000Y-69650000D01*
X77400000Y-70150000D01*
X77900000Y-70150000D01*
G37*
G36*
X76900000Y-70150000D02*
G01*
X76900000Y-69650000D01*
X76400000Y-69650000D01*
X76400000Y-70150000D01*
X76900000Y-70150000D01*
G37*
G36*
X75900000Y-70150000D02*
G01*
X75900000Y-69650000D01*
X75400000Y-69650000D01*
X75400000Y-70150000D01*
X75900000Y-70150000D01*
G37*
G36*
X88400000Y-69650000D02*
G01*
X88400000Y-69150000D01*
X87900000Y-69150000D01*
X87900000Y-69650000D01*
X88400000Y-69650000D01*
G37*
G36*
X86400000Y-69650000D02*
G01*
X86400000Y-69150000D01*
X85900000Y-69150000D01*
X85900000Y-69650000D01*
X86400000Y-69650000D01*
G37*
G36*
X85900000Y-69650000D02*
G01*
X85900000Y-69150000D01*
X85400000Y-69150000D01*
X85400000Y-69650000D01*
X85900000Y-69650000D01*
G37*
G36*
X84900000Y-69650000D02*
G01*
X84900000Y-69150000D01*
X84400000Y-69150000D01*
X84400000Y-69650000D01*
X84900000Y-69650000D01*
G37*
G36*
X84400000Y-69650000D02*
G01*
X84400000Y-69150000D01*
X83900000Y-69150000D01*
X83900000Y-69650000D01*
X84400000Y-69650000D01*
G37*
G36*
X83900000Y-69650000D02*
G01*
X83900000Y-69150000D01*
X83400000Y-69150000D01*
X83400000Y-69650000D01*
X83900000Y-69650000D01*
G37*
G36*
X82400000Y-69650000D02*
G01*
X82400000Y-69150000D01*
X81900000Y-69150000D01*
X81900000Y-69650000D01*
X82400000Y-69650000D01*
G37*
G36*
X80900000Y-69650000D02*
G01*
X80900000Y-69150000D01*
X80400000Y-69150000D01*
X80400000Y-69650000D01*
X80900000Y-69650000D01*
G37*
G36*
X78900000Y-69650000D02*
G01*
X78900000Y-69150000D01*
X78400000Y-69150000D01*
X78400000Y-69650000D01*
X78900000Y-69650000D01*
G37*
G36*
X78400000Y-69650000D02*
G01*
X78400000Y-69150000D01*
X77900000Y-69150000D01*
X77900000Y-69650000D01*
X78400000Y-69650000D01*
G37*
G36*
X77900000Y-69650000D02*
G01*
X77900000Y-69150000D01*
X77400000Y-69150000D01*
X77400000Y-69650000D01*
X77900000Y-69650000D01*
G37*
G36*
X76900000Y-69650000D02*
G01*
X76900000Y-69150000D01*
X76400000Y-69150000D01*
X76400000Y-69650000D01*
X76900000Y-69650000D01*
G37*
G36*
X73900000Y-69650000D02*
G01*
X73900000Y-69150000D01*
X73400000Y-69150000D01*
X73400000Y-69650000D01*
X73900000Y-69650000D01*
G37*
G36*
X72900000Y-69650000D02*
G01*
X72900000Y-69150000D01*
X72400000Y-69150000D01*
X72400000Y-69650000D01*
X72900000Y-69650000D01*
G37*
G36*
X87400000Y-69150000D02*
G01*
X87400000Y-68650000D01*
X86900000Y-68650000D01*
X86900000Y-69150000D01*
X87400000Y-69150000D01*
G37*
G36*
X86900000Y-69150000D02*
G01*
X86900000Y-68650000D01*
X86400000Y-68650000D01*
X86400000Y-69150000D01*
X86900000Y-69150000D01*
G37*
G36*
X86400000Y-69150000D02*
G01*
X86400000Y-68650000D01*
X85900000Y-68650000D01*
X85900000Y-69150000D01*
X86400000Y-69150000D01*
G37*
G36*
X85900000Y-69150000D02*
G01*
X85900000Y-68650000D01*
X85400000Y-68650000D01*
X85400000Y-69150000D01*
X85900000Y-69150000D01*
G37*
G36*
X84400000Y-69150000D02*
G01*
X84400000Y-68650000D01*
X83900000Y-68650000D01*
X83900000Y-69150000D01*
X84400000Y-69150000D01*
G37*
G36*
X82900000Y-69150000D02*
G01*
X82900000Y-68650000D01*
X82400000Y-68650000D01*
X82400000Y-69150000D01*
X82900000Y-69150000D01*
G37*
G36*
X81900000Y-69150000D02*
G01*
X81900000Y-68650000D01*
X81400000Y-68650000D01*
X81400000Y-69150000D01*
X81900000Y-69150000D01*
G37*
G36*
X80400000Y-69150000D02*
G01*
X80400000Y-68650000D01*
X79900000Y-68650000D01*
X79900000Y-69150000D01*
X80400000Y-69150000D01*
G37*
G36*
X75900000Y-69150000D02*
G01*
X75900000Y-68650000D01*
X75400000Y-68650000D01*
X75400000Y-69150000D01*
X75900000Y-69150000D01*
G37*
G36*
X74400000Y-69150000D02*
G01*
X74400000Y-68650000D01*
X73900000Y-68650000D01*
X73900000Y-69150000D01*
X74400000Y-69150000D01*
G37*
G36*
X73900000Y-69150000D02*
G01*
X73900000Y-68650000D01*
X73400000Y-68650000D01*
X73400000Y-69150000D01*
X73900000Y-69150000D01*
G37*
G36*
X72900000Y-69150000D02*
G01*
X72900000Y-68650000D01*
X72400000Y-68650000D01*
X72400000Y-69150000D01*
X72900000Y-69150000D01*
G37*
G36*
X88900000Y-68650000D02*
G01*
X88900000Y-68150000D01*
X88400000Y-68150000D01*
X88400000Y-68650000D01*
X88900000Y-68650000D01*
G37*
G36*
X86400000Y-68650000D02*
G01*
X86400000Y-68150000D01*
X85900000Y-68150000D01*
X85900000Y-68650000D01*
X86400000Y-68650000D01*
G37*
G36*
X85900000Y-68650000D02*
G01*
X85900000Y-68150000D01*
X85400000Y-68150000D01*
X85400000Y-68650000D01*
X85900000Y-68650000D01*
G37*
G36*
X85400000Y-68650000D02*
G01*
X85400000Y-68150000D01*
X84900000Y-68150000D01*
X84900000Y-68650000D01*
X85400000Y-68650000D01*
G37*
G36*
X84900000Y-68650000D02*
G01*
X84900000Y-68150000D01*
X84400000Y-68150000D01*
X84400000Y-68650000D01*
X84900000Y-68650000D01*
G37*
G36*
X83400000Y-68650000D02*
G01*
X83400000Y-68150000D01*
X82900000Y-68150000D01*
X82900000Y-68650000D01*
X83400000Y-68650000D01*
G37*
G36*
X82900000Y-68650000D02*
G01*
X82900000Y-68150000D01*
X82400000Y-68150000D01*
X82400000Y-68650000D01*
X82900000Y-68650000D01*
G37*
G36*
X82400000Y-68650000D02*
G01*
X82400000Y-68150000D01*
X81900000Y-68150000D01*
X81900000Y-68650000D01*
X82400000Y-68650000D01*
G37*
G36*
X81900000Y-68650000D02*
G01*
X81900000Y-68150000D01*
X81400000Y-68150000D01*
X81400000Y-68650000D01*
X81900000Y-68650000D01*
G37*
G36*
X81400000Y-68650000D02*
G01*
X81400000Y-68150000D01*
X80900000Y-68150000D01*
X80900000Y-68650000D01*
X81400000Y-68650000D01*
G37*
G36*
X80900000Y-68650000D02*
G01*
X80900000Y-68150000D01*
X80400000Y-68150000D01*
X80400000Y-68650000D01*
X80900000Y-68650000D01*
G37*
G36*
X79900000Y-68650000D02*
G01*
X79900000Y-68150000D01*
X79400000Y-68150000D01*
X79400000Y-68650000D01*
X79900000Y-68650000D01*
G37*
G36*
X77400000Y-68650000D02*
G01*
X77400000Y-68150000D01*
X76900000Y-68150000D01*
X76900000Y-68650000D01*
X77400000Y-68650000D01*
G37*
G36*
X74900000Y-68650000D02*
G01*
X74900000Y-68150000D01*
X74400000Y-68150000D01*
X74400000Y-68650000D01*
X74900000Y-68650000D01*
G37*
G36*
X74400000Y-68650000D02*
G01*
X74400000Y-68150000D01*
X73900000Y-68150000D01*
X73900000Y-68650000D01*
X74400000Y-68650000D01*
G37*
G36*
X72900000Y-68650000D02*
G01*
X72900000Y-68150000D01*
X72400000Y-68150000D01*
X72400000Y-68650000D01*
X72900000Y-68650000D01*
G37*
G36*
X88400000Y-68150000D02*
G01*
X88400000Y-67650000D01*
X87900000Y-67650000D01*
X87900000Y-68150000D01*
X88400000Y-68150000D01*
G37*
G36*
X87400000Y-68150000D02*
G01*
X87400000Y-67650000D01*
X86900000Y-67650000D01*
X86900000Y-68150000D01*
X87400000Y-68150000D01*
G37*
G36*
X86400000Y-68150000D02*
G01*
X86400000Y-67650000D01*
X85900000Y-67650000D01*
X85900000Y-68150000D01*
X86400000Y-68150000D01*
G37*
G36*
X84900000Y-68150000D02*
G01*
X84900000Y-67650000D01*
X84400000Y-67650000D01*
X84400000Y-68150000D01*
X84900000Y-68150000D01*
G37*
G36*
X84400000Y-68150000D02*
G01*
X84400000Y-67650000D01*
X83900000Y-67650000D01*
X83900000Y-68150000D01*
X84400000Y-68150000D01*
G37*
G36*
X83900000Y-68150000D02*
G01*
X83900000Y-67650000D01*
X83400000Y-67650000D01*
X83400000Y-68150000D01*
X83900000Y-68150000D01*
G37*
G36*
X83400000Y-68150000D02*
G01*
X83400000Y-67650000D01*
X82900000Y-67650000D01*
X82900000Y-68150000D01*
X83400000Y-68150000D01*
G37*
G36*
X81400000Y-68150000D02*
G01*
X81400000Y-67650000D01*
X80900000Y-67650000D01*
X80900000Y-68150000D01*
X81400000Y-68150000D01*
G37*
G36*
X80400000Y-68150000D02*
G01*
X80400000Y-67650000D01*
X79900000Y-67650000D01*
X79900000Y-68150000D01*
X80400000Y-68150000D01*
G37*
G36*
X79900000Y-68150000D02*
G01*
X79900000Y-67650000D01*
X79400000Y-67650000D01*
X79400000Y-68150000D01*
X79900000Y-68150000D01*
G37*
G36*
X78900000Y-68150000D02*
G01*
X78900000Y-67650000D01*
X78400000Y-67650000D01*
X78400000Y-68150000D01*
X78900000Y-68150000D01*
G37*
G36*
X78400000Y-68150000D02*
G01*
X78400000Y-67650000D01*
X77900000Y-67650000D01*
X77900000Y-68150000D01*
X78400000Y-68150000D01*
G37*
G36*
X77400000Y-68150000D02*
G01*
X77400000Y-67650000D01*
X76900000Y-67650000D01*
X76900000Y-68150000D01*
X77400000Y-68150000D01*
G37*
G36*
X76400000Y-68150000D02*
G01*
X76400000Y-67650000D01*
X75900000Y-67650000D01*
X75900000Y-68150000D01*
X76400000Y-68150000D01*
G37*
G36*
X75900000Y-68150000D02*
G01*
X75900000Y-67650000D01*
X75400000Y-67650000D01*
X75400000Y-68150000D01*
X75900000Y-68150000D01*
G37*
G36*
X75400000Y-68150000D02*
G01*
X75400000Y-67650000D01*
X74900000Y-67650000D01*
X74900000Y-68150000D01*
X75400000Y-68150000D01*
G37*
G36*
X73400000Y-68150000D02*
G01*
X73400000Y-67650000D01*
X72900000Y-67650000D01*
X72900000Y-68150000D01*
X73400000Y-68150000D01*
G37*
G36*
X72900000Y-68150000D02*
G01*
X72900000Y-67650000D01*
X72400000Y-67650000D01*
X72400000Y-68150000D01*
X72900000Y-68150000D01*
G37*
G36*
X88900000Y-67650000D02*
G01*
X88900000Y-67150000D01*
X88400000Y-67150000D01*
X88400000Y-67650000D01*
X88900000Y-67650000D01*
G37*
G36*
X87900000Y-67650000D02*
G01*
X87900000Y-67150000D01*
X87400000Y-67150000D01*
X87400000Y-67650000D01*
X87900000Y-67650000D01*
G37*
G36*
X87400000Y-67650000D02*
G01*
X87400000Y-67150000D01*
X86900000Y-67150000D01*
X86900000Y-67650000D01*
X87400000Y-67650000D01*
G37*
G36*
X84400000Y-67650000D02*
G01*
X84400000Y-67150000D01*
X83900000Y-67150000D01*
X83900000Y-67650000D01*
X84400000Y-67650000D01*
G37*
G36*
X81900000Y-67650000D02*
G01*
X81900000Y-67150000D01*
X81400000Y-67150000D01*
X81400000Y-67650000D01*
X81900000Y-67650000D01*
G37*
G36*
X80900000Y-67650000D02*
G01*
X80900000Y-67150000D01*
X80400000Y-67150000D01*
X80400000Y-67650000D01*
X80900000Y-67650000D01*
G37*
G36*
X80400000Y-67650000D02*
G01*
X80400000Y-67150000D01*
X79900000Y-67150000D01*
X79900000Y-67650000D01*
X80400000Y-67650000D01*
G37*
G36*
X79900000Y-67650000D02*
G01*
X79900000Y-67150000D01*
X79400000Y-67150000D01*
X79400000Y-67650000D01*
X79900000Y-67650000D01*
G37*
G36*
X78900000Y-67650000D02*
G01*
X78900000Y-67150000D01*
X78400000Y-67150000D01*
X78400000Y-67650000D01*
X78900000Y-67650000D01*
G37*
G36*
X78400000Y-67650000D02*
G01*
X78400000Y-67150000D01*
X77900000Y-67150000D01*
X77900000Y-67650000D01*
X78400000Y-67650000D01*
G37*
G36*
X76400000Y-67650000D02*
G01*
X76400000Y-67150000D01*
X75900000Y-67150000D01*
X75900000Y-67650000D01*
X76400000Y-67650000D01*
G37*
G36*
X74400000Y-67650000D02*
G01*
X74400000Y-67150000D01*
X73900000Y-67150000D01*
X73900000Y-67650000D01*
X74400000Y-67650000D01*
G37*
G36*
X72900000Y-67650000D02*
G01*
X72900000Y-67150000D01*
X72400000Y-67150000D01*
X72400000Y-67650000D01*
X72900000Y-67650000D01*
G37*
G36*
X88400000Y-67150000D02*
G01*
X88400000Y-66650000D01*
X87900000Y-66650000D01*
X87900000Y-67150000D01*
X88400000Y-67150000D01*
G37*
G36*
X86900000Y-67150000D02*
G01*
X86900000Y-66650000D01*
X86400000Y-66650000D01*
X86400000Y-67150000D01*
X86900000Y-67150000D01*
G37*
G36*
X85900000Y-67150000D02*
G01*
X85900000Y-66650000D01*
X85400000Y-66650000D01*
X85400000Y-67150000D01*
X85900000Y-67150000D01*
G37*
G36*
X84400000Y-67150000D02*
G01*
X84400000Y-66650000D01*
X83900000Y-66650000D01*
X83900000Y-67150000D01*
X84400000Y-67150000D01*
G37*
G36*
X83900000Y-67150000D02*
G01*
X83900000Y-66650000D01*
X83400000Y-66650000D01*
X83400000Y-67150000D01*
X83900000Y-67150000D01*
G37*
G36*
X83400000Y-67150000D02*
G01*
X83400000Y-66650000D01*
X82900000Y-66650000D01*
X82900000Y-67150000D01*
X83400000Y-67150000D01*
G37*
G36*
X82900000Y-67150000D02*
G01*
X82900000Y-66650000D01*
X82400000Y-66650000D01*
X82400000Y-67150000D01*
X82900000Y-67150000D01*
G37*
G36*
X82400000Y-67150000D02*
G01*
X82400000Y-66650000D01*
X81900000Y-66650000D01*
X81900000Y-67150000D01*
X82400000Y-67150000D01*
G37*
G36*
X81400000Y-67150000D02*
G01*
X81400000Y-66650000D01*
X80900000Y-66650000D01*
X80900000Y-67150000D01*
X81400000Y-67150000D01*
G37*
G36*
X79900000Y-67150000D02*
G01*
X79900000Y-66650000D01*
X79400000Y-66650000D01*
X79400000Y-67150000D01*
X79900000Y-67150000D01*
G37*
G36*
X79400000Y-67150000D02*
G01*
X79400000Y-66650000D01*
X78900000Y-66650000D01*
X78900000Y-67150000D01*
X79400000Y-67150000D01*
G37*
G36*
X78900000Y-67150000D02*
G01*
X78900000Y-66650000D01*
X78400000Y-66650000D01*
X78400000Y-67150000D01*
X78900000Y-67150000D01*
G37*
G36*
X78400000Y-67150000D02*
G01*
X78400000Y-66650000D01*
X77900000Y-66650000D01*
X77900000Y-67150000D01*
X78400000Y-67150000D01*
G37*
G36*
X76900000Y-67150000D02*
G01*
X76900000Y-66650000D01*
X76400000Y-66650000D01*
X76400000Y-67150000D01*
X76900000Y-67150000D01*
G37*
G36*
X76400000Y-67150000D02*
G01*
X76400000Y-66650000D01*
X75900000Y-66650000D01*
X75900000Y-67150000D01*
X76400000Y-67150000D01*
G37*
G36*
X75900000Y-67150000D02*
G01*
X75900000Y-66650000D01*
X75400000Y-66650000D01*
X75400000Y-67150000D01*
X75900000Y-67150000D01*
G37*
G36*
X75400000Y-67150000D02*
G01*
X75400000Y-66650000D01*
X74900000Y-66650000D01*
X74900000Y-67150000D01*
X75400000Y-67150000D01*
G37*
G36*
X74900000Y-67150000D02*
G01*
X74900000Y-66650000D01*
X74400000Y-66650000D01*
X74400000Y-67150000D01*
X74900000Y-67150000D01*
G37*
G36*
X74400000Y-67150000D02*
G01*
X74400000Y-66650000D01*
X73900000Y-66650000D01*
X73900000Y-67150000D01*
X74400000Y-67150000D01*
G37*
G36*
X73900000Y-67150000D02*
G01*
X73900000Y-66650000D01*
X73400000Y-66650000D01*
X73400000Y-67150000D01*
X73900000Y-67150000D01*
G37*
G36*
X73400000Y-67150000D02*
G01*
X73400000Y-66650000D01*
X72900000Y-66650000D01*
X72900000Y-67150000D01*
X73400000Y-67150000D01*
G37*
G36*
X86900000Y-66650000D02*
G01*
X86900000Y-66150000D01*
X86400000Y-66150000D01*
X86400000Y-66650000D01*
X86900000Y-66650000D01*
G37*
G36*
X85900000Y-66650000D02*
G01*
X85900000Y-66150000D01*
X85400000Y-66150000D01*
X85400000Y-66650000D01*
X85900000Y-66650000D01*
G37*
G36*
X85400000Y-66650000D02*
G01*
X85400000Y-66150000D01*
X84900000Y-66150000D01*
X84900000Y-66650000D01*
X85400000Y-66650000D01*
G37*
G36*
X84400000Y-66650000D02*
G01*
X84400000Y-66150000D01*
X83900000Y-66150000D01*
X83900000Y-66650000D01*
X84400000Y-66650000D01*
G37*
G36*
X83900000Y-66650000D02*
G01*
X83900000Y-66150000D01*
X83400000Y-66150000D01*
X83400000Y-66650000D01*
X83900000Y-66650000D01*
G37*
G36*
X83400000Y-66650000D02*
G01*
X83400000Y-66150000D01*
X82900000Y-66150000D01*
X82900000Y-66650000D01*
X83400000Y-66650000D01*
G37*
G36*
X81400000Y-66650000D02*
G01*
X81400000Y-66150000D01*
X80900000Y-66150000D01*
X80900000Y-66650000D01*
X81400000Y-66650000D01*
G37*
G36*
X80900000Y-66650000D02*
G01*
X80900000Y-66150000D01*
X80400000Y-66150000D01*
X80400000Y-66650000D01*
X80900000Y-66650000D01*
G37*
G36*
X80400000Y-66650000D02*
G01*
X80400000Y-66150000D01*
X79900000Y-66150000D01*
X79900000Y-66650000D01*
X80400000Y-66650000D01*
G37*
G36*
X79900000Y-66650000D02*
G01*
X79900000Y-66150000D01*
X79400000Y-66150000D01*
X79400000Y-66650000D01*
X79900000Y-66650000D01*
G37*
G36*
X79400000Y-66650000D02*
G01*
X79400000Y-66150000D01*
X78900000Y-66150000D01*
X78900000Y-66650000D01*
X79400000Y-66650000D01*
G37*
G36*
X78900000Y-66650000D02*
G01*
X78900000Y-66150000D01*
X78400000Y-66150000D01*
X78400000Y-66650000D01*
X78900000Y-66650000D01*
G37*
G36*
X78400000Y-66650000D02*
G01*
X78400000Y-66150000D01*
X77900000Y-66150000D01*
X77900000Y-66650000D01*
X78400000Y-66650000D01*
G37*
G36*
X75400000Y-66650000D02*
G01*
X75400000Y-66150000D01*
X74900000Y-66150000D01*
X74900000Y-66650000D01*
X75400000Y-66650000D01*
G37*
G36*
X74900000Y-66650000D02*
G01*
X74900000Y-66150000D01*
X74400000Y-66150000D01*
X74400000Y-66650000D01*
X74900000Y-66650000D01*
G37*
G36*
X74400000Y-66650000D02*
G01*
X74400000Y-66150000D01*
X73900000Y-66150000D01*
X73900000Y-66650000D01*
X74400000Y-66650000D01*
G37*
G36*
X73400000Y-66650000D02*
G01*
X73400000Y-66150000D01*
X72900000Y-66150000D01*
X72900000Y-66650000D01*
X73400000Y-66650000D01*
G37*
G36*
X72900000Y-66650000D02*
G01*
X72900000Y-66150000D01*
X72400000Y-66150000D01*
X72400000Y-66650000D01*
X72900000Y-66650000D01*
G37*
G36*
X88400000Y-66150000D02*
G01*
X88400000Y-65650000D01*
X87900000Y-65650000D01*
X87900000Y-66150000D01*
X88400000Y-66150000D01*
G37*
G36*
X85900000Y-66150000D02*
G01*
X85900000Y-65650000D01*
X85400000Y-65650000D01*
X85400000Y-66150000D01*
X85900000Y-66150000D01*
G37*
G36*
X85400000Y-66150000D02*
G01*
X85400000Y-65650000D01*
X84900000Y-65650000D01*
X84900000Y-66150000D01*
X85400000Y-66150000D01*
G37*
G36*
X84400000Y-66150000D02*
G01*
X84400000Y-65650000D01*
X83900000Y-65650000D01*
X83900000Y-66150000D01*
X84400000Y-66150000D01*
G37*
G36*
X82900000Y-66150000D02*
G01*
X82900000Y-65650000D01*
X82400000Y-65650000D01*
X82400000Y-66150000D01*
X82900000Y-66150000D01*
G37*
G36*
X81900000Y-66150000D02*
G01*
X81900000Y-65650000D01*
X81400000Y-65650000D01*
X81400000Y-66150000D01*
X81900000Y-66150000D01*
G37*
G36*
X80400000Y-66150000D02*
G01*
X80400000Y-65650000D01*
X79900000Y-65650000D01*
X79900000Y-66150000D01*
X80400000Y-66150000D01*
G37*
G36*
X79900000Y-66150000D02*
G01*
X79900000Y-65650000D01*
X79400000Y-65650000D01*
X79400000Y-66150000D01*
X79900000Y-66150000D01*
G37*
G36*
X77400000Y-66150000D02*
G01*
X77400000Y-65650000D01*
X76900000Y-65650000D01*
X76900000Y-66150000D01*
X77400000Y-66150000D01*
G37*
G36*
X76900000Y-66150000D02*
G01*
X76900000Y-65650000D01*
X76400000Y-65650000D01*
X76400000Y-66150000D01*
X76900000Y-66150000D01*
G37*
G36*
X75900000Y-66150000D02*
G01*
X75900000Y-65650000D01*
X75400000Y-65650000D01*
X75400000Y-66150000D01*
X75900000Y-66150000D01*
G37*
G36*
X74400000Y-66150000D02*
G01*
X74400000Y-65650000D01*
X73900000Y-65650000D01*
X73900000Y-66150000D01*
X74400000Y-66150000D01*
G37*
G36*
X73900000Y-66150000D02*
G01*
X73900000Y-65650000D01*
X73400000Y-65650000D01*
X73400000Y-66150000D01*
X73900000Y-66150000D01*
G37*
G36*
X72900000Y-66150000D02*
G01*
X72900000Y-65650000D01*
X72400000Y-65650000D01*
X72400000Y-66150000D01*
X72900000Y-66150000D01*
G37*
G36*
X87900000Y-65650000D02*
G01*
X87900000Y-65150000D01*
X87400000Y-65150000D01*
X87400000Y-65650000D01*
X87900000Y-65650000D01*
G37*
G36*
X86400000Y-65650000D02*
G01*
X86400000Y-65150000D01*
X85900000Y-65150000D01*
X85900000Y-65650000D01*
X86400000Y-65650000D01*
G37*
G36*
X85900000Y-65650000D02*
G01*
X85900000Y-65150000D01*
X85400000Y-65150000D01*
X85400000Y-65650000D01*
X85900000Y-65650000D01*
G37*
G36*
X85400000Y-65650000D02*
G01*
X85400000Y-65150000D01*
X84900000Y-65150000D01*
X84900000Y-65650000D01*
X85400000Y-65650000D01*
G37*
G36*
X84900000Y-65650000D02*
G01*
X84900000Y-65150000D01*
X84400000Y-65150000D01*
X84400000Y-65650000D01*
X84900000Y-65650000D01*
G37*
G36*
X83400000Y-65650000D02*
G01*
X83400000Y-65150000D01*
X82900000Y-65150000D01*
X82900000Y-65650000D01*
X83400000Y-65650000D01*
G37*
G36*
X82900000Y-65650000D02*
G01*
X82900000Y-65150000D01*
X82400000Y-65150000D01*
X82400000Y-65650000D01*
X82900000Y-65650000D01*
G37*
G36*
X82400000Y-65650000D02*
G01*
X82400000Y-65150000D01*
X81900000Y-65150000D01*
X81900000Y-65650000D01*
X82400000Y-65650000D01*
G37*
G36*
X81900000Y-65650000D02*
G01*
X81900000Y-65150000D01*
X81400000Y-65150000D01*
X81400000Y-65650000D01*
X81900000Y-65650000D01*
G37*
G36*
X81400000Y-65650000D02*
G01*
X81400000Y-65150000D01*
X80900000Y-65150000D01*
X80900000Y-65650000D01*
X81400000Y-65650000D01*
G37*
G36*
X79900000Y-65650000D02*
G01*
X79900000Y-65150000D01*
X79400000Y-65150000D01*
X79400000Y-65650000D01*
X79900000Y-65650000D01*
G37*
G36*
X79400000Y-65650000D02*
G01*
X79400000Y-65150000D01*
X78900000Y-65150000D01*
X78900000Y-65650000D01*
X79400000Y-65650000D01*
G37*
G36*
X78400000Y-65650000D02*
G01*
X78400000Y-65150000D01*
X77900000Y-65150000D01*
X77900000Y-65650000D01*
X78400000Y-65650000D01*
G37*
G36*
X77400000Y-65650000D02*
G01*
X77400000Y-65150000D01*
X76900000Y-65150000D01*
X76900000Y-65650000D01*
X77400000Y-65650000D01*
G37*
G36*
X76900000Y-65650000D02*
G01*
X76900000Y-65150000D01*
X76400000Y-65150000D01*
X76400000Y-65650000D01*
X76900000Y-65650000D01*
G37*
G36*
X74900000Y-65650000D02*
G01*
X74900000Y-65150000D01*
X74400000Y-65150000D01*
X74400000Y-65650000D01*
X74900000Y-65650000D01*
G37*
G36*
X73400000Y-65650000D02*
G01*
X73400000Y-65150000D01*
X72900000Y-65150000D01*
X72900000Y-65650000D01*
X73400000Y-65650000D01*
G37*
G36*
X72900000Y-65650000D02*
G01*
X72900000Y-65150000D01*
X72400000Y-65150000D01*
X72400000Y-65650000D01*
X72900000Y-65650000D01*
G37*
G36*
X88900000Y-65150000D02*
G01*
X88900000Y-64650000D01*
X88400000Y-64650000D01*
X88400000Y-65150000D01*
X88900000Y-65150000D01*
G37*
G36*
X88400000Y-65150000D02*
G01*
X88400000Y-64650000D01*
X87900000Y-64650000D01*
X87900000Y-65150000D01*
X88400000Y-65150000D01*
G37*
G36*
X87400000Y-65150000D02*
G01*
X87400000Y-64650000D01*
X86900000Y-64650000D01*
X86900000Y-65150000D01*
X87400000Y-65150000D01*
G37*
G36*
X85900000Y-65150000D02*
G01*
X85900000Y-64650000D01*
X85400000Y-64650000D01*
X85400000Y-65150000D01*
X85900000Y-65150000D01*
G37*
G36*
X84900000Y-65150000D02*
G01*
X84900000Y-64650000D01*
X84400000Y-64650000D01*
X84400000Y-65150000D01*
X84900000Y-65150000D01*
G37*
G36*
X83900000Y-65150000D02*
G01*
X83900000Y-64650000D01*
X83400000Y-64650000D01*
X83400000Y-65150000D01*
X83900000Y-65150000D01*
G37*
G36*
X82400000Y-65150000D02*
G01*
X82400000Y-64650000D01*
X81900000Y-64650000D01*
X81900000Y-65150000D01*
X82400000Y-65150000D01*
G37*
G36*
X80900000Y-65150000D02*
G01*
X80900000Y-64650000D01*
X80400000Y-64650000D01*
X80400000Y-65150000D01*
X80900000Y-65150000D01*
G37*
G36*
X79400000Y-65150000D02*
G01*
X79400000Y-64650000D01*
X78900000Y-64650000D01*
X78900000Y-65150000D01*
X79400000Y-65150000D01*
G37*
G36*
X75900000Y-65150000D02*
G01*
X75900000Y-64650000D01*
X75400000Y-64650000D01*
X75400000Y-65150000D01*
X75900000Y-65150000D01*
G37*
G36*
X75400000Y-65150000D02*
G01*
X75400000Y-64650000D01*
X74900000Y-64650000D01*
X74900000Y-65150000D01*
X75400000Y-65150000D01*
G37*
G36*
X72900000Y-65150000D02*
G01*
X72900000Y-64650000D01*
X72400000Y-64650000D01*
X72400000Y-65150000D01*
X72900000Y-65150000D01*
G37*
G36*
X88400000Y-64650000D02*
G01*
X88400000Y-64150000D01*
X87900000Y-64150000D01*
X87900000Y-64650000D01*
X88400000Y-64650000D01*
G37*
G36*
X85400000Y-64650000D02*
G01*
X85400000Y-64150000D01*
X84900000Y-64150000D01*
X84900000Y-64650000D01*
X85400000Y-64650000D01*
G37*
G36*
X84900000Y-64650000D02*
G01*
X84900000Y-64150000D01*
X84400000Y-64150000D01*
X84400000Y-64650000D01*
X84900000Y-64650000D01*
G37*
G36*
X84400000Y-64650000D02*
G01*
X84400000Y-64150000D01*
X83900000Y-64150000D01*
X83900000Y-64650000D01*
X84400000Y-64650000D01*
G37*
G36*
X83900000Y-64650000D02*
G01*
X83900000Y-64150000D01*
X83400000Y-64150000D01*
X83400000Y-64650000D01*
X83900000Y-64650000D01*
G37*
G36*
X82900000Y-64650000D02*
G01*
X82900000Y-64150000D01*
X82400000Y-64150000D01*
X82400000Y-64650000D01*
X82900000Y-64650000D01*
G37*
G36*
X82400000Y-64650000D02*
G01*
X82400000Y-64150000D01*
X81900000Y-64150000D01*
X81900000Y-64650000D01*
X82400000Y-64650000D01*
G37*
G36*
X80400000Y-64650000D02*
G01*
X80400000Y-64150000D01*
X79900000Y-64150000D01*
X79900000Y-64650000D01*
X80400000Y-64650000D01*
G37*
G36*
X79400000Y-64650000D02*
G01*
X79400000Y-64150000D01*
X78900000Y-64150000D01*
X78900000Y-64650000D01*
X79400000Y-64650000D01*
G37*
G36*
X78400000Y-64650000D02*
G01*
X78400000Y-64150000D01*
X77900000Y-64150000D01*
X77900000Y-64650000D01*
X78400000Y-64650000D01*
G37*
G36*
X77900000Y-64650000D02*
G01*
X77900000Y-64150000D01*
X77400000Y-64150000D01*
X77400000Y-64650000D01*
X77900000Y-64650000D01*
G37*
G36*
X77400000Y-64650000D02*
G01*
X77400000Y-64150000D01*
X76900000Y-64150000D01*
X76900000Y-64650000D01*
X77400000Y-64650000D01*
G37*
G36*
X76900000Y-64650000D02*
G01*
X76900000Y-64150000D01*
X76400000Y-64150000D01*
X76400000Y-64650000D01*
X76900000Y-64650000D01*
G37*
G36*
X74400000Y-64650000D02*
G01*
X74400000Y-64150000D01*
X73900000Y-64150000D01*
X73900000Y-64650000D01*
X74400000Y-64650000D01*
G37*
G36*
X73400000Y-64650000D02*
G01*
X73400000Y-64150000D01*
X72900000Y-64150000D01*
X72900000Y-64650000D01*
X73400000Y-64650000D01*
G37*
G36*
X88400000Y-64150000D02*
G01*
X88400000Y-63650000D01*
X87900000Y-63650000D01*
X87900000Y-64150000D01*
X88400000Y-64150000D01*
G37*
G36*
X87400000Y-64150000D02*
G01*
X87400000Y-63650000D01*
X86900000Y-63650000D01*
X86900000Y-64150000D01*
X87400000Y-64150000D01*
G37*
G36*
X85900000Y-64150000D02*
G01*
X85900000Y-63650000D01*
X85400000Y-63650000D01*
X85400000Y-64150000D01*
X85900000Y-64150000D01*
G37*
G36*
X85400000Y-64150000D02*
G01*
X85400000Y-63650000D01*
X84900000Y-63650000D01*
X84900000Y-64150000D01*
X85400000Y-64150000D01*
G37*
G36*
X84400000Y-64150000D02*
G01*
X84400000Y-63650000D01*
X83900000Y-63650000D01*
X83900000Y-64150000D01*
X84400000Y-64150000D01*
G37*
G36*
X82900000Y-64150000D02*
G01*
X82900000Y-63650000D01*
X82400000Y-63650000D01*
X82400000Y-64150000D01*
X82900000Y-64150000D01*
G37*
G36*
X81900000Y-64150000D02*
G01*
X81900000Y-63650000D01*
X81400000Y-63650000D01*
X81400000Y-64150000D01*
X81900000Y-64150000D01*
G37*
G36*
X80400000Y-64150000D02*
G01*
X80400000Y-63650000D01*
X79900000Y-63650000D01*
X79900000Y-64150000D01*
X80400000Y-64150000D01*
G37*
G36*
X79900000Y-64150000D02*
G01*
X79900000Y-63650000D01*
X79400000Y-63650000D01*
X79400000Y-64150000D01*
X79900000Y-64150000D01*
G37*
G36*
X79400000Y-64150000D02*
G01*
X79400000Y-63650000D01*
X78900000Y-63650000D01*
X78900000Y-64150000D01*
X79400000Y-64150000D01*
G37*
G36*
X77900000Y-64150000D02*
G01*
X77900000Y-63650000D01*
X77400000Y-63650000D01*
X77400000Y-64150000D01*
X77900000Y-64150000D01*
G37*
G36*
X77400000Y-64150000D02*
G01*
X77400000Y-63650000D01*
X76900000Y-63650000D01*
X76900000Y-64150000D01*
X77400000Y-64150000D01*
G37*
G36*
X76900000Y-64150000D02*
G01*
X76900000Y-63650000D01*
X76400000Y-63650000D01*
X76400000Y-64150000D01*
X76900000Y-64150000D01*
G37*
G36*
X75900000Y-64150000D02*
G01*
X75900000Y-63650000D01*
X75400000Y-63650000D01*
X75400000Y-64150000D01*
X75900000Y-64150000D01*
G37*
G36*
X74400000Y-64150000D02*
G01*
X74400000Y-63650000D01*
X73900000Y-63650000D01*
X73900000Y-64150000D01*
X74400000Y-64150000D01*
G37*
G36*
X72900000Y-64150000D02*
G01*
X72900000Y-63650000D01*
X72400000Y-63650000D01*
X72400000Y-64150000D01*
X72900000Y-64150000D01*
G37*
G36*
X88900000Y-63650000D02*
G01*
X88900000Y-63150000D01*
X88400000Y-63150000D01*
X88400000Y-63650000D01*
X88900000Y-63650000D01*
G37*
G36*
X87900000Y-63650000D02*
G01*
X87900000Y-63150000D01*
X87400000Y-63150000D01*
X87400000Y-63650000D01*
X87900000Y-63650000D01*
G37*
G36*
X87400000Y-63650000D02*
G01*
X87400000Y-63150000D01*
X86900000Y-63150000D01*
X86900000Y-63650000D01*
X87400000Y-63650000D01*
G37*
G36*
X85400000Y-63650000D02*
G01*
X85400000Y-63150000D01*
X84900000Y-63150000D01*
X84900000Y-63650000D01*
X85400000Y-63650000D01*
G37*
G36*
X84400000Y-63650000D02*
G01*
X84400000Y-63150000D01*
X83900000Y-63150000D01*
X83900000Y-63650000D01*
X84400000Y-63650000D01*
G37*
G36*
X83400000Y-63650000D02*
G01*
X83400000Y-63150000D01*
X82900000Y-63150000D01*
X82900000Y-63650000D01*
X83400000Y-63650000D01*
G37*
G36*
X81900000Y-63650000D02*
G01*
X81900000Y-63150000D01*
X81400000Y-63150000D01*
X81400000Y-63650000D01*
X81900000Y-63650000D01*
G37*
G36*
X81400000Y-63650000D02*
G01*
X81400000Y-63150000D01*
X80900000Y-63150000D01*
X80900000Y-63650000D01*
X81400000Y-63650000D01*
G37*
G36*
X80400000Y-63650000D02*
G01*
X80400000Y-63150000D01*
X79900000Y-63150000D01*
X79900000Y-63650000D01*
X80400000Y-63650000D01*
G37*
G36*
X79900000Y-63650000D02*
G01*
X79900000Y-63150000D01*
X79400000Y-63150000D01*
X79400000Y-63650000D01*
X79900000Y-63650000D01*
G37*
G36*
X77400000Y-63650000D02*
G01*
X77400000Y-63150000D01*
X76900000Y-63150000D01*
X76900000Y-63650000D01*
X77400000Y-63650000D01*
G37*
G36*
X76900000Y-63650000D02*
G01*
X76900000Y-63150000D01*
X76400000Y-63150000D01*
X76400000Y-63650000D01*
X76900000Y-63650000D01*
G37*
G36*
X76400000Y-63650000D02*
G01*
X76400000Y-63150000D01*
X75900000Y-63150000D01*
X75900000Y-63650000D01*
X76400000Y-63650000D01*
G37*
G36*
X74900000Y-63650000D02*
G01*
X74900000Y-63150000D01*
X74400000Y-63150000D01*
X74400000Y-63650000D01*
X74900000Y-63650000D01*
G37*
G36*
X74400000Y-63650000D02*
G01*
X74400000Y-63150000D01*
X73900000Y-63150000D01*
X73900000Y-63650000D01*
X74400000Y-63650000D01*
G37*
G36*
X73900000Y-63650000D02*
G01*
X73900000Y-63150000D01*
X73400000Y-63150000D01*
X73400000Y-63650000D01*
X73900000Y-63650000D01*
G37*
G36*
X72900000Y-63650000D02*
G01*
X72900000Y-63150000D01*
X72400000Y-63150000D01*
X72400000Y-63650000D01*
X72900000Y-63650000D01*
G37*
G36*
X88900000Y-63150000D02*
G01*
X88900000Y-62650000D01*
X88400000Y-62650000D01*
X88400000Y-63150000D01*
X88900000Y-63150000D01*
G37*
G36*
X87400000Y-63150000D02*
G01*
X87400000Y-62650000D01*
X86900000Y-62650000D01*
X86900000Y-63150000D01*
X87400000Y-63150000D01*
G37*
G36*
X86900000Y-63150000D02*
G01*
X86900000Y-62650000D01*
X86400000Y-62650000D01*
X86400000Y-63150000D01*
X86900000Y-63150000D01*
G37*
G36*
X86400000Y-63150000D02*
G01*
X86400000Y-62650000D01*
X85900000Y-62650000D01*
X85900000Y-63150000D01*
X86400000Y-63150000D01*
G37*
G36*
X85900000Y-63150000D02*
G01*
X85900000Y-62650000D01*
X85400000Y-62650000D01*
X85400000Y-63150000D01*
X85900000Y-63150000D01*
G37*
G36*
X85400000Y-63150000D02*
G01*
X85400000Y-62650000D01*
X84900000Y-62650000D01*
X84900000Y-63150000D01*
X85400000Y-63150000D01*
G37*
G36*
X84900000Y-63150000D02*
G01*
X84900000Y-62650000D01*
X84400000Y-62650000D01*
X84400000Y-63150000D01*
X84900000Y-63150000D01*
G37*
G36*
X84400000Y-63150000D02*
G01*
X84400000Y-62650000D01*
X83900000Y-62650000D01*
X83900000Y-63150000D01*
X84400000Y-63150000D01*
G37*
G36*
X83400000Y-63150000D02*
G01*
X83400000Y-62650000D01*
X82900000Y-62650000D01*
X82900000Y-63150000D01*
X83400000Y-63150000D01*
G37*
G36*
X82900000Y-63150000D02*
G01*
X82900000Y-62650000D01*
X82400000Y-62650000D01*
X82400000Y-63150000D01*
X82900000Y-63150000D01*
G37*
G36*
X81900000Y-63150000D02*
G01*
X81900000Y-62650000D01*
X81400000Y-62650000D01*
X81400000Y-63150000D01*
X81900000Y-63150000D01*
G37*
G36*
X81400000Y-63150000D02*
G01*
X81400000Y-62650000D01*
X80900000Y-62650000D01*
X80900000Y-63150000D01*
X81400000Y-63150000D01*
G37*
G36*
X80900000Y-63150000D02*
G01*
X80900000Y-62650000D01*
X80400000Y-62650000D01*
X80400000Y-63150000D01*
X80900000Y-63150000D01*
G37*
G36*
X80400000Y-63150000D02*
G01*
X80400000Y-62650000D01*
X79900000Y-62650000D01*
X79900000Y-63150000D01*
X80400000Y-63150000D01*
G37*
G36*
X78400000Y-63150000D02*
G01*
X78400000Y-62650000D01*
X77900000Y-62650000D01*
X77900000Y-63150000D01*
X78400000Y-63150000D01*
G37*
G36*
X76900000Y-63150000D02*
G01*
X76900000Y-62650000D01*
X76400000Y-62650000D01*
X76400000Y-63150000D01*
X76900000Y-63150000D01*
G37*
G36*
X76400000Y-63150000D02*
G01*
X76400000Y-62650000D01*
X75900000Y-62650000D01*
X75900000Y-63150000D01*
X76400000Y-63150000D01*
G37*
G36*
X75900000Y-63150000D02*
G01*
X75900000Y-62650000D01*
X75400000Y-62650000D01*
X75400000Y-63150000D01*
X75900000Y-63150000D01*
G37*
G36*
X74900000Y-63150000D02*
G01*
X74900000Y-62650000D01*
X74400000Y-62650000D01*
X74400000Y-63150000D01*
X74900000Y-63150000D01*
G37*
G36*
X72900000Y-63150000D02*
G01*
X72900000Y-62650000D01*
X72400000Y-62650000D01*
X72400000Y-63150000D01*
X72900000Y-63150000D01*
G37*
G36*
X84900000Y-62650000D02*
G01*
X84900000Y-62150000D01*
X84400000Y-62150000D01*
X84400000Y-62650000D01*
X84900000Y-62650000D01*
G37*
G36*
X83400000Y-62650000D02*
G01*
X83400000Y-62150000D01*
X82900000Y-62150000D01*
X82900000Y-62650000D01*
X83400000Y-62650000D01*
G37*
G36*
X82900000Y-62650000D02*
G01*
X82900000Y-62150000D01*
X82400000Y-62150000D01*
X82400000Y-62650000D01*
X82900000Y-62650000D01*
G37*
G36*
X82400000Y-62650000D02*
G01*
X82400000Y-62150000D01*
X81900000Y-62150000D01*
X81900000Y-62650000D01*
X82400000Y-62650000D01*
G37*
G36*
X81900000Y-62650000D02*
G01*
X81900000Y-62150000D01*
X81400000Y-62150000D01*
X81400000Y-62650000D01*
X81900000Y-62650000D01*
G37*
G36*
X81400000Y-62650000D02*
G01*
X81400000Y-62150000D01*
X80900000Y-62150000D01*
X80900000Y-62650000D01*
X81400000Y-62650000D01*
G37*
G36*
X77900000Y-62650000D02*
G01*
X77900000Y-62150000D01*
X77400000Y-62150000D01*
X77400000Y-62650000D01*
X77900000Y-62650000D01*
G37*
G36*
X76900000Y-62650000D02*
G01*
X76900000Y-62150000D01*
X76400000Y-62150000D01*
X76400000Y-62650000D01*
X76900000Y-62650000D01*
G37*
G36*
X88900000Y-62150000D02*
G01*
X88900000Y-61650000D01*
X88400000Y-61650000D01*
X88400000Y-62150000D01*
X88900000Y-62150000D01*
G37*
G36*
X88400000Y-62150000D02*
G01*
X88400000Y-61650000D01*
X87900000Y-61650000D01*
X87900000Y-62150000D01*
X88400000Y-62150000D01*
G37*
G36*
X87900000Y-62150000D02*
G01*
X87900000Y-61650000D01*
X87400000Y-61650000D01*
X87400000Y-62150000D01*
X87900000Y-62150000D01*
G37*
G36*
X87400000Y-62150000D02*
G01*
X87400000Y-61650000D01*
X86900000Y-61650000D01*
X86900000Y-62150000D01*
X87400000Y-62150000D01*
G37*
G36*
X86900000Y-62150000D02*
G01*
X86900000Y-61650000D01*
X86400000Y-61650000D01*
X86400000Y-62150000D01*
X86900000Y-62150000D01*
G37*
G36*
X86400000Y-62150000D02*
G01*
X86400000Y-61650000D01*
X85900000Y-61650000D01*
X85900000Y-62150000D01*
X86400000Y-62150000D01*
G37*
G36*
X85900000Y-62150000D02*
G01*
X85900000Y-61650000D01*
X85400000Y-61650000D01*
X85400000Y-62150000D01*
X85900000Y-62150000D01*
G37*
G36*
X84900000Y-62150000D02*
G01*
X84900000Y-61650000D01*
X84400000Y-61650000D01*
X84400000Y-62150000D01*
X84900000Y-62150000D01*
G37*
G36*
X83900000Y-62150000D02*
G01*
X83900000Y-61650000D01*
X83400000Y-61650000D01*
X83400000Y-62150000D01*
X83900000Y-62150000D01*
G37*
G36*
X82900000Y-62150000D02*
G01*
X82900000Y-61650000D01*
X82400000Y-61650000D01*
X82400000Y-62150000D01*
X82900000Y-62150000D01*
G37*
G36*
X81900000Y-62150000D02*
G01*
X81900000Y-61650000D01*
X81400000Y-61650000D01*
X81400000Y-62150000D01*
X81900000Y-62150000D01*
G37*
G36*
X80900000Y-62150000D02*
G01*
X80900000Y-61650000D01*
X80400000Y-61650000D01*
X80400000Y-62150000D01*
X80900000Y-62150000D01*
G37*
G36*
X79900000Y-62150000D02*
G01*
X79900000Y-61650000D01*
X79400000Y-61650000D01*
X79400000Y-62150000D01*
X79900000Y-62150000D01*
G37*
G36*
X78900000Y-62150000D02*
G01*
X78900000Y-61650000D01*
X78400000Y-61650000D01*
X78400000Y-62150000D01*
X78900000Y-62150000D01*
G37*
G36*
X77900000Y-62150000D02*
G01*
X77900000Y-61650000D01*
X77400000Y-61650000D01*
X77400000Y-62150000D01*
X77900000Y-62150000D01*
G37*
G36*
X76900000Y-62150000D02*
G01*
X76900000Y-61650000D01*
X76400000Y-61650000D01*
X76400000Y-62150000D01*
X76900000Y-62150000D01*
G37*
G36*
X75900000Y-62150000D02*
G01*
X75900000Y-61650000D01*
X75400000Y-61650000D01*
X75400000Y-62150000D01*
X75900000Y-62150000D01*
G37*
G36*
X75400000Y-62150000D02*
G01*
X75400000Y-61650000D01*
X74900000Y-61650000D01*
X74900000Y-62150000D01*
X75400000Y-62150000D01*
G37*
G36*
X74900000Y-62150000D02*
G01*
X74900000Y-61650000D01*
X74400000Y-61650000D01*
X74400000Y-62150000D01*
X74900000Y-62150000D01*
G37*
G36*
X74400000Y-62150000D02*
G01*
X74400000Y-61650000D01*
X73900000Y-61650000D01*
X73900000Y-62150000D01*
X74400000Y-62150000D01*
G37*
G36*
X73900000Y-62150000D02*
G01*
X73900000Y-61650000D01*
X73400000Y-61650000D01*
X73400000Y-62150000D01*
X73900000Y-62150000D01*
G37*
G36*
X73400000Y-62150000D02*
G01*
X73400000Y-61650000D01*
X72900000Y-61650000D01*
X72900000Y-62150000D01*
X73400000Y-62150000D01*
G37*
G36*
X72900000Y-62150000D02*
G01*
X72900000Y-61650000D01*
X72400000Y-61650000D01*
X72400000Y-62150000D01*
X72900000Y-62150000D01*
G37*
G36*
X88900000Y-61650000D02*
G01*
X88900000Y-61150000D01*
X88400000Y-61150000D01*
X88400000Y-61650000D01*
X88900000Y-61650000D01*
G37*
G36*
X85900000Y-61650000D02*
G01*
X85900000Y-61150000D01*
X85400000Y-61150000D01*
X85400000Y-61650000D01*
X85900000Y-61650000D01*
G37*
G36*
X84900000Y-61650000D02*
G01*
X84900000Y-61150000D01*
X84400000Y-61150000D01*
X84400000Y-61650000D01*
X84900000Y-61650000D01*
G37*
G36*
X84400000Y-61650000D02*
G01*
X84400000Y-61150000D01*
X83900000Y-61150000D01*
X83900000Y-61650000D01*
X84400000Y-61650000D01*
G37*
G36*
X83400000Y-61650000D02*
G01*
X83400000Y-61150000D01*
X82900000Y-61150000D01*
X82900000Y-61650000D01*
X83400000Y-61650000D01*
G37*
G36*
X82900000Y-61650000D02*
G01*
X82900000Y-61150000D01*
X82400000Y-61150000D01*
X82400000Y-61650000D01*
X82900000Y-61650000D01*
G37*
G36*
X81400000Y-61650000D02*
G01*
X81400000Y-61150000D01*
X80900000Y-61150000D01*
X80900000Y-61650000D01*
X81400000Y-61650000D01*
G37*
G36*
X80400000Y-61650000D02*
G01*
X80400000Y-61150000D01*
X79900000Y-61150000D01*
X79900000Y-61650000D01*
X80400000Y-61650000D01*
G37*
G36*
X79900000Y-61650000D02*
G01*
X79900000Y-61150000D01*
X79400000Y-61150000D01*
X79400000Y-61650000D01*
X79900000Y-61650000D01*
G37*
G36*
X77900000Y-61650000D02*
G01*
X77900000Y-61150000D01*
X77400000Y-61150000D01*
X77400000Y-61650000D01*
X77900000Y-61650000D01*
G37*
G36*
X77400000Y-61650000D02*
G01*
X77400000Y-61150000D01*
X76900000Y-61150000D01*
X76900000Y-61650000D01*
X77400000Y-61650000D01*
G37*
G36*
X76900000Y-61650000D02*
G01*
X76900000Y-61150000D01*
X76400000Y-61150000D01*
X76400000Y-61650000D01*
X76900000Y-61650000D01*
G37*
G36*
X75900000Y-61650000D02*
G01*
X75900000Y-61150000D01*
X75400000Y-61150000D01*
X75400000Y-61650000D01*
X75900000Y-61650000D01*
G37*
G36*
X72900000Y-61650000D02*
G01*
X72900000Y-61150000D01*
X72400000Y-61150000D01*
X72400000Y-61650000D01*
X72900000Y-61650000D01*
G37*
G36*
X88900000Y-61150000D02*
G01*
X88900000Y-60650000D01*
X88400000Y-60650000D01*
X88400000Y-61150000D01*
X88900000Y-61150000D01*
G37*
G36*
X87900000Y-61150000D02*
G01*
X87900000Y-60650000D01*
X87400000Y-60650000D01*
X87400000Y-61150000D01*
X87900000Y-61150000D01*
G37*
G36*
X87400000Y-61150000D02*
G01*
X87400000Y-60650000D01*
X86900000Y-60650000D01*
X86900000Y-61150000D01*
X87400000Y-61150000D01*
G37*
G36*
X86900000Y-61150000D02*
G01*
X86900000Y-60650000D01*
X86400000Y-60650000D01*
X86400000Y-61150000D01*
X86900000Y-61150000D01*
G37*
G36*
X85900000Y-61150000D02*
G01*
X85900000Y-60650000D01*
X85400000Y-60650000D01*
X85400000Y-61150000D01*
X85900000Y-61150000D01*
G37*
G36*
X83900000Y-61150000D02*
G01*
X83900000Y-60650000D01*
X83400000Y-60650000D01*
X83400000Y-61150000D01*
X83900000Y-61150000D01*
G37*
G36*
X82400000Y-61150000D02*
G01*
X82400000Y-60650000D01*
X81900000Y-60650000D01*
X81900000Y-61150000D01*
X82400000Y-61150000D01*
G37*
G36*
X81400000Y-61150000D02*
G01*
X81400000Y-60650000D01*
X80900000Y-60650000D01*
X80900000Y-61150000D01*
X81400000Y-61150000D01*
G37*
G36*
X80900000Y-61150000D02*
G01*
X80900000Y-60650000D01*
X80400000Y-60650000D01*
X80400000Y-61150000D01*
X80900000Y-61150000D01*
G37*
G36*
X78900000Y-61150000D02*
G01*
X78900000Y-60650000D01*
X78400000Y-60650000D01*
X78400000Y-61150000D01*
X78900000Y-61150000D01*
G37*
G36*
X78400000Y-61150000D02*
G01*
X78400000Y-60650000D01*
X77900000Y-60650000D01*
X77900000Y-61150000D01*
X78400000Y-61150000D01*
G37*
G36*
X77900000Y-61150000D02*
G01*
X77900000Y-60650000D01*
X77400000Y-60650000D01*
X77400000Y-61150000D01*
X77900000Y-61150000D01*
G37*
G36*
X76900000Y-61150000D02*
G01*
X76900000Y-60650000D01*
X76400000Y-60650000D01*
X76400000Y-61150000D01*
X76900000Y-61150000D01*
G37*
G36*
X75900000Y-61150000D02*
G01*
X75900000Y-60650000D01*
X75400000Y-60650000D01*
X75400000Y-61150000D01*
X75900000Y-61150000D01*
G37*
G36*
X74900000Y-61150000D02*
G01*
X74900000Y-60650000D01*
X74400000Y-60650000D01*
X74400000Y-61150000D01*
X74900000Y-61150000D01*
G37*
G36*
X74400000Y-61150000D02*
G01*
X74400000Y-60650000D01*
X73900000Y-60650000D01*
X73900000Y-61150000D01*
X74400000Y-61150000D01*
G37*
G36*
X73900000Y-61150000D02*
G01*
X73900000Y-60650000D01*
X73400000Y-60650000D01*
X73400000Y-61150000D01*
X73900000Y-61150000D01*
G37*
G36*
X72900000Y-61150000D02*
G01*
X72900000Y-60650000D01*
X72400000Y-60650000D01*
X72400000Y-61150000D01*
X72900000Y-61150000D01*
G37*
G36*
X88900000Y-60650000D02*
G01*
X88900000Y-60150000D01*
X88400000Y-60150000D01*
X88400000Y-60650000D01*
X88900000Y-60650000D01*
G37*
G36*
X87900000Y-60650000D02*
G01*
X87900000Y-60150000D01*
X87400000Y-60150000D01*
X87400000Y-60650000D01*
X87900000Y-60650000D01*
G37*
G36*
X87400000Y-60650000D02*
G01*
X87400000Y-60150000D01*
X86900000Y-60150000D01*
X86900000Y-60650000D01*
X87400000Y-60650000D01*
G37*
G36*
X86900000Y-60650000D02*
G01*
X86900000Y-60150000D01*
X86400000Y-60150000D01*
X86400000Y-60650000D01*
X86900000Y-60650000D01*
G37*
G36*
X85900000Y-60650000D02*
G01*
X85900000Y-60150000D01*
X85400000Y-60150000D01*
X85400000Y-60650000D01*
X85900000Y-60650000D01*
G37*
G36*
X83900000Y-60650000D02*
G01*
X83900000Y-60150000D01*
X83400000Y-60150000D01*
X83400000Y-60650000D01*
X83900000Y-60650000D01*
G37*
G36*
X83400000Y-60650000D02*
G01*
X83400000Y-60150000D01*
X82900000Y-60150000D01*
X82900000Y-60650000D01*
X83400000Y-60650000D01*
G37*
G36*
X82400000Y-60650000D02*
G01*
X82400000Y-60150000D01*
X81900000Y-60150000D01*
X81900000Y-60650000D01*
X82400000Y-60650000D01*
G37*
G36*
X81400000Y-60650000D02*
G01*
X81400000Y-60150000D01*
X80900000Y-60150000D01*
X80900000Y-60650000D01*
X81400000Y-60650000D01*
G37*
G36*
X80900000Y-60650000D02*
G01*
X80900000Y-60150000D01*
X80400000Y-60150000D01*
X80400000Y-60650000D01*
X80900000Y-60650000D01*
G37*
G36*
X80400000Y-60650000D02*
G01*
X80400000Y-60150000D01*
X79900000Y-60150000D01*
X79900000Y-60650000D01*
X80400000Y-60650000D01*
G37*
G36*
X78400000Y-60650000D02*
G01*
X78400000Y-60150000D01*
X77900000Y-60150000D01*
X77900000Y-60650000D01*
X78400000Y-60650000D01*
G37*
G36*
X77900000Y-60650000D02*
G01*
X77900000Y-60150000D01*
X77400000Y-60150000D01*
X77400000Y-60650000D01*
X77900000Y-60650000D01*
G37*
G36*
X77400000Y-60650000D02*
G01*
X77400000Y-60150000D01*
X76900000Y-60150000D01*
X76900000Y-60650000D01*
X77400000Y-60650000D01*
G37*
G36*
X76900000Y-60650000D02*
G01*
X76900000Y-60150000D01*
X76400000Y-60150000D01*
X76400000Y-60650000D01*
X76900000Y-60650000D01*
G37*
G36*
X75900000Y-60650000D02*
G01*
X75900000Y-60150000D01*
X75400000Y-60150000D01*
X75400000Y-60650000D01*
X75900000Y-60650000D01*
G37*
G36*
X74900000Y-60650000D02*
G01*
X74900000Y-60150000D01*
X74400000Y-60150000D01*
X74400000Y-60650000D01*
X74900000Y-60650000D01*
G37*
G36*
X74400000Y-60650000D02*
G01*
X74400000Y-60150000D01*
X73900000Y-60150000D01*
X73900000Y-60650000D01*
X74400000Y-60650000D01*
G37*
G36*
X73900000Y-60650000D02*
G01*
X73900000Y-60150000D01*
X73400000Y-60150000D01*
X73400000Y-60650000D01*
X73900000Y-60650000D01*
G37*
G36*
X72900000Y-60650000D02*
G01*
X72900000Y-60150000D01*
X72400000Y-60150000D01*
X72400000Y-60650000D01*
X72900000Y-60650000D01*
G37*
G36*
X88900000Y-60150000D02*
G01*
X88900000Y-59650000D01*
X88400000Y-59650000D01*
X88400000Y-60150000D01*
X88900000Y-60150000D01*
G37*
G36*
X87900000Y-60150000D02*
G01*
X87900000Y-59650000D01*
X87400000Y-59650000D01*
X87400000Y-60150000D01*
X87900000Y-60150000D01*
G37*
G36*
X87400000Y-60150000D02*
G01*
X87400000Y-59650000D01*
X86900000Y-59650000D01*
X86900000Y-60150000D01*
X87400000Y-60150000D01*
G37*
G36*
X86900000Y-60150000D02*
G01*
X86900000Y-59650000D01*
X86400000Y-59650000D01*
X86400000Y-60150000D01*
X86900000Y-60150000D01*
G37*
G36*
X85900000Y-60150000D02*
G01*
X85900000Y-59650000D01*
X85400000Y-59650000D01*
X85400000Y-60150000D01*
X85900000Y-60150000D01*
G37*
G36*
X84900000Y-60150000D02*
G01*
X84900000Y-59650000D01*
X84400000Y-59650000D01*
X84400000Y-60150000D01*
X84900000Y-60150000D01*
G37*
G36*
X83400000Y-60150000D02*
G01*
X83400000Y-59650000D01*
X82900000Y-59650000D01*
X82900000Y-60150000D01*
X83400000Y-60150000D01*
G37*
G36*
X82900000Y-60150000D02*
G01*
X82900000Y-59650000D01*
X82400000Y-59650000D01*
X82400000Y-60150000D01*
X82900000Y-60150000D01*
G37*
G36*
X82400000Y-60150000D02*
G01*
X82400000Y-59650000D01*
X81900000Y-59650000D01*
X81900000Y-60150000D01*
X82400000Y-60150000D01*
G37*
G36*
X81900000Y-60150000D02*
G01*
X81900000Y-59650000D01*
X81400000Y-59650000D01*
X81400000Y-60150000D01*
X81900000Y-60150000D01*
G37*
G36*
X81400000Y-60150000D02*
G01*
X81400000Y-59650000D01*
X80900000Y-59650000D01*
X80900000Y-60150000D01*
X81400000Y-60150000D01*
G37*
G36*
X79900000Y-60150000D02*
G01*
X79900000Y-59650000D01*
X79400000Y-59650000D01*
X79400000Y-60150000D01*
X79900000Y-60150000D01*
G37*
G36*
X78400000Y-60150000D02*
G01*
X78400000Y-59650000D01*
X77900000Y-59650000D01*
X77900000Y-60150000D01*
X78400000Y-60150000D01*
G37*
G36*
X77400000Y-60150000D02*
G01*
X77400000Y-59650000D01*
X76900000Y-59650000D01*
X76900000Y-60150000D01*
X77400000Y-60150000D01*
G37*
G36*
X75900000Y-60150000D02*
G01*
X75900000Y-59650000D01*
X75400000Y-59650000D01*
X75400000Y-60150000D01*
X75900000Y-60150000D01*
G37*
G36*
X74900000Y-60150000D02*
G01*
X74900000Y-59650000D01*
X74400000Y-59650000D01*
X74400000Y-60150000D01*
X74900000Y-60150000D01*
G37*
G36*
X74400000Y-60150000D02*
G01*
X74400000Y-59650000D01*
X73900000Y-59650000D01*
X73900000Y-60150000D01*
X74400000Y-60150000D01*
G37*
G36*
X73900000Y-60150000D02*
G01*
X73900000Y-59650000D01*
X73400000Y-59650000D01*
X73400000Y-60150000D01*
X73900000Y-60150000D01*
G37*
G36*
X72900000Y-60150000D02*
G01*
X72900000Y-59650000D01*
X72400000Y-59650000D01*
X72400000Y-60150000D01*
X72900000Y-60150000D01*
G37*
G36*
X88900000Y-59650000D02*
G01*
X88900000Y-59150000D01*
X88400000Y-59150000D01*
X88400000Y-59650000D01*
X88900000Y-59650000D01*
G37*
G36*
X85900000Y-59650000D02*
G01*
X85900000Y-59150000D01*
X85400000Y-59150000D01*
X85400000Y-59650000D01*
X85900000Y-59650000D01*
G37*
G36*
X82400000Y-59650000D02*
G01*
X82400000Y-59150000D01*
X81900000Y-59150000D01*
X81900000Y-59650000D01*
X82400000Y-59650000D01*
G37*
G36*
X81900000Y-59650000D02*
G01*
X81900000Y-59150000D01*
X81400000Y-59150000D01*
X81400000Y-59650000D01*
X81900000Y-59650000D01*
G37*
G36*
X79900000Y-59650000D02*
G01*
X79900000Y-59150000D01*
X79400000Y-59150000D01*
X79400000Y-59650000D01*
X79900000Y-59650000D01*
G37*
G36*
X79400000Y-59650000D02*
G01*
X79400000Y-59150000D01*
X78900000Y-59150000D01*
X78900000Y-59650000D01*
X79400000Y-59650000D01*
G37*
G36*
X77900000Y-59650000D02*
G01*
X77900000Y-59150000D01*
X77400000Y-59150000D01*
X77400000Y-59650000D01*
X77900000Y-59650000D01*
G37*
G36*
X75900000Y-59650000D02*
G01*
X75900000Y-59150000D01*
X75400000Y-59150000D01*
X75400000Y-59650000D01*
X75900000Y-59650000D01*
G37*
G36*
X72900000Y-59650000D02*
G01*
X72900000Y-59150000D01*
X72400000Y-59150000D01*
X72400000Y-59650000D01*
X72900000Y-59650000D01*
G37*
G36*
X88900000Y-59150000D02*
G01*
X88900000Y-58650000D01*
X88400000Y-58650000D01*
X88400000Y-59150000D01*
X88900000Y-59150000D01*
G37*
G36*
X88400000Y-59150000D02*
G01*
X88400000Y-58650000D01*
X87900000Y-58650000D01*
X87900000Y-59150000D01*
X88400000Y-59150000D01*
G37*
G36*
X87900000Y-59150000D02*
G01*
X87900000Y-58650000D01*
X87400000Y-58650000D01*
X87400000Y-59150000D01*
X87900000Y-59150000D01*
G37*
G36*
X87400000Y-59150000D02*
G01*
X87400000Y-58650000D01*
X86900000Y-58650000D01*
X86900000Y-59150000D01*
X87400000Y-59150000D01*
G37*
G36*
X86900000Y-59150000D02*
G01*
X86900000Y-58650000D01*
X86400000Y-58650000D01*
X86400000Y-59150000D01*
X86900000Y-59150000D01*
G37*
G36*
X86400000Y-59150000D02*
G01*
X86400000Y-58650000D01*
X85900000Y-58650000D01*
X85900000Y-59150000D01*
X86400000Y-59150000D01*
G37*
G36*
X85900000Y-59150000D02*
G01*
X85900000Y-58650000D01*
X85400000Y-58650000D01*
X85400000Y-59150000D01*
X85900000Y-59150000D01*
G37*
G36*
X84400000Y-59150000D02*
G01*
X84400000Y-58650000D01*
X83900000Y-58650000D01*
X83900000Y-59150000D01*
X84400000Y-59150000D01*
G37*
G36*
X83900000Y-59150000D02*
G01*
X83900000Y-58650000D01*
X83400000Y-58650000D01*
X83400000Y-59150000D01*
X83900000Y-59150000D01*
G37*
G36*
X81900000Y-59150000D02*
G01*
X81900000Y-58650000D01*
X81400000Y-58650000D01*
X81400000Y-59150000D01*
X81900000Y-59150000D01*
G37*
G36*
X80900000Y-59150000D02*
G01*
X80900000Y-58650000D01*
X80400000Y-58650000D01*
X80400000Y-59150000D01*
X80900000Y-59150000D01*
G37*
G36*
X79400000Y-59150000D02*
G01*
X79400000Y-58650000D01*
X78900000Y-58650000D01*
X78900000Y-59150000D01*
X79400000Y-59150000D01*
G37*
G36*
X78900000Y-59150000D02*
G01*
X78900000Y-58650000D01*
X78400000Y-58650000D01*
X78400000Y-59150000D01*
X78900000Y-59150000D01*
G37*
G36*
X76900000Y-59150000D02*
G01*
X76900000Y-58650000D01*
X76400000Y-58650000D01*
X76400000Y-59150000D01*
X76900000Y-59150000D01*
G37*
G36*
X75900000Y-59150000D02*
G01*
X75900000Y-58650000D01*
X75400000Y-58650000D01*
X75400000Y-59150000D01*
X75900000Y-59150000D01*
G37*
G36*
X75400000Y-59150000D02*
G01*
X75400000Y-58650000D01*
X74900000Y-58650000D01*
X74900000Y-59150000D01*
X75400000Y-59150000D01*
G37*
G36*
X74900000Y-59150000D02*
G01*
X74900000Y-58650000D01*
X74400000Y-58650000D01*
X74400000Y-59150000D01*
X74900000Y-59150000D01*
G37*
G36*
X74400000Y-59150000D02*
G01*
X74400000Y-58650000D01*
X73900000Y-58650000D01*
X73900000Y-59150000D01*
X74400000Y-59150000D01*
G37*
G36*
X73900000Y-59150000D02*
G01*
X73900000Y-58650000D01*
X73400000Y-58650000D01*
X73400000Y-59150000D01*
X73900000Y-59150000D01*
G37*
G36*
X73400000Y-59150000D02*
G01*
X73400000Y-58650000D01*
X72900000Y-58650000D01*
X72900000Y-59150000D01*
X73400000Y-59150000D01*
G37*
G36*
X72900000Y-59150000D02*
G01*
X72900000Y-58650000D01*
X72400000Y-58650000D01*
X72400000Y-59150000D01*
X72900000Y-59150000D01*
G37*
D12*
X59674900Y-105041700D02*
X68298200Y-105041700D01*
X78450000Y-101750000D02*
X81350000Y-101750000D01*
X81350000Y-101750000D02*
X81350000Y-104650000D01*
X81350000Y-104650000D02*
X78450000Y-104650000D01*
X78450000Y-104650000D02*
X78450000Y-101750000D01*
X99690000Y-91960000D02*
X99690000Y-92410000D01*
X102910000Y-89190000D02*
X102460000Y-89190000D01*
X102910000Y-89640000D02*
X102910000Y-89190000D01*
X102910000Y-92410000D02*
X102460000Y-92410000D01*
X102910000Y-91960000D02*
X102910000Y-92410000D01*
X99690000Y-89190000D02*
X100140000Y-89190000D01*
X99690000Y-89640000D02*
X99690000Y-89190000D01*
X99700000Y-64350000D02*
X99700000Y-64800000D01*
X102920000Y-61580000D02*
X102470000Y-61580000D01*
X102920000Y-62030000D02*
X102920000Y-61580000D01*
X102920000Y-64800000D02*
X102470000Y-64800000D01*
X102920000Y-64350000D02*
X102920000Y-64800000D01*
X99700000Y-61580000D02*
X100150000Y-61580000D01*
X99700000Y-62030000D02*
X99700000Y-61580000D01*
X99690000Y-78260000D02*
X99690000Y-78710000D01*
X102910000Y-75490000D02*
X102460000Y-75490000D01*
X102910000Y-75940000D02*
X102910000Y-75490000D01*
X102910000Y-78710000D02*
X102460000Y-78710000D01*
X102910000Y-78260000D02*
X102910000Y-78710000D01*
X99690000Y-75490000D02*
X100140000Y-75490000D01*
X99690000Y-75940000D02*
X99690000Y-75490000D01*
X65016000Y-92411000D02*
X65491000Y-92411000D01*
X62271000Y-89191000D02*
X62271000Y-89666000D01*
X62746000Y-89191000D02*
X62271000Y-89191000D01*
X65491000Y-89191000D02*
X65491000Y-89666000D01*
X65016000Y-89191000D02*
X65491000Y-89191000D01*
X62271000Y-92411000D02*
X62271000Y-91936000D01*
X62746000Y-92411000D02*
X62271000Y-92411000D01*
X88400000Y-81700000D02*
G75*
G03*
X88400000Y-81700000I-1200000J0D01*
G01*
X75000000Y-94400000D02*
G75*
G03*
X75000000Y-94400000I-1200000J0D01*
G01*
X70100000Y-75900000D02*
G75*
G03*
X70100000Y-75900000I-1200000J0D01*
G01*
X48460500Y-91230500D02*
X48460500Y-91230500D01*
X48460500Y-92030500D02*
X48460500Y-91230500D01*
X48460500Y-92330500D02*
X48460500Y-92330500D01*
X48460500Y-92830500D02*
X48460500Y-92330500D01*
X48460500Y-90930500D02*
X48460500Y-90930500D01*
X48460500Y-90430500D02*
X48460500Y-90930500D01*
X49760500Y-89630500D02*
X49760500Y-89630500D01*
X49260500Y-89630500D02*
X49760500Y-89630500D01*
X49760500Y-93630500D02*
X49760500Y-93630500D01*
X49260500Y-93630500D02*
X49760500Y-93630500D01*
X48960500Y-93630500D02*
X48960500Y-93630500D01*
X48460500Y-93630500D02*
X48960500Y-93630500D01*
X48460500Y-93130500D02*
X48460500Y-93130500D01*
X48460500Y-93630500D02*
X48460500Y-93130500D01*
X48460500Y-90130500D02*
X48460500Y-90130500D01*
X48460500Y-89630500D02*
X48460500Y-90130500D01*
X48960500Y-89630500D02*
X48960500Y-89630500D01*
X48460500Y-89630500D02*
X48960500Y-89630500D01*
X50360500Y-87030500D02*
X50360500Y-87030500D01*
X50360500Y-88730500D02*
X50360500Y-87030500D01*
X50060500Y-88730500D02*
X50360500Y-88730500D01*
X50060500Y-89530500D02*
X50060500Y-88730500D01*
X50360500Y-89530500D02*
X50060500Y-89530500D01*
X50360500Y-91230500D02*
X50360500Y-89530500D01*
X50060500Y-91230500D02*
X50360500Y-91230500D01*
X50060500Y-92030500D02*
X50060500Y-91230500D01*
X50360500Y-92030500D02*
X50060500Y-92030500D01*
X50360500Y-93730500D02*
X50360500Y-92030500D01*
X50060500Y-93730500D02*
X50360500Y-93730500D01*
X50060500Y-94530500D02*
X50060500Y-93730500D01*
X50360500Y-94530500D02*
X50060500Y-94530500D01*
X50360500Y-96230500D02*
X50360500Y-94530500D01*
X54160500Y-89830500D02*
X54160500Y-89830500D01*
X54160500Y-90930500D02*
X54160500Y-89830500D01*
X54160500Y-92330500D02*
X54160500Y-92330500D01*
X54160500Y-93430500D02*
X54160500Y-92330500D01*
X54160500Y-87030500D02*
X54160500Y-88430500D01*
X50360500Y-87030500D02*
X54160500Y-87030500D01*
X54160500Y-96230500D02*
X50360500Y-96230500D01*
X54160500Y-94830500D02*
X54160500Y-96230500D01*
X57290000Y-90837221D02*
X57290000Y-91162779D01*
X58310000Y-90837221D02*
X58310000Y-91162779D01*
X102490000Y-94637221D02*
X102490000Y-94962779D01*
X103510000Y-94637221D02*
X103510000Y-94962779D01*
X99810000Y-87262779D02*
X99810000Y-86937221D01*
X98790000Y-87262779D02*
X98790000Y-86937221D01*
X97190000Y-86937221D02*
X97190000Y-87262779D01*
X98210000Y-86937221D02*
X98210000Y-87262779D01*
X102190000Y-67137221D02*
X102190000Y-67462779D01*
X103210000Y-67137221D02*
X103210000Y-67462779D01*
X99910000Y-59662779D02*
X99910000Y-59337221D01*
X98890000Y-59662779D02*
X98890000Y-59337221D01*
X97290000Y-59337221D02*
X97290000Y-59662779D01*
X98310000Y-59337221D02*
X98310000Y-59662779D01*
X102590000Y-80737221D02*
X102590000Y-81062779D01*
X103610000Y-80737221D02*
X103610000Y-81062779D01*
X91487279Y-86265000D02*
X91161721Y-86265000D01*
X91487279Y-87285000D02*
X91161721Y-87285000D01*
X91161721Y-85634000D02*
X91487279Y-85634000D01*
X91161721Y-84614000D02*
X91487279Y-84614000D01*
X99510000Y-73562779D02*
X99510000Y-73237221D01*
X98490000Y-73562779D02*
X98490000Y-73237221D01*
X80819279Y-94647000D02*
X80493721Y-94647000D01*
X80819279Y-95667000D02*
X80493721Y-95667000D01*
X82686500Y-93978221D02*
X82686500Y-94303779D01*
X83706500Y-93978221D02*
X83706500Y-94303779D01*
X68605000Y-86395779D02*
X68605000Y-86070221D01*
X67585000Y-86395779D02*
X67585000Y-86070221D01*
X66954000Y-86395779D02*
X66954000Y-86070221D01*
X65934000Y-86395779D02*
X65934000Y-86070221D01*
X68347000Y-93055221D02*
X68347000Y-93380779D01*
X69367000Y-93055221D02*
X69367000Y-93380779D01*
X64219500Y-96547721D02*
X64219500Y-96873279D01*
X65239500Y-96547721D02*
X65239500Y-96873279D01*
X62632000Y-96547721D02*
X62632000Y-96873279D01*
X63652000Y-96547721D02*
X63652000Y-96873279D01*
X67335000Y-93444279D02*
X67335000Y-93118721D01*
X66315000Y-93444279D02*
X66315000Y-93118721D01*
X96890000Y-73237221D02*
X96890000Y-73562779D01*
X97910000Y-73237221D02*
X97910000Y-73562779D01*
X61429500Y-93444279D02*
X61429500Y-93118721D01*
X60409500Y-93444279D02*
X60409500Y-93118721D01*
X104900000Y-94300000D02*
X105500000Y-94600000D01*
X104900000Y-94900000D02*
X104900000Y-94300000D01*
X105500000Y-94600000D02*
X104900000Y-94900000D01*
X110200000Y-86850000D02*
X110200000Y-87350000D01*
X115700000Y-86850000D02*
X110200000Y-86850000D01*
X115700000Y-87350000D02*
X115700000Y-86850000D01*
X110200000Y-87350000D02*
X115700000Y-87350000D01*
X110200000Y-89350000D02*
X110200000Y-89850000D01*
X115700000Y-89350000D02*
X110200000Y-89350000D01*
X115700000Y-89850000D02*
X115700000Y-89350000D01*
X110200000Y-89850000D02*
X115700000Y-89850000D01*
X110200000Y-91850000D02*
X110200000Y-92350000D01*
X115700000Y-91850000D02*
X110200000Y-91850000D01*
X115700000Y-92350000D02*
X115700000Y-91850000D01*
X110200000Y-92350000D02*
X115700000Y-92350000D01*
X110200000Y-94350000D02*
X110200000Y-94850000D01*
X115700000Y-94350000D02*
X110200000Y-94350000D01*
X115700000Y-94850000D02*
X115700000Y-94350000D01*
X110200000Y-94850000D02*
X115700000Y-94850000D01*
X109090000Y-85960000D02*
X109090000Y-90850000D01*
X104590000Y-85960000D02*
X109090000Y-85960000D01*
X104590000Y-84540000D02*
X104590000Y-85960000D01*
X116310000Y-84540000D02*
X104590000Y-84540000D01*
X116310000Y-90850000D02*
X116310000Y-84540000D01*
X109090000Y-95740000D02*
X109090000Y-90850000D01*
X104590000Y-95740000D02*
X109090000Y-95740000D01*
X104590000Y-97160000D02*
X104590000Y-95740000D01*
X116310000Y-97160000D02*
X104590000Y-97160000D01*
X116310000Y-90850000D02*
X116310000Y-97160000D01*
X104800000Y-66600000D02*
X105400000Y-66900000D01*
X104800000Y-67200000D02*
X104800000Y-66600000D01*
X105400000Y-66900000D02*
X104800000Y-67200000D01*
X110100000Y-59150000D02*
X110100000Y-59650000D01*
X115600000Y-59150000D02*
X110100000Y-59150000D01*
X115600000Y-59650000D02*
X115600000Y-59150000D01*
X110100000Y-59650000D02*
X115600000Y-59650000D01*
X110100000Y-61650000D02*
X110100000Y-62150000D01*
X115600000Y-61650000D02*
X110100000Y-61650000D01*
X115600000Y-62150000D02*
X115600000Y-61650000D01*
X110100000Y-62150000D02*
X115600000Y-62150000D01*
X110100000Y-64150000D02*
X110100000Y-64650000D01*
X115600000Y-64150000D02*
X110100000Y-64150000D01*
X115600000Y-64650000D02*
X115600000Y-64150000D01*
X110100000Y-64650000D02*
X115600000Y-64650000D01*
X110100000Y-66650000D02*
X110100000Y-67150000D01*
X115600000Y-66650000D02*
X110100000Y-66650000D01*
X115600000Y-67150000D02*
X115600000Y-66650000D01*
X110100000Y-67150000D02*
X115600000Y-67150000D01*
X108990000Y-58260000D02*
X108990000Y-63150000D01*
X104490000Y-58260000D02*
X108990000Y-58260000D01*
X104490000Y-56840000D02*
X104490000Y-58260000D01*
X116210000Y-56840000D02*
X104490000Y-56840000D01*
X116210000Y-63150000D02*
X116210000Y-56840000D01*
X108990000Y-68040000D02*
X108990000Y-63150000D01*
X104490000Y-68040000D02*
X108990000Y-68040000D01*
X104490000Y-69460000D02*
X104490000Y-68040000D01*
X116210000Y-69460000D02*
X104490000Y-69460000D01*
X116210000Y-63150000D02*
X116210000Y-69460000D01*
X104834000Y-80437000D02*
X105434000Y-80737000D01*
X104834000Y-81037000D02*
X104834000Y-80437000D01*
X105434000Y-80737000D02*
X104834000Y-81037000D01*
X110134000Y-72987000D02*
X110134000Y-73487000D01*
X115634000Y-72987000D02*
X110134000Y-72987000D01*
X115634000Y-73487000D02*
X115634000Y-72987000D01*
X110134000Y-73487000D02*
X115634000Y-73487000D01*
X110134000Y-75487000D02*
X110134000Y-75987000D01*
X115634000Y-75487000D02*
X110134000Y-75487000D01*
X115634000Y-75987000D02*
X115634000Y-75487000D01*
X110134000Y-75987000D02*
X115634000Y-75987000D01*
X110134000Y-77987000D02*
X110134000Y-78487000D01*
X115634000Y-77987000D02*
X110134000Y-77987000D01*
X115634000Y-78487000D02*
X115634000Y-77987000D01*
X110134000Y-78487000D02*
X115634000Y-78487000D01*
X110134000Y-80487000D02*
X110134000Y-80987000D01*
X115634000Y-80487000D02*
X110134000Y-80487000D01*
X115634000Y-80987000D02*
X115634000Y-80487000D01*
X110134000Y-80987000D02*
X115634000Y-80987000D01*
X109024000Y-72097000D02*
X109024000Y-76987000D01*
X104524000Y-72097000D02*
X109024000Y-72097000D01*
X104524000Y-70677000D02*
X104524000Y-72097000D01*
X116244000Y-70677000D02*
X104524000Y-70677000D01*
X116244000Y-76987000D02*
X116244000Y-70677000D01*
X109024000Y-81877000D02*
X109024000Y-76987000D01*
X104524000Y-81877000D02*
X109024000Y-81877000D01*
X104524000Y-83297000D02*
X104524000Y-81877000D01*
X116244000Y-83297000D02*
X104524000Y-83297000D01*
X116244000Y-76987000D02*
X116244000Y-83297000D01*
X63750000Y-87718000D02*
X63750000Y-85433000D01*
X62280000Y-87718000D02*
X63750000Y-87718000D01*
X62280000Y-85433000D02*
X62280000Y-87718000D01*
X65528000Y-87718000D02*
X65528000Y-85433000D01*
X64058000Y-87718000D02*
X65528000Y-87718000D01*
X64058000Y-85433000D02*
X64058000Y-87718000D01*
X101610000Y-87262779D02*
X101610000Y-86937221D01*
X100590000Y-87262779D02*
X100590000Y-86937221D01*
X97140000Y-96410000D02*
X101350000Y-96410000D01*
X97140000Y-93390000D02*
X97140000Y-96410000D01*
X101350000Y-93390000D02*
X97140000Y-93390000D01*
X98810000Y-90562779D02*
X98810000Y-90237221D01*
X97790000Y-90562779D02*
X97790000Y-90237221D01*
X103210000Y-87262779D02*
X103210000Y-86937221D01*
X102190000Y-87262779D02*
X102190000Y-86937221D01*
X101710000Y-59662779D02*
X101710000Y-59337221D01*
X100690000Y-59662779D02*
X100690000Y-59337221D01*
X96840000Y-68910000D02*
X101050000Y-68910000D01*
X96840000Y-65890000D02*
X96840000Y-68910000D01*
X101050000Y-65890000D02*
X96840000Y-65890000D01*
X98710000Y-62762779D02*
X98710000Y-62437221D01*
X97690000Y-62762779D02*
X97690000Y-62437221D01*
X103210000Y-73562779D02*
X103210000Y-73237221D01*
X102190000Y-73562779D02*
X102190000Y-73237221D01*
X84873500Y-84524000D02*
X84873500Y-92584000D01*
X89393500Y-84524000D02*
X84873500Y-84524000D01*
X89393500Y-92584000D02*
X89393500Y-84524000D01*
X101510000Y-73562779D02*
X101510000Y-73237221D01*
X100490000Y-73562779D02*
X100490000Y-73237221D01*
X97240000Y-82610000D02*
X101450000Y-82610000D01*
X97240000Y-79590000D02*
X97240000Y-82610000D01*
X101450000Y-79590000D02*
X97240000Y-79590000D01*
X98710000Y-76662779D02*
X98710000Y-76337221D01*
X97690000Y-76662779D02*
X97690000Y-76337221D01*
X61439000Y-90047578D02*
X61439000Y-89530422D01*
X60019000Y-90047578D02*
X60019000Y-89530422D01*
X67725500Y-89984078D02*
X67725500Y-89466922D01*
X66305500Y-89984078D02*
X66305500Y-89466922D01*
X63391422Y-94690000D02*
X63908578Y-94690000D01*
X63391422Y-93270000D02*
X63908578Y-93270000D01*
X103310000Y-59662779D02*
X103310000Y-59337221D01*
X102290000Y-59662779D02*
X102290000Y-59337221D01*
X55590000Y-74660000D02*
X55590000Y-79340000D01*
X61810000Y-80040000D02*
X61810000Y-78760000D01*
X63410000Y-80040000D02*
X61810000Y-80040000D01*
X63410000Y-81060000D02*
X63410000Y-80040000D01*
X59160000Y-81060000D02*
X63410000Y-81060000D01*
X61810000Y-75240000D02*
X64700000Y-75240000D01*
X61810000Y-73960000D02*
X61810000Y-75240000D01*
X63410000Y-73960000D02*
X61810000Y-73960000D01*
X63410000Y-72940000D02*
X63410000Y-73960000D01*
X59160000Y-72940000D02*
X63410000Y-72940000D01*
X80135500Y-87078000D02*
X79435500Y-87078000D01*
X83655500Y-91298000D02*
X83655500Y-90598000D01*
X82955500Y-91298000D02*
X83655500Y-91298000D01*
X79435500Y-91298000D02*
X79435500Y-90598000D01*
X80135500Y-91298000D02*
X79435500Y-91298000D01*
X83655500Y-87078000D02*
X83655500Y-87778000D01*
X82955500Y-87078000D02*
X83655500Y-87078000D01*
X52585000Y-60190000D02*
X55085000Y-60190000D01*
X55085000Y-60190000D02*
X55085000Y-61240000D01*
X55085000Y-61240000D02*
X56075000Y-61240000D01*
X52585000Y-66410000D02*
X55085000Y-66410000D01*
X55085000Y-66410000D02*
X55085000Y-65360000D01*
X50615000Y-61360000D02*
X50615000Y-65240000D01*
X80454500Y-85128578D02*
X80454500Y-84611422D01*
X81874500Y-85128578D02*
X81874500Y-84611422D01*
X80915078Y-93581000D02*
X80397922Y-93581000D01*
X80915078Y-92161000D02*
X80397922Y-92161000D01*
X57070000Y-55130000D02*
X57070000Y-53800000D01*
X58400000Y-55130000D02*
X57070000Y-55130000D01*
X57070000Y-52530000D02*
X57070000Y-49930000D01*
X59670000Y-52530000D02*
X57070000Y-52530000D01*
X59670000Y-55130000D02*
X59670000Y-52530000D01*
X57070000Y-49930000D02*
X107990000Y-49930000D01*
X59670000Y-55130000D02*
X107990000Y-55130000D01*
X107990000Y-55130000D02*
X107990000Y-49930000D01*
M02*
