G04 #@! TF.GenerationSoftware,KiCad,Pcbnew,(5.1.6)-1*
G04 #@! TF.CreationDate,2020-07-19T12:45:40+03:00*
G04 #@! TF.ProjectId,AstroPiMicro,41737472-6f50-4694-9d69-63726f2e6b69,1.0.8*
G04 #@! TF.SameCoordinates,Original*
G04 #@! TF.FileFunction,Copper,L1,Top*
G04 #@! TF.FilePolarity,Positive*
%FSLAX46Y46*%
G04 Gerber Fmt 4.6, Leading zero omitted, Abs format (unit mm)*
G04 Created by KiCad (PCBNEW (5.1.6)-1) date 2020-07-19 12:45:40*
%MOMM*%
%LPD*%
G01*
G04 APERTURE LIST*
G04 #@! TA.AperFunction,SMDPad,CuDef*
%ADD10R,1.200000X0.900000*%
G04 #@! TD*
G04 #@! TA.AperFunction,SMDPad,CuDef*
%ADD11R,1.200000X1.400000*%
G04 #@! TD*
G04 #@! TA.AperFunction,ViaPad*
%ADD12C,0.500000*%
G04 #@! TD*
G04 #@! TA.AperFunction,SMDPad,CuDef*
%ADD13R,2.100000X2.100000*%
G04 #@! TD*
G04 #@! TA.AperFunction,SMDPad,CuDef*
%ADD14R,2.500000X1.900000*%
G04 #@! TD*
G04 #@! TA.AperFunction,ComponentPad*
%ADD15O,1.000000X1.800000*%
G04 #@! TD*
G04 #@! TA.AperFunction,SMDPad,CuDef*
%ADD16R,0.800000X1.000000*%
G04 #@! TD*
G04 #@! TA.AperFunction,SMDPad,CuDef*
%ADD17R,0.700000X1.000000*%
G04 #@! TD*
G04 #@! TA.AperFunction,SMDPad,CuDef*
%ADD18R,2.500000X2.500000*%
G04 #@! TD*
G04 #@! TA.AperFunction,SMDPad,CuDef*
%ADD19C,2.000000*%
G04 #@! TD*
G04 #@! TA.AperFunction,SMDPad,CuDef*
%ADD20R,2.500000X1.250000*%
G04 #@! TD*
G04 #@! TA.AperFunction,ComponentPad*
%ADD21O,1.950000X1.700000*%
G04 #@! TD*
G04 #@! TA.AperFunction,ComponentPad*
%ADD22O,1.700000X1.700000*%
G04 #@! TD*
G04 #@! TA.AperFunction,ComponentPad*
%ADD23R,1.700000X1.700000*%
G04 #@! TD*
G04 #@! TA.AperFunction,ViaPad*
%ADD24C,0.800000*%
G04 #@! TD*
G04 #@! TA.AperFunction,ViaPad*
%ADD25C,0.600000*%
G04 #@! TD*
G04 #@! TA.AperFunction,Conductor*
%ADD26C,0.350000*%
G04 #@! TD*
G04 #@! TA.AperFunction,Conductor*
%ADD27C,0.152400*%
G04 #@! TD*
G04 #@! TA.AperFunction,Conductor*
%ADD28C,0.200000*%
G04 #@! TD*
G04 #@! TA.AperFunction,Conductor*
%ADD29C,0.250000*%
G04 #@! TD*
G04 #@! TA.AperFunction,Conductor*
%ADD30C,0.500000*%
G04 #@! TD*
G04 #@! TA.AperFunction,Conductor*
%ADD31C,0.254000*%
G04 #@! TD*
G04 APERTURE END LIST*
D10*
X92350000Y-56500000D03*
X92350000Y-59800000D03*
G04 #@! TA.AperFunction,SMDPad,CuDef*
G36*
G01*
X86450000Y-72806250D02*
X86450000Y-72293750D01*
G75*
G02*
X86668750Y-72075000I218750J0D01*
G01*
X87106250Y-72075000D01*
G75*
G02*
X87325000Y-72293750I0J-218750D01*
G01*
X87325000Y-72806250D01*
G75*
G02*
X87106250Y-73025000I-218750J0D01*
G01*
X86668750Y-73025000D01*
G75*
G02*
X86450000Y-72806250I0J218750D01*
G01*
G37*
G04 #@! TD.AperFunction*
G04 #@! TA.AperFunction,SMDPad,CuDef*
G36*
G01*
X84875000Y-72806250D02*
X84875000Y-72293750D01*
G75*
G02*
X85093750Y-72075000I218750J0D01*
G01*
X85531250Y-72075000D01*
G75*
G02*
X85750000Y-72293750I0J-218750D01*
G01*
X85750000Y-72806250D01*
G75*
G02*
X85531250Y-73025000I-218750J0D01*
G01*
X85093750Y-73025000D01*
G75*
G02*
X84875000Y-72806250I0J218750D01*
G01*
G37*
G04 #@! TD.AperFunction*
G04 #@! TA.AperFunction,SMDPad,CuDef*
G36*
G01*
X77356250Y-62050000D02*
X76843750Y-62050000D01*
G75*
G02*
X76625000Y-61831250I0J218750D01*
G01*
X76625000Y-61393750D01*
G75*
G02*
X76843750Y-61175000I218750J0D01*
G01*
X77356250Y-61175000D01*
G75*
G02*
X77575000Y-61393750I0J-218750D01*
G01*
X77575000Y-61831250D01*
G75*
G02*
X77356250Y-62050000I-218750J0D01*
G01*
G37*
G04 #@! TD.AperFunction*
G04 #@! TA.AperFunction,SMDPad,CuDef*
G36*
G01*
X77356250Y-63625000D02*
X76843750Y-63625000D01*
G75*
G02*
X76625000Y-63406250I0J218750D01*
G01*
X76625000Y-62968750D01*
G75*
G02*
X76843750Y-62750000I218750J0D01*
G01*
X77356250Y-62750000D01*
G75*
G02*
X77575000Y-62968750I0J-218750D01*
G01*
X77575000Y-63406250D01*
G75*
G02*
X77356250Y-63625000I-218750J0D01*
G01*
G37*
G04 #@! TD.AperFunction*
G04 #@! TA.AperFunction,SMDPad,CuDef*
G36*
G01*
X76343750Y-73050000D02*
X76856250Y-73050000D01*
G75*
G02*
X77075000Y-73268750I0J-218750D01*
G01*
X77075000Y-73706250D01*
G75*
G02*
X76856250Y-73925000I-218750J0D01*
G01*
X76343750Y-73925000D01*
G75*
G02*
X76125000Y-73706250I0J218750D01*
G01*
X76125000Y-73268750D01*
G75*
G02*
X76343750Y-73050000I218750J0D01*
G01*
G37*
G04 #@! TD.AperFunction*
G04 #@! TA.AperFunction,SMDPad,CuDef*
G36*
G01*
X76343750Y-71475000D02*
X76856250Y-71475000D01*
G75*
G02*
X77075000Y-71693750I0J-218750D01*
G01*
X77075000Y-72131250D01*
G75*
G02*
X76856250Y-72350000I-218750J0D01*
G01*
X76343750Y-72350000D01*
G75*
G02*
X76125000Y-72131250I0J218750D01*
G01*
X76125000Y-71693750D01*
G75*
G02*
X76343750Y-71475000I218750J0D01*
G01*
G37*
G04 #@! TD.AperFunction*
D11*
X74800000Y-66100000D03*
X74800000Y-68300000D03*
X73100000Y-68300000D03*
X73100000Y-66100000D03*
D12*
X100000000Y-62300000D03*
X100800000Y-62300000D03*
X101600000Y-62300000D03*
X100000000Y-63100000D03*
X100800000Y-63100000D03*
X101600000Y-63100000D03*
X100000000Y-63900000D03*
X100800000Y-63900000D03*
X101600000Y-63900000D03*
D13*
X100800000Y-63100000D03*
G04 #@! TA.AperFunction,SMDPad,CuDef*
G36*
G01*
X101950000Y-64537500D02*
X101950000Y-65387500D01*
G75*
G02*
X101862500Y-65475000I-87500J0D01*
G01*
X101687500Y-65475000D01*
G75*
G02*
X101600000Y-65387500I0J87500D01*
G01*
X101600000Y-64537500D01*
G75*
G02*
X101687500Y-64450000I87500J0D01*
G01*
X101862500Y-64450000D01*
G75*
G02*
X101950000Y-64537500I0J-87500D01*
G01*
G37*
G04 #@! TD.AperFunction*
G04 #@! TA.AperFunction,SMDPad,CuDef*
G36*
G01*
X101300000Y-64537500D02*
X101300000Y-65387500D01*
G75*
G02*
X101212500Y-65475000I-87500J0D01*
G01*
X101037500Y-65475000D01*
G75*
G02*
X100950000Y-65387500I0J87500D01*
G01*
X100950000Y-64537500D01*
G75*
G02*
X101037500Y-64450000I87500J0D01*
G01*
X101212500Y-64450000D01*
G75*
G02*
X101300000Y-64537500I0J-87500D01*
G01*
G37*
G04 #@! TD.AperFunction*
G04 #@! TA.AperFunction,SMDPad,CuDef*
G36*
G01*
X100650000Y-64537500D02*
X100650000Y-65387500D01*
G75*
G02*
X100562500Y-65475000I-87500J0D01*
G01*
X100387500Y-65475000D01*
G75*
G02*
X100300000Y-65387500I0J87500D01*
G01*
X100300000Y-64537500D01*
G75*
G02*
X100387500Y-64450000I87500J0D01*
G01*
X100562500Y-64450000D01*
G75*
G02*
X100650000Y-64537500I0J-87500D01*
G01*
G37*
G04 #@! TD.AperFunction*
G04 #@! TA.AperFunction,SMDPad,CuDef*
G36*
G01*
X100000000Y-64537500D02*
X100000000Y-65387500D01*
G75*
G02*
X99912500Y-65475000I-87500J0D01*
G01*
X99737500Y-65475000D01*
G75*
G02*
X99650000Y-65387500I0J87500D01*
G01*
X99650000Y-64537500D01*
G75*
G02*
X99737500Y-64450000I87500J0D01*
G01*
X99912500Y-64450000D01*
G75*
G02*
X100000000Y-64537500I0J-87500D01*
G01*
G37*
G04 #@! TD.AperFunction*
G04 #@! TA.AperFunction,SMDPad,CuDef*
G36*
G01*
X99450000Y-63987500D02*
X99450000Y-64162500D01*
G75*
G02*
X99362500Y-64250000I-87500J0D01*
G01*
X98512500Y-64250000D01*
G75*
G02*
X98425000Y-64162500I0J87500D01*
G01*
X98425000Y-63987500D01*
G75*
G02*
X98512500Y-63900000I87500J0D01*
G01*
X99362500Y-63900000D01*
G75*
G02*
X99450000Y-63987500I0J-87500D01*
G01*
G37*
G04 #@! TD.AperFunction*
G04 #@! TA.AperFunction,SMDPad,CuDef*
G36*
G01*
X99450000Y-63337500D02*
X99450000Y-63512500D01*
G75*
G02*
X99362500Y-63600000I-87500J0D01*
G01*
X98512500Y-63600000D01*
G75*
G02*
X98425000Y-63512500I0J87500D01*
G01*
X98425000Y-63337500D01*
G75*
G02*
X98512500Y-63250000I87500J0D01*
G01*
X99362500Y-63250000D01*
G75*
G02*
X99450000Y-63337500I0J-87500D01*
G01*
G37*
G04 #@! TD.AperFunction*
G04 #@! TA.AperFunction,SMDPad,CuDef*
G36*
G01*
X99450000Y-62687500D02*
X99450000Y-62862500D01*
G75*
G02*
X99362500Y-62950000I-87500J0D01*
G01*
X98512500Y-62950000D01*
G75*
G02*
X98425000Y-62862500I0J87500D01*
G01*
X98425000Y-62687500D01*
G75*
G02*
X98512500Y-62600000I87500J0D01*
G01*
X99362500Y-62600000D01*
G75*
G02*
X99450000Y-62687500I0J-87500D01*
G01*
G37*
G04 #@! TD.AperFunction*
G04 #@! TA.AperFunction,SMDPad,CuDef*
G36*
G01*
X99450000Y-62037500D02*
X99450000Y-62212500D01*
G75*
G02*
X99362500Y-62300000I-87500J0D01*
G01*
X98512500Y-62300000D01*
G75*
G02*
X98425000Y-62212500I0J87500D01*
G01*
X98425000Y-62037500D01*
G75*
G02*
X98512500Y-61950000I87500J0D01*
G01*
X99362500Y-61950000D01*
G75*
G02*
X99450000Y-62037500I0J-87500D01*
G01*
G37*
G04 #@! TD.AperFunction*
G04 #@! TA.AperFunction,SMDPad,CuDef*
G36*
G01*
X100000000Y-60812500D02*
X100000000Y-61662500D01*
G75*
G02*
X99912500Y-61750000I-87500J0D01*
G01*
X99737500Y-61750000D01*
G75*
G02*
X99650000Y-61662500I0J87500D01*
G01*
X99650000Y-60812500D01*
G75*
G02*
X99737500Y-60725000I87500J0D01*
G01*
X99912500Y-60725000D01*
G75*
G02*
X100000000Y-60812500I0J-87500D01*
G01*
G37*
G04 #@! TD.AperFunction*
G04 #@! TA.AperFunction,SMDPad,CuDef*
G36*
G01*
X100650000Y-60812500D02*
X100650000Y-61662500D01*
G75*
G02*
X100562500Y-61750000I-87500J0D01*
G01*
X100387500Y-61750000D01*
G75*
G02*
X100300000Y-61662500I0J87500D01*
G01*
X100300000Y-60812500D01*
G75*
G02*
X100387500Y-60725000I87500J0D01*
G01*
X100562500Y-60725000D01*
G75*
G02*
X100650000Y-60812500I0J-87500D01*
G01*
G37*
G04 #@! TD.AperFunction*
G04 #@! TA.AperFunction,SMDPad,CuDef*
G36*
G01*
X101300000Y-60812500D02*
X101300000Y-61662500D01*
G75*
G02*
X101212500Y-61750000I-87500J0D01*
G01*
X101037500Y-61750000D01*
G75*
G02*
X100950000Y-61662500I0J87500D01*
G01*
X100950000Y-60812500D01*
G75*
G02*
X101037500Y-60725000I87500J0D01*
G01*
X101212500Y-60725000D01*
G75*
G02*
X101300000Y-60812500I0J-87500D01*
G01*
G37*
G04 #@! TD.AperFunction*
G04 #@! TA.AperFunction,SMDPad,CuDef*
G36*
G01*
X101950000Y-60812500D02*
X101950000Y-61662500D01*
G75*
G02*
X101862500Y-61750000I-87500J0D01*
G01*
X101687500Y-61750000D01*
G75*
G02*
X101600000Y-61662500I0J87500D01*
G01*
X101600000Y-60812500D01*
G75*
G02*
X101687500Y-60725000I87500J0D01*
G01*
X101862500Y-60725000D01*
G75*
G02*
X101950000Y-60812500I0J-87500D01*
G01*
G37*
G04 #@! TD.AperFunction*
G04 #@! TA.AperFunction,SMDPad,CuDef*
G36*
G01*
X103175000Y-62037500D02*
X103175000Y-62212500D01*
G75*
G02*
X103087500Y-62300000I-87500J0D01*
G01*
X102237500Y-62300000D01*
G75*
G02*
X102150000Y-62212500I0J87500D01*
G01*
X102150000Y-62037500D01*
G75*
G02*
X102237500Y-61950000I87500J0D01*
G01*
X103087500Y-61950000D01*
G75*
G02*
X103175000Y-62037500I0J-87500D01*
G01*
G37*
G04 #@! TD.AperFunction*
G04 #@! TA.AperFunction,SMDPad,CuDef*
G36*
G01*
X103175000Y-62687500D02*
X103175000Y-62862500D01*
G75*
G02*
X103087500Y-62950000I-87500J0D01*
G01*
X102237500Y-62950000D01*
G75*
G02*
X102150000Y-62862500I0J87500D01*
G01*
X102150000Y-62687500D01*
G75*
G02*
X102237500Y-62600000I87500J0D01*
G01*
X103087500Y-62600000D01*
G75*
G02*
X103175000Y-62687500I0J-87500D01*
G01*
G37*
G04 #@! TD.AperFunction*
G04 #@! TA.AperFunction,SMDPad,CuDef*
G36*
G01*
X103175000Y-63337500D02*
X103175000Y-63512500D01*
G75*
G02*
X103087500Y-63600000I-87500J0D01*
G01*
X102237500Y-63600000D01*
G75*
G02*
X102150000Y-63512500I0J87500D01*
G01*
X102150000Y-63337500D01*
G75*
G02*
X102237500Y-63250000I87500J0D01*
G01*
X103087500Y-63250000D01*
G75*
G02*
X103175000Y-63337500I0J-87500D01*
G01*
G37*
G04 #@! TD.AperFunction*
G04 #@! TA.AperFunction,SMDPad,CuDef*
G36*
G01*
X103175000Y-63987500D02*
X103175000Y-64162500D01*
G75*
G02*
X103087500Y-64250000I-87500J0D01*
G01*
X102237500Y-64250000D01*
G75*
G02*
X102150000Y-64162500I0J87500D01*
G01*
X102150000Y-63987500D01*
G75*
G02*
X102237500Y-63900000I87500J0D01*
G01*
X103087500Y-63900000D01*
G75*
G02*
X103175000Y-63987500I0J-87500D01*
G01*
G37*
G04 #@! TD.AperFunction*
D12*
X100550000Y-90250000D03*
X101350000Y-90250000D03*
X102150000Y-90250000D03*
X100550000Y-91050000D03*
X101350000Y-91050000D03*
X102150000Y-91050000D03*
X100550000Y-91850000D03*
X101350000Y-91850000D03*
X102150000Y-91850000D03*
D13*
X101350000Y-91050000D03*
G04 #@! TA.AperFunction,SMDPad,CuDef*
G36*
G01*
X102500000Y-92487500D02*
X102500000Y-93337500D01*
G75*
G02*
X102412500Y-93425000I-87500J0D01*
G01*
X102237500Y-93425000D01*
G75*
G02*
X102150000Y-93337500I0J87500D01*
G01*
X102150000Y-92487500D01*
G75*
G02*
X102237500Y-92400000I87500J0D01*
G01*
X102412500Y-92400000D01*
G75*
G02*
X102500000Y-92487500I0J-87500D01*
G01*
G37*
G04 #@! TD.AperFunction*
G04 #@! TA.AperFunction,SMDPad,CuDef*
G36*
G01*
X101850000Y-92487500D02*
X101850000Y-93337500D01*
G75*
G02*
X101762500Y-93425000I-87500J0D01*
G01*
X101587500Y-93425000D01*
G75*
G02*
X101500000Y-93337500I0J87500D01*
G01*
X101500000Y-92487500D01*
G75*
G02*
X101587500Y-92400000I87500J0D01*
G01*
X101762500Y-92400000D01*
G75*
G02*
X101850000Y-92487500I0J-87500D01*
G01*
G37*
G04 #@! TD.AperFunction*
G04 #@! TA.AperFunction,SMDPad,CuDef*
G36*
G01*
X101200000Y-92487500D02*
X101200000Y-93337500D01*
G75*
G02*
X101112500Y-93425000I-87500J0D01*
G01*
X100937500Y-93425000D01*
G75*
G02*
X100850000Y-93337500I0J87500D01*
G01*
X100850000Y-92487500D01*
G75*
G02*
X100937500Y-92400000I87500J0D01*
G01*
X101112500Y-92400000D01*
G75*
G02*
X101200000Y-92487500I0J-87500D01*
G01*
G37*
G04 #@! TD.AperFunction*
G04 #@! TA.AperFunction,SMDPad,CuDef*
G36*
G01*
X100550000Y-92487500D02*
X100550000Y-93337500D01*
G75*
G02*
X100462500Y-93425000I-87500J0D01*
G01*
X100287500Y-93425000D01*
G75*
G02*
X100200000Y-93337500I0J87500D01*
G01*
X100200000Y-92487500D01*
G75*
G02*
X100287500Y-92400000I87500J0D01*
G01*
X100462500Y-92400000D01*
G75*
G02*
X100550000Y-92487500I0J-87500D01*
G01*
G37*
G04 #@! TD.AperFunction*
G04 #@! TA.AperFunction,SMDPad,CuDef*
G36*
G01*
X100000000Y-91937500D02*
X100000000Y-92112500D01*
G75*
G02*
X99912500Y-92200000I-87500J0D01*
G01*
X99062500Y-92200000D01*
G75*
G02*
X98975000Y-92112500I0J87500D01*
G01*
X98975000Y-91937500D01*
G75*
G02*
X99062500Y-91850000I87500J0D01*
G01*
X99912500Y-91850000D01*
G75*
G02*
X100000000Y-91937500I0J-87500D01*
G01*
G37*
G04 #@! TD.AperFunction*
G04 #@! TA.AperFunction,SMDPad,CuDef*
G36*
G01*
X100000000Y-91287500D02*
X100000000Y-91462500D01*
G75*
G02*
X99912500Y-91550000I-87500J0D01*
G01*
X99062500Y-91550000D01*
G75*
G02*
X98975000Y-91462500I0J87500D01*
G01*
X98975000Y-91287500D01*
G75*
G02*
X99062500Y-91200000I87500J0D01*
G01*
X99912500Y-91200000D01*
G75*
G02*
X100000000Y-91287500I0J-87500D01*
G01*
G37*
G04 #@! TD.AperFunction*
G04 #@! TA.AperFunction,SMDPad,CuDef*
G36*
G01*
X100000000Y-90637500D02*
X100000000Y-90812500D01*
G75*
G02*
X99912500Y-90900000I-87500J0D01*
G01*
X99062500Y-90900000D01*
G75*
G02*
X98975000Y-90812500I0J87500D01*
G01*
X98975000Y-90637500D01*
G75*
G02*
X99062500Y-90550000I87500J0D01*
G01*
X99912500Y-90550000D01*
G75*
G02*
X100000000Y-90637500I0J-87500D01*
G01*
G37*
G04 #@! TD.AperFunction*
G04 #@! TA.AperFunction,SMDPad,CuDef*
G36*
G01*
X100000000Y-89987500D02*
X100000000Y-90162500D01*
G75*
G02*
X99912500Y-90250000I-87500J0D01*
G01*
X99062500Y-90250000D01*
G75*
G02*
X98975000Y-90162500I0J87500D01*
G01*
X98975000Y-89987500D01*
G75*
G02*
X99062500Y-89900000I87500J0D01*
G01*
X99912500Y-89900000D01*
G75*
G02*
X100000000Y-89987500I0J-87500D01*
G01*
G37*
G04 #@! TD.AperFunction*
G04 #@! TA.AperFunction,SMDPad,CuDef*
G36*
G01*
X100550000Y-88762500D02*
X100550000Y-89612500D01*
G75*
G02*
X100462500Y-89700000I-87500J0D01*
G01*
X100287500Y-89700000D01*
G75*
G02*
X100200000Y-89612500I0J87500D01*
G01*
X100200000Y-88762500D01*
G75*
G02*
X100287500Y-88675000I87500J0D01*
G01*
X100462500Y-88675000D01*
G75*
G02*
X100550000Y-88762500I0J-87500D01*
G01*
G37*
G04 #@! TD.AperFunction*
G04 #@! TA.AperFunction,SMDPad,CuDef*
G36*
G01*
X101200000Y-88762500D02*
X101200000Y-89612500D01*
G75*
G02*
X101112500Y-89700000I-87500J0D01*
G01*
X100937500Y-89700000D01*
G75*
G02*
X100850000Y-89612500I0J87500D01*
G01*
X100850000Y-88762500D01*
G75*
G02*
X100937500Y-88675000I87500J0D01*
G01*
X101112500Y-88675000D01*
G75*
G02*
X101200000Y-88762500I0J-87500D01*
G01*
G37*
G04 #@! TD.AperFunction*
G04 #@! TA.AperFunction,SMDPad,CuDef*
G36*
G01*
X101850000Y-88762500D02*
X101850000Y-89612500D01*
G75*
G02*
X101762500Y-89700000I-87500J0D01*
G01*
X101587500Y-89700000D01*
G75*
G02*
X101500000Y-89612500I0J87500D01*
G01*
X101500000Y-88762500D01*
G75*
G02*
X101587500Y-88675000I87500J0D01*
G01*
X101762500Y-88675000D01*
G75*
G02*
X101850000Y-88762500I0J-87500D01*
G01*
G37*
G04 #@! TD.AperFunction*
G04 #@! TA.AperFunction,SMDPad,CuDef*
G36*
G01*
X102500000Y-88762500D02*
X102500000Y-89612500D01*
G75*
G02*
X102412500Y-89700000I-87500J0D01*
G01*
X102237500Y-89700000D01*
G75*
G02*
X102150000Y-89612500I0J87500D01*
G01*
X102150000Y-88762500D01*
G75*
G02*
X102237500Y-88675000I87500J0D01*
G01*
X102412500Y-88675000D01*
G75*
G02*
X102500000Y-88762500I0J-87500D01*
G01*
G37*
G04 #@! TD.AperFunction*
G04 #@! TA.AperFunction,SMDPad,CuDef*
G36*
G01*
X103725000Y-89987500D02*
X103725000Y-90162500D01*
G75*
G02*
X103637500Y-90250000I-87500J0D01*
G01*
X102787500Y-90250000D01*
G75*
G02*
X102700000Y-90162500I0J87500D01*
G01*
X102700000Y-89987500D01*
G75*
G02*
X102787500Y-89900000I87500J0D01*
G01*
X103637500Y-89900000D01*
G75*
G02*
X103725000Y-89987500I0J-87500D01*
G01*
G37*
G04 #@! TD.AperFunction*
G04 #@! TA.AperFunction,SMDPad,CuDef*
G36*
G01*
X103725000Y-90637500D02*
X103725000Y-90812500D01*
G75*
G02*
X103637500Y-90900000I-87500J0D01*
G01*
X102787500Y-90900000D01*
G75*
G02*
X102700000Y-90812500I0J87500D01*
G01*
X102700000Y-90637500D01*
G75*
G02*
X102787500Y-90550000I87500J0D01*
G01*
X103637500Y-90550000D01*
G75*
G02*
X103725000Y-90637500I0J-87500D01*
G01*
G37*
G04 #@! TD.AperFunction*
G04 #@! TA.AperFunction,SMDPad,CuDef*
G36*
G01*
X103725000Y-91287500D02*
X103725000Y-91462500D01*
G75*
G02*
X103637500Y-91550000I-87500J0D01*
G01*
X102787500Y-91550000D01*
G75*
G02*
X102700000Y-91462500I0J87500D01*
G01*
X102700000Y-91287500D01*
G75*
G02*
X102787500Y-91200000I87500J0D01*
G01*
X103637500Y-91200000D01*
G75*
G02*
X103725000Y-91287500I0J-87500D01*
G01*
G37*
G04 #@! TD.AperFunction*
G04 #@! TA.AperFunction,SMDPad,CuDef*
G36*
G01*
X103725000Y-91937500D02*
X103725000Y-92112500D01*
G75*
G02*
X103637500Y-92200000I-87500J0D01*
G01*
X102787500Y-92200000D01*
G75*
G02*
X102700000Y-92112500I0J87500D01*
G01*
X102700000Y-91937500D01*
G75*
G02*
X102787500Y-91850000I87500J0D01*
G01*
X103637500Y-91850000D01*
G75*
G02*
X103725000Y-91937500I0J-87500D01*
G01*
G37*
G04 #@! TD.AperFunction*
D12*
X100225000Y-76150000D03*
X101025000Y-76150000D03*
X101825000Y-76150000D03*
X100225000Y-76950000D03*
X101025000Y-76950000D03*
X101825000Y-76950000D03*
X100225000Y-77750000D03*
X101025000Y-77750000D03*
X101825000Y-77750000D03*
D13*
X101025000Y-76950000D03*
G04 #@! TA.AperFunction,SMDPad,CuDef*
G36*
G01*
X102175000Y-78387500D02*
X102175000Y-79237500D01*
G75*
G02*
X102087500Y-79325000I-87500J0D01*
G01*
X101912500Y-79325000D01*
G75*
G02*
X101825000Y-79237500I0J87500D01*
G01*
X101825000Y-78387500D01*
G75*
G02*
X101912500Y-78300000I87500J0D01*
G01*
X102087500Y-78300000D01*
G75*
G02*
X102175000Y-78387500I0J-87500D01*
G01*
G37*
G04 #@! TD.AperFunction*
G04 #@! TA.AperFunction,SMDPad,CuDef*
G36*
G01*
X101525000Y-78387500D02*
X101525000Y-79237500D01*
G75*
G02*
X101437500Y-79325000I-87500J0D01*
G01*
X101262500Y-79325000D01*
G75*
G02*
X101175000Y-79237500I0J87500D01*
G01*
X101175000Y-78387500D01*
G75*
G02*
X101262500Y-78300000I87500J0D01*
G01*
X101437500Y-78300000D01*
G75*
G02*
X101525000Y-78387500I0J-87500D01*
G01*
G37*
G04 #@! TD.AperFunction*
G04 #@! TA.AperFunction,SMDPad,CuDef*
G36*
G01*
X100875000Y-78387500D02*
X100875000Y-79237500D01*
G75*
G02*
X100787500Y-79325000I-87500J0D01*
G01*
X100612500Y-79325000D01*
G75*
G02*
X100525000Y-79237500I0J87500D01*
G01*
X100525000Y-78387500D01*
G75*
G02*
X100612500Y-78300000I87500J0D01*
G01*
X100787500Y-78300000D01*
G75*
G02*
X100875000Y-78387500I0J-87500D01*
G01*
G37*
G04 #@! TD.AperFunction*
G04 #@! TA.AperFunction,SMDPad,CuDef*
G36*
G01*
X100225000Y-78387500D02*
X100225000Y-79237500D01*
G75*
G02*
X100137500Y-79325000I-87500J0D01*
G01*
X99962500Y-79325000D01*
G75*
G02*
X99875000Y-79237500I0J87500D01*
G01*
X99875000Y-78387500D01*
G75*
G02*
X99962500Y-78300000I87500J0D01*
G01*
X100137500Y-78300000D01*
G75*
G02*
X100225000Y-78387500I0J-87500D01*
G01*
G37*
G04 #@! TD.AperFunction*
G04 #@! TA.AperFunction,SMDPad,CuDef*
G36*
G01*
X99675000Y-77837500D02*
X99675000Y-78012500D01*
G75*
G02*
X99587500Y-78100000I-87500J0D01*
G01*
X98737500Y-78100000D01*
G75*
G02*
X98650000Y-78012500I0J87500D01*
G01*
X98650000Y-77837500D01*
G75*
G02*
X98737500Y-77750000I87500J0D01*
G01*
X99587500Y-77750000D01*
G75*
G02*
X99675000Y-77837500I0J-87500D01*
G01*
G37*
G04 #@! TD.AperFunction*
G04 #@! TA.AperFunction,SMDPad,CuDef*
G36*
G01*
X99675000Y-77187500D02*
X99675000Y-77362500D01*
G75*
G02*
X99587500Y-77450000I-87500J0D01*
G01*
X98737500Y-77450000D01*
G75*
G02*
X98650000Y-77362500I0J87500D01*
G01*
X98650000Y-77187500D01*
G75*
G02*
X98737500Y-77100000I87500J0D01*
G01*
X99587500Y-77100000D01*
G75*
G02*
X99675000Y-77187500I0J-87500D01*
G01*
G37*
G04 #@! TD.AperFunction*
G04 #@! TA.AperFunction,SMDPad,CuDef*
G36*
G01*
X99675000Y-76537500D02*
X99675000Y-76712500D01*
G75*
G02*
X99587500Y-76800000I-87500J0D01*
G01*
X98737500Y-76800000D01*
G75*
G02*
X98650000Y-76712500I0J87500D01*
G01*
X98650000Y-76537500D01*
G75*
G02*
X98737500Y-76450000I87500J0D01*
G01*
X99587500Y-76450000D01*
G75*
G02*
X99675000Y-76537500I0J-87500D01*
G01*
G37*
G04 #@! TD.AperFunction*
G04 #@! TA.AperFunction,SMDPad,CuDef*
G36*
G01*
X99675000Y-75887500D02*
X99675000Y-76062500D01*
G75*
G02*
X99587500Y-76150000I-87500J0D01*
G01*
X98737500Y-76150000D01*
G75*
G02*
X98650000Y-76062500I0J87500D01*
G01*
X98650000Y-75887500D01*
G75*
G02*
X98737500Y-75800000I87500J0D01*
G01*
X99587500Y-75800000D01*
G75*
G02*
X99675000Y-75887500I0J-87500D01*
G01*
G37*
G04 #@! TD.AperFunction*
G04 #@! TA.AperFunction,SMDPad,CuDef*
G36*
G01*
X100225000Y-74662500D02*
X100225000Y-75512500D01*
G75*
G02*
X100137500Y-75600000I-87500J0D01*
G01*
X99962500Y-75600000D01*
G75*
G02*
X99875000Y-75512500I0J87500D01*
G01*
X99875000Y-74662500D01*
G75*
G02*
X99962500Y-74575000I87500J0D01*
G01*
X100137500Y-74575000D01*
G75*
G02*
X100225000Y-74662500I0J-87500D01*
G01*
G37*
G04 #@! TD.AperFunction*
G04 #@! TA.AperFunction,SMDPad,CuDef*
G36*
G01*
X100875000Y-74662500D02*
X100875000Y-75512500D01*
G75*
G02*
X100787500Y-75600000I-87500J0D01*
G01*
X100612500Y-75600000D01*
G75*
G02*
X100525000Y-75512500I0J87500D01*
G01*
X100525000Y-74662500D01*
G75*
G02*
X100612500Y-74575000I87500J0D01*
G01*
X100787500Y-74575000D01*
G75*
G02*
X100875000Y-74662500I0J-87500D01*
G01*
G37*
G04 #@! TD.AperFunction*
G04 #@! TA.AperFunction,SMDPad,CuDef*
G36*
G01*
X101525000Y-74662500D02*
X101525000Y-75512500D01*
G75*
G02*
X101437500Y-75600000I-87500J0D01*
G01*
X101262500Y-75600000D01*
G75*
G02*
X101175000Y-75512500I0J87500D01*
G01*
X101175000Y-74662500D01*
G75*
G02*
X101262500Y-74575000I87500J0D01*
G01*
X101437500Y-74575000D01*
G75*
G02*
X101525000Y-74662500I0J-87500D01*
G01*
G37*
G04 #@! TD.AperFunction*
G04 #@! TA.AperFunction,SMDPad,CuDef*
G36*
G01*
X102175000Y-74662500D02*
X102175000Y-75512500D01*
G75*
G02*
X102087500Y-75600000I-87500J0D01*
G01*
X101912500Y-75600000D01*
G75*
G02*
X101825000Y-75512500I0J87500D01*
G01*
X101825000Y-74662500D01*
G75*
G02*
X101912500Y-74575000I87500J0D01*
G01*
X102087500Y-74575000D01*
G75*
G02*
X102175000Y-74662500I0J-87500D01*
G01*
G37*
G04 #@! TD.AperFunction*
G04 #@! TA.AperFunction,SMDPad,CuDef*
G36*
G01*
X103400000Y-75887500D02*
X103400000Y-76062500D01*
G75*
G02*
X103312500Y-76150000I-87500J0D01*
G01*
X102462500Y-76150000D01*
G75*
G02*
X102375000Y-76062500I0J87500D01*
G01*
X102375000Y-75887500D01*
G75*
G02*
X102462500Y-75800000I87500J0D01*
G01*
X103312500Y-75800000D01*
G75*
G02*
X103400000Y-75887500I0J-87500D01*
G01*
G37*
G04 #@! TD.AperFunction*
G04 #@! TA.AperFunction,SMDPad,CuDef*
G36*
G01*
X103400000Y-76537500D02*
X103400000Y-76712500D01*
G75*
G02*
X103312500Y-76800000I-87500J0D01*
G01*
X102462500Y-76800000D01*
G75*
G02*
X102375000Y-76712500I0J87500D01*
G01*
X102375000Y-76537500D01*
G75*
G02*
X102462500Y-76450000I87500J0D01*
G01*
X103312500Y-76450000D01*
G75*
G02*
X103400000Y-76537500I0J-87500D01*
G01*
G37*
G04 #@! TD.AperFunction*
G04 #@! TA.AperFunction,SMDPad,CuDef*
G36*
G01*
X103400000Y-77187500D02*
X103400000Y-77362500D01*
G75*
G02*
X103312500Y-77450000I-87500J0D01*
G01*
X102462500Y-77450000D01*
G75*
G02*
X102375000Y-77362500I0J87500D01*
G01*
X102375000Y-77187500D01*
G75*
G02*
X102462500Y-77100000I87500J0D01*
G01*
X103312500Y-77100000D01*
G75*
G02*
X103400000Y-77187500I0J-87500D01*
G01*
G37*
G04 #@! TD.AperFunction*
G04 #@! TA.AperFunction,SMDPad,CuDef*
G36*
G01*
X103400000Y-77837500D02*
X103400000Y-78012500D01*
G75*
G02*
X103312500Y-78100000I-87500J0D01*
G01*
X102462500Y-78100000D01*
G75*
G02*
X102375000Y-78012500I0J87500D01*
G01*
X102375000Y-77837500D01*
G75*
G02*
X102462500Y-77750000I87500J0D01*
G01*
X103312500Y-77750000D01*
G75*
G02*
X103400000Y-77837500I0J-87500D01*
G01*
G37*
G04 #@! TD.AperFunction*
G04 #@! TA.AperFunction,SMDPad,CuDef*
G36*
G01*
X78350000Y-64350000D02*
X78350000Y-63025000D01*
G75*
G02*
X78425000Y-62950000I75000J0D01*
G01*
X78575000Y-62950000D01*
G75*
G02*
X78650000Y-63025000I0J-75000D01*
G01*
X78650000Y-64350000D01*
G75*
G02*
X78575000Y-64425000I-75000J0D01*
G01*
X78425000Y-64425000D01*
G75*
G02*
X78350000Y-64350000I0J75000D01*
G01*
G37*
G04 #@! TD.AperFunction*
G04 #@! TA.AperFunction,SMDPad,CuDef*
G36*
G01*
X78850000Y-64350000D02*
X78850000Y-63025000D01*
G75*
G02*
X78925000Y-62950000I75000J0D01*
G01*
X79075000Y-62950000D01*
G75*
G02*
X79150000Y-63025000I0J-75000D01*
G01*
X79150000Y-64350000D01*
G75*
G02*
X79075000Y-64425000I-75000J0D01*
G01*
X78925000Y-64425000D01*
G75*
G02*
X78850000Y-64350000I0J75000D01*
G01*
G37*
G04 #@! TD.AperFunction*
G04 #@! TA.AperFunction,SMDPad,CuDef*
G36*
G01*
X79350000Y-64350000D02*
X79350000Y-63025000D01*
G75*
G02*
X79425000Y-62950000I75000J0D01*
G01*
X79575000Y-62950000D01*
G75*
G02*
X79650000Y-63025000I0J-75000D01*
G01*
X79650000Y-64350000D01*
G75*
G02*
X79575000Y-64425000I-75000J0D01*
G01*
X79425000Y-64425000D01*
G75*
G02*
X79350000Y-64350000I0J75000D01*
G01*
G37*
G04 #@! TD.AperFunction*
G04 #@! TA.AperFunction,SMDPad,CuDef*
G36*
G01*
X79850000Y-64350000D02*
X79850000Y-63025000D01*
G75*
G02*
X79925000Y-62950000I75000J0D01*
G01*
X80075000Y-62950000D01*
G75*
G02*
X80150000Y-63025000I0J-75000D01*
G01*
X80150000Y-64350000D01*
G75*
G02*
X80075000Y-64425000I-75000J0D01*
G01*
X79925000Y-64425000D01*
G75*
G02*
X79850000Y-64350000I0J75000D01*
G01*
G37*
G04 #@! TD.AperFunction*
G04 #@! TA.AperFunction,SMDPad,CuDef*
G36*
G01*
X80350000Y-64350000D02*
X80350000Y-63025000D01*
G75*
G02*
X80425000Y-62950000I75000J0D01*
G01*
X80575000Y-62950000D01*
G75*
G02*
X80650000Y-63025000I0J-75000D01*
G01*
X80650000Y-64350000D01*
G75*
G02*
X80575000Y-64425000I-75000J0D01*
G01*
X80425000Y-64425000D01*
G75*
G02*
X80350000Y-64350000I0J75000D01*
G01*
G37*
G04 #@! TD.AperFunction*
G04 #@! TA.AperFunction,SMDPad,CuDef*
G36*
G01*
X80850000Y-64350000D02*
X80850000Y-63025000D01*
G75*
G02*
X80925000Y-62950000I75000J0D01*
G01*
X81075000Y-62950000D01*
G75*
G02*
X81150000Y-63025000I0J-75000D01*
G01*
X81150000Y-64350000D01*
G75*
G02*
X81075000Y-64425000I-75000J0D01*
G01*
X80925000Y-64425000D01*
G75*
G02*
X80850000Y-64350000I0J75000D01*
G01*
G37*
G04 #@! TD.AperFunction*
G04 #@! TA.AperFunction,SMDPad,CuDef*
G36*
G01*
X81350000Y-64350000D02*
X81350000Y-63025000D01*
G75*
G02*
X81425000Y-62950000I75000J0D01*
G01*
X81575000Y-62950000D01*
G75*
G02*
X81650000Y-63025000I0J-75000D01*
G01*
X81650000Y-64350000D01*
G75*
G02*
X81575000Y-64425000I-75000J0D01*
G01*
X81425000Y-64425000D01*
G75*
G02*
X81350000Y-64350000I0J75000D01*
G01*
G37*
G04 #@! TD.AperFunction*
G04 #@! TA.AperFunction,SMDPad,CuDef*
G36*
G01*
X81850000Y-64350000D02*
X81850000Y-63025000D01*
G75*
G02*
X81925000Y-62950000I75000J0D01*
G01*
X82075000Y-62950000D01*
G75*
G02*
X82150000Y-63025000I0J-75000D01*
G01*
X82150000Y-64350000D01*
G75*
G02*
X82075000Y-64425000I-75000J0D01*
G01*
X81925000Y-64425000D01*
G75*
G02*
X81850000Y-64350000I0J75000D01*
G01*
G37*
G04 #@! TD.AperFunction*
G04 #@! TA.AperFunction,SMDPad,CuDef*
G36*
G01*
X82350000Y-64350000D02*
X82350000Y-63025000D01*
G75*
G02*
X82425000Y-62950000I75000J0D01*
G01*
X82575000Y-62950000D01*
G75*
G02*
X82650000Y-63025000I0J-75000D01*
G01*
X82650000Y-64350000D01*
G75*
G02*
X82575000Y-64425000I-75000J0D01*
G01*
X82425000Y-64425000D01*
G75*
G02*
X82350000Y-64350000I0J75000D01*
G01*
G37*
G04 #@! TD.AperFunction*
G04 #@! TA.AperFunction,SMDPad,CuDef*
G36*
G01*
X82850000Y-64350000D02*
X82850000Y-63025000D01*
G75*
G02*
X82925000Y-62950000I75000J0D01*
G01*
X83075000Y-62950000D01*
G75*
G02*
X83150000Y-63025000I0J-75000D01*
G01*
X83150000Y-64350000D01*
G75*
G02*
X83075000Y-64425000I-75000J0D01*
G01*
X82925000Y-64425000D01*
G75*
G02*
X82850000Y-64350000I0J75000D01*
G01*
G37*
G04 #@! TD.AperFunction*
G04 #@! TA.AperFunction,SMDPad,CuDef*
G36*
G01*
X83350000Y-64350000D02*
X83350000Y-63025000D01*
G75*
G02*
X83425000Y-62950000I75000J0D01*
G01*
X83575000Y-62950000D01*
G75*
G02*
X83650000Y-63025000I0J-75000D01*
G01*
X83650000Y-64350000D01*
G75*
G02*
X83575000Y-64425000I-75000J0D01*
G01*
X83425000Y-64425000D01*
G75*
G02*
X83350000Y-64350000I0J75000D01*
G01*
G37*
G04 #@! TD.AperFunction*
G04 #@! TA.AperFunction,SMDPad,CuDef*
G36*
G01*
X83850000Y-64350000D02*
X83850000Y-63025000D01*
G75*
G02*
X83925000Y-62950000I75000J0D01*
G01*
X84075000Y-62950000D01*
G75*
G02*
X84150000Y-63025000I0J-75000D01*
G01*
X84150000Y-64350000D01*
G75*
G02*
X84075000Y-64425000I-75000J0D01*
G01*
X83925000Y-64425000D01*
G75*
G02*
X83850000Y-64350000I0J75000D01*
G01*
G37*
G04 #@! TD.AperFunction*
G04 #@! TA.AperFunction,SMDPad,CuDef*
G36*
G01*
X84675000Y-65175000D02*
X84675000Y-65025000D01*
G75*
G02*
X84750000Y-64950000I75000J0D01*
G01*
X86075000Y-64950000D01*
G75*
G02*
X86150000Y-65025000I0J-75000D01*
G01*
X86150000Y-65175000D01*
G75*
G02*
X86075000Y-65250000I-75000J0D01*
G01*
X84750000Y-65250000D01*
G75*
G02*
X84675000Y-65175000I0J75000D01*
G01*
G37*
G04 #@! TD.AperFunction*
G04 #@! TA.AperFunction,SMDPad,CuDef*
G36*
G01*
X84675000Y-65675000D02*
X84675000Y-65525000D01*
G75*
G02*
X84750000Y-65450000I75000J0D01*
G01*
X86075000Y-65450000D01*
G75*
G02*
X86150000Y-65525000I0J-75000D01*
G01*
X86150000Y-65675000D01*
G75*
G02*
X86075000Y-65750000I-75000J0D01*
G01*
X84750000Y-65750000D01*
G75*
G02*
X84675000Y-65675000I0J75000D01*
G01*
G37*
G04 #@! TD.AperFunction*
G04 #@! TA.AperFunction,SMDPad,CuDef*
G36*
G01*
X84675000Y-66175000D02*
X84675000Y-66025000D01*
G75*
G02*
X84750000Y-65950000I75000J0D01*
G01*
X86075000Y-65950000D01*
G75*
G02*
X86150000Y-66025000I0J-75000D01*
G01*
X86150000Y-66175000D01*
G75*
G02*
X86075000Y-66250000I-75000J0D01*
G01*
X84750000Y-66250000D01*
G75*
G02*
X84675000Y-66175000I0J75000D01*
G01*
G37*
G04 #@! TD.AperFunction*
G04 #@! TA.AperFunction,SMDPad,CuDef*
G36*
G01*
X84675000Y-66675000D02*
X84675000Y-66525000D01*
G75*
G02*
X84750000Y-66450000I75000J0D01*
G01*
X86075000Y-66450000D01*
G75*
G02*
X86150000Y-66525000I0J-75000D01*
G01*
X86150000Y-66675000D01*
G75*
G02*
X86075000Y-66750000I-75000J0D01*
G01*
X84750000Y-66750000D01*
G75*
G02*
X84675000Y-66675000I0J75000D01*
G01*
G37*
G04 #@! TD.AperFunction*
G04 #@! TA.AperFunction,SMDPad,CuDef*
G36*
G01*
X84675000Y-67175000D02*
X84675000Y-67025000D01*
G75*
G02*
X84750000Y-66950000I75000J0D01*
G01*
X86075000Y-66950000D01*
G75*
G02*
X86150000Y-67025000I0J-75000D01*
G01*
X86150000Y-67175000D01*
G75*
G02*
X86075000Y-67250000I-75000J0D01*
G01*
X84750000Y-67250000D01*
G75*
G02*
X84675000Y-67175000I0J75000D01*
G01*
G37*
G04 #@! TD.AperFunction*
G04 #@! TA.AperFunction,SMDPad,CuDef*
G36*
G01*
X84675000Y-67675000D02*
X84675000Y-67525000D01*
G75*
G02*
X84750000Y-67450000I75000J0D01*
G01*
X86075000Y-67450000D01*
G75*
G02*
X86150000Y-67525000I0J-75000D01*
G01*
X86150000Y-67675000D01*
G75*
G02*
X86075000Y-67750000I-75000J0D01*
G01*
X84750000Y-67750000D01*
G75*
G02*
X84675000Y-67675000I0J75000D01*
G01*
G37*
G04 #@! TD.AperFunction*
G04 #@! TA.AperFunction,SMDPad,CuDef*
G36*
G01*
X84675000Y-68175000D02*
X84675000Y-68025000D01*
G75*
G02*
X84750000Y-67950000I75000J0D01*
G01*
X86075000Y-67950000D01*
G75*
G02*
X86150000Y-68025000I0J-75000D01*
G01*
X86150000Y-68175000D01*
G75*
G02*
X86075000Y-68250000I-75000J0D01*
G01*
X84750000Y-68250000D01*
G75*
G02*
X84675000Y-68175000I0J75000D01*
G01*
G37*
G04 #@! TD.AperFunction*
G04 #@! TA.AperFunction,SMDPad,CuDef*
G36*
G01*
X84675000Y-68675000D02*
X84675000Y-68525000D01*
G75*
G02*
X84750000Y-68450000I75000J0D01*
G01*
X86075000Y-68450000D01*
G75*
G02*
X86150000Y-68525000I0J-75000D01*
G01*
X86150000Y-68675000D01*
G75*
G02*
X86075000Y-68750000I-75000J0D01*
G01*
X84750000Y-68750000D01*
G75*
G02*
X84675000Y-68675000I0J75000D01*
G01*
G37*
G04 #@! TD.AperFunction*
G04 #@! TA.AperFunction,SMDPad,CuDef*
G36*
G01*
X84675000Y-69175000D02*
X84675000Y-69025000D01*
G75*
G02*
X84750000Y-68950000I75000J0D01*
G01*
X86075000Y-68950000D01*
G75*
G02*
X86150000Y-69025000I0J-75000D01*
G01*
X86150000Y-69175000D01*
G75*
G02*
X86075000Y-69250000I-75000J0D01*
G01*
X84750000Y-69250000D01*
G75*
G02*
X84675000Y-69175000I0J75000D01*
G01*
G37*
G04 #@! TD.AperFunction*
G04 #@! TA.AperFunction,SMDPad,CuDef*
G36*
G01*
X84675000Y-69675000D02*
X84675000Y-69525000D01*
G75*
G02*
X84750000Y-69450000I75000J0D01*
G01*
X86075000Y-69450000D01*
G75*
G02*
X86150000Y-69525000I0J-75000D01*
G01*
X86150000Y-69675000D01*
G75*
G02*
X86075000Y-69750000I-75000J0D01*
G01*
X84750000Y-69750000D01*
G75*
G02*
X84675000Y-69675000I0J75000D01*
G01*
G37*
G04 #@! TD.AperFunction*
G04 #@! TA.AperFunction,SMDPad,CuDef*
G36*
G01*
X84675000Y-70175000D02*
X84675000Y-70025000D01*
G75*
G02*
X84750000Y-69950000I75000J0D01*
G01*
X86075000Y-69950000D01*
G75*
G02*
X86150000Y-70025000I0J-75000D01*
G01*
X86150000Y-70175000D01*
G75*
G02*
X86075000Y-70250000I-75000J0D01*
G01*
X84750000Y-70250000D01*
G75*
G02*
X84675000Y-70175000I0J75000D01*
G01*
G37*
G04 #@! TD.AperFunction*
G04 #@! TA.AperFunction,SMDPad,CuDef*
G36*
G01*
X84675000Y-70675000D02*
X84675000Y-70525000D01*
G75*
G02*
X84750000Y-70450000I75000J0D01*
G01*
X86075000Y-70450000D01*
G75*
G02*
X86150000Y-70525000I0J-75000D01*
G01*
X86150000Y-70675000D01*
G75*
G02*
X86075000Y-70750000I-75000J0D01*
G01*
X84750000Y-70750000D01*
G75*
G02*
X84675000Y-70675000I0J75000D01*
G01*
G37*
G04 #@! TD.AperFunction*
G04 #@! TA.AperFunction,SMDPad,CuDef*
G36*
G01*
X83850000Y-72675000D02*
X83850000Y-71350000D01*
G75*
G02*
X83925000Y-71275000I75000J0D01*
G01*
X84075000Y-71275000D01*
G75*
G02*
X84150000Y-71350000I0J-75000D01*
G01*
X84150000Y-72675000D01*
G75*
G02*
X84075000Y-72750000I-75000J0D01*
G01*
X83925000Y-72750000D01*
G75*
G02*
X83850000Y-72675000I0J75000D01*
G01*
G37*
G04 #@! TD.AperFunction*
G04 #@! TA.AperFunction,SMDPad,CuDef*
G36*
G01*
X83350000Y-72675000D02*
X83350000Y-71350000D01*
G75*
G02*
X83425000Y-71275000I75000J0D01*
G01*
X83575000Y-71275000D01*
G75*
G02*
X83650000Y-71350000I0J-75000D01*
G01*
X83650000Y-72675000D01*
G75*
G02*
X83575000Y-72750000I-75000J0D01*
G01*
X83425000Y-72750000D01*
G75*
G02*
X83350000Y-72675000I0J75000D01*
G01*
G37*
G04 #@! TD.AperFunction*
G04 #@! TA.AperFunction,SMDPad,CuDef*
G36*
G01*
X82850000Y-72675000D02*
X82850000Y-71350000D01*
G75*
G02*
X82925000Y-71275000I75000J0D01*
G01*
X83075000Y-71275000D01*
G75*
G02*
X83150000Y-71350000I0J-75000D01*
G01*
X83150000Y-72675000D01*
G75*
G02*
X83075000Y-72750000I-75000J0D01*
G01*
X82925000Y-72750000D01*
G75*
G02*
X82850000Y-72675000I0J75000D01*
G01*
G37*
G04 #@! TD.AperFunction*
G04 #@! TA.AperFunction,SMDPad,CuDef*
G36*
G01*
X82350000Y-72675000D02*
X82350000Y-71350000D01*
G75*
G02*
X82425000Y-71275000I75000J0D01*
G01*
X82575000Y-71275000D01*
G75*
G02*
X82650000Y-71350000I0J-75000D01*
G01*
X82650000Y-72675000D01*
G75*
G02*
X82575000Y-72750000I-75000J0D01*
G01*
X82425000Y-72750000D01*
G75*
G02*
X82350000Y-72675000I0J75000D01*
G01*
G37*
G04 #@! TD.AperFunction*
G04 #@! TA.AperFunction,SMDPad,CuDef*
G36*
G01*
X81850000Y-72675000D02*
X81850000Y-71350000D01*
G75*
G02*
X81925000Y-71275000I75000J0D01*
G01*
X82075000Y-71275000D01*
G75*
G02*
X82150000Y-71350000I0J-75000D01*
G01*
X82150000Y-72675000D01*
G75*
G02*
X82075000Y-72750000I-75000J0D01*
G01*
X81925000Y-72750000D01*
G75*
G02*
X81850000Y-72675000I0J75000D01*
G01*
G37*
G04 #@! TD.AperFunction*
G04 #@! TA.AperFunction,SMDPad,CuDef*
G36*
G01*
X81350000Y-72675000D02*
X81350000Y-71350000D01*
G75*
G02*
X81425000Y-71275000I75000J0D01*
G01*
X81575000Y-71275000D01*
G75*
G02*
X81650000Y-71350000I0J-75000D01*
G01*
X81650000Y-72675000D01*
G75*
G02*
X81575000Y-72750000I-75000J0D01*
G01*
X81425000Y-72750000D01*
G75*
G02*
X81350000Y-72675000I0J75000D01*
G01*
G37*
G04 #@! TD.AperFunction*
G04 #@! TA.AperFunction,SMDPad,CuDef*
G36*
G01*
X80850000Y-72675000D02*
X80850000Y-71350000D01*
G75*
G02*
X80925000Y-71275000I75000J0D01*
G01*
X81075000Y-71275000D01*
G75*
G02*
X81150000Y-71350000I0J-75000D01*
G01*
X81150000Y-72675000D01*
G75*
G02*
X81075000Y-72750000I-75000J0D01*
G01*
X80925000Y-72750000D01*
G75*
G02*
X80850000Y-72675000I0J75000D01*
G01*
G37*
G04 #@! TD.AperFunction*
G04 #@! TA.AperFunction,SMDPad,CuDef*
G36*
G01*
X80350000Y-72675000D02*
X80350000Y-71350000D01*
G75*
G02*
X80425000Y-71275000I75000J0D01*
G01*
X80575000Y-71275000D01*
G75*
G02*
X80650000Y-71350000I0J-75000D01*
G01*
X80650000Y-72675000D01*
G75*
G02*
X80575000Y-72750000I-75000J0D01*
G01*
X80425000Y-72750000D01*
G75*
G02*
X80350000Y-72675000I0J75000D01*
G01*
G37*
G04 #@! TD.AperFunction*
G04 #@! TA.AperFunction,SMDPad,CuDef*
G36*
G01*
X79850000Y-72675000D02*
X79850000Y-71350000D01*
G75*
G02*
X79925000Y-71275000I75000J0D01*
G01*
X80075000Y-71275000D01*
G75*
G02*
X80150000Y-71350000I0J-75000D01*
G01*
X80150000Y-72675000D01*
G75*
G02*
X80075000Y-72750000I-75000J0D01*
G01*
X79925000Y-72750000D01*
G75*
G02*
X79850000Y-72675000I0J75000D01*
G01*
G37*
G04 #@! TD.AperFunction*
G04 #@! TA.AperFunction,SMDPad,CuDef*
G36*
G01*
X79350000Y-72675000D02*
X79350000Y-71350000D01*
G75*
G02*
X79425000Y-71275000I75000J0D01*
G01*
X79575000Y-71275000D01*
G75*
G02*
X79650000Y-71350000I0J-75000D01*
G01*
X79650000Y-72675000D01*
G75*
G02*
X79575000Y-72750000I-75000J0D01*
G01*
X79425000Y-72750000D01*
G75*
G02*
X79350000Y-72675000I0J75000D01*
G01*
G37*
G04 #@! TD.AperFunction*
G04 #@! TA.AperFunction,SMDPad,CuDef*
G36*
G01*
X78850000Y-72675000D02*
X78850000Y-71350000D01*
G75*
G02*
X78925000Y-71275000I75000J0D01*
G01*
X79075000Y-71275000D01*
G75*
G02*
X79150000Y-71350000I0J-75000D01*
G01*
X79150000Y-72675000D01*
G75*
G02*
X79075000Y-72750000I-75000J0D01*
G01*
X78925000Y-72750000D01*
G75*
G02*
X78850000Y-72675000I0J75000D01*
G01*
G37*
G04 #@! TD.AperFunction*
G04 #@! TA.AperFunction,SMDPad,CuDef*
G36*
G01*
X78350000Y-72675000D02*
X78350000Y-71350000D01*
G75*
G02*
X78425000Y-71275000I75000J0D01*
G01*
X78575000Y-71275000D01*
G75*
G02*
X78650000Y-71350000I0J-75000D01*
G01*
X78650000Y-72675000D01*
G75*
G02*
X78575000Y-72750000I-75000J0D01*
G01*
X78425000Y-72750000D01*
G75*
G02*
X78350000Y-72675000I0J75000D01*
G01*
G37*
G04 #@! TD.AperFunction*
G04 #@! TA.AperFunction,SMDPad,CuDef*
G36*
G01*
X76350000Y-70675000D02*
X76350000Y-70525000D01*
G75*
G02*
X76425000Y-70450000I75000J0D01*
G01*
X77750000Y-70450000D01*
G75*
G02*
X77825000Y-70525000I0J-75000D01*
G01*
X77825000Y-70675000D01*
G75*
G02*
X77750000Y-70750000I-75000J0D01*
G01*
X76425000Y-70750000D01*
G75*
G02*
X76350000Y-70675000I0J75000D01*
G01*
G37*
G04 #@! TD.AperFunction*
G04 #@! TA.AperFunction,SMDPad,CuDef*
G36*
G01*
X76350000Y-70175000D02*
X76350000Y-70025000D01*
G75*
G02*
X76425000Y-69950000I75000J0D01*
G01*
X77750000Y-69950000D01*
G75*
G02*
X77825000Y-70025000I0J-75000D01*
G01*
X77825000Y-70175000D01*
G75*
G02*
X77750000Y-70250000I-75000J0D01*
G01*
X76425000Y-70250000D01*
G75*
G02*
X76350000Y-70175000I0J75000D01*
G01*
G37*
G04 #@! TD.AperFunction*
G04 #@! TA.AperFunction,SMDPad,CuDef*
G36*
G01*
X76350000Y-69675000D02*
X76350000Y-69525000D01*
G75*
G02*
X76425000Y-69450000I75000J0D01*
G01*
X77750000Y-69450000D01*
G75*
G02*
X77825000Y-69525000I0J-75000D01*
G01*
X77825000Y-69675000D01*
G75*
G02*
X77750000Y-69750000I-75000J0D01*
G01*
X76425000Y-69750000D01*
G75*
G02*
X76350000Y-69675000I0J75000D01*
G01*
G37*
G04 #@! TD.AperFunction*
G04 #@! TA.AperFunction,SMDPad,CuDef*
G36*
G01*
X76350000Y-69175000D02*
X76350000Y-69025000D01*
G75*
G02*
X76425000Y-68950000I75000J0D01*
G01*
X77750000Y-68950000D01*
G75*
G02*
X77825000Y-69025000I0J-75000D01*
G01*
X77825000Y-69175000D01*
G75*
G02*
X77750000Y-69250000I-75000J0D01*
G01*
X76425000Y-69250000D01*
G75*
G02*
X76350000Y-69175000I0J75000D01*
G01*
G37*
G04 #@! TD.AperFunction*
G04 #@! TA.AperFunction,SMDPad,CuDef*
G36*
G01*
X76350000Y-68675000D02*
X76350000Y-68525000D01*
G75*
G02*
X76425000Y-68450000I75000J0D01*
G01*
X77750000Y-68450000D01*
G75*
G02*
X77825000Y-68525000I0J-75000D01*
G01*
X77825000Y-68675000D01*
G75*
G02*
X77750000Y-68750000I-75000J0D01*
G01*
X76425000Y-68750000D01*
G75*
G02*
X76350000Y-68675000I0J75000D01*
G01*
G37*
G04 #@! TD.AperFunction*
G04 #@! TA.AperFunction,SMDPad,CuDef*
G36*
G01*
X76350000Y-68175000D02*
X76350000Y-68025000D01*
G75*
G02*
X76425000Y-67950000I75000J0D01*
G01*
X77750000Y-67950000D01*
G75*
G02*
X77825000Y-68025000I0J-75000D01*
G01*
X77825000Y-68175000D01*
G75*
G02*
X77750000Y-68250000I-75000J0D01*
G01*
X76425000Y-68250000D01*
G75*
G02*
X76350000Y-68175000I0J75000D01*
G01*
G37*
G04 #@! TD.AperFunction*
G04 #@! TA.AperFunction,SMDPad,CuDef*
G36*
G01*
X76350000Y-67675000D02*
X76350000Y-67525000D01*
G75*
G02*
X76425000Y-67450000I75000J0D01*
G01*
X77750000Y-67450000D01*
G75*
G02*
X77825000Y-67525000I0J-75000D01*
G01*
X77825000Y-67675000D01*
G75*
G02*
X77750000Y-67750000I-75000J0D01*
G01*
X76425000Y-67750000D01*
G75*
G02*
X76350000Y-67675000I0J75000D01*
G01*
G37*
G04 #@! TD.AperFunction*
G04 #@! TA.AperFunction,SMDPad,CuDef*
G36*
G01*
X76350000Y-67175000D02*
X76350000Y-67025000D01*
G75*
G02*
X76425000Y-66950000I75000J0D01*
G01*
X77750000Y-66950000D01*
G75*
G02*
X77825000Y-67025000I0J-75000D01*
G01*
X77825000Y-67175000D01*
G75*
G02*
X77750000Y-67250000I-75000J0D01*
G01*
X76425000Y-67250000D01*
G75*
G02*
X76350000Y-67175000I0J75000D01*
G01*
G37*
G04 #@! TD.AperFunction*
G04 #@! TA.AperFunction,SMDPad,CuDef*
G36*
G01*
X76350000Y-66675000D02*
X76350000Y-66525000D01*
G75*
G02*
X76425000Y-66450000I75000J0D01*
G01*
X77750000Y-66450000D01*
G75*
G02*
X77825000Y-66525000I0J-75000D01*
G01*
X77825000Y-66675000D01*
G75*
G02*
X77750000Y-66750000I-75000J0D01*
G01*
X76425000Y-66750000D01*
G75*
G02*
X76350000Y-66675000I0J75000D01*
G01*
G37*
G04 #@! TD.AperFunction*
G04 #@! TA.AperFunction,SMDPad,CuDef*
G36*
G01*
X76350000Y-66175000D02*
X76350000Y-66025000D01*
G75*
G02*
X76425000Y-65950000I75000J0D01*
G01*
X77750000Y-65950000D01*
G75*
G02*
X77825000Y-66025000I0J-75000D01*
G01*
X77825000Y-66175000D01*
G75*
G02*
X77750000Y-66250000I-75000J0D01*
G01*
X76425000Y-66250000D01*
G75*
G02*
X76350000Y-66175000I0J75000D01*
G01*
G37*
G04 #@! TD.AperFunction*
G04 #@! TA.AperFunction,SMDPad,CuDef*
G36*
G01*
X76350000Y-65675000D02*
X76350000Y-65525000D01*
G75*
G02*
X76425000Y-65450000I75000J0D01*
G01*
X77750000Y-65450000D01*
G75*
G02*
X77825000Y-65525000I0J-75000D01*
G01*
X77825000Y-65675000D01*
G75*
G02*
X77750000Y-65750000I-75000J0D01*
G01*
X76425000Y-65750000D01*
G75*
G02*
X76350000Y-65675000I0J75000D01*
G01*
G37*
G04 #@! TD.AperFunction*
G04 #@! TA.AperFunction,SMDPad,CuDef*
G36*
G01*
X76350000Y-65175000D02*
X76350000Y-65025000D01*
G75*
G02*
X76425000Y-64950000I75000J0D01*
G01*
X77750000Y-64950000D01*
G75*
G02*
X77825000Y-65025000I0J-75000D01*
G01*
X77825000Y-65175000D01*
G75*
G02*
X77750000Y-65250000I-75000J0D01*
G01*
X76425000Y-65250000D01*
G75*
G02*
X76350000Y-65175000I0J75000D01*
G01*
G37*
G04 #@! TD.AperFunction*
G04 #@! TA.AperFunction,SMDPad,CuDef*
G36*
G01*
X100425000Y-66575000D02*
X100425000Y-67825000D01*
G75*
G02*
X100175000Y-68075000I-250000J0D01*
G01*
X99425000Y-68075000D01*
G75*
G02*
X99175000Y-67825000I0J250000D01*
G01*
X99175000Y-66575000D01*
G75*
G02*
X99425000Y-66325000I250000J0D01*
G01*
X100175000Y-66325000D01*
G75*
G02*
X100425000Y-66575000I0J-250000D01*
G01*
G37*
G04 #@! TD.AperFunction*
G04 #@! TA.AperFunction,SMDPad,CuDef*
G36*
G01*
X103225000Y-66575000D02*
X103225000Y-67825000D01*
G75*
G02*
X102975000Y-68075000I-250000J0D01*
G01*
X102225000Y-68075000D01*
G75*
G02*
X101975000Y-67825000I0J250000D01*
G01*
X101975000Y-66575000D01*
G75*
G02*
X102225000Y-66325000I250000J0D01*
G01*
X102975000Y-66325000D01*
G75*
G02*
X103225000Y-66575000I0J-250000D01*
G01*
G37*
G04 #@! TD.AperFunction*
G04 #@! TA.AperFunction,SMDPad,CuDef*
G36*
G01*
X100425000Y-58225000D02*
X100425000Y-59475000D01*
G75*
G02*
X100175000Y-59725000I-250000J0D01*
G01*
X99425000Y-59725000D01*
G75*
G02*
X99175000Y-59475000I0J250000D01*
G01*
X99175000Y-58225000D01*
G75*
G02*
X99425000Y-57975000I250000J0D01*
G01*
X100175000Y-57975000D01*
G75*
G02*
X100425000Y-58225000I0J-250000D01*
G01*
G37*
G04 #@! TD.AperFunction*
G04 #@! TA.AperFunction,SMDPad,CuDef*
G36*
G01*
X103225000Y-58225000D02*
X103225000Y-59475000D01*
G75*
G02*
X102975000Y-59725000I-250000J0D01*
G01*
X102225000Y-59725000D01*
G75*
G02*
X101975000Y-59475000I0J250000D01*
G01*
X101975000Y-58225000D01*
G75*
G02*
X102225000Y-57975000I250000J0D01*
G01*
X102975000Y-57975000D01*
G75*
G02*
X103225000Y-58225000I0J-250000D01*
G01*
G37*
G04 #@! TD.AperFunction*
G04 #@! TA.AperFunction,SMDPad,CuDef*
G36*
G01*
X103475000Y-85075000D02*
X102225000Y-85075000D01*
G75*
G02*
X101975000Y-84825000I0J250000D01*
G01*
X101975000Y-84075000D01*
G75*
G02*
X102225000Y-83825000I250000J0D01*
G01*
X103475000Y-83825000D01*
G75*
G02*
X103725000Y-84075000I0J-250000D01*
G01*
X103725000Y-84825000D01*
G75*
G02*
X103475000Y-85075000I-250000J0D01*
G01*
G37*
G04 #@! TD.AperFunction*
G04 #@! TA.AperFunction,SMDPad,CuDef*
G36*
G01*
X103475000Y-87875000D02*
X102225000Y-87875000D01*
G75*
G02*
X101975000Y-87625000I0J250000D01*
G01*
X101975000Y-86875000D01*
G75*
G02*
X102225000Y-86625000I250000J0D01*
G01*
X103475000Y-86625000D01*
G75*
G02*
X103725000Y-86875000I0J-250000D01*
G01*
X103725000Y-87625000D01*
G75*
G02*
X103475000Y-87875000I-250000J0D01*
G01*
G37*
G04 #@! TD.AperFunction*
G04 #@! TA.AperFunction,SMDPad,CuDef*
G36*
G01*
X100875000Y-94425000D02*
X100875000Y-95675000D01*
G75*
G02*
X100625000Y-95925000I-250000J0D01*
G01*
X99875000Y-95925000D01*
G75*
G02*
X99625000Y-95675000I0J250000D01*
G01*
X99625000Y-94425000D01*
G75*
G02*
X99875000Y-94175000I250000J0D01*
G01*
X100625000Y-94175000D01*
G75*
G02*
X100875000Y-94425000I0J-250000D01*
G01*
G37*
G04 #@! TD.AperFunction*
G04 #@! TA.AperFunction,SMDPad,CuDef*
G36*
G01*
X103675000Y-94425000D02*
X103675000Y-95675000D01*
G75*
G02*
X103425000Y-95925000I-250000J0D01*
G01*
X102675000Y-95925000D01*
G75*
G02*
X102425000Y-95675000I0J250000D01*
G01*
X102425000Y-94425000D01*
G75*
G02*
X102675000Y-94175000I250000J0D01*
G01*
X103425000Y-94175000D01*
G75*
G02*
X103675000Y-94425000I0J-250000D01*
G01*
G37*
G04 #@! TD.AperFunction*
G04 #@! TA.AperFunction,SMDPad,CuDef*
G36*
G01*
X100575000Y-72175000D02*
X100575000Y-73425000D01*
G75*
G02*
X100325000Y-73675000I-250000J0D01*
G01*
X99575000Y-73675000D01*
G75*
G02*
X99325000Y-73425000I0J250000D01*
G01*
X99325000Y-72175000D01*
G75*
G02*
X99575000Y-71925000I250000J0D01*
G01*
X100325000Y-71925000D01*
G75*
G02*
X100575000Y-72175000I0J-250000D01*
G01*
G37*
G04 #@! TD.AperFunction*
G04 #@! TA.AperFunction,SMDPad,CuDef*
G36*
G01*
X103375000Y-72175000D02*
X103375000Y-73425000D01*
G75*
G02*
X103125000Y-73675000I-250000J0D01*
G01*
X102375000Y-73675000D01*
G75*
G02*
X102125000Y-73425000I0J250000D01*
G01*
X102125000Y-72175000D01*
G75*
G02*
X102375000Y-71925000I250000J0D01*
G01*
X103125000Y-71925000D01*
G75*
G02*
X103375000Y-72175000I0J-250000D01*
G01*
G37*
G04 #@! TD.AperFunction*
G04 #@! TA.AperFunction,SMDPad,CuDef*
G36*
G01*
X100625000Y-80525000D02*
X100625000Y-81775000D01*
G75*
G02*
X100375000Y-82025000I-250000J0D01*
G01*
X99625000Y-82025000D01*
G75*
G02*
X99375000Y-81775000I0J250000D01*
G01*
X99375000Y-80525000D01*
G75*
G02*
X99625000Y-80275000I250000J0D01*
G01*
X100375000Y-80275000D01*
G75*
G02*
X100625000Y-80525000I0J-250000D01*
G01*
G37*
G04 #@! TD.AperFunction*
G04 #@! TA.AperFunction,SMDPad,CuDef*
G36*
G01*
X103425000Y-80525000D02*
X103425000Y-81775000D01*
G75*
G02*
X103175000Y-82025000I-250000J0D01*
G01*
X102425000Y-82025000D01*
G75*
G02*
X102175000Y-81775000I0J250000D01*
G01*
X102175000Y-80525000D01*
G75*
G02*
X102425000Y-80275000I250000J0D01*
G01*
X103175000Y-80275000D01*
G75*
G02*
X103425000Y-80525000I0J-250000D01*
G01*
G37*
G04 #@! TD.AperFunction*
G04 #@! TA.AperFunction,SMDPad,CuDef*
G36*
G01*
X81762500Y-60306250D02*
X81762500Y-59793750D01*
G75*
G02*
X81981250Y-59575000I218750J0D01*
G01*
X82418750Y-59575000D01*
G75*
G02*
X82637500Y-59793750I0J-218750D01*
G01*
X82637500Y-60306250D01*
G75*
G02*
X82418750Y-60525000I-218750J0D01*
G01*
X81981250Y-60525000D01*
G75*
G02*
X81762500Y-60306250I0J218750D01*
G01*
G37*
G04 #@! TD.AperFunction*
G04 #@! TA.AperFunction,SMDPad,CuDef*
G36*
G01*
X80187500Y-60306250D02*
X80187500Y-59793750D01*
G75*
G02*
X80406250Y-59575000I218750J0D01*
G01*
X80843750Y-59575000D01*
G75*
G02*
X81062500Y-59793750I0J-218750D01*
G01*
X81062500Y-60306250D01*
G75*
G02*
X80843750Y-60525000I-218750J0D01*
G01*
X80406250Y-60525000D01*
G75*
G02*
X80187500Y-60306250I0J218750D01*
G01*
G37*
G04 #@! TD.AperFunction*
D14*
X73800000Y-87500000D03*
X73800000Y-91600000D03*
G04 #@! TA.AperFunction,SMDPad,CuDef*
G36*
G01*
X84950000Y-58949999D02*
X84950000Y-60250001D01*
G75*
G02*
X84700001Y-60500000I-249999J0D01*
G01*
X83999999Y-60500000D01*
G75*
G02*
X83750000Y-60250001I0J249999D01*
G01*
X83750000Y-58949999D01*
G75*
G02*
X83999999Y-58700000I249999J0D01*
G01*
X84700001Y-58700000D01*
G75*
G02*
X84950000Y-58949999I0J-249999D01*
G01*
G37*
G04 #@! TD.AperFunction*
G04 #@! TA.AperFunction,SMDPad,CuDef*
G36*
G01*
X90550000Y-58949999D02*
X90550000Y-60250001D01*
G75*
G02*
X90300001Y-60500000I-249999J0D01*
G01*
X89599999Y-60500000D01*
G75*
G02*
X89350000Y-60250001I0J249999D01*
G01*
X89350000Y-58949999D01*
G75*
G02*
X89599999Y-58700000I249999J0D01*
G01*
X90300001Y-58700000D01*
G75*
G02*
X90550000Y-58949999I0J-249999D01*
G01*
G37*
G04 #@! TD.AperFunction*
G04 #@! TA.AperFunction,SMDPad,CuDef*
G36*
G01*
X85950000Y-56450000D02*
X85950000Y-57700000D01*
G75*
G02*
X85800000Y-57850000I-150000J0D01*
G01*
X85500000Y-57850000D01*
G75*
G02*
X85350000Y-57700000I0J150000D01*
G01*
X85350000Y-56450000D01*
G75*
G02*
X85500000Y-56300000I150000J0D01*
G01*
X85800000Y-56300000D01*
G75*
G02*
X85950000Y-56450000I0J-150000D01*
G01*
G37*
G04 #@! TD.AperFunction*
G04 #@! TA.AperFunction,SMDPad,CuDef*
G36*
G01*
X86950000Y-56450000D02*
X86950000Y-57700000D01*
G75*
G02*
X86800000Y-57850000I-150000J0D01*
G01*
X86500000Y-57850000D01*
G75*
G02*
X86350000Y-57700000I0J150000D01*
G01*
X86350000Y-56450000D01*
G75*
G02*
X86500000Y-56300000I150000J0D01*
G01*
X86800000Y-56300000D01*
G75*
G02*
X86950000Y-56450000I0J-150000D01*
G01*
G37*
G04 #@! TD.AperFunction*
G04 #@! TA.AperFunction,SMDPad,CuDef*
G36*
G01*
X87950000Y-56450000D02*
X87950000Y-57700000D01*
G75*
G02*
X87800000Y-57850000I-150000J0D01*
G01*
X87500000Y-57850000D01*
G75*
G02*
X87350000Y-57700000I0J150000D01*
G01*
X87350000Y-56450000D01*
G75*
G02*
X87500000Y-56300000I150000J0D01*
G01*
X87800000Y-56300000D01*
G75*
G02*
X87950000Y-56450000I0J-150000D01*
G01*
G37*
G04 #@! TD.AperFunction*
G04 #@! TA.AperFunction,SMDPad,CuDef*
G36*
G01*
X88950000Y-56450000D02*
X88950000Y-57700000D01*
G75*
G02*
X88800000Y-57850000I-150000J0D01*
G01*
X88500000Y-57850000D01*
G75*
G02*
X88350000Y-57700000I0J150000D01*
G01*
X88350000Y-56450000D01*
G75*
G02*
X88500000Y-56300000I150000J0D01*
G01*
X88800000Y-56300000D01*
G75*
G02*
X88950000Y-56450000I0J-150000D01*
G01*
G37*
G04 #@! TD.AperFunction*
G04 #@! TA.AperFunction,SMDPad,CuDef*
G36*
G01*
X95837500Y-66243750D02*
X95837500Y-67156250D01*
G75*
G02*
X95593750Y-67400000I-243750J0D01*
G01*
X95106250Y-67400000D01*
G75*
G02*
X94862500Y-67156250I0J243750D01*
G01*
X94862500Y-66243750D01*
G75*
G02*
X95106250Y-66000000I243750J0D01*
G01*
X95593750Y-66000000D01*
G75*
G02*
X95837500Y-66243750I0J-243750D01*
G01*
G37*
G04 #@! TD.AperFunction*
G04 #@! TA.AperFunction,SMDPad,CuDef*
G36*
G01*
X97712500Y-66243750D02*
X97712500Y-67156250D01*
G75*
G02*
X97468750Y-67400000I-243750J0D01*
G01*
X96981250Y-67400000D01*
G75*
G02*
X96737500Y-67156250I0J243750D01*
G01*
X96737500Y-66243750D01*
G75*
G02*
X96981250Y-66000000I243750J0D01*
G01*
X97468750Y-66000000D01*
G75*
G02*
X97712500Y-66243750I0J-243750D01*
G01*
G37*
G04 #@! TD.AperFunction*
G04 #@! TA.AperFunction,SMDPad,CuDef*
G36*
G01*
X96787500Y-59956250D02*
X96787500Y-59443750D01*
G75*
G02*
X97006250Y-59225000I218750J0D01*
G01*
X97443750Y-59225000D01*
G75*
G02*
X97662500Y-59443750I0J-218750D01*
G01*
X97662500Y-59956250D01*
G75*
G02*
X97443750Y-60175000I-218750J0D01*
G01*
X97006250Y-60175000D01*
G75*
G02*
X96787500Y-59956250I0J218750D01*
G01*
G37*
G04 #@! TD.AperFunction*
G04 #@! TA.AperFunction,SMDPad,CuDef*
G36*
G01*
X95212500Y-59956250D02*
X95212500Y-59443750D01*
G75*
G02*
X95431250Y-59225000I218750J0D01*
G01*
X95868750Y-59225000D01*
G75*
G02*
X96087500Y-59443750I0J-218750D01*
G01*
X96087500Y-59956250D01*
G75*
G02*
X95868750Y-60175000I-218750J0D01*
G01*
X95431250Y-60175000D01*
G75*
G02*
X95212500Y-59956250I0J218750D01*
G01*
G37*
G04 #@! TD.AperFunction*
G04 #@! TA.AperFunction,SMDPad,CuDef*
G36*
G01*
X97043750Y-93700000D02*
X97956250Y-93700000D01*
G75*
G02*
X98200000Y-93943750I0J-243750D01*
G01*
X98200000Y-94431250D01*
G75*
G02*
X97956250Y-94675000I-243750J0D01*
G01*
X97043750Y-94675000D01*
G75*
G02*
X96800000Y-94431250I0J243750D01*
G01*
X96800000Y-93943750D01*
G75*
G02*
X97043750Y-93700000I243750J0D01*
G01*
G37*
G04 #@! TD.AperFunction*
G04 #@! TA.AperFunction,SMDPad,CuDef*
G36*
G01*
X97043750Y-91825000D02*
X97956250Y-91825000D01*
G75*
G02*
X98200000Y-92068750I0J-243750D01*
G01*
X98200000Y-92556250D01*
G75*
G02*
X97956250Y-92800000I-243750J0D01*
G01*
X97043750Y-92800000D01*
G75*
G02*
X96800000Y-92556250I0J243750D01*
G01*
X96800000Y-92068750D01*
G75*
G02*
X97043750Y-91825000I243750J0D01*
G01*
G37*
G04 #@! TD.AperFunction*
G04 #@! TA.AperFunction,SMDPad,CuDef*
G36*
G01*
X97956250Y-89550000D02*
X97443750Y-89550000D01*
G75*
G02*
X97225000Y-89331250I0J218750D01*
G01*
X97225000Y-88893750D01*
G75*
G02*
X97443750Y-88675000I218750J0D01*
G01*
X97956250Y-88675000D01*
G75*
G02*
X98175000Y-88893750I0J-218750D01*
G01*
X98175000Y-89331250D01*
G75*
G02*
X97956250Y-89550000I-218750J0D01*
G01*
G37*
G04 #@! TD.AperFunction*
G04 #@! TA.AperFunction,SMDPad,CuDef*
G36*
G01*
X97956250Y-91125000D02*
X97443750Y-91125000D01*
G75*
G02*
X97225000Y-90906250I0J218750D01*
G01*
X97225000Y-90468750D01*
G75*
G02*
X97443750Y-90250000I218750J0D01*
G01*
X97956250Y-90250000D01*
G75*
G02*
X98175000Y-90468750I0J-218750D01*
G01*
X98175000Y-90906250D01*
G75*
G02*
X97956250Y-91125000I-218750J0D01*
G01*
G37*
G04 #@! TD.AperFunction*
G04 #@! TA.AperFunction,SMDPad,CuDef*
G36*
G01*
X96050000Y-80143750D02*
X96050000Y-81056250D01*
G75*
G02*
X95806250Y-81300000I-243750J0D01*
G01*
X95318750Y-81300000D01*
G75*
G02*
X95075000Y-81056250I0J243750D01*
G01*
X95075000Y-80143750D01*
G75*
G02*
X95318750Y-79900000I243750J0D01*
G01*
X95806250Y-79900000D01*
G75*
G02*
X96050000Y-80143750I0J-243750D01*
G01*
G37*
G04 #@! TD.AperFunction*
G04 #@! TA.AperFunction,SMDPad,CuDef*
G36*
G01*
X97925000Y-80143750D02*
X97925000Y-81056250D01*
G75*
G02*
X97681250Y-81300000I-243750J0D01*
G01*
X97193750Y-81300000D01*
G75*
G02*
X96950000Y-81056250I0J243750D01*
G01*
X96950000Y-80143750D01*
G75*
G02*
X97193750Y-79900000I243750J0D01*
G01*
X97681250Y-79900000D01*
G75*
G02*
X97925000Y-80143750I0J-243750D01*
G01*
G37*
G04 #@! TD.AperFunction*
G04 #@! TA.AperFunction,SMDPad,CuDef*
G36*
G01*
X96900000Y-73906250D02*
X96900000Y-73393750D01*
G75*
G02*
X97118750Y-73175000I218750J0D01*
G01*
X97556250Y-73175000D01*
G75*
G02*
X97775000Y-73393750I0J-218750D01*
G01*
X97775000Y-73906250D01*
G75*
G02*
X97556250Y-74125000I-218750J0D01*
G01*
X97118750Y-74125000D01*
G75*
G02*
X96900000Y-73906250I0J218750D01*
G01*
G37*
G04 #@! TD.AperFunction*
G04 #@! TA.AperFunction,SMDPad,CuDef*
G36*
G01*
X95325000Y-73906250D02*
X95325000Y-73393750D01*
G75*
G02*
X95543750Y-73175000I218750J0D01*
G01*
X95981250Y-73175000D01*
G75*
G02*
X96200000Y-73393750I0J-218750D01*
G01*
X96200000Y-73906250D01*
G75*
G02*
X95981250Y-74125000I-218750J0D01*
G01*
X95543750Y-74125000D01*
G75*
G02*
X95325000Y-73906250I0J218750D01*
G01*
G37*
G04 #@! TD.AperFunction*
G04 #@! TA.AperFunction,SMDPad,CuDef*
G36*
G01*
X87000000Y-63956250D02*
X87000000Y-63443750D01*
G75*
G02*
X87218750Y-63225000I218750J0D01*
G01*
X87656250Y-63225000D01*
G75*
G02*
X87875000Y-63443750I0J-218750D01*
G01*
X87875000Y-63956250D01*
G75*
G02*
X87656250Y-64175000I-218750J0D01*
G01*
X87218750Y-64175000D01*
G75*
G02*
X87000000Y-63956250I0J218750D01*
G01*
G37*
G04 #@! TD.AperFunction*
G04 #@! TA.AperFunction,SMDPad,CuDef*
G36*
G01*
X85425000Y-63956250D02*
X85425000Y-63443750D01*
G75*
G02*
X85643750Y-63225000I218750J0D01*
G01*
X86081250Y-63225000D01*
G75*
G02*
X86300000Y-63443750I0J-218750D01*
G01*
X86300000Y-63956250D01*
G75*
G02*
X86081250Y-64175000I-218750J0D01*
G01*
X85643750Y-64175000D01*
G75*
G02*
X85425000Y-63956250I0J218750D01*
G01*
G37*
G04 #@! TD.AperFunction*
G04 #@! TA.AperFunction,SMDPad,CuDef*
G36*
G01*
X73600000Y-69893750D02*
X73600000Y-70406250D01*
G75*
G02*
X73381250Y-70625000I-218750J0D01*
G01*
X72943750Y-70625000D01*
G75*
G02*
X72725000Y-70406250I0J218750D01*
G01*
X72725000Y-69893750D01*
G75*
G02*
X72943750Y-69675000I218750J0D01*
G01*
X73381250Y-69675000D01*
G75*
G02*
X73600000Y-69893750I0J-218750D01*
G01*
G37*
G04 #@! TD.AperFunction*
G04 #@! TA.AperFunction,SMDPad,CuDef*
G36*
G01*
X75175000Y-69893750D02*
X75175000Y-70406250D01*
G75*
G02*
X74956250Y-70625000I-218750J0D01*
G01*
X74518750Y-70625000D01*
G75*
G02*
X74300000Y-70406250I0J218750D01*
G01*
X74300000Y-69893750D01*
G75*
G02*
X74518750Y-69675000I218750J0D01*
G01*
X74956250Y-69675000D01*
G75*
G02*
X75175000Y-69893750I0J-218750D01*
G01*
G37*
G04 #@! TD.AperFunction*
G04 #@! TA.AperFunction,SMDPad,CuDef*
G36*
G01*
X74262500Y-64506250D02*
X74262500Y-63993750D01*
G75*
G02*
X74481250Y-63775000I218750J0D01*
G01*
X74918750Y-63775000D01*
G75*
G02*
X75137500Y-63993750I0J-218750D01*
G01*
X75137500Y-64506250D01*
G75*
G02*
X74918750Y-64725000I-218750J0D01*
G01*
X74481250Y-64725000D01*
G75*
G02*
X74262500Y-64506250I0J218750D01*
G01*
G37*
G04 #@! TD.AperFunction*
G04 #@! TA.AperFunction,SMDPad,CuDef*
G36*
G01*
X72687500Y-64506250D02*
X72687500Y-63993750D01*
G75*
G02*
X72906250Y-63775000I218750J0D01*
G01*
X73343750Y-63775000D01*
G75*
G02*
X73562500Y-63993750I0J-218750D01*
G01*
X73562500Y-64506250D01*
G75*
G02*
X73343750Y-64725000I-218750J0D01*
G01*
X72906250Y-64725000D01*
G75*
G02*
X72687500Y-64506250I0J218750D01*
G01*
G37*
G04 #@! TD.AperFunction*
D15*
X68287500Y-103368000D03*
X59647500Y-99568000D03*
X59647500Y-103368000D03*
X68287500Y-99568000D03*
D16*
X66667500Y-99568000D03*
X61267500Y-99568000D03*
D17*
X64467500Y-99568000D03*
X63467500Y-99568000D03*
D16*
X65467500Y-99568000D03*
X62467500Y-99568000D03*
D18*
X79900000Y-103200000D03*
G04 #@! TA.AperFunction,SMDPad,CuDef*
G36*
G01*
X64756000Y-91863500D02*
X64756000Y-92613500D01*
G75*
G02*
X64693500Y-92676000I-62500J0D01*
G01*
X64568500Y-92676000D01*
G75*
G02*
X64506000Y-92613500I0J62500D01*
G01*
X64506000Y-91863500D01*
G75*
G02*
X64568500Y-91801000I62500J0D01*
G01*
X64693500Y-91801000D01*
G75*
G02*
X64756000Y-91863500I0J-62500D01*
G01*
G37*
G04 #@! TD.AperFunction*
G04 #@! TA.AperFunction,SMDPad,CuDef*
G36*
G01*
X64256000Y-91863500D02*
X64256000Y-92613500D01*
G75*
G02*
X64193500Y-92676000I-62500J0D01*
G01*
X64068500Y-92676000D01*
G75*
G02*
X64006000Y-92613500I0J62500D01*
G01*
X64006000Y-91863500D01*
G75*
G02*
X64068500Y-91801000I62500J0D01*
G01*
X64193500Y-91801000D01*
G75*
G02*
X64256000Y-91863500I0J-62500D01*
G01*
G37*
G04 #@! TD.AperFunction*
G04 #@! TA.AperFunction,SMDPad,CuDef*
G36*
G01*
X63756000Y-91863500D02*
X63756000Y-92613500D01*
G75*
G02*
X63693500Y-92676000I-62500J0D01*
G01*
X63568500Y-92676000D01*
G75*
G02*
X63506000Y-92613500I0J62500D01*
G01*
X63506000Y-91863500D01*
G75*
G02*
X63568500Y-91801000I62500J0D01*
G01*
X63693500Y-91801000D01*
G75*
G02*
X63756000Y-91863500I0J-62500D01*
G01*
G37*
G04 #@! TD.AperFunction*
G04 #@! TA.AperFunction,SMDPad,CuDef*
G36*
G01*
X63256000Y-91863500D02*
X63256000Y-92613500D01*
G75*
G02*
X63193500Y-92676000I-62500J0D01*
G01*
X63068500Y-92676000D01*
G75*
G02*
X63006000Y-92613500I0J62500D01*
G01*
X63006000Y-91863500D01*
G75*
G02*
X63068500Y-91801000I62500J0D01*
G01*
X63193500Y-91801000D01*
G75*
G02*
X63256000Y-91863500I0J-62500D01*
G01*
G37*
G04 #@! TD.AperFunction*
G04 #@! TA.AperFunction,SMDPad,CuDef*
G36*
G01*
X62881000Y-91488500D02*
X62881000Y-91613500D01*
G75*
G02*
X62818500Y-91676000I-62500J0D01*
G01*
X62068500Y-91676000D01*
G75*
G02*
X62006000Y-91613500I0J62500D01*
G01*
X62006000Y-91488500D01*
G75*
G02*
X62068500Y-91426000I62500J0D01*
G01*
X62818500Y-91426000D01*
G75*
G02*
X62881000Y-91488500I0J-62500D01*
G01*
G37*
G04 #@! TD.AperFunction*
G04 #@! TA.AperFunction,SMDPad,CuDef*
G36*
G01*
X62881000Y-90988500D02*
X62881000Y-91113500D01*
G75*
G02*
X62818500Y-91176000I-62500J0D01*
G01*
X62068500Y-91176000D01*
G75*
G02*
X62006000Y-91113500I0J62500D01*
G01*
X62006000Y-90988500D01*
G75*
G02*
X62068500Y-90926000I62500J0D01*
G01*
X62818500Y-90926000D01*
G75*
G02*
X62881000Y-90988500I0J-62500D01*
G01*
G37*
G04 #@! TD.AperFunction*
G04 #@! TA.AperFunction,SMDPad,CuDef*
G36*
G01*
X62881000Y-90488500D02*
X62881000Y-90613500D01*
G75*
G02*
X62818500Y-90676000I-62500J0D01*
G01*
X62068500Y-90676000D01*
G75*
G02*
X62006000Y-90613500I0J62500D01*
G01*
X62006000Y-90488500D01*
G75*
G02*
X62068500Y-90426000I62500J0D01*
G01*
X62818500Y-90426000D01*
G75*
G02*
X62881000Y-90488500I0J-62500D01*
G01*
G37*
G04 #@! TD.AperFunction*
G04 #@! TA.AperFunction,SMDPad,CuDef*
G36*
G01*
X62881000Y-89988500D02*
X62881000Y-90113500D01*
G75*
G02*
X62818500Y-90176000I-62500J0D01*
G01*
X62068500Y-90176000D01*
G75*
G02*
X62006000Y-90113500I0J62500D01*
G01*
X62006000Y-89988500D01*
G75*
G02*
X62068500Y-89926000I62500J0D01*
G01*
X62818500Y-89926000D01*
G75*
G02*
X62881000Y-89988500I0J-62500D01*
G01*
G37*
G04 #@! TD.AperFunction*
G04 #@! TA.AperFunction,SMDPad,CuDef*
G36*
G01*
X63256000Y-88988500D02*
X63256000Y-89738500D01*
G75*
G02*
X63193500Y-89801000I-62500J0D01*
G01*
X63068500Y-89801000D01*
G75*
G02*
X63006000Y-89738500I0J62500D01*
G01*
X63006000Y-88988500D01*
G75*
G02*
X63068500Y-88926000I62500J0D01*
G01*
X63193500Y-88926000D01*
G75*
G02*
X63256000Y-88988500I0J-62500D01*
G01*
G37*
G04 #@! TD.AperFunction*
G04 #@! TA.AperFunction,SMDPad,CuDef*
G36*
G01*
X63756000Y-88988500D02*
X63756000Y-89738500D01*
G75*
G02*
X63693500Y-89801000I-62500J0D01*
G01*
X63568500Y-89801000D01*
G75*
G02*
X63506000Y-89738500I0J62500D01*
G01*
X63506000Y-88988500D01*
G75*
G02*
X63568500Y-88926000I62500J0D01*
G01*
X63693500Y-88926000D01*
G75*
G02*
X63756000Y-88988500I0J-62500D01*
G01*
G37*
G04 #@! TD.AperFunction*
G04 #@! TA.AperFunction,SMDPad,CuDef*
G36*
G01*
X64256000Y-88988500D02*
X64256000Y-89738500D01*
G75*
G02*
X64193500Y-89801000I-62500J0D01*
G01*
X64068500Y-89801000D01*
G75*
G02*
X64006000Y-89738500I0J62500D01*
G01*
X64006000Y-88988500D01*
G75*
G02*
X64068500Y-88926000I62500J0D01*
G01*
X64193500Y-88926000D01*
G75*
G02*
X64256000Y-88988500I0J-62500D01*
G01*
G37*
G04 #@! TD.AperFunction*
G04 #@! TA.AperFunction,SMDPad,CuDef*
G36*
G01*
X64756000Y-88988500D02*
X64756000Y-89738500D01*
G75*
G02*
X64693500Y-89801000I-62500J0D01*
G01*
X64568500Y-89801000D01*
G75*
G02*
X64506000Y-89738500I0J62500D01*
G01*
X64506000Y-88988500D01*
G75*
G02*
X64568500Y-88926000I62500J0D01*
G01*
X64693500Y-88926000D01*
G75*
G02*
X64756000Y-88988500I0J-62500D01*
G01*
G37*
G04 #@! TD.AperFunction*
G04 #@! TA.AperFunction,SMDPad,CuDef*
G36*
G01*
X65756000Y-89988500D02*
X65756000Y-90113500D01*
G75*
G02*
X65693500Y-90176000I-62500J0D01*
G01*
X64943500Y-90176000D01*
G75*
G02*
X64881000Y-90113500I0J62500D01*
G01*
X64881000Y-89988500D01*
G75*
G02*
X64943500Y-89926000I62500J0D01*
G01*
X65693500Y-89926000D01*
G75*
G02*
X65756000Y-89988500I0J-62500D01*
G01*
G37*
G04 #@! TD.AperFunction*
G04 #@! TA.AperFunction,SMDPad,CuDef*
G36*
G01*
X65756000Y-90488500D02*
X65756000Y-90613500D01*
G75*
G02*
X65693500Y-90676000I-62500J0D01*
G01*
X64943500Y-90676000D01*
G75*
G02*
X64881000Y-90613500I0J62500D01*
G01*
X64881000Y-90488500D01*
G75*
G02*
X64943500Y-90426000I62500J0D01*
G01*
X65693500Y-90426000D01*
G75*
G02*
X65756000Y-90488500I0J-62500D01*
G01*
G37*
G04 #@! TD.AperFunction*
G04 #@! TA.AperFunction,SMDPad,CuDef*
G36*
G01*
X65756000Y-90988500D02*
X65756000Y-91113500D01*
G75*
G02*
X65693500Y-91176000I-62500J0D01*
G01*
X64943500Y-91176000D01*
G75*
G02*
X64881000Y-91113500I0J62500D01*
G01*
X64881000Y-90988500D01*
G75*
G02*
X64943500Y-90926000I62500J0D01*
G01*
X65693500Y-90926000D01*
G75*
G02*
X65756000Y-90988500I0J-62500D01*
G01*
G37*
G04 #@! TD.AperFunction*
G04 #@! TA.AperFunction,SMDPad,CuDef*
G36*
G01*
X65756000Y-91488500D02*
X65756000Y-91613500D01*
G75*
G02*
X65693500Y-91676000I-62500J0D01*
G01*
X64943500Y-91676000D01*
G75*
G02*
X64881000Y-91613500I0J62500D01*
G01*
X64881000Y-91488500D01*
G75*
G02*
X64943500Y-91426000I62500J0D01*
G01*
X65693500Y-91426000D01*
G75*
G02*
X65756000Y-91488500I0J-62500D01*
G01*
G37*
G04 #@! TD.AperFunction*
D12*
X63331000Y-90251000D03*
X64431000Y-90251000D03*
X63331000Y-91351000D03*
X64431000Y-91351000D03*
G04 #@! TA.AperFunction,SMDPad,CuDef*
G36*
G01*
X64681000Y-90251000D02*
X64681000Y-91351000D01*
G75*
G02*
X64431000Y-91601000I-250000J0D01*
G01*
X63331000Y-91601000D01*
G75*
G02*
X63081000Y-91351000I0J250000D01*
G01*
X63081000Y-90251000D01*
G75*
G02*
X63331000Y-90001000I250000J0D01*
G01*
X64431000Y-90001000D01*
G75*
G02*
X64681000Y-90251000I0J-250000D01*
G01*
G37*
G04 #@! TD.AperFunction*
D19*
X87200000Y-81700000D03*
X73800000Y-94400000D03*
X68900000Y-75900000D03*
D20*
X55010500Y-94130500D03*
X55010500Y-91630500D03*
X55010500Y-89130500D03*
G04 #@! TA.AperFunction,SMDPad,CuDef*
G36*
G01*
X57543750Y-91350000D02*
X58056250Y-91350000D01*
G75*
G02*
X58275000Y-91568750I0J-218750D01*
G01*
X58275000Y-92006250D01*
G75*
G02*
X58056250Y-92225000I-218750J0D01*
G01*
X57543750Y-92225000D01*
G75*
G02*
X57325000Y-92006250I0J218750D01*
G01*
X57325000Y-91568750D01*
G75*
G02*
X57543750Y-91350000I218750J0D01*
G01*
G37*
G04 #@! TD.AperFunction*
G04 #@! TA.AperFunction,SMDPad,CuDef*
G36*
G01*
X57543750Y-89775000D02*
X58056250Y-89775000D01*
G75*
G02*
X58275000Y-89993750I0J-218750D01*
G01*
X58275000Y-90431250D01*
G75*
G02*
X58056250Y-90650000I-218750J0D01*
G01*
X57543750Y-90650000D01*
G75*
G02*
X57325000Y-90431250I0J218750D01*
G01*
X57325000Y-89993750D01*
G75*
G02*
X57543750Y-89775000I218750J0D01*
G01*
G37*
G04 #@! TD.AperFunction*
G04 #@! TA.AperFunction,SMDPad,CuDef*
G36*
G01*
X90974500Y-86518750D02*
X90974500Y-87031250D01*
G75*
G02*
X90755750Y-87250000I-218750J0D01*
G01*
X90318250Y-87250000D01*
G75*
G02*
X90099500Y-87031250I0J218750D01*
G01*
X90099500Y-86518750D01*
G75*
G02*
X90318250Y-86300000I218750J0D01*
G01*
X90755750Y-86300000D01*
G75*
G02*
X90974500Y-86518750I0J-218750D01*
G01*
G37*
G04 #@! TD.AperFunction*
G04 #@! TA.AperFunction,SMDPad,CuDef*
G36*
G01*
X92549500Y-86518750D02*
X92549500Y-87031250D01*
G75*
G02*
X92330750Y-87250000I-218750J0D01*
G01*
X91893250Y-87250000D01*
G75*
G02*
X91674500Y-87031250I0J218750D01*
G01*
X91674500Y-86518750D01*
G75*
G02*
X91893250Y-86300000I218750J0D01*
G01*
X92330750Y-86300000D01*
G75*
G02*
X92549500Y-86518750I0J-218750D01*
G01*
G37*
G04 #@! TD.AperFunction*
G04 #@! TA.AperFunction,SMDPad,CuDef*
G36*
G01*
X91674500Y-85380250D02*
X91674500Y-84867750D01*
G75*
G02*
X91893250Y-84649000I218750J0D01*
G01*
X92330750Y-84649000D01*
G75*
G02*
X92549500Y-84867750I0J-218750D01*
G01*
X92549500Y-85380250D01*
G75*
G02*
X92330750Y-85599000I-218750J0D01*
G01*
X91893250Y-85599000D01*
G75*
G02*
X91674500Y-85380250I0J218750D01*
G01*
G37*
G04 #@! TD.AperFunction*
G04 #@! TA.AperFunction,SMDPad,CuDef*
G36*
G01*
X90099500Y-85380250D02*
X90099500Y-84867750D01*
G75*
G02*
X90318250Y-84649000I218750J0D01*
G01*
X90755750Y-84649000D01*
G75*
G02*
X90974500Y-84867750I0J-218750D01*
G01*
X90974500Y-85380250D01*
G75*
G02*
X90755750Y-85599000I-218750J0D01*
G01*
X90318250Y-85599000D01*
G75*
G02*
X90099500Y-85380250I0J218750D01*
G01*
G37*
G04 #@! TD.AperFunction*
G04 #@! TA.AperFunction,SMDPad,CuDef*
G36*
G01*
X80306500Y-94900750D02*
X80306500Y-95413250D01*
G75*
G02*
X80087750Y-95632000I-218750J0D01*
G01*
X79650250Y-95632000D01*
G75*
G02*
X79431500Y-95413250I0J218750D01*
G01*
X79431500Y-94900750D01*
G75*
G02*
X79650250Y-94682000I218750J0D01*
G01*
X80087750Y-94682000D01*
G75*
G02*
X80306500Y-94900750I0J-218750D01*
G01*
G37*
G04 #@! TD.AperFunction*
G04 #@! TA.AperFunction,SMDPad,CuDef*
G36*
G01*
X81881500Y-94900750D02*
X81881500Y-95413250D01*
G75*
G02*
X81662750Y-95632000I-218750J0D01*
G01*
X81225250Y-95632000D01*
G75*
G02*
X81006500Y-95413250I0J218750D01*
G01*
X81006500Y-94900750D01*
G75*
G02*
X81225250Y-94682000I218750J0D01*
G01*
X81662750Y-94682000D01*
G75*
G02*
X81881500Y-94900750I0J-218750D01*
G01*
G37*
G04 #@! TD.AperFunction*
G04 #@! TA.AperFunction,SMDPad,CuDef*
G36*
G01*
X82940250Y-94491000D02*
X83452750Y-94491000D01*
G75*
G02*
X83671500Y-94709750I0J-218750D01*
G01*
X83671500Y-95147250D01*
G75*
G02*
X83452750Y-95366000I-218750J0D01*
G01*
X82940250Y-95366000D01*
G75*
G02*
X82721500Y-95147250I0J218750D01*
G01*
X82721500Y-94709750D01*
G75*
G02*
X82940250Y-94491000I218750J0D01*
G01*
G37*
G04 #@! TD.AperFunction*
G04 #@! TA.AperFunction,SMDPad,CuDef*
G36*
G01*
X82940250Y-92916000D02*
X83452750Y-92916000D01*
G75*
G02*
X83671500Y-93134750I0J-218750D01*
G01*
X83671500Y-93572250D01*
G75*
G02*
X83452750Y-93791000I-218750J0D01*
G01*
X82940250Y-93791000D01*
G75*
G02*
X82721500Y-93572250I0J218750D01*
G01*
X82721500Y-93134750D01*
G75*
G02*
X82940250Y-92916000I218750J0D01*
G01*
G37*
G04 #@! TD.AperFunction*
G04 #@! TA.AperFunction,SMDPad,CuDef*
G36*
G01*
X68351250Y-85883000D02*
X67838750Y-85883000D01*
G75*
G02*
X67620000Y-85664250I0J218750D01*
G01*
X67620000Y-85226750D01*
G75*
G02*
X67838750Y-85008000I218750J0D01*
G01*
X68351250Y-85008000D01*
G75*
G02*
X68570000Y-85226750I0J-218750D01*
G01*
X68570000Y-85664250D01*
G75*
G02*
X68351250Y-85883000I-218750J0D01*
G01*
G37*
G04 #@! TD.AperFunction*
G04 #@! TA.AperFunction,SMDPad,CuDef*
G36*
G01*
X68351250Y-87458000D02*
X67838750Y-87458000D01*
G75*
G02*
X67620000Y-87239250I0J218750D01*
G01*
X67620000Y-86801750D01*
G75*
G02*
X67838750Y-86583000I218750J0D01*
G01*
X68351250Y-86583000D01*
G75*
G02*
X68570000Y-86801750I0J-218750D01*
G01*
X68570000Y-87239250D01*
G75*
G02*
X68351250Y-87458000I-218750J0D01*
G01*
G37*
G04 #@! TD.AperFunction*
G04 #@! TA.AperFunction,SMDPad,CuDef*
G36*
G01*
X66700250Y-85883000D02*
X66187750Y-85883000D01*
G75*
G02*
X65969000Y-85664250I0J218750D01*
G01*
X65969000Y-85226750D01*
G75*
G02*
X66187750Y-85008000I218750J0D01*
G01*
X66700250Y-85008000D01*
G75*
G02*
X66919000Y-85226750I0J-218750D01*
G01*
X66919000Y-85664250D01*
G75*
G02*
X66700250Y-85883000I-218750J0D01*
G01*
G37*
G04 #@! TD.AperFunction*
G04 #@! TA.AperFunction,SMDPad,CuDef*
G36*
G01*
X66700250Y-87458000D02*
X66187750Y-87458000D01*
G75*
G02*
X65969000Y-87239250I0J218750D01*
G01*
X65969000Y-86801750D01*
G75*
G02*
X66187750Y-86583000I218750J0D01*
G01*
X66700250Y-86583000D01*
G75*
G02*
X66919000Y-86801750I0J-218750D01*
G01*
X66919000Y-87239250D01*
G75*
G02*
X66700250Y-87458000I-218750J0D01*
G01*
G37*
G04 #@! TD.AperFunction*
G04 #@! TA.AperFunction,SMDPad,CuDef*
G36*
G01*
X68600750Y-93568000D02*
X69113250Y-93568000D01*
G75*
G02*
X69332000Y-93786750I0J-218750D01*
G01*
X69332000Y-94224250D01*
G75*
G02*
X69113250Y-94443000I-218750J0D01*
G01*
X68600750Y-94443000D01*
G75*
G02*
X68382000Y-94224250I0J218750D01*
G01*
X68382000Y-93786750D01*
G75*
G02*
X68600750Y-93568000I218750J0D01*
G01*
G37*
G04 #@! TD.AperFunction*
G04 #@! TA.AperFunction,SMDPad,CuDef*
G36*
G01*
X68600750Y-91993000D02*
X69113250Y-91993000D01*
G75*
G02*
X69332000Y-92211750I0J-218750D01*
G01*
X69332000Y-92649250D01*
G75*
G02*
X69113250Y-92868000I-218750J0D01*
G01*
X68600750Y-92868000D01*
G75*
G02*
X68382000Y-92649250I0J218750D01*
G01*
X68382000Y-92211750D01*
G75*
G02*
X68600750Y-91993000I218750J0D01*
G01*
G37*
G04 #@! TD.AperFunction*
G04 #@! TA.AperFunction,SMDPad,CuDef*
G36*
G01*
X64473250Y-97060500D02*
X64985750Y-97060500D01*
G75*
G02*
X65204500Y-97279250I0J-218750D01*
G01*
X65204500Y-97716750D01*
G75*
G02*
X64985750Y-97935500I-218750J0D01*
G01*
X64473250Y-97935500D01*
G75*
G02*
X64254500Y-97716750I0J218750D01*
G01*
X64254500Y-97279250D01*
G75*
G02*
X64473250Y-97060500I218750J0D01*
G01*
G37*
G04 #@! TD.AperFunction*
G04 #@! TA.AperFunction,SMDPad,CuDef*
G36*
G01*
X64473250Y-95485500D02*
X64985750Y-95485500D01*
G75*
G02*
X65204500Y-95704250I0J-218750D01*
G01*
X65204500Y-96141750D01*
G75*
G02*
X64985750Y-96360500I-218750J0D01*
G01*
X64473250Y-96360500D01*
G75*
G02*
X64254500Y-96141750I0J218750D01*
G01*
X64254500Y-95704250D01*
G75*
G02*
X64473250Y-95485500I218750J0D01*
G01*
G37*
G04 #@! TD.AperFunction*
G04 #@! TA.AperFunction,SMDPad,CuDef*
G36*
G01*
X62885750Y-97060500D02*
X63398250Y-97060500D01*
G75*
G02*
X63617000Y-97279250I0J-218750D01*
G01*
X63617000Y-97716750D01*
G75*
G02*
X63398250Y-97935500I-218750J0D01*
G01*
X62885750Y-97935500D01*
G75*
G02*
X62667000Y-97716750I0J218750D01*
G01*
X62667000Y-97279250D01*
G75*
G02*
X62885750Y-97060500I218750J0D01*
G01*
G37*
G04 #@! TD.AperFunction*
G04 #@! TA.AperFunction,SMDPad,CuDef*
G36*
G01*
X62885750Y-95485500D02*
X63398250Y-95485500D01*
G75*
G02*
X63617000Y-95704250I0J-218750D01*
G01*
X63617000Y-96141750D01*
G75*
G02*
X63398250Y-96360500I-218750J0D01*
G01*
X62885750Y-96360500D01*
G75*
G02*
X62667000Y-96141750I0J218750D01*
G01*
X62667000Y-95704250D01*
G75*
G02*
X62885750Y-95485500I218750J0D01*
G01*
G37*
G04 #@! TD.AperFunction*
G04 #@! TA.AperFunction,SMDPad,CuDef*
G36*
G01*
X67081250Y-92931500D02*
X66568750Y-92931500D01*
G75*
G02*
X66350000Y-92712750I0J218750D01*
G01*
X66350000Y-92275250D01*
G75*
G02*
X66568750Y-92056500I218750J0D01*
G01*
X67081250Y-92056500D01*
G75*
G02*
X67300000Y-92275250I0J-218750D01*
G01*
X67300000Y-92712750D01*
G75*
G02*
X67081250Y-92931500I-218750J0D01*
G01*
G37*
G04 #@! TD.AperFunction*
G04 #@! TA.AperFunction,SMDPad,CuDef*
G36*
G01*
X67081250Y-94506500D02*
X66568750Y-94506500D01*
G75*
G02*
X66350000Y-94287750I0J218750D01*
G01*
X66350000Y-93850250D01*
G75*
G02*
X66568750Y-93631500I218750J0D01*
G01*
X67081250Y-93631500D01*
G75*
G02*
X67300000Y-93850250I0J-218750D01*
G01*
X67300000Y-94287750D01*
G75*
G02*
X67081250Y-94506500I-218750J0D01*
G01*
G37*
G04 #@! TD.AperFunction*
G04 #@! TA.AperFunction,SMDPad,CuDef*
G36*
G01*
X61175750Y-92931500D02*
X60663250Y-92931500D01*
G75*
G02*
X60444500Y-92712750I0J218750D01*
G01*
X60444500Y-92275250D01*
G75*
G02*
X60663250Y-92056500I218750J0D01*
G01*
X61175750Y-92056500D01*
G75*
G02*
X61394500Y-92275250I0J-218750D01*
G01*
X61394500Y-92712750D01*
G75*
G02*
X61175750Y-92931500I-218750J0D01*
G01*
G37*
G04 #@! TD.AperFunction*
G04 #@! TA.AperFunction,SMDPad,CuDef*
G36*
G01*
X61175750Y-94506500D02*
X60663250Y-94506500D01*
G75*
G02*
X60444500Y-94287750I0J218750D01*
G01*
X60444500Y-93850250D01*
G75*
G02*
X60663250Y-93631500I218750J0D01*
G01*
X61175750Y-93631500D01*
G75*
G02*
X61394500Y-93850250I0J-218750D01*
G01*
X61394500Y-94287750D01*
G75*
G02*
X61175750Y-94506500I-218750J0D01*
G01*
G37*
G04 #@! TD.AperFunction*
D21*
X107000000Y-87100000D03*
X107000000Y-89600000D03*
X107000000Y-92100000D03*
G04 #@! TA.AperFunction,ComponentPad*
G36*
G01*
X107725000Y-95450000D02*
X106275000Y-95450000D01*
G75*
G02*
X106025000Y-95200000I0J250000D01*
G01*
X106025000Y-94000000D01*
G75*
G02*
X106275000Y-93750000I250000J0D01*
G01*
X107725000Y-93750000D01*
G75*
G02*
X107975000Y-94000000I0J-250000D01*
G01*
X107975000Y-95200000D01*
G75*
G02*
X107725000Y-95450000I-250000J0D01*
G01*
G37*
G04 #@! TD.AperFunction*
X106900000Y-59400000D03*
X106900000Y-61900000D03*
X106900000Y-64400000D03*
G04 #@! TA.AperFunction,ComponentPad*
G36*
G01*
X107625000Y-67750000D02*
X106175000Y-67750000D01*
G75*
G02*
X105925000Y-67500000I0J250000D01*
G01*
X105925000Y-66300000D01*
G75*
G02*
X106175000Y-66050000I250000J0D01*
G01*
X107625000Y-66050000D01*
G75*
G02*
X107875000Y-66300000I0J-250000D01*
G01*
X107875000Y-67500000D01*
G75*
G02*
X107625000Y-67750000I-250000J0D01*
G01*
G37*
G04 #@! TD.AperFunction*
X106934000Y-73237000D03*
X106934000Y-75737000D03*
X106934000Y-78237000D03*
G04 #@! TA.AperFunction,ComponentPad*
G36*
G01*
X107659000Y-81587000D02*
X106209000Y-81587000D01*
G75*
G02*
X105959000Y-81337000I0J250000D01*
G01*
X105959000Y-80137000D01*
G75*
G02*
X106209000Y-79887000I250000J0D01*
G01*
X107659000Y-79887000D01*
G75*
G02*
X107909000Y-80137000I0J-250000D01*
G01*
X107909000Y-81337000D01*
G75*
G02*
X107659000Y-81587000I-250000J0D01*
G01*
G37*
G04 #@! TD.AperFunction*
G04 #@! TA.AperFunction,SMDPad,CuDef*
G36*
G01*
X63271250Y-85883000D02*
X62758750Y-85883000D01*
G75*
G02*
X62540000Y-85664250I0J218750D01*
G01*
X62540000Y-85226750D01*
G75*
G02*
X62758750Y-85008000I218750J0D01*
G01*
X63271250Y-85008000D01*
G75*
G02*
X63490000Y-85226750I0J-218750D01*
G01*
X63490000Y-85664250D01*
G75*
G02*
X63271250Y-85883000I-218750J0D01*
G01*
G37*
G04 #@! TD.AperFunction*
G04 #@! TA.AperFunction,SMDPad,CuDef*
G36*
G01*
X63271250Y-87458000D02*
X62758750Y-87458000D01*
G75*
G02*
X62540000Y-87239250I0J218750D01*
G01*
X62540000Y-86801750D01*
G75*
G02*
X62758750Y-86583000I218750J0D01*
G01*
X63271250Y-86583000D01*
G75*
G02*
X63490000Y-86801750I0J-218750D01*
G01*
X63490000Y-87239250D01*
G75*
G02*
X63271250Y-87458000I-218750J0D01*
G01*
G37*
G04 #@! TD.AperFunction*
G04 #@! TA.AperFunction,SMDPad,CuDef*
G36*
G01*
X65049250Y-85883000D02*
X64536750Y-85883000D01*
G75*
G02*
X64318000Y-85664250I0J218750D01*
G01*
X64318000Y-85226750D01*
G75*
G02*
X64536750Y-85008000I218750J0D01*
G01*
X65049250Y-85008000D01*
G75*
G02*
X65268000Y-85226750I0J-218750D01*
G01*
X65268000Y-85664250D01*
G75*
G02*
X65049250Y-85883000I-218750J0D01*
G01*
G37*
G04 #@! TD.AperFunction*
G04 #@! TA.AperFunction,SMDPad,CuDef*
G36*
G01*
X65049250Y-87458000D02*
X64536750Y-87458000D01*
G75*
G02*
X64318000Y-87239250I0J218750D01*
G01*
X64318000Y-86801750D01*
G75*
G02*
X64536750Y-86583000I218750J0D01*
G01*
X65049250Y-86583000D01*
G75*
G02*
X65268000Y-86801750I0J-218750D01*
G01*
X65268000Y-87239250D01*
G75*
G02*
X65049250Y-87458000I-218750J0D01*
G01*
G37*
G04 #@! TD.AperFunction*
G04 #@! TA.AperFunction,SMDPad,CuDef*
G36*
G01*
X95374999Y-63975000D02*
X97225001Y-63975000D01*
G75*
G02*
X97475000Y-64224999I0J-249999D01*
G01*
X97475000Y-65050001D01*
G75*
G02*
X97225001Y-65300000I-249999J0D01*
G01*
X95374999Y-65300000D01*
G75*
G02*
X95125000Y-65050001I0J249999D01*
G01*
X95125000Y-64224999D01*
G75*
G02*
X95374999Y-63975000I249999J0D01*
G01*
G37*
G04 #@! TD.AperFunction*
G04 #@! TA.AperFunction,SMDPad,CuDef*
G36*
G01*
X95374999Y-60900000D02*
X97225001Y-60900000D01*
G75*
G02*
X97475000Y-61149999I0J-249999D01*
G01*
X97475000Y-61975001D01*
G75*
G02*
X97225001Y-62225000I-249999J0D01*
G01*
X95374999Y-62225000D01*
G75*
G02*
X95125000Y-61975001I0J249999D01*
G01*
X95125000Y-61149999D01*
G75*
G02*
X95374999Y-60900000I249999J0D01*
G01*
G37*
G04 #@! TD.AperFunction*
G04 #@! TA.AperFunction,SMDPad,CuDef*
G36*
G01*
X99625000Y-87525001D02*
X99625000Y-85674999D01*
G75*
G02*
X99874999Y-85425000I249999J0D01*
G01*
X100700001Y-85425000D01*
G75*
G02*
X100950000Y-85674999I0J-249999D01*
G01*
X100950000Y-87525001D01*
G75*
G02*
X100700001Y-87775000I-249999J0D01*
G01*
X99874999Y-87775000D01*
G75*
G02*
X99625000Y-87525001I0J249999D01*
G01*
G37*
G04 #@! TD.AperFunction*
G04 #@! TA.AperFunction,SMDPad,CuDef*
G36*
G01*
X96550000Y-87525001D02*
X96550000Y-85674999D01*
G75*
G02*
X96799999Y-85425000I249999J0D01*
G01*
X97625001Y-85425000D01*
G75*
G02*
X97875000Y-85674999I0J-249999D01*
G01*
X97875000Y-87525001D01*
G75*
G02*
X97625001Y-87775000I-249999J0D01*
G01*
X96799999Y-87775000D01*
G75*
G02*
X96550000Y-87525001I0J249999D01*
G01*
G37*
G04 #@! TD.AperFunction*
G04 #@! TA.AperFunction,SMDPad,CuDef*
G36*
G01*
X86108500Y-91009000D02*
X88158500Y-91009000D01*
G75*
G02*
X88408500Y-91259000I0J-250000D01*
G01*
X88408500Y-92834000D01*
G75*
G02*
X88158500Y-93084000I-250000J0D01*
G01*
X86108500Y-93084000D01*
G75*
G02*
X85858500Y-92834000I0J250000D01*
G01*
X85858500Y-91259000D01*
G75*
G02*
X86108500Y-91009000I250000J0D01*
G01*
G37*
G04 #@! TD.AperFunction*
G04 #@! TA.AperFunction,SMDPad,CuDef*
G36*
G01*
X86108500Y-84784000D02*
X88158500Y-84784000D01*
G75*
G02*
X88408500Y-85034000I0J-250000D01*
G01*
X88408500Y-86609000D01*
G75*
G02*
X88158500Y-86859000I-250000J0D01*
G01*
X86108500Y-86859000D01*
G75*
G02*
X85858500Y-86609000I0J250000D01*
G01*
X85858500Y-85034000D01*
G75*
G02*
X86108500Y-84784000I250000J0D01*
G01*
G37*
G04 #@! TD.AperFunction*
G04 #@! TA.AperFunction,SMDPad,CuDef*
G36*
G01*
X95574999Y-77925000D02*
X97425001Y-77925000D01*
G75*
G02*
X97675000Y-78174999I0J-249999D01*
G01*
X97675000Y-79000001D01*
G75*
G02*
X97425001Y-79250000I-249999J0D01*
G01*
X95574999Y-79250000D01*
G75*
G02*
X95325000Y-79000001I0J249999D01*
G01*
X95325000Y-78174999D01*
G75*
G02*
X95574999Y-77925000I249999J0D01*
G01*
G37*
G04 #@! TD.AperFunction*
G04 #@! TA.AperFunction,SMDPad,CuDef*
G36*
G01*
X95574999Y-74850000D02*
X97425001Y-74850000D01*
G75*
G02*
X97675000Y-75099999I0J-249999D01*
G01*
X97675000Y-75925001D01*
G75*
G02*
X97425001Y-76175000I-249999J0D01*
G01*
X95574999Y-76175000D01*
G75*
G02*
X95325000Y-75925001I0J249999D01*
G01*
X95325000Y-75099999D01*
G75*
G02*
X95574999Y-74850000I249999J0D01*
G01*
G37*
G04 #@! TD.AperFunction*
G04 #@! TA.AperFunction,SMDPad,CuDef*
G36*
G01*
X61185250Y-89339000D02*
X60272750Y-89339000D01*
G75*
G02*
X60029000Y-89095250I0J243750D01*
G01*
X60029000Y-88607750D01*
G75*
G02*
X60272750Y-88364000I243750J0D01*
G01*
X61185250Y-88364000D01*
G75*
G02*
X61429000Y-88607750I0J-243750D01*
G01*
X61429000Y-89095250D01*
G75*
G02*
X61185250Y-89339000I-243750J0D01*
G01*
G37*
G04 #@! TD.AperFunction*
G04 #@! TA.AperFunction,SMDPad,CuDef*
G36*
G01*
X61185250Y-91214000D02*
X60272750Y-91214000D01*
G75*
G02*
X60029000Y-90970250I0J243750D01*
G01*
X60029000Y-90482750D01*
G75*
G02*
X60272750Y-90239000I243750J0D01*
G01*
X61185250Y-90239000D01*
G75*
G02*
X61429000Y-90482750I0J-243750D01*
G01*
X61429000Y-90970250D01*
G75*
G02*
X61185250Y-91214000I-243750J0D01*
G01*
G37*
G04 #@! TD.AperFunction*
G04 #@! TA.AperFunction,SMDPad,CuDef*
G36*
G01*
X67471750Y-89275500D02*
X66559250Y-89275500D01*
G75*
G02*
X66315500Y-89031750I0J243750D01*
G01*
X66315500Y-88544250D01*
G75*
G02*
X66559250Y-88300500I243750J0D01*
G01*
X67471750Y-88300500D01*
G75*
G02*
X67715500Y-88544250I0J-243750D01*
G01*
X67715500Y-89031750D01*
G75*
G02*
X67471750Y-89275500I-243750J0D01*
G01*
G37*
G04 #@! TD.AperFunction*
G04 #@! TA.AperFunction,SMDPad,CuDef*
G36*
G01*
X67471750Y-91150500D02*
X66559250Y-91150500D01*
G75*
G02*
X66315500Y-90906750I0J243750D01*
G01*
X66315500Y-90419250D01*
G75*
G02*
X66559250Y-90175500I243750J0D01*
G01*
X67471750Y-90175500D01*
G75*
G02*
X67715500Y-90419250I0J-243750D01*
G01*
X67715500Y-90906750D01*
G75*
G02*
X67471750Y-91150500I-243750J0D01*
G01*
G37*
G04 #@! TD.AperFunction*
G04 #@! TA.AperFunction,SMDPad,CuDef*
G36*
G01*
X64100000Y-94436250D02*
X64100000Y-93523750D01*
G75*
G02*
X64343750Y-93280000I243750J0D01*
G01*
X64831250Y-93280000D01*
G75*
G02*
X65075000Y-93523750I0J-243750D01*
G01*
X65075000Y-94436250D01*
G75*
G02*
X64831250Y-94680000I-243750J0D01*
G01*
X64343750Y-94680000D01*
G75*
G02*
X64100000Y-94436250I0J243750D01*
G01*
G37*
G04 #@! TD.AperFunction*
G04 #@! TA.AperFunction,SMDPad,CuDef*
G36*
G01*
X62225000Y-94436250D02*
X62225000Y-93523750D01*
G75*
G02*
X62468750Y-93280000I243750J0D01*
G01*
X62956250Y-93280000D01*
G75*
G02*
X63200000Y-93523750I0J-243750D01*
G01*
X63200000Y-94436250D01*
G75*
G02*
X62956250Y-94680000I-243750J0D01*
G01*
X62468750Y-94680000D01*
G75*
G02*
X62225000Y-94436250I0J243750D01*
G01*
G37*
G04 #@! TD.AperFunction*
G04 #@! TA.AperFunction,SMDPad,CuDef*
G36*
G01*
X55750000Y-79600000D02*
X58650000Y-79600000D01*
G75*
G02*
X58900000Y-79850000I0J-250000D01*
G01*
X58900000Y-80850000D01*
G75*
G02*
X58650000Y-81100000I-250000J0D01*
G01*
X55750000Y-81100000D01*
G75*
G02*
X55500000Y-80850000I0J250000D01*
G01*
X55500000Y-79850000D01*
G75*
G02*
X55750000Y-79600000I250000J0D01*
G01*
G37*
G04 #@! TD.AperFunction*
G04 #@! TA.AperFunction,SMDPad,CuDef*
G36*
G01*
X55750000Y-72900000D02*
X58650000Y-72900000D01*
G75*
G02*
X58900000Y-73150000I0J-250000D01*
G01*
X58900000Y-74150000D01*
G75*
G02*
X58650000Y-74400000I-250000J0D01*
G01*
X55750000Y-74400000D01*
G75*
G02*
X55500000Y-74150000I0J250000D01*
G01*
X55500000Y-73150000D01*
G75*
G02*
X55750000Y-72900000I250000J0D01*
G01*
G37*
G04 #@! TD.AperFunction*
G04 #@! TA.AperFunction,SMDPad,CuDef*
G36*
G01*
X61450000Y-77500000D02*
X64450000Y-77500000D01*
G75*
G02*
X64700000Y-77750000I0J-250000D01*
G01*
X64700000Y-78250000D01*
G75*
G02*
X64450000Y-78500000I-250000J0D01*
G01*
X61450000Y-78500000D01*
G75*
G02*
X61200000Y-78250000I0J250000D01*
G01*
X61200000Y-77750000D01*
G75*
G02*
X61450000Y-77500000I250000J0D01*
G01*
G37*
G04 #@! TD.AperFunction*
G04 #@! TA.AperFunction,SMDPad,CuDef*
G36*
G01*
X61450000Y-75500000D02*
X64450000Y-75500000D01*
G75*
G02*
X64700000Y-75750000I0J-250000D01*
G01*
X64700000Y-76250000D01*
G75*
G02*
X64450000Y-76500000I-250000J0D01*
G01*
X61450000Y-76500000D01*
G75*
G02*
X61200000Y-76250000I0J250000D01*
G01*
X61200000Y-75750000D01*
G75*
G02*
X61450000Y-75500000I250000J0D01*
G01*
G37*
G04 #@! TD.AperFunction*
G04 #@! TA.AperFunction,SMDPad,CuDef*
G36*
G01*
X80395500Y-87550500D02*
X80395500Y-86900500D01*
G75*
G02*
X80483000Y-86813000I87500J0D01*
G01*
X80658000Y-86813000D01*
G75*
G02*
X80745500Y-86900500I0J-87500D01*
G01*
X80745500Y-87550500D01*
G75*
G02*
X80658000Y-87638000I-87500J0D01*
G01*
X80483000Y-87638000D01*
G75*
G02*
X80395500Y-87550500I0J87500D01*
G01*
G37*
G04 #@! TD.AperFunction*
G04 #@! TA.AperFunction,SMDPad,CuDef*
G36*
G01*
X81045500Y-87550500D02*
X81045500Y-86900500D01*
G75*
G02*
X81133000Y-86813000I87500J0D01*
G01*
X81308000Y-86813000D01*
G75*
G02*
X81395500Y-86900500I0J-87500D01*
G01*
X81395500Y-87550500D01*
G75*
G02*
X81308000Y-87638000I-87500J0D01*
G01*
X81133000Y-87638000D01*
G75*
G02*
X81045500Y-87550500I0J87500D01*
G01*
G37*
G04 #@! TD.AperFunction*
G04 #@! TA.AperFunction,SMDPad,CuDef*
G36*
G01*
X81695500Y-87550500D02*
X81695500Y-86900500D01*
G75*
G02*
X81783000Y-86813000I87500J0D01*
G01*
X81958000Y-86813000D01*
G75*
G02*
X82045500Y-86900500I0J-87500D01*
G01*
X82045500Y-87550500D01*
G75*
G02*
X81958000Y-87638000I-87500J0D01*
G01*
X81783000Y-87638000D01*
G75*
G02*
X81695500Y-87550500I0J87500D01*
G01*
G37*
G04 #@! TD.AperFunction*
G04 #@! TA.AperFunction,SMDPad,CuDef*
G36*
G01*
X82345500Y-87550500D02*
X82345500Y-86900500D01*
G75*
G02*
X82433000Y-86813000I87500J0D01*
G01*
X82608000Y-86813000D01*
G75*
G02*
X82695500Y-86900500I0J-87500D01*
G01*
X82695500Y-87550500D01*
G75*
G02*
X82608000Y-87638000I-87500J0D01*
G01*
X82433000Y-87638000D01*
G75*
G02*
X82345500Y-87550500I0J87500D01*
G01*
G37*
G04 #@! TD.AperFunction*
G04 #@! TA.AperFunction,SMDPad,CuDef*
G36*
G01*
X83095500Y-88300500D02*
X83095500Y-88125500D01*
G75*
G02*
X83183000Y-88038000I87500J0D01*
G01*
X83833000Y-88038000D01*
G75*
G02*
X83920500Y-88125500I0J-87500D01*
G01*
X83920500Y-88300500D01*
G75*
G02*
X83833000Y-88388000I-87500J0D01*
G01*
X83183000Y-88388000D01*
G75*
G02*
X83095500Y-88300500I0J87500D01*
G01*
G37*
G04 #@! TD.AperFunction*
G04 #@! TA.AperFunction,SMDPad,CuDef*
G36*
G01*
X83095500Y-88950500D02*
X83095500Y-88775500D01*
G75*
G02*
X83183000Y-88688000I87500J0D01*
G01*
X83833000Y-88688000D01*
G75*
G02*
X83920500Y-88775500I0J-87500D01*
G01*
X83920500Y-88950500D01*
G75*
G02*
X83833000Y-89038000I-87500J0D01*
G01*
X83183000Y-89038000D01*
G75*
G02*
X83095500Y-88950500I0J87500D01*
G01*
G37*
G04 #@! TD.AperFunction*
G04 #@! TA.AperFunction,SMDPad,CuDef*
G36*
G01*
X83095500Y-89600500D02*
X83095500Y-89425500D01*
G75*
G02*
X83183000Y-89338000I87500J0D01*
G01*
X83833000Y-89338000D01*
G75*
G02*
X83920500Y-89425500I0J-87500D01*
G01*
X83920500Y-89600500D01*
G75*
G02*
X83833000Y-89688000I-87500J0D01*
G01*
X83183000Y-89688000D01*
G75*
G02*
X83095500Y-89600500I0J87500D01*
G01*
G37*
G04 #@! TD.AperFunction*
G04 #@! TA.AperFunction,SMDPad,CuDef*
G36*
G01*
X83095500Y-90250500D02*
X83095500Y-90075500D01*
G75*
G02*
X83183000Y-89988000I87500J0D01*
G01*
X83833000Y-89988000D01*
G75*
G02*
X83920500Y-90075500I0J-87500D01*
G01*
X83920500Y-90250500D01*
G75*
G02*
X83833000Y-90338000I-87500J0D01*
G01*
X83183000Y-90338000D01*
G75*
G02*
X83095500Y-90250500I0J87500D01*
G01*
G37*
G04 #@! TD.AperFunction*
G04 #@! TA.AperFunction,SMDPad,CuDef*
G36*
G01*
X82345500Y-91475500D02*
X82345500Y-90825500D01*
G75*
G02*
X82433000Y-90738000I87500J0D01*
G01*
X82608000Y-90738000D01*
G75*
G02*
X82695500Y-90825500I0J-87500D01*
G01*
X82695500Y-91475500D01*
G75*
G02*
X82608000Y-91563000I-87500J0D01*
G01*
X82433000Y-91563000D01*
G75*
G02*
X82345500Y-91475500I0J87500D01*
G01*
G37*
G04 #@! TD.AperFunction*
G04 #@! TA.AperFunction,SMDPad,CuDef*
G36*
G01*
X81695500Y-91475500D02*
X81695500Y-90825500D01*
G75*
G02*
X81783000Y-90738000I87500J0D01*
G01*
X81958000Y-90738000D01*
G75*
G02*
X82045500Y-90825500I0J-87500D01*
G01*
X82045500Y-91475500D01*
G75*
G02*
X81958000Y-91563000I-87500J0D01*
G01*
X81783000Y-91563000D01*
G75*
G02*
X81695500Y-91475500I0J87500D01*
G01*
G37*
G04 #@! TD.AperFunction*
G04 #@! TA.AperFunction,SMDPad,CuDef*
G36*
G01*
X81045500Y-91475500D02*
X81045500Y-90825500D01*
G75*
G02*
X81133000Y-90738000I87500J0D01*
G01*
X81308000Y-90738000D01*
G75*
G02*
X81395500Y-90825500I0J-87500D01*
G01*
X81395500Y-91475500D01*
G75*
G02*
X81308000Y-91563000I-87500J0D01*
G01*
X81133000Y-91563000D01*
G75*
G02*
X81045500Y-91475500I0J87500D01*
G01*
G37*
G04 #@! TD.AperFunction*
G04 #@! TA.AperFunction,SMDPad,CuDef*
G36*
G01*
X80395500Y-91475500D02*
X80395500Y-90825500D01*
G75*
G02*
X80483000Y-90738000I87500J0D01*
G01*
X80658000Y-90738000D01*
G75*
G02*
X80745500Y-90825500I0J-87500D01*
G01*
X80745500Y-91475500D01*
G75*
G02*
X80658000Y-91563000I-87500J0D01*
G01*
X80483000Y-91563000D01*
G75*
G02*
X80395500Y-91475500I0J87500D01*
G01*
G37*
G04 #@! TD.AperFunction*
G04 #@! TA.AperFunction,SMDPad,CuDef*
G36*
G01*
X79170500Y-90250500D02*
X79170500Y-90075500D01*
G75*
G02*
X79258000Y-89988000I87500J0D01*
G01*
X79908000Y-89988000D01*
G75*
G02*
X79995500Y-90075500I0J-87500D01*
G01*
X79995500Y-90250500D01*
G75*
G02*
X79908000Y-90338000I-87500J0D01*
G01*
X79258000Y-90338000D01*
G75*
G02*
X79170500Y-90250500I0J87500D01*
G01*
G37*
G04 #@! TD.AperFunction*
G04 #@! TA.AperFunction,SMDPad,CuDef*
G36*
G01*
X79170500Y-89600500D02*
X79170500Y-89425500D01*
G75*
G02*
X79258000Y-89338000I87500J0D01*
G01*
X79908000Y-89338000D01*
G75*
G02*
X79995500Y-89425500I0J-87500D01*
G01*
X79995500Y-89600500D01*
G75*
G02*
X79908000Y-89688000I-87500J0D01*
G01*
X79258000Y-89688000D01*
G75*
G02*
X79170500Y-89600500I0J87500D01*
G01*
G37*
G04 #@! TD.AperFunction*
G04 #@! TA.AperFunction,SMDPad,CuDef*
G36*
G01*
X79170500Y-88950500D02*
X79170500Y-88775500D01*
G75*
G02*
X79258000Y-88688000I87500J0D01*
G01*
X79908000Y-88688000D01*
G75*
G02*
X79995500Y-88775500I0J-87500D01*
G01*
X79995500Y-88950500D01*
G75*
G02*
X79908000Y-89038000I-87500J0D01*
G01*
X79258000Y-89038000D01*
G75*
G02*
X79170500Y-88950500I0J87500D01*
G01*
G37*
G04 #@! TD.AperFunction*
G04 #@! TA.AperFunction,SMDPad,CuDef*
G36*
G01*
X79170500Y-88300500D02*
X79170500Y-88125500D01*
G75*
G02*
X79258000Y-88038000I87500J0D01*
G01*
X79908000Y-88038000D01*
G75*
G02*
X79995500Y-88125500I0J-87500D01*
G01*
X79995500Y-88300500D01*
G75*
G02*
X79908000Y-88388000I-87500J0D01*
G01*
X79258000Y-88388000D01*
G75*
G02*
X79170500Y-88300500I0J87500D01*
G01*
G37*
G04 #@! TD.AperFunction*
D12*
X82645500Y-90288000D03*
X81545500Y-90288000D03*
X80445500Y-90288000D03*
X82645500Y-89188000D03*
X81545500Y-89188000D03*
X80445500Y-89188000D03*
X82645500Y-88088000D03*
X81545500Y-88088000D03*
X80445500Y-88088000D03*
G04 #@! TA.AperFunction,SMDPad,CuDef*
G36*
G01*
X80195500Y-90286900D02*
X80195500Y-88089100D01*
G75*
G02*
X80446600Y-87838000I251100J0D01*
G01*
X82644400Y-87838000D01*
G75*
G02*
X82895500Y-88089100I0J-251100D01*
G01*
X82895500Y-90286900D01*
G75*
G02*
X82644400Y-90538000I-251100J0D01*
G01*
X80446600Y-90538000D01*
G75*
G02*
X80195500Y-90286900I0J251100D01*
G01*
G37*
G04 #@! TD.AperFunction*
G04 #@! TA.AperFunction,SMDPad,CuDef*
G36*
G01*
X54675000Y-61500000D02*
X55925000Y-61500000D01*
G75*
G02*
X56075000Y-61650000I0J-150000D01*
G01*
X56075000Y-61950000D01*
G75*
G02*
X55925000Y-62100000I-150000J0D01*
G01*
X54675000Y-62100000D01*
G75*
G02*
X54525000Y-61950000I0J150000D01*
G01*
X54525000Y-61650000D01*
G75*
G02*
X54675000Y-61500000I150000J0D01*
G01*
G37*
G04 #@! TD.AperFunction*
G04 #@! TA.AperFunction,SMDPad,CuDef*
G36*
G01*
X54675000Y-62500000D02*
X55925000Y-62500000D01*
G75*
G02*
X56075000Y-62650000I0J-150000D01*
G01*
X56075000Y-62950000D01*
G75*
G02*
X55925000Y-63100000I-150000J0D01*
G01*
X54675000Y-63100000D01*
G75*
G02*
X54525000Y-62950000I0J150000D01*
G01*
X54525000Y-62650000D01*
G75*
G02*
X54675000Y-62500000I150000J0D01*
G01*
G37*
G04 #@! TD.AperFunction*
G04 #@! TA.AperFunction,SMDPad,CuDef*
G36*
G01*
X54675000Y-63500000D02*
X55925000Y-63500000D01*
G75*
G02*
X56075000Y-63650000I0J-150000D01*
G01*
X56075000Y-63950000D01*
G75*
G02*
X55925000Y-64100000I-150000J0D01*
G01*
X54675000Y-64100000D01*
G75*
G02*
X54525000Y-63950000I0J150000D01*
G01*
X54525000Y-63650000D01*
G75*
G02*
X54675000Y-63500000I150000J0D01*
G01*
G37*
G04 #@! TD.AperFunction*
G04 #@! TA.AperFunction,SMDPad,CuDef*
G36*
G01*
X54675000Y-64500000D02*
X55925000Y-64500000D01*
G75*
G02*
X56075000Y-64650000I0J-150000D01*
G01*
X56075000Y-64950000D01*
G75*
G02*
X55925000Y-65100000I-150000J0D01*
G01*
X54675000Y-65100000D01*
G75*
G02*
X54525000Y-64950000I0J150000D01*
G01*
X54525000Y-64650000D01*
G75*
G02*
X54675000Y-64500000I150000J0D01*
G01*
G37*
G04 #@! TD.AperFunction*
G04 #@! TA.AperFunction,SMDPad,CuDef*
G36*
G01*
X50774999Y-59900000D02*
X52075001Y-59900000D01*
G75*
G02*
X52325000Y-60149999I0J-249999D01*
G01*
X52325000Y-60850001D01*
G75*
G02*
X52075001Y-61100000I-249999J0D01*
G01*
X50774999Y-61100000D01*
G75*
G02*
X50525000Y-60850001I0J249999D01*
G01*
X50525000Y-60149999D01*
G75*
G02*
X50774999Y-59900000I249999J0D01*
G01*
G37*
G04 #@! TD.AperFunction*
G04 #@! TA.AperFunction,SMDPad,CuDef*
G36*
G01*
X50774999Y-65500000D02*
X52075001Y-65500000D01*
G75*
G02*
X52325000Y-65749999I0J-249999D01*
G01*
X52325000Y-66450001D01*
G75*
G02*
X52075001Y-66700000I-249999J0D01*
G01*
X50774999Y-66700000D01*
G75*
G02*
X50525000Y-66450001I0J249999D01*
G01*
X50525000Y-65749999D01*
G75*
G02*
X50774999Y-65500000I249999J0D01*
G01*
G37*
G04 #@! TD.AperFunction*
G04 #@! TA.AperFunction,SMDPad,CuDef*
G36*
G01*
X81620750Y-86295000D02*
X80708250Y-86295000D01*
G75*
G02*
X80464500Y-86051250I0J243750D01*
G01*
X80464500Y-85563750D01*
G75*
G02*
X80708250Y-85320000I243750J0D01*
G01*
X81620750Y-85320000D01*
G75*
G02*
X81864500Y-85563750I0J-243750D01*
G01*
X81864500Y-86051250D01*
G75*
G02*
X81620750Y-86295000I-243750J0D01*
G01*
G37*
G04 #@! TD.AperFunction*
G04 #@! TA.AperFunction,SMDPad,CuDef*
G36*
G01*
X81620750Y-84420000D02*
X80708250Y-84420000D01*
G75*
G02*
X80464500Y-84176250I0J243750D01*
G01*
X80464500Y-83688750D01*
G75*
G02*
X80708250Y-83445000I243750J0D01*
G01*
X81620750Y-83445000D01*
G75*
G02*
X81864500Y-83688750I0J-243750D01*
G01*
X81864500Y-84176250D01*
G75*
G02*
X81620750Y-84420000I-243750J0D01*
G01*
G37*
G04 #@! TD.AperFunction*
G04 #@! TA.AperFunction,SMDPad,CuDef*
G36*
G01*
X82081500Y-92414750D02*
X82081500Y-93327250D01*
G75*
G02*
X81837750Y-93571000I-243750J0D01*
G01*
X81350250Y-93571000D01*
G75*
G02*
X81106500Y-93327250I0J243750D01*
G01*
X81106500Y-92414750D01*
G75*
G02*
X81350250Y-92171000I243750J0D01*
G01*
X81837750Y-92171000D01*
G75*
G02*
X82081500Y-92414750I0J-243750D01*
G01*
G37*
G04 #@! TD.AperFunction*
G04 #@! TA.AperFunction,SMDPad,CuDef*
G36*
G01*
X80206500Y-92414750D02*
X80206500Y-93327250D01*
G75*
G02*
X79962750Y-93571000I-243750J0D01*
G01*
X79475250Y-93571000D01*
G75*
G02*
X79231500Y-93327250I0J243750D01*
G01*
X79231500Y-92414750D01*
G75*
G02*
X79475250Y-92171000I243750J0D01*
G01*
X79962750Y-92171000D01*
G75*
G02*
X80206500Y-92414750I0J-243750D01*
G01*
G37*
G04 #@! TD.AperFunction*
D22*
X106660000Y-51260000D03*
X106660000Y-53800000D03*
X104120000Y-51260000D03*
X104120000Y-53800000D03*
X101580000Y-51260000D03*
X101580000Y-53800000D03*
X99040000Y-51260000D03*
X99040000Y-53800000D03*
X96500000Y-51260000D03*
X96500000Y-53800000D03*
X93960000Y-51260000D03*
X93960000Y-53800000D03*
X91420000Y-51260000D03*
X91420000Y-53800000D03*
X88880000Y-51260000D03*
X88880000Y-53800000D03*
X86340000Y-51260000D03*
X86340000Y-53800000D03*
X83800000Y-51260000D03*
X83800000Y-53800000D03*
X81260000Y-51260000D03*
X81260000Y-53800000D03*
X78720000Y-51260000D03*
X78720000Y-53800000D03*
X76180000Y-51260000D03*
X76180000Y-53800000D03*
X73640000Y-51260000D03*
X73640000Y-53800000D03*
X71100000Y-51260000D03*
X71100000Y-53800000D03*
X68560000Y-51260000D03*
X68560000Y-53800000D03*
X66020000Y-51260000D03*
X66020000Y-53800000D03*
X63480000Y-51260000D03*
X63480000Y-53800000D03*
X60940000Y-51260000D03*
X60940000Y-53800000D03*
X58400000Y-51260000D03*
D23*
X58400000Y-53800000D03*
D24*
X65999500Y-95885000D03*
X64031000Y-102298500D03*
D25*
X63142000Y-88265000D03*
X60919500Y-95250000D03*
X60983000Y-87693500D03*
X55800000Y-60800000D03*
D24*
X57500000Y-88400000D03*
X79900000Y-100500000D03*
X66000000Y-78000000D03*
X68500000Y-89000000D03*
X79700000Y-83950000D03*
D25*
X89250000Y-92000000D03*
X87150000Y-93850000D03*
X87150000Y-90200000D03*
X89300000Y-86900000D03*
X79600000Y-91200000D03*
X80650000Y-94050000D03*
D24*
X96200000Y-77150000D03*
D25*
X99800000Y-68700000D03*
X96250000Y-63100000D03*
X99950000Y-71150000D03*
X99700000Y-82750000D03*
X100300000Y-84400000D03*
X97600000Y-95650000D03*
X88200000Y-62500000D03*
X83950000Y-65676210D03*
X83200000Y-69950000D03*
X78465373Y-68523790D03*
X75950000Y-64650000D03*
X71600000Y-68600000D03*
X75850000Y-61550000D03*
X79850000Y-65300000D03*
X82100000Y-61300000D03*
X73150000Y-71350000D03*
X75500000Y-73500000D03*
X86500000Y-71350000D03*
X98500000Y-58600000D03*
X86150000Y-55650000D03*
X75950000Y-63200000D03*
D24*
X69350000Y-90750000D03*
X69700000Y-86170490D03*
X85326210Y-89550000D03*
D25*
X85300000Y-84200000D03*
X90500000Y-83800000D03*
X88900000Y-84200000D03*
X80005689Y-85420480D03*
D24*
X94450000Y-75550000D03*
X101150000Y-82650000D03*
X101400000Y-96500000D03*
X101100000Y-68800000D03*
D25*
X94450000Y-61550000D03*
X96650000Y-89650000D03*
X83963448Y-86399990D03*
X61950000Y-60150000D03*
X60940000Y-58935000D03*
X84212500Y-91601000D03*
X84212493Y-94648993D03*
X89927500Y-88426000D03*
X87006500Y-88426000D03*
X59150000Y-92650000D03*
X84550000Y-88350000D03*
D24*
X59200000Y-90900000D03*
X65500000Y-89200000D03*
X101350000Y-73800000D03*
X101291340Y-60023129D03*
X101600000Y-85950000D03*
D25*
X87300000Y-61050000D03*
X86950000Y-65650000D03*
X99476210Y-92900000D03*
X82351294Y-70286410D03*
X81350000Y-70450000D03*
X98900000Y-94450000D03*
D26*
X80570500Y-91150500D02*
X81220500Y-91150500D01*
X81220500Y-91150500D02*
X81870500Y-91150500D01*
X82520500Y-88213000D02*
X81545500Y-89188000D01*
X82520500Y-87225500D02*
X82520500Y-88213000D01*
X80570500Y-90163000D02*
X81545500Y-89188000D01*
X80570500Y-91150500D02*
X80570500Y-90163000D01*
X81220500Y-89513000D02*
X81545500Y-89188000D01*
X81220500Y-91150500D02*
X81220500Y-89513000D01*
X81870500Y-89513000D02*
X81545500Y-89188000D01*
X81870500Y-91150500D02*
X81870500Y-89513000D01*
D27*
X64729500Y-95923000D02*
X64254500Y-95923000D01*
X64254500Y-95923000D02*
X63142000Y-95923000D01*
D28*
X63631000Y-91051000D02*
X63881000Y-90801000D01*
X63631000Y-92238500D02*
X63631000Y-91051000D01*
X64806010Y-90125990D02*
X64556010Y-90125990D01*
X64556010Y-90125990D02*
X63881000Y-90801000D01*
X64881000Y-90051000D02*
X64806010Y-90125990D01*
X65318500Y-90051000D02*
X64881000Y-90051000D01*
X64131000Y-90551000D02*
X63881000Y-90801000D01*
X64131000Y-89363500D02*
X64131000Y-90551000D01*
X63181010Y-90101010D02*
X63881000Y-90801000D01*
X63181010Y-89851010D02*
X63181010Y-90101010D01*
X63131000Y-89801000D02*
X63181010Y-89851010D01*
X63131000Y-89363500D02*
X63131000Y-89801000D01*
X65961500Y-95923000D02*
X65999500Y-95885000D01*
X64729500Y-95923000D02*
X65961500Y-95923000D01*
X63631000Y-93023500D02*
X63631000Y-92238500D01*
X64587500Y-93980000D02*
X63631000Y-93023500D01*
D26*
X66667500Y-100418000D02*
X65612500Y-101473000D01*
X66667500Y-99568000D02*
X66667500Y-100418000D01*
X61267500Y-100418000D02*
X61267500Y-99568000D01*
X62322500Y-101473000D02*
X61267500Y-100418000D01*
X64031000Y-101473000D02*
X64031000Y-102298500D01*
X65612500Y-101473000D02*
X64031000Y-101473000D01*
X64031000Y-101473000D02*
X62322500Y-101473000D01*
D27*
X63131000Y-89363500D02*
X63131000Y-88276000D01*
X63131000Y-88276000D02*
X63142000Y-88265000D01*
X60919500Y-94069000D02*
X60919500Y-95250000D01*
X68793500Y-94069000D02*
X68857000Y-94005500D01*
X66825000Y-94069000D02*
X68793500Y-94069000D01*
X66825000Y-95059500D02*
X65999500Y-95885000D01*
X66825000Y-94069000D02*
X66825000Y-95059500D01*
D26*
X60729000Y-88851500D02*
X60729000Y-87947500D01*
X60729000Y-87947500D02*
X60983000Y-87693500D01*
D27*
X55300000Y-61800000D02*
X55300000Y-61300000D01*
X55300000Y-61300000D02*
X55800000Y-60800000D01*
D29*
X55010500Y-89130500D02*
X56769500Y-89130500D01*
X56769500Y-89130500D02*
X57500000Y-88400000D01*
X79900000Y-103200000D02*
X79900000Y-100500000D01*
D26*
X62950000Y-78000000D02*
X66000000Y-78000000D01*
X67015500Y-88788000D02*
X68288000Y-88788000D01*
X68288000Y-88788000D02*
X68500000Y-89000000D01*
X81164500Y-83932500D02*
X79717500Y-83932500D01*
X79717500Y-83932500D02*
X79700000Y-83950000D01*
X87133500Y-92046500D02*
X89203500Y-92046500D01*
X89203500Y-92046500D02*
X89250000Y-92000000D01*
X87133500Y-92046500D02*
X87133500Y-93833500D01*
X87133500Y-93833500D02*
X87150000Y-93850000D01*
X87133500Y-92046500D02*
X87133500Y-90216500D01*
X87133500Y-90216500D02*
X87150000Y-90200000D01*
X90537000Y-86775000D02*
X89425000Y-86775000D01*
X89425000Y-86775000D02*
X89300000Y-86900000D01*
X80570500Y-91150500D02*
X79649500Y-91150500D01*
X79649500Y-91150500D02*
X79600000Y-91200000D01*
X79719000Y-92871000D02*
X79719000Y-93119000D01*
X79719000Y-93119000D02*
X80650000Y-94050000D01*
X100475000Y-63425000D02*
X100800000Y-63100000D01*
X98937500Y-63425000D02*
X100475000Y-63425000D01*
X101025000Y-91375000D02*
X101350000Y-91050000D01*
X99487500Y-91375000D02*
X101025000Y-91375000D01*
X100700000Y-77275000D02*
X101025000Y-76950000D01*
X99162500Y-77275000D02*
X100700000Y-77275000D01*
X95562500Y-79525000D02*
X96500000Y-78587500D01*
X95562500Y-80600000D02*
X95562500Y-79525000D01*
X96500000Y-78587500D02*
X96500000Y-77450000D01*
X96500000Y-77450000D02*
X96200000Y-77150000D01*
D29*
X99800000Y-67200000D02*
X99800000Y-68700000D01*
X95350000Y-65587500D02*
X96300000Y-64637500D01*
X95350000Y-66700000D02*
X95350000Y-65587500D01*
D26*
X96300000Y-64637500D02*
X96300000Y-63150000D01*
X96300000Y-63150000D02*
X96250000Y-63100000D01*
X99950000Y-72800000D02*
X99950000Y-71150000D01*
X100000000Y-81150000D02*
X100000000Y-82450000D01*
X100000000Y-82450000D02*
X99700000Y-82750000D01*
X100287500Y-86600000D02*
X100287500Y-84412500D01*
X100287500Y-84412500D02*
X100300000Y-84400000D01*
X100350000Y-84450000D02*
X100300000Y-84400000D01*
X102850000Y-84450000D02*
X100350000Y-84450000D01*
X97500000Y-94187500D02*
X97500000Y-95550000D01*
X97500000Y-95550000D02*
X97600000Y-95650000D01*
X99650000Y-95650000D02*
X100250000Y-95050000D01*
X97600000Y-95650000D02*
X99650000Y-95650000D01*
X87437500Y-63700000D02*
X87437500Y-63262500D01*
X87437500Y-63262500D02*
X88200000Y-62500000D01*
D27*
X85412500Y-65600000D02*
X84026210Y-65600000D01*
X84026210Y-65600000D02*
X83950000Y-65676210D01*
X83500000Y-72012500D02*
X83500000Y-70250000D01*
X83500000Y-70250000D02*
X83200000Y-69950000D01*
X78389163Y-68600000D02*
X78465373Y-68523790D01*
X77087500Y-68600000D02*
X78389163Y-68600000D01*
X74800000Y-66100000D02*
X74800000Y-65800000D01*
X74800000Y-65800000D02*
X75950000Y-64650000D01*
X75550000Y-64250000D02*
X75950000Y-64650000D01*
X74700000Y-64250000D02*
X75550000Y-64250000D01*
X73162500Y-68362500D02*
X73100000Y-68300000D01*
X73162500Y-70150000D02*
X73162500Y-68362500D01*
X73100000Y-68300000D02*
X71900000Y-68300000D01*
X71900000Y-68300000D02*
X71600000Y-68600000D01*
X77100000Y-61612500D02*
X75912500Y-61612500D01*
X75912500Y-61612500D02*
X75850000Y-61550000D01*
X79850000Y-65275000D02*
X79850000Y-65300000D01*
X79000000Y-63687500D02*
X79000000Y-64425000D01*
X79000000Y-64425000D02*
X79850000Y-65275000D01*
X82200000Y-60050000D02*
X82200000Y-61200000D01*
X82200000Y-61200000D02*
X82100000Y-61300000D01*
D26*
X73162500Y-70150000D02*
X73162500Y-71337500D01*
X73162500Y-71337500D02*
X73150000Y-71350000D01*
X76600000Y-73487500D02*
X75512500Y-73487500D01*
X75512500Y-73487500D02*
X75500000Y-73500000D01*
X86887500Y-72550000D02*
X86887500Y-71737500D01*
X86887500Y-71737500D02*
X86500000Y-71350000D01*
X99800000Y-58850000D02*
X98750000Y-58850000D01*
X98750000Y-58850000D02*
X98500000Y-58600000D01*
X85650000Y-57075000D02*
X85650000Y-56150000D01*
X85650000Y-56150000D02*
X86150000Y-55650000D01*
X62712500Y-92657000D02*
X63131000Y-92238500D01*
X62712500Y-93980000D02*
X62712500Y-92657000D01*
X62467500Y-98718000D02*
X61920500Y-98171000D01*
X62467500Y-99568000D02*
X62467500Y-98718000D01*
X61920500Y-94772000D02*
X62712500Y-93980000D01*
X61920500Y-98171000D02*
X61920500Y-94772000D01*
X62467500Y-100418000D02*
X62760500Y-100711000D01*
X62467500Y-99568000D02*
X62467500Y-100418000D01*
X65467500Y-100418000D02*
X65467500Y-99568000D01*
X65174500Y-100711000D02*
X65467500Y-100418000D01*
X62760500Y-100711000D02*
X65174500Y-100711000D01*
D27*
X58400000Y-60475000D02*
X58400000Y-53800000D01*
X56075000Y-62800000D02*
X58400000Y-60475000D01*
X55300000Y-62800000D02*
X56075000Y-62800000D01*
X78000000Y-63187500D02*
X78500000Y-63687500D01*
X77100000Y-63187500D02*
X78000000Y-63187500D01*
X77100000Y-65087500D02*
X77087500Y-65100000D01*
X77100000Y-63187500D02*
X77100000Y-65087500D01*
X76350000Y-69100000D02*
X75900000Y-69550000D01*
X77087500Y-69100000D02*
X76350000Y-69100000D01*
X75900000Y-71212500D02*
X76600000Y-71912500D01*
X75900000Y-69550000D02*
X75900000Y-71212500D01*
X84537500Y-72550000D02*
X84000000Y-72012500D01*
X85312500Y-72550000D02*
X84537500Y-72550000D01*
D26*
X85862500Y-64650000D02*
X85437510Y-65074990D01*
X85862500Y-63700000D02*
X85862500Y-64650000D01*
D27*
X84000000Y-72012500D02*
X84000000Y-68650000D01*
X82350000Y-67000000D02*
X82350000Y-65100000D01*
X84000000Y-68650000D02*
X82350000Y-67000000D01*
X82350000Y-65100000D02*
X85412500Y-65100000D01*
X77087500Y-69100000D02*
X79000000Y-69100000D01*
X79000000Y-69100000D02*
X79350000Y-68750000D01*
X79350000Y-66625000D02*
X77825000Y-65100000D01*
X77825000Y-65100000D02*
X77087500Y-65100000D01*
X79350000Y-68750000D02*
X79350000Y-66625000D01*
X78500000Y-63687500D02*
X78500000Y-64802780D01*
X78500000Y-64802780D02*
X79573422Y-65876202D01*
X80126578Y-65876202D02*
X80902780Y-65100000D01*
X80902780Y-65100000D02*
X82350000Y-65100000D01*
X79573422Y-65876202D02*
X80126578Y-65876202D01*
D26*
X88687490Y-60875010D02*
X85862500Y-63700000D01*
X91274990Y-60875010D02*
X88687490Y-60875010D01*
X92350000Y-59800000D02*
X91274990Y-60875010D01*
X77087500Y-63200000D02*
X77100000Y-63187500D01*
X75950000Y-63200000D02*
X77087500Y-63200000D01*
D30*
X68800000Y-76000000D02*
X68900000Y-75900000D01*
X62950000Y-76000000D02*
X68800000Y-76000000D01*
X67102500Y-90750000D02*
X67015500Y-90663000D01*
X69350000Y-90750000D02*
X67102500Y-90750000D01*
X65430500Y-90663000D02*
X65393510Y-90626010D01*
X67015500Y-90663000D02*
X65430500Y-90663000D01*
D28*
X65318500Y-90775000D02*
X65430500Y-90663000D01*
X65318500Y-91051000D02*
X65318500Y-90775000D01*
D30*
X69700000Y-76700000D02*
X69700000Y-86170490D01*
X68900000Y-75900000D02*
X69700000Y-76700000D01*
X85289210Y-89513000D02*
X85326210Y-89550000D01*
X83508000Y-89513000D02*
X85289210Y-89513000D01*
D26*
X58400000Y-51260000D02*
X60940000Y-51260000D01*
X80570500Y-87225500D02*
X81220500Y-87225500D01*
X79583000Y-88038000D02*
X79583000Y-88213000D01*
X80395500Y-87225500D02*
X79583000Y-88038000D01*
X80570500Y-87225500D02*
X80395500Y-87225500D01*
X81220500Y-85863500D02*
X81164500Y-85807500D01*
X81220500Y-87225500D02*
X81220500Y-85863500D01*
X87133500Y-81766500D02*
X87200000Y-81700000D01*
X87133500Y-85821500D02*
X87133500Y-81766500D01*
X87133500Y-85821500D02*
X86921500Y-85821500D01*
X86921500Y-85821500D02*
X85300000Y-84200000D01*
X90537000Y-85124000D02*
X90537000Y-83837000D01*
X90537000Y-83837000D02*
X90500000Y-83800000D01*
X87133500Y-85821500D02*
X87278500Y-85821500D01*
X87278500Y-85821500D02*
X88900000Y-84200000D01*
X80392709Y-85807500D02*
X80005689Y-85420480D01*
X81164500Y-85807500D02*
X80392709Y-85807500D01*
X81164500Y-85807500D02*
X81848000Y-85124000D01*
X81848000Y-85124000D02*
X90449500Y-85124000D01*
X96300000Y-60350000D02*
X95650000Y-59700000D01*
X96300000Y-61562500D02*
X96300000Y-60350000D01*
X97512500Y-62775000D02*
X96300000Y-61562500D01*
X98937500Y-62775000D02*
X97512500Y-62775000D01*
X97737500Y-90725000D02*
X97700000Y-90687500D01*
X99487500Y-90725000D02*
X97737500Y-90725000D01*
X96500000Y-74387500D02*
X95762500Y-73650000D01*
X96500000Y-75512500D02*
X96500000Y-74387500D01*
X97612500Y-76625000D02*
X96500000Y-75512500D01*
X99162500Y-76625000D02*
X97612500Y-76625000D01*
X96500000Y-75512500D02*
X94487500Y-75512500D01*
X94487500Y-75512500D02*
X94450000Y-75550000D01*
X101150000Y-80138267D02*
X101150000Y-82650000D01*
X101350000Y-79938267D02*
X101150000Y-80138267D01*
X101350000Y-78812500D02*
X101350000Y-79938267D01*
X101400000Y-94038267D02*
X101400000Y-96500000D01*
X101675000Y-92912500D02*
X101675000Y-93763267D01*
X101675000Y-93763267D02*
X101400000Y-94038267D01*
X100950000Y-68650000D02*
X101100000Y-68800000D01*
X101125000Y-66013267D02*
X100950000Y-66188267D01*
X101125000Y-64962500D02*
X101125000Y-66013267D01*
X100950000Y-66188267D02*
X100950000Y-68650000D01*
X96300000Y-61562500D02*
X94462500Y-61562500D01*
X94462500Y-61562500D02*
X94450000Y-61550000D01*
X97212500Y-86600000D02*
X96650000Y-87162500D01*
X96650000Y-87162500D02*
X96650000Y-89650000D01*
X97687500Y-90687500D02*
X96650000Y-89650000D01*
X97700000Y-90687500D02*
X97687500Y-90687500D01*
D27*
X64793000Y-87020500D02*
X64793000Y-87458000D01*
X64793000Y-87458000D02*
X63631000Y-88620000D01*
X63631000Y-88620000D02*
X63631000Y-88926000D01*
X63631000Y-88926000D02*
X63631000Y-89363500D01*
X83508000Y-86855438D02*
X83963448Y-86399990D01*
X83508000Y-88213000D02*
X83508000Y-86855438D01*
X63467500Y-97823500D02*
X63142000Y-97498000D01*
X63467500Y-99568000D02*
X63467500Y-97823500D01*
X64467500Y-97760000D02*
X64729500Y-97498000D01*
X64467500Y-99568000D02*
X64467500Y-97760000D01*
X63480000Y-57395000D02*
X63480000Y-53800000D01*
X56075000Y-64800000D02*
X63480000Y-57395000D01*
X55300000Y-64800000D02*
X56075000Y-64800000D01*
X74445000Y-57395000D02*
X63480000Y-57395000D01*
X80000000Y-62950000D02*
X74445000Y-57395000D01*
X80000000Y-63687500D02*
X80000000Y-62950000D01*
X60940000Y-58935000D02*
X60940000Y-53800000D01*
X56075000Y-63800000D02*
X60940000Y-58935000D01*
X55300000Y-63800000D02*
X56075000Y-63800000D01*
X79023790Y-62473790D02*
X64273790Y-62473790D01*
X79500000Y-63687500D02*
X79500000Y-62950000D01*
X64273790Y-62473790D02*
X61950000Y-60150000D01*
X79500000Y-62950000D02*
X79023790Y-62473790D01*
D26*
X79583000Y-90163000D02*
X79583000Y-89513000D01*
X79166410Y-89513000D02*
X79170500Y-89513000D01*
X79170500Y-89513000D02*
X79583000Y-89513000D01*
D30*
X79060344Y-89513000D02*
X79583000Y-89513000D01*
X75813000Y-89513000D02*
X79583000Y-89513000D01*
X73800000Y-87500000D02*
X75813000Y-89513000D01*
D27*
X68857000Y-91993000D02*
X68857000Y-92430500D01*
X65318500Y-91551000D02*
X65334500Y-91567000D01*
X68431000Y-91567000D02*
X68857000Y-91993000D01*
X65334500Y-91567000D02*
X68431000Y-91567000D01*
X83055500Y-95157000D02*
X83196500Y-95016000D01*
X81531500Y-95157000D02*
X83055500Y-95157000D01*
X83508000Y-90896500D02*
X84212500Y-91601000D01*
X83508000Y-90163000D02*
X83508000Y-90896500D01*
X83196500Y-95016000D02*
X83845486Y-95016000D01*
X83845486Y-95016000D02*
X84212493Y-94648993D01*
X92199500Y-85124000D02*
X92199500Y-86775000D01*
X92199500Y-86775000D02*
X92199500Y-87250000D01*
X92199500Y-87250000D02*
X91023500Y-88426000D01*
X91023500Y-88426000D02*
X89927500Y-88426000D01*
X84404289Y-85823789D02*
X82859711Y-85823789D01*
X87006500Y-88426000D02*
X84404289Y-85823789D01*
X82859711Y-85823789D02*
X81870500Y-86813000D01*
X81870500Y-86813000D02*
X81870500Y-87225500D01*
D29*
X55167500Y-91787500D02*
X55010500Y-91630500D01*
X57800000Y-91787500D02*
X55167500Y-91787500D01*
D27*
X57800000Y-91787500D02*
X58287500Y-91787500D01*
X58287500Y-91787500D02*
X59150000Y-92650000D01*
X84037000Y-88863000D02*
X83508000Y-88863000D01*
X84550000Y-88350000D02*
X84037000Y-88863000D01*
D28*
X62443500Y-91051000D02*
X62443500Y-90551000D01*
D26*
X62119000Y-90726500D02*
X62443500Y-91051000D01*
X60729000Y-90726500D02*
X62119000Y-90726500D01*
X64631000Y-88833500D02*
X66444000Y-87020500D01*
X64631000Y-89363500D02*
X64631000Y-88833500D01*
D29*
X60215000Y-90212500D02*
X60729000Y-90726500D01*
X57800000Y-90212500D02*
X60215000Y-90212500D01*
D26*
X60729000Y-90726500D02*
X59373500Y-90726500D01*
X59373500Y-90726500D02*
X59200000Y-90900000D01*
X64794500Y-89200000D02*
X64631000Y-89363500D01*
X65500000Y-89200000D02*
X64794500Y-89200000D01*
X82520500Y-91944500D02*
X81594000Y-92871000D01*
X82520500Y-91150500D02*
X82520500Y-91944500D01*
D30*
X66444000Y-87020500D02*
X68095000Y-87020500D01*
X70167998Y-87020500D02*
X73188498Y-90041000D01*
X68095000Y-87020500D02*
X70167998Y-87020500D01*
X73798500Y-94398500D02*
X73800000Y-94400000D01*
X73800000Y-94400000D02*
X77150000Y-97750000D01*
X77150000Y-97750000D02*
X83450000Y-97750000D01*
X83450000Y-97750000D02*
X85800000Y-95400000D01*
X85800000Y-95400000D02*
X85800000Y-94600000D01*
X84553500Y-93353500D02*
X83196500Y-93353500D01*
X85800000Y-94600000D02*
X84553500Y-93353500D01*
X82076500Y-93353500D02*
X81594000Y-92871000D01*
X83196500Y-93353500D02*
X82076500Y-93353500D01*
X73188498Y-90988498D02*
X73800000Y-91600000D01*
X73188498Y-90041000D02*
X73188498Y-90988498D01*
X73800000Y-91600000D02*
X73800000Y-94400000D01*
D26*
X98937500Y-64987500D02*
X98937500Y-64075000D01*
X97225000Y-66700000D02*
X98937500Y-64987500D01*
D27*
X65969000Y-85445500D02*
X64793000Y-85445500D01*
X66444000Y-85445500D02*
X65969000Y-85445500D01*
X68095000Y-85008000D02*
X68095000Y-85445500D01*
X63568000Y-84455000D02*
X67542000Y-84455000D01*
X63015000Y-85445500D02*
X63015000Y-85008000D01*
X67542000Y-84455000D02*
X68095000Y-85008000D01*
X63015000Y-85008000D02*
X63568000Y-84455000D01*
X62443500Y-89926000D02*
X62443500Y-90051000D01*
X62443500Y-88029500D02*
X62443500Y-89926000D01*
X63015000Y-87020500D02*
X63015000Y-87458000D01*
X63015000Y-87458000D02*
X62443500Y-88029500D01*
X69800000Y-52500000D02*
X68560000Y-51260000D01*
X71600000Y-52500000D02*
X69800000Y-52500000D01*
X72350000Y-53250000D02*
X71600000Y-52500000D01*
X72350000Y-54176778D02*
X72350000Y-53250000D01*
X81500000Y-62950000D02*
X83050000Y-61400000D01*
X73223222Y-55050000D02*
X72350000Y-54176778D01*
X78550000Y-55050000D02*
X73223222Y-55050000D01*
X81500000Y-63687500D02*
X81500000Y-62950000D01*
X83050000Y-61400000D02*
X83050000Y-59550000D01*
X83050000Y-59550000D02*
X78550000Y-55050000D01*
X67300000Y-52540000D02*
X66020000Y-51260000D01*
X68352411Y-55402411D02*
X67300000Y-54350000D01*
X81000000Y-62950000D02*
X81400000Y-62550000D01*
X81000000Y-63687500D02*
X81000000Y-62950000D01*
X67300000Y-54350000D02*
X67300000Y-52540000D01*
X81400000Y-59500000D02*
X77302411Y-55402411D01*
X81400000Y-62550000D02*
X81400000Y-59500000D01*
X77302411Y-55402411D02*
X68352411Y-55402411D01*
D26*
X103546000Y-76625000D02*
X102887500Y-76625000D01*
X106934000Y-73237000D02*
X103546000Y-76625000D01*
X102000000Y-74450000D02*
X102000000Y-75087500D01*
X101350000Y-73800000D02*
X102000000Y-74450000D01*
X105972000Y-77275000D02*
X106934000Y-78237000D01*
X102887500Y-77275000D02*
X105972000Y-77275000D01*
X106934000Y-80737000D02*
X105171000Y-82500000D01*
X101799990Y-82033890D02*
X101799990Y-80266110D01*
X101799990Y-80266110D02*
X102000000Y-80066100D01*
X102266100Y-82500000D02*
X101799990Y-82033890D01*
X102000000Y-80066100D02*
X102000000Y-78812500D01*
X105171000Y-82500000D02*
X102266100Y-82500000D01*
X106554090Y-59400000D02*
X106900000Y-59400000D01*
X103179090Y-62775000D02*
X106554090Y-59400000D01*
X102662500Y-62775000D02*
X103179090Y-62775000D01*
X101775000Y-61237500D02*
X101775000Y-60506789D01*
X101775000Y-60506789D02*
X101291340Y-60023129D01*
X105925000Y-63425000D02*
X106900000Y-64400000D01*
X102662500Y-63425000D02*
X105925000Y-63425000D01*
X101500011Y-67983911D02*
X101500011Y-66416089D01*
X105200000Y-68600000D02*
X102116100Y-68600000D01*
X101775000Y-66141100D02*
X101775000Y-64962500D01*
X106900000Y-66900000D02*
X105200000Y-68600000D01*
X102116100Y-68600000D02*
X101500011Y-67983911D01*
X101500011Y-66416089D02*
X101775000Y-66141100D01*
X103729090Y-90725000D02*
X103212500Y-90725000D01*
X107000000Y-87454090D02*
X103729090Y-90725000D01*
X107000000Y-87100000D02*
X107000000Y-87454090D01*
X101450000Y-87766950D02*
X102325000Y-88641950D01*
X101600000Y-85950000D02*
X101450000Y-86100000D01*
X102325000Y-88641950D02*
X102325000Y-89187500D01*
X101450000Y-86100000D02*
X101450000Y-87766950D01*
X106275000Y-91375000D02*
X103212500Y-91375000D01*
X107000000Y-92100000D02*
X106275000Y-91375000D01*
X102516100Y-96400000D02*
X102049990Y-95933890D01*
X102325000Y-93891100D02*
X102325000Y-92912500D01*
X107000000Y-94600000D02*
X105200000Y-96400000D01*
X102049990Y-95933890D02*
X102049990Y-94166110D01*
X102049990Y-94166110D02*
X102325000Y-93891100D01*
X105200000Y-96400000D02*
X102516100Y-96400000D01*
D27*
X61500500Y-92494000D02*
X62443500Y-91551000D01*
X60919500Y-92494000D02*
X61500500Y-92494000D01*
X64886500Y-92494000D02*
X64631000Y-92238500D01*
X66825000Y-92494000D02*
X64886500Y-92494000D01*
D26*
X102800000Y-78012500D02*
X102887500Y-77925000D01*
X102800000Y-81150000D02*
X102800000Y-78012500D01*
X102887500Y-72937500D02*
X102750000Y-72800000D01*
X102887500Y-75975000D02*
X102887500Y-72937500D01*
X103050000Y-92187500D02*
X103212500Y-92025000D01*
X103050000Y-95050000D02*
X103050000Y-92187500D01*
X103212500Y-87612500D02*
X103212500Y-90075000D01*
X102850000Y-87250000D02*
X103212500Y-87612500D01*
X102600000Y-62062500D02*
X102662500Y-62125000D01*
X102600000Y-58850000D02*
X102600000Y-62062500D01*
X102662500Y-67137500D02*
X102600000Y-67200000D01*
X102662500Y-64075000D02*
X102662500Y-67137500D01*
D27*
X74100000Y-67100000D02*
X73100000Y-66100000D01*
X77087500Y-67100000D02*
X74100000Y-67100000D01*
X73125000Y-66075000D02*
X73100000Y-66100000D01*
X73125000Y-64250000D02*
X73125000Y-66075000D01*
X75500000Y-67600000D02*
X74800000Y-68300000D01*
X77087500Y-67600000D02*
X75500000Y-67600000D01*
X74737500Y-68362500D02*
X74800000Y-68300000D01*
X74737500Y-70150000D02*
X74737500Y-68362500D01*
D26*
X99162500Y-75475000D02*
X99162500Y-75975000D01*
X97337500Y-73650000D02*
X99162500Y-75475000D01*
X99162500Y-78875000D02*
X99162500Y-77925000D01*
X97437500Y-80600000D02*
X99162500Y-78875000D01*
X98525000Y-89112500D02*
X99487500Y-90075000D01*
X97700000Y-89112500D02*
X98525000Y-89112500D01*
X97787500Y-92025000D02*
X97500000Y-92312500D01*
X99487500Y-92025000D02*
X97787500Y-92025000D01*
X98937500Y-61412500D02*
X97225000Y-59700000D01*
X98937500Y-62125000D02*
X98937500Y-61412500D01*
D27*
X86650000Y-61037500D02*
X84000000Y-63687500D01*
X86650000Y-57075000D02*
X86650000Y-61037500D01*
X87650000Y-57075000D02*
X87650000Y-60700000D01*
X87650000Y-60700000D02*
X87300000Y-61050000D01*
X86500000Y-66100000D02*
X85412500Y-66100000D01*
X86950000Y-65650000D02*
X86500000Y-66100000D01*
X80500000Y-60175000D02*
X80625000Y-60050000D01*
X80500000Y-63687500D02*
X80500000Y-60175000D01*
X99825000Y-61025000D02*
X99825000Y-61237500D01*
X97550000Y-58750000D02*
X99825000Y-61025000D01*
X91149640Y-64113574D02*
X91180388Y-64098767D01*
X90887718Y-63292703D02*
X90918465Y-63277896D01*
X91048971Y-64113574D02*
X91082243Y-64121168D01*
X91018224Y-64098767D02*
X91048971Y-64113574D01*
X90991543Y-64077489D02*
X91018224Y-64098767D01*
X91256003Y-63041025D02*
X91248409Y-63007753D01*
X90652299Y-63738245D02*
X90991543Y-64077489D01*
X91116369Y-64121168D02*
X91149640Y-64113574D01*
X90561599Y-63694566D02*
X90594870Y-63702160D01*
X91604652Y-63674503D02*
X91631333Y-63653225D01*
X90527472Y-63694566D02*
X90561599Y-63694566D01*
X90846546Y-63333872D02*
X90867824Y-63307191D01*
X91082243Y-64121168D02*
X91116369Y-64121168D01*
X90463454Y-63716967D02*
X90494201Y-63702160D01*
X91243153Y-63919391D02*
X91228346Y-63888644D01*
X90436773Y-63738245D02*
X90463454Y-63716967D01*
X91540633Y-63696904D02*
X91573904Y-63689310D01*
X90443560Y-63731455D02*
X90436773Y-63738245D01*
X90494201Y-63702160D02*
X90527472Y-63694566D01*
X90422282Y-63758136D02*
X90443560Y-63731455D01*
X91248409Y-62973627D02*
X91256003Y-62940356D01*
X90407475Y-63788884D02*
X90422282Y-63758136D01*
X90399881Y-63856281D02*
X90399881Y-63822155D01*
X90407475Y-63889553D02*
X90399881Y-63856281D01*
X90422282Y-63920300D02*
X90407475Y-63889553D01*
X90443560Y-63946981D02*
X90422282Y-63920300D01*
X90951736Y-63270302D02*
X90985863Y-63270302D01*
X90594870Y-63702160D02*
X90625617Y-63716967D01*
X90782805Y-64286226D02*
X90443560Y-63946981D01*
X91207069Y-63861962D02*
X90867824Y-63522717D01*
X90804082Y-64312908D02*
X90782805Y-64286226D01*
X90567279Y-64501753D02*
X90593960Y-64523031D01*
X90846546Y-63496036D02*
X90831739Y-63465289D01*
X90826483Y-64376926D02*
X90818889Y-64343655D01*
X90228035Y-64162509D02*
X90567279Y-64501753D01*
X90399881Y-63822155D02*
X90407475Y-63788884D01*
X90657979Y-64545432D02*
X90692105Y-64545432D01*
X91675011Y-63528398D02*
X91667417Y-63495127D01*
X90625617Y-63716967D02*
X90652299Y-63738245D01*
X90985863Y-63270302D02*
X91019134Y-63277896D01*
X90725376Y-64537838D02*
X90756124Y-64523031D01*
X90201353Y-64141231D02*
X90228035Y-64162509D01*
X90012509Y-64162509D02*
X90039190Y-64141231D01*
X90831739Y-63364620D02*
X90846546Y-63333872D01*
X90039190Y-64141231D02*
X90069937Y-64126424D01*
X85412500Y-67100000D02*
X87075018Y-67100000D01*
X90170606Y-64126424D02*
X90201353Y-64141231D01*
X90624707Y-64537838D02*
X90657979Y-64545432D01*
X90103208Y-64118830D02*
X90137335Y-64118830D01*
X90782805Y-64501753D02*
X90804082Y-64475071D01*
X90593960Y-64523031D02*
X90624707Y-64537838D01*
X87075018Y-67100000D02*
X90012509Y-64162509D01*
X90818889Y-64444324D02*
X90826483Y-64411053D01*
X90069937Y-64126424D02*
X90103208Y-64118830D01*
X90818889Y-64343655D02*
X90804082Y-64312908D01*
X91667417Y-63595796D02*
X91675011Y-63562525D01*
X90692105Y-64545432D02*
X90725376Y-64537838D01*
X90756124Y-64523031D02*
X90782805Y-64501753D01*
X90137335Y-64118830D02*
X90170606Y-64126424D01*
X90804082Y-64475071D02*
X90818889Y-64444324D01*
X90826483Y-64411053D02*
X90826483Y-64376926D01*
X91270810Y-63071772D02*
X91256003Y-63041025D01*
X91180388Y-64098767D02*
X91207069Y-64077489D01*
X91207069Y-64077489D02*
X91228346Y-64050807D01*
X91228346Y-64050807D02*
X91243153Y-64020060D01*
X91292088Y-63098453D02*
X91270810Y-63071772D01*
X91243153Y-64020060D02*
X91250747Y-63986789D01*
X91415807Y-63653225D02*
X91442488Y-63674503D01*
X91250747Y-63986789D02*
X91250747Y-63952662D01*
X91256003Y-62940356D02*
X91270810Y-62909608D01*
X91250747Y-63952662D02*
X91243153Y-63919391D01*
X91019134Y-63277896D02*
X91049881Y-63292703D01*
X91228346Y-63888644D02*
X91207069Y-63861962D01*
X90867824Y-63522717D02*
X90846546Y-63496036D01*
X90831739Y-63465289D02*
X90824145Y-63432017D01*
X90824145Y-63432017D02*
X90824145Y-63397891D01*
X90824145Y-63397891D02*
X90831739Y-63364620D01*
X90867824Y-63307191D02*
X90861037Y-63313981D01*
X90861037Y-63313981D02*
X90887718Y-63292703D01*
X90918465Y-63277896D02*
X90951736Y-63270302D01*
X91049881Y-63292703D02*
X91076563Y-63313981D01*
X91076563Y-63313981D02*
X91415807Y-63653225D01*
X91442488Y-63674503D02*
X91473235Y-63689310D01*
X91473235Y-63689310D02*
X91506507Y-63696904D01*
X91506507Y-63696904D02*
X91540633Y-63696904D01*
X91573904Y-63689310D02*
X91604652Y-63674503D01*
X91631333Y-63653225D02*
X91652610Y-63626543D01*
X91652610Y-63626543D02*
X91667417Y-63595796D01*
X91675011Y-63562525D02*
X91675011Y-63528398D01*
X91667417Y-63495127D02*
X91652610Y-63464380D01*
X91652610Y-63464380D02*
X91631333Y-63437698D01*
X91631333Y-63437698D02*
X91292088Y-63098453D01*
X91248409Y-63007753D02*
X91248409Y-62973627D01*
X91270810Y-62909608D02*
X91292088Y-62882927D01*
X91292088Y-62882927D02*
X91285301Y-62889716D01*
X91285301Y-62889716D02*
X95425018Y-58750000D01*
X95425018Y-58750000D02*
X97550000Y-58750000D01*
X100392966Y-57698790D02*
X100701210Y-58007034D01*
X95977844Y-57698790D02*
X100392966Y-57698790D01*
X90563932Y-63112702D02*
X95977844Y-57698790D01*
X89462581Y-64214054D02*
X90563932Y-63112702D01*
X89469370Y-64207267D02*
X89462581Y-64214054D01*
X89411942Y-64243350D02*
X89442689Y-64228543D01*
X89378670Y-64250945D02*
X89411942Y-64243350D01*
X89344544Y-64250944D02*
X89378670Y-64250945D01*
X89311272Y-64243351D02*
X89344544Y-64250944D01*
X89253844Y-64207267D02*
X89280525Y-64228544D01*
X89180548Y-64133971D02*
X89253844Y-64207267D01*
X89153867Y-64112693D02*
X89180548Y-64133971D01*
X89038317Y-64638317D02*
X89059594Y-64611637D01*
X89442689Y-64228543D02*
X89469370Y-64207267D01*
X89038317Y-64422791D02*
X88965022Y-64349496D01*
X88965022Y-64349496D02*
X88943745Y-64322815D01*
X89059595Y-64449473D02*
X89038317Y-64422791D01*
X88928938Y-64292068D02*
X88921343Y-64258798D01*
X89081995Y-64513492D02*
X89074402Y-64480220D01*
X88943745Y-64322815D02*
X88928938Y-64292068D01*
X89081996Y-64547618D02*
X89081995Y-64513492D01*
X89074402Y-64480220D02*
X89059595Y-64449473D01*
X89055722Y-64090292D02*
X89089848Y-64090293D01*
X89280525Y-64228544D02*
X89311272Y-64243351D01*
X87076634Y-66600000D02*
X89038317Y-64638317D01*
X88921344Y-64224670D02*
X88928937Y-64191400D01*
X100475000Y-59919176D02*
X100475000Y-61237500D01*
X100701210Y-58007034D02*
X100701210Y-59692966D01*
X85412500Y-66600000D02*
X87076634Y-66600000D01*
X89123120Y-64097886D02*
X89153867Y-64112693D01*
X89059594Y-64611637D02*
X89074401Y-64580890D01*
X89074401Y-64580890D02*
X89081996Y-64547618D01*
X88921343Y-64258798D02*
X88921344Y-64224670D01*
X88928937Y-64191400D02*
X88943744Y-64160653D01*
X88991703Y-64112694D02*
X89022450Y-64097887D01*
X88965022Y-64133970D02*
X88991703Y-64112694D01*
X100701210Y-59692966D02*
X100475000Y-59919176D01*
X88943744Y-64160653D02*
X88965022Y-64133970D01*
X89089848Y-64090293D02*
X89123120Y-64097886D01*
X89022450Y-64097887D02*
X89055722Y-64090292D01*
X88000000Y-67600000D02*
X85412500Y-67600000D01*
X88147589Y-67747589D02*
X88000000Y-67600000D01*
X91837989Y-67747589D02*
X88147589Y-67747589D01*
X91871901Y-67743768D02*
X91837989Y-67747589D01*
X91904112Y-67732496D02*
X91871901Y-67743768D01*
X91933008Y-67714340D02*
X91904112Y-67732496D01*
X91957140Y-67690208D02*
X91933008Y-67714340D01*
X91975296Y-67661312D02*
X91957140Y-67690208D01*
X91986568Y-67629101D02*
X91975296Y-67661312D01*
X91990389Y-67595189D02*
X91986568Y-67629101D01*
X91990389Y-66925607D02*
X91990389Y-67595189D01*
X91994209Y-66891694D02*
X91990389Y-66925607D01*
X92005481Y-66859483D02*
X91994209Y-66891694D01*
X92023637Y-66830587D02*
X92005481Y-66859483D01*
X92047769Y-66806455D02*
X92023637Y-66830587D01*
X92076665Y-66788299D02*
X92047769Y-66806455D01*
X92108876Y-66777027D02*
X92076665Y-66788299D01*
X92142789Y-66773207D02*
X92108876Y-66777027D01*
X92176701Y-66777027D02*
X92142789Y-66773207D01*
X92208912Y-66788299D02*
X92176701Y-66777027D01*
X92237808Y-66806455D02*
X92208912Y-66788299D01*
X92261940Y-66830587D02*
X92237808Y-66806455D01*
X92280096Y-66859483D02*
X92261940Y-66830587D01*
X92291368Y-66891694D02*
X92280096Y-66859483D01*
X92295189Y-66925607D02*
X92291368Y-66891694D01*
X92295189Y-67595189D02*
X92295189Y-66925607D01*
X92299009Y-67629101D02*
X92295189Y-67595189D01*
X92310281Y-67661312D02*
X92299009Y-67629101D01*
X92328437Y-67690208D02*
X92310281Y-67661312D01*
X92352569Y-67714340D02*
X92328437Y-67690208D01*
X92381465Y-67732496D02*
X92352569Y-67714340D01*
X92413676Y-67743768D02*
X92381465Y-67732496D01*
X92447589Y-67747589D02*
X92413676Y-67743768D01*
X92437989Y-67747589D02*
X92447589Y-67747589D01*
X93480096Y-66859483D02*
X93461940Y-66830587D01*
X92676665Y-66788299D02*
X92647769Y-66806455D01*
X93491368Y-66891694D02*
X93480096Y-66859483D01*
X93499009Y-67629101D02*
X93495189Y-67595189D01*
X94152569Y-67714340D02*
X94128437Y-67690208D01*
X93510281Y-67661312D02*
X93499009Y-67629101D01*
X93581465Y-67732496D02*
X93552569Y-67714340D01*
X93613676Y-67743768D02*
X93581465Y-67732496D01*
X93647589Y-67747589D02*
X93613676Y-67743768D01*
X94247589Y-67747589D02*
X94213676Y-67743768D01*
X93671901Y-67743768D02*
X93637989Y-67747589D01*
X93704112Y-67732496D02*
X93671901Y-67743768D01*
X93786568Y-67629101D02*
X93775296Y-67661312D01*
X93790389Y-66925607D02*
X93790389Y-67595189D01*
X93823637Y-66830587D02*
X93805481Y-66859483D01*
X93847769Y-66806455D02*
X93823637Y-66830587D01*
X94110281Y-67661312D02*
X94099009Y-67629101D01*
X94181465Y-67732496D02*
X94152569Y-67714340D01*
X93733008Y-67714340D02*
X93704112Y-67732496D01*
X93757140Y-67690208D02*
X93733008Y-67714340D01*
X94091368Y-66891694D02*
X94080096Y-66859483D01*
X94128437Y-67690208D02*
X94110281Y-67661312D01*
X92590389Y-67595189D02*
X92586568Y-67629101D01*
X94061940Y-66830587D02*
X94037808Y-66806455D01*
X92708876Y-66777027D02*
X92676665Y-66788299D01*
X93495189Y-66925607D02*
X93491368Y-66891694D01*
X93528437Y-67690208D02*
X93510281Y-67661312D01*
X94213676Y-67743768D02*
X94181465Y-67732496D01*
X99639116Y-64962500D02*
X98397588Y-66204028D01*
X93276665Y-66788299D02*
X93247769Y-66806455D01*
X93552569Y-67714340D02*
X93528437Y-67690208D01*
X94095189Y-67595189D02*
X94095189Y-66925607D01*
X93637989Y-67747589D02*
X93647589Y-67747589D01*
X93775296Y-67661312D02*
X93757140Y-67690208D01*
X98397588Y-66204028D02*
X98397588Y-67152412D01*
X93308876Y-66777027D02*
X93276665Y-66788299D01*
X93794209Y-66891694D02*
X93790389Y-66925607D01*
X93805481Y-66859483D02*
X93794209Y-66891694D01*
X98397588Y-67152412D02*
X97802411Y-67747589D01*
X94008912Y-66788299D02*
X93976701Y-66777027D01*
X93495189Y-67595189D02*
X93495189Y-66925607D01*
X94095189Y-66925607D02*
X94091368Y-66891694D01*
X97802411Y-67747589D02*
X94247589Y-67747589D01*
X93790389Y-67595189D02*
X93786568Y-67629101D01*
X94099009Y-67629101D02*
X94095189Y-67595189D01*
X92605481Y-66859483D02*
X92594209Y-66891694D01*
X94080096Y-66859483D02*
X94061940Y-66830587D01*
X99825000Y-64962500D02*
X99639116Y-64962500D01*
X94037808Y-66806455D02*
X94008912Y-66788299D01*
X93876665Y-66788299D02*
X93847769Y-66806455D01*
X93976701Y-66777027D02*
X93942789Y-66773207D01*
X92742789Y-66773207D02*
X92708876Y-66777027D01*
X93942789Y-66773207D02*
X93908876Y-66777027D01*
X92594209Y-66891694D02*
X92590389Y-66925607D01*
X93908876Y-66777027D02*
X93876665Y-66788299D01*
X93461940Y-66830587D02*
X93437808Y-66806455D01*
X93437808Y-66806455D02*
X93408912Y-66788299D01*
X93408912Y-66788299D02*
X93376701Y-66777027D01*
X93376701Y-66777027D02*
X93342789Y-66773207D01*
X93342789Y-66773207D02*
X93308876Y-66777027D01*
X92471901Y-67743768D02*
X92437989Y-67747589D01*
X93247769Y-66806455D02*
X93223637Y-66830587D01*
X92533008Y-67714340D02*
X92504112Y-67732496D01*
X93223637Y-66830587D02*
X93205481Y-66859483D01*
X93205481Y-66859483D02*
X93194209Y-66891694D01*
X93194209Y-66891694D02*
X93190389Y-66925607D01*
X92504112Y-67732496D02*
X92471901Y-67743768D01*
X93190389Y-66925607D02*
X93190389Y-67595189D01*
X93190389Y-67595189D02*
X93186568Y-67629101D01*
X93186568Y-67629101D02*
X93175296Y-67661312D01*
X93175296Y-67661312D02*
X93157140Y-67690208D01*
X92623637Y-66830587D02*
X92605481Y-66859483D01*
X93157140Y-67690208D02*
X93133008Y-67714340D01*
X93133008Y-67714340D02*
X93104112Y-67732496D01*
X93104112Y-67732496D02*
X93071901Y-67743768D01*
X93071901Y-67743768D02*
X93037989Y-67747589D01*
X93037989Y-67747589D02*
X93047589Y-67747589D01*
X93047589Y-67747589D02*
X93013676Y-67743768D01*
X93013676Y-67743768D02*
X92981465Y-67732496D01*
X92981465Y-67732496D02*
X92952569Y-67714340D01*
X92952569Y-67714340D02*
X92928437Y-67690208D01*
X92928437Y-67690208D02*
X92910281Y-67661312D01*
X92910281Y-67661312D02*
X92899009Y-67629101D01*
X92899009Y-67629101D02*
X92895189Y-67595189D01*
X92895189Y-67595189D02*
X92895189Y-66925607D01*
X92895189Y-66925607D02*
X92891368Y-66891694D01*
X92891368Y-66891694D02*
X92880096Y-66859483D01*
X92880096Y-66859483D02*
X92861940Y-66830587D01*
X92861940Y-66830587D02*
X92837808Y-66806455D01*
X92837808Y-66806455D02*
X92808912Y-66788299D01*
X92808912Y-66788299D02*
X92776701Y-66777027D01*
X92776701Y-66777027D02*
X92742789Y-66773207D01*
X92647769Y-66806455D02*
X92623637Y-66830587D01*
X92590389Y-66925607D02*
X92590389Y-67595189D01*
X92586568Y-67629101D02*
X92575296Y-67661312D01*
X92575296Y-67661312D02*
X92557140Y-67690208D01*
X92557140Y-67690208D02*
X92533008Y-67714340D01*
X86150000Y-68100000D02*
X85412500Y-68100000D01*
X89590400Y-68100000D02*
X86150000Y-68100000D01*
X89624312Y-68103821D02*
X89590400Y-68100000D01*
X89656523Y-68115093D02*
X89624312Y-68103821D01*
X89685419Y-68133249D02*
X89656523Y-68115093D01*
X89709551Y-68157381D02*
X89685419Y-68133249D01*
X89727707Y-68186277D02*
X89709551Y-68157381D01*
X89738979Y-68218488D02*
X89727707Y-68186277D01*
X89742800Y-68252400D02*
X89738979Y-68218488D01*
X89742800Y-68482842D02*
X89742800Y-68252400D01*
X89746620Y-68516755D02*
X89742800Y-68482842D01*
X89757892Y-68548966D02*
X89746620Y-68516755D01*
X89776048Y-68577862D02*
X89757892Y-68548966D01*
X89800180Y-68601994D02*
X89776048Y-68577862D01*
X89829076Y-68620150D02*
X89800180Y-68601994D01*
X89895200Y-68635242D02*
X89861287Y-68631422D01*
X89929112Y-68631422D02*
X89895200Y-68635242D01*
X89961323Y-68620150D02*
X89929112Y-68631422D01*
X89990219Y-68601994D02*
X89961323Y-68620150D01*
X90014351Y-68577862D02*
X89990219Y-68601994D01*
X90032507Y-68548966D02*
X90014351Y-68577862D01*
X90043779Y-68516755D02*
X90032507Y-68548966D01*
X90047600Y-68482842D02*
X90043779Y-68516755D01*
X90047600Y-68252400D02*
X90047600Y-68482842D01*
X90051420Y-68218488D02*
X90047600Y-68252400D01*
X92176048Y-68577862D02*
X92157892Y-68548966D01*
X92200180Y-68601994D02*
X92176048Y-68577862D01*
X92142800Y-68252400D02*
X92138979Y-68218488D01*
X92229076Y-68620150D02*
X92200180Y-68601994D01*
X92142800Y-68482842D02*
X92142800Y-68252400D01*
X92261287Y-68631422D02*
X92229076Y-68620150D01*
X92295200Y-68635242D02*
X92261287Y-68631422D01*
X90166087Y-68103821D02*
X90133876Y-68115093D01*
X93346620Y-68516755D02*
X93342800Y-68482842D01*
X92329112Y-68631422D02*
X92295200Y-68635242D01*
X92447600Y-68482842D02*
X92443779Y-68516755D01*
X90104980Y-68133249D02*
X90080848Y-68157381D01*
X92451420Y-68218488D02*
X92447600Y-68252400D01*
X90338979Y-68218488D02*
X90327707Y-68186277D01*
X92462692Y-68186277D02*
X92451420Y-68218488D01*
X92480848Y-68157381D02*
X92462692Y-68186277D01*
X92504980Y-68133249D02*
X92480848Y-68157381D01*
X92533876Y-68115093D02*
X92504980Y-68133249D01*
X92566087Y-68103821D02*
X92533876Y-68115093D01*
X92600000Y-68100000D02*
X92566087Y-68103821D01*
X92590400Y-68100000D02*
X92600000Y-68100000D01*
X92624312Y-68103821D02*
X92590400Y-68100000D01*
X90080848Y-68157381D02*
X90062692Y-68186277D01*
X92127707Y-68186277D02*
X92109551Y-68157381D01*
X92738979Y-68218488D02*
X92727707Y-68186277D01*
X90342800Y-68482842D02*
X90342800Y-68252400D01*
X93338979Y-68218488D02*
X93327707Y-68186277D01*
X92746620Y-68516755D02*
X92742800Y-68482842D01*
X90342800Y-68252400D02*
X90338979Y-68218488D01*
X92757892Y-68548966D02*
X92746620Y-68516755D01*
X92800180Y-68601994D02*
X92776048Y-68577862D01*
X92829076Y-68620150D02*
X92800180Y-68601994D01*
X93014351Y-68577862D02*
X92990219Y-68601994D01*
X90376048Y-68577862D02*
X90357892Y-68548966D01*
X92656523Y-68115093D02*
X92624312Y-68103821D01*
X92742800Y-68252400D02*
X92738979Y-68218488D01*
X93529112Y-68631422D02*
X93495200Y-68635242D01*
X93133876Y-68115093D02*
X93104980Y-68133249D01*
X90647600Y-68252400D02*
X90647600Y-68482842D01*
X93561323Y-68620150D02*
X93529112Y-68631422D01*
X90429076Y-68620150D02*
X90400180Y-68601994D01*
X92157892Y-68548966D02*
X92146620Y-68516755D01*
X92361323Y-68620150D02*
X92329112Y-68631422D01*
X93043779Y-68516755D02*
X93032507Y-68548966D01*
X90327707Y-68186277D02*
X90309551Y-68157381D01*
X93643779Y-68516755D02*
X93632507Y-68548966D01*
X91251420Y-68218488D02*
X91247600Y-68252400D01*
X92109551Y-68157381D02*
X92085419Y-68133249D01*
X93047600Y-68482842D02*
X93043779Y-68516755D01*
X93590219Y-68601994D02*
X93561323Y-68620150D01*
X91243779Y-68516755D02*
X91232507Y-68548966D01*
X91538979Y-68218488D02*
X91527707Y-68186277D01*
X98749999Y-67298385D02*
X97948384Y-68100000D01*
X92776048Y-68577862D02*
X92757892Y-68548966D01*
X92085419Y-68133249D02*
X92056523Y-68115093D01*
X89861287Y-68631422D02*
X89829076Y-68620150D01*
X97948384Y-68100000D02*
X93800000Y-68100000D01*
X93357892Y-68548966D02*
X93346620Y-68516755D01*
X92709551Y-68157381D02*
X92685419Y-68133249D01*
X92685419Y-68133249D02*
X92656523Y-68115093D01*
X93342800Y-68482842D02*
X93342800Y-68252400D01*
X99950000Y-66000000D02*
X99100000Y-66000000D01*
X92961323Y-68620150D02*
X92929112Y-68631422D01*
X92414351Y-68577862D02*
X92390219Y-68601994D01*
X93647600Y-68482842D02*
X93643779Y-68516755D01*
X92443779Y-68516755D02*
X92432507Y-68548966D01*
X100475000Y-65475000D02*
X99950000Y-66000000D01*
X93651420Y-68218488D02*
X93647600Y-68252400D01*
X90647600Y-68482842D02*
X90643779Y-68516755D01*
X90942800Y-68482842D02*
X90942800Y-68252400D01*
X92895200Y-68635242D02*
X92861287Y-68631422D01*
X93632507Y-68548966D02*
X93614351Y-68577862D01*
X90927707Y-68186277D02*
X90909551Y-68157381D01*
X93166087Y-68103821D02*
X93133876Y-68115093D01*
X90256523Y-68115093D02*
X90224312Y-68103821D01*
X90461287Y-68631422D02*
X90429076Y-68620150D01*
X93062692Y-68186277D02*
X93051420Y-68218488D01*
X92138979Y-68218488D02*
X92127707Y-68186277D01*
X92447600Y-68252400D02*
X92447600Y-68482842D01*
X93400180Y-68601994D02*
X93376048Y-68577862D01*
X93051420Y-68218488D02*
X93047600Y-68252400D01*
X90357892Y-68548966D02*
X90346620Y-68516755D01*
X90133876Y-68115093D02*
X90104980Y-68133249D01*
X93800000Y-68100000D02*
X93766087Y-68103821D01*
X91333876Y-68115093D02*
X91304980Y-68133249D01*
X93104980Y-68133249D02*
X93080848Y-68157381D01*
X90224312Y-68103821D02*
X90190400Y-68100000D01*
X93342800Y-68252400D02*
X93338979Y-68218488D01*
X100475000Y-64962500D02*
X100475000Y-65475000D01*
X91232507Y-68548966D02*
X91214351Y-68577862D01*
X90942800Y-68252400D02*
X90938979Y-68218488D01*
X90824312Y-68103821D02*
X90790400Y-68100000D01*
X93733876Y-68115093D02*
X93704980Y-68133249D01*
X91485419Y-68133249D02*
X91456523Y-68115093D01*
X92742800Y-68482842D02*
X92742800Y-68252400D01*
X93256523Y-68115093D02*
X93224312Y-68103821D01*
X92432507Y-68548966D02*
X92414351Y-68577862D01*
X90200000Y-68100000D02*
X90166087Y-68103821D01*
X93032507Y-68548966D02*
X93014351Y-68577862D01*
X93495200Y-68635242D02*
X93461287Y-68631422D01*
X99100000Y-66000000D02*
X98749999Y-66350001D01*
X92929112Y-68631422D02*
X92895200Y-68635242D01*
X93461287Y-68631422D02*
X93429076Y-68620150D01*
X93766087Y-68103821D02*
X93733876Y-68115093D01*
X90495200Y-68635242D02*
X90461287Y-68631422D01*
X92390219Y-68601994D02*
X92361323Y-68620150D01*
X90309551Y-68157381D02*
X90285419Y-68133249D01*
X93429076Y-68620150D02*
X93400180Y-68601994D01*
X90643779Y-68516755D02*
X90632507Y-68548966D01*
X92861287Y-68631422D02*
X92829076Y-68620150D01*
X92990219Y-68601994D02*
X92961323Y-68620150D01*
X93224312Y-68103821D02*
X93190400Y-68100000D01*
X92727707Y-68186277D02*
X92709551Y-68157381D01*
X92146620Y-68516755D02*
X92142800Y-68482842D01*
X93376048Y-68577862D02*
X93357892Y-68548966D01*
X93327707Y-68186277D02*
X93309551Y-68157381D01*
X93080848Y-68157381D02*
X93062692Y-68186277D01*
X90285419Y-68133249D02*
X90256523Y-68115093D01*
X93200000Y-68100000D02*
X93166087Y-68103821D01*
X93309551Y-68157381D02*
X93285419Y-68133249D01*
X93285419Y-68133249D02*
X93256523Y-68115093D01*
X90062692Y-68186277D02*
X90051420Y-68218488D01*
X93614351Y-68577862D02*
X93590219Y-68601994D01*
X93190400Y-68100000D02*
X93200000Y-68100000D01*
X90346620Y-68516755D02*
X90342800Y-68482842D01*
X93047600Y-68252400D02*
X93047600Y-68482842D01*
X92056523Y-68115093D02*
X92024312Y-68103821D01*
X92024312Y-68103821D02*
X91990400Y-68100000D01*
X91990400Y-68100000D02*
X92000000Y-68100000D01*
X92000000Y-68100000D02*
X91966087Y-68103821D01*
X91966087Y-68103821D02*
X91933876Y-68115093D01*
X91933876Y-68115093D02*
X91904980Y-68133249D01*
X91904980Y-68133249D02*
X91880848Y-68157381D01*
X91880848Y-68157381D02*
X91862692Y-68186277D01*
X91862692Y-68186277D02*
X91851420Y-68218488D01*
X91851420Y-68218488D02*
X91847600Y-68252400D01*
X91847600Y-68252400D02*
X91847600Y-68482842D01*
X91847600Y-68482842D02*
X91843779Y-68516755D01*
X91843779Y-68516755D02*
X91832507Y-68548966D01*
X91832507Y-68548966D02*
X91814351Y-68577862D01*
X91814351Y-68577862D02*
X91790219Y-68601994D01*
X91790219Y-68601994D02*
X91761323Y-68620150D01*
X91761323Y-68620150D02*
X91729112Y-68631422D01*
X91729112Y-68631422D02*
X91695200Y-68635242D01*
X91695200Y-68635242D02*
X91661287Y-68631422D01*
X91661287Y-68631422D02*
X91629076Y-68620150D01*
X91629076Y-68620150D02*
X91600180Y-68601994D01*
X91600180Y-68601994D02*
X91576048Y-68577862D01*
X91576048Y-68577862D02*
X91557892Y-68548966D01*
X91557892Y-68548966D02*
X91546620Y-68516755D01*
X91546620Y-68516755D02*
X91542800Y-68482842D01*
X91542800Y-68482842D02*
X91542800Y-68252400D01*
X91542800Y-68252400D02*
X91538979Y-68218488D01*
X91527707Y-68186277D02*
X91509551Y-68157381D01*
X91509551Y-68157381D02*
X91485419Y-68133249D01*
X93680848Y-68157381D02*
X93662692Y-68186277D01*
X91456523Y-68115093D02*
X91424312Y-68103821D01*
X91424312Y-68103821D02*
X91390400Y-68100000D01*
X91390400Y-68100000D02*
X91400000Y-68100000D01*
X91400000Y-68100000D02*
X91366087Y-68103821D01*
X91366087Y-68103821D02*
X91333876Y-68115093D01*
X91304980Y-68133249D02*
X91280848Y-68157381D01*
X91280848Y-68157381D02*
X91262692Y-68186277D01*
X91262692Y-68186277D02*
X91251420Y-68218488D01*
X91247600Y-68252400D02*
X91247600Y-68482842D01*
X91247600Y-68482842D02*
X91243779Y-68516755D01*
X91214351Y-68577862D02*
X91190219Y-68601994D01*
X93704980Y-68133249D02*
X93680848Y-68157381D01*
X91190219Y-68601994D02*
X91161323Y-68620150D01*
X91161323Y-68620150D02*
X91129112Y-68631422D01*
X91129112Y-68631422D02*
X91095200Y-68635242D01*
X91095200Y-68635242D02*
X91061287Y-68631422D01*
X91061287Y-68631422D02*
X91029076Y-68620150D01*
X91029076Y-68620150D02*
X91000180Y-68601994D01*
X91000180Y-68601994D02*
X90976048Y-68577862D01*
X90976048Y-68577862D02*
X90957892Y-68548966D01*
X98749999Y-66350001D02*
X98749999Y-67298385D01*
X90957892Y-68548966D02*
X90946620Y-68516755D01*
X90946620Y-68516755D02*
X90942800Y-68482842D01*
X90938979Y-68218488D02*
X90927707Y-68186277D01*
X90909551Y-68157381D02*
X90885419Y-68133249D01*
X90885419Y-68133249D02*
X90856523Y-68115093D01*
X93647600Y-68252400D02*
X93647600Y-68482842D01*
X90856523Y-68115093D02*
X90824312Y-68103821D01*
X90790400Y-68100000D02*
X90800000Y-68100000D01*
X90800000Y-68100000D02*
X90766087Y-68103821D01*
X90766087Y-68103821D02*
X90733876Y-68115093D01*
X93662692Y-68186277D02*
X93651420Y-68218488D01*
X90733876Y-68115093D02*
X90704980Y-68133249D01*
X90704980Y-68133249D02*
X90680848Y-68157381D01*
X90680848Y-68157381D02*
X90662692Y-68186277D01*
X90662692Y-68186277D02*
X90651420Y-68218488D01*
X90651420Y-68218488D02*
X90647600Y-68252400D01*
X90632507Y-68548966D02*
X90614351Y-68577862D01*
X90614351Y-68577862D02*
X90590219Y-68601994D01*
X90590219Y-68601994D02*
X90561323Y-68620150D01*
X90561323Y-68620150D02*
X90529112Y-68631422D01*
X90529112Y-68631422D02*
X90495200Y-68635242D01*
X90400180Y-68601994D02*
X90376048Y-68577862D01*
X90190400Y-68100000D02*
X90200000Y-68100000D01*
X82500000Y-72750000D02*
X82500000Y-72012500D01*
X83455274Y-73705274D02*
X82500000Y-72750000D01*
X83493668Y-73753418D02*
X83455274Y-73705274D01*
X83520387Y-73808901D02*
X83493668Y-73753418D01*
X83534091Y-73868938D02*
X83520387Y-73808901D01*
X83534090Y-73930518D02*
X83534091Y-73868938D01*
X83520388Y-73990555D02*
X83534090Y-73930518D01*
X83493668Y-74046036D02*
X83520388Y-73990555D01*
X83455274Y-74094183D02*
X83493668Y-74046036D01*
X83201653Y-74347803D02*
X83455274Y-74094183D01*
X83163258Y-74395948D02*
X83201653Y-74347803D01*
X83136540Y-74451431D02*
X83163258Y-74395948D01*
X83122837Y-74511468D02*
X83136540Y-74451431D01*
X83122837Y-74573048D02*
X83122837Y-74511468D01*
X83136540Y-74633085D02*
X83122837Y-74573048D01*
X83163258Y-74688566D02*
X83136540Y-74633085D01*
X83201654Y-74736713D02*
X83163258Y-74688566D01*
X83249799Y-74775108D02*
X83201654Y-74736713D01*
X83305282Y-74801827D02*
X83249799Y-74775108D01*
X86604940Y-76864690D02*
X86566546Y-76816546D01*
X87052348Y-78285038D02*
X87090743Y-78236893D01*
X86631659Y-76920173D02*
X86604940Y-76864690D01*
X86631660Y-77101827D02*
X86645362Y-77041790D01*
X86604940Y-77157308D02*
X86631660Y-77101827D01*
X86312925Y-77459075D02*
X86566546Y-77205455D01*
X86274530Y-77507220D02*
X86312925Y-77459075D01*
X86247812Y-77744357D02*
X86234109Y-77684320D01*
X86598206Y-77913098D02*
X86538171Y-77926802D01*
X86955456Y-77594365D02*
X86701834Y-77847984D01*
X85469994Y-76784885D02*
X85496712Y-76729402D01*
X85456291Y-76906502D02*
X85456291Y-76844922D01*
X85924016Y-77070166D02*
X85875871Y-77108562D01*
X86274530Y-77799838D02*
X86247812Y-77744357D01*
X86234109Y-77684320D02*
X86234109Y-77622740D01*
X87011927Y-78462138D02*
X87011927Y-78400558D01*
X87025630Y-78522175D02*
X87011927Y-78462138D01*
X87052348Y-78577656D02*
X87025630Y-78522175D01*
X85098053Y-76330744D02*
X85042570Y-76357462D01*
X87138889Y-78664198D02*
X87090744Y-78625803D01*
X88614718Y-79084886D02*
X88559237Y-79111606D01*
X100089116Y-89187500D02*
X98750000Y-87848384D01*
X86361071Y-77886380D02*
X86312926Y-77847985D01*
X88153842Y-79468734D02*
X88093807Y-79482438D01*
X88900000Y-79150000D02*
X88851855Y-79111606D01*
X87409478Y-77879645D02*
X87423180Y-77819608D01*
X86281264Y-76751432D02*
X86225783Y-76778152D01*
X88209325Y-79442016D02*
X88153842Y-79468734D01*
X87781419Y-78333788D02*
X87733274Y-78372183D01*
X86538171Y-77926802D02*
X86476589Y-77926801D01*
X87868562Y-79403621D02*
X87830166Y-79355474D01*
X86341301Y-76737729D02*
X86281264Y-76751432D01*
X87194372Y-78690917D02*
X87138889Y-78664198D01*
X96750000Y-83650000D02*
X93400000Y-83650000D01*
X87090744Y-78625803D02*
X87052348Y-78577656D01*
X87240736Y-77529250D02*
X87180699Y-77515547D01*
X86476589Y-77926801D02*
X86416554Y-77913099D01*
X87090743Y-78236893D02*
X87344364Y-77983273D01*
X87011927Y-78400558D02*
X87025630Y-78340521D01*
X87916707Y-79442016D02*
X87868562Y-79403621D01*
X85685100Y-75973614D02*
X85625063Y-75959911D01*
X86701834Y-77847984D02*
X86653689Y-77886380D01*
X87836900Y-78307068D02*
X87781419Y-78333788D01*
X88257470Y-79403620D02*
X88209325Y-79442016D01*
X86234109Y-77622740D02*
X86247812Y-77562703D01*
X87803448Y-79299993D02*
X87789745Y-79239956D01*
X87119119Y-77515547D02*
X87059082Y-77529250D01*
X85827122Y-76379490D02*
X85853842Y-76324009D01*
X88187295Y-78475809D02*
X88160576Y-78420326D01*
X87409477Y-77697991D02*
X87382758Y-77642508D01*
X84271486Y-74823854D02*
X84298206Y-74768373D01*
X88511092Y-79150001D02*
X88257470Y-79403620D01*
X85760353Y-77148984D02*
X85698771Y-77148983D01*
X87344364Y-77983273D02*
X87382758Y-77935126D01*
X88559237Y-79111606D02*
X88511092Y-79150001D01*
X86645363Y-76980210D02*
X86631659Y-76920173D01*
X87423181Y-77758028D02*
X87409477Y-77697991D01*
X85496712Y-76729402D02*
X85535107Y-76681257D01*
X86645362Y-77041790D02*
X86645363Y-76980210D01*
X98750000Y-87848384D02*
X98750000Y-85650000D01*
X98750000Y-85650000D02*
X96750000Y-83650000D01*
X87896937Y-78293365D02*
X87836900Y-78307068D01*
X86462918Y-76751432D02*
X86402881Y-76737729D01*
X87733274Y-78372183D02*
X87479652Y-78625802D01*
X87059082Y-77529250D02*
X87003601Y-77555970D01*
X85853841Y-76142355D02*
X85827122Y-76086872D01*
X87315989Y-78704620D02*
X87254407Y-78704619D01*
X86653689Y-77886380D02*
X86598206Y-77913098D01*
X85867544Y-76263972D02*
X85867545Y-76202392D01*
X87830166Y-79062856D02*
X87868561Y-79014711D01*
X86566546Y-77205455D02*
X86604940Y-77157308D01*
X87025630Y-78340521D02*
X87052348Y-78285038D01*
X86247812Y-77562703D02*
X86274530Y-77507220D01*
X88796372Y-79084886D02*
X88736335Y-79071183D01*
X87296219Y-77555970D02*
X87240736Y-77529250D01*
X85399820Y-76038729D02*
X85146198Y-76292348D01*
X88122182Y-78372182D02*
X88074037Y-78333788D01*
X85638736Y-77135281D02*
X85583253Y-77108562D01*
X87376024Y-78690916D02*
X87315989Y-78704620D01*
X93400000Y-83650000D02*
X88900000Y-79150000D01*
X87972190Y-79468735D02*
X87916707Y-79442016D01*
X85010910Y-75649819D02*
X85049304Y-75601672D01*
X87254407Y-78704619D02*
X87194372Y-78690917D01*
X85503446Y-75973614D02*
X85447965Y-76000334D01*
X88851855Y-79111606D02*
X88796372Y-79084886D01*
X87789745Y-79239956D02*
X87789745Y-79178376D01*
X86312926Y-77847985D02*
X86274530Y-77799838D01*
X100375000Y-89187500D02*
X100089116Y-89187500D01*
X85089726Y-75486154D02*
X85089727Y-75424574D01*
X88736335Y-79071183D02*
X88674755Y-79071183D01*
X87789745Y-79178376D02*
X87803448Y-79118339D01*
X87868561Y-79014711D02*
X88122182Y-78761091D01*
X88200999Y-78535846D02*
X88187295Y-78475809D01*
X85853842Y-76324009D02*
X85867544Y-76263972D01*
X88122182Y-78761091D02*
X88160576Y-78712944D01*
X88160576Y-78420326D02*
X88122182Y-78372182D01*
X85867545Y-76202392D02*
X85853841Y-76142355D01*
X88160576Y-78712944D02*
X88187296Y-78657463D01*
X85625063Y-75959911D02*
X85563483Y-75959911D01*
X85456291Y-76844922D02*
X85469994Y-76784885D01*
X88187296Y-78657463D02*
X88200998Y-78597426D01*
X88674755Y-79071183D02*
X88614718Y-79084886D01*
X85496712Y-77022020D02*
X85469994Y-76966539D01*
X88200998Y-78597426D02*
X88200999Y-78535846D01*
X86416554Y-77913099D02*
X86361071Y-77886380D01*
X87958517Y-78293365D02*
X87896937Y-78293365D01*
X85447965Y-76000334D02*
X85399820Y-76038729D01*
X87180699Y-77515547D02*
X87119119Y-77515547D01*
X86566546Y-76816546D02*
X86518401Y-76778152D01*
X88093807Y-79482438D02*
X88032225Y-79482437D01*
X88032225Y-79482437D02*
X87972190Y-79468735D01*
X85469994Y-76966539D02*
X85456291Y-76906502D01*
X87431507Y-78664198D02*
X87376024Y-78690916D01*
X87003601Y-77555970D02*
X86955456Y-77594365D01*
X85146198Y-76292348D02*
X85098053Y-76330744D01*
X86518401Y-76778152D02*
X86462918Y-76751432D01*
X86402881Y-76737729D02*
X86341301Y-76737729D01*
X86225783Y-76778152D02*
X86177638Y-76816547D01*
X86177638Y-76816547D02*
X85924016Y-77070166D01*
X85875871Y-77108562D02*
X85820388Y-77135280D01*
X87830166Y-79355474D02*
X87803448Y-79299993D01*
X85820388Y-77135280D02*
X85760353Y-77148984D01*
X85698771Y-77148983D02*
X85638736Y-77135281D01*
X85583253Y-77108562D02*
X85535108Y-77070167D01*
X85535108Y-77070167D02*
X85496712Y-77022020D01*
X87479652Y-78625802D02*
X87431507Y-78664198D01*
X85535107Y-76681257D02*
X85788728Y-76427637D01*
X85788728Y-76427637D02*
X85827122Y-76379490D01*
X85827122Y-76086872D02*
X85788728Y-76038728D01*
X88018554Y-78307068D02*
X87958517Y-78293365D01*
X85788728Y-76038728D02*
X85740583Y-76000334D01*
X88074037Y-78333788D02*
X88018554Y-78307068D01*
X85740583Y-76000334D02*
X85685100Y-75973614D01*
X87803448Y-79118339D02*
X87830166Y-79062856D01*
X85563483Y-75959911D02*
X85503446Y-75973614D01*
X85042570Y-76357462D02*
X84982535Y-76371166D01*
X84982535Y-76371166D02*
X84920953Y-76371165D01*
X84920953Y-76371165D02*
X84860918Y-76357463D01*
X84860918Y-76357463D02*
X84805435Y-76330744D01*
X84805435Y-76330744D02*
X84757290Y-76292349D01*
X84757290Y-76292349D02*
X84718894Y-76244202D01*
X84718894Y-76244202D02*
X84692176Y-76188721D01*
X84692176Y-76188721D02*
X84678473Y-76128684D01*
X84678473Y-76128684D02*
X84678473Y-76067104D01*
X84678473Y-76067104D02*
X84692176Y-76007067D01*
X84692176Y-76007067D02*
X84718894Y-75951584D01*
X84718894Y-75951584D02*
X84757289Y-75903439D01*
X84757289Y-75903439D02*
X85010910Y-75649819D01*
X85049304Y-75601672D02*
X85076024Y-75546191D01*
X87344364Y-77594364D02*
X87296219Y-77555970D01*
X85076024Y-75546191D02*
X85089726Y-75486154D01*
X85089727Y-75424574D02*
X85076023Y-75364537D01*
X85076023Y-75364537D02*
X85049304Y-75309054D01*
X85049304Y-75309054D02*
X85010910Y-75260910D01*
X85010910Y-75260910D02*
X84962765Y-75222516D01*
X84962765Y-75222516D02*
X84907282Y-75195796D01*
X84907282Y-75195796D02*
X84847245Y-75182093D01*
X84847245Y-75182093D02*
X84785665Y-75182093D01*
X84785665Y-75182093D02*
X84725628Y-75195796D01*
X84725628Y-75195796D02*
X84670147Y-75222516D01*
X84670147Y-75222516D02*
X84622002Y-75260911D01*
X84622002Y-75260911D02*
X84368380Y-75514530D01*
X84368380Y-75514530D02*
X84320235Y-75552926D01*
X84320235Y-75552926D02*
X84264752Y-75579644D01*
X84264752Y-75579644D02*
X84204717Y-75593348D01*
X84204717Y-75593348D02*
X84143135Y-75593347D01*
X84143135Y-75593347D02*
X84083100Y-75579645D01*
X84083100Y-75579645D02*
X84027617Y-75552926D01*
X87382758Y-77935126D02*
X87409478Y-77879645D01*
X84027617Y-75552926D02*
X83979472Y-75514531D01*
X83979472Y-75514531D02*
X83941076Y-75466384D01*
X83941076Y-75466384D02*
X83914358Y-75410903D01*
X83914358Y-75410903D02*
X83900655Y-75350866D01*
X83900655Y-75350866D02*
X83900655Y-75289286D01*
X83900655Y-75289286D02*
X83914358Y-75229249D01*
X83914358Y-75229249D02*
X83941076Y-75173766D01*
X83941076Y-75173766D02*
X83979471Y-75125621D01*
X83979471Y-75125621D02*
X84233092Y-74872001D01*
X84233092Y-74872001D02*
X84271486Y-74823854D01*
X87382758Y-77642508D02*
X87344364Y-77594364D01*
X84298206Y-74768373D02*
X84311908Y-74708336D01*
X84311908Y-74708336D02*
X84311909Y-74646756D01*
X84311909Y-74646756D02*
X84298205Y-74586719D01*
X84298205Y-74586719D02*
X84271486Y-74531236D01*
X87423180Y-77819608D02*
X87423181Y-77758028D01*
X84271486Y-74531236D02*
X84233092Y-74483092D01*
X84233092Y-74483092D02*
X84184947Y-74444698D01*
X84184947Y-74444698D02*
X84129464Y-74417978D01*
X84129464Y-74417978D02*
X84069427Y-74404275D01*
X84069427Y-74404275D02*
X84007847Y-74404275D01*
X84007847Y-74404275D02*
X83947810Y-74417978D01*
X83947810Y-74417978D02*
X83892329Y-74444698D01*
X83892329Y-74444698D02*
X83844184Y-74483093D01*
X83844184Y-74483093D02*
X83590562Y-74736712D01*
X83590562Y-74736712D02*
X83542417Y-74775108D01*
X83542417Y-74775108D02*
X83486934Y-74801826D01*
X83486934Y-74801826D02*
X83426899Y-74815530D01*
X83426899Y-74815530D02*
X83365317Y-74815529D01*
X83365317Y-74815529D02*
X83305282Y-74801827D01*
X101025000Y-88675000D02*
X101025000Y-89187500D01*
X100500000Y-88150000D02*
X101025000Y-88675000D01*
X99550000Y-88150000D02*
X100500000Y-88150000D01*
X99150000Y-87750000D02*
X99550000Y-88150000D01*
X99150000Y-85500000D02*
X99150000Y-87750000D01*
X96850000Y-83200000D02*
X99150000Y-85500000D01*
X89166902Y-78916902D02*
X93450000Y-83200000D01*
X89101787Y-78813273D02*
X89128505Y-78868755D01*
X89088084Y-78753236D02*
X89101787Y-78813273D01*
X89088084Y-78691656D02*
X89088084Y-78753236D01*
X89101787Y-78631619D02*
X89088084Y-78691656D01*
X89128505Y-78576137D02*
X89101787Y-78631619D01*
X89166900Y-78527992D02*
X89128505Y-78576137D01*
X89509659Y-78175483D02*
X89471264Y-78223627D01*
X89536377Y-78120000D02*
X89509659Y-78175483D01*
X89550080Y-77998383D02*
X89550080Y-78059963D01*
X89536377Y-77938346D02*
X89550080Y-77998383D01*
X89471264Y-77834719D02*
X89509659Y-77882865D01*
X89423119Y-77796324D02*
X89471264Y-77834719D01*
X89082356Y-77834719D02*
X89130501Y-77796324D01*
X88777993Y-78139085D02*
X89082356Y-77834719D01*
X88729847Y-78177478D02*
X88777993Y-78139085D01*
X88674366Y-78204198D02*
X88729847Y-78177478D01*
X88614329Y-78217901D02*
X88674366Y-78204198D01*
X88437229Y-78177478D02*
X88492712Y-78204198D01*
X88350688Y-78090938D02*
X88389085Y-78139085D01*
X88323970Y-78035456D02*
X88350688Y-78090938D01*
X88310267Y-77913839D02*
X88310267Y-77975419D01*
X88645302Y-77018507D02*
X88693447Y-77056902D01*
X87952030Y-77399661D02*
X88000176Y-77361268D01*
X87994446Y-76442749D02*
X87994446Y-76504329D01*
X87867485Y-76240690D02*
X87915630Y-76279085D01*
X89307600Y-77755903D02*
X89367637Y-77769606D01*
X87812003Y-76213972D02*
X87867485Y-76240690D01*
X89246020Y-77755903D02*
X89307600Y-77755903D01*
X87751966Y-76200269D02*
X87812003Y-76213972D01*
X87572871Y-77313121D02*
X87611268Y-77361268D01*
X87574867Y-76240690D02*
X87630349Y-76213972D01*
X87546153Y-77075985D02*
X87532450Y-77136022D01*
X87526722Y-76279085D02*
X87574867Y-76240690D01*
X88468203Y-76978086D02*
X88529783Y-76978086D01*
X87222359Y-76583451D02*
X87526722Y-76279085D01*
X88310267Y-77975419D02*
X88323970Y-78035456D01*
X87174213Y-76621844D02*
X87222359Y-76583451D01*
X87994446Y-76504329D02*
X87980743Y-76564366D01*
X87630349Y-76213972D02*
X87690386Y-76200269D01*
X86134752Y-74644635D02*
X86196332Y-74644635D01*
X87954025Y-76619849D02*
X87915630Y-76667993D01*
X87137813Y-75501268D02*
X87176208Y-75549414D01*
X88772263Y-77282146D02*
X88758560Y-77342183D01*
X86438812Y-74887115D02*
X86438812Y-74948695D01*
X88323970Y-77853802D02*
X88310267Y-77913839D01*
X87118732Y-76648564D02*
X87174213Y-76621844D01*
X86019233Y-74685056D02*
X86074715Y-74658338D01*
X85620574Y-73993780D02*
X85647292Y-74049261D01*
X86748905Y-75501268D02*
X86797050Y-75462873D01*
X88731842Y-77397666D02*
X88693447Y-77445810D01*
X85618579Y-75066210D02*
X85666725Y-75027817D01*
X85441481Y-75106633D02*
X85503061Y-75106633D01*
X93450000Y-83200000D02*
X96850000Y-83200000D01*
X84603627Y-74315113D02*
X84663664Y-74328816D01*
X85277817Y-75027817D02*
X85325961Y-75066210D01*
X85198999Y-74864151D02*
X85212702Y-74924188D01*
X89509659Y-77882865D02*
X89536377Y-77938346D01*
X86359996Y-75112359D02*
X86055632Y-75416724D01*
X85198999Y-74802571D02*
X85198999Y-74864151D01*
X89367637Y-77769606D02*
X89423119Y-77796324D01*
X85976816Y-75641968D02*
X85990519Y-75702005D01*
X85212702Y-74742534D02*
X85198999Y-74802571D01*
X85277815Y-74638907D02*
X85239420Y-74687052D01*
X88389085Y-78139085D02*
X88437229Y-78177478D01*
X85418515Y-73866818D02*
X85478552Y-73880521D01*
X85582179Y-74334542D02*
X85277815Y-74638907D01*
X87915630Y-76279085D02*
X87954025Y-76327231D01*
X86881595Y-76621844D02*
X86937078Y-76648564D01*
X85620574Y-74286398D02*
X85582179Y-74334542D01*
X87980743Y-76382712D02*
X87994446Y-76442749D01*
X87202926Y-75786549D02*
X87176208Y-75842032D01*
X88492712Y-78204198D02*
X88552749Y-78217901D01*
X85193271Y-73945634D02*
X85241416Y-73907239D01*
X88350688Y-77798320D02*
X88323970Y-77853802D01*
X86311851Y-74685056D02*
X86359996Y-74723451D01*
X85647292Y-74049261D02*
X85660995Y-74109298D01*
X86425109Y-74827078D02*
X86438812Y-74887115D01*
X84840762Y-74288393D02*
X84888908Y-74250000D01*
X87058695Y-76662267D02*
X87118732Y-76648564D01*
X88552749Y-78217901D02*
X88614329Y-78217901D01*
X84500000Y-74250000D02*
X84548144Y-74288393D01*
X88693447Y-77445810D02*
X88389083Y-77750175D01*
X86754633Y-76419785D02*
X86768336Y-76479822D01*
X84663664Y-74328816D02*
X84725244Y-74328816D01*
X85666725Y-75027817D02*
X85971088Y-74723451D01*
X84725244Y-74328816D02*
X84785281Y-74315113D01*
X83000000Y-72750000D02*
X84500000Y-74250000D01*
X86974149Y-75422452D02*
X87034186Y-75436155D01*
X89550080Y-78059963D02*
X89536377Y-78120000D01*
X84888908Y-74250000D02*
X85193271Y-73945634D01*
X85660995Y-74109298D02*
X85660995Y-74170878D01*
X87659412Y-77399661D02*
X87714895Y-77426381D01*
X85563098Y-75092930D02*
X85618579Y-75066210D01*
X86103778Y-75844027D02*
X86159261Y-75870747D01*
X87532450Y-77197602D02*
X87546153Y-77257639D01*
X87690386Y-76200269D02*
X87751966Y-76200269D01*
X86256369Y-74658338D02*
X86311851Y-74685056D01*
X87980743Y-76564366D02*
X87954025Y-76619849D01*
X87176208Y-75842032D02*
X87137813Y-75890176D01*
X89471264Y-78223627D02*
X89166900Y-78527992D01*
X84548144Y-74288393D02*
X84603627Y-74315113D01*
X85296898Y-73880521D02*
X85356935Y-73866818D01*
X85239420Y-74687052D02*
X85212702Y-74742534D01*
X86074715Y-74658338D02*
X86134752Y-74644635D01*
X86768336Y-76298168D02*
X86754633Y-76358205D01*
X89130501Y-77796324D02*
X89185983Y-77769606D01*
X84785281Y-74315113D02*
X84840762Y-74288393D01*
X85976816Y-75580388D02*
X85976816Y-75641968D01*
X85381444Y-75092930D02*
X85441481Y-75106633D01*
X85647292Y-74230915D02*
X85620574Y-74286398D01*
X86852532Y-75436155D02*
X86912569Y-75422452D01*
X85241416Y-73907239D02*
X85296898Y-73880521D01*
X86795054Y-76242686D02*
X86768336Y-76298168D01*
X89185983Y-77769606D02*
X89246020Y-77755903D01*
X85356935Y-73866818D02*
X85418515Y-73866818D01*
X85478552Y-73880521D02*
X85534034Y-73907239D01*
X85534034Y-73907239D02*
X85582179Y-73945634D01*
X85325961Y-75066210D02*
X85381444Y-75092930D01*
X85582179Y-73945634D02*
X85620574Y-73993780D01*
X88408166Y-76991789D02*
X88468203Y-76978086D01*
X86444542Y-75805634D02*
X86748905Y-75501268D01*
X85660995Y-74170878D02*
X85647292Y-74230915D01*
X88693447Y-77056902D02*
X88731842Y-77105048D01*
X86159261Y-75870747D02*
X86219298Y-75884450D01*
X87836512Y-77440084D02*
X87896549Y-77426381D01*
X86359996Y-74723451D02*
X86398391Y-74771597D01*
X85239420Y-74979670D02*
X85277817Y-75027817D01*
X86398391Y-74771597D02*
X86425109Y-74827078D01*
X88529783Y-76978086D02*
X88589820Y-76991789D01*
X85212702Y-74924188D02*
X85239420Y-74979670D01*
X86438812Y-74948695D02*
X86425109Y-75008732D01*
X87896549Y-77426381D02*
X87952030Y-77399661D01*
X86425109Y-75008732D02*
X86398391Y-75064215D01*
X86398391Y-75064215D02*
X86359996Y-75112359D01*
X88772263Y-77220566D02*
X88772263Y-77282146D01*
X86055632Y-75416724D02*
X86017237Y-75464869D01*
X87611268Y-77361268D02*
X87659412Y-77399661D01*
X86017237Y-75464869D02*
X85990519Y-75520351D01*
X88304539Y-77056902D02*
X88352684Y-77018507D01*
X85503061Y-75106633D02*
X85563098Y-75092930D01*
X85990519Y-75520351D02*
X85976816Y-75580388D01*
X85990519Y-75702005D02*
X86017237Y-75757487D01*
X89128505Y-78868755D02*
X89166902Y-78916902D01*
X86017237Y-75757487D02*
X86055634Y-75805634D01*
X86055634Y-75805634D02*
X86103778Y-75844027D01*
X88758560Y-77342183D02*
X88731842Y-77397666D01*
X86219298Y-75884450D02*
X86280878Y-75884450D01*
X87572871Y-77020503D02*
X87546153Y-77075985D01*
X86280878Y-75884450D02*
X86340915Y-75870747D01*
X88389083Y-77750175D02*
X88350688Y-77798320D01*
X86340915Y-75870747D02*
X86396396Y-75844027D01*
X87714895Y-77426381D02*
X87774932Y-77440084D01*
X86396396Y-75844027D02*
X86444542Y-75805634D01*
X87532450Y-77136022D02*
X87532450Y-77197602D01*
X86797050Y-75462873D02*
X86852532Y-75436155D01*
X86912569Y-75422452D02*
X86974149Y-75422452D01*
X87546153Y-77257639D02*
X87572871Y-77313121D01*
X87034186Y-75436155D02*
X87089668Y-75462873D01*
X88000176Y-77361268D02*
X88304539Y-77056902D01*
X87089668Y-75462873D02*
X87137813Y-75501268D01*
X87176208Y-75549414D02*
X87202926Y-75604895D01*
X87954025Y-76327231D02*
X87980743Y-76382712D01*
X87202926Y-75604895D02*
X87216629Y-75664932D01*
X87216629Y-75664932D02*
X87216629Y-75726512D01*
X88731842Y-77105048D02*
X88758560Y-77160529D01*
X87216629Y-75726512D02*
X87202926Y-75786549D01*
X87611266Y-76972358D02*
X87572871Y-77020503D01*
X87137813Y-75890176D02*
X86833449Y-76194541D01*
X88589820Y-76991789D02*
X88645302Y-77018507D01*
X83000000Y-72012500D02*
X83000000Y-72750000D01*
X86833449Y-76194541D02*
X86795054Y-76242686D01*
X88352684Y-77018507D02*
X88408166Y-76991789D01*
X86754633Y-76358205D02*
X86754633Y-76419785D01*
X88758560Y-77160529D02*
X88772263Y-77220566D01*
X86768336Y-76479822D02*
X86795054Y-76535304D01*
X86196332Y-74644635D02*
X86256369Y-74658338D01*
X86795054Y-76535304D02*
X86833451Y-76583451D01*
X87774932Y-77440084D02*
X87836512Y-77440084D01*
X86833451Y-76583451D02*
X86881595Y-76621844D01*
X85971088Y-74723451D02*
X86019233Y-74685056D01*
X86937078Y-76648564D02*
X86997115Y-76662267D01*
X87915630Y-76667993D02*
X87611266Y-76972358D01*
X86997115Y-76662267D02*
X87058695Y-76662267D01*
X100375000Y-92912500D02*
X99488710Y-92912500D01*
X99488710Y-92912500D02*
X99476210Y-92900000D01*
X82000000Y-70637704D02*
X82351294Y-70286410D01*
X82000000Y-72012500D02*
X82000000Y-70637704D01*
X81500000Y-70600000D02*
X81350000Y-70450000D01*
X81500000Y-72012500D02*
X81500000Y-70600000D01*
X101025000Y-93425000D02*
X101025000Y-92912500D01*
X98900000Y-94450000D02*
X99550000Y-93800000D01*
X100650000Y-93800000D02*
X101025000Y-93425000D01*
X99550000Y-93800000D02*
X100650000Y-93800000D01*
X90718320Y-69600000D02*
X85412500Y-69600000D01*
X90909200Y-69600000D02*
X90718320Y-69600000D01*
X90943112Y-69603821D02*
X90909200Y-69600000D01*
X90975323Y-69615093D02*
X90943112Y-69603821D01*
X91004219Y-69633249D02*
X90975323Y-69615093D01*
X91028351Y-69657381D02*
X91004219Y-69633249D01*
X91046507Y-69686277D02*
X91028351Y-69657381D01*
X91057779Y-69718488D02*
X91046507Y-69686277D01*
X91061600Y-69752400D02*
X91057779Y-69718488D01*
X91061600Y-70346187D02*
X91061600Y-69752400D01*
X91065420Y-70380100D02*
X91061600Y-70346187D01*
X91076692Y-70412311D02*
X91065420Y-70380100D01*
X91094848Y-70441207D02*
X91076692Y-70412311D01*
X91118980Y-70465339D02*
X91094848Y-70441207D01*
X91147876Y-70483495D02*
X91118980Y-70465339D01*
X91180087Y-70494767D02*
X91147876Y-70483495D01*
X91214000Y-70498587D02*
X91180087Y-70494767D01*
X91247912Y-70494767D02*
X91214000Y-70498587D01*
X91280123Y-70483495D02*
X91247912Y-70494767D01*
X91309019Y-70465339D02*
X91280123Y-70483495D01*
X91333151Y-70441207D02*
X91309019Y-70465339D01*
X91351307Y-70412311D02*
X91333151Y-70441207D01*
X91362579Y-70380100D02*
X91351307Y-70412311D01*
X91366400Y-70346187D02*
X91362579Y-70380100D01*
X91366400Y-69550000D02*
X91366400Y-70346187D01*
X91367653Y-69538873D02*
X91366400Y-69550000D01*
X91371351Y-69528305D02*
X91367653Y-69538873D01*
X91377308Y-69518825D02*
X91371351Y-69528305D01*
X91385225Y-69510908D02*
X91377308Y-69518825D01*
X91394705Y-69504951D02*
X91385225Y-69510908D01*
X91405273Y-69501253D02*
X91394705Y-69504951D01*
X91416400Y-69500000D02*
X91405273Y-69501253D01*
X91621200Y-69500000D02*
X91416400Y-69500000D01*
X91632326Y-69501253D02*
X91621200Y-69500000D01*
X91642894Y-69504951D02*
X91632326Y-69501253D01*
X91652374Y-69510908D02*
X91642894Y-69504951D01*
X91660291Y-69518825D02*
X91652374Y-69510908D01*
X91666248Y-69528305D02*
X91660291Y-69518825D01*
X91669946Y-69538873D02*
X91666248Y-69528305D01*
X91671200Y-69550000D02*
X91669946Y-69538873D01*
X91671200Y-70346187D02*
X91671200Y-69550000D01*
X91675020Y-70380100D02*
X91671200Y-70346187D01*
X91686292Y-70412311D02*
X91675020Y-70380100D01*
X91704448Y-70441207D02*
X91686292Y-70412311D01*
X91728580Y-70465339D02*
X91704448Y-70441207D01*
X92862094Y-69504951D02*
X92851526Y-69501253D01*
X92261974Y-69510908D02*
X92252494Y-69504951D01*
X92885448Y-69528305D02*
X92879491Y-69518825D01*
X92879491Y-69518825D02*
X92871574Y-69510908D01*
X92889146Y-69538873D02*
X92885448Y-69528305D01*
X92871574Y-69510908D02*
X92862094Y-69504951D01*
X92890400Y-69550000D02*
X92889146Y-69538873D01*
X92894220Y-70380100D02*
X92890400Y-70346187D01*
X92905492Y-70412311D02*
X92894220Y-70380100D01*
X92947780Y-70465339D02*
X92923648Y-70441207D01*
X92976676Y-70483495D02*
X92947780Y-70465339D01*
X93042800Y-70498587D02*
X93008887Y-70494767D01*
X93076712Y-70494767D02*
X93042800Y-70498587D01*
X93108923Y-70483495D02*
X93076712Y-70494767D01*
X93161951Y-70441207D02*
X93137819Y-70465339D01*
X93191379Y-70380100D02*
X93180107Y-70412311D01*
X93195200Y-70346187D02*
X93191379Y-70380100D01*
X93195200Y-69550000D02*
X93195200Y-70346187D01*
X93196453Y-69538873D02*
X93195200Y-69550000D01*
X92367076Y-70483495D02*
X92338180Y-70465339D01*
X93498746Y-69538873D02*
X93495048Y-69528305D01*
X93501253Y-69561126D02*
X93498746Y-69538873D01*
X91980951Y-69528305D02*
X91977253Y-69538873D01*
X93504951Y-69571694D02*
X93501253Y-69561126D01*
X100050000Y-75087500D02*
X99949982Y-75087500D01*
X93137819Y-70465339D02*
X93108923Y-70483495D01*
X93510908Y-69581174D02*
X93504951Y-69571694D01*
X93518825Y-69589091D02*
X93510908Y-69581174D01*
X93008887Y-70494767D02*
X92976676Y-70483495D01*
X92280800Y-69550000D02*
X92279546Y-69538873D01*
X93538873Y-69598746D02*
X93528305Y-69595048D01*
X92890400Y-70346187D02*
X92890400Y-69550000D01*
X99949982Y-75087500D02*
X94462482Y-69600000D01*
X91823600Y-70498587D02*
X91789687Y-70494767D01*
X94462482Y-69600000D02*
X93550000Y-69600000D01*
X93550000Y-69600000D02*
X93538873Y-69598746D01*
X93528305Y-69595048D02*
X93518825Y-69589091D01*
X92314048Y-70441207D02*
X92295892Y-70412311D01*
X93495048Y-69528305D02*
X93489091Y-69518825D01*
X93180107Y-70412311D02*
X93161951Y-70441207D01*
X93471694Y-69504951D02*
X93461126Y-69501253D01*
X93489091Y-69518825D02*
X93481174Y-69510908D01*
X92923648Y-70441207D02*
X92905492Y-70412311D01*
X93223505Y-69504951D02*
X93214025Y-69510908D01*
X93481174Y-69510908D02*
X93471694Y-69504951D01*
X93450000Y-69500000D02*
X93245200Y-69500000D01*
X92851526Y-69501253D02*
X92840400Y-69500000D01*
X93461126Y-69501253D02*
X93450000Y-69500000D01*
X93245200Y-69500000D02*
X93234073Y-69501253D01*
X93234073Y-69501253D02*
X93223505Y-69504951D01*
X93214025Y-69510908D02*
X93206108Y-69518825D01*
X92338180Y-70465339D02*
X92314048Y-70441207D01*
X93206108Y-69518825D02*
X93200151Y-69528305D01*
X93200151Y-69528305D02*
X93196453Y-69538873D01*
X92840400Y-69500000D02*
X92635600Y-69500000D01*
X91994825Y-69510908D02*
X91986908Y-69518825D01*
X92635600Y-69500000D02*
X92624473Y-69501253D01*
X92624473Y-69501253D02*
X92613905Y-69504951D01*
X92613905Y-69504951D02*
X92604425Y-69510908D01*
X91977253Y-69538873D02*
X91976000Y-69550000D01*
X92604425Y-69510908D02*
X92596508Y-69518825D01*
X91918619Y-70465339D02*
X91889723Y-70483495D01*
X92596508Y-69518825D02*
X92590551Y-69528305D01*
X92590551Y-69528305D02*
X92586853Y-69538873D01*
X91857512Y-70494767D02*
X91823600Y-70498587D01*
X92586853Y-69538873D02*
X92585600Y-69550000D01*
X92585600Y-69550000D02*
X92585600Y-70346187D01*
X92585600Y-70346187D02*
X92581779Y-70380100D01*
X92241926Y-69501253D02*
X92230800Y-69500000D01*
X92581779Y-70380100D02*
X92570507Y-70412311D01*
X92570507Y-70412311D02*
X92552351Y-70441207D01*
X92004305Y-69504951D02*
X91994825Y-69510908D01*
X92552351Y-70441207D02*
X92528219Y-70465339D01*
X92528219Y-70465339D02*
X92499323Y-70483495D01*
X92499323Y-70483495D02*
X92467112Y-70494767D01*
X92467112Y-70494767D02*
X92433200Y-70498587D01*
X91976000Y-70346187D02*
X91972179Y-70380100D01*
X92433200Y-70498587D02*
X92399287Y-70494767D01*
X91976000Y-69550000D02*
X91976000Y-70346187D01*
X92399287Y-70494767D02*
X92367076Y-70483495D01*
X92295892Y-70412311D02*
X92284620Y-70380100D01*
X92284620Y-70380100D02*
X92280800Y-70346187D01*
X92280800Y-70346187D02*
X92280800Y-69550000D01*
X92279546Y-69538873D02*
X92275848Y-69528305D01*
X92275848Y-69528305D02*
X92269891Y-69518825D01*
X92269891Y-69518825D02*
X92261974Y-69510908D01*
X92252494Y-69504951D02*
X92241926Y-69501253D01*
X92230800Y-69500000D02*
X92026000Y-69500000D01*
X92026000Y-69500000D02*
X92014873Y-69501253D01*
X92014873Y-69501253D02*
X92004305Y-69504951D01*
X91986908Y-69518825D02*
X91980951Y-69528305D01*
X91972179Y-70380100D02*
X91960907Y-70412311D01*
X91960907Y-70412311D02*
X91942751Y-70441207D01*
X91942751Y-70441207D02*
X91918619Y-70465339D01*
X91889723Y-70483495D02*
X91857512Y-70494767D01*
X91789687Y-70494767D02*
X91757476Y-70483495D01*
X91757476Y-70483495D02*
X91728580Y-70465339D01*
X94505824Y-69100000D02*
X85412500Y-69100000D01*
X96649063Y-71243239D02*
X94505824Y-69100000D01*
X96675744Y-71264517D02*
X96649063Y-71243239D01*
X96706491Y-71279324D02*
X96675744Y-71264517D01*
X96739762Y-71286918D02*
X96706491Y-71279324D01*
X96773889Y-71286918D02*
X96739762Y-71286918D01*
X96807160Y-71279324D02*
X96773889Y-71286918D01*
X96837907Y-71264517D02*
X96807160Y-71279324D01*
X96864589Y-71243239D02*
X96837907Y-71264517D01*
X97268669Y-70839160D02*
X96864589Y-71243239D01*
X97295351Y-70817882D02*
X97268669Y-70839160D01*
X97326098Y-70803075D02*
X97295351Y-70817882D01*
X97359369Y-70795481D02*
X97326098Y-70803075D01*
X97393496Y-70795481D02*
X97359369Y-70795481D01*
X97426767Y-70803075D02*
X97393496Y-70795481D01*
X97457514Y-70817882D02*
X97426767Y-70803075D01*
X97484196Y-70839160D02*
X97457514Y-70817882D01*
X97505474Y-70865841D02*
X97484196Y-70839160D01*
X97520281Y-70896588D02*
X97505474Y-70865841D01*
X97527875Y-70929859D02*
X97520281Y-70896588D01*
X97527875Y-70963986D02*
X97527875Y-70929859D01*
X97520281Y-70997257D02*
X97527875Y-70963986D01*
X97505474Y-71028004D02*
X97520281Y-70997257D01*
X97484196Y-71054686D02*
X97505474Y-71028004D01*
X97080117Y-71458766D02*
X97484196Y-71054686D01*
X97058839Y-71485448D02*
X97080117Y-71458766D01*
X97044032Y-71516195D02*
X97058839Y-71485448D01*
X97036438Y-71549466D02*
X97044032Y-71516195D01*
X97036438Y-71583593D02*
X97036438Y-71549466D01*
X97044032Y-71616864D02*
X97036438Y-71583593D01*
X97058839Y-71647611D02*
X97044032Y-71616864D01*
X97080117Y-71674293D02*
X97058839Y-71647611D01*
X98368811Y-71845787D02*
X98376405Y-71812516D01*
X98332726Y-71903216D02*
X98354004Y-71876534D01*
X98793076Y-72169383D02*
X98778269Y-72138636D01*
X97851032Y-71227340D02*
X97817761Y-71219746D01*
X97892562Y-72364725D02*
X97907369Y-72333978D01*
X97884968Y-72432123D02*
X97884968Y-72397996D01*
X97907369Y-72333978D02*
X97928647Y-72307296D01*
X97130756Y-71703589D02*
X97100009Y-71688782D01*
X97907369Y-72496141D02*
X97892562Y-72465394D01*
X97928647Y-72522823D02*
X97907369Y-72496141D01*
X97948539Y-72537312D02*
X97921858Y-72516034D01*
X98354004Y-71876534D02*
X98368811Y-71845787D01*
X98309233Y-72856388D02*
X98309233Y-72822261D01*
X98110702Y-72537312D02*
X98079955Y-72552119D01*
X99357034Y-73951210D02*
X98352912Y-72947088D01*
X97952140Y-71388251D02*
X97952140Y-71354124D01*
X98568146Y-72090677D02*
X98541464Y-72111955D01*
X98541464Y-72111955D02*
X98137384Y-72516034D01*
X98309233Y-72822261D02*
X98316827Y-72788990D01*
X97929739Y-71452269D02*
X97944546Y-71421522D01*
X98632164Y-72068276D02*
X98598893Y-72075870D01*
X97979286Y-72552119D02*
X97948539Y-72537312D01*
X98316827Y-72889659D02*
X98309233Y-72856388D01*
X97892562Y-72465394D02*
X97884968Y-72432123D01*
X98079955Y-72552119D02*
X98046684Y-72559713D01*
X97908461Y-71478951D02*
X97929739Y-71452269D01*
X98376405Y-71812516D02*
X98376405Y-71778389D01*
X98316827Y-72788990D02*
X98331634Y-72758243D01*
X98778269Y-72138636D02*
X98756991Y-72111955D01*
X100076210Y-73951210D02*
X99357034Y-73951210D01*
X98800670Y-72236781D02*
X98800670Y-72202654D01*
X97928647Y-72307296D02*
X98332726Y-71903216D01*
X97817761Y-71219746D02*
X97783634Y-71219746D01*
X98699562Y-72075870D02*
X98666291Y-72068276D01*
X98352912Y-72947088D02*
X98331634Y-72920406D01*
X98012557Y-72559713D02*
X97979286Y-72552119D01*
X98730309Y-72090677D02*
X98699562Y-72075870D01*
X97884968Y-72397996D02*
X97892562Y-72364725D01*
X97921858Y-72516034D02*
X97928647Y-72522823D01*
X98331634Y-72920406D02*
X98316827Y-72889659D01*
X100700000Y-75087500D02*
X100700000Y-74575000D01*
X98306044Y-71666412D02*
X98275297Y-71651605D01*
X97944546Y-71421522D02*
X97952140Y-71388251D01*
X98207899Y-71644011D02*
X98174628Y-71651605D01*
X98598893Y-72075870D02*
X98568146Y-72090677D01*
X97944546Y-71320853D02*
X97929739Y-71290106D01*
X98117199Y-71687690D02*
X97713119Y-72091769D01*
X100700000Y-74575000D02*
X100076210Y-73951210D01*
X98137384Y-72516034D02*
X98110702Y-72537312D01*
X97288854Y-71667504D02*
X97262172Y-71688782D01*
X98046684Y-72559713D02*
X98012557Y-72559713D01*
X98756991Y-72327481D02*
X98778269Y-72300799D01*
X97908461Y-71263425D02*
X97881779Y-71242147D01*
X98666291Y-72068276D02*
X98632164Y-72068276D01*
X98778269Y-72300799D02*
X98793076Y-72270052D01*
X97588292Y-72135448D02*
X97555021Y-72127854D01*
X98756991Y-72111955D02*
X98730309Y-72090677D01*
X98376405Y-71778389D02*
X98368811Y-71745118D01*
X98368811Y-71745118D02*
X98354004Y-71714371D01*
X97483104Y-71909713D02*
X97504382Y-71883031D01*
X98354004Y-71714371D02*
X98332726Y-71687690D01*
X97750363Y-71227340D02*
X97719616Y-71242147D01*
X98332726Y-71687690D02*
X98306044Y-71666412D01*
X98275297Y-71651605D02*
X98242026Y-71644011D01*
X97692934Y-71263425D02*
X97288854Y-71667504D01*
X98242026Y-71644011D02*
X98207899Y-71644011D01*
X98331634Y-72758243D02*
X98352912Y-72731561D01*
X98174628Y-71651605D02*
X98143881Y-71666412D01*
X98143881Y-71666412D02*
X98117199Y-71687690D01*
X97713119Y-72091769D02*
X97686437Y-72113047D01*
X97686437Y-72113047D02*
X97655690Y-72127854D01*
X97655690Y-72127854D02*
X97622419Y-72135448D01*
X97622419Y-72135448D02*
X97588292Y-72135448D01*
X97929739Y-71290106D02*
X97908461Y-71263425D01*
X97555021Y-72127854D02*
X97524274Y-72113047D01*
X97524274Y-72113047D02*
X97497593Y-72091769D01*
X98800670Y-72202654D02*
X98793076Y-72169383D01*
X97497593Y-72091769D02*
X97504382Y-72098558D01*
X97468297Y-71940460D02*
X97483104Y-71909713D01*
X97504382Y-72098558D02*
X97483104Y-72071876D01*
X97483104Y-72071876D02*
X97468297Y-72041129D01*
X98352912Y-72731561D02*
X98756991Y-72327481D01*
X97468297Y-72041129D02*
X97460703Y-72007858D01*
X98793076Y-72270052D02*
X98800670Y-72236781D01*
X97460703Y-72007858D02*
X97460703Y-71973731D01*
X97460703Y-71973731D02*
X97468297Y-71940460D01*
X97504382Y-71883031D02*
X97908461Y-71478951D01*
X97952140Y-71354124D02*
X97944546Y-71320853D01*
X97881779Y-71242147D02*
X97851032Y-71227340D01*
X97783634Y-71219746D02*
X97750363Y-71227340D01*
X97719616Y-71242147D02*
X97692934Y-71263425D01*
X97262172Y-71688782D02*
X97231425Y-71703589D01*
X97231425Y-71703589D02*
X97198154Y-71711183D01*
X97198154Y-71711183D02*
X97164027Y-71711183D01*
X97164027Y-71711183D02*
X97130756Y-71703589D01*
X97100009Y-71688782D02*
X97073328Y-71667504D01*
X97073328Y-71667504D02*
X97080117Y-71674293D01*
X86998384Y-70100000D02*
X85412500Y-70100000D01*
X88602411Y-75075247D02*
X88602410Y-71704026D01*
X90209210Y-76676641D02*
X90182528Y-76655364D01*
X90239957Y-76691448D02*
X90209210Y-76676641D01*
X90340626Y-76691448D02*
X90307355Y-76699042D01*
X90273228Y-76699042D02*
X90239957Y-76691448D01*
X90371373Y-76676641D02*
X90340626Y-76691448D01*
X90398054Y-76655364D02*
X90371373Y-76676641D01*
X90638918Y-76414501D02*
X90398054Y-76655364D01*
X90665600Y-76393223D02*
X90638918Y-76414501D01*
X88602410Y-71704026D02*
X86998384Y-70100000D01*
X90696347Y-76378416D02*
X90665600Y-76393223D01*
X90729618Y-76370822D02*
X90696347Y-76378416D01*
X90763745Y-76370822D02*
X90729618Y-76370822D01*
X90577497Y-76928320D02*
X90592304Y-76897573D01*
X90569903Y-76961591D02*
X90577497Y-76928320D01*
X95327164Y-81800000D02*
X90613582Y-77086418D01*
X90569903Y-76995718D02*
X90569903Y-76961591D01*
X97672836Y-81800000D02*
X95327164Y-81800000D01*
X90592304Y-77059736D02*
X90577497Y-77028989D01*
X90613582Y-77086418D02*
X90592304Y-77059736D01*
X90182528Y-76655364D02*
X88602411Y-75075247D01*
X98201216Y-81271620D02*
X97672836Y-81800000D01*
X90577497Y-77028989D02*
X90569903Y-76995718D01*
X100050000Y-78812500D02*
X98201216Y-80661284D01*
X98201216Y-80661284D02*
X98201216Y-81271620D01*
X90592304Y-76897573D02*
X90613582Y-76870891D01*
X90307355Y-76699042D02*
X90273228Y-76699042D01*
X90613582Y-76870891D02*
X90854445Y-76630027D01*
X90854445Y-76414501D02*
X90827763Y-76393223D01*
X90854445Y-76630027D02*
X90875722Y-76603346D01*
X90890529Y-76471930D02*
X90875722Y-76441183D01*
X90875722Y-76603346D02*
X90890529Y-76572599D01*
X90890529Y-76572599D02*
X90898123Y-76539328D01*
X90898123Y-76539328D02*
X90898123Y-76505201D01*
X90898123Y-76505201D02*
X90890529Y-76471930D01*
X90827763Y-76393223D02*
X90797016Y-76378416D01*
X90875722Y-76441183D02*
X90854445Y-76414501D01*
X90797016Y-76378416D02*
X90763745Y-76370822D01*
X88250000Y-75221220D02*
X95328780Y-82300000D01*
X95328780Y-82300000D02*
X97671220Y-82300000D01*
X100275000Y-79750000D02*
X100700000Y-79325000D01*
X88250000Y-71850000D02*
X88250000Y-75221220D01*
X85412500Y-70600000D02*
X87000000Y-70600000D01*
X87000000Y-70600000D02*
X88250000Y-71850000D01*
X98553646Y-80852178D02*
X99655824Y-79750000D01*
X97671220Y-82300000D02*
X98553620Y-81417600D01*
X98553620Y-81417600D02*
X98553646Y-80852178D01*
X99655824Y-79750000D02*
X100275000Y-79750000D01*
X100700000Y-79325000D02*
X100700000Y-78812500D01*
D26*
X91775000Y-57075000D02*
X92350000Y-56500000D01*
X88650000Y-57075000D02*
X91775000Y-57075000D01*
D31*
G36*
X78787657Y-90250500D02*
G01*
X78796695Y-90342259D01*
X78823460Y-90430492D01*
X78866924Y-90511809D01*
X78925417Y-90583083D01*
X78996691Y-90641576D01*
X79078008Y-90685040D01*
X79166241Y-90711805D01*
X79258000Y-90720843D01*
X79574400Y-90720843D01*
X79583000Y-90721690D01*
X79591600Y-90720843D01*
X79908000Y-90720843D01*
X79999759Y-90711805D01*
X80015714Y-90706965D01*
X80012657Y-90738000D01*
X80014500Y-90928250D01*
X80109750Y-91023500D01*
X80522500Y-91023500D01*
X80522500Y-90915601D01*
X80543984Y-90914358D01*
X80618500Y-90895003D01*
X80618500Y-91023500D01*
X81172500Y-91023500D01*
X81172500Y-91003500D01*
X81268500Y-91003500D01*
X81268500Y-91023500D01*
X81822500Y-91023500D01*
X81822500Y-91003500D01*
X81918500Y-91003500D01*
X81918500Y-91023500D01*
X81962657Y-91023500D01*
X81962657Y-91277500D01*
X81918500Y-91277500D01*
X81918500Y-91297500D01*
X81822500Y-91297500D01*
X81822500Y-91277500D01*
X81268500Y-91277500D01*
X81268500Y-91297500D01*
X81172500Y-91297500D01*
X81172500Y-91277500D01*
X80618500Y-91277500D01*
X80618500Y-91848750D01*
X80713750Y-91944000D01*
X80745500Y-91945843D01*
X80820189Y-91938487D01*
X80892008Y-91916701D01*
X80895500Y-91914834D01*
X80898992Y-91916701D01*
X80953886Y-91933353D01*
X80907182Y-91971682D01*
X80829257Y-92066634D01*
X80771354Y-92174963D01*
X80735697Y-92292508D01*
X80723657Y-92414750D01*
X80723657Y-93327250D01*
X80735697Y-93449492D01*
X80771354Y-93567037D01*
X80829257Y-93675366D01*
X80907182Y-93770318D01*
X81002134Y-93848243D01*
X81110463Y-93906146D01*
X81228008Y-93941803D01*
X81350250Y-93953843D01*
X81837750Y-93953843D01*
X81871031Y-93950565D01*
X81952802Y-93975370D01*
X82045502Y-93984500D01*
X82045511Y-93984500D01*
X82076499Y-93987552D01*
X82107487Y-93984500D01*
X82504076Y-93984500D01*
X82514860Y-93997640D01*
X82606023Y-94072456D01*
X82710030Y-94128049D01*
X82752723Y-94141000D01*
X82710030Y-94153951D01*
X82606023Y-94209544D01*
X82514860Y-94284360D01*
X82440044Y-94375523D01*
X82384451Y-94479530D01*
X82350216Y-94592385D01*
X82339637Y-94699800D01*
X82227428Y-94699800D01*
X82218549Y-94670530D01*
X82162956Y-94566523D01*
X82088140Y-94475360D01*
X81996977Y-94400544D01*
X81892970Y-94344951D01*
X81780115Y-94310716D01*
X81662750Y-94299157D01*
X81225250Y-94299157D01*
X81107885Y-94310716D01*
X80995030Y-94344951D01*
X80891023Y-94400544D01*
X80799860Y-94475360D01*
X80725044Y-94566523D01*
X80685294Y-94640890D01*
X80681987Y-94607311D01*
X80660201Y-94535492D01*
X80624822Y-94469304D01*
X80577211Y-94411289D01*
X80519196Y-94363678D01*
X80453008Y-94328299D01*
X80381189Y-94306513D01*
X80306500Y-94299157D01*
X80091250Y-94301000D01*
X79996000Y-94396250D01*
X79996000Y-95030000D01*
X80016000Y-95030000D01*
X80016000Y-95284000D01*
X79996000Y-95284000D01*
X79996000Y-95304000D01*
X79742000Y-95304000D01*
X79742000Y-95284000D01*
X79145750Y-95284000D01*
X79050500Y-95379250D01*
X79048657Y-95632000D01*
X79056013Y-95706689D01*
X79077799Y-95778508D01*
X79113178Y-95844696D01*
X79160789Y-95902711D01*
X79180637Y-95919000D01*
X79005500Y-95919000D01*
X79005500Y-94682000D01*
X79048657Y-94682000D01*
X79050500Y-94934750D01*
X79145750Y-95030000D01*
X79742000Y-95030000D01*
X79742000Y-94396250D01*
X79646750Y-94301000D01*
X79431500Y-94299157D01*
X79356811Y-94306513D01*
X79284992Y-94328299D01*
X79218804Y-94363678D01*
X79160789Y-94411289D01*
X79113178Y-94469304D01*
X79077799Y-94535492D01*
X79056013Y-94607311D01*
X79048657Y-94682000D01*
X79005500Y-94682000D01*
X79005500Y-93878404D01*
X79018804Y-93889322D01*
X79084992Y-93924701D01*
X79156811Y-93946487D01*
X79231500Y-93953843D01*
X79496750Y-93952000D01*
X79592000Y-93856750D01*
X79592000Y-92998000D01*
X79846000Y-92998000D01*
X79846000Y-93856750D01*
X79941250Y-93952000D01*
X80206500Y-93953843D01*
X80281189Y-93946487D01*
X80353008Y-93924701D01*
X80419196Y-93889322D01*
X80477211Y-93841711D01*
X80524822Y-93783696D01*
X80560201Y-93717508D01*
X80581987Y-93645689D01*
X80589343Y-93571000D01*
X80587500Y-93093250D01*
X80492250Y-92998000D01*
X79846000Y-92998000D01*
X79592000Y-92998000D01*
X79572000Y-92998000D01*
X79572000Y-92744000D01*
X79592000Y-92744000D01*
X79592000Y-91885250D01*
X79846000Y-91885250D01*
X79846000Y-92744000D01*
X80492250Y-92744000D01*
X80587500Y-92648750D01*
X80589343Y-92171000D01*
X80581987Y-92096311D01*
X80560201Y-92024492D01*
X80524822Y-91958304D01*
X80477211Y-91900289D01*
X80473778Y-91897472D01*
X80522500Y-91848750D01*
X80522500Y-91277500D01*
X80109750Y-91277500D01*
X80014500Y-91372750D01*
X80012657Y-91563000D01*
X80020013Y-91637689D01*
X80041799Y-91709508D01*
X80077178Y-91775696D01*
X80088080Y-91788980D01*
X79941250Y-91790000D01*
X79846000Y-91885250D01*
X79592000Y-91885250D01*
X79496750Y-91790000D01*
X79231500Y-91788157D01*
X79156811Y-91795513D01*
X79084992Y-91817299D01*
X79018804Y-91852678D01*
X79005500Y-91863596D01*
X79005500Y-91474000D01*
X79003060Y-91449224D01*
X78995833Y-91425399D01*
X78984097Y-91403443D01*
X78968303Y-91384197D01*
X78949057Y-91368403D01*
X78927101Y-91356667D01*
X78903276Y-91349440D01*
X78878955Y-91347001D01*
X76719500Y-91339263D01*
X76719500Y-90144000D01*
X78787657Y-90144000D01*
X78787657Y-90250500D01*
G37*
X78787657Y-90250500D02*
X78796695Y-90342259D01*
X78823460Y-90430492D01*
X78866924Y-90511809D01*
X78925417Y-90583083D01*
X78996691Y-90641576D01*
X79078008Y-90685040D01*
X79166241Y-90711805D01*
X79258000Y-90720843D01*
X79574400Y-90720843D01*
X79583000Y-90721690D01*
X79591600Y-90720843D01*
X79908000Y-90720843D01*
X79999759Y-90711805D01*
X80015714Y-90706965D01*
X80012657Y-90738000D01*
X80014500Y-90928250D01*
X80109750Y-91023500D01*
X80522500Y-91023500D01*
X80522500Y-90915601D01*
X80543984Y-90914358D01*
X80618500Y-90895003D01*
X80618500Y-91023500D01*
X81172500Y-91023500D01*
X81172500Y-91003500D01*
X81268500Y-91003500D01*
X81268500Y-91023500D01*
X81822500Y-91023500D01*
X81822500Y-91003500D01*
X81918500Y-91003500D01*
X81918500Y-91023500D01*
X81962657Y-91023500D01*
X81962657Y-91277500D01*
X81918500Y-91277500D01*
X81918500Y-91297500D01*
X81822500Y-91297500D01*
X81822500Y-91277500D01*
X81268500Y-91277500D01*
X81268500Y-91297500D01*
X81172500Y-91297500D01*
X81172500Y-91277500D01*
X80618500Y-91277500D01*
X80618500Y-91848750D01*
X80713750Y-91944000D01*
X80745500Y-91945843D01*
X80820189Y-91938487D01*
X80892008Y-91916701D01*
X80895500Y-91914834D01*
X80898992Y-91916701D01*
X80953886Y-91933353D01*
X80907182Y-91971682D01*
X80829257Y-92066634D01*
X80771354Y-92174963D01*
X80735697Y-92292508D01*
X80723657Y-92414750D01*
X80723657Y-93327250D01*
X80735697Y-93449492D01*
X80771354Y-93567037D01*
X80829257Y-93675366D01*
X80907182Y-93770318D01*
X81002134Y-93848243D01*
X81110463Y-93906146D01*
X81228008Y-93941803D01*
X81350250Y-93953843D01*
X81837750Y-93953843D01*
X81871031Y-93950565D01*
X81952802Y-93975370D01*
X82045502Y-93984500D01*
X82045511Y-93984500D01*
X82076499Y-93987552D01*
X82107487Y-93984500D01*
X82504076Y-93984500D01*
X82514860Y-93997640D01*
X82606023Y-94072456D01*
X82710030Y-94128049D01*
X82752723Y-94141000D01*
X82710030Y-94153951D01*
X82606023Y-94209544D01*
X82514860Y-94284360D01*
X82440044Y-94375523D01*
X82384451Y-94479530D01*
X82350216Y-94592385D01*
X82339637Y-94699800D01*
X82227428Y-94699800D01*
X82218549Y-94670530D01*
X82162956Y-94566523D01*
X82088140Y-94475360D01*
X81996977Y-94400544D01*
X81892970Y-94344951D01*
X81780115Y-94310716D01*
X81662750Y-94299157D01*
X81225250Y-94299157D01*
X81107885Y-94310716D01*
X80995030Y-94344951D01*
X80891023Y-94400544D01*
X80799860Y-94475360D01*
X80725044Y-94566523D01*
X80685294Y-94640890D01*
X80681987Y-94607311D01*
X80660201Y-94535492D01*
X80624822Y-94469304D01*
X80577211Y-94411289D01*
X80519196Y-94363678D01*
X80453008Y-94328299D01*
X80381189Y-94306513D01*
X80306500Y-94299157D01*
X80091250Y-94301000D01*
X79996000Y-94396250D01*
X79996000Y-95030000D01*
X80016000Y-95030000D01*
X80016000Y-95284000D01*
X79996000Y-95284000D01*
X79996000Y-95304000D01*
X79742000Y-95304000D01*
X79742000Y-95284000D01*
X79145750Y-95284000D01*
X79050500Y-95379250D01*
X79048657Y-95632000D01*
X79056013Y-95706689D01*
X79077799Y-95778508D01*
X79113178Y-95844696D01*
X79160789Y-95902711D01*
X79180637Y-95919000D01*
X79005500Y-95919000D01*
X79005500Y-94682000D01*
X79048657Y-94682000D01*
X79050500Y-94934750D01*
X79145750Y-95030000D01*
X79742000Y-95030000D01*
X79742000Y-94396250D01*
X79646750Y-94301000D01*
X79431500Y-94299157D01*
X79356811Y-94306513D01*
X79284992Y-94328299D01*
X79218804Y-94363678D01*
X79160789Y-94411289D01*
X79113178Y-94469304D01*
X79077799Y-94535492D01*
X79056013Y-94607311D01*
X79048657Y-94682000D01*
X79005500Y-94682000D01*
X79005500Y-93878404D01*
X79018804Y-93889322D01*
X79084992Y-93924701D01*
X79156811Y-93946487D01*
X79231500Y-93953843D01*
X79496750Y-93952000D01*
X79592000Y-93856750D01*
X79592000Y-92998000D01*
X79846000Y-92998000D01*
X79846000Y-93856750D01*
X79941250Y-93952000D01*
X80206500Y-93953843D01*
X80281189Y-93946487D01*
X80353008Y-93924701D01*
X80419196Y-93889322D01*
X80477211Y-93841711D01*
X80524822Y-93783696D01*
X80560201Y-93717508D01*
X80581987Y-93645689D01*
X80589343Y-93571000D01*
X80587500Y-93093250D01*
X80492250Y-92998000D01*
X79846000Y-92998000D01*
X79592000Y-92998000D01*
X79572000Y-92998000D01*
X79572000Y-92744000D01*
X79592000Y-92744000D01*
X79592000Y-91885250D01*
X79846000Y-91885250D01*
X79846000Y-92744000D01*
X80492250Y-92744000D01*
X80587500Y-92648750D01*
X80589343Y-92171000D01*
X80581987Y-92096311D01*
X80560201Y-92024492D01*
X80524822Y-91958304D01*
X80477211Y-91900289D01*
X80473778Y-91897472D01*
X80522500Y-91848750D01*
X80522500Y-91277500D01*
X80109750Y-91277500D01*
X80014500Y-91372750D01*
X80012657Y-91563000D01*
X80020013Y-91637689D01*
X80041799Y-91709508D01*
X80077178Y-91775696D01*
X80088080Y-91788980D01*
X79941250Y-91790000D01*
X79846000Y-91885250D01*
X79592000Y-91885250D01*
X79496750Y-91790000D01*
X79231500Y-91788157D01*
X79156811Y-91795513D01*
X79084992Y-91817299D01*
X79018804Y-91852678D01*
X79005500Y-91863596D01*
X79005500Y-91474000D01*
X79003060Y-91449224D01*
X78995833Y-91425399D01*
X78984097Y-91403443D01*
X78968303Y-91384197D01*
X78949057Y-91368403D01*
X78927101Y-91356667D01*
X78903276Y-91349440D01*
X78878955Y-91347001D01*
X76719500Y-91339263D01*
X76719500Y-90144000D01*
X78787657Y-90144000D01*
X78787657Y-90250500D01*
G36*
X80903405Y-89471957D02*
G01*
X81021013Y-89454098D01*
X81061868Y-89336709D01*
X81079037Y-89213604D01*
X81077556Y-89188000D01*
X82013444Y-89188000D01*
X82019142Y-89286484D01*
X82050390Y-89406789D01*
X82069987Y-89454098D01*
X82187595Y-89471957D01*
X82471552Y-89188000D01*
X82779198Y-89188000D01*
X82748460Y-89245508D01*
X82727811Y-89313579D01*
X82662471Y-89378919D01*
X82645500Y-89361948D01*
X82361543Y-89645905D01*
X82375528Y-89738000D01*
X82361543Y-89830095D01*
X82645500Y-90114052D01*
X82662471Y-90097081D01*
X82712657Y-90147267D01*
X82712657Y-90250500D01*
X82721695Y-90342259D01*
X82731247Y-90373747D01*
X82699759Y-90364195D01*
X82608000Y-90355157D01*
X82504767Y-90355157D01*
X82454581Y-90304971D01*
X82471552Y-90288000D01*
X82187595Y-90004043D01*
X82095500Y-90018028D01*
X82003405Y-90004043D01*
X81719448Y-90288000D01*
X81736419Y-90304971D01*
X81685221Y-90356169D01*
X81620811Y-90362513D01*
X81548992Y-90384299D01*
X81545500Y-90386166D01*
X81542008Y-90384299D01*
X81470189Y-90362513D01*
X81405779Y-90356169D01*
X81354581Y-90304971D01*
X81371552Y-90288000D01*
X81087595Y-90004043D01*
X80995500Y-90018028D01*
X80903405Y-90004043D01*
X80619448Y-90288000D01*
X80636419Y-90304971D01*
X80505820Y-90435570D01*
X80427250Y-90357000D01*
X80395500Y-90355157D01*
X80364465Y-90358214D01*
X80369305Y-90342259D01*
X80378343Y-90250500D01*
X80378343Y-90147267D01*
X80428529Y-90097081D01*
X80445500Y-90114052D01*
X80729457Y-89830095D01*
X81261543Y-89830095D01*
X81545500Y-90114052D01*
X81829457Y-89830095D01*
X81811598Y-89712487D01*
X81694209Y-89671632D01*
X81571104Y-89654463D01*
X81447016Y-89661642D01*
X81326711Y-89692890D01*
X81279402Y-89712487D01*
X81261543Y-89830095D01*
X80729457Y-89830095D01*
X80715472Y-89738000D01*
X80729457Y-89645905D01*
X80445500Y-89361948D01*
X80428529Y-89378919D01*
X80363189Y-89313579D01*
X80342540Y-89245508D01*
X80311802Y-89188000D01*
X80619448Y-89188000D01*
X80903405Y-89471957D01*
G37*
X80903405Y-89471957D02*
X81021013Y-89454098D01*
X81061868Y-89336709D01*
X81079037Y-89213604D01*
X81077556Y-89188000D01*
X82013444Y-89188000D01*
X82019142Y-89286484D01*
X82050390Y-89406789D01*
X82069987Y-89454098D01*
X82187595Y-89471957D01*
X82471552Y-89188000D01*
X82779198Y-89188000D01*
X82748460Y-89245508D01*
X82727811Y-89313579D01*
X82662471Y-89378919D01*
X82645500Y-89361948D01*
X82361543Y-89645905D01*
X82375528Y-89738000D01*
X82361543Y-89830095D01*
X82645500Y-90114052D01*
X82662471Y-90097081D01*
X82712657Y-90147267D01*
X82712657Y-90250500D01*
X82721695Y-90342259D01*
X82731247Y-90373747D01*
X82699759Y-90364195D01*
X82608000Y-90355157D01*
X82504767Y-90355157D01*
X82454581Y-90304971D01*
X82471552Y-90288000D01*
X82187595Y-90004043D01*
X82095500Y-90018028D01*
X82003405Y-90004043D01*
X81719448Y-90288000D01*
X81736419Y-90304971D01*
X81685221Y-90356169D01*
X81620811Y-90362513D01*
X81548992Y-90384299D01*
X81545500Y-90386166D01*
X81542008Y-90384299D01*
X81470189Y-90362513D01*
X81405779Y-90356169D01*
X81354581Y-90304971D01*
X81371552Y-90288000D01*
X81087595Y-90004043D01*
X80995500Y-90018028D01*
X80903405Y-90004043D01*
X80619448Y-90288000D01*
X80636419Y-90304971D01*
X80505820Y-90435570D01*
X80427250Y-90357000D01*
X80395500Y-90355157D01*
X80364465Y-90358214D01*
X80369305Y-90342259D01*
X80378343Y-90250500D01*
X80378343Y-90147267D01*
X80428529Y-90097081D01*
X80445500Y-90114052D01*
X80729457Y-89830095D01*
X81261543Y-89830095D01*
X81545500Y-90114052D01*
X81829457Y-89830095D01*
X81811598Y-89712487D01*
X81694209Y-89671632D01*
X81571104Y-89654463D01*
X81447016Y-89661642D01*
X81326711Y-89692890D01*
X81279402Y-89712487D01*
X81261543Y-89830095D01*
X80729457Y-89830095D01*
X80715472Y-89738000D01*
X80729457Y-89645905D01*
X80445500Y-89361948D01*
X80428529Y-89378919D01*
X80363189Y-89313579D01*
X80342540Y-89245508D01*
X80311802Y-89188000D01*
X80619448Y-89188000D01*
X80903405Y-89471957D01*
M02*
