G04 #@! TF.GenerationSoftware,KiCad,Pcbnew,(5.1.5)-3*
G04 #@! TF.CreationDate,2020-05-15T14:33:57+03:00*
G04 #@! TF.ProjectId,AstroPiMicro,41737472-6f50-4694-9d69-63726f2e6b69,1.0.8*
G04 #@! TF.SameCoordinates,Original*
G04 #@! TF.FileFunction,Soldermask,Bot*
G04 #@! TF.FilePolarity,Negative*
%FSLAX46Y46*%
G04 Gerber Fmt 4.6, Leading zero omitted, Abs format (unit mm)*
G04 Created by KiCad (PCBNEW (5.1.5)-3) date 2020-05-15 14:33:57*
%MOMM*%
%LPD*%
G04 APERTURE LIST*
%ADD10C,0.100000*%
G04 APERTURE END LIST*
D10*
G36*
X77927085Y-94658975D02*
G01*
X78282143Y-94806045D01*
X78282145Y-94806046D01*
X78601690Y-95019559D01*
X78873441Y-95291310D01*
X79086954Y-95610855D01*
X79086955Y-95610857D01*
X79234025Y-95965915D01*
X79309000Y-96342842D01*
X79309000Y-96727158D01*
X79234025Y-97104085D01*
X79086955Y-97459143D01*
X79086954Y-97459145D01*
X78873441Y-97778690D01*
X78601690Y-98050441D01*
X78282145Y-98263954D01*
X78282144Y-98263955D01*
X78282143Y-98263955D01*
X77927085Y-98411025D01*
X77550158Y-98486000D01*
X77165842Y-98486000D01*
X76788915Y-98411025D01*
X76433857Y-98263955D01*
X76433856Y-98263955D01*
X76433855Y-98263954D01*
X76114310Y-98050441D01*
X75842559Y-97778690D01*
X75629046Y-97459145D01*
X75629045Y-97459143D01*
X75481975Y-97104085D01*
X75407000Y-96727158D01*
X75407000Y-96342842D01*
X75481975Y-95965915D01*
X75629045Y-95610857D01*
X75629046Y-95610855D01*
X75842559Y-95291310D01*
X76114310Y-95019559D01*
X76433855Y-94806046D01*
X76433857Y-94806045D01*
X76788915Y-94658975D01*
X77165842Y-94584000D01*
X77550158Y-94584000D01*
X77927085Y-94658975D01*
G37*
G36*
X60117085Y-94658975D02*
G01*
X60472143Y-94806045D01*
X60472145Y-94806046D01*
X60791690Y-95019559D01*
X61063441Y-95291310D01*
X61276954Y-95610855D01*
X61276955Y-95610857D01*
X61424025Y-95965915D01*
X61499000Y-96342842D01*
X61499000Y-96727158D01*
X61424025Y-97104085D01*
X61276955Y-97459143D01*
X61276954Y-97459145D01*
X61063441Y-97778690D01*
X60791690Y-98050441D01*
X60472145Y-98263954D01*
X60472144Y-98263955D01*
X60472143Y-98263955D01*
X60117085Y-98411025D01*
X59740158Y-98486000D01*
X59355842Y-98486000D01*
X58978915Y-98411025D01*
X58623857Y-98263955D01*
X58623856Y-98263955D01*
X58623855Y-98263954D01*
X58304310Y-98050441D01*
X58032559Y-97778690D01*
X57819046Y-97459145D01*
X57819045Y-97459143D01*
X57671975Y-97104085D01*
X57597000Y-96727158D01*
X57597000Y-96342842D01*
X57671975Y-95965915D01*
X57819045Y-95610857D01*
X57819046Y-95610855D01*
X58032559Y-95291310D01*
X58304310Y-95019559D01*
X58623855Y-94806046D01*
X58623857Y-94806045D01*
X58978915Y-94658975D01*
X59355842Y-94584000D01*
X59740158Y-94584000D01*
X60117085Y-94658975D01*
G37*
G36*
X86636085Y-89492975D02*
G01*
X86991143Y-89640045D01*
X86991145Y-89640046D01*
X87310690Y-89853559D01*
X87582441Y-90125310D01*
X87795954Y-90444855D01*
X87795955Y-90444857D01*
X87943025Y-90799915D01*
X88018000Y-91176842D01*
X88018000Y-91561158D01*
X87943025Y-91938085D01*
X87813780Y-92250109D01*
X87795954Y-92293145D01*
X87582441Y-92612690D01*
X87310690Y-92884441D01*
X86991145Y-93097954D01*
X86991144Y-93097955D01*
X86991143Y-93097955D01*
X86636085Y-93245025D01*
X86259158Y-93320000D01*
X85874842Y-93320000D01*
X85497915Y-93245025D01*
X85142857Y-93097955D01*
X85142856Y-93097955D01*
X85142855Y-93097954D01*
X84823310Y-92884441D01*
X84551559Y-92612690D01*
X84338046Y-92293145D01*
X84320220Y-92250109D01*
X84190975Y-91938085D01*
X84116000Y-91561158D01*
X84116000Y-91176842D01*
X84190975Y-90799915D01*
X84338045Y-90444857D01*
X84338046Y-90444855D01*
X84551559Y-90125310D01*
X84823310Y-89853559D01*
X85142855Y-89640046D01*
X85142857Y-89640045D01*
X85497915Y-89492975D01*
X85874842Y-89418000D01*
X86259158Y-89418000D01*
X86636085Y-89492975D01*
G37*
G36*
X102636085Y-89492975D02*
G01*
X102991143Y-89640045D01*
X102991145Y-89640046D01*
X103310690Y-89853559D01*
X103582441Y-90125310D01*
X103795954Y-90444855D01*
X103795955Y-90444857D01*
X103943025Y-90799915D01*
X104018000Y-91176842D01*
X104018000Y-91561158D01*
X103943025Y-91938085D01*
X103813780Y-92250109D01*
X103795954Y-92293145D01*
X103582441Y-92612690D01*
X103310690Y-92884441D01*
X102991145Y-93097954D01*
X102991144Y-93097955D01*
X102991143Y-93097955D01*
X102636085Y-93245025D01*
X102259158Y-93320000D01*
X101874842Y-93320000D01*
X101497915Y-93245025D01*
X101142857Y-93097955D01*
X101142856Y-93097955D01*
X101142855Y-93097954D01*
X100823310Y-92884441D01*
X100551559Y-92612690D01*
X100338046Y-92293145D01*
X100320220Y-92250109D01*
X100190975Y-91938085D01*
X100116000Y-91561158D01*
X100116000Y-91176842D01*
X100190975Y-90799915D01*
X100338045Y-90444857D01*
X100338046Y-90444855D01*
X100551559Y-90125310D01*
X100823310Y-89853559D01*
X101142855Y-89640046D01*
X101142857Y-89640045D01*
X101497915Y-89492975D01*
X101874842Y-89418000D01*
X102259158Y-89418000D01*
X102636085Y-89492975D01*
G37*
G36*
X61631997Y-89230051D02*
G01*
X61665652Y-89240261D01*
X61696665Y-89256838D01*
X61723851Y-89279149D01*
X61746162Y-89306335D01*
X61762739Y-89337348D01*
X61772949Y-89371003D01*
X61777000Y-89412138D01*
X61777000Y-92141862D01*
X61772949Y-92182997D01*
X61762739Y-92216652D01*
X61746162Y-92247665D01*
X61723851Y-92274851D01*
X61696665Y-92297162D01*
X61665652Y-92313739D01*
X61631997Y-92323949D01*
X61590862Y-92328000D01*
X60261138Y-92328000D01*
X60220003Y-92323949D01*
X60186348Y-92313739D01*
X60155335Y-92297162D01*
X60128149Y-92274851D01*
X60105838Y-92247665D01*
X60089261Y-92216652D01*
X60079051Y-92182997D01*
X60075000Y-92141862D01*
X60075000Y-89412138D01*
X60079051Y-89371003D01*
X60089261Y-89337348D01*
X60105838Y-89306335D01*
X60128149Y-89279149D01*
X60155335Y-89256838D01*
X60186348Y-89240261D01*
X60220003Y-89230051D01*
X60261138Y-89226000D01*
X61590862Y-89226000D01*
X61631997Y-89230051D01*
G37*
G36*
X76431997Y-89230051D02*
G01*
X76465652Y-89240261D01*
X76496665Y-89256838D01*
X76523851Y-89279149D01*
X76546162Y-89306335D01*
X76562739Y-89337348D01*
X76572949Y-89371003D01*
X76577000Y-89412138D01*
X76577000Y-92141862D01*
X76572949Y-92182997D01*
X76562739Y-92216652D01*
X76546162Y-92247665D01*
X76523851Y-92274851D01*
X76496665Y-92297162D01*
X76465652Y-92313739D01*
X76431997Y-92323949D01*
X76390862Y-92328000D01*
X75061138Y-92328000D01*
X75020003Y-92323949D01*
X74986348Y-92313739D01*
X74955335Y-92297162D01*
X74928149Y-92274851D01*
X74905838Y-92247665D01*
X74889261Y-92216652D01*
X74879051Y-92182997D01*
X74875000Y-92141862D01*
X74875000Y-89412138D01*
X74879051Y-89371003D01*
X74889261Y-89337348D01*
X74905838Y-89306335D01*
X74928149Y-89279149D01*
X74955335Y-89256838D01*
X74986348Y-89240261D01*
X75020003Y-89230051D01*
X75061138Y-89226000D01*
X76390862Y-89226000D01*
X76431997Y-89230051D01*
G37*
G36*
X71705434Y-85730686D02*
G01*
X71745284Y-85742774D01*
X71781999Y-85762399D01*
X71814186Y-85788814D01*
X71840601Y-85821001D01*
X71860226Y-85857716D01*
X71872314Y-85897566D01*
X71877000Y-85945141D01*
X71877000Y-91108859D01*
X71872314Y-91156434D01*
X71860226Y-91196284D01*
X71840601Y-91232999D01*
X71814186Y-91265186D01*
X71781999Y-91291601D01*
X71745284Y-91311226D01*
X71705434Y-91323314D01*
X71657859Y-91328000D01*
X70994141Y-91328000D01*
X70946566Y-91323314D01*
X70906716Y-91311226D01*
X70870001Y-91291601D01*
X70837814Y-91265186D01*
X70811399Y-91232999D01*
X70791774Y-91196284D01*
X70779686Y-91156434D01*
X70775000Y-91108859D01*
X70775000Y-85945141D01*
X70779686Y-85897566D01*
X70791774Y-85857716D01*
X70811399Y-85821001D01*
X70837814Y-85788814D01*
X70870001Y-85762399D01*
X70906716Y-85742774D01*
X70946566Y-85730686D01*
X70994141Y-85726000D01*
X71657859Y-85726000D01*
X71705434Y-85730686D01*
G37*
G36*
X63705434Y-85730686D02*
G01*
X63745284Y-85742774D01*
X63781999Y-85762399D01*
X63814186Y-85788814D01*
X63840601Y-85821001D01*
X63860226Y-85857716D01*
X63872314Y-85897566D01*
X63877000Y-85945141D01*
X63877000Y-91108859D01*
X63872314Y-91156434D01*
X63860226Y-91196284D01*
X63840601Y-91232999D01*
X63814186Y-91265186D01*
X63781999Y-91291601D01*
X63745284Y-91311226D01*
X63705434Y-91323314D01*
X63657859Y-91328000D01*
X62994141Y-91328000D01*
X62946566Y-91323314D01*
X62906716Y-91311226D01*
X62870001Y-91291601D01*
X62837814Y-91265186D01*
X62811399Y-91232999D01*
X62791774Y-91196284D01*
X62779686Y-91156434D01*
X62775000Y-91108859D01*
X62775000Y-85945141D01*
X62779686Y-85897566D01*
X62791774Y-85857716D01*
X62811399Y-85821001D01*
X62837814Y-85788814D01*
X62870001Y-85762399D01*
X62906716Y-85742774D01*
X62946566Y-85730686D01*
X62994141Y-85726000D01*
X63657859Y-85726000D01*
X63705434Y-85730686D01*
G37*
G36*
X65705434Y-85730686D02*
G01*
X65745284Y-85742774D01*
X65781999Y-85762399D01*
X65814186Y-85788814D01*
X65840601Y-85821001D01*
X65860226Y-85857716D01*
X65872314Y-85897566D01*
X65877000Y-85945141D01*
X65877000Y-91108859D01*
X65872314Y-91156434D01*
X65860226Y-91196284D01*
X65840601Y-91232999D01*
X65814186Y-91265186D01*
X65781999Y-91291601D01*
X65745284Y-91311226D01*
X65705434Y-91323314D01*
X65657859Y-91328000D01*
X64994141Y-91328000D01*
X64946566Y-91323314D01*
X64906716Y-91311226D01*
X64870001Y-91291601D01*
X64837814Y-91265186D01*
X64811399Y-91232999D01*
X64791774Y-91196284D01*
X64779686Y-91156434D01*
X64775000Y-91108859D01*
X64775000Y-85945141D01*
X64779686Y-85897566D01*
X64791774Y-85857716D01*
X64811399Y-85821001D01*
X64837814Y-85788814D01*
X64870001Y-85762399D01*
X64906716Y-85742774D01*
X64946566Y-85730686D01*
X64994141Y-85726000D01*
X65657859Y-85726000D01*
X65705434Y-85730686D01*
G37*
G36*
X67705434Y-85730686D02*
G01*
X67745284Y-85742774D01*
X67781999Y-85762399D01*
X67814186Y-85788814D01*
X67840601Y-85821001D01*
X67860226Y-85857716D01*
X67872314Y-85897566D01*
X67877000Y-85945141D01*
X67877000Y-91108859D01*
X67872314Y-91156434D01*
X67860226Y-91196284D01*
X67840601Y-91232999D01*
X67814186Y-91265186D01*
X67781999Y-91291601D01*
X67745284Y-91311226D01*
X67705434Y-91323314D01*
X67657859Y-91328000D01*
X66994141Y-91328000D01*
X66946566Y-91323314D01*
X66906716Y-91311226D01*
X66870001Y-91291601D01*
X66837814Y-91265186D01*
X66811399Y-91232999D01*
X66791774Y-91196284D01*
X66779686Y-91156434D01*
X66775000Y-91108859D01*
X66775000Y-85945141D01*
X66779686Y-85897566D01*
X66791774Y-85857716D01*
X66811399Y-85821001D01*
X66837814Y-85788814D01*
X66870001Y-85762399D01*
X66906716Y-85742774D01*
X66946566Y-85730686D01*
X66994141Y-85726000D01*
X67657859Y-85726000D01*
X67705434Y-85730686D01*
G37*
G36*
X73705434Y-85730686D02*
G01*
X73745284Y-85742774D01*
X73781999Y-85762399D01*
X73814186Y-85788814D01*
X73840601Y-85821001D01*
X73860226Y-85857716D01*
X73872314Y-85897566D01*
X73877000Y-85945141D01*
X73877000Y-91108859D01*
X73872314Y-91156434D01*
X73860226Y-91196284D01*
X73840601Y-91232999D01*
X73814186Y-91265186D01*
X73781999Y-91291601D01*
X73745284Y-91311226D01*
X73705434Y-91323314D01*
X73657859Y-91328000D01*
X72994141Y-91328000D01*
X72946566Y-91323314D01*
X72906716Y-91311226D01*
X72870001Y-91291601D01*
X72837814Y-91265186D01*
X72811399Y-91232999D01*
X72791774Y-91196284D01*
X72779686Y-91156434D01*
X72775000Y-91108859D01*
X72775000Y-85945141D01*
X72779686Y-85897566D01*
X72791774Y-85857716D01*
X72811399Y-85821001D01*
X72837814Y-85788814D01*
X72870001Y-85762399D01*
X72906716Y-85742774D01*
X72946566Y-85730686D01*
X72994141Y-85726000D01*
X73657859Y-85726000D01*
X73705434Y-85730686D01*
G37*
G36*
X69705434Y-85730686D02*
G01*
X69745284Y-85742774D01*
X69781999Y-85762399D01*
X69814186Y-85788814D01*
X69840601Y-85821001D01*
X69860226Y-85857716D01*
X69872314Y-85897566D01*
X69877000Y-85945141D01*
X69877000Y-91108859D01*
X69872314Y-91156434D01*
X69860226Y-91196284D01*
X69840601Y-91232999D01*
X69814186Y-91265186D01*
X69781999Y-91291601D01*
X69745284Y-91311226D01*
X69705434Y-91323314D01*
X69657859Y-91328000D01*
X68994141Y-91328000D01*
X68946566Y-91323314D01*
X68906716Y-91311226D01*
X68870001Y-91291601D01*
X68837814Y-91265186D01*
X68811399Y-91232999D01*
X68791774Y-91196284D01*
X68779686Y-91156434D01*
X68775000Y-91108859D01*
X68775000Y-85945141D01*
X68779686Y-85897566D01*
X68791774Y-85857716D01*
X68811399Y-85821001D01*
X68837814Y-85788814D01*
X68870001Y-85762399D01*
X68906716Y-85742774D01*
X68946566Y-85730686D01*
X68994141Y-85726000D01*
X69657859Y-85726000D01*
X69705434Y-85730686D01*
G37*
G36*
X90372997Y-86690051D02*
G01*
X90406652Y-86700261D01*
X90437665Y-86716838D01*
X90464851Y-86739149D01*
X90487162Y-86766335D01*
X90503739Y-86797348D01*
X90513949Y-86831003D01*
X90518000Y-86872138D01*
X90518000Y-89601862D01*
X90513949Y-89642997D01*
X90503739Y-89676652D01*
X90487162Y-89707665D01*
X90464851Y-89734851D01*
X90437665Y-89757162D01*
X90406652Y-89773739D01*
X90372997Y-89783949D01*
X90331862Y-89788000D01*
X89002138Y-89788000D01*
X88961003Y-89783949D01*
X88927348Y-89773739D01*
X88896335Y-89757162D01*
X88869149Y-89734851D01*
X88846838Y-89707665D01*
X88830261Y-89676652D01*
X88820051Y-89642997D01*
X88816000Y-89601862D01*
X88816000Y-86872138D01*
X88820051Y-86831003D01*
X88830261Y-86797348D01*
X88846838Y-86766335D01*
X88869149Y-86739149D01*
X88896335Y-86716838D01*
X88927348Y-86700261D01*
X88961003Y-86690051D01*
X89002138Y-86686000D01*
X90331862Y-86686000D01*
X90372997Y-86690051D01*
G37*
G36*
X99172997Y-86690051D02*
G01*
X99206652Y-86700261D01*
X99237665Y-86716838D01*
X99264851Y-86739149D01*
X99287162Y-86766335D01*
X99303739Y-86797348D01*
X99313949Y-86831003D01*
X99318000Y-86872138D01*
X99318000Y-89601862D01*
X99313949Y-89642997D01*
X99303739Y-89676652D01*
X99287162Y-89707665D01*
X99264851Y-89734851D01*
X99237665Y-89757162D01*
X99206652Y-89773739D01*
X99172997Y-89783949D01*
X99131862Y-89788000D01*
X97802138Y-89788000D01*
X97761003Y-89783949D01*
X97727348Y-89773739D01*
X97696335Y-89757162D01*
X97669149Y-89734851D01*
X97646838Y-89707665D01*
X97630261Y-89676652D01*
X97620051Y-89642997D01*
X97616000Y-89601862D01*
X97616000Y-86872138D01*
X97620051Y-86831003D01*
X97630261Y-86797348D01*
X97646838Y-86766335D01*
X97669149Y-86739149D01*
X97696335Y-86716838D01*
X97727348Y-86700261D01*
X97761003Y-86690051D01*
X97802138Y-86686000D01*
X99131862Y-86686000D01*
X99172997Y-86690051D01*
G37*
G36*
X96446434Y-83190686D02*
G01*
X96486284Y-83202774D01*
X96522999Y-83222399D01*
X96555186Y-83248814D01*
X96581601Y-83281001D01*
X96601226Y-83317716D01*
X96613314Y-83357566D01*
X96618000Y-83405141D01*
X96618000Y-88568859D01*
X96613314Y-88616434D01*
X96601226Y-88656284D01*
X96581601Y-88692999D01*
X96555186Y-88725186D01*
X96522999Y-88751601D01*
X96486284Y-88771226D01*
X96446434Y-88783314D01*
X96398859Y-88788000D01*
X95735141Y-88788000D01*
X95687566Y-88783314D01*
X95647716Y-88771226D01*
X95611001Y-88751601D01*
X95578814Y-88725186D01*
X95552399Y-88692999D01*
X95532774Y-88656284D01*
X95520686Y-88616434D01*
X95516000Y-88568859D01*
X95516000Y-83405141D01*
X95520686Y-83357566D01*
X95532774Y-83317716D01*
X95552399Y-83281001D01*
X95578814Y-83248814D01*
X95611001Y-83222399D01*
X95647716Y-83202774D01*
X95687566Y-83190686D01*
X95735141Y-83186000D01*
X96398859Y-83186000D01*
X96446434Y-83190686D01*
G37*
G36*
X94446434Y-83190686D02*
G01*
X94486284Y-83202774D01*
X94522999Y-83222399D01*
X94555186Y-83248814D01*
X94581601Y-83281001D01*
X94601226Y-83317716D01*
X94613314Y-83357566D01*
X94618000Y-83405141D01*
X94618000Y-88568859D01*
X94613314Y-88616434D01*
X94601226Y-88656284D01*
X94581601Y-88692999D01*
X94555186Y-88725186D01*
X94522999Y-88751601D01*
X94486284Y-88771226D01*
X94446434Y-88783314D01*
X94398859Y-88788000D01*
X93735141Y-88788000D01*
X93687566Y-88783314D01*
X93647716Y-88771226D01*
X93611001Y-88751601D01*
X93578814Y-88725186D01*
X93552399Y-88692999D01*
X93532774Y-88656284D01*
X93520686Y-88616434D01*
X93516000Y-88568859D01*
X93516000Y-83405141D01*
X93520686Y-83357566D01*
X93532774Y-83317716D01*
X93552399Y-83281001D01*
X93578814Y-83248814D01*
X93611001Y-83222399D01*
X93647716Y-83202774D01*
X93687566Y-83190686D01*
X93735141Y-83186000D01*
X94398859Y-83186000D01*
X94446434Y-83190686D01*
G37*
G36*
X92446434Y-83190686D02*
G01*
X92486284Y-83202774D01*
X92522999Y-83222399D01*
X92555186Y-83248814D01*
X92581601Y-83281001D01*
X92601226Y-83317716D01*
X92613314Y-83357566D01*
X92618000Y-83405141D01*
X92618000Y-88568859D01*
X92613314Y-88616434D01*
X92601226Y-88656284D01*
X92581601Y-88692999D01*
X92555186Y-88725186D01*
X92522999Y-88751601D01*
X92486284Y-88771226D01*
X92446434Y-88783314D01*
X92398859Y-88788000D01*
X91735141Y-88788000D01*
X91687566Y-88783314D01*
X91647716Y-88771226D01*
X91611001Y-88751601D01*
X91578814Y-88725186D01*
X91552399Y-88692999D01*
X91532774Y-88656284D01*
X91520686Y-88616434D01*
X91516000Y-88568859D01*
X91516000Y-83405141D01*
X91520686Y-83357566D01*
X91532774Y-83317716D01*
X91552399Y-83281001D01*
X91578814Y-83248814D01*
X91611001Y-83222399D01*
X91647716Y-83202774D01*
X91687566Y-83190686D01*
X91735141Y-83186000D01*
X92398859Y-83186000D01*
X92446434Y-83190686D01*
G37*
G36*
X60117085Y-80658975D02*
G01*
X60472143Y-80806045D01*
X60472145Y-80806046D01*
X60791690Y-81019559D01*
X61063441Y-81291310D01*
X61276954Y-81610855D01*
X61276955Y-81610857D01*
X61424025Y-81965915D01*
X61499000Y-82342842D01*
X61499000Y-82727158D01*
X61424025Y-83104085D01*
X61299323Y-83405141D01*
X61276954Y-83459145D01*
X61063441Y-83778690D01*
X60791690Y-84050441D01*
X60472145Y-84263954D01*
X60472144Y-84263955D01*
X60472143Y-84263955D01*
X60117085Y-84411025D01*
X59740158Y-84486000D01*
X59355842Y-84486000D01*
X58978915Y-84411025D01*
X58623857Y-84263955D01*
X58623856Y-84263955D01*
X58623855Y-84263954D01*
X58304310Y-84050441D01*
X58032559Y-83778690D01*
X57819046Y-83459145D01*
X57796677Y-83405141D01*
X57671975Y-83104085D01*
X57597000Y-82727158D01*
X57597000Y-82342842D01*
X57671975Y-81965915D01*
X57819045Y-81610857D01*
X57819046Y-81610855D01*
X58032559Y-81291310D01*
X58304310Y-81019559D01*
X58623855Y-80806046D01*
X58623857Y-80806045D01*
X58978915Y-80658975D01*
X59355842Y-80584000D01*
X59740158Y-80584000D01*
X60117085Y-80658975D01*
G37*
G36*
X77927085Y-80658975D02*
G01*
X78282143Y-80806045D01*
X78282145Y-80806046D01*
X78601690Y-81019559D01*
X78873441Y-81291310D01*
X79086954Y-81610855D01*
X79086955Y-81610857D01*
X79234025Y-81965915D01*
X79309000Y-82342842D01*
X79309000Y-82727158D01*
X79234025Y-83104085D01*
X79109323Y-83405141D01*
X79086954Y-83459145D01*
X78873441Y-83778690D01*
X78601690Y-84050441D01*
X78282145Y-84263954D01*
X78282144Y-84263955D01*
X78282143Y-84263955D01*
X77927085Y-84411025D01*
X77550158Y-84486000D01*
X77165842Y-84486000D01*
X76788915Y-84411025D01*
X76433857Y-84263955D01*
X76433856Y-84263955D01*
X76433855Y-84263954D01*
X76114310Y-84050441D01*
X75842559Y-83778690D01*
X75629046Y-83459145D01*
X75606677Y-83405141D01*
X75481975Y-83104085D01*
X75407000Y-82727158D01*
X75407000Y-82342842D01*
X75481975Y-81965915D01*
X75629045Y-81610857D01*
X75629046Y-81610855D01*
X75842559Y-81291310D01*
X76114310Y-81019559D01*
X76433855Y-80806046D01*
X76433857Y-80806045D01*
X76788915Y-80658975D01*
X77165842Y-80584000D01*
X77550158Y-80584000D01*
X77927085Y-80658975D01*
G37*
G36*
X102636085Y-80492975D02*
G01*
X102991143Y-80640045D01*
X102991145Y-80640046D01*
X103310690Y-80853559D01*
X103582441Y-81125310D01*
X103693359Y-81291311D01*
X103795955Y-81444857D01*
X103943025Y-81799915D01*
X104018000Y-82176842D01*
X104018000Y-82561158D01*
X103943025Y-82938085D01*
X103806911Y-83266692D01*
X103795954Y-83293145D01*
X103582441Y-83612690D01*
X103310690Y-83884441D01*
X102991145Y-84097954D01*
X102991144Y-84097955D01*
X102991143Y-84097955D01*
X102636085Y-84245025D01*
X102259158Y-84320000D01*
X101874842Y-84320000D01*
X101497915Y-84245025D01*
X101142857Y-84097955D01*
X101142856Y-84097955D01*
X101142855Y-84097954D01*
X100823310Y-83884441D01*
X100551559Y-83612690D01*
X100338046Y-83293145D01*
X100327089Y-83266692D01*
X100190975Y-82938085D01*
X100116000Y-82561158D01*
X100116000Y-82176842D01*
X100190975Y-81799915D01*
X100338045Y-81444857D01*
X100440641Y-81291311D01*
X100551559Y-81125310D01*
X100823310Y-80853559D01*
X101142855Y-80640046D01*
X101142857Y-80640045D01*
X101497915Y-80492975D01*
X101874842Y-80418000D01*
X102259158Y-80418000D01*
X102636085Y-80492975D01*
G37*
G36*
X86636085Y-80492975D02*
G01*
X86991143Y-80640045D01*
X86991145Y-80640046D01*
X87310690Y-80853559D01*
X87582441Y-81125310D01*
X87693359Y-81291311D01*
X87795955Y-81444857D01*
X87943025Y-81799915D01*
X88018000Y-82176842D01*
X88018000Y-82561158D01*
X87943025Y-82938085D01*
X87806911Y-83266692D01*
X87795954Y-83293145D01*
X87582441Y-83612690D01*
X87310690Y-83884441D01*
X86991145Y-84097954D01*
X86991144Y-84097955D01*
X86991143Y-84097955D01*
X86636085Y-84245025D01*
X86259158Y-84320000D01*
X85874842Y-84320000D01*
X85497915Y-84245025D01*
X85142857Y-84097955D01*
X85142856Y-84097955D01*
X85142855Y-84097954D01*
X84823310Y-83884441D01*
X84551559Y-83612690D01*
X84338046Y-83293145D01*
X84327089Y-83266692D01*
X84190975Y-82938085D01*
X84116000Y-82561158D01*
X84116000Y-82176842D01*
X84190975Y-81799915D01*
X84338045Y-81444857D01*
X84440641Y-81291311D01*
X84551559Y-81125310D01*
X84823310Y-80853559D01*
X85142855Y-80640046D01*
X85142857Y-80640045D01*
X85497915Y-80492975D01*
X85874842Y-80418000D01*
X86259158Y-80418000D01*
X86636085Y-80492975D01*
G37*
G36*
X112158129Y-72550286D02*
G01*
X112504237Y-72619131D01*
X113068401Y-72852815D01*
X113576135Y-73192072D01*
X114007928Y-73623865D01*
X114347185Y-74131599D01*
X114580869Y-74695763D01*
X114624013Y-74912664D01*
X114700000Y-75294675D01*
X114700000Y-75905325D01*
X114652192Y-76145669D01*
X114580869Y-76504237D01*
X114347185Y-77068401D01*
X114007928Y-77576135D01*
X113576135Y-78007928D01*
X113068401Y-78347185D01*
X112504237Y-78580869D01*
X112204780Y-78640434D01*
X111905325Y-78700000D01*
X111294675Y-78700000D01*
X110995220Y-78640434D01*
X110695763Y-78580869D01*
X110131599Y-78347185D01*
X109623865Y-78007928D01*
X109192072Y-77576135D01*
X108852815Y-77068401D01*
X108619131Y-76504237D01*
X108547808Y-76145669D01*
X108500000Y-75905325D01*
X108500000Y-75294675D01*
X108575987Y-74912664D01*
X108619131Y-74695763D01*
X108852815Y-74131599D01*
X109192072Y-73623865D01*
X109623865Y-73192072D01*
X110131599Y-72852815D01*
X110695763Y-72619131D01*
X111041871Y-72550286D01*
X111294675Y-72500000D01*
X111905325Y-72500000D01*
X112158129Y-72550286D01*
G37*
G36*
X54204780Y-72459566D02*
G01*
X54504237Y-72519131D01*
X55068401Y-72752815D01*
X55576135Y-73092072D01*
X56007928Y-73523865D01*
X56347185Y-74031599D01*
X56580869Y-74595763D01*
X56621410Y-74799576D01*
X56700000Y-75194675D01*
X56700000Y-75805325D01*
X56646075Y-76076425D01*
X56580869Y-76404237D01*
X56347185Y-76968401D01*
X56007928Y-77476135D01*
X55576135Y-77907928D01*
X55068401Y-78247185D01*
X54504237Y-78480869D01*
X54204780Y-78540434D01*
X53905325Y-78600000D01*
X53294675Y-78600000D01*
X52995220Y-78540434D01*
X52695763Y-78480869D01*
X52131599Y-78247185D01*
X51623865Y-77907928D01*
X51192072Y-77476135D01*
X50852815Y-76968401D01*
X50619131Y-76404237D01*
X50553925Y-76076425D01*
X50500000Y-75805325D01*
X50500000Y-75194675D01*
X50578590Y-74799576D01*
X50619131Y-74595763D01*
X50852815Y-74031599D01*
X51192072Y-73523865D01*
X51623865Y-73092072D01*
X52131599Y-72752815D01*
X52695763Y-72519131D01*
X52995220Y-72459566D01*
X53294675Y-72400000D01*
X53905325Y-72400000D01*
X54204780Y-72459566D01*
G37*
G36*
X96798617Y-74578420D02*
G01*
X96871355Y-74600485D01*
X96921335Y-74615646D01*
X97034424Y-74676094D01*
X97133554Y-74757447D01*
X97214906Y-74856575D01*
X97275354Y-74969664D01*
X97285040Y-75001596D01*
X97312580Y-75092382D01*
X97322000Y-75188027D01*
X97322000Y-75801973D01*
X97312580Y-75897618D01*
X97285040Y-75988404D01*
X97275354Y-76020336D01*
X97214906Y-76133425D01*
X97133554Y-76232554D01*
X97034425Y-76313906D01*
X96921336Y-76374354D01*
X96889404Y-76384040D01*
X96798618Y-76411580D01*
X96671000Y-76424149D01*
X96543383Y-76411580D01*
X96452597Y-76384040D01*
X96420665Y-76374354D01*
X96307576Y-76313906D01*
X96208447Y-76232554D01*
X96127096Y-76133427D01*
X96127095Y-76133425D01*
X96066647Y-76020336D01*
X96066645Y-76020333D01*
X96054237Y-75979427D01*
X96029420Y-75897618D01*
X96020000Y-75801973D01*
X96020000Y-75188028D01*
X96029420Y-75092383D01*
X96066645Y-74969669D01*
X96066646Y-74969665D01*
X96127094Y-74856576D01*
X96208447Y-74757446D01*
X96307575Y-74676094D01*
X96420664Y-74615646D01*
X96470644Y-74600485D01*
X96543382Y-74578420D01*
X96671000Y-74565851D01*
X96798617Y-74578420D01*
G37*
G36*
X86798617Y-74578420D02*
G01*
X86871355Y-74600485D01*
X86921335Y-74615646D01*
X87034424Y-74676094D01*
X87133554Y-74757447D01*
X87214906Y-74856575D01*
X87275354Y-74969664D01*
X87285040Y-75001596D01*
X87312580Y-75092382D01*
X87322000Y-75188027D01*
X87322000Y-75801973D01*
X87312580Y-75897618D01*
X87285040Y-75988404D01*
X87275354Y-76020336D01*
X87214906Y-76133425D01*
X87133554Y-76232554D01*
X87034425Y-76313906D01*
X86921336Y-76374354D01*
X86889404Y-76384040D01*
X86798618Y-76411580D01*
X86671000Y-76424149D01*
X86543383Y-76411580D01*
X86452597Y-76384040D01*
X86420665Y-76374354D01*
X86307576Y-76313906D01*
X86208447Y-76232554D01*
X86127096Y-76133427D01*
X86127095Y-76133425D01*
X86066647Y-76020336D01*
X86066645Y-76020333D01*
X86054237Y-75979427D01*
X86029420Y-75897618D01*
X86020000Y-75801973D01*
X86020000Y-75188028D01*
X86029420Y-75092383D01*
X86066645Y-74969669D01*
X86066646Y-74969665D01*
X86127094Y-74856576D01*
X86208447Y-74757446D01*
X86307575Y-74676094D01*
X86420664Y-74615646D01*
X86470644Y-74600485D01*
X86543382Y-74578420D01*
X86671000Y-74565851D01*
X86798617Y-74578420D01*
G37*
G36*
X88798617Y-74578420D02*
G01*
X88871355Y-74600485D01*
X88921335Y-74615646D01*
X89034424Y-74676094D01*
X89133554Y-74757447D01*
X89214906Y-74856575D01*
X89275354Y-74969664D01*
X89285040Y-75001596D01*
X89312580Y-75092382D01*
X89322000Y-75188027D01*
X89322000Y-75801973D01*
X89312580Y-75897618D01*
X89285040Y-75988404D01*
X89275354Y-76020336D01*
X89214906Y-76133425D01*
X89133554Y-76232554D01*
X89034425Y-76313906D01*
X88921336Y-76374354D01*
X88889404Y-76384040D01*
X88798618Y-76411580D01*
X88671000Y-76424149D01*
X88543383Y-76411580D01*
X88452597Y-76384040D01*
X88420665Y-76374354D01*
X88307576Y-76313906D01*
X88208447Y-76232554D01*
X88127096Y-76133427D01*
X88127095Y-76133425D01*
X88066647Y-76020336D01*
X88066645Y-76020333D01*
X88054237Y-75979427D01*
X88029420Y-75897618D01*
X88020000Y-75801973D01*
X88020000Y-75188028D01*
X88029420Y-75092383D01*
X88066645Y-74969669D01*
X88066646Y-74969665D01*
X88127094Y-74856576D01*
X88208447Y-74757446D01*
X88307575Y-74676094D01*
X88420664Y-74615646D01*
X88470644Y-74600485D01*
X88543382Y-74578420D01*
X88671000Y-74565851D01*
X88798617Y-74578420D01*
G37*
G36*
X104798617Y-74578420D02*
G01*
X104871355Y-74600485D01*
X104921335Y-74615646D01*
X105034424Y-74676094D01*
X105133554Y-74757447D01*
X105214906Y-74856575D01*
X105275354Y-74969664D01*
X105285040Y-75001596D01*
X105312580Y-75092382D01*
X105322000Y-75188027D01*
X105322000Y-75801973D01*
X105312580Y-75897618D01*
X105285040Y-75988404D01*
X105275354Y-76020336D01*
X105214906Y-76133425D01*
X105133554Y-76232554D01*
X105034425Y-76313906D01*
X104921336Y-76374354D01*
X104889404Y-76384040D01*
X104798618Y-76411580D01*
X104671000Y-76424149D01*
X104543383Y-76411580D01*
X104452597Y-76384040D01*
X104420665Y-76374354D01*
X104307576Y-76313906D01*
X104208447Y-76232554D01*
X104127096Y-76133427D01*
X104127095Y-76133425D01*
X104066647Y-76020336D01*
X104066645Y-76020333D01*
X104054237Y-75979427D01*
X104029420Y-75897618D01*
X104020000Y-75801973D01*
X104020000Y-75188028D01*
X104029420Y-75092383D01*
X104066645Y-74969669D01*
X104066646Y-74969665D01*
X104127094Y-74856576D01*
X104208447Y-74757446D01*
X104307575Y-74676094D01*
X104420664Y-74615646D01*
X104470644Y-74600485D01*
X104543382Y-74578420D01*
X104671000Y-74565851D01*
X104798617Y-74578420D01*
G37*
G36*
X102798617Y-74578420D02*
G01*
X102871355Y-74600485D01*
X102921335Y-74615646D01*
X103034424Y-74676094D01*
X103133554Y-74757447D01*
X103214906Y-74856575D01*
X103275354Y-74969664D01*
X103285040Y-75001596D01*
X103312580Y-75092382D01*
X103322000Y-75188027D01*
X103322000Y-75801973D01*
X103312580Y-75897618D01*
X103285040Y-75988404D01*
X103275354Y-76020336D01*
X103214906Y-76133425D01*
X103133554Y-76232554D01*
X103034425Y-76313906D01*
X102921336Y-76374354D01*
X102889404Y-76384040D01*
X102798618Y-76411580D01*
X102671000Y-76424149D01*
X102543383Y-76411580D01*
X102452597Y-76384040D01*
X102420665Y-76374354D01*
X102307576Y-76313906D01*
X102208447Y-76232554D01*
X102127096Y-76133427D01*
X102127095Y-76133425D01*
X102066647Y-76020336D01*
X102066645Y-76020333D01*
X102054237Y-75979427D01*
X102029420Y-75897618D01*
X102020000Y-75801973D01*
X102020000Y-75188028D01*
X102029420Y-75092383D01*
X102066645Y-74969669D01*
X102066646Y-74969665D01*
X102127094Y-74856576D01*
X102208447Y-74757446D01*
X102307575Y-74676094D01*
X102420664Y-74615646D01*
X102470644Y-74600485D01*
X102543382Y-74578420D01*
X102671000Y-74565851D01*
X102798617Y-74578420D01*
G37*
G36*
X98798617Y-74578420D02*
G01*
X98871355Y-74600485D01*
X98921335Y-74615646D01*
X99034424Y-74676094D01*
X99133554Y-74757447D01*
X99214906Y-74856575D01*
X99275354Y-74969664D01*
X99285040Y-75001596D01*
X99312580Y-75092382D01*
X99322000Y-75188027D01*
X99322000Y-75801973D01*
X99312580Y-75897618D01*
X99285040Y-75988404D01*
X99275354Y-76020336D01*
X99214906Y-76133425D01*
X99133554Y-76232554D01*
X99034425Y-76313906D01*
X98921336Y-76374354D01*
X98889404Y-76384040D01*
X98798618Y-76411580D01*
X98671000Y-76424149D01*
X98543383Y-76411580D01*
X98452597Y-76384040D01*
X98420665Y-76374354D01*
X98307576Y-76313906D01*
X98208447Y-76232554D01*
X98127096Y-76133427D01*
X98127095Y-76133425D01*
X98066647Y-76020336D01*
X98066645Y-76020333D01*
X98054237Y-75979427D01*
X98029420Y-75897618D01*
X98020000Y-75801973D01*
X98020000Y-75188028D01*
X98029420Y-75092383D01*
X98066645Y-74969669D01*
X98066646Y-74969665D01*
X98127094Y-74856576D01*
X98208447Y-74757446D01*
X98307575Y-74676094D01*
X98420664Y-74615646D01*
X98470644Y-74600485D01*
X98543382Y-74578420D01*
X98671000Y-74565851D01*
X98798617Y-74578420D01*
G37*
G36*
X94798617Y-74578420D02*
G01*
X94871355Y-74600485D01*
X94921335Y-74615646D01*
X95034424Y-74676094D01*
X95133554Y-74757447D01*
X95214906Y-74856575D01*
X95275354Y-74969664D01*
X95285040Y-75001596D01*
X95312580Y-75092382D01*
X95322000Y-75188027D01*
X95322000Y-75801973D01*
X95312580Y-75897618D01*
X95285040Y-75988404D01*
X95275354Y-76020336D01*
X95214906Y-76133425D01*
X95133554Y-76232554D01*
X95034425Y-76313906D01*
X94921336Y-76374354D01*
X94889404Y-76384040D01*
X94798618Y-76411580D01*
X94671000Y-76424149D01*
X94543383Y-76411580D01*
X94452597Y-76384040D01*
X94420665Y-76374354D01*
X94307576Y-76313906D01*
X94208447Y-76232554D01*
X94127096Y-76133427D01*
X94127095Y-76133425D01*
X94066647Y-76020336D01*
X94066645Y-76020333D01*
X94054237Y-75979427D01*
X94029420Y-75897618D01*
X94020000Y-75801973D01*
X94020000Y-75188028D01*
X94029420Y-75092383D01*
X94066645Y-74969669D01*
X94066646Y-74969665D01*
X94127094Y-74856576D01*
X94208447Y-74757446D01*
X94307575Y-74676094D01*
X94420664Y-74615646D01*
X94470644Y-74600485D01*
X94543382Y-74578420D01*
X94671000Y-74565851D01*
X94798617Y-74578420D01*
G37*
G36*
X92798617Y-74578420D02*
G01*
X92871355Y-74600485D01*
X92921335Y-74615646D01*
X93034424Y-74676094D01*
X93133554Y-74757447D01*
X93214906Y-74856575D01*
X93275354Y-74969664D01*
X93285040Y-75001596D01*
X93312580Y-75092382D01*
X93322000Y-75188027D01*
X93322000Y-75801973D01*
X93312580Y-75897618D01*
X93285040Y-75988404D01*
X93275354Y-76020336D01*
X93214906Y-76133425D01*
X93133554Y-76232554D01*
X93034425Y-76313906D01*
X92921336Y-76374354D01*
X92889404Y-76384040D01*
X92798618Y-76411580D01*
X92671000Y-76424149D01*
X92543383Y-76411580D01*
X92452597Y-76384040D01*
X92420665Y-76374354D01*
X92307576Y-76313906D01*
X92208447Y-76232554D01*
X92127096Y-76133427D01*
X92127095Y-76133425D01*
X92066647Y-76020336D01*
X92066645Y-76020333D01*
X92054237Y-75979427D01*
X92029420Y-75897618D01*
X92020000Y-75801973D01*
X92020000Y-75188028D01*
X92029420Y-75092383D01*
X92066645Y-74969669D01*
X92066646Y-74969665D01*
X92127094Y-74856576D01*
X92208447Y-74757446D01*
X92307575Y-74676094D01*
X92420664Y-74615646D01*
X92470644Y-74600485D01*
X92543382Y-74578420D01*
X92671000Y-74565851D01*
X92798617Y-74578420D01*
G37*
G36*
X90798617Y-74578420D02*
G01*
X90871355Y-74600485D01*
X90921335Y-74615646D01*
X91034424Y-74676094D01*
X91133554Y-74757447D01*
X91214906Y-74856575D01*
X91275354Y-74969664D01*
X91285040Y-75001596D01*
X91312580Y-75092382D01*
X91322000Y-75188027D01*
X91322000Y-75801973D01*
X91312580Y-75897618D01*
X91285040Y-75988404D01*
X91275354Y-76020336D01*
X91214906Y-76133425D01*
X91133554Y-76232554D01*
X91034425Y-76313906D01*
X90921336Y-76374354D01*
X90889404Y-76384040D01*
X90798618Y-76411580D01*
X90671000Y-76424149D01*
X90543383Y-76411580D01*
X90452597Y-76384040D01*
X90420665Y-76374354D01*
X90307576Y-76313906D01*
X90208447Y-76232554D01*
X90127096Y-76133427D01*
X90127095Y-76133425D01*
X90066647Y-76020336D01*
X90066645Y-76020333D01*
X90054237Y-75979427D01*
X90029420Y-75897618D01*
X90020000Y-75801973D01*
X90020000Y-75188028D01*
X90029420Y-75092383D01*
X90066645Y-74969669D01*
X90066646Y-74969665D01*
X90127094Y-74856576D01*
X90208447Y-74757446D01*
X90307575Y-74676094D01*
X90420664Y-74615646D01*
X90470644Y-74600485D01*
X90543382Y-74578420D01*
X90671000Y-74565851D01*
X90798617Y-74578420D01*
G37*
G36*
X100798617Y-74578420D02*
G01*
X100871355Y-74600485D01*
X100921335Y-74615646D01*
X101034424Y-74676094D01*
X101133554Y-74757447D01*
X101214906Y-74856575D01*
X101275354Y-74969664D01*
X101285040Y-75001596D01*
X101312580Y-75092382D01*
X101322000Y-75188027D01*
X101322000Y-75801973D01*
X101312580Y-75897618D01*
X101285040Y-75988404D01*
X101275354Y-76020336D01*
X101214906Y-76133425D01*
X101133554Y-76232554D01*
X101034425Y-76313906D01*
X100921336Y-76374354D01*
X100889404Y-76384040D01*
X100798618Y-76411580D01*
X100671000Y-76424149D01*
X100543383Y-76411580D01*
X100452597Y-76384040D01*
X100420665Y-76374354D01*
X100307576Y-76313906D01*
X100208447Y-76232554D01*
X100127096Y-76133427D01*
X100127095Y-76133425D01*
X100066647Y-76020336D01*
X100066645Y-76020333D01*
X100054237Y-75979427D01*
X100029420Y-75897618D01*
X100020000Y-75801973D01*
X100020000Y-75188028D01*
X100029420Y-75092383D01*
X100066645Y-74969669D01*
X100066646Y-74969665D01*
X100127094Y-74856576D01*
X100208447Y-74757446D01*
X100307575Y-74676094D01*
X100420664Y-74615646D01*
X100470644Y-74600485D01*
X100543382Y-74578420D01*
X100671000Y-74565851D01*
X100798617Y-74578420D01*
G37*
G36*
X85162242Y-74573404D02*
G01*
X85199337Y-74584657D01*
X85233515Y-74602925D01*
X85263481Y-74627519D01*
X85288075Y-74657485D01*
X85306343Y-74691663D01*
X85317596Y-74728758D01*
X85322000Y-74773474D01*
X85322000Y-76216526D01*
X85317596Y-76261242D01*
X85306343Y-76298337D01*
X85288075Y-76332515D01*
X85263481Y-76362481D01*
X85233515Y-76387075D01*
X85199337Y-76405343D01*
X85162242Y-76416596D01*
X85117526Y-76421000D01*
X84224474Y-76421000D01*
X84179758Y-76416596D01*
X84142663Y-76405343D01*
X84108485Y-76387075D01*
X84078519Y-76362481D01*
X84053925Y-76332515D01*
X84035657Y-76298337D01*
X84024404Y-76261242D01*
X84020000Y-76216526D01*
X84020000Y-74773474D01*
X84024404Y-74728758D01*
X84035657Y-74691663D01*
X84053925Y-74657485D01*
X84078519Y-74627519D01*
X84108485Y-74602925D01*
X84142663Y-74584657D01*
X84179758Y-74573404D01*
X84224474Y-74569000D01*
X85117526Y-74569000D01*
X85162242Y-74573404D01*
G37*
G36*
X62452617Y-74521420D02*
G01*
X62533399Y-74545925D01*
X62575335Y-74558646D01*
X62688424Y-74619094D01*
X62787554Y-74700447D01*
X62868906Y-74799575D01*
X62929354Y-74912664D01*
X62939040Y-74944596D01*
X62966580Y-75035382D01*
X62976000Y-75131027D01*
X62976000Y-75744973D01*
X62966580Y-75840618D01*
X62949290Y-75897616D01*
X62929354Y-75963336D01*
X62868906Y-76076425D01*
X62787554Y-76175554D01*
X62688425Y-76256906D01*
X62575336Y-76317354D01*
X62543404Y-76327040D01*
X62452618Y-76354580D01*
X62325000Y-76367149D01*
X62197383Y-76354580D01*
X62106597Y-76327040D01*
X62074665Y-76317354D01*
X61961576Y-76256906D01*
X61862447Y-76175554D01*
X61781096Y-76076427D01*
X61781095Y-76076425D01*
X61720647Y-75963336D01*
X61720645Y-75963333D01*
X61700710Y-75897616D01*
X61683420Y-75840618D01*
X61674000Y-75744973D01*
X61674000Y-75131028D01*
X61683420Y-75035383D01*
X61720645Y-74912669D01*
X61720646Y-74912665D01*
X61781094Y-74799576D01*
X61862447Y-74700446D01*
X61961575Y-74619094D01*
X62074664Y-74558646D01*
X62116600Y-74545925D01*
X62197382Y-74521420D01*
X62325000Y-74508851D01*
X62452617Y-74521420D01*
G37*
G36*
X79654617Y-74521420D02*
G01*
X79735399Y-74545925D01*
X79777335Y-74558646D01*
X79890424Y-74619094D01*
X79989554Y-74700447D01*
X80070906Y-74799575D01*
X80131354Y-74912664D01*
X80141040Y-74944596D01*
X80168580Y-75035382D01*
X80178000Y-75131027D01*
X80178000Y-75744973D01*
X80168580Y-75840618D01*
X80151290Y-75897616D01*
X80131354Y-75963336D01*
X80070906Y-76076425D01*
X79989554Y-76175554D01*
X79890425Y-76256906D01*
X79777336Y-76317354D01*
X79745404Y-76327040D01*
X79654618Y-76354580D01*
X79527000Y-76367149D01*
X79399383Y-76354580D01*
X79308597Y-76327040D01*
X79276665Y-76317354D01*
X79163576Y-76256906D01*
X79064447Y-76175554D01*
X78983096Y-76076427D01*
X78983095Y-76076425D01*
X78922647Y-75963336D01*
X78922645Y-75963333D01*
X78902710Y-75897616D01*
X78885420Y-75840618D01*
X78876000Y-75744973D01*
X78876000Y-75131028D01*
X78885420Y-75035383D01*
X78922645Y-74912669D01*
X78922646Y-74912665D01*
X78983094Y-74799576D01*
X79064447Y-74700446D01*
X79163575Y-74619094D01*
X79276664Y-74558646D01*
X79318600Y-74545925D01*
X79399382Y-74521420D01*
X79527000Y-74508851D01*
X79654617Y-74521420D01*
G37*
G36*
X64452617Y-74521420D02*
G01*
X64533399Y-74545925D01*
X64575335Y-74558646D01*
X64688424Y-74619094D01*
X64787554Y-74700447D01*
X64868906Y-74799575D01*
X64929354Y-74912664D01*
X64939040Y-74944596D01*
X64966580Y-75035382D01*
X64976000Y-75131027D01*
X64976000Y-75744973D01*
X64966580Y-75840618D01*
X64949290Y-75897616D01*
X64929354Y-75963336D01*
X64868906Y-76076425D01*
X64787554Y-76175554D01*
X64688425Y-76256906D01*
X64575336Y-76317354D01*
X64543404Y-76327040D01*
X64452618Y-76354580D01*
X64325000Y-76367149D01*
X64197383Y-76354580D01*
X64106597Y-76327040D01*
X64074665Y-76317354D01*
X63961576Y-76256906D01*
X63862447Y-76175554D01*
X63781096Y-76076427D01*
X63781095Y-76076425D01*
X63720647Y-75963336D01*
X63720645Y-75963333D01*
X63700710Y-75897616D01*
X63683420Y-75840618D01*
X63674000Y-75744973D01*
X63674000Y-75131028D01*
X63683420Y-75035383D01*
X63720645Y-74912669D01*
X63720646Y-74912665D01*
X63781094Y-74799576D01*
X63862447Y-74700446D01*
X63961575Y-74619094D01*
X64074664Y-74558646D01*
X64116600Y-74545925D01*
X64197382Y-74521420D01*
X64325000Y-74508851D01*
X64452617Y-74521420D01*
G37*
G36*
X70452617Y-74521420D02*
G01*
X70533399Y-74545925D01*
X70575335Y-74558646D01*
X70688424Y-74619094D01*
X70787554Y-74700447D01*
X70868906Y-74799575D01*
X70929354Y-74912664D01*
X70939040Y-74944596D01*
X70966580Y-75035382D01*
X70976000Y-75131027D01*
X70976000Y-75744973D01*
X70966580Y-75840618D01*
X70949290Y-75897616D01*
X70929354Y-75963336D01*
X70868906Y-76076425D01*
X70787554Y-76175554D01*
X70688425Y-76256906D01*
X70575336Y-76317354D01*
X70543404Y-76327040D01*
X70452618Y-76354580D01*
X70325000Y-76367149D01*
X70197383Y-76354580D01*
X70106597Y-76327040D01*
X70074665Y-76317354D01*
X69961576Y-76256906D01*
X69862447Y-76175554D01*
X69781096Y-76076427D01*
X69781095Y-76076425D01*
X69720647Y-75963336D01*
X69720645Y-75963333D01*
X69700710Y-75897616D01*
X69683420Y-75840618D01*
X69674000Y-75744973D01*
X69674000Y-75131028D01*
X69683420Y-75035383D01*
X69720645Y-74912669D01*
X69720646Y-74912665D01*
X69781094Y-74799576D01*
X69862447Y-74700446D01*
X69961575Y-74619094D01*
X70074664Y-74558646D01*
X70116600Y-74545925D01*
X70197382Y-74521420D01*
X70325000Y-74508851D01*
X70452617Y-74521420D01*
G37*
G36*
X68452617Y-74521420D02*
G01*
X68533399Y-74545925D01*
X68575335Y-74558646D01*
X68688424Y-74619094D01*
X68787554Y-74700447D01*
X68868906Y-74799575D01*
X68929354Y-74912664D01*
X68939040Y-74944596D01*
X68966580Y-75035382D01*
X68976000Y-75131027D01*
X68976000Y-75744973D01*
X68966580Y-75840618D01*
X68949290Y-75897616D01*
X68929354Y-75963336D01*
X68868906Y-76076425D01*
X68787554Y-76175554D01*
X68688425Y-76256906D01*
X68575336Y-76317354D01*
X68543404Y-76327040D01*
X68452618Y-76354580D01*
X68325000Y-76367149D01*
X68197383Y-76354580D01*
X68106597Y-76327040D01*
X68074665Y-76317354D01*
X67961576Y-76256906D01*
X67862447Y-76175554D01*
X67781096Y-76076427D01*
X67781095Y-76076425D01*
X67720647Y-75963336D01*
X67720645Y-75963333D01*
X67700710Y-75897616D01*
X67683420Y-75840618D01*
X67674000Y-75744973D01*
X67674000Y-75131028D01*
X67683420Y-75035383D01*
X67720645Y-74912669D01*
X67720646Y-74912665D01*
X67781094Y-74799576D01*
X67862447Y-74700446D01*
X67961575Y-74619094D01*
X68074664Y-74558646D01*
X68116600Y-74545925D01*
X68197382Y-74521420D01*
X68325000Y-74508851D01*
X68452617Y-74521420D01*
G37*
G36*
X66452617Y-74521420D02*
G01*
X66533399Y-74545925D01*
X66575335Y-74558646D01*
X66688424Y-74619094D01*
X66787554Y-74700447D01*
X66868906Y-74799575D01*
X66929354Y-74912664D01*
X66939040Y-74944596D01*
X66966580Y-75035382D01*
X66976000Y-75131027D01*
X66976000Y-75744973D01*
X66966580Y-75840618D01*
X66949290Y-75897616D01*
X66929354Y-75963336D01*
X66868906Y-76076425D01*
X66787554Y-76175554D01*
X66688425Y-76256906D01*
X66575336Y-76317354D01*
X66543404Y-76327040D01*
X66452618Y-76354580D01*
X66325000Y-76367149D01*
X66197383Y-76354580D01*
X66106597Y-76327040D01*
X66074665Y-76317354D01*
X65961576Y-76256906D01*
X65862447Y-76175554D01*
X65781096Y-76076427D01*
X65781095Y-76076425D01*
X65720647Y-75963336D01*
X65720645Y-75963333D01*
X65700710Y-75897616D01*
X65683420Y-75840618D01*
X65674000Y-75744973D01*
X65674000Y-75131028D01*
X65683420Y-75035383D01*
X65720645Y-74912669D01*
X65720646Y-74912665D01*
X65781094Y-74799576D01*
X65862447Y-74700446D01*
X65961575Y-74619094D01*
X66074664Y-74558646D01*
X66116600Y-74545925D01*
X66197382Y-74521420D01*
X66325000Y-74508851D01*
X66452617Y-74521420D01*
G37*
G36*
X77654617Y-74521420D02*
G01*
X77735399Y-74545925D01*
X77777335Y-74558646D01*
X77890424Y-74619094D01*
X77989554Y-74700447D01*
X78070906Y-74799575D01*
X78131354Y-74912664D01*
X78141040Y-74944596D01*
X78168580Y-75035382D01*
X78178000Y-75131027D01*
X78178000Y-75744973D01*
X78168580Y-75840618D01*
X78151290Y-75897616D01*
X78131354Y-75963336D01*
X78070906Y-76076425D01*
X77989554Y-76175554D01*
X77890425Y-76256906D01*
X77777336Y-76317354D01*
X77745404Y-76327040D01*
X77654618Y-76354580D01*
X77527000Y-76367149D01*
X77399383Y-76354580D01*
X77308597Y-76327040D01*
X77276665Y-76317354D01*
X77163576Y-76256906D01*
X77064447Y-76175554D01*
X76983096Y-76076427D01*
X76983095Y-76076425D01*
X76922647Y-75963336D01*
X76922645Y-75963333D01*
X76902710Y-75897616D01*
X76885420Y-75840618D01*
X76876000Y-75744973D01*
X76876000Y-75131028D01*
X76885420Y-75035383D01*
X76922645Y-74912669D01*
X76922646Y-74912665D01*
X76983094Y-74799576D01*
X77064447Y-74700446D01*
X77163575Y-74619094D01*
X77276664Y-74558646D01*
X77318600Y-74545925D01*
X77399382Y-74521420D01*
X77527000Y-74508851D01*
X77654617Y-74521420D01*
G37*
G36*
X60816242Y-74516404D02*
G01*
X60853337Y-74527657D01*
X60887515Y-74545925D01*
X60917481Y-74570519D01*
X60942075Y-74600485D01*
X60960343Y-74634663D01*
X60971596Y-74671758D01*
X60976000Y-74716474D01*
X60976000Y-76159526D01*
X60971596Y-76204242D01*
X60960343Y-76241337D01*
X60942075Y-76275515D01*
X60917481Y-76305481D01*
X60887515Y-76330075D01*
X60853337Y-76348343D01*
X60816242Y-76359596D01*
X60771526Y-76364000D01*
X59878474Y-76364000D01*
X59833758Y-76359596D01*
X59796663Y-76348343D01*
X59762485Y-76330075D01*
X59732519Y-76305481D01*
X59707925Y-76275515D01*
X59689657Y-76241337D01*
X59678404Y-76204242D01*
X59674000Y-76159526D01*
X59674000Y-74716474D01*
X59678404Y-74671758D01*
X59689657Y-74634663D01*
X59707925Y-74600485D01*
X59732519Y-74570519D01*
X59762485Y-74545925D01*
X59796663Y-74527657D01*
X59833758Y-74516404D01*
X59878474Y-74512000D01*
X60771526Y-74512000D01*
X60816242Y-74516404D01*
G37*
G36*
X76018242Y-74516404D02*
G01*
X76055337Y-74527657D01*
X76089515Y-74545925D01*
X76119481Y-74570519D01*
X76144075Y-74600485D01*
X76162343Y-74634663D01*
X76173596Y-74671758D01*
X76178000Y-74716474D01*
X76178000Y-76159526D01*
X76173596Y-76204242D01*
X76162343Y-76241337D01*
X76144075Y-76275515D01*
X76119481Y-76305481D01*
X76089515Y-76330075D01*
X76055337Y-76348343D01*
X76018242Y-76359596D01*
X75973526Y-76364000D01*
X75080474Y-76364000D01*
X75035758Y-76359596D01*
X74998663Y-76348343D01*
X74964485Y-76330075D01*
X74934519Y-76305481D01*
X74909925Y-76275515D01*
X74891657Y-76241337D01*
X74880404Y-76204242D01*
X74876000Y-76159526D01*
X74876000Y-74716474D01*
X74880404Y-74671758D01*
X74891657Y-74634663D01*
X74909925Y-74600485D01*
X74934519Y-74570519D01*
X74964485Y-74545925D01*
X74998663Y-74527657D01*
X75035758Y-74516404D01*
X75080474Y-74512000D01*
X75973526Y-74512000D01*
X76018242Y-74516404D01*
G37*
G36*
X59457242Y-71298404D02*
G01*
X59494337Y-71309657D01*
X59528515Y-71327925D01*
X59558481Y-71352519D01*
X59583075Y-71382485D01*
X59601343Y-71416663D01*
X59612596Y-71453758D01*
X59617000Y-71498474D01*
X59617000Y-72391526D01*
X59612596Y-72436242D01*
X59601343Y-72473337D01*
X59583075Y-72507515D01*
X59558481Y-72537481D01*
X59528515Y-72562075D01*
X59494337Y-72580343D01*
X59457242Y-72591596D01*
X59412526Y-72596000D01*
X57919474Y-72596000D01*
X57874758Y-72591596D01*
X57837663Y-72580343D01*
X57803485Y-72562075D01*
X57773519Y-72537481D01*
X57748925Y-72507515D01*
X57730657Y-72473337D01*
X57719404Y-72436242D01*
X57715000Y-72391526D01*
X57715000Y-71498474D01*
X57719404Y-71453758D01*
X57730657Y-71416663D01*
X57748925Y-71382485D01*
X57773519Y-71352519D01*
X57803485Y-71327925D01*
X57837663Y-71309657D01*
X57874758Y-71298404D01*
X57919474Y-71294000D01*
X59412526Y-71294000D01*
X59457242Y-71298404D01*
G37*
G36*
X63275928Y-70296764D02*
G01*
X63297009Y-70303160D01*
X63316445Y-70313548D01*
X63333476Y-70327524D01*
X63347452Y-70344555D01*
X63357840Y-70363991D01*
X63364236Y-70385072D01*
X63367000Y-70413140D01*
X63367000Y-70876860D01*
X63364236Y-70904928D01*
X63357840Y-70926009D01*
X63347452Y-70945445D01*
X63333476Y-70962476D01*
X63316445Y-70976452D01*
X63297009Y-70986840D01*
X63275928Y-70993236D01*
X63247860Y-70996000D01*
X61834140Y-70996000D01*
X61806072Y-70993236D01*
X61784991Y-70986840D01*
X61765555Y-70976452D01*
X61748524Y-70962476D01*
X61734548Y-70945445D01*
X61724160Y-70926009D01*
X61717764Y-70904928D01*
X61715000Y-70876860D01*
X61715000Y-70413140D01*
X61717764Y-70385072D01*
X61724160Y-70363991D01*
X61734548Y-70344555D01*
X61748524Y-70327524D01*
X61765555Y-70313548D01*
X61784991Y-70303160D01*
X61806072Y-70296764D01*
X61834140Y-70294000D01*
X63247860Y-70294000D01*
X63275928Y-70296764D01*
G37*
G36*
X63275928Y-69296764D02*
G01*
X63297009Y-69303160D01*
X63316445Y-69313548D01*
X63333476Y-69327524D01*
X63347452Y-69344555D01*
X63357840Y-69363991D01*
X63364236Y-69385072D01*
X63367000Y-69413140D01*
X63367000Y-69876860D01*
X63364236Y-69904928D01*
X63357840Y-69926009D01*
X63347452Y-69945445D01*
X63333476Y-69962476D01*
X63316445Y-69976452D01*
X63297009Y-69986840D01*
X63275928Y-69993236D01*
X63247860Y-69996000D01*
X61834140Y-69996000D01*
X61806072Y-69993236D01*
X61784991Y-69986840D01*
X61765555Y-69976452D01*
X61748524Y-69962476D01*
X61734548Y-69945445D01*
X61724160Y-69926009D01*
X61717764Y-69904928D01*
X61715000Y-69876860D01*
X61715000Y-69413140D01*
X61717764Y-69385072D01*
X61724160Y-69363991D01*
X61734548Y-69344555D01*
X61748524Y-69327524D01*
X61765555Y-69313548D01*
X61784991Y-69303160D01*
X61806072Y-69296764D01*
X61834140Y-69294000D01*
X63247860Y-69294000D01*
X63275928Y-69296764D01*
G37*
G36*
X63275928Y-68296764D02*
G01*
X63297009Y-68303160D01*
X63316445Y-68313548D01*
X63333476Y-68327524D01*
X63347452Y-68344555D01*
X63357840Y-68363991D01*
X63364236Y-68385072D01*
X63367000Y-68413140D01*
X63367000Y-68876860D01*
X63364236Y-68904928D01*
X63357840Y-68926009D01*
X63347452Y-68945445D01*
X63333476Y-68962476D01*
X63316445Y-68976452D01*
X63297009Y-68986840D01*
X63275928Y-68993236D01*
X63247860Y-68996000D01*
X61834140Y-68996000D01*
X61806072Y-68993236D01*
X61784991Y-68986840D01*
X61765555Y-68976452D01*
X61748524Y-68962476D01*
X61734548Y-68945445D01*
X61724160Y-68926009D01*
X61717764Y-68904928D01*
X61715000Y-68876860D01*
X61715000Y-68413140D01*
X61717764Y-68385072D01*
X61724160Y-68363991D01*
X61734548Y-68344555D01*
X61748524Y-68327524D01*
X61765555Y-68313548D01*
X61784991Y-68303160D01*
X61806072Y-68296764D01*
X61834140Y-68294000D01*
X63247860Y-68294000D01*
X63275928Y-68296764D01*
G37*
G36*
X52365213Y-67896249D02*
G01*
X52459652Y-67924897D01*
X52546687Y-67971418D01*
X52622975Y-68034025D01*
X52685582Y-68110313D01*
X52732103Y-68197348D01*
X52760751Y-68291787D01*
X52770424Y-68390000D01*
X52760751Y-68488213D01*
X52732103Y-68582652D01*
X52685582Y-68669687D01*
X52622975Y-68745975D01*
X52546687Y-68808582D01*
X52459652Y-68855103D01*
X52365213Y-68883751D01*
X52291612Y-68891000D01*
X51442388Y-68891000D01*
X51368787Y-68883751D01*
X51274348Y-68855103D01*
X51187313Y-68808582D01*
X51111025Y-68745975D01*
X51048418Y-68669687D01*
X51001897Y-68582652D01*
X50973249Y-68488213D01*
X50963576Y-68390000D01*
X50973249Y-68291787D01*
X51001897Y-68197348D01*
X51048418Y-68110313D01*
X51111025Y-68034025D01*
X51187313Y-67971418D01*
X51274348Y-67924897D01*
X51368787Y-67896249D01*
X51442388Y-67889000D01*
X52291612Y-67889000D01*
X52365213Y-67896249D01*
G37*
G36*
X56095213Y-67896249D02*
G01*
X56189652Y-67924897D01*
X56276687Y-67971418D01*
X56352975Y-68034025D01*
X56415582Y-68110313D01*
X56462103Y-68197348D01*
X56490751Y-68291787D01*
X56500424Y-68390000D01*
X56490751Y-68488213D01*
X56462103Y-68582652D01*
X56415582Y-68669687D01*
X56352975Y-68745975D01*
X56276687Y-68808582D01*
X56189652Y-68855103D01*
X56095213Y-68883751D01*
X56021612Y-68891000D01*
X54472388Y-68891000D01*
X54398787Y-68883751D01*
X54304348Y-68855103D01*
X54217313Y-68808582D01*
X54141025Y-68745975D01*
X54078418Y-68669687D01*
X54031897Y-68582652D01*
X54003249Y-68488213D01*
X53993576Y-68390000D01*
X54003249Y-68291787D01*
X54031897Y-68197348D01*
X54078418Y-68110313D01*
X54141025Y-68034025D01*
X54217313Y-67971418D01*
X54304348Y-67924897D01*
X54398787Y-67896249D01*
X54472388Y-67889000D01*
X56021612Y-67889000D01*
X56095213Y-67896249D01*
G37*
G36*
X63275928Y-67296764D02*
G01*
X63297009Y-67303160D01*
X63316445Y-67313548D01*
X63333476Y-67327524D01*
X63347452Y-67344555D01*
X63357840Y-67363991D01*
X63364236Y-67385072D01*
X63367000Y-67413140D01*
X63367000Y-67876860D01*
X63364236Y-67904928D01*
X63357840Y-67926009D01*
X63347452Y-67945445D01*
X63333476Y-67962476D01*
X63316445Y-67976452D01*
X63297009Y-67986840D01*
X63275928Y-67993236D01*
X63247860Y-67996000D01*
X61834140Y-67996000D01*
X61806072Y-67993236D01*
X61784991Y-67986840D01*
X61765555Y-67976452D01*
X61748524Y-67962476D01*
X61734548Y-67945445D01*
X61724160Y-67926009D01*
X61717764Y-67904928D01*
X61715000Y-67876860D01*
X61715000Y-67413140D01*
X61717764Y-67385072D01*
X61724160Y-67363991D01*
X61734548Y-67344555D01*
X61748524Y-67327524D01*
X61765555Y-67313548D01*
X61784991Y-67303160D01*
X61806072Y-67296764D01*
X61834140Y-67294000D01*
X63247860Y-67294000D01*
X63275928Y-67296764D01*
G37*
G36*
X55011672Y-60728449D02*
G01*
X55011674Y-60728450D01*
X55011675Y-60728450D01*
X55080103Y-60756793D01*
X55141686Y-60797942D01*
X55194058Y-60850314D01*
X55235207Y-60911897D01*
X55262989Y-60978971D01*
X55263551Y-60980328D01*
X55278000Y-61052966D01*
X55278000Y-61127034D01*
X55268033Y-61177141D01*
X55263550Y-61199675D01*
X55235207Y-61268103D01*
X55194058Y-61329686D01*
X55141686Y-61382058D01*
X55094524Y-61413571D01*
X55075587Y-61429113D01*
X55060042Y-61448055D01*
X55048491Y-61469665D01*
X55041378Y-61493114D01*
X55038976Y-61517500D01*
X55041378Y-61541886D01*
X55048491Y-61565335D01*
X55060042Y-61586946D01*
X55075588Y-61605888D01*
X55094524Y-61621429D01*
X55141686Y-61652942D01*
X55194058Y-61705314D01*
X55235207Y-61766897D01*
X55261479Y-61830325D01*
X55263551Y-61835328D01*
X55278000Y-61907966D01*
X55278000Y-61982034D01*
X55264546Y-62049672D01*
X55263550Y-62054675D01*
X55235207Y-62123103D01*
X55194058Y-62184686D01*
X55141686Y-62237058D01*
X55098263Y-62266073D01*
X55079328Y-62281612D01*
X55063783Y-62300554D01*
X55052232Y-62322165D01*
X55045119Y-62345614D01*
X55042717Y-62370000D01*
X55045119Y-62394386D01*
X55052232Y-62417835D01*
X55063783Y-62439446D01*
X55079328Y-62458388D01*
X55098263Y-62473927D01*
X55141686Y-62502942D01*
X55194058Y-62555314D01*
X55235207Y-62616897D01*
X55261479Y-62680325D01*
X55263551Y-62685328D01*
X55278000Y-62757966D01*
X55278000Y-62832034D01*
X55264546Y-62899672D01*
X55263550Y-62904675D01*
X55235207Y-62973103D01*
X55194058Y-63034686D01*
X55141686Y-63087058D01*
X55098263Y-63116073D01*
X55079328Y-63131612D01*
X55063783Y-63150554D01*
X55052232Y-63172165D01*
X55045119Y-63195614D01*
X55042717Y-63220000D01*
X55045119Y-63244386D01*
X55052232Y-63267835D01*
X55063783Y-63289446D01*
X55079328Y-63308388D01*
X55098263Y-63323927D01*
X55141686Y-63352942D01*
X55194058Y-63405314D01*
X55235207Y-63466897D01*
X55261479Y-63530325D01*
X55263551Y-63535328D01*
X55278000Y-63607966D01*
X55278000Y-63682034D01*
X55264546Y-63749672D01*
X55263550Y-63754675D01*
X55235207Y-63823103D01*
X55194058Y-63884686D01*
X55141686Y-63937058D01*
X55098263Y-63966073D01*
X55079328Y-63981612D01*
X55063783Y-64000554D01*
X55052232Y-64022165D01*
X55045119Y-64045614D01*
X55042717Y-64070000D01*
X55045119Y-64094386D01*
X55052232Y-64117835D01*
X55063783Y-64139446D01*
X55079328Y-64158388D01*
X55098263Y-64173927D01*
X55141686Y-64202942D01*
X55194058Y-64255314D01*
X55235207Y-64316897D01*
X55261479Y-64380325D01*
X55263551Y-64385328D01*
X55278000Y-64457966D01*
X55278000Y-64532034D01*
X55264546Y-64599672D01*
X55263550Y-64604675D01*
X55235207Y-64673103D01*
X55194058Y-64734686D01*
X55141686Y-64787058D01*
X55098263Y-64816073D01*
X55079328Y-64831612D01*
X55063783Y-64850554D01*
X55052232Y-64872165D01*
X55045119Y-64895614D01*
X55042717Y-64920000D01*
X55045119Y-64944386D01*
X55052232Y-64967835D01*
X55063783Y-64989446D01*
X55079328Y-65008388D01*
X55098263Y-65023927D01*
X55141686Y-65052942D01*
X55194058Y-65105314D01*
X55235207Y-65166897D01*
X55261479Y-65230325D01*
X55263551Y-65235328D01*
X55278000Y-65307966D01*
X55278000Y-65382034D01*
X55264546Y-65449672D01*
X55263550Y-65454675D01*
X55235207Y-65523103D01*
X55194058Y-65584686D01*
X55141686Y-65637058D01*
X55098263Y-65666073D01*
X55079328Y-65681612D01*
X55063783Y-65700554D01*
X55052232Y-65722165D01*
X55045119Y-65745614D01*
X55042717Y-65770000D01*
X55045119Y-65794386D01*
X55052232Y-65817835D01*
X55063783Y-65839446D01*
X55079328Y-65858388D01*
X55098263Y-65873927D01*
X55141686Y-65902942D01*
X55194058Y-65955314D01*
X55235207Y-66016897D01*
X55261479Y-66080325D01*
X55263551Y-66085328D01*
X55278000Y-66157966D01*
X55278000Y-66232034D01*
X55264546Y-66299672D01*
X55263550Y-66304675D01*
X55235207Y-66373103D01*
X55194058Y-66434686D01*
X55141686Y-66487058D01*
X55098263Y-66516073D01*
X55079328Y-66531612D01*
X55063783Y-66550554D01*
X55052232Y-66572165D01*
X55045119Y-66595614D01*
X55042717Y-66620000D01*
X55045119Y-66644386D01*
X55052232Y-66667835D01*
X55063783Y-66689446D01*
X55079328Y-66708388D01*
X55098263Y-66723927D01*
X55141686Y-66752942D01*
X55194058Y-66805314D01*
X55235207Y-66866897D01*
X55261479Y-66930325D01*
X55263551Y-66935328D01*
X55278000Y-67007966D01*
X55278000Y-67082034D01*
X55264546Y-67149672D01*
X55263550Y-67154675D01*
X55235207Y-67223103D01*
X55194058Y-67284686D01*
X55141686Y-67337058D01*
X55080103Y-67378207D01*
X55011675Y-67406550D01*
X55011674Y-67406550D01*
X55011672Y-67406551D01*
X54939034Y-67421000D01*
X54864966Y-67421000D01*
X54792328Y-67406551D01*
X54792326Y-67406550D01*
X54792325Y-67406550D01*
X54723897Y-67378207D01*
X54662314Y-67337058D01*
X54609942Y-67284686D01*
X54568793Y-67223103D01*
X54540450Y-67154675D01*
X54539455Y-67149672D01*
X54526000Y-67082034D01*
X54526000Y-67007966D01*
X54540449Y-66935328D01*
X54542521Y-66930325D01*
X54568793Y-66866897D01*
X54609942Y-66805314D01*
X54662314Y-66752942D01*
X54705737Y-66723927D01*
X54724672Y-66708388D01*
X54740217Y-66689446D01*
X54751768Y-66667835D01*
X54758881Y-66644386D01*
X54761283Y-66620000D01*
X54758881Y-66595614D01*
X54751768Y-66572165D01*
X54740217Y-66550554D01*
X54724672Y-66531612D01*
X54705737Y-66516073D01*
X54662314Y-66487058D01*
X54609942Y-66434686D01*
X54568793Y-66373103D01*
X54540450Y-66304675D01*
X54539455Y-66299672D01*
X54526000Y-66232034D01*
X54526000Y-66157966D01*
X54540449Y-66085328D01*
X54542521Y-66080325D01*
X54568793Y-66016897D01*
X54609942Y-65955314D01*
X54662314Y-65902942D01*
X54705737Y-65873927D01*
X54724672Y-65858388D01*
X54740217Y-65839446D01*
X54751768Y-65817835D01*
X54758881Y-65794386D01*
X54761283Y-65770000D01*
X54758881Y-65745614D01*
X54751768Y-65722165D01*
X54740217Y-65700554D01*
X54724672Y-65681612D01*
X54705737Y-65666073D01*
X54662314Y-65637058D01*
X54609942Y-65584686D01*
X54568793Y-65523103D01*
X54540450Y-65454675D01*
X54539455Y-65449672D01*
X54526000Y-65382034D01*
X54526000Y-65307966D01*
X54540449Y-65235328D01*
X54542521Y-65230325D01*
X54568793Y-65166897D01*
X54609942Y-65105314D01*
X54662314Y-65052942D01*
X54705737Y-65023927D01*
X54724672Y-65008388D01*
X54740217Y-64989446D01*
X54751768Y-64967835D01*
X54758881Y-64944386D01*
X54761283Y-64920000D01*
X54758881Y-64895614D01*
X54751768Y-64872165D01*
X54740217Y-64850554D01*
X54724672Y-64831612D01*
X54705737Y-64816073D01*
X54662314Y-64787058D01*
X54609942Y-64734686D01*
X54568793Y-64673103D01*
X54540450Y-64604675D01*
X54539455Y-64599672D01*
X54526000Y-64532034D01*
X54526000Y-64457966D01*
X54540449Y-64385328D01*
X54542521Y-64380325D01*
X54568793Y-64316897D01*
X54609942Y-64255314D01*
X54662314Y-64202942D01*
X54705737Y-64173927D01*
X54724672Y-64158388D01*
X54740217Y-64139446D01*
X54751768Y-64117835D01*
X54758881Y-64094386D01*
X54761283Y-64070000D01*
X54758881Y-64045614D01*
X54751768Y-64022165D01*
X54740217Y-64000554D01*
X54724672Y-63981612D01*
X54705737Y-63966073D01*
X54662314Y-63937058D01*
X54609942Y-63884686D01*
X54568793Y-63823103D01*
X54540450Y-63754675D01*
X54539455Y-63749672D01*
X54526000Y-63682034D01*
X54526000Y-63607966D01*
X54540449Y-63535328D01*
X54542521Y-63530325D01*
X54568793Y-63466897D01*
X54609942Y-63405314D01*
X54662314Y-63352942D01*
X54705737Y-63323927D01*
X54724672Y-63308388D01*
X54740217Y-63289446D01*
X54751768Y-63267835D01*
X54758881Y-63244386D01*
X54761283Y-63220000D01*
X54758881Y-63195614D01*
X54751768Y-63172165D01*
X54740217Y-63150554D01*
X54724672Y-63131612D01*
X54705737Y-63116073D01*
X54662314Y-63087058D01*
X54609942Y-63034686D01*
X54568793Y-62973103D01*
X54540450Y-62904675D01*
X54539455Y-62899672D01*
X54526000Y-62832034D01*
X54526000Y-62757966D01*
X54540449Y-62685328D01*
X54542521Y-62680325D01*
X54568793Y-62616897D01*
X54609942Y-62555314D01*
X54662314Y-62502942D01*
X54705737Y-62473927D01*
X54724672Y-62458388D01*
X54740217Y-62439446D01*
X54751768Y-62417835D01*
X54758881Y-62394386D01*
X54761283Y-62370000D01*
X54758881Y-62345614D01*
X54751768Y-62322165D01*
X54740217Y-62300554D01*
X54724672Y-62281612D01*
X54705737Y-62266073D01*
X54662314Y-62237058D01*
X54609942Y-62184686D01*
X54568793Y-62123103D01*
X54540450Y-62054675D01*
X54539455Y-62049672D01*
X54526000Y-61982034D01*
X54526000Y-61907966D01*
X54540449Y-61835328D01*
X54542521Y-61830325D01*
X54568793Y-61766897D01*
X54609942Y-61705314D01*
X54662314Y-61652942D01*
X54709476Y-61621429D01*
X54728413Y-61605887D01*
X54743958Y-61586945D01*
X54755509Y-61565335D01*
X54762622Y-61541886D01*
X54765024Y-61517500D01*
X54762622Y-61493114D01*
X54755509Y-61469665D01*
X54743958Y-61448054D01*
X54728412Y-61429112D01*
X54709476Y-61413571D01*
X54662314Y-61382058D01*
X54609942Y-61329686D01*
X54568793Y-61268103D01*
X54540450Y-61199675D01*
X54535968Y-61177141D01*
X54526000Y-61127034D01*
X54526000Y-61052966D01*
X54540449Y-60980328D01*
X54541011Y-60978971D01*
X54568793Y-60911897D01*
X54609942Y-60850314D01*
X54662314Y-60797942D01*
X54723897Y-60756793D01*
X54792325Y-60728450D01*
X54792326Y-60728450D01*
X54792328Y-60728449D01*
X54864966Y-60714000D01*
X54939034Y-60714000D01*
X55011672Y-60728449D01*
G37*
G36*
X56336672Y-60728449D02*
G01*
X56336674Y-60728450D01*
X56336675Y-60728450D01*
X56405103Y-60756793D01*
X56466686Y-60797942D01*
X56519058Y-60850314D01*
X56560207Y-60911897D01*
X56587989Y-60978971D01*
X56588551Y-60980328D01*
X56603000Y-61052966D01*
X56603000Y-61127034D01*
X56593033Y-61177141D01*
X56588550Y-61199675D01*
X56560207Y-61268103D01*
X56519058Y-61329686D01*
X56466686Y-61382058D01*
X56423263Y-61411073D01*
X56404328Y-61426612D01*
X56388783Y-61445554D01*
X56377232Y-61467165D01*
X56370119Y-61490614D01*
X56367717Y-61515000D01*
X56370119Y-61539386D01*
X56377232Y-61562835D01*
X56388783Y-61584446D01*
X56404328Y-61603388D01*
X56423263Y-61618927D01*
X56466686Y-61647942D01*
X56519058Y-61700314D01*
X56560207Y-61761897D01*
X56588550Y-61830325D01*
X56588551Y-61830328D01*
X56603000Y-61902966D01*
X56603000Y-61977034D01*
X56602006Y-61982033D01*
X56588550Y-62049675D01*
X56560207Y-62118103D01*
X56519058Y-62179686D01*
X56466686Y-62232058D01*
X56423263Y-62261073D01*
X56404328Y-62276612D01*
X56388783Y-62295554D01*
X56377232Y-62317165D01*
X56370119Y-62340614D01*
X56367717Y-62365000D01*
X56370119Y-62389386D01*
X56377232Y-62412835D01*
X56388783Y-62434446D01*
X56404328Y-62453388D01*
X56423263Y-62468927D01*
X56466686Y-62497942D01*
X56519058Y-62550314D01*
X56560207Y-62611897D01*
X56588550Y-62680325D01*
X56588551Y-62680328D01*
X56603000Y-62752966D01*
X56603000Y-62827034D01*
X56602006Y-62832033D01*
X56588550Y-62899675D01*
X56560207Y-62968103D01*
X56519058Y-63029686D01*
X56466686Y-63082058D01*
X56423263Y-63111073D01*
X56404328Y-63126612D01*
X56388783Y-63145554D01*
X56377232Y-63167165D01*
X56370119Y-63190614D01*
X56367717Y-63215000D01*
X56370119Y-63239386D01*
X56377232Y-63262835D01*
X56388783Y-63284446D01*
X56404328Y-63303388D01*
X56423263Y-63318927D01*
X56466686Y-63347942D01*
X56519058Y-63400314D01*
X56560207Y-63461897D01*
X56588550Y-63530325D01*
X56588551Y-63530328D01*
X56603000Y-63602966D01*
X56603000Y-63677034D01*
X56602006Y-63682033D01*
X56588550Y-63749675D01*
X56560207Y-63818103D01*
X56519058Y-63879686D01*
X56466686Y-63932058D01*
X56423263Y-63961073D01*
X56404328Y-63976612D01*
X56388783Y-63995554D01*
X56377232Y-64017165D01*
X56370119Y-64040614D01*
X56367717Y-64065000D01*
X56370119Y-64089386D01*
X56377232Y-64112835D01*
X56388783Y-64134446D01*
X56404328Y-64153388D01*
X56423263Y-64168927D01*
X56466686Y-64197942D01*
X56519058Y-64250314D01*
X56560207Y-64311897D01*
X56588550Y-64380325D01*
X56588551Y-64380328D01*
X56603000Y-64452966D01*
X56603000Y-64527034D01*
X56592855Y-64578036D01*
X56588550Y-64599675D01*
X56560207Y-64668103D01*
X56519058Y-64729686D01*
X56466686Y-64782058D01*
X56423263Y-64811073D01*
X56404328Y-64826612D01*
X56388783Y-64845554D01*
X56377232Y-64867165D01*
X56370119Y-64890614D01*
X56367717Y-64915000D01*
X56370119Y-64939386D01*
X56377232Y-64962835D01*
X56388783Y-64984446D01*
X56404328Y-65003388D01*
X56423263Y-65018927D01*
X56466686Y-65047942D01*
X56519058Y-65100314D01*
X56560207Y-65161897D01*
X56588550Y-65230325D01*
X56588551Y-65230328D01*
X56603000Y-65302966D01*
X56603000Y-65377034D01*
X56602006Y-65382033D01*
X56588550Y-65449675D01*
X56560207Y-65518103D01*
X56519058Y-65579686D01*
X56466686Y-65632058D01*
X56423263Y-65661073D01*
X56404328Y-65676612D01*
X56388783Y-65695554D01*
X56377232Y-65717165D01*
X56370119Y-65740614D01*
X56367717Y-65765000D01*
X56370119Y-65789386D01*
X56377232Y-65812835D01*
X56388783Y-65834446D01*
X56404328Y-65853388D01*
X56423263Y-65868927D01*
X56466686Y-65897942D01*
X56519058Y-65950314D01*
X56560207Y-66011897D01*
X56588550Y-66080325D01*
X56588551Y-66080328D01*
X56603000Y-66152966D01*
X56603000Y-66227034D01*
X56602006Y-66232033D01*
X56588550Y-66299675D01*
X56560207Y-66368103D01*
X56519058Y-66429686D01*
X56466686Y-66482058D01*
X56423263Y-66511073D01*
X56404328Y-66526612D01*
X56388783Y-66545554D01*
X56377232Y-66567165D01*
X56370119Y-66590614D01*
X56367717Y-66615000D01*
X56370119Y-66639386D01*
X56377232Y-66662835D01*
X56388783Y-66684446D01*
X56404328Y-66703388D01*
X56423263Y-66718927D01*
X56466686Y-66747942D01*
X56519058Y-66800314D01*
X56560207Y-66861897D01*
X56588550Y-66930325D01*
X56588551Y-66930328D01*
X56603000Y-67002966D01*
X56603000Y-67077034D01*
X56602006Y-67082033D01*
X56588550Y-67149675D01*
X56560207Y-67218103D01*
X56519058Y-67279686D01*
X56466686Y-67332058D01*
X56405103Y-67373207D01*
X56336675Y-67401550D01*
X56336674Y-67401550D01*
X56336672Y-67401551D01*
X56264034Y-67416000D01*
X56189966Y-67416000D01*
X56117328Y-67401551D01*
X56117326Y-67401550D01*
X56117325Y-67401550D01*
X56048897Y-67373207D01*
X55987314Y-67332058D01*
X55934942Y-67279686D01*
X55893793Y-67218103D01*
X55865450Y-67149675D01*
X55851995Y-67082033D01*
X55851000Y-67077034D01*
X55851000Y-67002966D01*
X55865449Y-66930328D01*
X55865450Y-66930325D01*
X55893793Y-66861897D01*
X55934942Y-66800314D01*
X55987314Y-66747942D01*
X56030737Y-66718927D01*
X56049672Y-66703388D01*
X56065217Y-66684446D01*
X56076768Y-66662835D01*
X56083881Y-66639386D01*
X56086283Y-66615000D01*
X56083881Y-66590614D01*
X56076768Y-66567165D01*
X56065217Y-66545554D01*
X56049672Y-66526612D01*
X56030737Y-66511073D01*
X55987314Y-66482058D01*
X55934942Y-66429686D01*
X55893793Y-66368103D01*
X55865450Y-66299675D01*
X55851995Y-66232033D01*
X55851000Y-66227034D01*
X55851000Y-66152966D01*
X55865449Y-66080328D01*
X55865450Y-66080325D01*
X55893793Y-66011897D01*
X55934942Y-65950314D01*
X55987314Y-65897942D01*
X56030737Y-65868927D01*
X56049672Y-65853388D01*
X56065217Y-65834446D01*
X56076768Y-65812835D01*
X56083881Y-65789386D01*
X56086283Y-65765000D01*
X56083881Y-65740614D01*
X56076768Y-65717165D01*
X56065217Y-65695554D01*
X56049672Y-65676612D01*
X56030737Y-65661073D01*
X55987314Y-65632058D01*
X55934942Y-65579686D01*
X55893793Y-65518103D01*
X55865450Y-65449675D01*
X55851995Y-65382033D01*
X55851000Y-65377034D01*
X55851000Y-65302966D01*
X55865449Y-65230328D01*
X55865450Y-65230325D01*
X55893793Y-65161897D01*
X55934942Y-65100314D01*
X55987314Y-65047942D01*
X56030737Y-65018927D01*
X56049672Y-65003388D01*
X56065217Y-64984446D01*
X56076768Y-64962835D01*
X56083881Y-64939386D01*
X56086283Y-64915000D01*
X56083881Y-64890614D01*
X56076768Y-64867165D01*
X56065217Y-64845554D01*
X56049672Y-64826612D01*
X56030737Y-64811073D01*
X55987314Y-64782058D01*
X55934942Y-64729686D01*
X55893793Y-64668103D01*
X55865450Y-64599675D01*
X55861146Y-64578036D01*
X55851000Y-64527034D01*
X55851000Y-64452966D01*
X55865449Y-64380328D01*
X55865450Y-64380325D01*
X55893793Y-64311897D01*
X55934942Y-64250314D01*
X55987314Y-64197942D01*
X56030737Y-64168927D01*
X56049672Y-64153388D01*
X56065217Y-64134446D01*
X56076768Y-64112835D01*
X56083881Y-64089386D01*
X56086283Y-64065000D01*
X56083881Y-64040614D01*
X56076768Y-64017165D01*
X56065217Y-63995554D01*
X56049672Y-63976612D01*
X56030737Y-63961073D01*
X55987314Y-63932058D01*
X55934942Y-63879686D01*
X55893793Y-63818103D01*
X55865450Y-63749675D01*
X55851995Y-63682033D01*
X55851000Y-63677034D01*
X55851000Y-63602966D01*
X55865449Y-63530328D01*
X55865450Y-63530325D01*
X55893793Y-63461897D01*
X55934942Y-63400314D01*
X55987314Y-63347942D01*
X56030737Y-63318927D01*
X56049672Y-63303388D01*
X56065217Y-63284446D01*
X56076768Y-63262835D01*
X56083881Y-63239386D01*
X56086283Y-63215000D01*
X56083881Y-63190614D01*
X56076768Y-63167165D01*
X56065217Y-63145554D01*
X56049672Y-63126612D01*
X56030737Y-63111073D01*
X55987314Y-63082058D01*
X55934942Y-63029686D01*
X55893793Y-62968103D01*
X55865450Y-62899675D01*
X55851995Y-62832033D01*
X55851000Y-62827034D01*
X55851000Y-62752966D01*
X55865449Y-62680328D01*
X55865450Y-62680325D01*
X55893793Y-62611897D01*
X55934942Y-62550314D01*
X55987314Y-62497942D01*
X56030737Y-62468927D01*
X56049672Y-62453388D01*
X56065217Y-62434446D01*
X56076768Y-62412835D01*
X56083881Y-62389386D01*
X56086283Y-62365000D01*
X56083881Y-62340614D01*
X56076768Y-62317165D01*
X56065217Y-62295554D01*
X56049672Y-62276612D01*
X56030737Y-62261073D01*
X55987314Y-62232058D01*
X55934942Y-62179686D01*
X55893793Y-62118103D01*
X55865450Y-62049675D01*
X55851995Y-61982033D01*
X55851000Y-61977034D01*
X55851000Y-61902966D01*
X55865449Y-61830328D01*
X55865450Y-61830325D01*
X55893793Y-61761897D01*
X55934942Y-61700314D01*
X55987314Y-61647942D01*
X56030737Y-61618927D01*
X56049672Y-61603388D01*
X56065217Y-61584446D01*
X56076768Y-61562835D01*
X56083881Y-61539386D01*
X56086283Y-61515000D01*
X56083881Y-61490614D01*
X56076768Y-61467165D01*
X56065217Y-61445554D01*
X56049672Y-61426612D01*
X56030737Y-61411073D01*
X55987314Y-61382058D01*
X55934942Y-61329686D01*
X55893793Y-61268103D01*
X55865450Y-61199675D01*
X55860968Y-61177141D01*
X55851000Y-61127034D01*
X55851000Y-61052966D01*
X55865449Y-60980328D01*
X55866011Y-60978971D01*
X55893793Y-60911897D01*
X55934942Y-60850314D01*
X55987314Y-60797942D01*
X56048897Y-60756793D01*
X56117325Y-60728450D01*
X56117326Y-60728450D01*
X56117328Y-60728449D01*
X56189966Y-60714000D01*
X56264034Y-60714000D01*
X56336672Y-60728449D01*
G37*
G36*
X59457242Y-65698404D02*
G01*
X59494337Y-65709657D01*
X59528515Y-65727925D01*
X59558481Y-65752519D01*
X59583075Y-65782485D01*
X59601343Y-65816663D01*
X59612596Y-65853758D01*
X59617000Y-65898474D01*
X59617000Y-66791526D01*
X59612596Y-66836242D01*
X59601343Y-66873337D01*
X59583075Y-66907515D01*
X59558481Y-66937481D01*
X59528515Y-66962075D01*
X59494337Y-66980343D01*
X59457242Y-66991596D01*
X59412526Y-66996000D01*
X57919474Y-66996000D01*
X57874758Y-66991596D01*
X57837663Y-66980343D01*
X57803485Y-66962075D01*
X57773519Y-66937481D01*
X57748925Y-66907515D01*
X57730657Y-66873337D01*
X57719404Y-66836242D01*
X57715000Y-66791526D01*
X57715000Y-65898474D01*
X57719404Y-65853758D01*
X57730657Y-65816663D01*
X57748925Y-65782485D01*
X57773519Y-65752519D01*
X57803485Y-65727925D01*
X57837663Y-65709657D01*
X57874758Y-65698404D01*
X57919474Y-65694000D01*
X59412526Y-65694000D01*
X59457242Y-65698404D01*
G37*
G36*
X66822048Y-63062122D02*
G01*
X66856387Y-63072539D01*
X66888036Y-63089456D01*
X66915778Y-63112222D01*
X66938544Y-63139964D01*
X66955461Y-63171613D01*
X66965878Y-63205952D01*
X66970000Y-63247807D01*
X66970000Y-64470193D01*
X66965878Y-64512048D01*
X66955461Y-64546387D01*
X66938544Y-64578036D01*
X66915778Y-64605778D01*
X66888036Y-64628544D01*
X66856387Y-64645461D01*
X66822048Y-64655878D01*
X66780193Y-64660000D01*
X63657807Y-64660000D01*
X63615952Y-64655878D01*
X63581613Y-64645461D01*
X63549964Y-64628544D01*
X63522222Y-64605778D01*
X63499456Y-64578036D01*
X63482539Y-64546387D01*
X63472122Y-64512048D01*
X63468000Y-64470193D01*
X63468000Y-63247807D01*
X63472122Y-63205952D01*
X63482539Y-63171613D01*
X63499456Y-63139964D01*
X63522222Y-63112222D01*
X63549964Y-63089456D01*
X63581613Y-63072539D01*
X63615952Y-63062122D01*
X63657807Y-63058000D01*
X66780193Y-63058000D01*
X66822048Y-63062122D01*
G37*
G36*
X61098434Y-60962686D02*
G01*
X61138284Y-60974774D01*
X61174999Y-60994399D01*
X61207186Y-61020814D01*
X61233601Y-61053001D01*
X61253226Y-61089716D01*
X61265314Y-61129566D01*
X61270000Y-61177141D01*
X61270000Y-61840859D01*
X61265314Y-61888434D01*
X61253226Y-61928284D01*
X61233601Y-61964999D01*
X61207186Y-61997186D01*
X61174999Y-62023601D01*
X61138284Y-62043226D01*
X61098434Y-62055314D01*
X61050859Y-62060000D01*
X57887141Y-62060000D01*
X57839566Y-62055314D01*
X57799716Y-62043226D01*
X57763001Y-62023601D01*
X57730814Y-61997186D01*
X57704399Y-61964999D01*
X57684774Y-61928284D01*
X57672686Y-61888434D01*
X57668000Y-61840859D01*
X57668000Y-61177141D01*
X57672686Y-61129566D01*
X57684774Y-61089716D01*
X57704399Y-61053001D01*
X57730814Y-61020814D01*
X57763001Y-60994399D01*
X57799716Y-60974774D01*
X57839566Y-60962686D01*
X57887141Y-60958000D01*
X61050859Y-60958000D01*
X61098434Y-60962686D01*
G37*
G36*
X56095213Y-59246249D02*
G01*
X56189652Y-59274897D01*
X56276687Y-59321418D01*
X56352975Y-59384025D01*
X56415582Y-59460313D01*
X56462103Y-59547348D01*
X56490751Y-59641787D01*
X56500424Y-59740000D01*
X56490751Y-59838213D01*
X56462103Y-59932652D01*
X56415582Y-60019687D01*
X56352975Y-60095975D01*
X56276687Y-60158582D01*
X56189652Y-60205103D01*
X56095213Y-60233751D01*
X56021612Y-60241000D01*
X54472388Y-60241000D01*
X54398787Y-60233751D01*
X54304348Y-60205103D01*
X54217313Y-60158582D01*
X54141025Y-60095975D01*
X54078418Y-60019687D01*
X54031897Y-59932652D01*
X54003249Y-59838213D01*
X53993576Y-59740000D01*
X54003249Y-59641787D01*
X54031897Y-59547348D01*
X54078418Y-59460313D01*
X54141025Y-59384025D01*
X54217313Y-59321418D01*
X54304348Y-59274897D01*
X54398787Y-59246249D01*
X54472388Y-59239000D01*
X56021612Y-59239000D01*
X56095213Y-59246249D01*
G37*
G36*
X52365213Y-59246249D02*
G01*
X52459652Y-59274897D01*
X52546687Y-59321418D01*
X52622975Y-59384025D01*
X52685582Y-59460313D01*
X52732103Y-59547348D01*
X52760751Y-59641787D01*
X52770424Y-59740000D01*
X52760751Y-59838213D01*
X52732103Y-59932652D01*
X52685582Y-60019687D01*
X52622975Y-60095975D01*
X52546687Y-60158582D01*
X52459652Y-60205103D01*
X52365213Y-60233751D01*
X52291612Y-60241000D01*
X51442388Y-60241000D01*
X51368787Y-60233751D01*
X51274348Y-60205103D01*
X51187313Y-60158582D01*
X51111025Y-60095975D01*
X51048418Y-60019687D01*
X51001897Y-59932652D01*
X50973249Y-59838213D01*
X50963576Y-59740000D01*
X50973249Y-59641787D01*
X51001897Y-59547348D01*
X51048418Y-59460313D01*
X51111025Y-59384025D01*
X51187313Y-59321418D01*
X51274348Y-59274897D01*
X51368787Y-59246249D01*
X51442388Y-59239000D01*
X52291612Y-59239000D01*
X52365213Y-59246249D01*
G37*
G36*
X61098434Y-58962686D02*
G01*
X61138284Y-58974774D01*
X61174999Y-58994399D01*
X61207186Y-59020814D01*
X61233601Y-59053001D01*
X61253226Y-59089716D01*
X61265314Y-59129566D01*
X61270000Y-59177141D01*
X61270000Y-59840859D01*
X61265314Y-59888434D01*
X61253226Y-59928284D01*
X61233601Y-59964999D01*
X61207186Y-59997186D01*
X61174999Y-60023601D01*
X61138284Y-60043226D01*
X61098434Y-60055314D01*
X61050859Y-60060000D01*
X57887141Y-60060000D01*
X57839566Y-60055314D01*
X57799716Y-60043226D01*
X57763001Y-60023601D01*
X57730814Y-59997186D01*
X57704399Y-59964999D01*
X57684774Y-59928284D01*
X57672686Y-59888434D01*
X57668000Y-59840859D01*
X57668000Y-59177141D01*
X57672686Y-59129566D01*
X57684774Y-59089716D01*
X57704399Y-59053001D01*
X57730814Y-59020814D01*
X57763001Y-58994399D01*
X57799716Y-58974774D01*
X57839566Y-58962686D01*
X57887141Y-58958000D01*
X61050859Y-58958000D01*
X61098434Y-58962686D01*
G37*
G36*
X66822048Y-56362122D02*
G01*
X66856387Y-56372539D01*
X66888036Y-56389456D01*
X66915778Y-56412222D01*
X66938544Y-56439964D01*
X66955461Y-56471613D01*
X66965878Y-56505952D01*
X66970000Y-56547807D01*
X66970000Y-57770193D01*
X66965878Y-57812048D01*
X66955461Y-57846387D01*
X66938544Y-57878036D01*
X66915778Y-57905778D01*
X66888036Y-57928544D01*
X66856387Y-57945461D01*
X66822048Y-57955878D01*
X66780193Y-57960000D01*
X63657807Y-57960000D01*
X63615952Y-57955878D01*
X63581613Y-57945461D01*
X63549964Y-57928544D01*
X63522222Y-57905778D01*
X63499456Y-57878036D01*
X63482539Y-57846387D01*
X63472122Y-57812048D01*
X63468000Y-57770193D01*
X63468000Y-56547807D01*
X63472122Y-56505952D01*
X63482539Y-56471613D01*
X63499456Y-56439964D01*
X63522222Y-56412222D01*
X63549964Y-56389456D01*
X63581613Y-56372539D01*
X63615952Y-56362122D01*
X63657807Y-56358000D01*
X66780193Y-56358000D01*
X66822048Y-56362122D01*
G37*
G36*
X54104780Y-49459566D02*
G01*
X54404237Y-49519131D01*
X54968401Y-49752815D01*
X55476135Y-50092072D01*
X55907928Y-50523865D01*
X56247185Y-51031599D01*
X56480869Y-51595763D01*
X56540435Y-51895220D01*
X56600000Y-52194675D01*
X56600000Y-52805325D01*
X56574479Y-52933625D01*
X56480869Y-53404237D01*
X56247185Y-53968401D01*
X55907928Y-54476135D01*
X55476135Y-54907928D01*
X54968401Y-55247185D01*
X54404237Y-55480869D01*
X54104780Y-55540434D01*
X53805325Y-55600000D01*
X53194675Y-55600000D01*
X52895220Y-55540434D01*
X52595763Y-55480869D01*
X52031599Y-55247185D01*
X51523865Y-54907928D01*
X51092072Y-54476135D01*
X50752815Y-53968401D01*
X50519131Y-53404237D01*
X50425521Y-52933625D01*
X50400000Y-52805325D01*
X50400000Y-52194675D01*
X50459565Y-51895220D01*
X50519131Y-51595763D01*
X50752815Y-51031599D01*
X51092072Y-50523865D01*
X51523865Y-50092072D01*
X52031599Y-49752815D01*
X52595763Y-49519131D01*
X52895220Y-49459566D01*
X53194675Y-49400000D01*
X53805325Y-49400000D01*
X54104780Y-49459566D01*
G37*
G36*
X112204780Y-49459566D02*
G01*
X112504237Y-49519131D01*
X113068401Y-49752815D01*
X113576135Y-50092072D01*
X114007928Y-50523865D01*
X114347185Y-51031599D01*
X114580869Y-51595763D01*
X114640434Y-51895220D01*
X114700000Y-52194675D01*
X114700000Y-52805325D01*
X114674479Y-52933625D01*
X114580869Y-53404237D01*
X114347185Y-53968401D01*
X114007928Y-54476135D01*
X113576135Y-54907928D01*
X113068401Y-55247185D01*
X112504237Y-55480869D01*
X112204780Y-55540434D01*
X111905325Y-55600000D01*
X111294675Y-55600000D01*
X110995220Y-55540434D01*
X110695763Y-55480869D01*
X110131599Y-55247185D01*
X109623865Y-54907928D01*
X109192072Y-54476135D01*
X108852815Y-53968401D01*
X108619131Y-53404237D01*
X108525521Y-52933625D01*
X108500000Y-52805325D01*
X108500000Y-52194675D01*
X108559566Y-51895220D01*
X108619131Y-51595763D01*
X108852815Y-51031599D01*
X109192072Y-50523865D01*
X109623865Y-50092072D01*
X110131599Y-49752815D01*
X110695763Y-49519131D01*
X110995220Y-49459566D01*
X111294675Y-49400000D01*
X111905325Y-49400000D01*
X112204780Y-49459566D01*
G37*
G36*
X83913512Y-52903927D02*
G01*
X84062812Y-52933624D01*
X84226784Y-53001544D01*
X84374354Y-53100147D01*
X84499853Y-53225646D01*
X84598456Y-53373216D01*
X84666376Y-53537188D01*
X84701000Y-53711259D01*
X84701000Y-53888741D01*
X84666376Y-54062812D01*
X84598456Y-54226784D01*
X84499853Y-54374354D01*
X84374354Y-54499853D01*
X84226784Y-54598456D01*
X84062812Y-54666376D01*
X83913512Y-54696073D01*
X83888742Y-54701000D01*
X83711258Y-54701000D01*
X83686488Y-54696073D01*
X83537188Y-54666376D01*
X83373216Y-54598456D01*
X83225646Y-54499853D01*
X83100147Y-54374354D01*
X83001544Y-54226784D01*
X82933624Y-54062812D01*
X82899000Y-53888741D01*
X82899000Y-53711259D01*
X82933624Y-53537188D01*
X83001544Y-53373216D01*
X83100147Y-53225646D01*
X83225646Y-53100147D01*
X83373216Y-53001544D01*
X83537188Y-52933624D01*
X83686488Y-52903927D01*
X83711258Y-52899000D01*
X83888742Y-52899000D01*
X83913512Y-52903927D01*
G37*
G36*
X96613512Y-52903927D02*
G01*
X96762812Y-52933624D01*
X96926784Y-53001544D01*
X97074354Y-53100147D01*
X97199853Y-53225646D01*
X97298456Y-53373216D01*
X97366376Y-53537188D01*
X97401000Y-53711259D01*
X97401000Y-53888741D01*
X97366376Y-54062812D01*
X97298456Y-54226784D01*
X97199853Y-54374354D01*
X97074354Y-54499853D01*
X96926784Y-54598456D01*
X96762812Y-54666376D01*
X96613512Y-54696073D01*
X96588742Y-54701000D01*
X96411258Y-54701000D01*
X96386488Y-54696073D01*
X96237188Y-54666376D01*
X96073216Y-54598456D01*
X95925646Y-54499853D01*
X95800147Y-54374354D01*
X95701544Y-54226784D01*
X95633624Y-54062812D01*
X95599000Y-53888741D01*
X95599000Y-53711259D01*
X95633624Y-53537188D01*
X95701544Y-53373216D01*
X95800147Y-53225646D01*
X95925646Y-53100147D01*
X96073216Y-53001544D01*
X96237188Y-52933624D01*
X96386488Y-52903927D01*
X96411258Y-52899000D01*
X96588742Y-52899000D01*
X96613512Y-52903927D01*
G37*
G36*
X86453512Y-52903927D02*
G01*
X86602812Y-52933624D01*
X86766784Y-53001544D01*
X86914354Y-53100147D01*
X87039853Y-53225646D01*
X87138456Y-53373216D01*
X87206376Y-53537188D01*
X87241000Y-53711259D01*
X87241000Y-53888741D01*
X87206376Y-54062812D01*
X87138456Y-54226784D01*
X87039853Y-54374354D01*
X86914354Y-54499853D01*
X86766784Y-54598456D01*
X86602812Y-54666376D01*
X86453512Y-54696073D01*
X86428742Y-54701000D01*
X86251258Y-54701000D01*
X86226488Y-54696073D01*
X86077188Y-54666376D01*
X85913216Y-54598456D01*
X85765646Y-54499853D01*
X85640147Y-54374354D01*
X85541544Y-54226784D01*
X85473624Y-54062812D01*
X85439000Y-53888741D01*
X85439000Y-53711259D01*
X85473624Y-53537188D01*
X85541544Y-53373216D01*
X85640147Y-53225646D01*
X85765646Y-53100147D01*
X85913216Y-53001544D01*
X86077188Y-52933624D01*
X86226488Y-52903927D01*
X86251258Y-52899000D01*
X86428742Y-52899000D01*
X86453512Y-52903927D01*
G37*
G36*
X88993512Y-52903927D02*
G01*
X89142812Y-52933624D01*
X89306784Y-53001544D01*
X89454354Y-53100147D01*
X89579853Y-53225646D01*
X89678456Y-53373216D01*
X89746376Y-53537188D01*
X89781000Y-53711259D01*
X89781000Y-53888741D01*
X89746376Y-54062812D01*
X89678456Y-54226784D01*
X89579853Y-54374354D01*
X89454354Y-54499853D01*
X89306784Y-54598456D01*
X89142812Y-54666376D01*
X88993512Y-54696073D01*
X88968742Y-54701000D01*
X88791258Y-54701000D01*
X88766488Y-54696073D01*
X88617188Y-54666376D01*
X88453216Y-54598456D01*
X88305646Y-54499853D01*
X88180147Y-54374354D01*
X88081544Y-54226784D01*
X88013624Y-54062812D01*
X87979000Y-53888741D01*
X87979000Y-53711259D01*
X88013624Y-53537188D01*
X88081544Y-53373216D01*
X88180147Y-53225646D01*
X88305646Y-53100147D01*
X88453216Y-53001544D01*
X88617188Y-52933624D01*
X88766488Y-52903927D01*
X88791258Y-52899000D01*
X88968742Y-52899000D01*
X88993512Y-52903927D01*
G37*
G36*
X91533512Y-52903927D02*
G01*
X91682812Y-52933624D01*
X91846784Y-53001544D01*
X91994354Y-53100147D01*
X92119853Y-53225646D01*
X92218456Y-53373216D01*
X92286376Y-53537188D01*
X92321000Y-53711259D01*
X92321000Y-53888741D01*
X92286376Y-54062812D01*
X92218456Y-54226784D01*
X92119853Y-54374354D01*
X91994354Y-54499853D01*
X91846784Y-54598456D01*
X91682812Y-54666376D01*
X91533512Y-54696073D01*
X91508742Y-54701000D01*
X91331258Y-54701000D01*
X91306488Y-54696073D01*
X91157188Y-54666376D01*
X90993216Y-54598456D01*
X90845646Y-54499853D01*
X90720147Y-54374354D01*
X90621544Y-54226784D01*
X90553624Y-54062812D01*
X90519000Y-53888741D01*
X90519000Y-53711259D01*
X90553624Y-53537188D01*
X90621544Y-53373216D01*
X90720147Y-53225646D01*
X90845646Y-53100147D01*
X90993216Y-53001544D01*
X91157188Y-52933624D01*
X91306488Y-52903927D01*
X91331258Y-52899000D01*
X91508742Y-52899000D01*
X91533512Y-52903927D01*
G37*
G36*
X94073512Y-52903927D02*
G01*
X94222812Y-52933624D01*
X94386784Y-53001544D01*
X94534354Y-53100147D01*
X94659853Y-53225646D01*
X94758456Y-53373216D01*
X94826376Y-53537188D01*
X94861000Y-53711259D01*
X94861000Y-53888741D01*
X94826376Y-54062812D01*
X94758456Y-54226784D01*
X94659853Y-54374354D01*
X94534354Y-54499853D01*
X94386784Y-54598456D01*
X94222812Y-54666376D01*
X94073512Y-54696073D01*
X94048742Y-54701000D01*
X93871258Y-54701000D01*
X93846488Y-54696073D01*
X93697188Y-54666376D01*
X93533216Y-54598456D01*
X93385646Y-54499853D01*
X93260147Y-54374354D01*
X93161544Y-54226784D01*
X93093624Y-54062812D01*
X93059000Y-53888741D01*
X93059000Y-53711259D01*
X93093624Y-53537188D01*
X93161544Y-53373216D01*
X93260147Y-53225646D01*
X93385646Y-53100147D01*
X93533216Y-53001544D01*
X93697188Y-52933624D01*
X93846488Y-52903927D01*
X93871258Y-52899000D01*
X94048742Y-52899000D01*
X94073512Y-52903927D01*
G37*
G36*
X99153512Y-52903927D02*
G01*
X99302812Y-52933624D01*
X99466784Y-53001544D01*
X99614354Y-53100147D01*
X99739853Y-53225646D01*
X99838456Y-53373216D01*
X99906376Y-53537188D01*
X99941000Y-53711259D01*
X99941000Y-53888741D01*
X99906376Y-54062812D01*
X99838456Y-54226784D01*
X99739853Y-54374354D01*
X99614354Y-54499853D01*
X99466784Y-54598456D01*
X99302812Y-54666376D01*
X99153512Y-54696073D01*
X99128742Y-54701000D01*
X98951258Y-54701000D01*
X98926488Y-54696073D01*
X98777188Y-54666376D01*
X98613216Y-54598456D01*
X98465646Y-54499853D01*
X98340147Y-54374354D01*
X98241544Y-54226784D01*
X98173624Y-54062812D01*
X98139000Y-53888741D01*
X98139000Y-53711259D01*
X98173624Y-53537188D01*
X98241544Y-53373216D01*
X98340147Y-53225646D01*
X98465646Y-53100147D01*
X98613216Y-53001544D01*
X98777188Y-52933624D01*
X98926488Y-52903927D01*
X98951258Y-52899000D01*
X99128742Y-52899000D01*
X99153512Y-52903927D01*
G37*
G36*
X101693512Y-52903927D02*
G01*
X101842812Y-52933624D01*
X102006784Y-53001544D01*
X102154354Y-53100147D01*
X102279853Y-53225646D01*
X102378456Y-53373216D01*
X102446376Y-53537188D01*
X102481000Y-53711259D01*
X102481000Y-53888741D01*
X102446376Y-54062812D01*
X102378456Y-54226784D01*
X102279853Y-54374354D01*
X102154354Y-54499853D01*
X102006784Y-54598456D01*
X101842812Y-54666376D01*
X101693512Y-54696073D01*
X101668742Y-54701000D01*
X101491258Y-54701000D01*
X101466488Y-54696073D01*
X101317188Y-54666376D01*
X101153216Y-54598456D01*
X101005646Y-54499853D01*
X100880147Y-54374354D01*
X100781544Y-54226784D01*
X100713624Y-54062812D01*
X100679000Y-53888741D01*
X100679000Y-53711259D01*
X100713624Y-53537188D01*
X100781544Y-53373216D01*
X100880147Y-53225646D01*
X101005646Y-53100147D01*
X101153216Y-53001544D01*
X101317188Y-52933624D01*
X101466488Y-52903927D01*
X101491258Y-52899000D01*
X101668742Y-52899000D01*
X101693512Y-52903927D01*
G37*
G36*
X104233512Y-52903927D02*
G01*
X104382812Y-52933624D01*
X104546784Y-53001544D01*
X104694354Y-53100147D01*
X104819853Y-53225646D01*
X104918456Y-53373216D01*
X104986376Y-53537188D01*
X105021000Y-53711259D01*
X105021000Y-53888741D01*
X104986376Y-54062812D01*
X104918456Y-54226784D01*
X104819853Y-54374354D01*
X104694354Y-54499853D01*
X104546784Y-54598456D01*
X104382812Y-54666376D01*
X104233512Y-54696073D01*
X104208742Y-54701000D01*
X104031258Y-54701000D01*
X104006488Y-54696073D01*
X103857188Y-54666376D01*
X103693216Y-54598456D01*
X103545646Y-54499853D01*
X103420147Y-54374354D01*
X103321544Y-54226784D01*
X103253624Y-54062812D01*
X103219000Y-53888741D01*
X103219000Y-53711259D01*
X103253624Y-53537188D01*
X103321544Y-53373216D01*
X103420147Y-53225646D01*
X103545646Y-53100147D01*
X103693216Y-53001544D01*
X103857188Y-52933624D01*
X104006488Y-52903927D01*
X104031258Y-52899000D01*
X104208742Y-52899000D01*
X104233512Y-52903927D01*
G37*
G36*
X106773512Y-52903927D02*
G01*
X106922812Y-52933624D01*
X107086784Y-53001544D01*
X107234354Y-53100147D01*
X107359853Y-53225646D01*
X107458456Y-53373216D01*
X107526376Y-53537188D01*
X107561000Y-53711259D01*
X107561000Y-53888741D01*
X107526376Y-54062812D01*
X107458456Y-54226784D01*
X107359853Y-54374354D01*
X107234354Y-54499853D01*
X107086784Y-54598456D01*
X106922812Y-54666376D01*
X106773512Y-54696073D01*
X106748742Y-54701000D01*
X106571258Y-54701000D01*
X106546488Y-54696073D01*
X106397188Y-54666376D01*
X106233216Y-54598456D01*
X106085646Y-54499853D01*
X105960147Y-54374354D01*
X105861544Y-54226784D01*
X105793624Y-54062812D01*
X105759000Y-53888741D01*
X105759000Y-53711259D01*
X105793624Y-53537188D01*
X105861544Y-53373216D01*
X105960147Y-53225646D01*
X106085646Y-53100147D01*
X106233216Y-53001544D01*
X106397188Y-52933624D01*
X106546488Y-52903927D01*
X106571258Y-52899000D01*
X106748742Y-52899000D01*
X106773512Y-52903927D01*
G37*
G36*
X63593512Y-52903927D02*
G01*
X63742812Y-52933624D01*
X63906784Y-53001544D01*
X64054354Y-53100147D01*
X64179853Y-53225646D01*
X64278456Y-53373216D01*
X64346376Y-53537188D01*
X64381000Y-53711259D01*
X64381000Y-53888741D01*
X64346376Y-54062812D01*
X64278456Y-54226784D01*
X64179853Y-54374354D01*
X64054354Y-54499853D01*
X63906784Y-54598456D01*
X63742812Y-54666376D01*
X63593512Y-54696073D01*
X63568742Y-54701000D01*
X63391258Y-54701000D01*
X63366488Y-54696073D01*
X63217188Y-54666376D01*
X63053216Y-54598456D01*
X62905646Y-54499853D01*
X62780147Y-54374354D01*
X62681544Y-54226784D01*
X62613624Y-54062812D01*
X62579000Y-53888741D01*
X62579000Y-53711259D01*
X62613624Y-53537188D01*
X62681544Y-53373216D01*
X62780147Y-53225646D01*
X62905646Y-53100147D01*
X63053216Y-53001544D01*
X63217188Y-52933624D01*
X63366488Y-52903927D01*
X63391258Y-52899000D01*
X63568742Y-52899000D01*
X63593512Y-52903927D01*
G37*
G36*
X61053512Y-52903927D02*
G01*
X61202812Y-52933624D01*
X61366784Y-53001544D01*
X61514354Y-53100147D01*
X61639853Y-53225646D01*
X61738456Y-53373216D01*
X61806376Y-53537188D01*
X61841000Y-53711259D01*
X61841000Y-53888741D01*
X61806376Y-54062812D01*
X61738456Y-54226784D01*
X61639853Y-54374354D01*
X61514354Y-54499853D01*
X61366784Y-54598456D01*
X61202812Y-54666376D01*
X61053512Y-54696073D01*
X61028742Y-54701000D01*
X60851258Y-54701000D01*
X60826488Y-54696073D01*
X60677188Y-54666376D01*
X60513216Y-54598456D01*
X60365646Y-54499853D01*
X60240147Y-54374354D01*
X60141544Y-54226784D01*
X60073624Y-54062812D01*
X60039000Y-53888741D01*
X60039000Y-53711259D01*
X60073624Y-53537188D01*
X60141544Y-53373216D01*
X60240147Y-53225646D01*
X60365646Y-53100147D01*
X60513216Y-53001544D01*
X60677188Y-52933624D01*
X60826488Y-52903927D01*
X60851258Y-52899000D01*
X61028742Y-52899000D01*
X61053512Y-52903927D01*
G37*
G36*
X81373512Y-52903927D02*
G01*
X81522812Y-52933624D01*
X81686784Y-53001544D01*
X81834354Y-53100147D01*
X81959853Y-53225646D01*
X82058456Y-53373216D01*
X82126376Y-53537188D01*
X82161000Y-53711259D01*
X82161000Y-53888741D01*
X82126376Y-54062812D01*
X82058456Y-54226784D01*
X81959853Y-54374354D01*
X81834354Y-54499853D01*
X81686784Y-54598456D01*
X81522812Y-54666376D01*
X81373512Y-54696073D01*
X81348742Y-54701000D01*
X81171258Y-54701000D01*
X81146488Y-54696073D01*
X80997188Y-54666376D01*
X80833216Y-54598456D01*
X80685646Y-54499853D01*
X80560147Y-54374354D01*
X80461544Y-54226784D01*
X80393624Y-54062812D01*
X80359000Y-53888741D01*
X80359000Y-53711259D01*
X80393624Y-53537188D01*
X80461544Y-53373216D01*
X80560147Y-53225646D01*
X80685646Y-53100147D01*
X80833216Y-53001544D01*
X80997188Y-52933624D01*
X81146488Y-52903927D01*
X81171258Y-52899000D01*
X81348742Y-52899000D01*
X81373512Y-52903927D01*
G37*
G36*
X59301000Y-54701000D02*
G01*
X57499000Y-54701000D01*
X57499000Y-52899000D01*
X59301000Y-52899000D01*
X59301000Y-54701000D01*
G37*
G36*
X78833512Y-52903927D02*
G01*
X78982812Y-52933624D01*
X79146784Y-53001544D01*
X79294354Y-53100147D01*
X79419853Y-53225646D01*
X79518456Y-53373216D01*
X79586376Y-53537188D01*
X79621000Y-53711259D01*
X79621000Y-53888741D01*
X79586376Y-54062812D01*
X79518456Y-54226784D01*
X79419853Y-54374354D01*
X79294354Y-54499853D01*
X79146784Y-54598456D01*
X78982812Y-54666376D01*
X78833512Y-54696073D01*
X78808742Y-54701000D01*
X78631258Y-54701000D01*
X78606488Y-54696073D01*
X78457188Y-54666376D01*
X78293216Y-54598456D01*
X78145646Y-54499853D01*
X78020147Y-54374354D01*
X77921544Y-54226784D01*
X77853624Y-54062812D01*
X77819000Y-53888741D01*
X77819000Y-53711259D01*
X77853624Y-53537188D01*
X77921544Y-53373216D01*
X78020147Y-53225646D01*
X78145646Y-53100147D01*
X78293216Y-53001544D01*
X78457188Y-52933624D01*
X78606488Y-52903927D01*
X78631258Y-52899000D01*
X78808742Y-52899000D01*
X78833512Y-52903927D01*
G37*
G36*
X76293512Y-52903927D02*
G01*
X76442812Y-52933624D01*
X76606784Y-53001544D01*
X76754354Y-53100147D01*
X76879853Y-53225646D01*
X76978456Y-53373216D01*
X77046376Y-53537188D01*
X77081000Y-53711259D01*
X77081000Y-53888741D01*
X77046376Y-54062812D01*
X76978456Y-54226784D01*
X76879853Y-54374354D01*
X76754354Y-54499853D01*
X76606784Y-54598456D01*
X76442812Y-54666376D01*
X76293512Y-54696073D01*
X76268742Y-54701000D01*
X76091258Y-54701000D01*
X76066488Y-54696073D01*
X75917188Y-54666376D01*
X75753216Y-54598456D01*
X75605646Y-54499853D01*
X75480147Y-54374354D01*
X75381544Y-54226784D01*
X75313624Y-54062812D01*
X75279000Y-53888741D01*
X75279000Y-53711259D01*
X75313624Y-53537188D01*
X75381544Y-53373216D01*
X75480147Y-53225646D01*
X75605646Y-53100147D01*
X75753216Y-53001544D01*
X75917188Y-52933624D01*
X76066488Y-52903927D01*
X76091258Y-52899000D01*
X76268742Y-52899000D01*
X76293512Y-52903927D01*
G37*
G36*
X73753512Y-52903927D02*
G01*
X73902812Y-52933624D01*
X74066784Y-53001544D01*
X74214354Y-53100147D01*
X74339853Y-53225646D01*
X74438456Y-53373216D01*
X74506376Y-53537188D01*
X74541000Y-53711259D01*
X74541000Y-53888741D01*
X74506376Y-54062812D01*
X74438456Y-54226784D01*
X74339853Y-54374354D01*
X74214354Y-54499853D01*
X74066784Y-54598456D01*
X73902812Y-54666376D01*
X73753512Y-54696073D01*
X73728742Y-54701000D01*
X73551258Y-54701000D01*
X73526488Y-54696073D01*
X73377188Y-54666376D01*
X73213216Y-54598456D01*
X73065646Y-54499853D01*
X72940147Y-54374354D01*
X72841544Y-54226784D01*
X72773624Y-54062812D01*
X72739000Y-53888741D01*
X72739000Y-53711259D01*
X72773624Y-53537188D01*
X72841544Y-53373216D01*
X72940147Y-53225646D01*
X73065646Y-53100147D01*
X73213216Y-53001544D01*
X73377188Y-52933624D01*
X73526488Y-52903927D01*
X73551258Y-52899000D01*
X73728742Y-52899000D01*
X73753512Y-52903927D01*
G37*
G36*
X71213512Y-52903927D02*
G01*
X71362812Y-52933624D01*
X71526784Y-53001544D01*
X71674354Y-53100147D01*
X71799853Y-53225646D01*
X71898456Y-53373216D01*
X71966376Y-53537188D01*
X72001000Y-53711259D01*
X72001000Y-53888741D01*
X71966376Y-54062812D01*
X71898456Y-54226784D01*
X71799853Y-54374354D01*
X71674354Y-54499853D01*
X71526784Y-54598456D01*
X71362812Y-54666376D01*
X71213512Y-54696073D01*
X71188742Y-54701000D01*
X71011258Y-54701000D01*
X70986488Y-54696073D01*
X70837188Y-54666376D01*
X70673216Y-54598456D01*
X70525646Y-54499853D01*
X70400147Y-54374354D01*
X70301544Y-54226784D01*
X70233624Y-54062812D01*
X70199000Y-53888741D01*
X70199000Y-53711259D01*
X70233624Y-53537188D01*
X70301544Y-53373216D01*
X70400147Y-53225646D01*
X70525646Y-53100147D01*
X70673216Y-53001544D01*
X70837188Y-52933624D01*
X70986488Y-52903927D01*
X71011258Y-52899000D01*
X71188742Y-52899000D01*
X71213512Y-52903927D01*
G37*
G36*
X68673512Y-52903927D02*
G01*
X68822812Y-52933624D01*
X68986784Y-53001544D01*
X69134354Y-53100147D01*
X69259853Y-53225646D01*
X69358456Y-53373216D01*
X69426376Y-53537188D01*
X69461000Y-53711259D01*
X69461000Y-53888741D01*
X69426376Y-54062812D01*
X69358456Y-54226784D01*
X69259853Y-54374354D01*
X69134354Y-54499853D01*
X68986784Y-54598456D01*
X68822812Y-54666376D01*
X68673512Y-54696073D01*
X68648742Y-54701000D01*
X68471258Y-54701000D01*
X68446488Y-54696073D01*
X68297188Y-54666376D01*
X68133216Y-54598456D01*
X67985646Y-54499853D01*
X67860147Y-54374354D01*
X67761544Y-54226784D01*
X67693624Y-54062812D01*
X67659000Y-53888741D01*
X67659000Y-53711259D01*
X67693624Y-53537188D01*
X67761544Y-53373216D01*
X67860147Y-53225646D01*
X67985646Y-53100147D01*
X68133216Y-53001544D01*
X68297188Y-52933624D01*
X68446488Y-52903927D01*
X68471258Y-52899000D01*
X68648742Y-52899000D01*
X68673512Y-52903927D01*
G37*
G36*
X66133512Y-52903927D02*
G01*
X66282812Y-52933624D01*
X66446784Y-53001544D01*
X66594354Y-53100147D01*
X66719853Y-53225646D01*
X66818456Y-53373216D01*
X66886376Y-53537188D01*
X66921000Y-53711259D01*
X66921000Y-53888741D01*
X66886376Y-54062812D01*
X66818456Y-54226784D01*
X66719853Y-54374354D01*
X66594354Y-54499853D01*
X66446784Y-54598456D01*
X66282812Y-54666376D01*
X66133512Y-54696073D01*
X66108742Y-54701000D01*
X65931258Y-54701000D01*
X65906488Y-54696073D01*
X65757188Y-54666376D01*
X65593216Y-54598456D01*
X65445646Y-54499853D01*
X65320147Y-54374354D01*
X65221544Y-54226784D01*
X65153624Y-54062812D01*
X65119000Y-53888741D01*
X65119000Y-53711259D01*
X65153624Y-53537188D01*
X65221544Y-53373216D01*
X65320147Y-53225646D01*
X65445646Y-53100147D01*
X65593216Y-53001544D01*
X65757188Y-52933624D01*
X65906488Y-52903927D01*
X65931258Y-52899000D01*
X66108742Y-52899000D01*
X66133512Y-52903927D01*
G37*
G36*
X99153512Y-50363927D02*
G01*
X99302812Y-50393624D01*
X99466784Y-50461544D01*
X99614354Y-50560147D01*
X99739853Y-50685646D01*
X99838456Y-50833216D01*
X99906376Y-50997188D01*
X99941000Y-51171259D01*
X99941000Y-51348741D01*
X99906376Y-51522812D01*
X99838456Y-51686784D01*
X99739853Y-51834354D01*
X99614354Y-51959853D01*
X99466784Y-52058456D01*
X99302812Y-52126376D01*
X99153512Y-52156073D01*
X99128742Y-52161000D01*
X98951258Y-52161000D01*
X98926488Y-52156073D01*
X98777188Y-52126376D01*
X98613216Y-52058456D01*
X98465646Y-51959853D01*
X98340147Y-51834354D01*
X98241544Y-51686784D01*
X98173624Y-51522812D01*
X98139000Y-51348741D01*
X98139000Y-51171259D01*
X98173624Y-50997188D01*
X98241544Y-50833216D01*
X98340147Y-50685646D01*
X98465646Y-50560147D01*
X98613216Y-50461544D01*
X98777188Y-50393624D01*
X98926488Y-50363927D01*
X98951258Y-50359000D01*
X99128742Y-50359000D01*
X99153512Y-50363927D01*
G37*
G36*
X101693512Y-50363927D02*
G01*
X101842812Y-50393624D01*
X102006784Y-50461544D01*
X102154354Y-50560147D01*
X102279853Y-50685646D01*
X102378456Y-50833216D01*
X102446376Y-50997188D01*
X102481000Y-51171259D01*
X102481000Y-51348741D01*
X102446376Y-51522812D01*
X102378456Y-51686784D01*
X102279853Y-51834354D01*
X102154354Y-51959853D01*
X102006784Y-52058456D01*
X101842812Y-52126376D01*
X101693512Y-52156073D01*
X101668742Y-52161000D01*
X101491258Y-52161000D01*
X101466488Y-52156073D01*
X101317188Y-52126376D01*
X101153216Y-52058456D01*
X101005646Y-51959853D01*
X100880147Y-51834354D01*
X100781544Y-51686784D01*
X100713624Y-51522812D01*
X100679000Y-51348741D01*
X100679000Y-51171259D01*
X100713624Y-50997188D01*
X100781544Y-50833216D01*
X100880147Y-50685646D01*
X101005646Y-50560147D01*
X101153216Y-50461544D01*
X101317188Y-50393624D01*
X101466488Y-50363927D01*
X101491258Y-50359000D01*
X101668742Y-50359000D01*
X101693512Y-50363927D01*
G37*
G36*
X104233512Y-50363927D02*
G01*
X104382812Y-50393624D01*
X104546784Y-50461544D01*
X104694354Y-50560147D01*
X104819853Y-50685646D01*
X104918456Y-50833216D01*
X104986376Y-50997188D01*
X105021000Y-51171259D01*
X105021000Y-51348741D01*
X104986376Y-51522812D01*
X104918456Y-51686784D01*
X104819853Y-51834354D01*
X104694354Y-51959853D01*
X104546784Y-52058456D01*
X104382812Y-52126376D01*
X104233512Y-52156073D01*
X104208742Y-52161000D01*
X104031258Y-52161000D01*
X104006488Y-52156073D01*
X103857188Y-52126376D01*
X103693216Y-52058456D01*
X103545646Y-51959853D01*
X103420147Y-51834354D01*
X103321544Y-51686784D01*
X103253624Y-51522812D01*
X103219000Y-51348741D01*
X103219000Y-51171259D01*
X103253624Y-50997188D01*
X103321544Y-50833216D01*
X103420147Y-50685646D01*
X103545646Y-50560147D01*
X103693216Y-50461544D01*
X103857188Y-50393624D01*
X104006488Y-50363927D01*
X104031258Y-50359000D01*
X104208742Y-50359000D01*
X104233512Y-50363927D01*
G37*
G36*
X106773512Y-50363927D02*
G01*
X106922812Y-50393624D01*
X107086784Y-50461544D01*
X107234354Y-50560147D01*
X107359853Y-50685646D01*
X107458456Y-50833216D01*
X107526376Y-50997188D01*
X107561000Y-51171259D01*
X107561000Y-51348741D01*
X107526376Y-51522812D01*
X107458456Y-51686784D01*
X107359853Y-51834354D01*
X107234354Y-51959853D01*
X107086784Y-52058456D01*
X106922812Y-52126376D01*
X106773512Y-52156073D01*
X106748742Y-52161000D01*
X106571258Y-52161000D01*
X106546488Y-52156073D01*
X106397188Y-52126376D01*
X106233216Y-52058456D01*
X106085646Y-51959853D01*
X105960147Y-51834354D01*
X105861544Y-51686784D01*
X105793624Y-51522812D01*
X105759000Y-51348741D01*
X105759000Y-51171259D01*
X105793624Y-50997188D01*
X105861544Y-50833216D01*
X105960147Y-50685646D01*
X106085646Y-50560147D01*
X106233216Y-50461544D01*
X106397188Y-50393624D01*
X106546488Y-50363927D01*
X106571258Y-50359000D01*
X106748742Y-50359000D01*
X106773512Y-50363927D01*
G37*
G36*
X96613512Y-50363927D02*
G01*
X96762812Y-50393624D01*
X96926784Y-50461544D01*
X97074354Y-50560147D01*
X97199853Y-50685646D01*
X97298456Y-50833216D01*
X97366376Y-50997188D01*
X97401000Y-51171259D01*
X97401000Y-51348741D01*
X97366376Y-51522812D01*
X97298456Y-51686784D01*
X97199853Y-51834354D01*
X97074354Y-51959853D01*
X96926784Y-52058456D01*
X96762812Y-52126376D01*
X96613512Y-52156073D01*
X96588742Y-52161000D01*
X96411258Y-52161000D01*
X96386488Y-52156073D01*
X96237188Y-52126376D01*
X96073216Y-52058456D01*
X95925646Y-51959853D01*
X95800147Y-51834354D01*
X95701544Y-51686784D01*
X95633624Y-51522812D01*
X95599000Y-51348741D01*
X95599000Y-51171259D01*
X95633624Y-50997188D01*
X95701544Y-50833216D01*
X95800147Y-50685646D01*
X95925646Y-50560147D01*
X96073216Y-50461544D01*
X96237188Y-50393624D01*
X96386488Y-50363927D01*
X96411258Y-50359000D01*
X96588742Y-50359000D01*
X96613512Y-50363927D01*
G37*
G36*
X58513512Y-50363927D02*
G01*
X58662812Y-50393624D01*
X58826784Y-50461544D01*
X58974354Y-50560147D01*
X59099853Y-50685646D01*
X59198456Y-50833216D01*
X59266376Y-50997188D01*
X59301000Y-51171259D01*
X59301000Y-51348741D01*
X59266376Y-51522812D01*
X59198456Y-51686784D01*
X59099853Y-51834354D01*
X58974354Y-51959853D01*
X58826784Y-52058456D01*
X58662812Y-52126376D01*
X58513512Y-52156073D01*
X58488742Y-52161000D01*
X58311258Y-52161000D01*
X58286488Y-52156073D01*
X58137188Y-52126376D01*
X57973216Y-52058456D01*
X57825646Y-51959853D01*
X57700147Y-51834354D01*
X57601544Y-51686784D01*
X57533624Y-51522812D01*
X57499000Y-51348741D01*
X57499000Y-51171259D01*
X57533624Y-50997188D01*
X57601544Y-50833216D01*
X57700147Y-50685646D01*
X57825646Y-50560147D01*
X57973216Y-50461544D01*
X58137188Y-50393624D01*
X58286488Y-50363927D01*
X58311258Y-50359000D01*
X58488742Y-50359000D01*
X58513512Y-50363927D01*
G37*
G36*
X94073512Y-50363927D02*
G01*
X94222812Y-50393624D01*
X94386784Y-50461544D01*
X94534354Y-50560147D01*
X94659853Y-50685646D01*
X94758456Y-50833216D01*
X94826376Y-50997188D01*
X94861000Y-51171259D01*
X94861000Y-51348741D01*
X94826376Y-51522812D01*
X94758456Y-51686784D01*
X94659853Y-51834354D01*
X94534354Y-51959853D01*
X94386784Y-52058456D01*
X94222812Y-52126376D01*
X94073512Y-52156073D01*
X94048742Y-52161000D01*
X93871258Y-52161000D01*
X93846488Y-52156073D01*
X93697188Y-52126376D01*
X93533216Y-52058456D01*
X93385646Y-51959853D01*
X93260147Y-51834354D01*
X93161544Y-51686784D01*
X93093624Y-51522812D01*
X93059000Y-51348741D01*
X93059000Y-51171259D01*
X93093624Y-50997188D01*
X93161544Y-50833216D01*
X93260147Y-50685646D01*
X93385646Y-50560147D01*
X93533216Y-50461544D01*
X93697188Y-50393624D01*
X93846488Y-50363927D01*
X93871258Y-50359000D01*
X94048742Y-50359000D01*
X94073512Y-50363927D01*
G37*
G36*
X61053512Y-50363927D02*
G01*
X61202812Y-50393624D01*
X61366784Y-50461544D01*
X61514354Y-50560147D01*
X61639853Y-50685646D01*
X61738456Y-50833216D01*
X61806376Y-50997188D01*
X61841000Y-51171259D01*
X61841000Y-51348741D01*
X61806376Y-51522812D01*
X61738456Y-51686784D01*
X61639853Y-51834354D01*
X61514354Y-51959853D01*
X61366784Y-52058456D01*
X61202812Y-52126376D01*
X61053512Y-52156073D01*
X61028742Y-52161000D01*
X60851258Y-52161000D01*
X60826488Y-52156073D01*
X60677188Y-52126376D01*
X60513216Y-52058456D01*
X60365646Y-51959853D01*
X60240147Y-51834354D01*
X60141544Y-51686784D01*
X60073624Y-51522812D01*
X60039000Y-51348741D01*
X60039000Y-51171259D01*
X60073624Y-50997188D01*
X60141544Y-50833216D01*
X60240147Y-50685646D01*
X60365646Y-50560147D01*
X60513216Y-50461544D01*
X60677188Y-50393624D01*
X60826488Y-50363927D01*
X60851258Y-50359000D01*
X61028742Y-50359000D01*
X61053512Y-50363927D01*
G37*
G36*
X91533512Y-50363927D02*
G01*
X91682812Y-50393624D01*
X91846784Y-50461544D01*
X91994354Y-50560147D01*
X92119853Y-50685646D01*
X92218456Y-50833216D01*
X92286376Y-50997188D01*
X92321000Y-51171259D01*
X92321000Y-51348741D01*
X92286376Y-51522812D01*
X92218456Y-51686784D01*
X92119853Y-51834354D01*
X91994354Y-51959853D01*
X91846784Y-52058456D01*
X91682812Y-52126376D01*
X91533512Y-52156073D01*
X91508742Y-52161000D01*
X91331258Y-52161000D01*
X91306488Y-52156073D01*
X91157188Y-52126376D01*
X90993216Y-52058456D01*
X90845646Y-51959853D01*
X90720147Y-51834354D01*
X90621544Y-51686784D01*
X90553624Y-51522812D01*
X90519000Y-51348741D01*
X90519000Y-51171259D01*
X90553624Y-50997188D01*
X90621544Y-50833216D01*
X90720147Y-50685646D01*
X90845646Y-50560147D01*
X90993216Y-50461544D01*
X91157188Y-50393624D01*
X91306488Y-50363927D01*
X91331258Y-50359000D01*
X91508742Y-50359000D01*
X91533512Y-50363927D01*
G37*
G36*
X63593512Y-50363927D02*
G01*
X63742812Y-50393624D01*
X63906784Y-50461544D01*
X64054354Y-50560147D01*
X64179853Y-50685646D01*
X64278456Y-50833216D01*
X64346376Y-50997188D01*
X64381000Y-51171259D01*
X64381000Y-51348741D01*
X64346376Y-51522812D01*
X64278456Y-51686784D01*
X64179853Y-51834354D01*
X64054354Y-51959853D01*
X63906784Y-52058456D01*
X63742812Y-52126376D01*
X63593512Y-52156073D01*
X63568742Y-52161000D01*
X63391258Y-52161000D01*
X63366488Y-52156073D01*
X63217188Y-52126376D01*
X63053216Y-52058456D01*
X62905646Y-51959853D01*
X62780147Y-51834354D01*
X62681544Y-51686784D01*
X62613624Y-51522812D01*
X62579000Y-51348741D01*
X62579000Y-51171259D01*
X62613624Y-50997188D01*
X62681544Y-50833216D01*
X62780147Y-50685646D01*
X62905646Y-50560147D01*
X63053216Y-50461544D01*
X63217188Y-50393624D01*
X63366488Y-50363927D01*
X63391258Y-50359000D01*
X63568742Y-50359000D01*
X63593512Y-50363927D01*
G37*
G36*
X88993512Y-50363927D02*
G01*
X89142812Y-50393624D01*
X89306784Y-50461544D01*
X89454354Y-50560147D01*
X89579853Y-50685646D01*
X89678456Y-50833216D01*
X89746376Y-50997188D01*
X89781000Y-51171259D01*
X89781000Y-51348741D01*
X89746376Y-51522812D01*
X89678456Y-51686784D01*
X89579853Y-51834354D01*
X89454354Y-51959853D01*
X89306784Y-52058456D01*
X89142812Y-52126376D01*
X88993512Y-52156073D01*
X88968742Y-52161000D01*
X88791258Y-52161000D01*
X88766488Y-52156073D01*
X88617188Y-52126376D01*
X88453216Y-52058456D01*
X88305646Y-51959853D01*
X88180147Y-51834354D01*
X88081544Y-51686784D01*
X88013624Y-51522812D01*
X87979000Y-51348741D01*
X87979000Y-51171259D01*
X88013624Y-50997188D01*
X88081544Y-50833216D01*
X88180147Y-50685646D01*
X88305646Y-50560147D01*
X88453216Y-50461544D01*
X88617188Y-50393624D01*
X88766488Y-50363927D01*
X88791258Y-50359000D01*
X88968742Y-50359000D01*
X88993512Y-50363927D01*
G37*
G36*
X66133512Y-50363927D02*
G01*
X66282812Y-50393624D01*
X66446784Y-50461544D01*
X66594354Y-50560147D01*
X66719853Y-50685646D01*
X66818456Y-50833216D01*
X66886376Y-50997188D01*
X66921000Y-51171259D01*
X66921000Y-51348741D01*
X66886376Y-51522812D01*
X66818456Y-51686784D01*
X66719853Y-51834354D01*
X66594354Y-51959853D01*
X66446784Y-52058456D01*
X66282812Y-52126376D01*
X66133512Y-52156073D01*
X66108742Y-52161000D01*
X65931258Y-52161000D01*
X65906488Y-52156073D01*
X65757188Y-52126376D01*
X65593216Y-52058456D01*
X65445646Y-51959853D01*
X65320147Y-51834354D01*
X65221544Y-51686784D01*
X65153624Y-51522812D01*
X65119000Y-51348741D01*
X65119000Y-51171259D01*
X65153624Y-50997188D01*
X65221544Y-50833216D01*
X65320147Y-50685646D01*
X65445646Y-50560147D01*
X65593216Y-50461544D01*
X65757188Y-50393624D01*
X65906488Y-50363927D01*
X65931258Y-50359000D01*
X66108742Y-50359000D01*
X66133512Y-50363927D01*
G37*
G36*
X86453512Y-50363927D02*
G01*
X86602812Y-50393624D01*
X86766784Y-50461544D01*
X86914354Y-50560147D01*
X87039853Y-50685646D01*
X87138456Y-50833216D01*
X87206376Y-50997188D01*
X87241000Y-51171259D01*
X87241000Y-51348741D01*
X87206376Y-51522812D01*
X87138456Y-51686784D01*
X87039853Y-51834354D01*
X86914354Y-51959853D01*
X86766784Y-52058456D01*
X86602812Y-52126376D01*
X86453512Y-52156073D01*
X86428742Y-52161000D01*
X86251258Y-52161000D01*
X86226488Y-52156073D01*
X86077188Y-52126376D01*
X85913216Y-52058456D01*
X85765646Y-51959853D01*
X85640147Y-51834354D01*
X85541544Y-51686784D01*
X85473624Y-51522812D01*
X85439000Y-51348741D01*
X85439000Y-51171259D01*
X85473624Y-50997188D01*
X85541544Y-50833216D01*
X85640147Y-50685646D01*
X85765646Y-50560147D01*
X85913216Y-50461544D01*
X86077188Y-50393624D01*
X86226488Y-50363927D01*
X86251258Y-50359000D01*
X86428742Y-50359000D01*
X86453512Y-50363927D01*
G37*
G36*
X68673512Y-50363927D02*
G01*
X68822812Y-50393624D01*
X68986784Y-50461544D01*
X69134354Y-50560147D01*
X69259853Y-50685646D01*
X69358456Y-50833216D01*
X69426376Y-50997188D01*
X69461000Y-51171259D01*
X69461000Y-51348741D01*
X69426376Y-51522812D01*
X69358456Y-51686784D01*
X69259853Y-51834354D01*
X69134354Y-51959853D01*
X68986784Y-52058456D01*
X68822812Y-52126376D01*
X68673512Y-52156073D01*
X68648742Y-52161000D01*
X68471258Y-52161000D01*
X68446488Y-52156073D01*
X68297188Y-52126376D01*
X68133216Y-52058456D01*
X67985646Y-51959853D01*
X67860147Y-51834354D01*
X67761544Y-51686784D01*
X67693624Y-51522812D01*
X67659000Y-51348741D01*
X67659000Y-51171259D01*
X67693624Y-50997188D01*
X67761544Y-50833216D01*
X67860147Y-50685646D01*
X67985646Y-50560147D01*
X68133216Y-50461544D01*
X68297188Y-50393624D01*
X68446488Y-50363927D01*
X68471258Y-50359000D01*
X68648742Y-50359000D01*
X68673512Y-50363927D01*
G37*
G36*
X83913512Y-50363927D02*
G01*
X84062812Y-50393624D01*
X84226784Y-50461544D01*
X84374354Y-50560147D01*
X84499853Y-50685646D01*
X84598456Y-50833216D01*
X84666376Y-50997188D01*
X84701000Y-51171259D01*
X84701000Y-51348741D01*
X84666376Y-51522812D01*
X84598456Y-51686784D01*
X84499853Y-51834354D01*
X84374354Y-51959853D01*
X84226784Y-52058456D01*
X84062812Y-52126376D01*
X83913512Y-52156073D01*
X83888742Y-52161000D01*
X83711258Y-52161000D01*
X83686488Y-52156073D01*
X83537188Y-52126376D01*
X83373216Y-52058456D01*
X83225646Y-51959853D01*
X83100147Y-51834354D01*
X83001544Y-51686784D01*
X82933624Y-51522812D01*
X82899000Y-51348741D01*
X82899000Y-51171259D01*
X82933624Y-50997188D01*
X83001544Y-50833216D01*
X83100147Y-50685646D01*
X83225646Y-50560147D01*
X83373216Y-50461544D01*
X83537188Y-50393624D01*
X83686488Y-50363927D01*
X83711258Y-50359000D01*
X83888742Y-50359000D01*
X83913512Y-50363927D01*
G37*
G36*
X71213512Y-50363927D02*
G01*
X71362812Y-50393624D01*
X71526784Y-50461544D01*
X71674354Y-50560147D01*
X71799853Y-50685646D01*
X71898456Y-50833216D01*
X71966376Y-50997188D01*
X72001000Y-51171259D01*
X72001000Y-51348741D01*
X71966376Y-51522812D01*
X71898456Y-51686784D01*
X71799853Y-51834354D01*
X71674354Y-51959853D01*
X71526784Y-52058456D01*
X71362812Y-52126376D01*
X71213512Y-52156073D01*
X71188742Y-52161000D01*
X71011258Y-52161000D01*
X70986488Y-52156073D01*
X70837188Y-52126376D01*
X70673216Y-52058456D01*
X70525646Y-51959853D01*
X70400147Y-51834354D01*
X70301544Y-51686784D01*
X70233624Y-51522812D01*
X70199000Y-51348741D01*
X70199000Y-51171259D01*
X70233624Y-50997188D01*
X70301544Y-50833216D01*
X70400147Y-50685646D01*
X70525646Y-50560147D01*
X70673216Y-50461544D01*
X70837188Y-50393624D01*
X70986488Y-50363927D01*
X71011258Y-50359000D01*
X71188742Y-50359000D01*
X71213512Y-50363927D01*
G37*
G36*
X76293512Y-50363927D02*
G01*
X76442812Y-50393624D01*
X76606784Y-50461544D01*
X76754354Y-50560147D01*
X76879853Y-50685646D01*
X76978456Y-50833216D01*
X77046376Y-50997188D01*
X77081000Y-51171259D01*
X77081000Y-51348741D01*
X77046376Y-51522812D01*
X76978456Y-51686784D01*
X76879853Y-51834354D01*
X76754354Y-51959853D01*
X76606784Y-52058456D01*
X76442812Y-52126376D01*
X76293512Y-52156073D01*
X76268742Y-52161000D01*
X76091258Y-52161000D01*
X76066488Y-52156073D01*
X75917188Y-52126376D01*
X75753216Y-52058456D01*
X75605646Y-51959853D01*
X75480147Y-51834354D01*
X75381544Y-51686784D01*
X75313624Y-51522812D01*
X75279000Y-51348741D01*
X75279000Y-51171259D01*
X75313624Y-50997188D01*
X75381544Y-50833216D01*
X75480147Y-50685646D01*
X75605646Y-50560147D01*
X75753216Y-50461544D01*
X75917188Y-50393624D01*
X76066488Y-50363927D01*
X76091258Y-50359000D01*
X76268742Y-50359000D01*
X76293512Y-50363927D01*
G37*
G36*
X78833512Y-50363927D02*
G01*
X78982812Y-50393624D01*
X79146784Y-50461544D01*
X79294354Y-50560147D01*
X79419853Y-50685646D01*
X79518456Y-50833216D01*
X79586376Y-50997188D01*
X79621000Y-51171259D01*
X79621000Y-51348741D01*
X79586376Y-51522812D01*
X79518456Y-51686784D01*
X79419853Y-51834354D01*
X79294354Y-51959853D01*
X79146784Y-52058456D01*
X78982812Y-52126376D01*
X78833512Y-52156073D01*
X78808742Y-52161000D01*
X78631258Y-52161000D01*
X78606488Y-52156073D01*
X78457188Y-52126376D01*
X78293216Y-52058456D01*
X78145646Y-51959853D01*
X78020147Y-51834354D01*
X77921544Y-51686784D01*
X77853624Y-51522812D01*
X77819000Y-51348741D01*
X77819000Y-51171259D01*
X77853624Y-50997188D01*
X77921544Y-50833216D01*
X78020147Y-50685646D01*
X78145646Y-50560147D01*
X78293216Y-50461544D01*
X78457188Y-50393624D01*
X78606488Y-50363927D01*
X78631258Y-50359000D01*
X78808742Y-50359000D01*
X78833512Y-50363927D01*
G37*
G36*
X73753512Y-50363927D02*
G01*
X73902812Y-50393624D01*
X74066784Y-50461544D01*
X74214354Y-50560147D01*
X74339853Y-50685646D01*
X74438456Y-50833216D01*
X74506376Y-50997188D01*
X74541000Y-51171259D01*
X74541000Y-51348741D01*
X74506376Y-51522812D01*
X74438456Y-51686784D01*
X74339853Y-51834354D01*
X74214354Y-51959853D01*
X74066784Y-52058456D01*
X73902812Y-52126376D01*
X73753512Y-52156073D01*
X73728742Y-52161000D01*
X73551258Y-52161000D01*
X73526488Y-52156073D01*
X73377188Y-52126376D01*
X73213216Y-52058456D01*
X73065646Y-51959853D01*
X72940147Y-51834354D01*
X72841544Y-51686784D01*
X72773624Y-51522812D01*
X72739000Y-51348741D01*
X72739000Y-51171259D01*
X72773624Y-50997188D01*
X72841544Y-50833216D01*
X72940147Y-50685646D01*
X73065646Y-50560147D01*
X73213216Y-50461544D01*
X73377188Y-50393624D01*
X73526488Y-50363927D01*
X73551258Y-50359000D01*
X73728742Y-50359000D01*
X73753512Y-50363927D01*
G37*
G36*
X81373512Y-50363927D02*
G01*
X81522812Y-50393624D01*
X81686784Y-50461544D01*
X81834354Y-50560147D01*
X81959853Y-50685646D01*
X82058456Y-50833216D01*
X82126376Y-50997188D01*
X82161000Y-51171259D01*
X82161000Y-51348741D01*
X82126376Y-51522812D01*
X82058456Y-51686784D01*
X81959853Y-51834354D01*
X81834354Y-51959853D01*
X81686784Y-52058456D01*
X81522812Y-52126376D01*
X81373512Y-52156073D01*
X81348742Y-52161000D01*
X81171258Y-52161000D01*
X81146488Y-52156073D01*
X80997188Y-52126376D01*
X80833216Y-52058456D01*
X80685646Y-51959853D01*
X80560147Y-51834354D01*
X80461544Y-51686784D01*
X80393624Y-51522812D01*
X80359000Y-51348741D01*
X80359000Y-51171259D01*
X80393624Y-50997188D01*
X80461544Y-50833216D01*
X80560147Y-50685646D01*
X80685646Y-50560147D01*
X80833216Y-50461544D01*
X80997188Y-50393624D01*
X81146488Y-50363927D01*
X81171258Y-50359000D01*
X81348742Y-50359000D01*
X81373512Y-50363927D01*
G37*
M02*
