G04 #@! TF.GenerationSoftware,KiCad,Pcbnew,(5.1.6)-1*
G04 #@! TF.CreationDate,2020-07-17T13:37:25+03:00*
G04 #@! TF.ProjectId,AstroPiMicro,41737472-6f50-4694-9d69-63726f2e6b69,1.0.8*
G04 #@! TF.SameCoordinates,Original*
G04 #@! TF.FileFunction,Soldermask,Bot*
G04 #@! TF.FilePolarity,Negative*
%FSLAX46Y46*%
G04 Gerber Fmt 4.6, Leading zero omitted, Abs format (unit mm)*
G04 Created by KiCad (PCBNEW (5.1.6)-1) date 2020-07-17 13:37:25*
%MOMM*%
%LPD*%
G01*
G04 APERTURE LIST*
%ADD10C,0.100000*%
G04 APERTURE END LIST*
D10*
G36*
X112204780Y-98459565D02*
G01*
X112504237Y-98519131D01*
X113068401Y-98752815D01*
X113576135Y-99092072D01*
X114007928Y-99523865D01*
X114347185Y-100031599D01*
X114580869Y-100595763D01*
X114700000Y-101194677D01*
X114700000Y-101805323D01*
X114580869Y-102404237D01*
X114347185Y-102968401D01*
X114007928Y-103476135D01*
X113576135Y-103907928D01*
X113068401Y-104247185D01*
X112504237Y-104480869D01*
X112204780Y-104540435D01*
X111905325Y-104600000D01*
X111294675Y-104600000D01*
X110995220Y-104540435D01*
X110695763Y-104480869D01*
X110131599Y-104247185D01*
X109623865Y-103907928D01*
X109192072Y-103476135D01*
X108852815Y-102968401D01*
X108619131Y-102404237D01*
X108500000Y-101805323D01*
X108500000Y-101194677D01*
X108619131Y-100595763D01*
X108852815Y-100031599D01*
X109192072Y-99523865D01*
X109623865Y-99092072D01*
X110131599Y-98752815D01*
X110695763Y-98519131D01*
X110995220Y-98459565D01*
X111294675Y-98400000D01*
X111905325Y-98400000D01*
X112204780Y-98459565D01*
G37*
G36*
X54204780Y-98459565D02*
G01*
X54504237Y-98519131D01*
X55068401Y-98752815D01*
X55576135Y-99092072D01*
X56007928Y-99523865D01*
X56347185Y-100031599D01*
X56580869Y-100595763D01*
X56700000Y-101194677D01*
X56700000Y-101805323D01*
X56580869Y-102404237D01*
X56347185Y-102968401D01*
X56007928Y-103476135D01*
X55576135Y-103907928D01*
X55068401Y-104247185D01*
X54504237Y-104480869D01*
X54204780Y-104540435D01*
X53905325Y-104600000D01*
X53294675Y-104600000D01*
X52995220Y-104540435D01*
X52695763Y-104480869D01*
X52131599Y-104247185D01*
X51623865Y-103907928D01*
X51192072Y-103476135D01*
X50852815Y-102968401D01*
X50619131Y-102404237D01*
X50500000Y-101805323D01*
X50500000Y-101194677D01*
X50619131Y-100595763D01*
X50852815Y-100031599D01*
X51192072Y-99523865D01*
X51623865Y-99092072D01*
X52131599Y-98752815D01*
X52695763Y-98519131D01*
X52995220Y-98459565D01*
X53294675Y-98400000D01*
X53905325Y-98400000D01*
X54204780Y-98459565D01*
G37*
G36*
X68395514Y-102424973D02*
G01*
X68499378Y-102456479D01*
X68543407Y-102480013D01*
X68595099Y-102507643D01*
X68595101Y-102507644D01*
X68595100Y-102507644D01*
X68679001Y-102576499D01*
X68747856Y-102660400D01*
X68799021Y-102756121D01*
X68830527Y-102859985D01*
X68838500Y-102940933D01*
X68838500Y-103795067D01*
X68830527Y-103876015D01*
X68799021Y-103979879D01*
X68799019Y-103979882D01*
X68747857Y-104075600D01*
X68679001Y-104159501D01*
X68595100Y-104228357D01*
X68526555Y-104264995D01*
X68499379Y-104279521D01*
X68395515Y-104311027D01*
X68287500Y-104321666D01*
X68179486Y-104311027D01*
X68075622Y-104279521D01*
X68048446Y-104264995D01*
X67979901Y-104228357D01*
X67896000Y-104159501D01*
X67827144Y-104075600D01*
X67775982Y-103979882D01*
X67775980Y-103979879D01*
X67744473Y-103876015D01*
X67736500Y-103795067D01*
X67736500Y-102940934D01*
X67744473Y-102859986D01*
X67775979Y-102756122D01*
X67827144Y-102660400D01*
X67895999Y-102576499D01*
X67979900Y-102507644D01*
X67979899Y-102507644D01*
X67979901Y-102507643D01*
X68031593Y-102480013D01*
X68075621Y-102456479D01*
X68179485Y-102424973D01*
X68287500Y-102414334D01*
X68395514Y-102424973D01*
G37*
G36*
X59755514Y-102424973D02*
G01*
X59859378Y-102456479D01*
X59903407Y-102480013D01*
X59955099Y-102507643D01*
X59955101Y-102507644D01*
X59955100Y-102507644D01*
X60039001Y-102576499D01*
X60107856Y-102660400D01*
X60159021Y-102756121D01*
X60190527Y-102859985D01*
X60198500Y-102940933D01*
X60198500Y-103795067D01*
X60190527Y-103876015D01*
X60159021Y-103979879D01*
X60159019Y-103979882D01*
X60107857Y-104075600D01*
X60039001Y-104159501D01*
X59955100Y-104228357D01*
X59886555Y-104264995D01*
X59859379Y-104279521D01*
X59755515Y-104311027D01*
X59647500Y-104321666D01*
X59539486Y-104311027D01*
X59435622Y-104279521D01*
X59408446Y-104264995D01*
X59339901Y-104228357D01*
X59256000Y-104159501D01*
X59187144Y-104075600D01*
X59135982Y-103979882D01*
X59135980Y-103979879D01*
X59104473Y-103876015D01*
X59096500Y-103795067D01*
X59096500Y-102940934D01*
X59104473Y-102859986D01*
X59135979Y-102756122D01*
X59187144Y-102660400D01*
X59255999Y-102576499D01*
X59339900Y-102507644D01*
X59339899Y-102507644D01*
X59339901Y-102507643D01*
X59391593Y-102480013D01*
X59435621Y-102456479D01*
X59539485Y-102424973D01*
X59647500Y-102414334D01*
X59755514Y-102424973D01*
G37*
G36*
X68395514Y-98624973D02*
G01*
X68499378Y-98656479D01*
X68543407Y-98680013D01*
X68595099Y-98707643D01*
X68595101Y-98707644D01*
X68595100Y-98707644D01*
X68679001Y-98776499D01*
X68747856Y-98860400D01*
X68799021Y-98956121D01*
X68830527Y-99059985D01*
X68838500Y-99140933D01*
X68838500Y-99995067D01*
X68830527Y-100076015D01*
X68799021Y-100179879D01*
X68799019Y-100179882D01*
X68747857Y-100275600D01*
X68679001Y-100359501D01*
X68595100Y-100428357D01*
X68526555Y-100464995D01*
X68499379Y-100479521D01*
X68395515Y-100511027D01*
X68287500Y-100521666D01*
X68179486Y-100511027D01*
X68075622Y-100479521D01*
X68048446Y-100464995D01*
X67979901Y-100428357D01*
X67896000Y-100359501D01*
X67827144Y-100275600D01*
X67775982Y-100179882D01*
X67775980Y-100179879D01*
X67744473Y-100076015D01*
X67736500Y-99995067D01*
X67736500Y-99140934D01*
X67744473Y-99059986D01*
X67775979Y-98956122D01*
X67827144Y-98860400D01*
X67895999Y-98776499D01*
X67979900Y-98707644D01*
X67979899Y-98707644D01*
X67979901Y-98707643D01*
X68031593Y-98680013D01*
X68075621Y-98656479D01*
X68179485Y-98624973D01*
X68287500Y-98614334D01*
X68395514Y-98624973D01*
G37*
G36*
X59755514Y-98624973D02*
G01*
X59859378Y-98656479D01*
X59903407Y-98680013D01*
X59955099Y-98707643D01*
X59955101Y-98707644D01*
X59955100Y-98707644D01*
X60039001Y-98776499D01*
X60107856Y-98860400D01*
X60159021Y-98956121D01*
X60190527Y-99059985D01*
X60198500Y-99140933D01*
X60198500Y-99995067D01*
X60190527Y-100076015D01*
X60159021Y-100179879D01*
X60159019Y-100179882D01*
X60107857Y-100275600D01*
X60039001Y-100359501D01*
X59955100Y-100428357D01*
X59886555Y-100464995D01*
X59859379Y-100479521D01*
X59755515Y-100511027D01*
X59647500Y-100521666D01*
X59539486Y-100511027D01*
X59435622Y-100479521D01*
X59408446Y-100464995D01*
X59339901Y-100428357D01*
X59256000Y-100359501D01*
X59187144Y-100275600D01*
X59135982Y-100179882D01*
X59135980Y-100179879D01*
X59104473Y-100076015D01*
X59096500Y-99995067D01*
X59096500Y-99140934D01*
X59104473Y-99059986D01*
X59135979Y-98956122D01*
X59187144Y-98860400D01*
X59255999Y-98776499D01*
X59339900Y-98707644D01*
X59339899Y-98707644D01*
X59339901Y-98707643D01*
X59391593Y-98680013D01*
X59435621Y-98656479D01*
X59539485Y-98624973D01*
X59647500Y-98614334D01*
X59755514Y-98624973D01*
G37*
G36*
X52358240Y-94539126D02*
G01*
X52406636Y-94548753D01*
X52444402Y-94564396D01*
X52497811Y-94586519D01*
X52497812Y-94586520D01*
X52579869Y-94641348D01*
X52649652Y-94711131D01*
X52649653Y-94711133D01*
X52704481Y-94793189D01*
X52742247Y-94884365D01*
X52761500Y-94981155D01*
X52761500Y-95079845D01*
X52742247Y-95176635D01*
X52704481Y-95267811D01*
X52704480Y-95267812D01*
X52649652Y-95349869D01*
X52579869Y-95419652D01*
X52574285Y-95423383D01*
X52497811Y-95474481D01*
X52467623Y-95486985D01*
X52406636Y-95512247D01*
X52358240Y-95521873D01*
X52309845Y-95531500D01*
X52211155Y-95531500D01*
X52162760Y-95521873D01*
X52114364Y-95512247D01*
X52053377Y-95486985D01*
X52023189Y-95474481D01*
X51946715Y-95423383D01*
X51941131Y-95419652D01*
X51871348Y-95349869D01*
X51816520Y-95267812D01*
X51816519Y-95267811D01*
X51778753Y-95176635D01*
X51759500Y-95079845D01*
X51759500Y-94981155D01*
X51778753Y-94884365D01*
X51816519Y-94793189D01*
X51871347Y-94711133D01*
X51871348Y-94711131D01*
X51941131Y-94641348D01*
X52023188Y-94586520D01*
X52023189Y-94586519D01*
X52076598Y-94564396D01*
X52114364Y-94548753D01*
X52162760Y-94539126D01*
X52211155Y-94529500D01*
X52309845Y-94529500D01*
X52358240Y-94539126D01*
G37*
G36*
X107883600Y-93702989D02*
G01*
X107916652Y-93713015D01*
X107947103Y-93729292D01*
X107973799Y-93751201D01*
X107995708Y-93777897D01*
X108011985Y-93808348D01*
X108022011Y-93841400D01*
X108026000Y-93881903D01*
X108026000Y-95318097D01*
X108022011Y-95358600D01*
X108011985Y-95391652D01*
X107995708Y-95422103D01*
X107973799Y-95448799D01*
X107947103Y-95470708D01*
X107916652Y-95486985D01*
X107883600Y-95497011D01*
X107843097Y-95501000D01*
X106156903Y-95501000D01*
X106116400Y-95497011D01*
X106083348Y-95486985D01*
X106052897Y-95470708D01*
X106026201Y-95448799D01*
X106004292Y-95422103D01*
X105988015Y-95391652D01*
X105977989Y-95358600D01*
X105974000Y-95318097D01*
X105974000Y-93881903D01*
X105977989Y-93841400D01*
X105988015Y-93808348D01*
X106004292Y-93777897D01*
X106026201Y-93751201D01*
X106052897Y-93729292D01*
X106083348Y-93713015D01*
X106116400Y-93702989D01*
X106156903Y-93699000D01*
X107843097Y-93699000D01*
X107883600Y-93702989D01*
G37*
G36*
X107235443Y-91205519D02*
G01*
X107301627Y-91212037D01*
X107471466Y-91263557D01*
X107627991Y-91347222D01*
X107663729Y-91376552D01*
X107765186Y-91459814D01*
X107848448Y-91561271D01*
X107877778Y-91597009D01*
X107961443Y-91753534D01*
X108012963Y-91923373D01*
X108030359Y-92100000D01*
X108012963Y-92276627D01*
X107961443Y-92446466D01*
X107877778Y-92602991D01*
X107848448Y-92638729D01*
X107765186Y-92740186D01*
X107663729Y-92823448D01*
X107627991Y-92852778D01*
X107471466Y-92936443D01*
X107301627Y-92987963D01*
X107235442Y-92994482D01*
X107169260Y-93001000D01*
X106830740Y-93001000D01*
X106764558Y-92994482D01*
X106698373Y-92987963D01*
X106528534Y-92936443D01*
X106372009Y-92852778D01*
X106336271Y-92823448D01*
X106234814Y-92740186D01*
X106151552Y-92638729D01*
X106122222Y-92602991D01*
X106038557Y-92446466D01*
X105987037Y-92276627D01*
X105969641Y-92100000D01*
X105987037Y-91923373D01*
X106038557Y-91753534D01*
X106122222Y-91597009D01*
X106151552Y-91561271D01*
X106234814Y-91459814D01*
X106336271Y-91376552D01*
X106372009Y-91347222D01*
X106528534Y-91263557D01*
X106698373Y-91212037D01*
X106764557Y-91205519D01*
X106830740Y-91199000D01*
X107169260Y-91199000D01*
X107235443Y-91205519D01*
G37*
G36*
X107235442Y-88705518D02*
G01*
X107301627Y-88712037D01*
X107471466Y-88763557D01*
X107627991Y-88847222D01*
X107663729Y-88876552D01*
X107765186Y-88959814D01*
X107848448Y-89061271D01*
X107877778Y-89097009D01*
X107961443Y-89253534D01*
X108012963Y-89423373D01*
X108030359Y-89600000D01*
X108012963Y-89776627D01*
X107961443Y-89946466D01*
X107877778Y-90102991D01*
X107848448Y-90138729D01*
X107765186Y-90240186D01*
X107663729Y-90323448D01*
X107627991Y-90352778D01*
X107471466Y-90436443D01*
X107301627Y-90487963D01*
X107235442Y-90494482D01*
X107169260Y-90501000D01*
X106830740Y-90501000D01*
X106764558Y-90494482D01*
X106698373Y-90487963D01*
X106528534Y-90436443D01*
X106372009Y-90352778D01*
X106336271Y-90323448D01*
X106234814Y-90240186D01*
X106151552Y-90138729D01*
X106122222Y-90102991D01*
X106038557Y-89946466D01*
X105987037Y-89776627D01*
X105969641Y-89600000D01*
X105987037Y-89423373D01*
X106038557Y-89253534D01*
X106122222Y-89097009D01*
X106151552Y-89061271D01*
X106234814Y-88959814D01*
X106336271Y-88876552D01*
X106372009Y-88847222D01*
X106528534Y-88763557D01*
X106698373Y-88712037D01*
X106764558Y-88705518D01*
X106830740Y-88699000D01*
X107169260Y-88699000D01*
X107235442Y-88705518D01*
G37*
G36*
X52358240Y-87739126D02*
G01*
X52406636Y-87748753D01*
X52444402Y-87764396D01*
X52497811Y-87786519D01*
X52497812Y-87786520D01*
X52579869Y-87841348D01*
X52649652Y-87911131D01*
X52649653Y-87911133D01*
X52704481Y-87993189D01*
X52742247Y-88084365D01*
X52761500Y-88181155D01*
X52761500Y-88279845D01*
X52742247Y-88376635D01*
X52704481Y-88467811D01*
X52704480Y-88467812D01*
X52649652Y-88549869D01*
X52579869Y-88619652D01*
X52538562Y-88647252D01*
X52497811Y-88674481D01*
X52444402Y-88696604D01*
X52406636Y-88712247D01*
X52358240Y-88721874D01*
X52309845Y-88731500D01*
X52211155Y-88731500D01*
X52162760Y-88721874D01*
X52114364Y-88712247D01*
X52076598Y-88696604D01*
X52023189Y-88674481D01*
X51982438Y-88647252D01*
X51941131Y-88619652D01*
X51871348Y-88549869D01*
X51816520Y-88467812D01*
X51816519Y-88467811D01*
X51778753Y-88376635D01*
X51759500Y-88279845D01*
X51759500Y-88181155D01*
X51778753Y-88084365D01*
X51816519Y-87993189D01*
X51871347Y-87911133D01*
X51871348Y-87911131D01*
X51941131Y-87841348D01*
X52023188Y-87786520D01*
X52023189Y-87786519D01*
X52076598Y-87764396D01*
X52114364Y-87748753D01*
X52162760Y-87739126D01*
X52211155Y-87729500D01*
X52309845Y-87729500D01*
X52358240Y-87739126D01*
G37*
G36*
X107235443Y-86205519D02*
G01*
X107301627Y-86212037D01*
X107471466Y-86263557D01*
X107627991Y-86347222D01*
X107663729Y-86376552D01*
X107765186Y-86459814D01*
X107848448Y-86561271D01*
X107877778Y-86597009D01*
X107961443Y-86753534D01*
X108012963Y-86923373D01*
X108030359Y-87100000D01*
X108012963Y-87276627D01*
X107961443Y-87446466D01*
X107877778Y-87602991D01*
X107848448Y-87638729D01*
X107765186Y-87740186D01*
X107663729Y-87823448D01*
X107627991Y-87852778D01*
X107471466Y-87936443D01*
X107301627Y-87987963D01*
X107235442Y-87994482D01*
X107169260Y-88001000D01*
X106830740Y-88001000D01*
X106764558Y-87994482D01*
X106698373Y-87987963D01*
X106528534Y-87936443D01*
X106372009Y-87852778D01*
X106336271Y-87823448D01*
X106234814Y-87740186D01*
X106151552Y-87638729D01*
X106122222Y-87602991D01*
X106038557Y-87446466D01*
X105987037Y-87276627D01*
X105969641Y-87100000D01*
X105987037Y-86923373D01*
X106038557Y-86753534D01*
X106122222Y-86597009D01*
X106151552Y-86561271D01*
X106234814Y-86459814D01*
X106336271Y-86376552D01*
X106372009Y-86347222D01*
X106528534Y-86263557D01*
X106698373Y-86212037D01*
X106764557Y-86205519D01*
X106830740Y-86199000D01*
X107169260Y-86199000D01*
X107235443Y-86205519D01*
G37*
G36*
X107817600Y-79839989D02*
G01*
X107850652Y-79850015D01*
X107881103Y-79866292D01*
X107907799Y-79888201D01*
X107929708Y-79914897D01*
X107945985Y-79945348D01*
X107956011Y-79978400D01*
X107960000Y-80018903D01*
X107960000Y-81455097D01*
X107956011Y-81495600D01*
X107945985Y-81528652D01*
X107929708Y-81559103D01*
X107907799Y-81585799D01*
X107881103Y-81607708D01*
X107850652Y-81623985D01*
X107817600Y-81634011D01*
X107777097Y-81638000D01*
X106090903Y-81638000D01*
X106050400Y-81634011D01*
X106017348Y-81623985D01*
X105986897Y-81607708D01*
X105960201Y-81585799D01*
X105938292Y-81559103D01*
X105922015Y-81528652D01*
X105911989Y-81495600D01*
X105908000Y-81455097D01*
X105908000Y-80018903D01*
X105911989Y-79978400D01*
X105922015Y-79945348D01*
X105938292Y-79914897D01*
X105960201Y-79888201D01*
X105986897Y-79866292D01*
X106017348Y-79850015D01*
X106050400Y-79839989D01*
X106090903Y-79836000D01*
X107777097Y-79836000D01*
X107817600Y-79839989D01*
G37*
G36*
X107169443Y-77342519D02*
G01*
X107235627Y-77349037D01*
X107405466Y-77400557D01*
X107561991Y-77484222D01*
X107597729Y-77513552D01*
X107699186Y-77596814D01*
X107782448Y-77698271D01*
X107811778Y-77734009D01*
X107895443Y-77890534D01*
X107946963Y-78060373D01*
X107964359Y-78237000D01*
X107946963Y-78413627D01*
X107895443Y-78583466D01*
X107811778Y-78739991D01*
X107782448Y-78775729D01*
X107699186Y-78877186D01*
X107597729Y-78960448D01*
X107561991Y-78989778D01*
X107405466Y-79073443D01*
X107235627Y-79124963D01*
X107169443Y-79131481D01*
X107103260Y-79138000D01*
X106764740Y-79138000D01*
X106698557Y-79131481D01*
X106632373Y-79124963D01*
X106462534Y-79073443D01*
X106306009Y-78989778D01*
X106270271Y-78960448D01*
X106168814Y-78877186D01*
X106085552Y-78775729D01*
X106056222Y-78739991D01*
X105972557Y-78583466D01*
X105921037Y-78413627D01*
X105903641Y-78237000D01*
X105921037Y-78060373D01*
X105972557Y-77890534D01*
X106056222Y-77734009D01*
X106085552Y-77698271D01*
X106168814Y-77596814D01*
X106270271Y-77513552D01*
X106306009Y-77484222D01*
X106462534Y-77400557D01*
X106632373Y-77349037D01*
X106698557Y-77342519D01*
X106764740Y-77336000D01*
X107103260Y-77336000D01*
X107169443Y-77342519D01*
G37*
G36*
X107169443Y-74842519D02*
G01*
X107235627Y-74849037D01*
X107405466Y-74900557D01*
X107561991Y-74984222D01*
X107597729Y-75013552D01*
X107699186Y-75096814D01*
X107782448Y-75198271D01*
X107811778Y-75234009D01*
X107895443Y-75390534D01*
X107946963Y-75560373D01*
X107964359Y-75737000D01*
X107946963Y-75913627D01*
X107895443Y-76083466D01*
X107811778Y-76239991D01*
X107782448Y-76275729D01*
X107699186Y-76377186D01*
X107597729Y-76460448D01*
X107561991Y-76489778D01*
X107405466Y-76573443D01*
X107235627Y-76624963D01*
X107169442Y-76631482D01*
X107103260Y-76638000D01*
X106764740Y-76638000D01*
X106698558Y-76631482D01*
X106632373Y-76624963D01*
X106462534Y-76573443D01*
X106306009Y-76489778D01*
X106270271Y-76460448D01*
X106168814Y-76377186D01*
X106085552Y-76275729D01*
X106056222Y-76239991D01*
X105972557Y-76083466D01*
X105921037Y-75913627D01*
X105903641Y-75737000D01*
X105921037Y-75560373D01*
X105972557Y-75390534D01*
X106056222Y-75234009D01*
X106085552Y-75198271D01*
X106168814Y-75096814D01*
X106270271Y-75013552D01*
X106306009Y-74984222D01*
X106462534Y-74900557D01*
X106632373Y-74849037D01*
X106698557Y-74842519D01*
X106764740Y-74836000D01*
X107103260Y-74836000D01*
X107169443Y-74842519D01*
G37*
G36*
X107169443Y-72342519D02*
G01*
X107235627Y-72349037D01*
X107405466Y-72400557D01*
X107561991Y-72484222D01*
X107597729Y-72513552D01*
X107699186Y-72596814D01*
X107782448Y-72698271D01*
X107811778Y-72734009D01*
X107895443Y-72890534D01*
X107946963Y-73060373D01*
X107964359Y-73237000D01*
X107946963Y-73413627D01*
X107895443Y-73583466D01*
X107811778Y-73739991D01*
X107782448Y-73775729D01*
X107699186Y-73877186D01*
X107597729Y-73960448D01*
X107561991Y-73989778D01*
X107405466Y-74073443D01*
X107235627Y-74124963D01*
X107169442Y-74131482D01*
X107103260Y-74138000D01*
X106764740Y-74138000D01*
X106698558Y-74131482D01*
X106632373Y-74124963D01*
X106462534Y-74073443D01*
X106306009Y-73989778D01*
X106270271Y-73960448D01*
X106168814Y-73877186D01*
X106085552Y-73775729D01*
X106056222Y-73739991D01*
X105972557Y-73583466D01*
X105921037Y-73413627D01*
X105903641Y-73237000D01*
X105921037Y-73060373D01*
X105972557Y-72890534D01*
X106056222Y-72734009D01*
X106085552Y-72698271D01*
X106168814Y-72596814D01*
X106270271Y-72513552D01*
X106306009Y-72484222D01*
X106462534Y-72400557D01*
X106632373Y-72349037D01*
X106698557Y-72342519D01*
X106764740Y-72336000D01*
X107103260Y-72336000D01*
X107169443Y-72342519D01*
G37*
G36*
X107783600Y-66002989D02*
G01*
X107816652Y-66013015D01*
X107847103Y-66029292D01*
X107873799Y-66051201D01*
X107895708Y-66077897D01*
X107911985Y-66108348D01*
X107922011Y-66141400D01*
X107926000Y-66181903D01*
X107926000Y-67618097D01*
X107922011Y-67658600D01*
X107911985Y-67691652D01*
X107895708Y-67722103D01*
X107873799Y-67748799D01*
X107847103Y-67770708D01*
X107816652Y-67786985D01*
X107783600Y-67797011D01*
X107743097Y-67801000D01*
X106056903Y-67801000D01*
X106016400Y-67797011D01*
X105983348Y-67786985D01*
X105952897Y-67770708D01*
X105926201Y-67748799D01*
X105904292Y-67722103D01*
X105888015Y-67691652D01*
X105877989Y-67658600D01*
X105874000Y-67618097D01*
X105874000Y-66181903D01*
X105877989Y-66141400D01*
X105888015Y-66108348D01*
X105904292Y-66077897D01*
X105926201Y-66051201D01*
X105952897Y-66029292D01*
X105983348Y-66013015D01*
X106016400Y-66002989D01*
X106056903Y-65999000D01*
X107743097Y-65999000D01*
X107783600Y-66002989D01*
G37*
G36*
X107135443Y-63505519D02*
G01*
X107201627Y-63512037D01*
X107371466Y-63563557D01*
X107527991Y-63647222D01*
X107563729Y-63676552D01*
X107665186Y-63759814D01*
X107748448Y-63861271D01*
X107777778Y-63897009D01*
X107861443Y-64053534D01*
X107912963Y-64223373D01*
X107930359Y-64400000D01*
X107912963Y-64576627D01*
X107861443Y-64746466D01*
X107777778Y-64902991D01*
X107748448Y-64938729D01*
X107665186Y-65040186D01*
X107563729Y-65123448D01*
X107527991Y-65152778D01*
X107371466Y-65236443D01*
X107201627Y-65287963D01*
X107135443Y-65294481D01*
X107069260Y-65301000D01*
X106730740Y-65301000D01*
X106664557Y-65294481D01*
X106598373Y-65287963D01*
X106428534Y-65236443D01*
X106272009Y-65152778D01*
X106236271Y-65123448D01*
X106134814Y-65040186D01*
X106051552Y-64938729D01*
X106022222Y-64902991D01*
X105938557Y-64746466D01*
X105887037Y-64576627D01*
X105869641Y-64400000D01*
X105887037Y-64223373D01*
X105938557Y-64053534D01*
X106022222Y-63897009D01*
X106051552Y-63861271D01*
X106134814Y-63759814D01*
X106236271Y-63676552D01*
X106272009Y-63647222D01*
X106428534Y-63563557D01*
X106598373Y-63512037D01*
X106664557Y-63505519D01*
X106730740Y-63499000D01*
X107069260Y-63499000D01*
X107135443Y-63505519D01*
G37*
G36*
X107135443Y-61005519D02*
G01*
X107201627Y-61012037D01*
X107371466Y-61063557D01*
X107527991Y-61147222D01*
X107563729Y-61176552D01*
X107665186Y-61259814D01*
X107748448Y-61361271D01*
X107777778Y-61397009D01*
X107861443Y-61553534D01*
X107912963Y-61723373D01*
X107930359Y-61900000D01*
X107912963Y-62076627D01*
X107861443Y-62246466D01*
X107777778Y-62402991D01*
X107748448Y-62438729D01*
X107665186Y-62540186D01*
X107563729Y-62623448D01*
X107527991Y-62652778D01*
X107371466Y-62736443D01*
X107201627Y-62787963D01*
X107135442Y-62794482D01*
X107069260Y-62801000D01*
X106730740Y-62801000D01*
X106664558Y-62794482D01*
X106598373Y-62787963D01*
X106428534Y-62736443D01*
X106272009Y-62652778D01*
X106236271Y-62623448D01*
X106134814Y-62540186D01*
X106051552Y-62438729D01*
X106022222Y-62402991D01*
X105938557Y-62246466D01*
X105887037Y-62076627D01*
X105869641Y-61900000D01*
X105887037Y-61723373D01*
X105938557Y-61553534D01*
X106022222Y-61397009D01*
X106051552Y-61361271D01*
X106134814Y-61259814D01*
X106236271Y-61176552D01*
X106272009Y-61147222D01*
X106428534Y-61063557D01*
X106598373Y-61012037D01*
X106664557Y-61005519D01*
X106730740Y-60999000D01*
X107069260Y-60999000D01*
X107135443Y-61005519D01*
G37*
G36*
X107135443Y-58505519D02*
G01*
X107201627Y-58512037D01*
X107371466Y-58563557D01*
X107527991Y-58647222D01*
X107563729Y-58676552D01*
X107665186Y-58759814D01*
X107748448Y-58861271D01*
X107777778Y-58897009D01*
X107861443Y-59053534D01*
X107912963Y-59223373D01*
X107930359Y-59400000D01*
X107912963Y-59576627D01*
X107861443Y-59746466D01*
X107777778Y-59902991D01*
X107748448Y-59938729D01*
X107665186Y-60040186D01*
X107563729Y-60123448D01*
X107527991Y-60152778D01*
X107371466Y-60236443D01*
X107201627Y-60287963D01*
X107135442Y-60294482D01*
X107069260Y-60301000D01*
X106730740Y-60301000D01*
X106664558Y-60294482D01*
X106598373Y-60287963D01*
X106428534Y-60236443D01*
X106272009Y-60152778D01*
X106236271Y-60123448D01*
X106134814Y-60040186D01*
X106051552Y-59938729D01*
X106022222Y-59902991D01*
X105938557Y-59746466D01*
X105887037Y-59576627D01*
X105869641Y-59400000D01*
X105887037Y-59223373D01*
X105938557Y-59053534D01*
X106022222Y-58897009D01*
X106051552Y-58861271D01*
X106134814Y-58759814D01*
X106236271Y-58676552D01*
X106272009Y-58647222D01*
X106428534Y-58563557D01*
X106598373Y-58512037D01*
X106664557Y-58505519D01*
X106730740Y-58499000D01*
X107069260Y-58499000D01*
X107135443Y-58505519D01*
G37*
G36*
X54104780Y-49459566D02*
G01*
X54404237Y-49519131D01*
X54968401Y-49752815D01*
X55476135Y-50092072D01*
X55907928Y-50523865D01*
X56247185Y-51031599D01*
X56480869Y-51595763D01*
X56540435Y-51895220D01*
X56600000Y-52194675D01*
X56600000Y-52805325D01*
X56574479Y-52933625D01*
X56480869Y-53404237D01*
X56247185Y-53968401D01*
X55907928Y-54476135D01*
X55476135Y-54907928D01*
X54968401Y-55247185D01*
X54404237Y-55480869D01*
X54104780Y-55540434D01*
X53805325Y-55600000D01*
X53194675Y-55600000D01*
X52895220Y-55540434D01*
X52595763Y-55480869D01*
X52031599Y-55247185D01*
X51523865Y-54907928D01*
X51092072Y-54476135D01*
X50752815Y-53968401D01*
X50519131Y-53404237D01*
X50425521Y-52933625D01*
X50400000Y-52805325D01*
X50400000Y-52194675D01*
X50459565Y-51895220D01*
X50519131Y-51595763D01*
X50752815Y-51031599D01*
X51092072Y-50523865D01*
X51523865Y-50092072D01*
X52031599Y-49752815D01*
X52595763Y-49519131D01*
X52895220Y-49459566D01*
X53194675Y-49400000D01*
X53805325Y-49400000D01*
X54104780Y-49459566D01*
G37*
G36*
X112204780Y-49459566D02*
G01*
X112504237Y-49519131D01*
X113068401Y-49752815D01*
X113576135Y-50092072D01*
X114007928Y-50523865D01*
X114347185Y-51031599D01*
X114580869Y-51595763D01*
X114640434Y-51895220D01*
X114700000Y-52194675D01*
X114700000Y-52805325D01*
X114674479Y-52933625D01*
X114580869Y-53404237D01*
X114347185Y-53968401D01*
X114007928Y-54476135D01*
X113576135Y-54907928D01*
X113068401Y-55247185D01*
X112504237Y-55480869D01*
X112204780Y-55540434D01*
X111905325Y-55600000D01*
X111294675Y-55600000D01*
X110995220Y-55540434D01*
X110695763Y-55480869D01*
X110131599Y-55247185D01*
X109623865Y-54907928D01*
X109192072Y-54476135D01*
X108852815Y-53968401D01*
X108619131Y-53404237D01*
X108525521Y-52933625D01*
X108500000Y-52805325D01*
X108500000Y-52194675D01*
X108559566Y-51895220D01*
X108619131Y-51595763D01*
X108852815Y-51031599D01*
X109192072Y-50523865D01*
X109623865Y-50092072D01*
X110131599Y-49752815D01*
X110695763Y-49519131D01*
X110995220Y-49459566D01*
X111294675Y-49400000D01*
X111905325Y-49400000D01*
X112204780Y-49459566D01*
G37*
G36*
X101693512Y-52903927D02*
G01*
X101842812Y-52933624D01*
X102006784Y-53001544D01*
X102154354Y-53100147D01*
X102279853Y-53225646D01*
X102378456Y-53373216D01*
X102446376Y-53537188D01*
X102481000Y-53711259D01*
X102481000Y-53888741D01*
X102446376Y-54062812D01*
X102378456Y-54226784D01*
X102279853Y-54374354D01*
X102154354Y-54499853D01*
X102006784Y-54598456D01*
X101842812Y-54666376D01*
X101693512Y-54696073D01*
X101668742Y-54701000D01*
X101491258Y-54701000D01*
X101466488Y-54696073D01*
X101317188Y-54666376D01*
X101153216Y-54598456D01*
X101005646Y-54499853D01*
X100880147Y-54374354D01*
X100781544Y-54226784D01*
X100713624Y-54062812D01*
X100679000Y-53888741D01*
X100679000Y-53711259D01*
X100713624Y-53537188D01*
X100781544Y-53373216D01*
X100880147Y-53225646D01*
X101005646Y-53100147D01*
X101153216Y-53001544D01*
X101317188Y-52933624D01*
X101466488Y-52903927D01*
X101491258Y-52899000D01*
X101668742Y-52899000D01*
X101693512Y-52903927D01*
G37*
G36*
X99153512Y-52903927D02*
G01*
X99302812Y-52933624D01*
X99466784Y-53001544D01*
X99614354Y-53100147D01*
X99739853Y-53225646D01*
X99838456Y-53373216D01*
X99906376Y-53537188D01*
X99941000Y-53711259D01*
X99941000Y-53888741D01*
X99906376Y-54062812D01*
X99838456Y-54226784D01*
X99739853Y-54374354D01*
X99614354Y-54499853D01*
X99466784Y-54598456D01*
X99302812Y-54666376D01*
X99153512Y-54696073D01*
X99128742Y-54701000D01*
X98951258Y-54701000D01*
X98926488Y-54696073D01*
X98777188Y-54666376D01*
X98613216Y-54598456D01*
X98465646Y-54499853D01*
X98340147Y-54374354D01*
X98241544Y-54226784D01*
X98173624Y-54062812D01*
X98139000Y-53888741D01*
X98139000Y-53711259D01*
X98173624Y-53537188D01*
X98241544Y-53373216D01*
X98340147Y-53225646D01*
X98465646Y-53100147D01*
X98613216Y-53001544D01*
X98777188Y-52933624D01*
X98926488Y-52903927D01*
X98951258Y-52899000D01*
X99128742Y-52899000D01*
X99153512Y-52903927D01*
G37*
G36*
X94073512Y-52903927D02*
G01*
X94222812Y-52933624D01*
X94386784Y-53001544D01*
X94534354Y-53100147D01*
X94659853Y-53225646D01*
X94758456Y-53373216D01*
X94826376Y-53537188D01*
X94861000Y-53711259D01*
X94861000Y-53888741D01*
X94826376Y-54062812D01*
X94758456Y-54226784D01*
X94659853Y-54374354D01*
X94534354Y-54499853D01*
X94386784Y-54598456D01*
X94222812Y-54666376D01*
X94073512Y-54696073D01*
X94048742Y-54701000D01*
X93871258Y-54701000D01*
X93846488Y-54696073D01*
X93697188Y-54666376D01*
X93533216Y-54598456D01*
X93385646Y-54499853D01*
X93260147Y-54374354D01*
X93161544Y-54226784D01*
X93093624Y-54062812D01*
X93059000Y-53888741D01*
X93059000Y-53711259D01*
X93093624Y-53537188D01*
X93161544Y-53373216D01*
X93260147Y-53225646D01*
X93385646Y-53100147D01*
X93533216Y-53001544D01*
X93697188Y-52933624D01*
X93846488Y-52903927D01*
X93871258Y-52899000D01*
X94048742Y-52899000D01*
X94073512Y-52903927D01*
G37*
G36*
X91533512Y-52903927D02*
G01*
X91682812Y-52933624D01*
X91846784Y-53001544D01*
X91994354Y-53100147D01*
X92119853Y-53225646D01*
X92218456Y-53373216D01*
X92286376Y-53537188D01*
X92321000Y-53711259D01*
X92321000Y-53888741D01*
X92286376Y-54062812D01*
X92218456Y-54226784D01*
X92119853Y-54374354D01*
X91994354Y-54499853D01*
X91846784Y-54598456D01*
X91682812Y-54666376D01*
X91533512Y-54696073D01*
X91508742Y-54701000D01*
X91331258Y-54701000D01*
X91306488Y-54696073D01*
X91157188Y-54666376D01*
X90993216Y-54598456D01*
X90845646Y-54499853D01*
X90720147Y-54374354D01*
X90621544Y-54226784D01*
X90553624Y-54062812D01*
X90519000Y-53888741D01*
X90519000Y-53711259D01*
X90553624Y-53537188D01*
X90621544Y-53373216D01*
X90720147Y-53225646D01*
X90845646Y-53100147D01*
X90993216Y-53001544D01*
X91157188Y-52933624D01*
X91306488Y-52903927D01*
X91331258Y-52899000D01*
X91508742Y-52899000D01*
X91533512Y-52903927D01*
G37*
G36*
X88993512Y-52903927D02*
G01*
X89142812Y-52933624D01*
X89306784Y-53001544D01*
X89454354Y-53100147D01*
X89579853Y-53225646D01*
X89678456Y-53373216D01*
X89746376Y-53537188D01*
X89781000Y-53711259D01*
X89781000Y-53888741D01*
X89746376Y-54062812D01*
X89678456Y-54226784D01*
X89579853Y-54374354D01*
X89454354Y-54499853D01*
X89306784Y-54598456D01*
X89142812Y-54666376D01*
X88993512Y-54696073D01*
X88968742Y-54701000D01*
X88791258Y-54701000D01*
X88766488Y-54696073D01*
X88617188Y-54666376D01*
X88453216Y-54598456D01*
X88305646Y-54499853D01*
X88180147Y-54374354D01*
X88081544Y-54226784D01*
X88013624Y-54062812D01*
X87979000Y-53888741D01*
X87979000Y-53711259D01*
X88013624Y-53537188D01*
X88081544Y-53373216D01*
X88180147Y-53225646D01*
X88305646Y-53100147D01*
X88453216Y-53001544D01*
X88617188Y-52933624D01*
X88766488Y-52903927D01*
X88791258Y-52899000D01*
X88968742Y-52899000D01*
X88993512Y-52903927D01*
G37*
G36*
X86453512Y-52903927D02*
G01*
X86602812Y-52933624D01*
X86766784Y-53001544D01*
X86914354Y-53100147D01*
X87039853Y-53225646D01*
X87138456Y-53373216D01*
X87206376Y-53537188D01*
X87241000Y-53711259D01*
X87241000Y-53888741D01*
X87206376Y-54062812D01*
X87138456Y-54226784D01*
X87039853Y-54374354D01*
X86914354Y-54499853D01*
X86766784Y-54598456D01*
X86602812Y-54666376D01*
X86453512Y-54696073D01*
X86428742Y-54701000D01*
X86251258Y-54701000D01*
X86226488Y-54696073D01*
X86077188Y-54666376D01*
X85913216Y-54598456D01*
X85765646Y-54499853D01*
X85640147Y-54374354D01*
X85541544Y-54226784D01*
X85473624Y-54062812D01*
X85439000Y-53888741D01*
X85439000Y-53711259D01*
X85473624Y-53537188D01*
X85541544Y-53373216D01*
X85640147Y-53225646D01*
X85765646Y-53100147D01*
X85913216Y-53001544D01*
X86077188Y-52933624D01*
X86226488Y-52903927D01*
X86251258Y-52899000D01*
X86428742Y-52899000D01*
X86453512Y-52903927D01*
G37*
G36*
X83913512Y-52903927D02*
G01*
X84062812Y-52933624D01*
X84226784Y-53001544D01*
X84374354Y-53100147D01*
X84499853Y-53225646D01*
X84598456Y-53373216D01*
X84666376Y-53537188D01*
X84701000Y-53711259D01*
X84701000Y-53888741D01*
X84666376Y-54062812D01*
X84598456Y-54226784D01*
X84499853Y-54374354D01*
X84374354Y-54499853D01*
X84226784Y-54598456D01*
X84062812Y-54666376D01*
X83913512Y-54696073D01*
X83888742Y-54701000D01*
X83711258Y-54701000D01*
X83686488Y-54696073D01*
X83537188Y-54666376D01*
X83373216Y-54598456D01*
X83225646Y-54499853D01*
X83100147Y-54374354D01*
X83001544Y-54226784D01*
X82933624Y-54062812D01*
X82899000Y-53888741D01*
X82899000Y-53711259D01*
X82933624Y-53537188D01*
X83001544Y-53373216D01*
X83100147Y-53225646D01*
X83225646Y-53100147D01*
X83373216Y-53001544D01*
X83537188Y-52933624D01*
X83686488Y-52903927D01*
X83711258Y-52899000D01*
X83888742Y-52899000D01*
X83913512Y-52903927D01*
G37*
G36*
X59301000Y-54701000D02*
G01*
X57499000Y-54701000D01*
X57499000Y-52899000D01*
X59301000Y-52899000D01*
X59301000Y-54701000D01*
G37*
G36*
X78833512Y-52903927D02*
G01*
X78982812Y-52933624D01*
X79146784Y-53001544D01*
X79294354Y-53100147D01*
X79419853Y-53225646D01*
X79518456Y-53373216D01*
X79586376Y-53537188D01*
X79621000Y-53711259D01*
X79621000Y-53888741D01*
X79586376Y-54062812D01*
X79518456Y-54226784D01*
X79419853Y-54374354D01*
X79294354Y-54499853D01*
X79146784Y-54598456D01*
X78982812Y-54666376D01*
X78833512Y-54696073D01*
X78808742Y-54701000D01*
X78631258Y-54701000D01*
X78606488Y-54696073D01*
X78457188Y-54666376D01*
X78293216Y-54598456D01*
X78145646Y-54499853D01*
X78020147Y-54374354D01*
X77921544Y-54226784D01*
X77853624Y-54062812D01*
X77819000Y-53888741D01*
X77819000Y-53711259D01*
X77853624Y-53537188D01*
X77921544Y-53373216D01*
X78020147Y-53225646D01*
X78145646Y-53100147D01*
X78293216Y-53001544D01*
X78457188Y-52933624D01*
X78606488Y-52903927D01*
X78631258Y-52899000D01*
X78808742Y-52899000D01*
X78833512Y-52903927D01*
G37*
G36*
X73753512Y-52903927D02*
G01*
X73902812Y-52933624D01*
X74066784Y-53001544D01*
X74214354Y-53100147D01*
X74339853Y-53225646D01*
X74438456Y-53373216D01*
X74506376Y-53537188D01*
X74541000Y-53711259D01*
X74541000Y-53888741D01*
X74506376Y-54062812D01*
X74438456Y-54226784D01*
X74339853Y-54374354D01*
X74214354Y-54499853D01*
X74066784Y-54598456D01*
X73902812Y-54666376D01*
X73753512Y-54696073D01*
X73728742Y-54701000D01*
X73551258Y-54701000D01*
X73526488Y-54696073D01*
X73377188Y-54666376D01*
X73213216Y-54598456D01*
X73065646Y-54499853D01*
X72940147Y-54374354D01*
X72841544Y-54226784D01*
X72773624Y-54062812D01*
X72739000Y-53888741D01*
X72739000Y-53711259D01*
X72773624Y-53537188D01*
X72841544Y-53373216D01*
X72940147Y-53225646D01*
X73065646Y-53100147D01*
X73213216Y-53001544D01*
X73377188Y-52933624D01*
X73526488Y-52903927D01*
X73551258Y-52899000D01*
X73728742Y-52899000D01*
X73753512Y-52903927D01*
G37*
G36*
X71213512Y-52903927D02*
G01*
X71362812Y-52933624D01*
X71526784Y-53001544D01*
X71674354Y-53100147D01*
X71799853Y-53225646D01*
X71898456Y-53373216D01*
X71966376Y-53537188D01*
X72001000Y-53711259D01*
X72001000Y-53888741D01*
X71966376Y-54062812D01*
X71898456Y-54226784D01*
X71799853Y-54374354D01*
X71674354Y-54499853D01*
X71526784Y-54598456D01*
X71362812Y-54666376D01*
X71213512Y-54696073D01*
X71188742Y-54701000D01*
X71011258Y-54701000D01*
X70986488Y-54696073D01*
X70837188Y-54666376D01*
X70673216Y-54598456D01*
X70525646Y-54499853D01*
X70400147Y-54374354D01*
X70301544Y-54226784D01*
X70233624Y-54062812D01*
X70199000Y-53888741D01*
X70199000Y-53711259D01*
X70233624Y-53537188D01*
X70301544Y-53373216D01*
X70400147Y-53225646D01*
X70525646Y-53100147D01*
X70673216Y-53001544D01*
X70837188Y-52933624D01*
X70986488Y-52903927D01*
X71011258Y-52899000D01*
X71188742Y-52899000D01*
X71213512Y-52903927D01*
G37*
G36*
X76293512Y-52903927D02*
G01*
X76442812Y-52933624D01*
X76606784Y-53001544D01*
X76754354Y-53100147D01*
X76879853Y-53225646D01*
X76978456Y-53373216D01*
X77046376Y-53537188D01*
X77081000Y-53711259D01*
X77081000Y-53888741D01*
X77046376Y-54062812D01*
X76978456Y-54226784D01*
X76879853Y-54374354D01*
X76754354Y-54499853D01*
X76606784Y-54598456D01*
X76442812Y-54666376D01*
X76293512Y-54696073D01*
X76268742Y-54701000D01*
X76091258Y-54701000D01*
X76066488Y-54696073D01*
X75917188Y-54666376D01*
X75753216Y-54598456D01*
X75605646Y-54499853D01*
X75480147Y-54374354D01*
X75381544Y-54226784D01*
X75313624Y-54062812D01*
X75279000Y-53888741D01*
X75279000Y-53711259D01*
X75313624Y-53537188D01*
X75381544Y-53373216D01*
X75480147Y-53225646D01*
X75605646Y-53100147D01*
X75753216Y-53001544D01*
X75917188Y-52933624D01*
X76066488Y-52903927D01*
X76091258Y-52899000D01*
X76268742Y-52899000D01*
X76293512Y-52903927D01*
G37*
G36*
X104233512Y-52903927D02*
G01*
X104382812Y-52933624D01*
X104546784Y-53001544D01*
X104694354Y-53100147D01*
X104819853Y-53225646D01*
X104918456Y-53373216D01*
X104986376Y-53537188D01*
X105021000Y-53711259D01*
X105021000Y-53888741D01*
X104986376Y-54062812D01*
X104918456Y-54226784D01*
X104819853Y-54374354D01*
X104694354Y-54499853D01*
X104546784Y-54598456D01*
X104382812Y-54666376D01*
X104233512Y-54696073D01*
X104208742Y-54701000D01*
X104031258Y-54701000D01*
X104006488Y-54696073D01*
X103857188Y-54666376D01*
X103693216Y-54598456D01*
X103545646Y-54499853D01*
X103420147Y-54374354D01*
X103321544Y-54226784D01*
X103253624Y-54062812D01*
X103219000Y-53888741D01*
X103219000Y-53711259D01*
X103253624Y-53537188D01*
X103321544Y-53373216D01*
X103420147Y-53225646D01*
X103545646Y-53100147D01*
X103693216Y-53001544D01*
X103857188Y-52933624D01*
X104006488Y-52903927D01*
X104031258Y-52899000D01*
X104208742Y-52899000D01*
X104233512Y-52903927D01*
G37*
G36*
X106773512Y-52903927D02*
G01*
X106922812Y-52933624D01*
X107086784Y-53001544D01*
X107234354Y-53100147D01*
X107359853Y-53225646D01*
X107458456Y-53373216D01*
X107526376Y-53537188D01*
X107561000Y-53711259D01*
X107561000Y-53888741D01*
X107526376Y-54062812D01*
X107458456Y-54226784D01*
X107359853Y-54374354D01*
X107234354Y-54499853D01*
X107086784Y-54598456D01*
X106922812Y-54666376D01*
X106773512Y-54696073D01*
X106748742Y-54701000D01*
X106571258Y-54701000D01*
X106546488Y-54696073D01*
X106397188Y-54666376D01*
X106233216Y-54598456D01*
X106085646Y-54499853D01*
X105960147Y-54374354D01*
X105861544Y-54226784D01*
X105793624Y-54062812D01*
X105759000Y-53888741D01*
X105759000Y-53711259D01*
X105793624Y-53537188D01*
X105861544Y-53373216D01*
X105960147Y-53225646D01*
X106085646Y-53100147D01*
X106233216Y-53001544D01*
X106397188Y-52933624D01*
X106546488Y-52903927D01*
X106571258Y-52899000D01*
X106748742Y-52899000D01*
X106773512Y-52903927D01*
G37*
G36*
X81373512Y-52903927D02*
G01*
X81522812Y-52933624D01*
X81686784Y-53001544D01*
X81834354Y-53100147D01*
X81959853Y-53225646D01*
X82058456Y-53373216D01*
X82126376Y-53537188D01*
X82161000Y-53711259D01*
X82161000Y-53888741D01*
X82126376Y-54062812D01*
X82058456Y-54226784D01*
X81959853Y-54374354D01*
X81834354Y-54499853D01*
X81686784Y-54598456D01*
X81522812Y-54666376D01*
X81373512Y-54696073D01*
X81348742Y-54701000D01*
X81171258Y-54701000D01*
X81146488Y-54696073D01*
X80997188Y-54666376D01*
X80833216Y-54598456D01*
X80685646Y-54499853D01*
X80560147Y-54374354D01*
X80461544Y-54226784D01*
X80393624Y-54062812D01*
X80359000Y-53888741D01*
X80359000Y-53711259D01*
X80393624Y-53537188D01*
X80461544Y-53373216D01*
X80560147Y-53225646D01*
X80685646Y-53100147D01*
X80833216Y-53001544D01*
X80997188Y-52933624D01*
X81146488Y-52903927D01*
X81171258Y-52899000D01*
X81348742Y-52899000D01*
X81373512Y-52903927D01*
G37*
G36*
X96613512Y-52903927D02*
G01*
X96762812Y-52933624D01*
X96926784Y-53001544D01*
X97074354Y-53100147D01*
X97199853Y-53225646D01*
X97298456Y-53373216D01*
X97366376Y-53537188D01*
X97401000Y-53711259D01*
X97401000Y-53888741D01*
X97366376Y-54062812D01*
X97298456Y-54226784D01*
X97199853Y-54374354D01*
X97074354Y-54499853D01*
X96926784Y-54598456D01*
X96762812Y-54666376D01*
X96613512Y-54696073D01*
X96588742Y-54701000D01*
X96411258Y-54701000D01*
X96386488Y-54696073D01*
X96237188Y-54666376D01*
X96073216Y-54598456D01*
X95925646Y-54499853D01*
X95800147Y-54374354D01*
X95701544Y-54226784D01*
X95633624Y-54062812D01*
X95599000Y-53888741D01*
X95599000Y-53711259D01*
X95633624Y-53537188D01*
X95701544Y-53373216D01*
X95800147Y-53225646D01*
X95925646Y-53100147D01*
X96073216Y-53001544D01*
X96237188Y-52933624D01*
X96386488Y-52903927D01*
X96411258Y-52899000D01*
X96588742Y-52899000D01*
X96613512Y-52903927D01*
G37*
G36*
X61053512Y-52903927D02*
G01*
X61202812Y-52933624D01*
X61366784Y-53001544D01*
X61514354Y-53100147D01*
X61639853Y-53225646D01*
X61738456Y-53373216D01*
X61806376Y-53537188D01*
X61841000Y-53711259D01*
X61841000Y-53888741D01*
X61806376Y-54062812D01*
X61738456Y-54226784D01*
X61639853Y-54374354D01*
X61514354Y-54499853D01*
X61366784Y-54598456D01*
X61202812Y-54666376D01*
X61053512Y-54696073D01*
X61028742Y-54701000D01*
X60851258Y-54701000D01*
X60826488Y-54696073D01*
X60677188Y-54666376D01*
X60513216Y-54598456D01*
X60365646Y-54499853D01*
X60240147Y-54374354D01*
X60141544Y-54226784D01*
X60073624Y-54062812D01*
X60039000Y-53888741D01*
X60039000Y-53711259D01*
X60073624Y-53537188D01*
X60141544Y-53373216D01*
X60240147Y-53225646D01*
X60365646Y-53100147D01*
X60513216Y-53001544D01*
X60677188Y-52933624D01*
X60826488Y-52903927D01*
X60851258Y-52899000D01*
X61028742Y-52899000D01*
X61053512Y-52903927D01*
G37*
G36*
X63593512Y-52903927D02*
G01*
X63742812Y-52933624D01*
X63906784Y-53001544D01*
X64054354Y-53100147D01*
X64179853Y-53225646D01*
X64278456Y-53373216D01*
X64346376Y-53537188D01*
X64381000Y-53711259D01*
X64381000Y-53888741D01*
X64346376Y-54062812D01*
X64278456Y-54226784D01*
X64179853Y-54374354D01*
X64054354Y-54499853D01*
X63906784Y-54598456D01*
X63742812Y-54666376D01*
X63593512Y-54696073D01*
X63568742Y-54701000D01*
X63391258Y-54701000D01*
X63366488Y-54696073D01*
X63217188Y-54666376D01*
X63053216Y-54598456D01*
X62905646Y-54499853D01*
X62780147Y-54374354D01*
X62681544Y-54226784D01*
X62613624Y-54062812D01*
X62579000Y-53888741D01*
X62579000Y-53711259D01*
X62613624Y-53537188D01*
X62681544Y-53373216D01*
X62780147Y-53225646D01*
X62905646Y-53100147D01*
X63053216Y-53001544D01*
X63217188Y-52933624D01*
X63366488Y-52903927D01*
X63391258Y-52899000D01*
X63568742Y-52899000D01*
X63593512Y-52903927D01*
G37*
G36*
X66133512Y-52903927D02*
G01*
X66282812Y-52933624D01*
X66446784Y-53001544D01*
X66594354Y-53100147D01*
X66719853Y-53225646D01*
X66818456Y-53373216D01*
X66886376Y-53537188D01*
X66921000Y-53711259D01*
X66921000Y-53888741D01*
X66886376Y-54062812D01*
X66818456Y-54226784D01*
X66719853Y-54374354D01*
X66594354Y-54499853D01*
X66446784Y-54598456D01*
X66282812Y-54666376D01*
X66133512Y-54696073D01*
X66108742Y-54701000D01*
X65931258Y-54701000D01*
X65906488Y-54696073D01*
X65757188Y-54666376D01*
X65593216Y-54598456D01*
X65445646Y-54499853D01*
X65320147Y-54374354D01*
X65221544Y-54226784D01*
X65153624Y-54062812D01*
X65119000Y-53888741D01*
X65119000Y-53711259D01*
X65153624Y-53537188D01*
X65221544Y-53373216D01*
X65320147Y-53225646D01*
X65445646Y-53100147D01*
X65593216Y-53001544D01*
X65757188Y-52933624D01*
X65906488Y-52903927D01*
X65931258Y-52899000D01*
X66108742Y-52899000D01*
X66133512Y-52903927D01*
G37*
G36*
X68673512Y-52903927D02*
G01*
X68822812Y-52933624D01*
X68986784Y-53001544D01*
X69134354Y-53100147D01*
X69259853Y-53225646D01*
X69358456Y-53373216D01*
X69426376Y-53537188D01*
X69461000Y-53711259D01*
X69461000Y-53888741D01*
X69426376Y-54062812D01*
X69358456Y-54226784D01*
X69259853Y-54374354D01*
X69134354Y-54499853D01*
X68986784Y-54598456D01*
X68822812Y-54666376D01*
X68673512Y-54696073D01*
X68648742Y-54701000D01*
X68471258Y-54701000D01*
X68446488Y-54696073D01*
X68297188Y-54666376D01*
X68133216Y-54598456D01*
X67985646Y-54499853D01*
X67860147Y-54374354D01*
X67761544Y-54226784D01*
X67693624Y-54062812D01*
X67659000Y-53888741D01*
X67659000Y-53711259D01*
X67693624Y-53537188D01*
X67761544Y-53373216D01*
X67860147Y-53225646D01*
X67985646Y-53100147D01*
X68133216Y-53001544D01*
X68297188Y-52933624D01*
X68446488Y-52903927D01*
X68471258Y-52899000D01*
X68648742Y-52899000D01*
X68673512Y-52903927D01*
G37*
G36*
X86453512Y-50363927D02*
G01*
X86602812Y-50393624D01*
X86766784Y-50461544D01*
X86914354Y-50560147D01*
X87039853Y-50685646D01*
X87138456Y-50833216D01*
X87206376Y-50997188D01*
X87241000Y-51171259D01*
X87241000Y-51348741D01*
X87206376Y-51522812D01*
X87138456Y-51686784D01*
X87039853Y-51834354D01*
X86914354Y-51959853D01*
X86766784Y-52058456D01*
X86602812Y-52126376D01*
X86453512Y-52156073D01*
X86428742Y-52161000D01*
X86251258Y-52161000D01*
X86226488Y-52156073D01*
X86077188Y-52126376D01*
X85913216Y-52058456D01*
X85765646Y-51959853D01*
X85640147Y-51834354D01*
X85541544Y-51686784D01*
X85473624Y-51522812D01*
X85439000Y-51348741D01*
X85439000Y-51171259D01*
X85473624Y-50997188D01*
X85541544Y-50833216D01*
X85640147Y-50685646D01*
X85765646Y-50560147D01*
X85913216Y-50461544D01*
X86077188Y-50393624D01*
X86226488Y-50363927D01*
X86251258Y-50359000D01*
X86428742Y-50359000D01*
X86453512Y-50363927D01*
G37*
G36*
X88993512Y-50363927D02*
G01*
X89142812Y-50393624D01*
X89306784Y-50461544D01*
X89454354Y-50560147D01*
X89579853Y-50685646D01*
X89678456Y-50833216D01*
X89746376Y-50997188D01*
X89781000Y-51171259D01*
X89781000Y-51348741D01*
X89746376Y-51522812D01*
X89678456Y-51686784D01*
X89579853Y-51834354D01*
X89454354Y-51959853D01*
X89306784Y-52058456D01*
X89142812Y-52126376D01*
X88993512Y-52156073D01*
X88968742Y-52161000D01*
X88791258Y-52161000D01*
X88766488Y-52156073D01*
X88617188Y-52126376D01*
X88453216Y-52058456D01*
X88305646Y-51959853D01*
X88180147Y-51834354D01*
X88081544Y-51686784D01*
X88013624Y-51522812D01*
X87979000Y-51348741D01*
X87979000Y-51171259D01*
X88013624Y-50997188D01*
X88081544Y-50833216D01*
X88180147Y-50685646D01*
X88305646Y-50560147D01*
X88453216Y-50461544D01*
X88617188Y-50393624D01*
X88766488Y-50363927D01*
X88791258Y-50359000D01*
X88968742Y-50359000D01*
X88993512Y-50363927D01*
G37*
G36*
X101693512Y-50363927D02*
G01*
X101842812Y-50393624D01*
X102006784Y-50461544D01*
X102154354Y-50560147D01*
X102279853Y-50685646D01*
X102378456Y-50833216D01*
X102446376Y-50997188D01*
X102481000Y-51171259D01*
X102481000Y-51348741D01*
X102446376Y-51522812D01*
X102378456Y-51686784D01*
X102279853Y-51834354D01*
X102154354Y-51959853D01*
X102006784Y-52058456D01*
X101842812Y-52126376D01*
X101693512Y-52156073D01*
X101668742Y-52161000D01*
X101491258Y-52161000D01*
X101466488Y-52156073D01*
X101317188Y-52126376D01*
X101153216Y-52058456D01*
X101005646Y-51959853D01*
X100880147Y-51834354D01*
X100781544Y-51686784D01*
X100713624Y-51522812D01*
X100679000Y-51348741D01*
X100679000Y-51171259D01*
X100713624Y-50997188D01*
X100781544Y-50833216D01*
X100880147Y-50685646D01*
X101005646Y-50560147D01*
X101153216Y-50461544D01*
X101317188Y-50393624D01*
X101466488Y-50363927D01*
X101491258Y-50359000D01*
X101668742Y-50359000D01*
X101693512Y-50363927D01*
G37*
G36*
X99153512Y-50363927D02*
G01*
X99302812Y-50393624D01*
X99466784Y-50461544D01*
X99614354Y-50560147D01*
X99739853Y-50685646D01*
X99838456Y-50833216D01*
X99906376Y-50997188D01*
X99941000Y-51171259D01*
X99941000Y-51348741D01*
X99906376Y-51522812D01*
X99838456Y-51686784D01*
X99739853Y-51834354D01*
X99614354Y-51959853D01*
X99466784Y-52058456D01*
X99302812Y-52126376D01*
X99153512Y-52156073D01*
X99128742Y-52161000D01*
X98951258Y-52161000D01*
X98926488Y-52156073D01*
X98777188Y-52126376D01*
X98613216Y-52058456D01*
X98465646Y-51959853D01*
X98340147Y-51834354D01*
X98241544Y-51686784D01*
X98173624Y-51522812D01*
X98139000Y-51348741D01*
X98139000Y-51171259D01*
X98173624Y-50997188D01*
X98241544Y-50833216D01*
X98340147Y-50685646D01*
X98465646Y-50560147D01*
X98613216Y-50461544D01*
X98777188Y-50393624D01*
X98926488Y-50363927D01*
X98951258Y-50359000D01*
X99128742Y-50359000D01*
X99153512Y-50363927D01*
G37*
G36*
X104233512Y-50363927D02*
G01*
X104382812Y-50393624D01*
X104546784Y-50461544D01*
X104694354Y-50560147D01*
X104819853Y-50685646D01*
X104918456Y-50833216D01*
X104986376Y-50997188D01*
X105021000Y-51171259D01*
X105021000Y-51348741D01*
X104986376Y-51522812D01*
X104918456Y-51686784D01*
X104819853Y-51834354D01*
X104694354Y-51959853D01*
X104546784Y-52058456D01*
X104382812Y-52126376D01*
X104233512Y-52156073D01*
X104208742Y-52161000D01*
X104031258Y-52161000D01*
X104006488Y-52156073D01*
X103857188Y-52126376D01*
X103693216Y-52058456D01*
X103545646Y-51959853D01*
X103420147Y-51834354D01*
X103321544Y-51686784D01*
X103253624Y-51522812D01*
X103219000Y-51348741D01*
X103219000Y-51171259D01*
X103253624Y-50997188D01*
X103321544Y-50833216D01*
X103420147Y-50685646D01*
X103545646Y-50560147D01*
X103693216Y-50461544D01*
X103857188Y-50393624D01*
X104006488Y-50363927D01*
X104031258Y-50359000D01*
X104208742Y-50359000D01*
X104233512Y-50363927D01*
G37*
G36*
X106773512Y-50363927D02*
G01*
X106922812Y-50393624D01*
X107086784Y-50461544D01*
X107234354Y-50560147D01*
X107359853Y-50685646D01*
X107458456Y-50833216D01*
X107526376Y-50997188D01*
X107561000Y-51171259D01*
X107561000Y-51348741D01*
X107526376Y-51522812D01*
X107458456Y-51686784D01*
X107359853Y-51834354D01*
X107234354Y-51959853D01*
X107086784Y-52058456D01*
X106922812Y-52126376D01*
X106773512Y-52156073D01*
X106748742Y-52161000D01*
X106571258Y-52161000D01*
X106546488Y-52156073D01*
X106397188Y-52126376D01*
X106233216Y-52058456D01*
X106085646Y-51959853D01*
X105960147Y-51834354D01*
X105861544Y-51686784D01*
X105793624Y-51522812D01*
X105759000Y-51348741D01*
X105759000Y-51171259D01*
X105793624Y-50997188D01*
X105861544Y-50833216D01*
X105960147Y-50685646D01*
X106085646Y-50560147D01*
X106233216Y-50461544D01*
X106397188Y-50393624D01*
X106546488Y-50363927D01*
X106571258Y-50359000D01*
X106748742Y-50359000D01*
X106773512Y-50363927D01*
G37*
G36*
X94073512Y-50363927D02*
G01*
X94222812Y-50393624D01*
X94386784Y-50461544D01*
X94534354Y-50560147D01*
X94659853Y-50685646D01*
X94758456Y-50833216D01*
X94826376Y-50997188D01*
X94861000Y-51171259D01*
X94861000Y-51348741D01*
X94826376Y-51522812D01*
X94758456Y-51686784D01*
X94659853Y-51834354D01*
X94534354Y-51959853D01*
X94386784Y-52058456D01*
X94222812Y-52126376D01*
X94073512Y-52156073D01*
X94048742Y-52161000D01*
X93871258Y-52161000D01*
X93846488Y-52156073D01*
X93697188Y-52126376D01*
X93533216Y-52058456D01*
X93385646Y-51959853D01*
X93260147Y-51834354D01*
X93161544Y-51686784D01*
X93093624Y-51522812D01*
X93059000Y-51348741D01*
X93059000Y-51171259D01*
X93093624Y-50997188D01*
X93161544Y-50833216D01*
X93260147Y-50685646D01*
X93385646Y-50560147D01*
X93533216Y-50461544D01*
X93697188Y-50393624D01*
X93846488Y-50363927D01*
X93871258Y-50359000D01*
X94048742Y-50359000D01*
X94073512Y-50363927D01*
G37*
G36*
X91533512Y-50363927D02*
G01*
X91682812Y-50393624D01*
X91846784Y-50461544D01*
X91994354Y-50560147D01*
X92119853Y-50685646D01*
X92218456Y-50833216D01*
X92286376Y-50997188D01*
X92321000Y-51171259D01*
X92321000Y-51348741D01*
X92286376Y-51522812D01*
X92218456Y-51686784D01*
X92119853Y-51834354D01*
X91994354Y-51959853D01*
X91846784Y-52058456D01*
X91682812Y-52126376D01*
X91533512Y-52156073D01*
X91508742Y-52161000D01*
X91331258Y-52161000D01*
X91306488Y-52156073D01*
X91157188Y-52126376D01*
X90993216Y-52058456D01*
X90845646Y-51959853D01*
X90720147Y-51834354D01*
X90621544Y-51686784D01*
X90553624Y-51522812D01*
X90519000Y-51348741D01*
X90519000Y-51171259D01*
X90553624Y-50997188D01*
X90621544Y-50833216D01*
X90720147Y-50685646D01*
X90845646Y-50560147D01*
X90993216Y-50461544D01*
X91157188Y-50393624D01*
X91306488Y-50363927D01*
X91331258Y-50359000D01*
X91508742Y-50359000D01*
X91533512Y-50363927D01*
G37*
G36*
X96613512Y-50363927D02*
G01*
X96762812Y-50393624D01*
X96926784Y-50461544D01*
X97074354Y-50560147D01*
X97199853Y-50685646D01*
X97298456Y-50833216D01*
X97366376Y-50997188D01*
X97401000Y-51171259D01*
X97401000Y-51348741D01*
X97366376Y-51522812D01*
X97298456Y-51686784D01*
X97199853Y-51834354D01*
X97074354Y-51959853D01*
X96926784Y-52058456D01*
X96762812Y-52126376D01*
X96613512Y-52156073D01*
X96588742Y-52161000D01*
X96411258Y-52161000D01*
X96386488Y-52156073D01*
X96237188Y-52126376D01*
X96073216Y-52058456D01*
X95925646Y-51959853D01*
X95800147Y-51834354D01*
X95701544Y-51686784D01*
X95633624Y-51522812D01*
X95599000Y-51348741D01*
X95599000Y-51171259D01*
X95633624Y-50997188D01*
X95701544Y-50833216D01*
X95800147Y-50685646D01*
X95925646Y-50560147D01*
X96073216Y-50461544D01*
X96237188Y-50393624D01*
X96386488Y-50363927D01*
X96411258Y-50359000D01*
X96588742Y-50359000D01*
X96613512Y-50363927D01*
G37*
G36*
X58513512Y-50363927D02*
G01*
X58662812Y-50393624D01*
X58826784Y-50461544D01*
X58974354Y-50560147D01*
X59099853Y-50685646D01*
X59198456Y-50833216D01*
X59266376Y-50997188D01*
X59301000Y-51171259D01*
X59301000Y-51348741D01*
X59266376Y-51522812D01*
X59198456Y-51686784D01*
X59099853Y-51834354D01*
X58974354Y-51959853D01*
X58826784Y-52058456D01*
X58662812Y-52126376D01*
X58513512Y-52156073D01*
X58488742Y-52161000D01*
X58311258Y-52161000D01*
X58286488Y-52156073D01*
X58137188Y-52126376D01*
X57973216Y-52058456D01*
X57825646Y-51959853D01*
X57700147Y-51834354D01*
X57601544Y-51686784D01*
X57533624Y-51522812D01*
X57499000Y-51348741D01*
X57499000Y-51171259D01*
X57533624Y-50997188D01*
X57601544Y-50833216D01*
X57700147Y-50685646D01*
X57825646Y-50560147D01*
X57973216Y-50461544D01*
X58137188Y-50393624D01*
X58286488Y-50363927D01*
X58311258Y-50359000D01*
X58488742Y-50359000D01*
X58513512Y-50363927D01*
G37*
G36*
X61053512Y-50363927D02*
G01*
X61202812Y-50393624D01*
X61366784Y-50461544D01*
X61514354Y-50560147D01*
X61639853Y-50685646D01*
X61738456Y-50833216D01*
X61806376Y-50997188D01*
X61841000Y-51171259D01*
X61841000Y-51348741D01*
X61806376Y-51522812D01*
X61738456Y-51686784D01*
X61639853Y-51834354D01*
X61514354Y-51959853D01*
X61366784Y-52058456D01*
X61202812Y-52126376D01*
X61053512Y-52156073D01*
X61028742Y-52161000D01*
X60851258Y-52161000D01*
X60826488Y-52156073D01*
X60677188Y-52126376D01*
X60513216Y-52058456D01*
X60365646Y-51959853D01*
X60240147Y-51834354D01*
X60141544Y-51686784D01*
X60073624Y-51522812D01*
X60039000Y-51348741D01*
X60039000Y-51171259D01*
X60073624Y-50997188D01*
X60141544Y-50833216D01*
X60240147Y-50685646D01*
X60365646Y-50560147D01*
X60513216Y-50461544D01*
X60677188Y-50393624D01*
X60826488Y-50363927D01*
X60851258Y-50359000D01*
X61028742Y-50359000D01*
X61053512Y-50363927D01*
G37*
G36*
X63593512Y-50363927D02*
G01*
X63742812Y-50393624D01*
X63906784Y-50461544D01*
X64054354Y-50560147D01*
X64179853Y-50685646D01*
X64278456Y-50833216D01*
X64346376Y-50997188D01*
X64381000Y-51171259D01*
X64381000Y-51348741D01*
X64346376Y-51522812D01*
X64278456Y-51686784D01*
X64179853Y-51834354D01*
X64054354Y-51959853D01*
X63906784Y-52058456D01*
X63742812Y-52126376D01*
X63593512Y-52156073D01*
X63568742Y-52161000D01*
X63391258Y-52161000D01*
X63366488Y-52156073D01*
X63217188Y-52126376D01*
X63053216Y-52058456D01*
X62905646Y-51959853D01*
X62780147Y-51834354D01*
X62681544Y-51686784D01*
X62613624Y-51522812D01*
X62579000Y-51348741D01*
X62579000Y-51171259D01*
X62613624Y-50997188D01*
X62681544Y-50833216D01*
X62780147Y-50685646D01*
X62905646Y-50560147D01*
X63053216Y-50461544D01*
X63217188Y-50393624D01*
X63366488Y-50363927D01*
X63391258Y-50359000D01*
X63568742Y-50359000D01*
X63593512Y-50363927D01*
G37*
G36*
X66133512Y-50363927D02*
G01*
X66282812Y-50393624D01*
X66446784Y-50461544D01*
X66594354Y-50560147D01*
X66719853Y-50685646D01*
X66818456Y-50833216D01*
X66886376Y-50997188D01*
X66921000Y-51171259D01*
X66921000Y-51348741D01*
X66886376Y-51522812D01*
X66818456Y-51686784D01*
X66719853Y-51834354D01*
X66594354Y-51959853D01*
X66446784Y-52058456D01*
X66282812Y-52126376D01*
X66133512Y-52156073D01*
X66108742Y-52161000D01*
X65931258Y-52161000D01*
X65906488Y-52156073D01*
X65757188Y-52126376D01*
X65593216Y-52058456D01*
X65445646Y-51959853D01*
X65320147Y-51834354D01*
X65221544Y-51686784D01*
X65153624Y-51522812D01*
X65119000Y-51348741D01*
X65119000Y-51171259D01*
X65153624Y-50997188D01*
X65221544Y-50833216D01*
X65320147Y-50685646D01*
X65445646Y-50560147D01*
X65593216Y-50461544D01*
X65757188Y-50393624D01*
X65906488Y-50363927D01*
X65931258Y-50359000D01*
X66108742Y-50359000D01*
X66133512Y-50363927D01*
G37*
G36*
X68673512Y-50363927D02*
G01*
X68822812Y-50393624D01*
X68986784Y-50461544D01*
X69134354Y-50560147D01*
X69259853Y-50685646D01*
X69358456Y-50833216D01*
X69426376Y-50997188D01*
X69461000Y-51171259D01*
X69461000Y-51348741D01*
X69426376Y-51522812D01*
X69358456Y-51686784D01*
X69259853Y-51834354D01*
X69134354Y-51959853D01*
X68986784Y-52058456D01*
X68822812Y-52126376D01*
X68673512Y-52156073D01*
X68648742Y-52161000D01*
X68471258Y-52161000D01*
X68446488Y-52156073D01*
X68297188Y-52126376D01*
X68133216Y-52058456D01*
X67985646Y-51959853D01*
X67860147Y-51834354D01*
X67761544Y-51686784D01*
X67693624Y-51522812D01*
X67659000Y-51348741D01*
X67659000Y-51171259D01*
X67693624Y-50997188D01*
X67761544Y-50833216D01*
X67860147Y-50685646D01*
X67985646Y-50560147D01*
X68133216Y-50461544D01*
X68297188Y-50393624D01*
X68446488Y-50363927D01*
X68471258Y-50359000D01*
X68648742Y-50359000D01*
X68673512Y-50363927D01*
G37*
G36*
X71213512Y-50363927D02*
G01*
X71362812Y-50393624D01*
X71526784Y-50461544D01*
X71674354Y-50560147D01*
X71799853Y-50685646D01*
X71898456Y-50833216D01*
X71966376Y-50997188D01*
X72001000Y-51171259D01*
X72001000Y-51348741D01*
X71966376Y-51522812D01*
X71898456Y-51686784D01*
X71799853Y-51834354D01*
X71674354Y-51959853D01*
X71526784Y-52058456D01*
X71362812Y-52126376D01*
X71213512Y-52156073D01*
X71188742Y-52161000D01*
X71011258Y-52161000D01*
X70986488Y-52156073D01*
X70837188Y-52126376D01*
X70673216Y-52058456D01*
X70525646Y-51959853D01*
X70400147Y-51834354D01*
X70301544Y-51686784D01*
X70233624Y-51522812D01*
X70199000Y-51348741D01*
X70199000Y-51171259D01*
X70233624Y-50997188D01*
X70301544Y-50833216D01*
X70400147Y-50685646D01*
X70525646Y-50560147D01*
X70673216Y-50461544D01*
X70837188Y-50393624D01*
X70986488Y-50363927D01*
X71011258Y-50359000D01*
X71188742Y-50359000D01*
X71213512Y-50363927D01*
G37*
G36*
X78833512Y-50363927D02*
G01*
X78982812Y-50393624D01*
X79146784Y-50461544D01*
X79294354Y-50560147D01*
X79419853Y-50685646D01*
X79518456Y-50833216D01*
X79586376Y-50997188D01*
X79621000Y-51171259D01*
X79621000Y-51348741D01*
X79586376Y-51522812D01*
X79518456Y-51686784D01*
X79419853Y-51834354D01*
X79294354Y-51959853D01*
X79146784Y-52058456D01*
X78982812Y-52126376D01*
X78833512Y-52156073D01*
X78808742Y-52161000D01*
X78631258Y-52161000D01*
X78606488Y-52156073D01*
X78457188Y-52126376D01*
X78293216Y-52058456D01*
X78145646Y-51959853D01*
X78020147Y-51834354D01*
X77921544Y-51686784D01*
X77853624Y-51522812D01*
X77819000Y-51348741D01*
X77819000Y-51171259D01*
X77853624Y-50997188D01*
X77921544Y-50833216D01*
X78020147Y-50685646D01*
X78145646Y-50560147D01*
X78293216Y-50461544D01*
X78457188Y-50393624D01*
X78606488Y-50363927D01*
X78631258Y-50359000D01*
X78808742Y-50359000D01*
X78833512Y-50363927D01*
G37*
G36*
X73753512Y-50363927D02*
G01*
X73902812Y-50393624D01*
X74066784Y-50461544D01*
X74214354Y-50560147D01*
X74339853Y-50685646D01*
X74438456Y-50833216D01*
X74506376Y-50997188D01*
X74541000Y-51171259D01*
X74541000Y-51348741D01*
X74506376Y-51522812D01*
X74438456Y-51686784D01*
X74339853Y-51834354D01*
X74214354Y-51959853D01*
X74066784Y-52058456D01*
X73902812Y-52126376D01*
X73753512Y-52156073D01*
X73728742Y-52161000D01*
X73551258Y-52161000D01*
X73526488Y-52156073D01*
X73377188Y-52126376D01*
X73213216Y-52058456D01*
X73065646Y-51959853D01*
X72940147Y-51834354D01*
X72841544Y-51686784D01*
X72773624Y-51522812D01*
X72739000Y-51348741D01*
X72739000Y-51171259D01*
X72773624Y-50997188D01*
X72841544Y-50833216D01*
X72940147Y-50685646D01*
X73065646Y-50560147D01*
X73213216Y-50461544D01*
X73377188Y-50393624D01*
X73526488Y-50363927D01*
X73551258Y-50359000D01*
X73728742Y-50359000D01*
X73753512Y-50363927D01*
G37*
G36*
X81373512Y-50363927D02*
G01*
X81522812Y-50393624D01*
X81686784Y-50461544D01*
X81834354Y-50560147D01*
X81959853Y-50685646D01*
X82058456Y-50833216D01*
X82126376Y-50997188D01*
X82161000Y-51171259D01*
X82161000Y-51348741D01*
X82126376Y-51522812D01*
X82058456Y-51686784D01*
X81959853Y-51834354D01*
X81834354Y-51959853D01*
X81686784Y-52058456D01*
X81522812Y-52126376D01*
X81373512Y-52156073D01*
X81348742Y-52161000D01*
X81171258Y-52161000D01*
X81146488Y-52156073D01*
X80997188Y-52126376D01*
X80833216Y-52058456D01*
X80685646Y-51959853D01*
X80560147Y-51834354D01*
X80461544Y-51686784D01*
X80393624Y-51522812D01*
X80359000Y-51348741D01*
X80359000Y-51171259D01*
X80393624Y-50997188D01*
X80461544Y-50833216D01*
X80560147Y-50685646D01*
X80685646Y-50560147D01*
X80833216Y-50461544D01*
X80997188Y-50393624D01*
X81146488Y-50363927D01*
X81171258Y-50359000D01*
X81348742Y-50359000D01*
X81373512Y-50363927D01*
G37*
G36*
X83913512Y-50363927D02*
G01*
X84062812Y-50393624D01*
X84226784Y-50461544D01*
X84374354Y-50560147D01*
X84499853Y-50685646D01*
X84598456Y-50833216D01*
X84666376Y-50997188D01*
X84701000Y-51171259D01*
X84701000Y-51348741D01*
X84666376Y-51522812D01*
X84598456Y-51686784D01*
X84499853Y-51834354D01*
X84374354Y-51959853D01*
X84226784Y-52058456D01*
X84062812Y-52126376D01*
X83913512Y-52156073D01*
X83888742Y-52161000D01*
X83711258Y-52161000D01*
X83686488Y-52156073D01*
X83537188Y-52126376D01*
X83373216Y-52058456D01*
X83225646Y-51959853D01*
X83100147Y-51834354D01*
X83001544Y-51686784D01*
X82933624Y-51522812D01*
X82899000Y-51348741D01*
X82899000Y-51171259D01*
X82933624Y-50997188D01*
X83001544Y-50833216D01*
X83100147Y-50685646D01*
X83225646Y-50560147D01*
X83373216Y-50461544D01*
X83537188Y-50393624D01*
X83686488Y-50363927D01*
X83711258Y-50359000D01*
X83888742Y-50359000D01*
X83913512Y-50363927D01*
G37*
G36*
X76293512Y-50363927D02*
G01*
X76442812Y-50393624D01*
X76606784Y-50461544D01*
X76754354Y-50560147D01*
X76879853Y-50685646D01*
X76978456Y-50833216D01*
X77046376Y-50997188D01*
X77081000Y-51171259D01*
X77081000Y-51348741D01*
X77046376Y-51522812D01*
X76978456Y-51686784D01*
X76879853Y-51834354D01*
X76754354Y-51959853D01*
X76606784Y-52058456D01*
X76442812Y-52126376D01*
X76293512Y-52156073D01*
X76268742Y-52161000D01*
X76091258Y-52161000D01*
X76066488Y-52156073D01*
X75917188Y-52126376D01*
X75753216Y-52058456D01*
X75605646Y-51959853D01*
X75480147Y-51834354D01*
X75381544Y-51686784D01*
X75313624Y-51522812D01*
X75279000Y-51348741D01*
X75279000Y-51171259D01*
X75313624Y-50997188D01*
X75381544Y-50833216D01*
X75480147Y-50685646D01*
X75605646Y-50560147D01*
X75753216Y-50461544D01*
X75917188Y-50393624D01*
X76066488Y-50363927D01*
X76091258Y-50359000D01*
X76268742Y-50359000D01*
X76293512Y-50363927D01*
G37*
M02*
