G04 #@! TF.GenerationSoftware,KiCad,Pcbnew,(5.1.6)-1*
G04 #@! TF.CreationDate,2020-07-19T12:45:40+03:00*
G04 #@! TF.ProjectId,AstroPiMicro,41737472-6f50-4694-9d69-63726f2e6b69,1.0.8*
G04 #@! TF.SameCoordinates,Original*
G04 #@! TF.FileFunction,Legend,Bot*
G04 #@! TF.FilePolarity,Positive*
%FSLAX46Y46*%
G04 Gerber Fmt 4.6, Leading zero omitted, Abs format (unit mm)*
G04 Created by KiCad (PCBNEW (5.1.6)-1) date 2020-07-19 12:45:40*
%MOMM*%
%LPD*%
G01*
G04 APERTURE LIST*
%ADD10C,0.150000*%
%ADD11C,0.100000*%
G04 APERTURE END LIST*
D10*
X87469047Y-85185714D02*
X87707142Y-85185714D01*
X87707142Y-83757142D01*
X87469047Y-83757142D01*
X86564285Y-83900000D02*
X86659523Y-83852380D01*
X86802380Y-83852380D01*
X86945238Y-83900000D01*
X87040476Y-83995238D01*
X87088095Y-84090476D01*
X87135714Y-84280952D01*
X87135714Y-84423809D01*
X87088095Y-84614285D01*
X87040476Y-84709523D01*
X86945238Y-84804761D01*
X86802380Y-84852380D01*
X86707142Y-84852380D01*
X86564285Y-84804761D01*
X86516666Y-84757142D01*
X86516666Y-84423809D01*
X86707142Y-84423809D01*
X85707142Y-84804761D02*
X85802380Y-84852380D01*
X85992857Y-84852380D01*
X86088095Y-84804761D01*
X86135714Y-84709523D01*
X86135714Y-84328571D01*
X86088095Y-84233333D01*
X85992857Y-84185714D01*
X85802380Y-84185714D01*
X85707142Y-84233333D01*
X85659523Y-84328571D01*
X85659523Y-84423809D01*
X86135714Y-84519047D01*
X84802380Y-84852380D02*
X84802380Y-84328571D01*
X84850000Y-84233333D01*
X84945238Y-84185714D01*
X85135714Y-84185714D01*
X85230952Y-84233333D01*
X84802380Y-84804761D02*
X84897619Y-84852380D01*
X85135714Y-84852380D01*
X85230952Y-84804761D01*
X85278571Y-84709523D01*
X85278571Y-84614285D01*
X85230952Y-84519047D01*
X85135714Y-84471428D01*
X84897619Y-84471428D01*
X84802380Y-84423809D01*
X84326190Y-84185714D02*
X84326190Y-84852380D01*
X84326190Y-84280952D02*
X84278571Y-84233333D01*
X84183333Y-84185714D01*
X84040476Y-84185714D01*
X83945238Y-84233333D01*
X83897619Y-84328571D01*
X83897619Y-84852380D01*
X83421428Y-84852380D02*
X83421428Y-84185714D01*
X83421428Y-83852380D02*
X83469047Y-83900000D01*
X83421428Y-83947619D01*
X83373809Y-83900000D01*
X83421428Y-83852380D01*
X83421428Y-83947619D01*
X82945238Y-84185714D02*
X82945238Y-84852380D01*
X82945238Y-84280952D02*
X82897619Y-84233333D01*
X82802380Y-84185714D01*
X82659523Y-84185714D01*
X82564285Y-84233333D01*
X82516666Y-84328571D01*
X82516666Y-84852380D01*
X81611904Y-84852380D02*
X81611904Y-84328571D01*
X81659523Y-84233333D01*
X81754761Y-84185714D01*
X81945238Y-84185714D01*
X82040476Y-84233333D01*
X81611904Y-84804761D02*
X81707142Y-84852380D01*
X81945238Y-84852380D01*
X82040476Y-84804761D01*
X82088095Y-84709523D01*
X82088095Y-84614285D01*
X82040476Y-84519047D01*
X81945238Y-84471428D01*
X81707142Y-84471428D01*
X81611904Y-84423809D01*
X81230952Y-85185714D02*
X80992857Y-85185714D01*
X80992857Y-83757142D01*
X81230952Y-83757142D01*
D11*
G36*
X76550000Y-82750000D02*
G01*
X76550000Y-83250000D01*
X76050000Y-83250000D01*
X76050000Y-82750000D01*
X76550000Y-82750000D01*
G37*
G36*
X77050000Y-82750000D02*
G01*
X77050000Y-83250000D01*
X76550000Y-83250000D01*
X76550000Y-82750000D01*
X77050000Y-82750000D01*
G37*
G36*
X77550000Y-82750000D02*
G01*
X77550000Y-83250000D01*
X77050000Y-83250000D01*
X77050000Y-82750000D01*
X77550000Y-82750000D01*
G37*
G36*
X78050000Y-82750000D02*
G01*
X78050000Y-83250000D01*
X77550000Y-83250000D01*
X77550000Y-82750000D01*
X78050000Y-82750000D01*
G37*
G36*
X78550000Y-82750000D02*
G01*
X78550000Y-83250000D01*
X78050000Y-83250000D01*
X78050000Y-82750000D01*
X78550000Y-82750000D01*
G37*
G36*
X79050000Y-82750000D02*
G01*
X79050000Y-83250000D01*
X78550000Y-83250000D01*
X78550000Y-82750000D01*
X79050000Y-82750000D01*
G37*
G36*
X79550000Y-82750000D02*
G01*
X79550000Y-83250000D01*
X79050000Y-83250000D01*
X79050000Y-82750000D01*
X79550000Y-82750000D01*
G37*
G36*
X80550000Y-82750000D02*
G01*
X80550000Y-83250000D01*
X80050000Y-83250000D01*
X80050000Y-82750000D01*
X80550000Y-82750000D01*
G37*
G36*
X82550000Y-82750000D02*
G01*
X82550000Y-83250000D01*
X82050000Y-83250000D01*
X82050000Y-82750000D01*
X82550000Y-82750000D01*
G37*
G36*
X83050000Y-82750000D02*
G01*
X83050000Y-83250000D01*
X82550000Y-83250000D01*
X82550000Y-82750000D01*
X83050000Y-82750000D01*
G37*
G36*
X84550000Y-82750000D02*
G01*
X84550000Y-83250000D01*
X84050000Y-83250000D01*
X84050000Y-82750000D01*
X84550000Y-82750000D01*
G37*
G36*
X85550000Y-82750000D02*
G01*
X85550000Y-83250000D01*
X85050000Y-83250000D01*
X85050000Y-82750000D01*
X85550000Y-82750000D01*
G37*
G36*
X87550000Y-82750000D02*
G01*
X87550000Y-83250000D01*
X87050000Y-83250000D01*
X87050000Y-82750000D01*
X87550000Y-82750000D01*
G37*
G36*
X88050000Y-82750000D02*
G01*
X88050000Y-83250000D01*
X87550000Y-83250000D01*
X87550000Y-82750000D01*
X88050000Y-82750000D01*
G37*
G36*
X89550000Y-82750000D02*
G01*
X89550000Y-83250000D01*
X89050000Y-83250000D01*
X89050000Y-82750000D01*
X89550000Y-82750000D01*
G37*
G36*
X90050000Y-82750000D02*
G01*
X90050000Y-83250000D01*
X89550000Y-83250000D01*
X89550000Y-82750000D01*
X90050000Y-82750000D01*
G37*
G36*
X90550000Y-82750000D02*
G01*
X90550000Y-83250000D01*
X90050000Y-83250000D01*
X90050000Y-82750000D01*
X90550000Y-82750000D01*
G37*
G36*
X91050000Y-82750000D02*
G01*
X91050000Y-83250000D01*
X90550000Y-83250000D01*
X90550000Y-82750000D01*
X91050000Y-82750000D01*
G37*
G36*
X91550000Y-82750000D02*
G01*
X91550000Y-83250000D01*
X91050000Y-83250000D01*
X91050000Y-82750000D01*
X91550000Y-82750000D01*
G37*
G36*
X92050000Y-82750000D02*
G01*
X92050000Y-83250000D01*
X91550000Y-83250000D01*
X91550000Y-82750000D01*
X92050000Y-82750000D01*
G37*
G36*
X92550000Y-82750000D02*
G01*
X92550000Y-83250000D01*
X92050000Y-83250000D01*
X92050000Y-82750000D01*
X92550000Y-82750000D01*
G37*
G36*
X76550000Y-82250000D02*
G01*
X76550000Y-82750000D01*
X76050000Y-82750000D01*
X76050000Y-82250000D01*
X76550000Y-82250000D01*
G37*
G36*
X79550000Y-82250000D02*
G01*
X79550000Y-82750000D01*
X79050000Y-82750000D01*
X79050000Y-82250000D01*
X79550000Y-82250000D01*
G37*
G36*
X81550000Y-82250000D02*
G01*
X81550000Y-82750000D01*
X81050000Y-82750000D01*
X81050000Y-82250000D01*
X81550000Y-82250000D01*
G37*
G36*
X83050000Y-82250000D02*
G01*
X83050000Y-82750000D01*
X82550000Y-82750000D01*
X82550000Y-82250000D01*
X83050000Y-82250000D01*
G37*
G36*
X83550000Y-82250000D02*
G01*
X83550000Y-82750000D01*
X83050000Y-82750000D01*
X83050000Y-82250000D01*
X83550000Y-82250000D01*
G37*
G36*
X85550000Y-82250000D02*
G01*
X85550000Y-82750000D01*
X85050000Y-82750000D01*
X85050000Y-82250000D01*
X85550000Y-82250000D01*
G37*
G36*
X86050000Y-82250000D02*
G01*
X86050000Y-82750000D01*
X85550000Y-82750000D01*
X85550000Y-82250000D01*
X86050000Y-82250000D01*
G37*
G36*
X89550000Y-82250000D02*
G01*
X89550000Y-82750000D01*
X89050000Y-82750000D01*
X89050000Y-82250000D01*
X89550000Y-82250000D01*
G37*
G36*
X92550000Y-82250000D02*
G01*
X92550000Y-82750000D01*
X92050000Y-82750000D01*
X92050000Y-82250000D01*
X92550000Y-82250000D01*
G37*
G36*
X76550000Y-81750000D02*
G01*
X76550000Y-82250000D01*
X76050000Y-82250000D01*
X76050000Y-81750000D01*
X76550000Y-81750000D01*
G37*
G36*
X77550000Y-81750000D02*
G01*
X77550000Y-82250000D01*
X77050000Y-82250000D01*
X77050000Y-81750000D01*
X77550000Y-81750000D01*
G37*
G36*
X78050000Y-81750000D02*
G01*
X78050000Y-82250000D01*
X77550000Y-82250000D01*
X77550000Y-81750000D01*
X78050000Y-81750000D01*
G37*
G36*
X78550000Y-81750000D02*
G01*
X78550000Y-82250000D01*
X78050000Y-82250000D01*
X78050000Y-81750000D01*
X78550000Y-81750000D01*
G37*
G36*
X79550000Y-81750000D02*
G01*
X79550000Y-82250000D01*
X79050000Y-82250000D01*
X79050000Y-81750000D01*
X79550000Y-81750000D01*
G37*
G36*
X81050000Y-81750000D02*
G01*
X81050000Y-82250000D01*
X80550000Y-82250000D01*
X80550000Y-81750000D01*
X81050000Y-81750000D01*
G37*
G36*
X82050000Y-81750000D02*
G01*
X82050000Y-82250000D01*
X81550000Y-82250000D01*
X81550000Y-81750000D01*
X82050000Y-81750000D01*
G37*
G36*
X83550000Y-81750000D02*
G01*
X83550000Y-82250000D01*
X83050000Y-82250000D01*
X83050000Y-81750000D01*
X83550000Y-81750000D01*
G37*
G36*
X85050000Y-81750000D02*
G01*
X85050000Y-82250000D01*
X84550000Y-82250000D01*
X84550000Y-81750000D01*
X85050000Y-81750000D01*
G37*
G36*
X85550000Y-81750000D02*
G01*
X85550000Y-82250000D01*
X85050000Y-82250000D01*
X85050000Y-81750000D01*
X85550000Y-81750000D01*
G37*
G36*
X86050000Y-81750000D02*
G01*
X86050000Y-82250000D01*
X85550000Y-82250000D01*
X85550000Y-81750000D01*
X86050000Y-81750000D01*
G37*
G36*
X86550000Y-81750000D02*
G01*
X86550000Y-82250000D01*
X86050000Y-82250000D01*
X86050000Y-81750000D01*
X86550000Y-81750000D01*
G37*
G36*
X87050000Y-81750000D02*
G01*
X87050000Y-82250000D01*
X86550000Y-82250000D01*
X86550000Y-81750000D01*
X87050000Y-81750000D01*
G37*
G36*
X88550000Y-81750000D02*
G01*
X88550000Y-82250000D01*
X88050000Y-82250000D01*
X88050000Y-81750000D01*
X88550000Y-81750000D01*
G37*
G36*
X89550000Y-81750000D02*
G01*
X89550000Y-82250000D01*
X89050000Y-82250000D01*
X89050000Y-81750000D01*
X89550000Y-81750000D01*
G37*
G36*
X90550000Y-81750000D02*
G01*
X90550000Y-82250000D01*
X90050000Y-82250000D01*
X90050000Y-81750000D01*
X90550000Y-81750000D01*
G37*
G36*
X91050000Y-81750000D02*
G01*
X91050000Y-82250000D01*
X90550000Y-82250000D01*
X90550000Y-81750000D01*
X91050000Y-81750000D01*
G37*
G36*
X91550000Y-81750000D02*
G01*
X91550000Y-82250000D01*
X91050000Y-82250000D01*
X91050000Y-81750000D01*
X91550000Y-81750000D01*
G37*
G36*
X92550000Y-81750000D02*
G01*
X92550000Y-82250000D01*
X92050000Y-82250000D01*
X92050000Y-81750000D01*
X92550000Y-81750000D01*
G37*
G36*
X76550000Y-81250000D02*
G01*
X76550000Y-81750000D01*
X76050000Y-81750000D01*
X76050000Y-81250000D01*
X76550000Y-81250000D01*
G37*
G36*
X77550000Y-81250000D02*
G01*
X77550000Y-81750000D01*
X77050000Y-81750000D01*
X77050000Y-81250000D01*
X77550000Y-81250000D01*
G37*
G36*
X78050000Y-81250000D02*
G01*
X78050000Y-81750000D01*
X77550000Y-81750000D01*
X77550000Y-81250000D01*
X78050000Y-81250000D01*
G37*
G36*
X78550000Y-81250000D02*
G01*
X78550000Y-81750000D01*
X78050000Y-81750000D01*
X78050000Y-81250000D01*
X78550000Y-81250000D01*
G37*
G36*
X79550000Y-81250000D02*
G01*
X79550000Y-81750000D01*
X79050000Y-81750000D01*
X79050000Y-81250000D01*
X79550000Y-81250000D01*
G37*
G36*
X80550000Y-81250000D02*
G01*
X80550000Y-81750000D01*
X80050000Y-81750000D01*
X80050000Y-81250000D01*
X80550000Y-81250000D01*
G37*
G36*
X81050000Y-81250000D02*
G01*
X81050000Y-81750000D01*
X80550000Y-81750000D01*
X80550000Y-81250000D01*
X81050000Y-81250000D01*
G37*
G36*
X81550000Y-81250000D02*
G01*
X81550000Y-81750000D01*
X81050000Y-81750000D01*
X81050000Y-81250000D01*
X81550000Y-81250000D01*
G37*
G36*
X82050000Y-81250000D02*
G01*
X82050000Y-81750000D01*
X81550000Y-81750000D01*
X81550000Y-81250000D01*
X82050000Y-81250000D01*
G37*
G36*
X84050000Y-81250000D02*
G01*
X84050000Y-81750000D01*
X83550000Y-81750000D01*
X83550000Y-81250000D01*
X84050000Y-81250000D01*
G37*
G36*
X84550000Y-81250000D02*
G01*
X84550000Y-81750000D01*
X84050000Y-81750000D01*
X84050000Y-81250000D01*
X84550000Y-81250000D01*
G37*
G36*
X85050000Y-81250000D02*
G01*
X85050000Y-81750000D01*
X84550000Y-81750000D01*
X84550000Y-81250000D01*
X85050000Y-81250000D01*
G37*
G36*
X86050000Y-81250000D02*
G01*
X86050000Y-81750000D01*
X85550000Y-81750000D01*
X85550000Y-81250000D01*
X86050000Y-81250000D01*
G37*
G36*
X87050000Y-81250000D02*
G01*
X87050000Y-81750000D01*
X86550000Y-81750000D01*
X86550000Y-81250000D01*
X87050000Y-81250000D01*
G37*
G36*
X87550000Y-81250000D02*
G01*
X87550000Y-81750000D01*
X87050000Y-81750000D01*
X87050000Y-81250000D01*
X87550000Y-81250000D01*
G37*
G36*
X89550000Y-81250000D02*
G01*
X89550000Y-81750000D01*
X89050000Y-81750000D01*
X89050000Y-81250000D01*
X89550000Y-81250000D01*
G37*
G36*
X90550000Y-81250000D02*
G01*
X90550000Y-81750000D01*
X90050000Y-81750000D01*
X90050000Y-81250000D01*
X90550000Y-81250000D01*
G37*
G36*
X91050000Y-81250000D02*
G01*
X91050000Y-81750000D01*
X90550000Y-81750000D01*
X90550000Y-81250000D01*
X91050000Y-81250000D01*
G37*
G36*
X91550000Y-81250000D02*
G01*
X91550000Y-81750000D01*
X91050000Y-81750000D01*
X91050000Y-81250000D01*
X91550000Y-81250000D01*
G37*
G36*
X92550000Y-81250000D02*
G01*
X92550000Y-81750000D01*
X92050000Y-81750000D01*
X92050000Y-81250000D01*
X92550000Y-81250000D01*
G37*
G36*
X76550000Y-80750000D02*
G01*
X76550000Y-81250000D01*
X76050000Y-81250000D01*
X76050000Y-80750000D01*
X76550000Y-80750000D01*
G37*
G36*
X77550000Y-80750000D02*
G01*
X77550000Y-81250000D01*
X77050000Y-81250000D01*
X77050000Y-80750000D01*
X77550000Y-80750000D01*
G37*
G36*
X78050000Y-80750000D02*
G01*
X78050000Y-81250000D01*
X77550000Y-81250000D01*
X77550000Y-80750000D01*
X78050000Y-80750000D01*
G37*
G36*
X78550000Y-80750000D02*
G01*
X78550000Y-81250000D01*
X78050000Y-81250000D01*
X78050000Y-80750000D01*
X78550000Y-80750000D01*
G37*
G36*
X79550000Y-80750000D02*
G01*
X79550000Y-81250000D01*
X79050000Y-81250000D01*
X79050000Y-80750000D01*
X79550000Y-80750000D01*
G37*
G36*
X80550000Y-80750000D02*
G01*
X80550000Y-81250000D01*
X80050000Y-81250000D01*
X80050000Y-80750000D01*
X80550000Y-80750000D01*
G37*
G36*
X81550000Y-80750000D02*
G01*
X81550000Y-81250000D01*
X81050000Y-81250000D01*
X81050000Y-80750000D01*
X81550000Y-80750000D01*
G37*
G36*
X82050000Y-80750000D02*
G01*
X82050000Y-81250000D01*
X81550000Y-81250000D01*
X81550000Y-80750000D01*
X82050000Y-80750000D01*
G37*
G36*
X82550000Y-80750000D02*
G01*
X82550000Y-81250000D01*
X82050000Y-81250000D01*
X82050000Y-80750000D01*
X82550000Y-80750000D01*
G37*
G36*
X84550000Y-80750000D02*
G01*
X84550000Y-81250000D01*
X84050000Y-81250000D01*
X84050000Y-80750000D01*
X84550000Y-80750000D01*
G37*
G36*
X85050000Y-80750000D02*
G01*
X85050000Y-81250000D01*
X84550000Y-81250000D01*
X84550000Y-80750000D01*
X85050000Y-80750000D01*
G37*
G36*
X86050000Y-80750000D02*
G01*
X86050000Y-81250000D01*
X85550000Y-81250000D01*
X85550000Y-80750000D01*
X86050000Y-80750000D01*
G37*
G36*
X87550000Y-80750000D02*
G01*
X87550000Y-81250000D01*
X87050000Y-81250000D01*
X87050000Y-80750000D01*
X87550000Y-80750000D01*
G37*
G36*
X89550000Y-80750000D02*
G01*
X89550000Y-81250000D01*
X89050000Y-81250000D01*
X89050000Y-80750000D01*
X89550000Y-80750000D01*
G37*
G36*
X90550000Y-80750000D02*
G01*
X90550000Y-81250000D01*
X90050000Y-81250000D01*
X90050000Y-80750000D01*
X90550000Y-80750000D01*
G37*
G36*
X91050000Y-80750000D02*
G01*
X91050000Y-81250000D01*
X90550000Y-81250000D01*
X90550000Y-80750000D01*
X91050000Y-80750000D01*
G37*
G36*
X91550000Y-80750000D02*
G01*
X91550000Y-81250000D01*
X91050000Y-81250000D01*
X91050000Y-80750000D01*
X91550000Y-80750000D01*
G37*
G36*
X92550000Y-80750000D02*
G01*
X92550000Y-81250000D01*
X92050000Y-81250000D01*
X92050000Y-80750000D01*
X92550000Y-80750000D01*
G37*
G36*
X76550000Y-80250000D02*
G01*
X76550000Y-80750000D01*
X76050000Y-80750000D01*
X76050000Y-80250000D01*
X76550000Y-80250000D01*
G37*
G36*
X79550000Y-80250000D02*
G01*
X79550000Y-80750000D01*
X79050000Y-80750000D01*
X79050000Y-80250000D01*
X79550000Y-80250000D01*
G37*
G36*
X80550000Y-80250000D02*
G01*
X80550000Y-80750000D01*
X80050000Y-80750000D01*
X80050000Y-80250000D01*
X80550000Y-80250000D01*
G37*
G36*
X81050000Y-80250000D02*
G01*
X81050000Y-80750000D01*
X80550000Y-80750000D01*
X80550000Y-80250000D01*
X81050000Y-80250000D01*
G37*
G36*
X81550000Y-80250000D02*
G01*
X81550000Y-80750000D01*
X81050000Y-80750000D01*
X81050000Y-80250000D01*
X81550000Y-80250000D01*
G37*
G36*
X83550000Y-80250000D02*
G01*
X83550000Y-80750000D01*
X83050000Y-80750000D01*
X83050000Y-80250000D01*
X83550000Y-80250000D01*
G37*
G36*
X84050000Y-80250000D02*
G01*
X84050000Y-80750000D01*
X83550000Y-80750000D01*
X83550000Y-80250000D01*
X84050000Y-80250000D01*
G37*
G36*
X85050000Y-80250000D02*
G01*
X85050000Y-80750000D01*
X84550000Y-80750000D01*
X84550000Y-80250000D01*
X85050000Y-80250000D01*
G37*
G36*
X86550000Y-80250000D02*
G01*
X86550000Y-80750000D01*
X86050000Y-80750000D01*
X86050000Y-80250000D01*
X86550000Y-80250000D01*
G37*
G36*
X87050000Y-80250000D02*
G01*
X87050000Y-80750000D01*
X86550000Y-80750000D01*
X86550000Y-80250000D01*
X87050000Y-80250000D01*
G37*
G36*
X88050000Y-80250000D02*
G01*
X88050000Y-80750000D01*
X87550000Y-80750000D01*
X87550000Y-80250000D01*
X88050000Y-80250000D01*
G37*
G36*
X88550000Y-80250000D02*
G01*
X88550000Y-80750000D01*
X88050000Y-80750000D01*
X88050000Y-80250000D01*
X88550000Y-80250000D01*
G37*
G36*
X89550000Y-80250000D02*
G01*
X89550000Y-80750000D01*
X89050000Y-80750000D01*
X89050000Y-80250000D01*
X89550000Y-80250000D01*
G37*
G36*
X92550000Y-80250000D02*
G01*
X92550000Y-80750000D01*
X92050000Y-80750000D01*
X92050000Y-80250000D01*
X92550000Y-80250000D01*
G37*
G36*
X76550000Y-79750000D02*
G01*
X76550000Y-80250000D01*
X76050000Y-80250000D01*
X76050000Y-79750000D01*
X76550000Y-79750000D01*
G37*
G36*
X77050000Y-79750000D02*
G01*
X77050000Y-80250000D01*
X76550000Y-80250000D01*
X76550000Y-79750000D01*
X77050000Y-79750000D01*
G37*
G36*
X77550000Y-79750000D02*
G01*
X77550000Y-80250000D01*
X77050000Y-80250000D01*
X77050000Y-79750000D01*
X77550000Y-79750000D01*
G37*
G36*
X78050000Y-79750000D02*
G01*
X78050000Y-80250000D01*
X77550000Y-80250000D01*
X77550000Y-79750000D01*
X78050000Y-79750000D01*
G37*
G36*
X78550000Y-79750000D02*
G01*
X78550000Y-80250000D01*
X78050000Y-80250000D01*
X78050000Y-79750000D01*
X78550000Y-79750000D01*
G37*
G36*
X79050000Y-79750000D02*
G01*
X79050000Y-80250000D01*
X78550000Y-80250000D01*
X78550000Y-79750000D01*
X79050000Y-79750000D01*
G37*
G36*
X79550000Y-79750000D02*
G01*
X79550000Y-80250000D01*
X79050000Y-80250000D01*
X79050000Y-79750000D01*
X79550000Y-79750000D01*
G37*
G36*
X80550000Y-79750000D02*
G01*
X80550000Y-80250000D01*
X80050000Y-80250000D01*
X80050000Y-79750000D01*
X80550000Y-79750000D01*
G37*
G36*
X81550000Y-79750000D02*
G01*
X81550000Y-80250000D01*
X81050000Y-80250000D01*
X81050000Y-79750000D01*
X81550000Y-79750000D01*
G37*
G36*
X82550000Y-79750000D02*
G01*
X82550000Y-80250000D01*
X82050000Y-80250000D01*
X82050000Y-79750000D01*
X82550000Y-79750000D01*
G37*
G36*
X83550000Y-79750000D02*
G01*
X83550000Y-80250000D01*
X83050000Y-80250000D01*
X83050000Y-79750000D01*
X83550000Y-79750000D01*
G37*
G36*
X84550000Y-79750000D02*
G01*
X84550000Y-80250000D01*
X84050000Y-80250000D01*
X84050000Y-79750000D01*
X84550000Y-79750000D01*
G37*
G36*
X85550000Y-79750000D02*
G01*
X85550000Y-80250000D01*
X85050000Y-80250000D01*
X85050000Y-79750000D01*
X85550000Y-79750000D01*
G37*
G36*
X86550000Y-79750000D02*
G01*
X86550000Y-80250000D01*
X86050000Y-80250000D01*
X86050000Y-79750000D01*
X86550000Y-79750000D01*
G37*
G36*
X87550000Y-79750000D02*
G01*
X87550000Y-80250000D01*
X87050000Y-80250000D01*
X87050000Y-79750000D01*
X87550000Y-79750000D01*
G37*
G36*
X88550000Y-79750000D02*
G01*
X88550000Y-80250000D01*
X88050000Y-80250000D01*
X88050000Y-79750000D01*
X88550000Y-79750000D01*
G37*
G36*
X89550000Y-79750000D02*
G01*
X89550000Y-80250000D01*
X89050000Y-80250000D01*
X89050000Y-79750000D01*
X89550000Y-79750000D01*
G37*
G36*
X90050000Y-79750000D02*
G01*
X90050000Y-80250000D01*
X89550000Y-80250000D01*
X89550000Y-79750000D01*
X90050000Y-79750000D01*
G37*
G36*
X90550000Y-79750000D02*
G01*
X90550000Y-80250000D01*
X90050000Y-80250000D01*
X90050000Y-79750000D01*
X90550000Y-79750000D01*
G37*
G36*
X91050000Y-79750000D02*
G01*
X91050000Y-80250000D01*
X90550000Y-80250000D01*
X90550000Y-79750000D01*
X91050000Y-79750000D01*
G37*
G36*
X91550000Y-79750000D02*
G01*
X91550000Y-80250000D01*
X91050000Y-80250000D01*
X91050000Y-79750000D01*
X91550000Y-79750000D01*
G37*
G36*
X92050000Y-79750000D02*
G01*
X92050000Y-80250000D01*
X91550000Y-80250000D01*
X91550000Y-79750000D01*
X92050000Y-79750000D01*
G37*
G36*
X92550000Y-79750000D02*
G01*
X92550000Y-80250000D01*
X92050000Y-80250000D01*
X92050000Y-79750000D01*
X92550000Y-79750000D01*
G37*
G36*
X80550000Y-79250000D02*
G01*
X80550000Y-79750000D01*
X80050000Y-79750000D01*
X80050000Y-79250000D01*
X80550000Y-79250000D01*
G37*
G36*
X81550000Y-79250000D02*
G01*
X81550000Y-79750000D01*
X81050000Y-79750000D01*
X81050000Y-79250000D01*
X81550000Y-79250000D01*
G37*
G36*
X85050000Y-79250000D02*
G01*
X85050000Y-79750000D01*
X84550000Y-79750000D01*
X84550000Y-79250000D01*
X85050000Y-79250000D01*
G37*
G36*
X85550000Y-79250000D02*
G01*
X85550000Y-79750000D01*
X85050000Y-79750000D01*
X85050000Y-79250000D01*
X85550000Y-79250000D01*
G37*
G36*
X86050000Y-79250000D02*
G01*
X86050000Y-79750000D01*
X85550000Y-79750000D01*
X85550000Y-79250000D01*
X86050000Y-79250000D01*
G37*
G36*
X86550000Y-79250000D02*
G01*
X86550000Y-79750000D01*
X86050000Y-79750000D01*
X86050000Y-79250000D01*
X86550000Y-79250000D01*
G37*
G36*
X87050000Y-79250000D02*
G01*
X87050000Y-79750000D01*
X86550000Y-79750000D01*
X86550000Y-79250000D01*
X87050000Y-79250000D01*
G37*
G36*
X88550000Y-79250000D02*
G01*
X88550000Y-79750000D01*
X88050000Y-79750000D01*
X88050000Y-79250000D01*
X88550000Y-79250000D01*
G37*
G36*
X76550000Y-78750000D02*
G01*
X76550000Y-79250000D01*
X76050000Y-79250000D01*
X76050000Y-78750000D01*
X76550000Y-78750000D01*
G37*
G36*
X78550000Y-78750000D02*
G01*
X78550000Y-79250000D01*
X78050000Y-79250000D01*
X78050000Y-78750000D01*
X78550000Y-78750000D01*
G37*
G36*
X79550000Y-78750000D02*
G01*
X79550000Y-79250000D01*
X79050000Y-79250000D01*
X79050000Y-78750000D01*
X79550000Y-78750000D01*
G37*
G36*
X80050000Y-78750000D02*
G01*
X80050000Y-79250000D01*
X79550000Y-79250000D01*
X79550000Y-78750000D01*
X80050000Y-78750000D01*
G37*
G36*
X80550000Y-78750000D02*
G01*
X80550000Y-79250000D01*
X80050000Y-79250000D01*
X80050000Y-78750000D01*
X80550000Y-78750000D01*
G37*
G36*
X82050000Y-78750000D02*
G01*
X82050000Y-79250000D01*
X81550000Y-79250000D01*
X81550000Y-78750000D01*
X82050000Y-78750000D01*
G37*
G36*
X84050000Y-78750000D02*
G01*
X84050000Y-79250000D01*
X83550000Y-79250000D01*
X83550000Y-78750000D01*
X84050000Y-78750000D01*
G37*
G36*
X84550000Y-78750000D02*
G01*
X84550000Y-79250000D01*
X84050000Y-79250000D01*
X84050000Y-78750000D01*
X84550000Y-78750000D01*
G37*
G36*
X85050000Y-78750000D02*
G01*
X85050000Y-79250000D01*
X84550000Y-79250000D01*
X84550000Y-78750000D01*
X85050000Y-78750000D01*
G37*
G36*
X85550000Y-78750000D02*
G01*
X85550000Y-79250000D01*
X85050000Y-79250000D01*
X85050000Y-78750000D01*
X85550000Y-78750000D01*
G37*
G36*
X86550000Y-78750000D02*
G01*
X86550000Y-79250000D01*
X86050000Y-79250000D01*
X86050000Y-78750000D01*
X86550000Y-78750000D01*
G37*
G36*
X87050000Y-78750000D02*
G01*
X87050000Y-79250000D01*
X86550000Y-79250000D01*
X86550000Y-78750000D01*
X87050000Y-78750000D01*
G37*
G36*
X88050000Y-78750000D02*
G01*
X88050000Y-79250000D01*
X87550000Y-79250000D01*
X87550000Y-78750000D01*
X88050000Y-78750000D01*
G37*
G36*
X88550000Y-78750000D02*
G01*
X88550000Y-79250000D01*
X88050000Y-79250000D01*
X88050000Y-78750000D01*
X88550000Y-78750000D01*
G37*
G36*
X89050000Y-78750000D02*
G01*
X89050000Y-79250000D01*
X88550000Y-79250000D01*
X88550000Y-78750000D01*
X89050000Y-78750000D01*
G37*
G36*
X89550000Y-78750000D02*
G01*
X89550000Y-79250000D01*
X89050000Y-79250000D01*
X89050000Y-78750000D01*
X89550000Y-78750000D01*
G37*
G36*
X90050000Y-78750000D02*
G01*
X90050000Y-79250000D01*
X89550000Y-79250000D01*
X89550000Y-78750000D01*
X90050000Y-78750000D01*
G37*
G36*
X90550000Y-78750000D02*
G01*
X90550000Y-79250000D01*
X90050000Y-79250000D01*
X90050000Y-78750000D01*
X90550000Y-78750000D01*
G37*
G36*
X91050000Y-78750000D02*
G01*
X91050000Y-79250000D01*
X90550000Y-79250000D01*
X90550000Y-78750000D01*
X91050000Y-78750000D01*
G37*
G36*
X92550000Y-78750000D02*
G01*
X92550000Y-79250000D01*
X92050000Y-79250000D01*
X92050000Y-78750000D01*
X92550000Y-78750000D01*
G37*
G36*
X76550000Y-78250000D02*
G01*
X76550000Y-78750000D01*
X76050000Y-78750000D01*
X76050000Y-78250000D01*
X76550000Y-78250000D01*
G37*
G36*
X77550000Y-78250000D02*
G01*
X77550000Y-78750000D01*
X77050000Y-78750000D01*
X77050000Y-78250000D01*
X77550000Y-78250000D01*
G37*
G36*
X78050000Y-78250000D02*
G01*
X78050000Y-78750000D01*
X77550000Y-78750000D01*
X77550000Y-78250000D01*
X78050000Y-78250000D01*
G37*
G36*
X78550000Y-78250000D02*
G01*
X78550000Y-78750000D01*
X78050000Y-78750000D01*
X78050000Y-78250000D01*
X78550000Y-78250000D01*
G37*
G36*
X80050000Y-78250000D02*
G01*
X80050000Y-78750000D01*
X79550000Y-78750000D01*
X79550000Y-78250000D01*
X80050000Y-78250000D01*
G37*
G36*
X80550000Y-78250000D02*
G01*
X80550000Y-78750000D01*
X80050000Y-78750000D01*
X80050000Y-78250000D01*
X80550000Y-78250000D01*
G37*
G36*
X81050000Y-78250000D02*
G01*
X81050000Y-78750000D01*
X80550000Y-78750000D01*
X80550000Y-78250000D01*
X81050000Y-78250000D01*
G37*
G36*
X83550000Y-78250000D02*
G01*
X83550000Y-78750000D01*
X83050000Y-78750000D01*
X83050000Y-78250000D01*
X83550000Y-78250000D01*
G37*
G36*
X84050000Y-78250000D02*
G01*
X84050000Y-78750000D01*
X83550000Y-78750000D01*
X83550000Y-78250000D01*
X84050000Y-78250000D01*
G37*
G36*
X85050000Y-78250000D02*
G01*
X85050000Y-78750000D01*
X84550000Y-78750000D01*
X84550000Y-78250000D01*
X85050000Y-78250000D01*
G37*
G36*
X85550000Y-78250000D02*
G01*
X85550000Y-78750000D01*
X85050000Y-78750000D01*
X85050000Y-78250000D01*
X85550000Y-78250000D01*
G37*
G36*
X87050000Y-78250000D02*
G01*
X87050000Y-78750000D01*
X86550000Y-78750000D01*
X86550000Y-78250000D01*
X87050000Y-78250000D01*
G37*
G36*
X88050000Y-78250000D02*
G01*
X88050000Y-78750000D01*
X87550000Y-78750000D01*
X87550000Y-78250000D01*
X88050000Y-78250000D01*
G37*
G36*
X89050000Y-78250000D02*
G01*
X89050000Y-78750000D01*
X88550000Y-78750000D01*
X88550000Y-78250000D01*
X89050000Y-78250000D01*
G37*
G36*
X91050000Y-78250000D02*
G01*
X91050000Y-78750000D01*
X90550000Y-78750000D01*
X90550000Y-78250000D01*
X91050000Y-78250000D01*
G37*
G36*
X91550000Y-78250000D02*
G01*
X91550000Y-78750000D01*
X91050000Y-78750000D01*
X91050000Y-78250000D01*
X91550000Y-78250000D01*
G37*
G36*
X92550000Y-78250000D02*
G01*
X92550000Y-78750000D01*
X92050000Y-78750000D01*
X92050000Y-78250000D01*
X92550000Y-78250000D01*
G37*
G36*
X76550000Y-77750000D02*
G01*
X76550000Y-78250000D01*
X76050000Y-78250000D01*
X76050000Y-77750000D01*
X76550000Y-77750000D01*
G37*
G36*
X78050000Y-77750000D02*
G01*
X78050000Y-78250000D01*
X77550000Y-78250000D01*
X77550000Y-77750000D01*
X78050000Y-77750000D01*
G37*
G36*
X79550000Y-77750000D02*
G01*
X79550000Y-78250000D01*
X79050000Y-78250000D01*
X79050000Y-77750000D01*
X79550000Y-77750000D01*
G37*
G36*
X80550000Y-77750000D02*
G01*
X80550000Y-78250000D01*
X80050000Y-78250000D01*
X80050000Y-77750000D01*
X80550000Y-77750000D01*
G37*
G36*
X81050000Y-77750000D02*
G01*
X81050000Y-78250000D01*
X80550000Y-78250000D01*
X80550000Y-77750000D01*
X81050000Y-77750000D01*
G37*
G36*
X81550000Y-77750000D02*
G01*
X81550000Y-78250000D01*
X81050000Y-78250000D01*
X81050000Y-77750000D01*
X81550000Y-77750000D01*
G37*
G36*
X83050000Y-77750000D02*
G01*
X83050000Y-78250000D01*
X82550000Y-78250000D01*
X82550000Y-77750000D01*
X83050000Y-77750000D01*
G37*
G36*
X83550000Y-77750000D02*
G01*
X83550000Y-78250000D01*
X83050000Y-78250000D01*
X83050000Y-77750000D01*
X83550000Y-77750000D01*
G37*
G36*
X84050000Y-77750000D02*
G01*
X84050000Y-78250000D01*
X83550000Y-78250000D01*
X83550000Y-77750000D01*
X84050000Y-77750000D01*
G37*
G36*
X85550000Y-77750000D02*
G01*
X85550000Y-78250000D01*
X85050000Y-78250000D01*
X85050000Y-77750000D01*
X85550000Y-77750000D01*
G37*
G36*
X86550000Y-77750000D02*
G01*
X86550000Y-78250000D01*
X86050000Y-78250000D01*
X86050000Y-77750000D01*
X86550000Y-77750000D01*
G37*
G36*
X88050000Y-77750000D02*
G01*
X88050000Y-78250000D01*
X87550000Y-78250000D01*
X87550000Y-77750000D01*
X88050000Y-77750000D01*
G37*
G36*
X89050000Y-77750000D02*
G01*
X89050000Y-78250000D01*
X88550000Y-78250000D01*
X88550000Y-77750000D01*
X89050000Y-77750000D01*
G37*
G36*
X89550000Y-77750000D02*
G01*
X89550000Y-78250000D01*
X89050000Y-78250000D01*
X89050000Y-77750000D01*
X89550000Y-77750000D01*
G37*
G36*
X91050000Y-77750000D02*
G01*
X91050000Y-78250000D01*
X90550000Y-78250000D01*
X90550000Y-77750000D01*
X91050000Y-77750000D01*
G37*
G36*
X92050000Y-77750000D02*
G01*
X92050000Y-78250000D01*
X91550000Y-78250000D01*
X91550000Y-77750000D01*
X92050000Y-77750000D01*
G37*
G36*
X77050000Y-77250000D02*
G01*
X77050000Y-77750000D01*
X76550000Y-77750000D01*
X76550000Y-77250000D01*
X77050000Y-77250000D01*
G37*
G36*
X78050000Y-77250000D02*
G01*
X78050000Y-77750000D01*
X77550000Y-77750000D01*
X77550000Y-77250000D01*
X78050000Y-77250000D01*
G37*
G36*
X80550000Y-77250000D02*
G01*
X80550000Y-77750000D01*
X80050000Y-77750000D01*
X80050000Y-77250000D01*
X80550000Y-77250000D01*
G37*
G36*
X81050000Y-77250000D02*
G01*
X81050000Y-77750000D01*
X80550000Y-77750000D01*
X80550000Y-77250000D01*
X81050000Y-77250000D01*
G37*
G36*
X81550000Y-77250000D02*
G01*
X81550000Y-77750000D01*
X81050000Y-77750000D01*
X81050000Y-77250000D01*
X81550000Y-77250000D01*
G37*
G36*
X82050000Y-77250000D02*
G01*
X82050000Y-77750000D01*
X81550000Y-77750000D01*
X81550000Y-77250000D01*
X82050000Y-77250000D01*
G37*
G36*
X83050000Y-77250000D02*
G01*
X83050000Y-77750000D01*
X82550000Y-77750000D01*
X82550000Y-77250000D01*
X83050000Y-77250000D01*
G37*
G36*
X84050000Y-77250000D02*
G01*
X84050000Y-77750000D01*
X83550000Y-77750000D01*
X83550000Y-77250000D01*
X84050000Y-77250000D01*
G37*
G36*
X86050000Y-77250000D02*
G01*
X86050000Y-77750000D01*
X85550000Y-77750000D01*
X85550000Y-77250000D01*
X86050000Y-77250000D01*
G37*
G36*
X86550000Y-77250000D02*
G01*
X86550000Y-77750000D01*
X86050000Y-77750000D01*
X86050000Y-77250000D01*
X86550000Y-77250000D01*
G37*
G36*
X87550000Y-77250000D02*
G01*
X87550000Y-77750000D01*
X87050000Y-77750000D01*
X87050000Y-77250000D01*
X87550000Y-77250000D01*
G37*
G36*
X88050000Y-77250000D02*
G01*
X88050000Y-77750000D01*
X87550000Y-77750000D01*
X87550000Y-77250000D01*
X88050000Y-77250000D01*
G37*
G36*
X88550000Y-77250000D02*
G01*
X88550000Y-77750000D01*
X88050000Y-77750000D01*
X88050000Y-77250000D01*
X88550000Y-77250000D01*
G37*
G36*
X89050000Y-77250000D02*
G01*
X89050000Y-77750000D01*
X88550000Y-77750000D01*
X88550000Y-77250000D01*
X89050000Y-77250000D01*
G37*
G36*
X92050000Y-77250000D02*
G01*
X92050000Y-77750000D01*
X91550000Y-77750000D01*
X91550000Y-77250000D01*
X92050000Y-77250000D01*
G37*
G36*
X76550000Y-76750000D02*
G01*
X76550000Y-77250000D01*
X76050000Y-77250000D01*
X76050000Y-76750000D01*
X76550000Y-76750000D01*
G37*
G36*
X79050000Y-76750000D02*
G01*
X79050000Y-77250000D01*
X78550000Y-77250000D01*
X78550000Y-76750000D01*
X79050000Y-76750000D01*
G37*
G36*
X79550000Y-76750000D02*
G01*
X79550000Y-77250000D01*
X79050000Y-77250000D01*
X79050000Y-76750000D01*
X79550000Y-76750000D01*
G37*
G36*
X83050000Y-76750000D02*
G01*
X83050000Y-77250000D01*
X82550000Y-77250000D01*
X82550000Y-76750000D01*
X83050000Y-76750000D01*
G37*
G36*
X84550000Y-76750000D02*
G01*
X84550000Y-77250000D01*
X84050000Y-77250000D01*
X84050000Y-76750000D01*
X84550000Y-76750000D01*
G37*
G36*
X86050000Y-76750000D02*
G01*
X86050000Y-77250000D01*
X85550000Y-77250000D01*
X85550000Y-76750000D01*
X86050000Y-76750000D01*
G37*
G36*
X87550000Y-76750000D02*
G01*
X87550000Y-77250000D01*
X87050000Y-77250000D01*
X87050000Y-76750000D01*
X87550000Y-76750000D01*
G37*
G36*
X88550000Y-76750000D02*
G01*
X88550000Y-77250000D01*
X88050000Y-77250000D01*
X88050000Y-76750000D01*
X88550000Y-76750000D01*
G37*
G36*
X89550000Y-76750000D02*
G01*
X89550000Y-77250000D01*
X89050000Y-77250000D01*
X89050000Y-76750000D01*
X89550000Y-76750000D01*
G37*
G36*
X91050000Y-76750000D02*
G01*
X91050000Y-77250000D01*
X90550000Y-77250000D01*
X90550000Y-76750000D01*
X91050000Y-76750000D01*
G37*
G36*
X92050000Y-76750000D02*
G01*
X92050000Y-77250000D01*
X91550000Y-77250000D01*
X91550000Y-76750000D01*
X92050000Y-76750000D01*
G37*
G36*
X92550000Y-76750000D02*
G01*
X92550000Y-77250000D01*
X92050000Y-77250000D01*
X92050000Y-76750000D01*
X92550000Y-76750000D01*
G37*
G36*
X76550000Y-76250000D02*
G01*
X76550000Y-76750000D01*
X76050000Y-76750000D01*
X76050000Y-76250000D01*
X76550000Y-76250000D01*
G37*
G36*
X77050000Y-76250000D02*
G01*
X77050000Y-76750000D01*
X76550000Y-76750000D01*
X76550000Y-76250000D01*
X77050000Y-76250000D01*
G37*
G36*
X78550000Y-76250000D02*
G01*
X78550000Y-76750000D01*
X78050000Y-76750000D01*
X78050000Y-76250000D01*
X78550000Y-76250000D01*
G37*
G36*
X80550000Y-76250000D02*
G01*
X80550000Y-76750000D01*
X80050000Y-76750000D01*
X80050000Y-76250000D01*
X80550000Y-76250000D01*
G37*
G36*
X81050000Y-76250000D02*
G01*
X81050000Y-76750000D01*
X80550000Y-76750000D01*
X80550000Y-76250000D01*
X81050000Y-76250000D01*
G37*
G36*
X82050000Y-76250000D02*
G01*
X82050000Y-76750000D01*
X81550000Y-76750000D01*
X81550000Y-76250000D01*
X82050000Y-76250000D01*
G37*
G36*
X83050000Y-76250000D02*
G01*
X83050000Y-76750000D01*
X82550000Y-76750000D01*
X82550000Y-76250000D01*
X83050000Y-76250000D01*
G37*
G36*
X83550000Y-76250000D02*
G01*
X83550000Y-76750000D01*
X83050000Y-76750000D01*
X83050000Y-76250000D01*
X83550000Y-76250000D01*
G37*
G36*
X85050000Y-76250000D02*
G01*
X85050000Y-76750000D01*
X84550000Y-76750000D01*
X84550000Y-76250000D01*
X85050000Y-76250000D01*
G37*
G36*
X85550000Y-76250000D02*
G01*
X85550000Y-76750000D01*
X85050000Y-76750000D01*
X85050000Y-76250000D01*
X85550000Y-76250000D01*
G37*
G36*
X86050000Y-76250000D02*
G01*
X86050000Y-76750000D01*
X85550000Y-76750000D01*
X85550000Y-76250000D01*
X86050000Y-76250000D01*
G37*
G36*
X86550000Y-76250000D02*
G01*
X86550000Y-76750000D01*
X86050000Y-76750000D01*
X86050000Y-76250000D01*
X86550000Y-76250000D01*
G37*
G36*
X87050000Y-76250000D02*
G01*
X87050000Y-76750000D01*
X86550000Y-76750000D01*
X86550000Y-76250000D01*
X87050000Y-76250000D01*
G37*
G36*
X88550000Y-76250000D02*
G01*
X88550000Y-76750000D01*
X88050000Y-76750000D01*
X88050000Y-76250000D01*
X88550000Y-76250000D01*
G37*
G36*
X89050000Y-76250000D02*
G01*
X89050000Y-76750000D01*
X88550000Y-76750000D01*
X88550000Y-76250000D01*
X89050000Y-76250000D01*
G37*
G36*
X89550000Y-76250000D02*
G01*
X89550000Y-76750000D01*
X89050000Y-76750000D01*
X89050000Y-76250000D01*
X89550000Y-76250000D01*
G37*
G36*
X90050000Y-76250000D02*
G01*
X90050000Y-76750000D01*
X89550000Y-76750000D01*
X89550000Y-76250000D01*
X90050000Y-76250000D01*
G37*
G36*
X91550000Y-76250000D02*
G01*
X91550000Y-76750000D01*
X91050000Y-76750000D01*
X91050000Y-76250000D01*
X91550000Y-76250000D01*
G37*
G36*
X76550000Y-75750000D02*
G01*
X76550000Y-76250000D01*
X76050000Y-76250000D01*
X76050000Y-75750000D01*
X76550000Y-75750000D01*
G37*
G36*
X77550000Y-75750000D02*
G01*
X77550000Y-76250000D01*
X77050000Y-76250000D01*
X77050000Y-75750000D01*
X77550000Y-75750000D01*
G37*
G36*
X78050000Y-75750000D02*
G01*
X78050000Y-76250000D01*
X77550000Y-76250000D01*
X77550000Y-75750000D01*
X78050000Y-75750000D01*
G37*
G36*
X79550000Y-75750000D02*
G01*
X79550000Y-76250000D01*
X79050000Y-76250000D01*
X79050000Y-75750000D01*
X79550000Y-75750000D01*
G37*
G36*
X80550000Y-75750000D02*
G01*
X80550000Y-76250000D01*
X80050000Y-76250000D01*
X80050000Y-75750000D01*
X80550000Y-75750000D01*
G37*
G36*
X81050000Y-75750000D02*
G01*
X81050000Y-76250000D01*
X80550000Y-76250000D01*
X80550000Y-75750000D01*
X81050000Y-75750000D01*
G37*
G36*
X83550000Y-75750000D02*
G01*
X83550000Y-76250000D01*
X83050000Y-76250000D01*
X83050000Y-75750000D01*
X83550000Y-75750000D01*
G37*
G36*
X84050000Y-75750000D02*
G01*
X84050000Y-76250000D01*
X83550000Y-76250000D01*
X83550000Y-75750000D01*
X84050000Y-75750000D01*
G37*
G36*
X85550000Y-75750000D02*
G01*
X85550000Y-76250000D01*
X85050000Y-76250000D01*
X85050000Y-75750000D01*
X85550000Y-75750000D01*
G37*
G36*
X86550000Y-75750000D02*
G01*
X86550000Y-76250000D01*
X86050000Y-76250000D01*
X86050000Y-75750000D01*
X86550000Y-75750000D01*
G37*
G36*
X88050000Y-75750000D02*
G01*
X88050000Y-76250000D01*
X87550000Y-76250000D01*
X87550000Y-75750000D01*
X88050000Y-75750000D01*
G37*
G36*
X89050000Y-75750000D02*
G01*
X89050000Y-76250000D01*
X88550000Y-76250000D01*
X88550000Y-75750000D01*
X89050000Y-75750000D01*
G37*
G36*
X89550000Y-75750000D02*
G01*
X89550000Y-76250000D01*
X89050000Y-76250000D01*
X89050000Y-75750000D01*
X89550000Y-75750000D01*
G37*
G36*
X92050000Y-75750000D02*
G01*
X92050000Y-76250000D01*
X91550000Y-76250000D01*
X91550000Y-75750000D01*
X92050000Y-75750000D01*
G37*
G36*
X76550000Y-75250000D02*
G01*
X76550000Y-75750000D01*
X76050000Y-75750000D01*
X76050000Y-75250000D01*
X76550000Y-75250000D01*
G37*
G36*
X77050000Y-75250000D02*
G01*
X77050000Y-75750000D01*
X76550000Y-75750000D01*
X76550000Y-75250000D01*
X77050000Y-75250000D01*
G37*
G36*
X78050000Y-75250000D02*
G01*
X78050000Y-75750000D01*
X77550000Y-75750000D01*
X77550000Y-75250000D01*
X78050000Y-75250000D01*
G37*
G36*
X78550000Y-75250000D02*
G01*
X78550000Y-75750000D01*
X78050000Y-75750000D01*
X78050000Y-75250000D01*
X78550000Y-75250000D01*
G37*
G36*
X79050000Y-75250000D02*
G01*
X79050000Y-75750000D01*
X78550000Y-75750000D01*
X78550000Y-75250000D01*
X79050000Y-75250000D01*
G37*
G36*
X82050000Y-75250000D02*
G01*
X82050000Y-75750000D01*
X81550000Y-75750000D01*
X81550000Y-75250000D01*
X82050000Y-75250000D01*
G37*
G36*
X82550000Y-75250000D02*
G01*
X82550000Y-75750000D01*
X82050000Y-75750000D01*
X82050000Y-75250000D01*
X82550000Y-75250000D01*
G37*
G36*
X83050000Y-75250000D02*
G01*
X83050000Y-75750000D01*
X82550000Y-75750000D01*
X82550000Y-75250000D01*
X83050000Y-75250000D01*
G37*
G36*
X83550000Y-75250000D02*
G01*
X83550000Y-75750000D01*
X83050000Y-75750000D01*
X83050000Y-75250000D01*
X83550000Y-75250000D01*
G37*
G36*
X84050000Y-75250000D02*
G01*
X84050000Y-75750000D01*
X83550000Y-75750000D01*
X83550000Y-75250000D01*
X84050000Y-75250000D01*
G37*
G36*
X84550000Y-75250000D02*
G01*
X84550000Y-75750000D01*
X84050000Y-75750000D01*
X84050000Y-75250000D01*
X84550000Y-75250000D01*
G37*
G36*
X85050000Y-75250000D02*
G01*
X85050000Y-75750000D01*
X84550000Y-75750000D01*
X84550000Y-75250000D01*
X85050000Y-75250000D01*
G37*
G36*
X87050000Y-75250000D02*
G01*
X87050000Y-75750000D01*
X86550000Y-75750000D01*
X86550000Y-75250000D01*
X87050000Y-75250000D01*
G37*
G36*
X87550000Y-75250000D02*
G01*
X87550000Y-75750000D01*
X87050000Y-75750000D01*
X87050000Y-75250000D01*
X87550000Y-75250000D01*
G37*
G36*
X88050000Y-75250000D02*
G01*
X88050000Y-75750000D01*
X87550000Y-75750000D01*
X87550000Y-75250000D01*
X88050000Y-75250000D01*
G37*
G36*
X89050000Y-75250000D02*
G01*
X89050000Y-75750000D01*
X88550000Y-75750000D01*
X88550000Y-75250000D01*
X89050000Y-75250000D01*
G37*
G36*
X89550000Y-75250000D02*
G01*
X89550000Y-75750000D01*
X89050000Y-75750000D01*
X89050000Y-75250000D01*
X89550000Y-75250000D01*
G37*
G36*
X90550000Y-75250000D02*
G01*
X90550000Y-75750000D01*
X90050000Y-75750000D01*
X90050000Y-75250000D01*
X90550000Y-75250000D01*
G37*
G36*
X77050000Y-74750000D02*
G01*
X77050000Y-75250000D01*
X76550000Y-75250000D01*
X76550000Y-74750000D01*
X77050000Y-74750000D01*
G37*
G36*
X77550000Y-74750000D02*
G01*
X77550000Y-75250000D01*
X77050000Y-75250000D01*
X77050000Y-74750000D01*
X77550000Y-74750000D01*
G37*
G36*
X78050000Y-74750000D02*
G01*
X78050000Y-75250000D01*
X77550000Y-75250000D01*
X77550000Y-74750000D01*
X78050000Y-74750000D01*
G37*
G36*
X78550000Y-74750000D02*
G01*
X78550000Y-75250000D01*
X78050000Y-75250000D01*
X78050000Y-74750000D01*
X78550000Y-74750000D01*
G37*
G36*
X79050000Y-74750000D02*
G01*
X79050000Y-75250000D01*
X78550000Y-75250000D01*
X78550000Y-74750000D01*
X79050000Y-74750000D01*
G37*
G36*
X79550000Y-74750000D02*
G01*
X79550000Y-75250000D01*
X79050000Y-75250000D01*
X79050000Y-74750000D01*
X79550000Y-74750000D01*
G37*
G36*
X80050000Y-74750000D02*
G01*
X80050000Y-75250000D01*
X79550000Y-75250000D01*
X79550000Y-74750000D01*
X80050000Y-74750000D01*
G37*
G36*
X80550000Y-74750000D02*
G01*
X80550000Y-75250000D01*
X80050000Y-75250000D01*
X80050000Y-74750000D01*
X80550000Y-74750000D01*
G37*
G36*
X82050000Y-74750000D02*
G01*
X82050000Y-75250000D01*
X81550000Y-75250000D01*
X81550000Y-74750000D01*
X82050000Y-74750000D01*
G37*
G36*
X82550000Y-74750000D02*
G01*
X82550000Y-75250000D01*
X82050000Y-75250000D01*
X82050000Y-74750000D01*
X82550000Y-74750000D01*
G37*
G36*
X83050000Y-74750000D02*
G01*
X83050000Y-75250000D01*
X82550000Y-75250000D01*
X82550000Y-74750000D01*
X83050000Y-74750000D01*
G37*
G36*
X83550000Y-74750000D02*
G01*
X83550000Y-75250000D01*
X83050000Y-75250000D01*
X83050000Y-74750000D01*
X83550000Y-74750000D01*
G37*
G36*
X85050000Y-74750000D02*
G01*
X85050000Y-75250000D01*
X84550000Y-75250000D01*
X84550000Y-74750000D01*
X85050000Y-74750000D01*
G37*
G36*
X86050000Y-74750000D02*
G01*
X86050000Y-75250000D01*
X85550000Y-75250000D01*
X85550000Y-74750000D01*
X86050000Y-74750000D01*
G37*
G36*
X86550000Y-74750000D02*
G01*
X86550000Y-75250000D01*
X86050000Y-75250000D01*
X86050000Y-74750000D01*
X86550000Y-74750000D01*
G37*
G36*
X87050000Y-74750000D02*
G01*
X87050000Y-75250000D01*
X86550000Y-75250000D01*
X86550000Y-74750000D01*
X87050000Y-74750000D01*
G37*
G36*
X87550000Y-74750000D02*
G01*
X87550000Y-75250000D01*
X87050000Y-75250000D01*
X87050000Y-74750000D01*
X87550000Y-74750000D01*
G37*
G36*
X88050000Y-74750000D02*
G01*
X88050000Y-75250000D01*
X87550000Y-75250000D01*
X87550000Y-74750000D01*
X88050000Y-74750000D01*
G37*
G36*
X89550000Y-74750000D02*
G01*
X89550000Y-75250000D01*
X89050000Y-75250000D01*
X89050000Y-74750000D01*
X89550000Y-74750000D01*
G37*
G36*
X90550000Y-74750000D02*
G01*
X90550000Y-75250000D01*
X90050000Y-75250000D01*
X90050000Y-74750000D01*
X90550000Y-74750000D01*
G37*
G36*
X92050000Y-74750000D02*
G01*
X92050000Y-75250000D01*
X91550000Y-75250000D01*
X91550000Y-74750000D01*
X92050000Y-74750000D01*
G37*
G36*
X76550000Y-74250000D02*
G01*
X76550000Y-74750000D01*
X76050000Y-74750000D01*
X76050000Y-74250000D01*
X76550000Y-74250000D01*
G37*
G36*
X78050000Y-74250000D02*
G01*
X78050000Y-74750000D01*
X77550000Y-74750000D01*
X77550000Y-74250000D01*
X78050000Y-74250000D01*
G37*
G36*
X80050000Y-74250000D02*
G01*
X80050000Y-74750000D01*
X79550000Y-74750000D01*
X79550000Y-74250000D01*
X80050000Y-74250000D01*
G37*
G36*
X82050000Y-74250000D02*
G01*
X82050000Y-74750000D01*
X81550000Y-74750000D01*
X81550000Y-74250000D01*
X82050000Y-74250000D01*
G37*
G36*
X82550000Y-74250000D02*
G01*
X82550000Y-74750000D01*
X82050000Y-74750000D01*
X82050000Y-74250000D01*
X82550000Y-74250000D01*
G37*
G36*
X83550000Y-74250000D02*
G01*
X83550000Y-74750000D01*
X83050000Y-74750000D01*
X83050000Y-74250000D01*
X83550000Y-74250000D01*
G37*
G36*
X84050000Y-74250000D02*
G01*
X84050000Y-74750000D01*
X83550000Y-74750000D01*
X83550000Y-74250000D01*
X84050000Y-74250000D01*
G37*
G36*
X84550000Y-74250000D02*
G01*
X84550000Y-74750000D01*
X84050000Y-74750000D01*
X84050000Y-74250000D01*
X84550000Y-74250000D01*
G37*
G36*
X85550000Y-74250000D02*
G01*
X85550000Y-74750000D01*
X85050000Y-74750000D01*
X85050000Y-74250000D01*
X85550000Y-74250000D01*
G37*
G36*
X88050000Y-74250000D02*
G01*
X88050000Y-74750000D01*
X87550000Y-74750000D01*
X87550000Y-74250000D01*
X88050000Y-74250000D01*
G37*
G36*
X91050000Y-74250000D02*
G01*
X91050000Y-74750000D01*
X90550000Y-74750000D01*
X90550000Y-74250000D01*
X91050000Y-74250000D01*
G37*
G36*
X91550000Y-74250000D02*
G01*
X91550000Y-74750000D01*
X91050000Y-74750000D01*
X91050000Y-74250000D01*
X91550000Y-74250000D01*
G37*
G36*
X92550000Y-74250000D02*
G01*
X92550000Y-74750000D01*
X92050000Y-74750000D01*
X92050000Y-74250000D01*
X92550000Y-74250000D01*
G37*
G36*
X76550000Y-73750000D02*
G01*
X76550000Y-74250000D01*
X76050000Y-74250000D01*
X76050000Y-73750000D01*
X76550000Y-73750000D01*
G37*
G36*
X77050000Y-73750000D02*
G01*
X77050000Y-74250000D01*
X76550000Y-74250000D01*
X76550000Y-73750000D01*
X77050000Y-73750000D01*
G37*
G36*
X79050000Y-73750000D02*
G01*
X79050000Y-74250000D01*
X78550000Y-74250000D01*
X78550000Y-73750000D01*
X79050000Y-73750000D01*
G37*
G36*
X79550000Y-73750000D02*
G01*
X79550000Y-74250000D01*
X79050000Y-74250000D01*
X79050000Y-73750000D01*
X79550000Y-73750000D01*
G37*
G36*
X80050000Y-73750000D02*
G01*
X80050000Y-74250000D01*
X79550000Y-74250000D01*
X79550000Y-73750000D01*
X80050000Y-73750000D01*
G37*
G36*
X81050000Y-73750000D02*
G01*
X81050000Y-74250000D01*
X80550000Y-74250000D01*
X80550000Y-73750000D01*
X81050000Y-73750000D01*
G37*
G36*
X82050000Y-73750000D02*
G01*
X82050000Y-74250000D01*
X81550000Y-74250000D01*
X81550000Y-73750000D01*
X82050000Y-73750000D01*
G37*
G36*
X82550000Y-73750000D02*
G01*
X82550000Y-74250000D01*
X82050000Y-74250000D01*
X82050000Y-73750000D01*
X82550000Y-73750000D01*
G37*
G36*
X83550000Y-73750000D02*
G01*
X83550000Y-74250000D01*
X83050000Y-74250000D01*
X83050000Y-73750000D01*
X83550000Y-73750000D01*
G37*
G36*
X84050000Y-73750000D02*
G01*
X84050000Y-74250000D01*
X83550000Y-74250000D01*
X83550000Y-73750000D01*
X84050000Y-73750000D01*
G37*
G36*
X85050000Y-73750000D02*
G01*
X85050000Y-74250000D01*
X84550000Y-74250000D01*
X84550000Y-73750000D01*
X85050000Y-73750000D01*
G37*
G36*
X87050000Y-73750000D02*
G01*
X87050000Y-74250000D01*
X86550000Y-74250000D01*
X86550000Y-73750000D01*
X87050000Y-73750000D01*
G37*
G36*
X87550000Y-73750000D02*
G01*
X87550000Y-74250000D01*
X87050000Y-74250000D01*
X87050000Y-73750000D01*
X87550000Y-73750000D01*
G37*
G36*
X88050000Y-73750000D02*
G01*
X88050000Y-74250000D01*
X87550000Y-74250000D01*
X87550000Y-73750000D01*
X88050000Y-73750000D01*
G37*
G36*
X88550000Y-73750000D02*
G01*
X88550000Y-74250000D01*
X88050000Y-74250000D01*
X88050000Y-73750000D01*
X88550000Y-73750000D01*
G37*
G36*
X90050000Y-73750000D02*
G01*
X90050000Y-74250000D01*
X89550000Y-74250000D01*
X89550000Y-73750000D01*
X90050000Y-73750000D01*
G37*
G36*
X91050000Y-73750000D02*
G01*
X91050000Y-74250000D01*
X90550000Y-74250000D01*
X90550000Y-73750000D01*
X91050000Y-73750000D01*
G37*
G36*
X92050000Y-73750000D02*
G01*
X92050000Y-74250000D01*
X91550000Y-74250000D01*
X91550000Y-73750000D01*
X92050000Y-73750000D01*
G37*
G36*
X76550000Y-73250000D02*
G01*
X76550000Y-73750000D01*
X76050000Y-73750000D01*
X76050000Y-73250000D01*
X76550000Y-73250000D01*
G37*
G36*
X78050000Y-73250000D02*
G01*
X78050000Y-73750000D01*
X77550000Y-73750000D01*
X77550000Y-73250000D01*
X78050000Y-73250000D01*
G37*
G36*
X78550000Y-73250000D02*
G01*
X78550000Y-73750000D01*
X78050000Y-73750000D01*
X78050000Y-73250000D01*
X78550000Y-73250000D01*
G37*
G36*
X81050000Y-73250000D02*
G01*
X81050000Y-73750000D01*
X80550000Y-73750000D01*
X80550000Y-73250000D01*
X81050000Y-73250000D01*
G37*
G36*
X83550000Y-73250000D02*
G01*
X83550000Y-73750000D01*
X83050000Y-73750000D01*
X83050000Y-73250000D01*
X83550000Y-73250000D01*
G37*
G36*
X84550000Y-73250000D02*
G01*
X84550000Y-73750000D01*
X84050000Y-73750000D01*
X84050000Y-73250000D01*
X84550000Y-73250000D01*
G37*
G36*
X85050000Y-73250000D02*
G01*
X85050000Y-73750000D01*
X84550000Y-73750000D01*
X84550000Y-73250000D01*
X85050000Y-73250000D01*
G37*
G36*
X85550000Y-73250000D02*
G01*
X85550000Y-73750000D01*
X85050000Y-73750000D01*
X85050000Y-73250000D01*
X85550000Y-73250000D01*
G37*
G36*
X86050000Y-73250000D02*
G01*
X86050000Y-73750000D01*
X85550000Y-73750000D01*
X85550000Y-73250000D01*
X86050000Y-73250000D01*
G37*
G36*
X86550000Y-73250000D02*
G01*
X86550000Y-73750000D01*
X86050000Y-73750000D01*
X86050000Y-73250000D01*
X86550000Y-73250000D01*
G37*
G36*
X87050000Y-73250000D02*
G01*
X87050000Y-73750000D01*
X86550000Y-73750000D01*
X86550000Y-73250000D01*
X87050000Y-73250000D01*
G37*
G36*
X88550000Y-73250000D02*
G01*
X88550000Y-73750000D01*
X88050000Y-73750000D01*
X88050000Y-73250000D01*
X88550000Y-73250000D01*
G37*
G36*
X89050000Y-73250000D02*
G01*
X89050000Y-73750000D01*
X88550000Y-73750000D01*
X88550000Y-73250000D01*
X89050000Y-73250000D01*
G37*
G36*
X89550000Y-73250000D02*
G01*
X89550000Y-73750000D01*
X89050000Y-73750000D01*
X89050000Y-73250000D01*
X89550000Y-73250000D01*
G37*
G36*
X90050000Y-73250000D02*
G01*
X90050000Y-73750000D01*
X89550000Y-73750000D01*
X89550000Y-73250000D01*
X90050000Y-73250000D01*
G37*
G36*
X92550000Y-73250000D02*
G01*
X92550000Y-73750000D01*
X92050000Y-73750000D01*
X92050000Y-73250000D01*
X92550000Y-73250000D01*
G37*
G36*
X76550000Y-72750000D02*
G01*
X76550000Y-73250000D01*
X76050000Y-73250000D01*
X76050000Y-72750000D01*
X76550000Y-72750000D01*
G37*
G36*
X77550000Y-72750000D02*
G01*
X77550000Y-73250000D01*
X77050000Y-73250000D01*
X77050000Y-72750000D01*
X77550000Y-72750000D01*
G37*
G36*
X78050000Y-72750000D02*
G01*
X78050000Y-73250000D01*
X77550000Y-73250000D01*
X77550000Y-72750000D01*
X78050000Y-72750000D01*
G37*
G36*
X79550000Y-72750000D02*
G01*
X79550000Y-73250000D01*
X79050000Y-73250000D01*
X79050000Y-72750000D01*
X79550000Y-72750000D01*
G37*
G36*
X84050000Y-72750000D02*
G01*
X84050000Y-73250000D01*
X83550000Y-73250000D01*
X83550000Y-72750000D01*
X84050000Y-72750000D01*
G37*
G36*
X85550000Y-72750000D02*
G01*
X85550000Y-73250000D01*
X85050000Y-73250000D01*
X85050000Y-72750000D01*
X85550000Y-72750000D01*
G37*
G36*
X86550000Y-72750000D02*
G01*
X86550000Y-73250000D01*
X86050000Y-73250000D01*
X86050000Y-72750000D01*
X86550000Y-72750000D01*
G37*
G36*
X88050000Y-72750000D02*
G01*
X88050000Y-73250000D01*
X87550000Y-73250000D01*
X87550000Y-72750000D01*
X88050000Y-72750000D01*
G37*
G36*
X89550000Y-72750000D02*
G01*
X89550000Y-73250000D01*
X89050000Y-73250000D01*
X89050000Y-72750000D01*
X89550000Y-72750000D01*
G37*
G36*
X90050000Y-72750000D02*
G01*
X90050000Y-73250000D01*
X89550000Y-73250000D01*
X89550000Y-72750000D01*
X90050000Y-72750000D01*
G37*
G36*
X90550000Y-72750000D02*
G01*
X90550000Y-73250000D01*
X90050000Y-73250000D01*
X90050000Y-72750000D01*
X90550000Y-72750000D01*
G37*
G36*
X91050000Y-72750000D02*
G01*
X91050000Y-73250000D01*
X90550000Y-73250000D01*
X90550000Y-72750000D01*
X91050000Y-72750000D01*
G37*
G36*
X76550000Y-72250000D02*
G01*
X76550000Y-72750000D01*
X76050000Y-72750000D01*
X76050000Y-72250000D01*
X76550000Y-72250000D01*
G37*
G36*
X77550000Y-72250000D02*
G01*
X77550000Y-72750000D01*
X77050000Y-72750000D01*
X77050000Y-72250000D01*
X77550000Y-72250000D01*
G37*
G36*
X80550000Y-72250000D02*
G01*
X80550000Y-72750000D01*
X80050000Y-72750000D01*
X80050000Y-72250000D01*
X80550000Y-72250000D01*
G37*
G36*
X81550000Y-72250000D02*
G01*
X81550000Y-72750000D01*
X81050000Y-72750000D01*
X81050000Y-72250000D01*
X81550000Y-72250000D01*
G37*
G36*
X82050000Y-72250000D02*
G01*
X82050000Y-72750000D01*
X81550000Y-72750000D01*
X81550000Y-72250000D01*
X82050000Y-72250000D01*
G37*
G36*
X82550000Y-72250000D02*
G01*
X82550000Y-72750000D01*
X82050000Y-72750000D01*
X82050000Y-72250000D01*
X82550000Y-72250000D01*
G37*
G36*
X84550000Y-72250000D02*
G01*
X84550000Y-72750000D01*
X84050000Y-72750000D01*
X84050000Y-72250000D01*
X84550000Y-72250000D01*
G37*
G36*
X86050000Y-72250000D02*
G01*
X86050000Y-72750000D01*
X85550000Y-72750000D01*
X85550000Y-72250000D01*
X86050000Y-72250000D01*
G37*
G36*
X87550000Y-72250000D02*
G01*
X87550000Y-72750000D01*
X87050000Y-72750000D01*
X87050000Y-72250000D01*
X87550000Y-72250000D01*
G37*
G36*
X88050000Y-72250000D02*
G01*
X88050000Y-72750000D01*
X87550000Y-72750000D01*
X87550000Y-72250000D01*
X88050000Y-72250000D01*
G37*
G36*
X88550000Y-72250000D02*
G01*
X88550000Y-72750000D01*
X88050000Y-72750000D01*
X88050000Y-72250000D01*
X88550000Y-72250000D01*
G37*
G36*
X89550000Y-72250000D02*
G01*
X89550000Y-72750000D01*
X89050000Y-72750000D01*
X89050000Y-72250000D01*
X89550000Y-72250000D01*
G37*
G36*
X90050000Y-72250000D02*
G01*
X90050000Y-72750000D01*
X89550000Y-72750000D01*
X89550000Y-72250000D01*
X90050000Y-72250000D01*
G37*
G36*
X92050000Y-72250000D02*
G01*
X92050000Y-72750000D01*
X91550000Y-72750000D01*
X91550000Y-72250000D01*
X92050000Y-72250000D01*
G37*
G36*
X79550000Y-71750000D02*
G01*
X79550000Y-72250000D01*
X79050000Y-72250000D01*
X79050000Y-71750000D01*
X79550000Y-71750000D01*
G37*
G36*
X80550000Y-71750000D02*
G01*
X80550000Y-72250000D01*
X80050000Y-72250000D01*
X80050000Y-71750000D01*
X80550000Y-71750000D01*
G37*
G36*
X81550000Y-71750000D02*
G01*
X81550000Y-72250000D01*
X81050000Y-72250000D01*
X81050000Y-71750000D01*
X81550000Y-71750000D01*
G37*
G36*
X82050000Y-71750000D02*
G01*
X82050000Y-72250000D01*
X81550000Y-72250000D01*
X81550000Y-71750000D01*
X82050000Y-71750000D01*
G37*
G36*
X83550000Y-71750000D02*
G01*
X83550000Y-72250000D01*
X83050000Y-72250000D01*
X83050000Y-71750000D01*
X83550000Y-71750000D01*
G37*
G36*
X84550000Y-71750000D02*
G01*
X84550000Y-72250000D01*
X84050000Y-72250000D01*
X84050000Y-71750000D01*
X84550000Y-71750000D01*
G37*
G36*
X85550000Y-71750000D02*
G01*
X85550000Y-72250000D01*
X85050000Y-72250000D01*
X85050000Y-71750000D01*
X85550000Y-71750000D01*
G37*
G36*
X86050000Y-71750000D02*
G01*
X86050000Y-72250000D01*
X85550000Y-72250000D01*
X85550000Y-71750000D01*
X86050000Y-71750000D01*
G37*
G36*
X87050000Y-71750000D02*
G01*
X87050000Y-72250000D01*
X86550000Y-72250000D01*
X86550000Y-71750000D01*
X87050000Y-71750000D01*
G37*
G36*
X87550000Y-71750000D02*
G01*
X87550000Y-72250000D01*
X87050000Y-72250000D01*
X87050000Y-71750000D01*
X87550000Y-71750000D01*
G37*
G36*
X88050000Y-71750000D02*
G01*
X88050000Y-72250000D01*
X87550000Y-72250000D01*
X87550000Y-71750000D01*
X88050000Y-71750000D01*
G37*
G36*
X90050000Y-71750000D02*
G01*
X90050000Y-72250000D01*
X89550000Y-72250000D01*
X89550000Y-71750000D01*
X90050000Y-71750000D01*
G37*
G36*
X90550000Y-71750000D02*
G01*
X90550000Y-72250000D01*
X90050000Y-72250000D01*
X90050000Y-71750000D01*
X90550000Y-71750000D01*
G37*
G36*
X91050000Y-71750000D02*
G01*
X91050000Y-72250000D01*
X90550000Y-72250000D01*
X90550000Y-71750000D01*
X91050000Y-71750000D01*
G37*
G36*
X91550000Y-71750000D02*
G01*
X91550000Y-72250000D01*
X91050000Y-72250000D01*
X91050000Y-71750000D01*
X91550000Y-71750000D01*
G37*
G36*
X92050000Y-71750000D02*
G01*
X92050000Y-72250000D01*
X91550000Y-72250000D01*
X91550000Y-71750000D01*
X92050000Y-71750000D01*
G37*
G36*
X78050000Y-71250000D02*
G01*
X78050000Y-71750000D01*
X77550000Y-71750000D01*
X77550000Y-71250000D01*
X78050000Y-71250000D01*
G37*
G36*
X78550000Y-71250000D02*
G01*
X78550000Y-71750000D01*
X78050000Y-71750000D01*
X78050000Y-71250000D01*
X78550000Y-71250000D01*
G37*
G36*
X80050000Y-71250000D02*
G01*
X80050000Y-71750000D01*
X79550000Y-71750000D01*
X79550000Y-71250000D01*
X80050000Y-71250000D01*
G37*
G36*
X82050000Y-71250000D02*
G01*
X82050000Y-71750000D01*
X81550000Y-71750000D01*
X81550000Y-71250000D01*
X82050000Y-71250000D01*
G37*
G36*
X85050000Y-71250000D02*
G01*
X85050000Y-71750000D01*
X84550000Y-71750000D01*
X84550000Y-71250000D01*
X85050000Y-71250000D01*
G37*
G36*
X85550000Y-71250000D02*
G01*
X85550000Y-71750000D01*
X85050000Y-71750000D01*
X85050000Y-71250000D01*
X85550000Y-71250000D01*
G37*
G36*
X86050000Y-71250000D02*
G01*
X86050000Y-71750000D01*
X85550000Y-71750000D01*
X85550000Y-71250000D01*
X86050000Y-71250000D01*
G37*
G36*
X86550000Y-71250000D02*
G01*
X86550000Y-71750000D01*
X86050000Y-71750000D01*
X86050000Y-71250000D01*
X86550000Y-71250000D01*
G37*
G36*
X87050000Y-71250000D02*
G01*
X87050000Y-71750000D01*
X86550000Y-71750000D01*
X86550000Y-71250000D01*
X87050000Y-71250000D01*
G37*
G36*
X88550000Y-71250000D02*
G01*
X88550000Y-71750000D01*
X88050000Y-71750000D01*
X88050000Y-71250000D01*
X88550000Y-71250000D01*
G37*
G36*
X90550000Y-71250000D02*
G01*
X90550000Y-71750000D01*
X90050000Y-71750000D01*
X90050000Y-71250000D01*
X90550000Y-71250000D01*
G37*
G36*
X92050000Y-71250000D02*
G01*
X92050000Y-71750000D01*
X91550000Y-71750000D01*
X91550000Y-71250000D01*
X92050000Y-71250000D01*
G37*
G36*
X92550000Y-71250000D02*
G01*
X92550000Y-71750000D01*
X92050000Y-71750000D01*
X92050000Y-71250000D01*
X92550000Y-71250000D01*
G37*
G36*
X76550000Y-70750000D02*
G01*
X76550000Y-71250000D01*
X76050000Y-71250000D01*
X76050000Y-70750000D01*
X76550000Y-70750000D01*
G37*
G36*
X77050000Y-70750000D02*
G01*
X77050000Y-71250000D01*
X76550000Y-71250000D01*
X76550000Y-70750000D01*
X77050000Y-70750000D01*
G37*
G36*
X77550000Y-70750000D02*
G01*
X77550000Y-71250000D01*
X77050000Y-71250000D01*
X77050000Y-70750000D01*
X77550000Y-70750000D01*
G37*
G36*
X78050000Y-70750000D02*
G01*
X78050000Y-71250000D01*
X77550000Y-71250000D01*
X77550000Y-70750000D01*
X78050000Y-70750000D01*
G37*
G36*
X79550000Y-70750000D02*
G01*
X79550000Y-71250000D01*
X79050000Y-71250000D01*
X79050000Y-70750000D01*
X79550000Y-70750000D01*
G37*
G36*
X81050000Y-70750000D02*
G01*
X81050000Y-71250000D01*
X80550000Y-71250000D01*
X80550000Y-70750000D01*
X81050000Y-70750000D01*
G37*
G36*
X82550000Y-70750000D02*
G01*
X82550000Y-71250000D01*
X82050000Y-71250000D01*
X82050000Y-70750000D01*
X82550000Y-70750000D01*
G37*
G36*
X83050000Y-70750000D02*
G01*
X83050000Y-71250000D01*
X82550000Y-71250000D01*
X82550000Y-70750000D01*
X83050000Y-70750000D01*
G37*
G36*
X84050000Y-70750000D02*
G01*
X84050000Y-71250000D01*
X83550000Y-71250000D01*
X83550000Y-70750000D01*
X84050000Y-70750000D01*
G37*
G36*
X85050000Y-70750000D02*
G01*
X85050000Y-71250000D01*
X84550000Y-71250000D01*
X84550000Y-70750000D01*
X85050000Y-70750000D01*
G37*
G36*
X86550000Y-70750000D02*
G01*
X86550000Y-71250000D01*
X86050000Y-71250000D01*
X86050000Y-70750000D01*
X86550000Y-70750000D01*
G37*
G36*
X87050000Y-70750000D02*
G01*
X87050000Y-71250000D01*
X86550000Y-71250000D01*
X86550000Y-70750000D01*
X87050000Y-70750000D01*
G37*
G36*
X87550000Y-70750000D02*
G01*
X87550000Y-71250000D01*
X87050000Y-71250000D01*
X87050000Y-70750000D01*
X87550000Y-70750000D01*
G37*
G36*
X88550000Y-70750000D02*
G01*
X88550000Y-71250000D01*
X88050000Y-71250000D01*
X88050000Y-70750000D01*
X88550000Y-70750000D01*
G37*
G36*
X89050000Y-70750000D02*
G01*
X89050000Y-71250000D01*
X88550000Y-71250000D01*
X88550000Y-70750000D01*
X89050000Y-70750000D01*
G37*
G36*
X89550000Y-70750000D02*
G01*
X89550000Y-71250000D01*
X89050000Y-71250000D01*
X89050000Y-70750000D01*
X89550000Y-70750000D01*
G37*
G36*
X90050000Y-70750000D02*
G01*
X90050000Y-71250000D01*
X89550000Y-71250000D01*
X89550000Y-70750000D01*
X90050000Y-70750000D01*
G37*
G36*
X90550000Y-70750000D02*
G01*
X90550000Y-71250000D01*
X90050000Y-71250000D01*
X90050000Y-70750000D01*
X90550000Y-70750000D01*
G37*
G36*
X91050000Y-70750000D02*
G01*
X91050000Y-71250000D01*
X90550000Y-71250000D01*
X90550000Y-70750000D01*
X91050000Y-70750000D01*
G37*
G36*
X92050000Y-70750000D02*
G01*
X92050000Y-71250000D01*
X91550000Y-71250000D01*
X91550000Y-70750000D01*
X92050000Y-70750000D01*
G37*
G36*
X80550000Y-70250000D02*
G01*
X80550000Y-70750000D01*
X80050000Y-70750000D01*
X80050000Y-70250000D01*
X80550000Y-70250000D01*
G37*
G36*
X82050000Y-70250000D02*
G01*
X82050000Y-70750000D01*
X81550000Y-70750000D01*
X81550000Y-70250000D01*
X82050000Y-70250000D01*
G37*
G36*
X84550000Y-70250000D02*
G01*
X84550000Y-70750000D01*
X84050000Y-70750000D01*
X84050000Y-70250000D01*
X84550000Y-70250000D01*
G37*
G36*
X85050000Y-70250000D02*
G01*
X85050000Y-70750000D01*
X84550000Y-70750000D01*
X84550000Y-70250000D01*
X85050000Y-70250000D01*
G37*
G36*
X85550000Y-70250000D02*
G01*
X85550000Y-70750000D01*
X85050000Y-70750000D01*
X85050000Y-70250000D01*
X85550000Y-70250000D01*
G37*
G36*
X86550000Y-70250000D02*
G01*
X86550000Y-70750000D01*
X86050000Y-70750000D01*
X86050000Y-70250000D01*
X86550000Y-70250000D01*
G37*
G36*
X87050000Y-70250000D02*
G01*
X87050000Y-70750000D01*
X86550000Y-70750000D01*
X86550000Y-70250000D01*
X87050000Y-70250000D01*
G37*
G36*
X87550000Y-70250000D02*
G01*
X87550000Y-70750000D01*
X87050000Y-70750000D01*
X87050000Y-70250000D01*
X87550000Y-70250000D01*
G37*
G36*
X88550000Y-70250000D02*
G01*
X88550000Y-70750000D01*
X88050000Y-70750000D01*
X88050000Y-70250000D01*
X88550000Y-70250000D01*
G37*
G36*
X90550000Y-70250000D02*
G01*
X90550000Y-70750000D01*
X90050000Y-70750000D01*
X90050000Y-70250000D01*
X90550000Y-70250000D01*
G37*
G36*
X91550000Y-70250000D02*
G01*
X91550000Y-70750000D01*
X91050000Y-70750000D01*
X91050000Y-70250000D01*
X91550000Y-70250000D01*
G37*
G36*
X92050000Y-70250000D02*
G01*
X92050000Y-70750000D01*
X91550000Y-70750000D01*
X91550000Y-70250000D01*
X92050000Y-70250000D01*
G37*
G36*
X92550000Y-70250000D02*
G01*
X92550000Y-70750000D01*
X92050000Y-70750000D01*
X92050000Y-70250000D01*
X92550000Y-70250000D01*
G37*
G36*
X76550000Y-69750000D02*
G01*
X76550000Y-70250000D01*
X76050000Y-70250000D01*
X76050000Y-69750000D01*
X76550000Y-69750000D01*
G37*
G36*
X77050000Y-69750000D02*
G01*
X77050000Y-70250000D01*
X76550000Y-70250000D01*
X76550000Y-69750000D01*
X77050000Y-69750000D01*
G37*
G36*
X77550000Y-69750000D02*
G01*
X77550000Y-70250000D01*
X77050000Y-70250000D01*
X77050000Y-69750000D01*
X77550000Y-69750000D01*
G37*
G36*
X78050000Y-69750000D02*
G01*
X78050000Y-70250000D01*
X77550000Y-70250000D01*
X77550000Y-69750000D01*
X78050000Y-69750000D01*
G37*
G36*
X78550000Y-69750000D02*
G01*
X78550000Y-70250000D01*
X78050000Y-70250000D01*
X78050000Y-69750000D01*
X78550000Y-69750000D01*
G37*
G36*
X79050000Y-69750000D02*
G01*
X79050000Y-70250000D01*
X78550000Y-70250000D01*
X78550000Y-69750000D01*
X79050000Y-69750000D01*
G37*
G36*
X79550000Y-69750000D02*
G01*
X79550000Y-70250000D01*
X79050000Y-70250000D01*
X79050000Y-69750000D01*
X79550000Y-69750000D01*
G37*
G36*
X80550000Y-69750000D02*
G01*
X80550000Y-70250000D01*
X80050000Y-70250000D01*
X80050000Y-69750000D01*
X80550000Y-69750000D01*
G37*
G36*
X82050000Y-69750000D02*
G01*
X82050000Y-70250000D01*
X81550000Y-70250000D01*
X81550000Y-69750000D01*
X82050000Y-69750000D01*
G37*
G36*
X84050000Y-69750000D02*
G01*
X84050000Y-70250000D01*
X83550000Y-70250000D01*
X83550000Y-69750000D01*
X84050000Y-69750000D01*
G37*
G36*
X85550000Y-69750000D02*
G01*
X85550000Y-70250000D01*
X85050000Y-70250000D01*
X85050000Y-69750000D01*
X85550000Y-69750000D01*
G37*
G36*
X88550000Y-69750000D02*
G01*
X88550000Y-70250000D01*
X88050000Y-70250000D01*
X88050000Y-69750000D01*
X88550000Y-69750000D01*
G37*
G36*
X89550000Y-69750000D02*
G01*
X89550000Y-70250000D01*
X89050000Y-70250000D01*
X89050000Y-69750000D01*
X89550000Y-69750000D01*
G37*
G36*
X90550000Y-69750000D02*
G01*
X90550000Y-70250000D01*
X90050000Y-70250000D01*
X90050000Y-69750000D01*
X90550000Y-69750000D01*
G37*
G36*
X91050000Y-69750000D02*
G01*
X91050000Y-70250000D01*
X90550000Y-70250000D01*
X90550000Y-69750000D01*
X91050000Y-69750000D01*
G37*
G36*
X92050000Y-69750000D02*
G01*
X92050000Y-70250000D01*
X91550000Y-70250000D01*
X91550000Y-69750000D01*
X92050000Y-69750000D01*
G37*
G36*
X76550000Y-69250000D02*
G01*
X76550000Y-69750000D01*
X76050000Y-69750000D01*
X76050000Y-69250000D01*
X76550000Y-69250000D01*
G37*
G36*
X79550000Y-69250000D02*
G01*
X79550000Y-69750000D01*
X79050000Y-69750000D01*
X79050000Y-69250000D01*
X79550000Y-69250000D01*
G37*
G36*
X81050000Y-69250000D02*
G01*
X81050000Y-69750000D01*
X80550000Y-69750000D01*
X80550000Y-69250000D01*
X81050000Y-69250000D01*
G37*
G36*
X82050000Y-69250000D02*
G01*
X82050000Y-69750000D01*
X81550000Y-69750000D01*
X81550000Y-69250000D01*
X82050000Y-69250000D01*
G37*
G36*
X82550000Y-69250000D02*
G01*
X82550000Y-69750000D01*
X82050000Y-69750000D01*
X82050000Y-69250000D01*
X82550000Y-69250000D01*
G37*
G36*
X87550000Y-69250000D02*
G01*
X87550000Y-69750000D01*
X87050000Y-69750000D01*
X87050000Y-69250000D01*
X87550000Y-69250000D01*
G37*
G36*
X88550000Y-69250000D02*
G01*
X88550000Y-69750000D01*
X88050000Y-69750000D01*
X88050000Y-69250000D01*
X88550000Y-69250000D01*
G37*
G36*
X90550000Y-69250000D02*
G01*
X90550000Y-69750000D01*
X90050000Y-69750000D01*
X90050000Y-69250000D01*
X90550000Y-69250000D01*
G37*
G36*
X92550000Y-69250000D02*
G01*
X92550000Y-69750000D01*
X92050000Y-69750000D01*
X92050000Y-69250000D01*
X92550000Y-69250000D01*
G37*
G36*
X76550000Y-68750000D02*
G01*
X76550000Y-69250000D01*
X76050000Y-69250000D01*
X76050000Y-68750000D01*
X76550000Y-68750000D01*
G37*
G36*
X77550000Y-68750000D02*
G01*
X77550000Y-69250000D01*
X77050000Y-69250000D01*
X77050000Y-68750000D01*
X77550000Y-68750000D01*
G37*
G36*
X78050000Y-68750000D02*
G01*
X78050000Y-69250000D01*
X77550000Y-69250000D01*
X77550000Y-68750000D01*
X78050000Y-68750000D01*
G37*
G36*
X78550000Y-68750000D02*
G01*
X78550000Y-69250000D01*
X78050000Y-69250000D01*
X78050000Y-68750000D01*
X78550000Y-68750000D01*
G37*
G36*
X79550000Y-68750000D02*
G01*
X79550000Y-69250000D01*
X79050000Y-69250000D01*
X79050000Y-68750000D01*
X79550000Y-68750000D01*
G37*
G36*
X80550000Y-68750000D02*
G01*
X80550000Y-69250000D01*
X80050000Y-69250000D01*
X80050000Y-68750000D01*
X80550000Y-68750000D01*
G37*
G36*
X82050000Y-68750000D02*
G01*
X82050000Y-69250000D01*
X81550000Y-69250000D01*
X81550000Y-68750000D01*
X82050000Y-68750000D01*
G37*
G36*
X83050000Y-68750000D02*
G01*
X83050000Y-69250000D01*
X82550000Y-69250000D01*
X82550000Y-68750000D01*
X83050000Y-68750000D01*
G37*
G36*
X83550000Y-68750000D02*
G01*
X83550000Y-69250000D01*
X83050000Y-69250000D01*
X83050000Y-68750000D01*
X83550000Y-68750000D01*
G37*
G36*
X84050000Y-68750000D02*
G01*
X84050000Y-69250000D01*
X83550000Y-69250000D01*
X83550000Y-68750000D01*
X84050000Y-68750000D01*
G37*
G36*
X84550000Y-68750000D02*
G01*
X84550000Y-69250000D01*
X84050000Y-69250000D01*
X84050000Y-68750000D01*
X84550000Y-68750000D01*
G37*
G36*
X86050000Y-68750000D02*
G01*
X86050000Y-69250000D01*
X85550000Y-69250000D01*
X85550000Y-68750000D01*
X86050000Y-68750000D01*
G37*
G36*
X87550000Y-68750000D02*
G01*
X87550000Y-69250000D01*
X87050000Y-69250000D01*
X87050000Y-68750000D01*
X87550000Y-68750000D01*
G37*
G36*
X88550000Y-68750000D02*
G01*
X88550000Y-69250000D01*
X88050000Y-69250000D01*
X88050000Y-68750000D01*
X88550000Y-68750000D01*
G37*
G36*
X89050000Y-68750000D02*
G01*
X89050000Y-69250000D01*
X88550000Y-69250000D01*
X88550000Y-68750000D01*
X89050000Y-68750000D01*
G37*
G36*
X89550000Y-68750000D02*
G01*
X89550000Y-69250000D01*
X89050000Y-69250000D01*
X89050000Y-68750000D01*
X89550000Y-68750000D01*
G37*
G36*
X90050000Y-68750000D02*
G01*
X90050000Y-69250000D01*
X89550000Y-69250000D01*
X89550000Y-68750000D01*
X90050000Y-68750000D01*
G37*
G36*
X90550000Y-68750000D02*
G01*
X90550000Y-69250000D01*
X90050000Y-69250000D01*
X90050000Y-68750000D01*
X90550000Y-68750000D01*
G37*
G36*
X91050000Y-68750000D02*
G01*
X91050000Y-69250000D01*
X90550000Y-69250000D01*
X90550000Y-68750000D01*
X91050000Y-68750000D01*
G37*
G36*
X92550000Y-68750000D02*
G01*
X92550000Y-69250000D01*
X92050000Y-69250000D01*
X92050000Y-68750000D01*
X92550000Y-68750000D01*
G37*
G36*
X76550000Y-68250000D02*
G01*
X76550000Y-68750000D01*
X76050000Y-68750000D01*
X76050000Y-68250000D01*
X76550000Y-68250000D01*
G37*
G36*
X77550000Y-68250000D02*
G01*
X77550000Y-68750000D01*
X77050000Y-68750000D01*
X77050000Y-68250000D01*
X77550000Y-68250000D01*
G37*
G36*
X78050000Y-68250000D02*
G01*
X78050000Y-68750000D01*
X77550000Y-68750000D01*
X77550000Y-68250000D01*
X78050000Y-68250000D01*
G37*
G36*
X78550000Y-68250000D02*
G01*
X78550000Y-68750000D01*
X78050000Y-68750000D01*
X78050000Y-68250000D01*
X78550000Y-68250000D01*
G37*
G36*
X79550000Y-68250000D02*
G01*
X79550000Y-68750000D01*
X79050000Y-68750000D01*
X79050000Y-68250000D01*
X79550000Y-68250000D01*
G37*
G36*
X81050000Y-68250000D02*
G01*
X81050000Y-68750000D01*
X80550000Y-68750000D01*
X80550000Y-68250000D01*
X81050000Y-68250000D01*
G37*
G36*
X81550000Y-68250000D02*
G01*
X81550000Y-68750000D01*
X81050000Y-68750000D01*
X81050000Y-68250000D01*
X81550000Y-68250000D01*
G37*
G36*
X82050000Y-68250000D02*
G01*
X82050000Y-68750000D01*
X81550000Y-68750000D01*
X81550000Y-68250000D01*
X82050000Y-68250000D01*
G37*
G36*
X82550000Y-68250000D02*
G01*
X82550000Y-68750000D01*
X82050000Y-68750000D01*
X82050000Y-68250000D01*
X82550000Y-68250000D01*
G37*
G36*
X83550000Y-68250000D02*
G01*
X83550000Y-68750000D01*
X83050000Y-68750000D01*
X83050000Y-68250000D01*
X83550000Y-68250000D01*
G37*
G36*
X85050000Y-68250000D02*
G01*
X85050000Y-68750000D01*
X84550000Y-68750000D01*
X84550000Y-68250000D01*
X85050000Y-68250000D01*
G37*
G36*
X85550000Y-68250000D02*
G01*
X85550000Y-68750000D01*
X85050000Y-68750000D01*
X85050000Y-68250000D01*
X85550000Y-68250000D01*
G37*
G36*
X86050000Y-68250000D02*
G01*
X86050000Y-68750000D01*
X85550000Y-68750000D01*
X85550000Y-68250000D01*
X86050000Y-68250000D01*
G37*
G36*
X86550000Y-68250000D02*
G01*
X86550000Y-68750000D01*
X86050000Y-68750000D01*
X86050000Y-68250000D01*
X86550000Y-68250000D01*
G37*
G36*
X88550000Y-68250000D02*
G01*
X88550000Y-68750000D01*
X88050000Y-68750000D01*
X88050000Y-68250000D01*
X88550000Y-68250000D01*
G37*
G36*
X89550000Y-68250000D02*
G01*
X89550000Y-68750000D01*
X89050000Y-68750000D01*
X89050000Y-68250000D01*
X89550000Y-68250000D01*
G37*
G36*
X90050000Y-68250000D02*
G01*
X90050000Y-68750000D01*
X89550000Y-68750000D01*
X89550000Y-68250000D01*
X90050000Y-68250000D01*
G37*
G36*
X90550000Y-68250000D02*
G01*
X90550000Y-68750000D01*
X90050000Y-68750000D01*
X90050000Y-68250000D01*
X90550000Y-68250000D01*
G37*
G36*
X91050000Y-68250000D02*
G01*
X91050000Y-68750000D01*
X90550000Y-68750000D01*
X90550000Y-68250000D01*
X91050000Y-68250000D01*
G37*
G36*
X91550000Y-68250000D02*
G01*
X91550000Y-68750000D01*
X91050000Y-68750000D01*
X91050000Y-68250000D01*
X91550000Y-68250000D01*
G37*
G36*
X92050000Y-68250000D02*
G01*
X92050000Y-68750000D01*
X91550000Y-68750000D01*
X91550000Y-68250000D01*
X92050000Y-68250000D01*
G37*
G36*
X76550000Y-67750000D02*
G01*
X76550000Y-68250000D01*
X76050000Y-68250000D01*
X76050000Y-67750000D01*
X76550000Y-67750000D01*
G37*
G36*
X77550000Y-67750000D02*
G01*
X77550000Y-68250000D01*
X77050000Y-68250000D01*
X77050000Y-67750000D01*
X77550000Y-67750000D01*
G37*
G36*
X78050000Y-67750000D02*
G01*
X78050000Y-68250000D01*
X77550000Y-68250000D01*
X77550000Y-67750000D01*
X78050000Y-67750000D01*
G37*
G36*
X78550000Y-67750000D02*
G01*
X78550000Y-68250000D01*
X78050000Y-68250000D01*
X78050000Y-67750000D01*
X78550000Y-67750000D01*
G37*
G36*
X79550000Y-67750000D02*
G01*
X79550000Y-68250000D01*
X79050000Y-68250000D01*
X79050000Y-67750000D01*
X79550000Y-67750000D01*
G37*
G36*
X81050000Y-67750000D02*
G01*
X81050000Y-68250000D01*
X80550000Y-68250000D01*
X80550000Y-67750000D01*
X81050000Y-67750000D01*
G37*
G36*
X82050000Y-67750000D02*
G01*
X82050000Y-68250000D01*
X81550000Y-68250000D01*
X81550000Y-67750000D01*
X82050000Y-67750000D01*
G37*
G36*
X82550000Y-67750000D02*
G01*
X82550000Y-68250000D01*
X82050000Y-68250000D01*
X82050000Y-67750000D01*
X82550000Y-67750000D01*
G37*
G36*
X83050000Y-67750000D02*
G01*
X83050000Y-68250000D01*
X82550000Y-68250000D01*
X82550000Y-67750000D01*
X83050000Y-67750000D01*
G37*
G36*
X84050000Y-67750000D02*
G01*
X84050000Y-68250000D01*
X83550000Y-68250000D01*
X83550000Y-67750000D01*
X84050000Y-67750000D01*
G37*
G36*
X85050000Y-67750000D02*
G01*
X85050000Y-68250000D01*
X84550000Y-68250000D01*
X84550000Y-67750000D01*
X85050000Y-67750000D01*
G37*
G36*
X85550000Y-67750000D02*
G01*
X85550000Y-68250000D01*
X85050000Y-68250000D01*
X85050000Y-67750000D01*
X85550000Y-67750000D01*
G37*
G36*
X86550000Y-67750000D02*
G01*
X86550000Y-68250000D01*
X86050000Y-68250000D01*
X86050000Y-67750000D01*
X86550000Y-67750000D01*
G37*
G36*
X87050000Y-67750000D02*
G01*
X87050000Y-68250000D01*
X86550000Y-68250000D01*
X86550000Y-67750000D01*
X87050000Y-67750000D01*
G37*
G36*
X87550000Y-67750000D02*
G01*
X87550000Y-68250000D01*
X87050000Y-68250000D01*
X87050000Y-67750000D01*
X87550000Y-67750000D01*
G37*
G36*
X88050000Y-67750000D02*
G01*
X88050000Y-68250000D01*
X87550000Y-68250000D01*
X87550000Y-67750000D01*
X88050000Y-67750000D01*
G37*
G36*
X88550000Y-67750000D02*
G01*
X88550000Y-68250000D01*
X88050000Y-68250000D01*
X88050000Y-67750000D01*
X88550000Y-67750000D01*
G37*
G36*
X89550000Y-67750000D02*
G01*
X89550000Y-68250000D01*
X89050000Y-68250000D01*
X89050000Y-67750000D01*
X89550000Y-67750000D01*
G37*
G36*
X90050000Y-67750000D02*
G01*
X90050000Y-68250000D01*
X89550000Y-68250000D01*
X89550000Y-67750000D01*
X90050000Y-67750000D01*
G37*
G36*
X90550000Y-67750000D02*
G01*
X90550000Y-68250000D01*
X90050000Y-68250000D01*
X90050000Y-67750000D01*
X90550000Y-67750000D01*
G37*
G36*
X91050000Y-67750000D02*
G01*
X91050000Y-68250000D01*
X90550000Y-68250000D01*
X90550000Y-67750000D01*
X91050000Y-67750000D01*
G37*
G36*
X91550000Y-67750000D02*
G01*
X91550000Y-68250000D01*
X91050000Y-68250000D01*
X91050000Y-67750000D01*
X91550000Y-67750000D01*
G37*
G36*
X76550000Y-67250000D02*
G01*
X76550000Y-67750000D01*
X76050000Y-67750000D01*
X76050000Y-67250000D01*
X76550000Y-67250000D01*
G37*
G36*
X79550000Y-67250000D02*
G01*
X79550000Y-67750000D01*
X79050000Y-67750000D01*
X79050000Y-67250000D01*
X79550000Y-67250000D01*
G37*
G36*
X81050000Y-67250000D02*
G01*
X81050000Y-67750000D01*
X80550000Y-67750000D01*
X80550000Y-67250000D01*
X81050000Y-67250000D01*
G37*
G36*
X82050000Y-67250000D02*
G01*
X82050000Y-67750000D01*
X81550000Y-67750000D01*
X81550000Y-67250000D01*
X82050000Y-67250000D01*
G37*
G36*
X83050000Y-67250000D02*
G01*
X83050000Y-67750000D01*
X82550000Y-67750000D01*
X82550000Y-67250000D01*
X83050000Y-67250000D01*
G37*
G36*
X83550000Y-67250000D02*
G01*
X83550000Y-67750000D01*
X83050000Y-67750000D01*
X83050000Y-67250000D01*
X83550000Y-67250000D01*
G37*
G36*
X84050000Y-67250000D02*
G01*
X84050000Y-67750000D01*
X83550000Y-67750000D01*
X83550000Y-67250000D01*
X84050000Y-67250000D01*
G37*
G36*
X84550000Y-67250000D02*
G01*
X84550000Y-67750000D01*
X84050000Y-67750000D01*
X84050000Y-67250000D01*
X84550000Y-67250000D01*
G37*
G36*
X85050000Y-67250000D02*
G01*
X85050000Y-67750000D01*
X84550000Y-67750000D01*
X84550000Y-67250000D01*
X85050000Y-67250000D01*
G37*
G36*
X87050000Y-67250000D02*
G01*
X87050000Y-67750000D01*
X86550000Y-67750000D01*
X86550000Y-67250000D01*
X87050000Y-67250000D01*
G37*
G36*
X87550000Y-67250000D02*
G01*
X87550000Y-67750000D01*
X87050000Y-67750000D01*
X87050000Y-67250000D01*
X87550000Y-67250000D01*
G37*
G36*
X88550000Y-67250000D02*
G01*
X88550000Y-67750000D01*
X88050000Y-67750000D01*
X88050000Y-67250000D01*
X88550000Y-67250000D01*
G37*
G36*
X89550000Y-67250000D02*
G01*
X89550000Y-67750000D01*
X89050000Y-67750000D01*
X89050000Y-67250000D01*
X89550000Y-67250000D01*
G37*
G36*
X91050000Y-67250000D02*
G01*
X91050000Y-67750000D01*
X90550000Y-67750000D01*
X90550000Y-67250000D01*
X91050000Y-67250000D01*
G37*
G36*
X76550000Y-66750000D02*
G01*
X76550000Y-67250000D01*
X76050000Y-67250000D01*
X76050000Y-66750000D01*
X76550000Y-66750000D01*
G37*
G36*
X77050000Y-66750000D02*
G01*
X77050000Y-67250000D01*
X76550000Y-67250000D01*
X76550000Y-66750000D01*
X77050000Y-66750000D01*
G37*
G36*
X77550000Y-66750000D02*
G01*
X77550000Y-67250000D01*
X77050000Y-67250000D01*
X77050000Y-66750000D01*
X77550000Y-66750000D01*
G37*
G36*
X78050000Y-66750000D02*
G01*
X78050000Y-67250000D01*
X77550000Y-67250000D01*
X77550000Y-66750000D01*
X78050000Y-66750000D01*
G37*
G36*
X78550000Y-66750000D02*
G01*
X78550000Y-67250000D01*
X78050000Y-67250000D01*
X78050000Y-66750000D01*
X78550000Y-66750000D01*
G37*
G36*
X79050000Y-66750000D02*
G01*
X79050000Y-67250000D01*
X78550000Y-67250000D01*
X78550000Y-66750000D01*
X79050000Y-66750000D01*
G37*
G36*
X79550000Y-66750000D02*
G01*
X79550000Y-67250000D01*
X79050000Y-67250000D01*
X79050000Y-66750000D01*
X79550000Y-66750000D01*
G37*
G36*
X80550000Y-66750000D02*
G01*
X80550000Y-67250000D01*
X80050000Y-67250000D01*
X80050000Y-66750000D01*
X80550000Y-66750000D01*
G37*
G36*
X81050000Y-66750000D02*
G01*
X81050000Y-67250000D01*
X80550000Y-67250000D01*
X80550000Y-66750000D01*
X81050000Y-66750000D01*
G37*
G36*
X83550000Y-66750000D02*
G01*
X83550000Y-67250000D01*
X83050000Y-67250000D01*
X83050000Y-66750000D01*
X83550000Y-66750000D01*
G37*
G36*
X85050000Y-66750000D02*
G01*
X85050000Y-67250000D01*
X84550000Y-67250000D01*
X84550000Y-66750000D01*
X85050000Y-66750000D01*
G37*
G36*
X85550000Y-66750000D02*
G01*
X85550000Y-67250000D01*
X85050000Y-67250000D01*
X85050000Y-66750000D01*
X85550000Y-66750000D01*
G37*
G36*
X86050000Y-66750000D02*
G01*
X86050000Y-67250000D01*
X85550000Y-67250000D01*
X85550000Y-66750000D01*
X86050000Y-66750000D01*
G37*
G36*
X87050000Y-66750000D02*
G01*
X87050000Y-67250000D01*
X86550000Y-67250000D01*
X86550000Y-66750000D01*
X87050000Y-66750000D01*
G37*
G36*
X87550000Y-66750000D02*
G01*
X87550000Y-67250000D01*
X87050000Y-67250000D01*
X87050000Y-66750000D01*
X87550000Y-66750000D01*
G37*
G36*
X88550000Y-66750000D02*
G01*
X88550000Y-67250000D01*
X88050000Y-67250000D01*
X88050000Y-66750000D01*
X88550000Y-66750000D01*
G37*
G36*
X89050000Y-66750000D02*
G01*
X89050000Y-67250000D01*
X88550000Y-67250000D01*
X88550000Y-66750000D01*
X89050000Y-66750000D01*
G37*
G36*
X89550000Y-66750000D02*
G01*
X89550000Y-67250000D01*
X89050000Y-67250000D01*
X89050000Y-66750000D01*
X89550000Y-66750000D01*
G37*
G36*
X91050000Y-66750000D02*
G01*
X91050000Y-67250000D01*
X90550000Y-67250000D01*
X90550000Y-66750000D01*
X91050000Y-66750000D01*
G37*
G36*
X92550000Y-66750000D02*
G01*
X92550000Y-67250000D01*
X92050000Y-67250000D01*
X92050000Y-66750000D01*
X92550000Y-66750000D01*
G37*
M02*
