M48
; DRILL file {KiCad (5.1.5)-3} date 05/15/20 14:34:00
; FORMAT={-:-/ absolute / inch / decimal}
; #@! TF.CreationDate,2020-05-15T14:34:00+03:00
; #@! TF.GenerationSoftware,Kicad,Pcbnew,(5.1.5)-3
; #@! TF.FileFunction,Plated,1,2,PTH
FMAT,2
INCH
T1C0.0079
T2C0.0118
T3C0.0157
T4C0.0236
T5C0.0295
T6C0.0394
T7C0.0866
%
G90
G05
T1
X2.7902Y-2.5689
X2.7902Y-2.6122
X2.7902Y-2.6556
X2.8335Y-2.5689
X2.8335Y-2.6122
X2.8335Y-2.6556
X2.8768Y-2.5689
X2.8768Y-2.6122
X2.8768Y-2.6556
T2
X2.0635Y-2.5722
X2.1085Y-2.2372
X2.1435Y-2.8172
X2.2535Y-2.2872
X2.2985Y-2.2122
X2.3121Y-2.6745
X2.3435Y-2.6822
X2.3485Y-3.0372
X2.3635Y-2.2972
X2.3766Y-2.4561
X2.3936Y-2.4827
X2.4135Y-2.9072
X2.4267Y-2.6174
X2.4485Y-3.0322
X2.5135Y-2.6672
X2.5585Y-2.8272
X2.592Y-2.628
X2.6485Y-1.9672
X2.6585Y-2.6472
X2.6585Y-2.6822
X2.6746Y-2.439
X2.6885Y-2.6472
X2.6885Y-2.6822
X2.6896Y-2.7774
X2.6935Y-2.2372
X2.7085Y-2.8722
X2.7485Y-2.6922
X2.8085Y-2.3522
X2.8235Y-2.8922
X2.8485Y-2.1722
X2.8835Y-2.4222
X2.8885Y-2.3222
X2.9035Y-2.2722
X2.9035Y-2.5272
X2.9385Y-2.8272
X2.9385Y-2.7072
X2.9485Y-2.1672
X2.9535Y-2.4372
X2.9985Y-2.4022
X3.0335Y-3.0422
X3.0485Y-2.5822
X3.0535Y-2.6572
X3.1435Y-2.5172
X3.1635Y-2.5822
X3.1876Y-2.9997
X3.1985Y-2.9522
X3.3185Y-2.2772
X3.3685Y-2.2772
X3.3685Y-2.7722
X3.4485Y-2.0722
X3.4485Y-2.2272
X3.5185Y-2.7822
X3.5235Y-2.3022
X3.5485Y-2.8072
X3.5535Y-2.6972
X3.5643Y-2.7443
X3.6435Y-2.5122
X3.6724Y-2.4691
X3.6751Y-2.4377
X3.6785Y-2.5122
X3.7085Y-2.7822
X3.7285Y-2.4322
X3.7675Y-2.2487
X3.7685Y-2.2172
X3.7685Y-2.5522
X3.7985Y-2.6472
X3.8535Y-2.3222
X3.8722Y-2.2969
X3.8785Y-2.7672
X4.0485Y-2.7672
X4.1335Y-2.2222
X4.2135Y-2.4472
X4.3085Y-2.2122
T3
X2.4185Y-2.5822
X2.5035Y-3.6322
X2.5485Y-3.6622
X2.6785Y-3.6272
X2.7285Y-2.2972
X2.7285Y-3.3422
X2.8135Y-3.3472
X2.8869Y-3.4853
X3.6235Y-3.4122
X3.7034Y-3.4122
X3.7822Y-3.4122
X2.1615Y-2.4051
X2.1615Y-2.4388
X2.1615Y-2.4722
X2.1615Y-2.5057
X2.1615Y-2.5392
X2.1615Y-2.5726
X2.1615Y-2.6061
X2.1615Y-2.6396
X2.2137Y-2.4051
X2.2137Y-2.4386
X2.2137Y-2.472
X2.2137Y-2.5055
X2.2137Y-2.539
X2.2137Y-2.5724
X2.2137Y-2.6059
X2.2137Y-2.6394
T5
X2.9735Y-2.97
X3.0522Y-2.97
X3.131Y-2.97
X3.3335Y-2.9722
X3.4122Y-2.9722
X3.491Y-2.9722
X3.5697Y-2.9722
X3.6485Y-2.9722
X3.7272Y-2.9722
X3.8059Y-2.9722
X3.8847Y-2.9722
X3.9634Y-2.9722
X4.0422Y-2.9722
X4.1209Y-2.9722
X2.375Y-2.97
X2.4537Y-2.97
X2.5325Y-2.97
X2.6112Y-2.97
X2.69Y-2.97
X2.7687Y-2.97
T6
X2.2992Y-2.0181
X2.2992Y-2.1181
X2.3992Y-2.0181
X2.3992Y-2.1181
X2.4992Y-2.0181
X2.4992Y-2.1181
X2.5992Y-2.0181
X2.5992Y-2.1181
X2.6992Y-2.0181
X2.6992Y-2.1181
X2.7992Y-2.0181
X2.7992Y-2.1181
X2.8992Y-2.0181
X2.8992Y-2.1181
X2.9992Y-2.0181
X2.9992Y-2.1181
X3.0992Y-2.0181
X3.0992Y-2.1181
X3.1992Y-2.0181
X3.1992Y-2.1181
X3.2992Y-2.0181
X3.2992Y-2.1181
X3.3992Y-2.0181
X3.3992Y-2.1181
X3.4992Y-2.0181
X3.4992Y-2.1181
X3.5992Y-2.0181
X3.5992Y-2.1181
X3.6992Y-2.0181
X3.6992Y-2.1181
X3.7992Y-2.0181
X3.7992Y-2.1181
X3.8992Y-2.0181
X3.8992Y-2.1181
X3.9992Y-2.0181
X3.9992Y-2.1181
X4.0992Y-2.0181
X4.0992Y-2.1181
X4.1992Y-2.0181
X4.1992Y-2.1181
T7
X3.3885Y-3.2429
X2.3444Y-3.2494
X3.0456Y-3.2494
X4.0184Y-3.2429
X3.0456Y-3.8006
X4.0184Y-3.5972
X2.3444Y-3.8006
X3.3885Y-3.5972
T4
G00X2.0578Y-2.352
M15
G01X2.0263Y-2.352
M16
G05
G00X2.0578Y-2.6925
M15
G01X2.0263Y-2.6925
M16
G05
G00X2.2046Y-2.352
M15
G01X2.1456Y-2.352
M16
G05
G00X2.2046Y-2.6925
M15
G01X2.1456Y-2.6925
M16
G05
T0
M30
