G04 #@! TF.GenerationSoftware,KiCad,Pcbnew,(5.1.5)-3*
G04 #@! TF.CreationDate,2020-05-15T14:33:57+03:00*
G04 #@! TF.ProjectId,AstroPiMicro,41737472-6f50-4694-9d69-63726f2e6b69,1.0.8*
G04 #@! TF.SameCoordinates,Original*
G04 #@! TF.FileFunction,Legend,Top*
G04 #@! TF.FilePolarity,Positive*
%FSLAX46Y46*%
G04 Gerber Fmt 4.6, Leading zero omitted, Abs format (unit mm)*
G04 Created by KiCad (PCBNEW (5.1.5)-3) date 2020-05-15 14:33:57*
%MOMM*%
%LPD*%
G04 APERTURE LIST*
%ADD10C,0.150000*%
%ADD11C,0.120000*%
G04 APERTURE END LIST*
D10*
X98887142Y-72105714D02*
X98125238Y-72391428D01*
X98887142Y-72677142D01*
X99363333Y-72772380D02*
X99363333Y-71772380D01*
X99934761Y-72772380D01*
X99934761Y-71772380D01*
X100410952Y-72772380D02*
X100410952Y-71772380D01*
X100791904Y-71772380D01*
X100887142Y-71820000D01*
X100934761Y-71867619D01*
X100982380Y-71962857D01*
X100982380Y-72105714D01*
X100934761Y-72200952D01*
X100887142Y-72248571D01*
X100791904Y-72296190D01*
X100410952Y-72296190D01*
X63149699Y-89535000D02*
X68453000Y-94838301D01*
X68453000Y-84231699D02*
X73756301Y-89535000D01*
X63149699Y-89535000D02*
X68453000Y-84231699D01*
X68453000Y-94838301D02*
X73756301Y-89535000D01*
D11*
X66774000Y-70654000D02*
X66774000Y-63754000D01*
X61674000Y-70654000D02*
X61674000Y-63754000D01*
X82311000Y-73385000D02*
X82311000Y-74635000D01*
X83561000Y-73385000D02*
X82311000Y-73385000D01*
X103671000Y-77795000D02*
X103671000Y-77295000D01*
X103771000Y-77295000D02*
X103771000Y-77795000D01*
X103571000Y-77295000D02*
X103771000Y-77295000D01*
X103571000Y-77795000D02*
X103571000Y-77295000D01*
X101671000Y-77795000D02*
X101671000Y-77295000D01*
X101771000Y-77295000D02*
X101771000Y-77795000D01*
X101571000Y-77295000D02*
X101771000Y-77295000D01*
X101571000Y-77795000D02*
X101571000Y-77295000D01*
X99671000Y-77795000D02*
X99671000Y-77295000D01*
X99771000Y-77295000D02*
X99771000Y-77795000D01*
X99571000Y-77295000D02*
X99771000Y-77295000D01*
X99571000Y-77795000D02*
X99571000Y-77295000D01*
X97671000Y-77795000D02*
X97671000Y-77295000D01*
X97771000Y-77295000D02*
X97771000Y-77795000D01*
X97571000Y-77295000D02*
X97771000Y-77295000D01*
X97571000Y-77795000D02*
X97571000Y-77295000D01*
X95671000Y-77795000D02*
X95671000Y-77295000D01*
X95771000Y-77295000D02*
X95771000Y-77795000D01*
X95571000Y-77295000D02*
X95771000Y-77295000D01*
X95571000Y-77795000D02*
X95571000Y-77295000D01*
X93671000Y-77795000D02*
X93671000Y-77295000D01*
X93771000Y-77295000D02*
X93771000Y-77795000D01*
X93571000Y-77295000D02*
X93771000Y-77295000D01*
X93571000Y-77795000D02*
X93571000Y-77295000D01*
X91671000Y-77795000D02*
X91671000Y-77295000D01*
X91771000Y-77295000D02*
X91771000Y-77795000D01*
X91571000Y-77295000D02*
X91771000Y-77295000D01*
X91571000Y-77795000D02*
X91571000Y-77295000D01*
X89671000Y-77795000D02*
X89671000Y-77295000D01*
X89771000Y-77295000D02*
X89771000Y-77795000D01*
X89571000Y-77295000D02*
X89771000Y-77295000D01*
X89571000Y-77795000D02*
X89571000Y-77295000D01*
X87671000Y-77795000D02*
X87671000Y-77295000D01*
X87771000Y-77295000D02*
X87771000Y-77795000D01*
X87571000Y-77295000D02*
X87771000Y-77295000D01*
X87571000Y-77795000D02*
X87571000Y-77295000D01*
X85671000Y-77795000D02*
X85671000Y-77295000D01*
X85771000Y-77295000D02*
X85771000Y-77795000D01*
X85571000Y-77295000D02*
X85771000Y-77295000D01*
X85571000Y-77795000D02*
X85571000Y-77295000D01*
X106731000Y-76295000D02*
X106121000Y-76295000D01*
X106731000Y-74995000D02*
X106121000Y-74995000D01*
X82611000Y-76295000D02*
X83221000Y-76295000D01*
X82611000Y-74995000D02*
X83221000Y-74995000D01*
X104171000Y-74295000D02*
X104171000Y-73685000D01*
X106121000Y-74295000D02*
X104171000Y-74295000D01*
X106121000Y-77795000D02*
X106121000Y-74295000D01*
X83221000Y-77795000D02*
X106121000Y-77795000D01*
X83221000Y-74295000D02*
X83221000Y-77795000D01*
X85171000Y-74295000D02*
X83221000Y-74295000D01*
X85171000Y-73685000D02*
X85171000Y-74295000D01*
X84371000Y-73585000D02*
X84071000Y-73585000D01*
X84071000Y-73485000D02*
X84071000Y-73685000D01*
X84371000Y-73485000D02*
X84071000Y-73485000D01*
X84371000Y-73685000D02*
X84371000Y-73485000D01*
X106731000Y-73685000D02*
X82611000Y-73685000D01*
X106731000Y-78405000D02*
X106731000Y-73685000D01*
X82611000Y-78405000D02*
X106731000Y-78405000D01*
X82611000Y-73685000D02*
X82611000Y-78405000D01*
X57965000Y-73328000D02*
X57965000Y-74578000D01*
X59215000Y-73328000D02*
X57965000Y-73328000D01*
X69325000Y-77738000D02*
X69325000Y-77238000D01*
X69425000Y-77238000D02*
X69425000Y-77738000D01*
X69225000Y-77238000D02*
X69425000Y-77238000D01*
X69225000Y-77738000D02*
X69225000Y-77238000D01*
X67325000Y-77738000D02*
X67325000Y-77238000D01*
X67425000Y-77238000D02*
X67425000Y-77738000D01*
X67225000Y-77238000D02*
X67425000Y-77238000D01*
X67225000Y-77738000D02*
X67225000Y-77238000D01*
X65325000Y-77738000D02*
X65325000Y-77238000D01*
X65425000Y-77238000D02*
X65425000Y-77738000D01*
X65225000Y-77238000D02*
X65425000Y-77238000D01*
X65225000Y-77738000D02*
X65225000Y-77238000D01*
X63325000Y-77738000D02*
X63325000Y-77238000D01*
X63425000Y-77238000D02*
X63425000Y-77738000D01*
X63225000Y-77238000D02*
X63425000Y-77238000D01*
X63225000Y-77738000D02*
X63225000Y-77238000D01*
X61325000Y-77738000D02*
X61325000Y-77238000D01*
X61425000Y-77238000D02*
X61425000Y-77738000D01*
X61225000Y-77238000D02*
X61425000Y-77238000D01*
X61225000Y-77738000D02*
X61225000Y-77238000D01*
X72385000Y-76238000D02*
X71775000Y-76238000D01*
X72385000Y-74938000D02*
X71775000Y-74938000D01*
X58265000Y-76238000D02*
X58875000Y-76238000D01*
X58265000Y-74938000D02*
X58875000Y-74938000D01*
X69825000Y-74238000D02*
X69825000Y-73628000D01*
X71775000Y-74238000D02*
X69825000Y-74238000D01*
X71775000Y-77738000D02*
X71775000Y-74238000D01*
X58875000Y-77738000D02*
X71775000Y-77738000D01*
X58875000Y-74238000D02*
X58875000Y-77738000D01*
X60825000Y-74238000D02*
X58875000Y-74238000D01*
X60825000Y-73628000D02*
X60825000Y-74238000D01*
X60025000Y-73528000D02*
X59725000Y-73528000D01*
X59725000Y-73428000D02*
X59725000Y-73628000D01*
X60025000Y-73428000D02*
X59725000Y-73428000D01*
X60025000Y-73628000D02*
X60025000Y-73428000D01*
X72385000Y-73628000D02*
X58265000Y-73628000D01*
X72385000Y-78348000D02*
X72385000Y-73628000D01*
X58265000Y-78348000D02*
X72385000Y-78348000D01*
X58265000Y-73628000D02*
X58265000Y-78348000D01*
X73167000Y-73328000D02*
X73167000Y-74578000D01*
X74417000Y-73328000D02*
X73167000Y-73328000D01*
X78527000Y-77738000D02*
X78527000Y-77238000D01*
X78627000Y-77238000D02*
X78627000Y-77738000D01*
X78427000Y-77238000D02*
X78627000Y-77238000D01*
X78427000Y-77738000D02*
X78427000Y-77238000D01*
X76527000Y-77738000D02*
X76527000Y-77238000D01*
X76627000Y-77238000D02*
X76627000Y-77738000D01*
X76427000Y-77238000D02*
X76627000Y-77238000D01*
X76427000Y-77738000D02*
X76427000Y-77238000D01*
X81587000Y-76238000D02*
X80977000Y-76238000D01*
X81587000Y-74938000D02*
X80977000Y-74938000D01*
X73467000Y-76238000D02*
X74077000Y-76238000D01*
X73467000Y-74938000D02*
X74077000Y-74938000D01*
X79027000Y-74238000D02*
X79027000Y-73628000D01*
X80977000Y-74238000D02*
X79027000Y-74238000D01*
X80977000Y-77738000D02*
X80977000Y-74238000D01*
X74077000Y-77738000D02*
X80977000Y-77738000D01*
X74077000Y-74238000D02*
X74077000Y-77738000D01*
X76027000Y-74238000D02*
X74077000Y-74238000D01*
X76027000Y-73628000D02*
X76027000Y-74238000D01*
X75227000Y-73528000D02*
X74927000Y-73528000D01*
X74927000Y-73428000D02*
X74927000Y-73628000D01*
X75227000Y-73428000D02*
X74927000Y-73428000D01*
X75227000Y-73628000D02*
X75227000Y-73428000D01*
X81587000Y-73628000D02*
X73467000Y-73628000D01*
X81587000Y-78348000D02*
X81587000Y-73628000D01*
X73467000Y-78348000D02*
X81587000Y-78348000D01*
X73467000Y-73628000D02*
X73467000Y-78348000D01*
X105264000Y-69324000D02*
X105264000Y-68924000D01*
X105264000Y-68924000D02*
X104464000Y-68924000D01*
X104464000Y-63524000D02*
X105264000Y-63524000D01*
X103064000Y-67124000D02*
X103064000Y-65324000D01*
X106664000Y-65324000D02*
X106664000Y-67124000D01*
X106664000Y-67124000D02*
X106904000Y-67124000D01*
X70561000Y-64241000D02*
X69861000Y-64241000D01*
X74081000Y-68461000D02*
X74081000Y-67761000D01*
X73381000Y-68461000D02*
X74081000Y-68461000D01*
X69861000Y-68461000D02*
X69861000Y-67761000D01*
X70561000Y-68461000D02*
X69861000Y-68461000D01*
X74081000Y-64241000D02*
X74081000Y-64941000D01*
X73381000Y-64241000D02*
X74081000Y-64241000D01*
X67664000Y-57756000D02*
X65864000Y-57756000D01*
X65864000Y-60976000D02*
X68314000Y-60976000D01*
X92029000Y-60963000D02*
X91729000Y-60963000D01*
X91729000Y-60963000D02*
X91729000Y-61263000D01*
X98649000Y-60963000D02*
X98949000Y-60963000D01*
X98949000Y-60963000D02*
X98949000Y-61263000D01*
X92029000Y-68183000D02*
X91729000Y-68183000D01*
X91729000Y-68183000D02*
X91729000Y-67883000D01*
X98649000Y-68183000D02*
X98949000Y-68183000D01*
X98949000Y-68183000D02*
X98949000Y-67883000D01*
X98949000Y-67883000D02*
X100264000Y-67883000D01*
X105624000Y-59295000D02*
X105624000Y-58365000D01*
X105624000Y-56135000D02*
X105624000Y-57065000D01*
X105624000Y-56135000D02*
X103464000Y-56135000D01*
X105624000Y-59295000D02*
X104164000Y-59295000D01*
D10*
X97467000Y-88704000D02*
X98317000Y-88704000D01*
X98317000Y-88704000D02*
X98317000Y-85204000D01*
X98317000Y-85204000D02*
X97467000Y-85204000D01*
X94967000Y-85204000D02*
X95667000Y-85204000D01*
X94967000Y-88704000D02*
X95667000Y-88704000D01*
X92467000Y-88704000D02*
X93167000Y-88704000D01*
X92467000Y-85204000D02*
X93167000Y-85204000D01*
X90667000Y-88704000D02*
X89817000Y-88704000D01*
X89817000Y-88704000D02*
X89817000Y-85204000D01*
X89817000Y-85204000D02*
X90667000Y-85204000D01*
D11*
X81921267Y-64448000D02*
X81578733Y-64448000D01*
X81921267Y-63428000D02*
X81578733Y-63428000D01*
X81578733Y-61777000D02*
X81921267Y-61777000D01*
X81578733Y-62797000D02*
X81921267Y-62797000D01*
X71253267Y-72830000D02*
X70910733Y-72830000D01*
X71253267Y-71810000D02*
X70910733Y-71810000D01*
X74132000Y-71132733D02*
X74132000Y-71475267D01*
X73112000Y-71132733D02*
X73112000Y-71475267D01*
X66338733Y-56189000D02*
X66681267Y-56189000D01*
X66338733Y-57209000D02*
X66681267Y-57209000D01*
X62782733Y-61396000D02*
X63125267Y-61396000D01*
X62782733Y-62416000D02*
X63125267Y-62416000D01*
X66338733Y-61523000D02*
X66681267Y-61523000D01*
X66338733Y-62543000D02*
X66681267Y-62543000D01*
X58934267Y-65464000D02*
X58591733Y-65464000D01*
X58934267Y-64444000D02*
X58591733Y-64444000D01*
X58934267Y-63813000D02*
X58591733Y-63813000D01*
X58934267Y-62793000D02*
X58591733Y-62793000D01*
X96056733Y-71810000D02*
X96399267Y-71810000D01*
X96056733Y-72830000D02*
X96399267Y-72830000D01*
X96399267Y-71179000D02*
X96056733Y-71179000D01*
X96399267Y-70159000D02*
X96056733Y-70159000D01*
X105035267Y-60765000D02*
X104692733Y-60765000D01*
X105035267Y-59745000D02*
X104692733Y-59745000D01*
X86743000Y-64765000D02*
X85593000Y-64765000D01*
X85593000Y-64765000D02*
X85593000Y-65815000D01*
X85593000Y-65815000D02*
X84603000Y-65815000D01*
X86743000Y-70985000D02*
X85593000Y-70985000D01*
X85593000Y-70985000D02*
X85593000Y-69935000D01*
X88713000Y-65935000D02*
X88713000Y-69815000D01*
D10*
X50127000Y-64065000D02*
X51397000Y-64065000D01*
X47617000Y-59590000D02*
X48377000Y-59585000D01*
X47617000Y-59590000D02*
X47617000Y-68540000D01*
X48377000Y-68545000D02*
X47617000Y-68540000D01*
X56787000Y-59590000D02*
X56787000Y-68540000D01*
X50127000Y-59440000D02*
X50127000Y-68690000D01*
D11*
X62254000Y-60977000D02*
X61454000Y-60977000D01*
X61454000Y-60977044D02*
X61454000Y-56527000D01*
X64454000Y-60427000D02*
X64454000Y-56527000D01*
X79819000Y-69747000D02*
X79819000Y-61512000D01*
X79819000Y-61512000D02*
X75299000Y-61512000D01*
X75299000Y-61512000D02*
X75299000Y-69747000D01*
X70880000Y-62291578D02*
X70880000Y-61774422D01*
X72300000Y-62291578D02*
X72300000Y-61774422D01*
X71340578Y-70744000D02*
X70823422Y-70744000D01*
X71340578Y-69324000D02*
X70823422Y-69324000D01*
X88606000Y-60934267D02*
X88606000Y-60591733D01*
X89626000Y-60934267D02*
X89626000Y-60591733D01*
X92335267Y-58987000D02*
X91992733Y-58987000D01*
X92335267Y-57967000D02*
X91992733Y-57967000D01*
X57291000Y-61021578D02*
X57291000Y-60504422D01*
X58711000Y-61021578D02*
X58711000Y-60504422D01*
X100421000Y-69735733D02*
X100421000Y-70078267D01*
X99401000Y-69735733D02*
X99401000Y-70078267D01*
X104692733Y-61650000D02*
X105035267Y-61650000D01*
X104692733Y-62670000D02*
X105035267Y-62670000D01*
X105035267Y-70798000D02*
X104692733Y-70798000D01*
X105035267Y-69778000D02*
X104692733Y-69778000D01*
X57070000Y-55130000D02*
X57070000Y-53800000D01*
X58400000Y-55130000D02*
X57070000Y-55130000D01*
X57070000Y-52530000D02*
X57070000Y-49930000D01*
X59670000Y-52530000D02*
X57070000Y-52530000D01*
X59670000Y-55130000D02*
X59670000Y-52530000D01*
X57070000Y-49930000D02*
X107990000Y-49930000D01*
X59670000Y-55130000D02*
X107990000Y-55130000D01*
X107990000Y-55130000D02*
X107990000Y-49930000D01*
D10*
X61226380Y-67370666D02*
X61226380Y-67846857D01*
X60226380Y-67846857D01*
X61226380Y-66513523D02*
X61226380Y-67084952D01*
X61226380Y-66799238D02*
X60226380Y-66799238D01*
X60369238Y-66894476D01*
X60464476Y-66989714D01*
X60512095Y-67084952D01*
M02*
