G04 #@! TF.GenerationSoftware,KiCad,Pcbnew,(5.1.6)-1*
G04 #@! TF.CreationDate,2020-07-17T13:37:25+03:00*
G04 #@! TF.ProjectId,AstroPiMicro,41737472-6f50-4694-9d69-63726f2e6b69,1.0.8*
G04 #@! TF.SameCoordinates,Original*
G04 #@! TF.FileFunction,Copper,L1,Top*
G04 #@! TF.FilePolarity,Positive*
%FSLAX46Y46*%
G04 Gerber Fmt 4.6, Leading zero omitted, Abs format (unit mm)*
G04 Created by KiCad (PCBNEW (5.1.6)-1) date 2020-07-17 13:37:25*
%MOMM*%
%LPD*%
G01*
G04 APERTURE LIST*
G04 #@! TA.AperFunction,ComponentPad*
%ADD10O,1.000000X1.800000*%
G04 #@! TD*
G04 #@! TA.AperFunction,SMDPad,CuDef*
%ADD11R,0.800000X1.000000*%
G04 #@! TD*
G04 #@! TA.AperFunction,SMDPad,CuDef*
%ADD12R,0.700000X1.000000*%
G04 #@! TD*
G04 #@! TA.AperFunction,SMDPad,CuDef*
%ADD13R,2.500000X2.500000*%
G04 #@! TD*
G04 #@! TA.AperFunction,ViaPad*
%ADD14C,0.500000*%
G04 #@! TD*
G04 #@! TA.AperFunction,SMDPad,CuDef*
%ADD15C,2.000000*%
G04 #@! TD*
G04 #@! TA.AperFunction,SMDPad,CuDef*
%ADD16R,2.500000X1.250000*%
G04 #@! TD*
G04 #@! TA.AperFunction,SMDPad,CuDef*
%ADD17R,6.100000X1.900000*%
G04 #@! TD*
G04 #@! TA.AperFunction,ComponentPad*
%ADD18O,1.950000X1.700000*%
G04 #@! TD*
G04 #@! TA.AperFunction,ComponentPad*
%ADD19O,1.700000X1.700000*%
G04 #@! TD*
G04 #@! TA.AperFunction,ComponentPad*
%ADD20R,1.700000X1.700000*%
G04 #@! TD*
G04 #@! TA.AperFunction,ViaPad*
%ADD21C,0.800000*%
G04 #@! TD*
G04 #@! TA.AperFunction,ViaPad*
%ADD22C,0.600000*%
G04 #@! TD*
G04 #@! TA.AperFunction,Conductor*
%ADD23C,0.350000*%
G04 #@! TD*
G04 #@! TA.AperFunction,Conductor*
%ADD24C,0.152400*%
G04 #@! TD*
G04 #@! TA.AperFunction,Conductor*
%ADD25C,0.200000*%
G04 #@! TD*
G04 #@! TA.AperFunction,Conductor*
%ADD26C,0.250000*%
G04 #@! TD*
G04 #@! TA.AperFunction,Conductor*
%ADD27C,0.500000*%
G04 #@! TD*
G04 #@! TA.AperFunction,Conductor*
%ADD28C,0.254000*%
G04 #@! TD*
G04 APERTURE END LIST*
D10*
X68287500Y-103368000D03*
X59647500Y-99568000D03*
X59647500Y-103368000D03*
X68287500Y-99568000D03*
D11*
X66667500Y-99568000D03*
X61267500Y-99568000D03*
D12*
X64467500Y-99568000D03*
X63467500Y-99568000D03*
D11*
X65467500Y-99568000D03*
X62467500Y-99568000D03*
D13*
X79900000Y-103200000D03*
G04 #@! TA.AperFunction,SMDPad,CuDef*
G36*
G01*
X100225000Y-91700000D02*
X99475000Y-91700000D01*
G75*
G02*
X99425000Y-91650000I0J50000D01*
G01*
X99425000Y-91550000D01*
G75*
G02*
X99475000Y-91500000I50000J0D01*
G01*
X100225000Y-91500000D01*
G75*
G02*
X100275000Y-91550000I0J-50000D01*
G01*
X100275000Y-91650000D01*
G75*
G02*
X100225000Y-91700000I-50000J0D01*
G01*
G37*
G04 #@! TD.AperFunction*
G04 #@! TA.AperFunction,SMDPad,CuDef*
G36*
G01*
X100225000Y-91300000D02*
X99475000Y-91300000D01*
G75*
G02*
X99425000Y-91250000I0J50000D01*
G01*
X99425000Y-91150000D01*
G75*
G02*
X99475000Y-91100000I50000J0D01*
G01*
X100225000Y-91100000D01*
G75*
G02*
X100275000Y-91150000I0J-50000D01*
G01*
X100275000Y-91250000D01*
G75*
G02*
X100225000Y-91300000I-50000J0D01*
G01*
G37*
G04 #@! TD.AperFunction*
G04 #@! TA.AperFunction,SMDPad,CuDef*
G36*
G01*
X100225000Y-90900000D02*
X99475000Y-90900000D01*
G75*
G02*
X99425000Y-90850000I0J50000D01*
G01*
X99425000Y-90750000D01*
G75*
G02*
X99475000Y-90700000I50000J0D01*
G01*
X100225000Y-90700000D01*
G75*
G02*
X100275000Y-90750000I0J-50000D01*
G01*
X100275000Y-90850000D01*
G75*
G02*
X100225000Y-90900000I-50000J0D01*
G01*
G37*
G04 #@! TD.AperFunction*
G04 #@! TA.AperFunction,SMDPad,CuDef*
G36*
G01*
X100225000Y-90500000D02*
X99475000Y-90500000D01*
G75*
G02*
X99425000Y-90450000I0J50000D01*
G01*
X99425000Y-90350000D01*
G75*
G02*
X99475000Y-90300000I50000J0D01*
G01*
X100225000Y-90300000D01*
G75*
G02*
X100275000Y-90350000I0J-50000D01*
G01*
X100275000Y-90450000D01*
G75*
G02*
X100225000Y-90500000I-50000J0D01*
G01*
G37*
G04 #@! TD.AperFunction*
G04 #@! TA.AperFunction,SMDPad,CuDef*
G36*
G01*
X100225000Y-90100000D02*
X99475000Y-90100000D01*
G75*
G02*
X99425000Y-90050000I0J50000D01*
G01*
X99425000Y-89950000D01*
G75*
G02*
X99475000Y-89900000I50000J0D01*
G01*
X100225000Y-89900000D01*
G75*
G02*
X100275000Y-89950000I0J-50000D01*
G01*
X100275000Y-90050000D01*
G75*
G02*
X100225000Y-90100000I-50000J0D01*
G01*
G37*
G04 #@! TD.AperFunction*
G04 #@! TA.AperFunction,SMDPad,CuDef*
G36*
G01*
X100550000Y-89775000D02*
X100450000Y-89775000D01*
G75*
G02*
X100400000Y-89725000I0J50000D01*
G01*
X100400000Y-88975000D01*
G75*
G02*
X100450000Y-88925000I50000J0D01*
G01*
X100550000Y-88925000D01*
G75*
G02*
X100600000Y-88975000I0J-50000D01*
G01*
X100600000Y-89725000D01*
G75*
G02*
X100550000Y-89775000I-50000J0D01*
G01*
G37*
G04 #@! TD.AperFunction*
G04 #@! TA.AperFunction,SMDPad,CuDef*
G36*
G01*
X100950000Y-89775000D02*
X100850000Y-89775000D01*
G75*
G02*
X100800000Y-89725000I0J50000D01*
G01*
X100800000Y-88975000D01*
G75*
G02*
X100850000Y-88925000I50000J0D01*
G01*
X100950000Y-88925000D01*
G75*
G02*
X101000000Y-88975000I0J-50000D01*
G01*
X101000000Y-89725000D01*
G75*
G02*
X100950000Y-89775000I-50000J0D01*
G01*
G37*
G04 #@! TD.AperFunction*
G04 #@! TA.AperFunction,SMDPad,CuDef*
G36*
G01*
X101350000Y-89775000D02*
X101250000Y-89775000D01*
G75*
G02*
X101200000Y-89725000I0J50000D01*
G01*
X101200000Y-88975000D01*
G75*
G02*
X101250000Y-88925000I50000J0D01*
G01*
X101350000Y-88925000D01*
G75*
G02*
X101400000Y-88975000I0J-50000D01*
G01*
X101400000Y-89725000D01*
G75*
G02*
X101350000Y-89775000I-50000J0D01*
G01*
G37*
G04 #@! TD.AperFunction*
G04 #@! TA.AperFunction,SMDPad,CuDef*
G36*
G01*
X101750000Y-89775000D02*
X101650000Y-89775000D01*
G75*
G02*
X101600000Y-89725000I0J50000D01*
G01*
X101600000Y-88975000D01*
G75*
G02*
X101650000Y-88925000I50000J0D01*
G01*
X101750000Y-88925000D01*
G75*
G02*
X101800000Y-88975000I0J-50000D01*
G01*
X101800000Y-89725000D01*
G75*
G02*
X101750000Y-89775000I-50000J0D01*
G01*
G37*
G04 #@! TD.AperFunction*
G04 #@! TA.AperFunction,SMDPad,CuDef*
G36*
G01*
X102150000Y-89775000D02*
X102050000Y-89775000D01*
G75*
G02*
X102000000Y-89725000I0J50000D01*
G01*
X102000000Y-88975000D01*
G75*
G02*
X102050000Y-88925000I50000J0D01*
G01*
X102150000Y-88925000D01*
G75*
G02*
X102200000Y-88975000I0J-50000D01*
G01*
X102200000Y-89725000D01*
G75*
G02*
X102150000Y-89775000I-50000J0D01*
G01*
G37*
G04 #@! TD.AperFunction*
G04 #@! TA.AperFunction,SMDPad,CuDef*
G36*
G01*
X103125000Y-90100000D02*
X102375000Y-90100000D01*
G75*
G02*
X102325000Y-90050000I0J50000D01*
G01*
X102325000Y-89950000D01*
G75*
G02*
X102375000Y-89900000I50000J0D01*
G01*
X103125000Y-89900000D01*
G75*
G02*
X103175000Y-89950000I0J-50000D01*
G01*
X103175000Y-90050000D01*
G75*
G02*
X103125000Y-90100000I-50000J0D01*
G01*
G37*
G04 #@! TD.AperFunction*
G04 #@! TA.AperFunction,SMDPad,CuDef*
G36*
G01*
X103125000Y-90500000D02*
X102375000Y-90500000D01*
G75*
G02*
X102325000Y-90450000I0J50000D01*
G01*
X102325000Y-90350000D01*
G75*
G02*
X102375000Y-90300000I50000J0D01*
G01*
X103125000Y-90300000D01*
G75*
G02*
X103175000Y-90350000I0J-50000D01*
G01*
X103175000Y-90450000D01*
G75*
G02*
X103125000Y-90500000I-50000J0D01*
G01*
G37*
G04 #@! TD.AperFunction*
G04 #@! TA.AperFunction,SMDPad,CuDef*
G36*
G01*
X103125000Y-90900000D02*
X102375000Y-90900000D01*
G75*
G02*
X102325000Y-90850000I0J50000D01*
G01*
X102325000Y-90750000D01*
G75*
G02*
X102375000Y-90700000I50000J0D01*
G01*
X103125000Y-90700000D01*
G75*
G02*
X103175000Y-90750000I0J-50000D01*
G01*
X103175000Y-90850000D01*
G75*
G02*
X103125000Y-90900000I-50000J0D01*
G01*
G37*
G04 #@! TD.AperFunction*
G04 #@! TA.AperFunction,SMDPad,CuDef*
G36*
G01*
X103125000Y-91300000D02*
X102375000Y-91300000D01*
G75*
G02*
X102325000Y-91250000I0J50000D01*
G01*
X102325000Y-91150000D01*
G75*
G02*
X102375000Y-91100000I50000J0D01*
G01*
X103125000Y-91100000D01*
G75*
G02*
X103175000Y-91150000I0J-50000D01*
G01*
X103175000Y-91250000D01*
G75*
G02*
X103125000Y-91300000I-50000J0D01*
G01*
G37*
G04 #@! TD.AperFunction*
G04 #@! TA.AperFunction,SMDPad,CuDef*
G36*
G01*
X103125000Y-91700000D02*
X102375000Y-91700000D01*
G75*
G02*
X102325000Y-91650000I0J50000D01*
G01*
X102325000Y-91550000D01*
G75*
G02*
X102375000Y-91500000I50000J0D01*
G01*
X103125000Y-91500000D01*
G75*
G02*
X103175000Y-91550000I0J-50000D01*
G01*
X103175000Y-91650000D01*
G75*
G02*
X103125000Y-91700000I-50000J0D01*
G01*
G37*
G04 #@! TD.AperFunction*
G04 #@! TA.AperFunction,SMDPad,CuDef*
G36*
G01*
X102150000Y-92675000D02*
X102050000Y-92675000D01*
G75*
G02*
X102000000Y-92625000I0J50000D01*
G01*
X102000000Y-91875000D01*
G75*
G02*
X102050000Y-91825000I50000J0D01*
G01*
X102150000Y-91825000D01*
G75*
G02*
X102200000Y-91875000I0J-50000D01*
G01*
X102200000Y-92625000D01*
G75*
G02*
X102150000Y-92675000I-50000J0D01*
G01*
G37*
G04 #@! TD.AperFunction*
G04 #@! TA.AperFunction,SMDPad,CuDef*
G36*
G01*
X101750000Y-92675000D02*
X101650000Y-92675000D01*
G75*
G02*
X101600000Y-92625000I0J50000D01*
G01*
X101600000Y-91875000D01*
G75*
G02*
X101650000Y-91825000I50000J0D01*
G01*
X101750000Y-91825000D01*
G75*
G02*
X101800000Y-91875000I0J-50000D01*
G01*
X101800000Y-92625000D01*
G75*
G02*
X101750000Y-92675000I-50000J0D01*
G01*
G37*
G04 #@! TD.AperFunction*
G04 #@! TA.AperFunction,SMDPad,CuDef*
G36*
G01*
X101350000Y-92675000D02*
X101250000Y-92675000D01*
G75*
G02*
X101200000Y-92625000I0J50000D01*
G01*
X101200000Y-91875000D01*
G75*
G02*
X101250000Y-91825000I50000J0D01*
G01*
X101350000Y-91825000D01*
G75*
G02*
X101400000Y-91875000I0J-50000D01*
G01*
X101400000Y-92625000D01*
G75*
G02*
X101350000Y-92675000I-50000J0D01*
G01*
G37*
G04 #@! TD.AperFunction*
G04 #@! TA.AperFunction,SMDPad,CuDef*
G36*
G01*
X100950000Y-92675000D02*
X100850000Y-92675000D01*
G75*
G02*
X100800000Y-92625000I0J50000D01*
G01*
X100800000Y-91875000D01*
G75*
G02*
X100850000Y-91825000I50000J0D01*
G01*
X100950000Y-91825000D01*
G75*
G02*
X101000000Y-91875000I0J-50000D01*
G01*
X101000000Y-92625000D01*
G75*
G02*
X100950000Y-92675000I-50000J0D01*
G01*
G37*
G04 #@! TD.AperFunction*
G04 #@! TA.AperFunction,SMDPad,CuDef*
G36*
G01*
X100550000Y-92675000D02*
X100450000Y-92675000D01*
G75*
G02*
X100400000Y-92625000I0J50000D01*
G01*
X100400000Y-91875000D01*
G75*
G02*
X100450000Y-91825000I50000J0D01*
G01*
X100550000Y-91825000D01*
G75*
G02*
X100600000Y-91875000I0J-50000D01*
G01*
X100600000Y-92625000D01*
G75*
G02*
X100550000Y-92675000I-50000J0D01*
G01*
G37*
G04 #@! TD.AperFunction*
D14*
X101875000Y-90225000D03*
X101875000Y-91375000D03*
X100725000Y-90225000D03*
X100725000Y-91375000D03*
G04 #@! TA.AperFunction,SMDPad,CuDef*
G36*
G01*
X101875001Y-91625000D02*
X100724999Y-91625000D01*
G75*
G02*
X100475000Y-91375001I0J249999D01*
G01*
X100475000Y-90224999D01*
G75*
G02*
X100724999Y-89975000I249999J0D01*
G01*
X101875001Y-89975000D01*
G75*
G02*
X102125000Y-90224999I0J-249999D01*
G01*
X102125000Y-91375001D01*
G75*
G02*
X101875001Y-91625000I-249999J0D01*
G01*
G37*
G04 #@! TD.AperFunction*
G04 #@! TA.AperFunction,SMDPad,CuDef*
G36*
G01*
X100235000Y-64090000D02*
X99485000Y-64090000D01*
G75*
G02*
X99435000Y-64040000I0J50000D01*
G01*
X99435000Y-63940000D01*
G75*
G02*
X99485000Y-63890000I50000J0D01*
G01*
X100235000Y-63890000D01*
G75*
G02*
X100285000Y-63940000I0J-50000D01*
G01*
X100285000Y-64040000D01*
G75*
G02*
X100235000Y-64090000I-50000J0D01*
G01*
G37*
G04 #@! TD.AperFunction*
G04 #@! TA.AperFunction,SMDPad,CuDef*
G36*
G01*
X100235000Y-63690000D02*
X99485000Y-63690000D01*
G75*
G02*
X99435000Y-63640000I0J50000D01*
G01*
X99435000Y-63540000D01*
G75*
G02*
X99485000Y-63490000I50000J0D01*
G01*
X100235000Y-63490000D01*
G75*
G02*
X100285000Y-63540000I0J-50000D01*
G01*
X100285000Y-63640000D01*
G75*
G02*
X100235000Y-63690000I-50000J0D01*
G01*
G37*
G04 #@! TD.AperFunction*
G04 #@! TA.AperFunction,SMDPad,CuDef*
G36*
G01*
X100235000Y-63290000D02*
X99485000Y-63290000D01*
G75*
G02*
X99435000Y-63240000I0J50000D01*
G01*
X99435000Y-63140000D01*
G75*
G02*
X99485000Y-63090000I50000J0D01*
G01*
X100235000Y-63090000D01*
G75*
G02*
X100285000Y-63140000I0J-50000D01*
G01*
X100285000Y-63240000D01*
G75*
G02*
X100235000Y-63290000I-50000J0D01*
G01*
G37*
G04 #@! TD.AperFunction*
G04 #@! TA.AperFunction,SMDPad,CuDef*
G36*
G01*
X100235000Y-62890000D02*
X99485000Y-62890000D01*
G75*
G02*
X99435000Y-62840000I0J50000D01*
G01*
X99435000Y-62740000D01*
G75*
G02*
X99485000Y-62690000I50000J0D01*
G01*
X100235000Y-62690000D01*
G75*
G02*
X100285000Y-62740000I0J-50000D01*
G01*
X100285000Y-62840000D01*
G75*
G02*
X100235000Y-62890000I-50000J0D01*
G01*
G37*
G04 #@! TD.AperFunction*
G04 #@! TA.AperFunction,SMDPad,CuDef*
G36*
G01*
X100235000Y-62490000D02*
X99485000Y-62490000D01*
G75*
G02*
X99435000Y-62440000I0J50000D01*
G01*
X99435000Y-62340000D01*
G75*
G02*
X99485000Y-62290000I50000J0D01*
G01*
X100235000Y-62290000D01*
G75*
G02*
X100285000Y-62340000I0J-50000D01*
G01*
X100285000Y-62440000D01*
G75*
G02*
X100235000Y-62490000I-50000J0D01*
G01*
G37*
G04 #@! TD.AperFunction*
G04 #@! TA.AperFunction,SMDPad,CuDef*
G36*
G01*
X100560000Y-62165000D02*
X100460000Y-62165000D01*
G75*
G02*
X100410000Y-62115000I0J50000D01*
G01*
X100410000Y-61365000D01*
G75*
G02*
X100460000Y-61315000I50000J0D01*
G01*
X100560000Y-61315000D01*
G75*
G02*
X100610000Y-61365000I0J-50000D01*
G01*
X100610000Y-62115000D01*
G75*
G02*
X100560000Y-62165000I-50000J0D01*
G01*
G37*
G04 #@! TD.AperFunction*
G04 #@! TA.AperFunction,SMDPad,CuDef*
G36*
G01*
X100960000Y-62165000D02*
X100860000Y-62165000D01*
G75*
G02*
X100810000Y-62115000I0J50000D01*
G01*
X100810000Y-61365000D01*
G75*
G02*
X100860000Y-61315000I50000J0D01*
G01*
X100960000Y-61315000D01*
G75*
G02*
X101010000Y-61365000I0J-50000D01*
G01*
X101010000Y-62115000D01*
G75*
G02*
X100960000Y-62165000I-50000J0D01*
G01*
G37*
G04 #@! TD.AperFunction*
G04 #@! TA.AperFunction,SMDPad,CuDef*
G36*
G01*
X101360000Y-62165000D02*
X101260000Y-62165000D01*
G75*
G02*
X101210000Y-62115000I0J50000D01*
G01*
X101210000Y-61365000D01*
G75*
G02*
X101260000Y-61315000I50000J0D01*
G01*
X101360000Y-61315000D01*
G75*
G02*
X101410000Y-61365000I0J-50000D01*
G01*
X101410000Y-62115000D01*
G75*
G02*
X101360000Y-62165000I-50000J0D01*
G01*
G37*
G04 #@! TD.AperFunction*
G04 #@! TA.AperFunction,SMDPad,CuDef*
G36*
G01*
X101760000Y-62165000D02*
X101660000Y-62165000D01*
G75*
G02*
X101610000Y-62115000I0J50000D01*
G01*
X101610000Y-61365000D01*
G75*
G02*
X101660000Y-61315000I50000J0D01*
G01*
X101760000Y-61315000D01*
G75*
G02*
X101810000Y-61365000I0J-50000D01*
G01*
X101810000Y-62115000D01*
G75*
G02*
X101760000Y-62165000I-50000J0D01*
G01*
G37*
G04 #@! TD.AperFunction*
G04 #@! TA.AperFunction,SMDPad,CuDef*
G36*
G01*
X102160000Y-62165000D02*
X102060000Y-62165000D01*
G75*
G02*
X102010000Y-62115000I0J50000D01*
G01*
X102010000Y-61365000D01*
G75*
G02*
X102060000Y-61315000I50000J0D01*
G01*
X102160000Y-61315000D01*
G75*
G02*
X102210000Y-61365000I0J-50000D01*
G01*
X102210000Y-62115000D01*
G75*
G02*
X102160000Y-62165000I-50000J0D01*
G01*
G37*
G04 #@! TD.AperFunction*
G04 #@! TA.AperFunction,SMDPad,CuDef*
G36*
G01*
X103135000Y-62490000D02*
X102385000Y-62490000D01*
G75*
G02*
X102335000Y-62440000I0J50000D01*
G01*
X102335000Y-62340000D01*
G75*
G02*
X102385000Y-62290000I50000J0D01*
G01*
X103135000Y-62290000D01*
G75*
G02*
X103185000Y-62340000I0J-50000D01*
G01*
X103185000Y-62440000D01*
G75*
G02*
X103135000Y-62490000I-50000J0D01*
G01*
G37*
G04 #@! TD.AperFunction*
G04 #@! TA.AperFunction,SMDPad,CuDef*
G36*
G01*
X103135000Y-62890000D02*
X102385000Y-62890000D01*
G75*
G02*
X102335000Y-62840000I0J50000D01*
G01*
X102335000Y-62740000D01*
G75*
G02*
X102385000Y-62690000I50000J0D01*
G01*
X103135000Y-62690000D01*
G75*
G02*
X103185000Y-62740000I0J-50000D01*
G01*
X103185000Y-62840000D01*
G75*
G02*
X103135000Y-62890000I-50000J0D01*
G01*
G37*
G04 #@! TD.AperFunction*
G04 #@! TA.AperFunction,SMDPad,CuDef*
G36*
G01*
X103135000Y-63290000D02*
X102385000Y-63290000D01*
G75*
G02*
X102335000Y-63240000I0J50000D01*
G01*
X102335000Y-63140000D01*
G75*
G02*
X102385000Y-63090000I50000J0D01*
G01*
X103135000Y-63090000D01*
G75*
G02*
X103185000Y-63140000I0J-50000D01*
G01*
X103185000Y-63240000D01*
G75*
G02*
X103135000Y-63290000I-50000J0D01*
G01*
G37*
G04 #@! TD.AperFunction*
G04 #@! TA.AperFunction,SMDPad,CuDef*
G36*
G01*
X103135000Y-63690000D02*
X102385000Y-63690000D01*
G75*
G02*
X102335000Y-63640000I0J50000D01*
G01*
X102335000Y-63540000D01*
G75*
G02*
X102385000Y-63490000I50000J0D01*
G01*
X103135000Y-63490000D01*
G75*
G02*
X103185000Y-63540000I0J-50000D01*
G01*
X103185000Y-63640000D01*
G75*
G02*
X103135000Y-63690000I-50000J0D01*
G01*
G37*
G04 #@! TD.AperFunction*
G04 #@! TA.AperFunction,SMDPad,CuDef*
G36*
G01*
X103135000Y-64090000D02*
X102385000Y-64090000D01*
G75*
G02*
X102335000Y-64040000I0J50000D01*
G01*
X102335000Y-63940000D01*
G75*
G02*
X102385000Y-63890000I50000J0D01*
G01*
X103135000Y-63890000D01*
G75*
G02*
X103185000Y-63940000I0J-50000D01*
G01*
X103185000Y-64040000D01*
G75*
G02*
X103135000Y-64090000I-50000J0D01*
G01*
G37*
G04 #@! TD.AperFunction*
G04 #@! TA.AperFunction,SMDPad,CuDef*
G36*
G01*
X102160000Y-65065000D02*
X102060000Y-65065000D01*
G75*
G02*
X102010000Y-65015000I0J50000D01*
G01*
X102010000Y-64265000D01*
G75*
G02*
X102060000Y-64215000I50000J0D01*
G01*
X102160000Y-64215000D01*
G75*
G02*
X102210000Y-64265000I0J-50000D01*
G01*
X102210000Y-65015000D01*
G75*
G02*
X102160000Y-65065000I-50000J0D01*
G01*
G37*
G04 #@! TD.AperFunction*
G04 #@! TA.AperFunction,SMDPad,CuDef*
G36*
G01*
X101760000Y-65065000D02*
X101660000Y-65065000D01*
G75*
G02*
X101610000Y-65015000I0J50000D01*
G01*
X101610000Y-64265000D01*
G75*
G02*
X101660000Y-64215000I50000J0D01*
G01*
X101760000Y-64215000D01*
G75*
G02*
X101810000Y-64265000I0J-50000D01*
G01*
X101810000Y-65015000D01*
G75*
G02*
X101760000Y-65065000I-50000J0D01*
G01*
G37*
G04 #@! TD.AperFunction*
G04 #@! TA.AperFunction,SMDPad,CuDef*
G36*
G01*
X101360000Y-65065000D02*
X101260000Y-65065000D01*
G75*
G02*
X101210000Y-65015000I0J50000D01*
G01*
X101210000Y-64265000D01*
G75*
G02*
X101260000Y-64215000I50000J0D01*
G01*
X101360000Y-64215000D01*
G75*
G02*
X101410000Y-64265000I0J-50000D01*
G01*
X101410000Y-65015000D01*
G75*
G02*
X101360000Y-65065000I-50000J0D01*
G01*
G37*
G04 #@! TD.AperFunction*
G04 #@! TA.AperFunction,SMDPad,CuDef*
G36*
G01*
X100960000Y-65065000D02*
X100860000Y-65065000D01*
G75*
G02*
X100810000Y-65015000I0J50000D01*
G01*
X100810000Y-64265000D01*
G75*
G02*
X100860000Y-64215000I50000J0D01*
G01*
X100960000Y-64215000D01*
G75*
G02*
X101010000Y-64265000I0J-50000D01*
G01*
X101010000Y-65015000D01*
G75*
G02*
X100960000Y-65065000I-50000J0D01*
G01*
G37*
G04 #@! TD.AperFunction*
G04 #@! TA.AperFunction,SMDPad,CuDef*
G36*
G01*
X100560000Y-65065000D02*
X100460000Y-65065000D01*
G75*
G02*
X100410000Y-65015000I0J50000D01*
G01*
X100410000Y-64265000D01*
G75*
G02*
X100460000Y-64215000I50000J0D01*
G01*
X100560000Y-64215000D01*
G75*
G02*
X100610000Y-64265000I0J-50000D01*
G01*
X100610000Y-65015000D01*
G75*
G02*
X100560000Y-65065000I-50000J0D01*
G01*
G37*
G04 #@! TD.AperFunction*
X101885000Y-62615000D03*
X101885000Y-63765000D03*
X100735000Y-62615000D03*
X100735000Y-63765000D03*
G04 #@! TA.AperFunction,SMDPad,CuDef*
G36*
G01*
X101885001Y-64015000D02*
X100734999Y-64015000D01*
G75*
G02*
X100485000Y-63765001I0J249999D01*
G01*
X100485000Y-62614999D01*
G75*
G02*
X100734999Y-62365000I249999J0D01*
G01*
X101885001Y-62365000D01*
G75*
G02*
X102135000Y-62614999I0J-249999D01*
G01*
X102135000Y-63765001D01*
G75*
G02*
X101885001Y-64015000I-249999J0D01*
G01*
G37*
G04 #@! TD.AperFunction*
G04 #@! TA.AperFunction,SMDPad,CuDef*
G36*
G01*
X100225000Y-78000000D02*
X99475000Y-78000000D01*
G75*
G02*
X99425000Y-77950000I0J50000D01*
G01*
X99425000Y-77850000D01*
G75*
G02*
X99475000Y-77800000I50000J0D01*
G01*
X100225000Y-77800000D01*
G75*
G02*
X100275000Y-77850000I0J-50000D01*
G01*
X100275000Y-77950000D01*
G75*
G02*
X100225000Y-78000000I-50000J0D01*
G01*
G37*
G04 #@! TD.AperFunction*
G04 #@! TA.AperFunction,SMDPad,CuDef*
G36*
G01*
X100225000Y-77600000D02*
X99475000Y-77600000D01*
G75*
G02*
X99425000Y-77550000I0J50000D01*
G01*
X99425000Y-77450000D01*
G75*
G02*
X99475000Y-77400000I50000J0D01*
G01*
X100225000Y-77400000D01*
G75*
G02*
X100275000Y-77450000I0J-50000D01*
G01*
X100275000Y-77550000D01*
G75*
G02*
X100225000Y-77600000I-50000J0D01*
G01*
G37*
G04 #@! TD.AperFunction*
G04 #@! TA.AperFunction,SMDPad,CuDef*
G36*
G01*
X100225000Y-77200000D02*
X99475000Y-77200000D01*
G75*
G02*
X99425000Y-77150000I0J50000D01*
G01*
X99425000Y-77050000D01*
G75*
G02*
X99475000Y-77000000I50000J0D01*
G01*
X100225000Y-77000000D01*
G75*
G02*
X100275000Y-77050000I0J-50000D01*
G01*
X100275000Y-77150000D01*
G75*
G02*
X100225000Y-77200000I-50000J0D01*
G01*
G37*
G04 #@! TD.AperFunction*
G04 #@! TA.AperFunction,SMDPad,CuDef*
G36*
G01*
X100225000Y-76800000D02*
X99475000Y-76800000D01*
G75*
G02*
X99425000Y-76750000I0J50000D01*
G01*
X99425000Y-76650000D01*
G75*
G02*
X99475000Y-76600000I50000J0D01*
G01*
X100225000Y-76600000D01*
G75*
G02*
X100275000Y-76650000I0J-50000D01*
G01*
X100275000Y-76750000D01*
G75*
G02*
X100225000Y-76800000I-50000J0D01*
G01*
G37*
G04 #@! TD.AperFunction*
G04 #@! TA.AperFunction,SMDPad,CuDef*
G36*
G01*
X100225000Y-76400000D02*
X99475000Y-76400000D01*
G75*
G02*
X99425000Y-76350000I0J50000D01*
G01*
X99425000Y-76250000D01*
G75*
G02*
X99475000Y-76200000I50000J0D01*
G01*
X100225000Y-76200000D01*
G75*
G02*
X100275000Y-76250000I0J-50000D01*
G01*
X100275000Y-76350000D01*
G75*
G02*
X100225000Y-76400000I-50000J0D01*
G01*
G37*
G04 #@! TD.AperFunction*
G04 #@! TA.AperFunction,SMDPad,CuDef*
G36*
G01*
X100550000Y-76075000D02*
X100450000Y-76075000D01*
G75*
G02*
X100400000Y-76025000I0J50000D01*
G01*
X100400000Y-75275000D01*
G75*
G02*
X100450000Y-75225000I50000J0D01*
G01*
X100550000Y-75225000D01*
G75*
G02*
X100600000Y-75275000I0J-50000D01*
G01*
X100600000Y-76025000D01*
G75*
G02*
X100550000Y-76075000I-50000J0D01*
G01*
G37*
G04 #@! TD.AperFunction*
G04 #@! TA.AperFunction,SMDPad,CuDef*
G36*
G01*
X100950000Y-76075000D02*
X100850000Y-76075000D01*
G75*
G02*
X100800000Y-76025000I0J50000D01*
G01*
X100800000Y-75275000D01*
G75*
G02*
X100850000Y-75225000I50000J0D01*
G01*
X100950000Y-75225000D01*
G75*
G02*
X101000000Y-75275000I0J-50000D01*
G01*
X101000000Y-76025000D01*
G75*
G02*
X100950000Y-76075000I-50000J0D01*
G01*
G37*
G04 #@! TD.AperFunction*
G04 #@! TA.AperFunction,SMDPad,CuDef*
G36*
G01*
X101350000Y-76075000D02*
X101250000Y-76075000D01*
G75*
G02*
X101200000Y-76025000I0J50000D01*
G01*
X101200000Y-75275000D01*
G75*
G02*
X101250000Y-75225000I50000J0D01*
G01*
X101350000Y-75225000D01*
G75*
G02*
X101400000Y-75275000I0J-50000D01*
G01*
X101400000Y-76025000D01*
G75*
G02*
X101350000Y-76075000I-50000J0D01*
G01*
G37*
G04 #@! TD.AperFunction*
G04 #@! TA.AperFunction,SMDPad,CuDef*
G36*
G01*
X101750000Y-76075000D02*
X101650000Y-76075000D01*
G75*
G02*
X101600000Y-76025000I0J50000D01*
G01*
X101600000Y-75275000D01*
G75*
G02*
X101650000Y-75225000I50000J0D01*
G01*
X101750000Y-75225000D01*
G75*
G02*
X101800000Y-75275000I0J-50000D01*
G01*
X101800000Y-76025000D01*
G75*
G02*
X101750000Y-76075000I-50000J0D01*
G01*
G37*
G04 #@! TD.AperFunction*
G04 #@! TA.AperFunction,SMDPad,CuDef*
G36*
G01*
X102150000Y-76075000D02*
X102050000Y-76075000D01*
G75*
G02*
X102000000Y-76025000I0J50000D01*
G01*
X102000000Y-75275000D01*
G75*
G02*
X102050000Y-75225000I50000J0D01*
G01*
X102150000Y-75225000D01*
G75*
G02*
X102200000Y-75275000I0J-50000D01*
G01*
X102200000Y-76025000D01*
G75*
G02*
X102150000Y-76075000I-50000J0D01*
G01*
G37*
G04 #@! TD.AperFunction*
G04 #@! TA.AperFunction,SMDPad,CuDef*
G36*
G01*
X103125000Y-76400000D02*
X102375000Y-76400000D01*
G75*
G02*
X102325000Y-76350000I0J50000D01*
G01*
X102325000Y-76250000D01*
G75*
G02*
X102375000Y-76200000I50000J0D01*
G01*
X103125000Y-76200000D01*
G75*
G02*
X103175000Y-76250000I0J-50000D01*
G01*
X103175000Y-76350000D01*
G75*
G02*
X103125000Y-76400000I-50000J0D01*
G01*
G37*
G04 #@! TD.AperFunction*
G04 #@! TA.AperFunction,SMDPad,CuDef*
G36*
G01*
X103125000Y-76800000D02*
X102375000Y-76800000D01*
G75*
G02*
X102325000Y-76750000I0J50000D01*
G01*
X102325000Y-76650000D01*
G75*
G02*
X102375000Y-76600000I50000J0D01*
G01*
X103125000Y-76600000D01*
G75*
G02*
X103175000Y-76650000I0J-50000D01*
G01*
X103175000Y-76750000D01*
G75*
G02*
X103125000Y-76800000I-50000J0D01*
G01*
G37*
G04 #@! TD.AperFunction*
G04 #@! TA.AperFunction,SMDPad,CuDef*
G36*
G01*
X103125000Y-77200000D02*
X102375000Y-77200000D01*
G75*
G02*
X102325000Y-77150000I0J50000D01*
G01*
X102325000Y-77050000D01*
G75*
G02*
X102375000Y-77000000I50000J0D01*
G01*
X103125000Y-77000000D01*
G75*
G02*
X103175000Y-77050000I0J-50000D01*
G01*
X103175000Y-77150000D01*
G75*
G02*
X103125000Y-77200000I-50000J0D01*
G01*
G37*
G04 #@! TD.AperFunction*
G04 #@! TA.AperFunction,SMDPad,CuDef*
G36*
G01*
X103125000Y-77600000D02*
X102375000Y-77600000D01*
G75*
G02*
X102325000Y-77550000I0J50000D01*
G01*
X102325000Y-77450000D01*
G75*
G02*
X102375000Y-77400000I50000J0D01*
G01*
X103125000Y-77400000D01*
G75*
G02*
X103175000Y-77450000I0J-50000D01*
G01*
X103175000Y-77550000D01*
G75*
G02*
X103125000Y-77600000I-50000J0D01*
G01*
G37*
G04 #@! TD.AperFunction*
G04 #@! TA.AperFunction,SMDPad,CuDef*
G36*
G01*
X103125000Y-78000000D02*
X102375000Y-78000000D01*
G75*
G02*
X102325000Y-77950000I0J50000D01*
G01*
X102325000Y-77850000D01*
G75*
G02*
X102375000Y-77800000I50000J0D01*
G01*
X103125000Y-77800000D01*
G75*
G02*
X103175000Y-77850000I0J-50000D01*
G01*
X103175000Y-77950000D01*
G75*
G02*
X103125000Y-78000000I-50000J0D01*
G01*
G37*
G04 #@! TD.AperFunction*
G04 #@! TA.AperFunction,SMDPad,CuDef*
G36*
G01*
X102150000Y-78975000D02*
X102050000Y-78975000D01*
G75*
G02*
X102000000Y-78925000I0J50000D01*
G01*
X102000000Y-78175000D01*
G75*
G02*
X102050000Y-78125000I50000J0D01*
G01*
X102150000Y-78125000D01*
G75*
G02*
X102200000Y-78175000I0J-50000D01*
G01*
X102200000Y-78925000D01*
G75*
G02*
X102150000Y-78975000I-50000J0D01*
G01*
G37*
G04 #@! TD.AperFunction*
G04 #@! TA.AperFunction,SMDPad,CuDef*
G36*
G01*
X101750000Y-78975000D02*
X101650000Y-78975000D01*
G75*
G02*
X101600000Y-78925000I0J50000D01*
G01*
X101600000Y-78175000D01*
G75*
G02*
X101650000Y-78125000I50000J0D01*
G01*
X101750000Y-78125000D01*
G75*
G02*
X101800000Y-78175000I0J-50000D01*
G01*
X101800000Y-78925000D01*
G75*
G02*
X101750000Y-78975000I-50000J0D01*
G01*
G37*
G04 #@! TD.AperFunction*
G04 #@! TA.AperFunction,SMDPad,CuDef*
G36*
G01*
X101350000Y-78975000D02*
X101250000Y-78975000D01*
G75*
G02*
X101200000Y-78925000I0J50000D01*
G01*
X101200000Y-78175000D01*
G75*
G02*
X101250000Y-78125000I50000J0D01*
G01*
X101350000Y-78125000D01*
G75*
G02*
X101400000Y-78175000I0J-50000D01*
G01*
X101400000Y-78925000D01*
G75*
G02*
X101350000Y-78975000I-50000J0D01*
G01*
G37*
G04 #@! TD.AperFunction*
G04 #@! TA.AperFunction,SMDPad,CuDef*
G36*
G01*
X100950000Y-78975000D02*
X100850000Y-78975000D01*
G75*
G02*
X100800000Y-78925000I0J50000D01*
G01*
X100800000Y-78175000D01*
G75*
G02*
X100850000Y-78125000I50000J0D01*
G01*
X100950000Y-78125000D01*
G75*
G02*
X101000000Y-78175000I0J-50000D01*
G01*
X101000000Y-78925000D01*
G75*
G02*
X100950000Y-78975000I-50000J0D01*
G01*
G37*
G04 #@! TD.AperFunction*
G04 #@! TA.AperFunction,SMDPad,CuDef*
G36*
G01*
X100550000Y-78975000D02*
X100450000Y-78975000D01*
G75*
G02*
X100400000Y-78925000I0J50000D01*
G01*
X100400000Y-78175000D01*
G75*
G02*
X100450000Y-78125000I50000J0D01*
G01*
X100550000Y-78125000D01*
G75*
G02*
X100600000Y-78175000I0J-50000D01*
G01*
X100600000Y-78925000D01*
G75*
G02*
X100550000Y-78975000I-50000J0D01*
G01*
G37*
G04 #@! TD.AperFunction*
X101875000Y-76525000D03*
X101875000Y-77675000D03*
X100725000Y-76525000D03*
X100725000Y-77675000D03*
G04 #@! TA.AperFunction,SMDPad,CuDef*
G36*
G01*
X101875001Y-77925000D02*
X100724999Y-77925000D01*
G75*
G02*
X100475000Y-77675001I0J249999D01*
G01*
X100475000Y-76524999D01*
G75*
G02*
X100724999Y-76275000I249999J0D01*
G01*
X101875001Y-76275000D01*
G75*
G02*
X102125000Y-76524999I0J-249999D01*
G01*
X102125000Y-77675001D01*
G75*
G02*
X101875001Y-77925000I-249999J0D01*
G01*
G37*
G04 #@! TD.AperFunction*
G04 #@! TA.AperFunction,SMDPad,CuDef*
G36*
G01*
X64756000Y-91863500D02*
X64756000Y-92613500D01*
G75*
G02*
X64693500Y-92676000I-62500J0D01*
G01*
X64568500Y-92676000D01*
G75*
G02*
X64506000Y-92613500I0J62500D01*
G01*
X64506000Y-91863500D01*
G75*
G02*
X64568500Y-91801000I62500J0D01*
G01*
X64693500Y-91801000D01*
G75*
G02*
X64756000Y-91863500I0J-62500D01*
G01*
G37*
G04 #@! TD.AperFunction*
G04 #@! TA.AperFunction,SMDPad,CuDef*
G36*
G01*
X64256000Y-91863500D02*
X64256000Y-92613500D01*
G75*
G02*
X64193500Y-92676000I-62500J0D01*
G01*
X64068500Y-92676000D01*
G75*
G02*
X64006000Y-92613500I0J62500D01*
G01*
X64006000Y-91863500D01*
G75*
G02*
X64068500Y-91801000I62500J0D01*
G01*
X64193500Y-91801000D01*
G75*
G02*
X64256000Y-91863500I0J-62500D01*
G01*
G37*
G04 #@! TD.AperFunction*
G04 #@! TA.AperFunction,SMDPad,CuDef*
G36*
G01*
X63756000Y-91863500D02*
X63756000Y-92613500D01*
G75*
G02*
X63693500Y-92676000I-62500J0D01*
G01*
X63568500Y-92676000D01*
G75*
G02*
X63506000Y-92613500I0J62500D01*
G01*
X63506000Y-91863500D01*
G75*
G02*
X63568500Y-91801000I62500J0D01*
G01*
X63693500Y-91801000D01*
G75*
G02*
X63756000Y-91863500I0J-62500D01*
G01*
G37*
G04 #@! TD.AperFunction*
G04 #@! TA.AperFunction,SMDPad,CuDef*
G36*
G01*
X63256000Y-91863500D02*
X63256000Y-92613500D01*
G75*
G02*
X63193500Y-92676000I-62500J0D01*
G01*
X63068500Y-92676000D01*
G75*
G02*
X63006000Y-92613500I0J62500D01*
G01*
X63006000Y-91863500D01*
G75*
G02*
X63068500Y-91801000I62500J0D01*
G01*
X63193500Y-91801000D01*
G75*
G02*
X63256000Y-91863500I0J-62500D01*
G01*
G37*
G04 #@! TD.AperFunction*
G04 #@! TA.AperFunction,SMDPad,CuDef*
G36*
G01*
X62881000Y-91488500D02*
X62881000Y-91613500D01*
G75*
G02*
X62818500Y-91676000I-62500J0D01*
G01*
X62068500Y-91676000D01*
G75*
G02*
X62006000Y-91613500I0J62500D01*
G01*
X62006000Y-91488500D01*
G75*
G02*
X62068500Y-91426000I62500J0D01*
G01*
X62818500Y-91426000D01*
G75*
G02*
X62881000Y-91488500I0J-62500D01*
G01*
G37*
G04 #@! TD.AperFunction*
G04 #@! TA.AperFunction,SMDPad,CuDef*
G36*
G01*
X62881000Y-90988500D02*
X62881000Y-91113500D01*
G75*
G02*
X62818500Y-91176000I-62500J0D01*
G01*
X62068500Y-91176000D01*
G75*
G02*
X62006000Y-91113500I0J62500D01*
G01*
X62006000Y-90988500D01*
G75*
G02*
X62068500Y-90926000I62500J0D01*
G01*
X62818500Y-90926000D01*
G75*
G02*
X62881000Y-90988500I0J-62500D01*
G01*
G37*
G04 #@! TD.AperFunction*
G04 #@! TA.AperFunction,SMDPad,CuDef*
G36*
G01*
X62881000Y-90488500D02*
X62881000Y-90613500D01*
G75*
G02*
X62818500Y-90676000I-62500J0D01*
G01*
X62068500Y-90676000D01*
G75*
G02*
X62006000Y-90613500I0J62500D01*
G01*
X62006000Y-90488500D01*
G75*
G02*
X62068500Y-90426000I62500J0D01*
G01*
X62818500Y-90426000D01*
G75*
G02*
X62881000Y-90488500I0J-62500D01*
G01*
G37*
G04 #@! TD.AperFunction*
G04 #@! TA.AperFunction,SMDPad,CuDef*
G36*
G01*
X62881000Y-89988500D02*
X62881000Y-90113500D01*
G75*
G02*
X62818500Y-90176000I-62500J0D01*
G01*
X62068500Y-90176000D01*
G75*
G02*
X62006000Y-90113500I0J62500D01*
G01*
X62006000Y-89988500D01*
G75*
G02*
X62068500Y-89926000I62500J0D01*
G01*
X62818500Y-89926000D01*
G75*
G02*
X62881000Y-89988500I0J-62500D01*
G01*
G37*
G04 #@! TD.AperFunction*
G04 #@! TA.AperFunction,SMDPad,CuDef*
G36*
G01*
X63256000Y-88988500D02*
X63256000Y-89738500D01*
G75*
G02*
X63193500Y-89801000I-62500J0D01*
G01*
X63068500Y-89801000D01*
G75*
G02*
X63006000Y-89738500I0J62500D01*
G01*
X63006000Y-88988500D01*
G75*
G02*
X63068500Y-88926000I62500J0D01*
G01*
X63193500Y-88926000D01*
G75*
G02*
X63256000Y-88988500I0J-62500D01*
G01*
G37*
G04 #@! TD.AperFunction*
G04 #@! TA.AperFunction,SMDPad,CuDef*
G36*
G01*
X63756000Y-88988500D02*
X63756000Y-89738500D01*
G75*
G02*
X63693500Y-89801000I-62500J0D01*
G01*
X63568500Y-89801000D01*
G75*
G02*
X63506000Y-89738500I0J62500D01*
G01*
X63506000Y-88988500D01*
G75*
G02*
X63568500Y-88926000I62500J0D01*
G01*
X63693500Y-88926000D01*
G75*
G02*
X63756000Y-88988500I0J-62500D01*
G01*
G37*
G04 #@! TD.AperFunction*
G04 #@! TA.AperFunction,SMDPad,CuDef*
G36*
G01*
X64256000Y-88988500D02*
X64256000Y-89738500D01*
G75*
G02*
X64193500Y-89801000I-62500J0D01*
G01*
X64068500Y-89801000D01*
G75*
G02*
X64006000Y-89738500I0J62500D01*
G01*
X64006000Y-88988500D01*
G75*
G02*
X64068500Y-88926000I62500J0D01*
G01*
X64193500Y-88926000D01*
G75*
G02*
X64256000Y-88988500I0J-62500D01*
G01*
G37*
G04 #@! TD.AperFunction*
G04 #@! TA.AperFunction,SMDPad,CuDef*
G36*
G01*
X64756000Y-88988500D02*
X64756000Y-89738500D01*
G75*
G02*
X64693500Y-89801000I-62500J0D01*
G01*
X64568500Y-89801000D01*
G75*
G02*
X64506000Y-89738500I0J62500D01*
G01*
X64506000Y-88988500D01*
G75*
G02*
X64568500Y-88926000I62500J0D01*
G01*
X64693500Y-88926000D01*
G75*
G02*
X64756000Y-88988500I0J-62500D01*
G01*
G37*
G04 #@! TD.AperFunction*
G04 #@! TA.AperFunction,SMDPad,CuDef*
G36*
G01*
X65756000Y-89988500D02*
X65756000Y-90113500D01*
G75*
G02*
X65693500Y-90176000I-62500J0D01*
G01*
X64943500Y-90176000D01*
G75*
G02*
X64881000Y-90113500I0J62500D01*
G01*
X64881000Y-89988500D01*
G75*
G02*
X64943500Y-89926000I62500J0D01*
G01*
X65693500Y-89926000D01*
G75*
G02*
X65756000Y-89988500I0J-62500D01*
G01*
G37*
G04 #@! TD.AperFunction*
G04 #@! TA.AperFunction,SMDPad,CuDef*
G36*
G01*
X65756000Y-90488500D02*
X65756000Y-90613500D01*
G75*
G02*
X65693500Y-90676000I-62500J0D01*
G01*
X64943500Y-90676000D01*
G75*
G02*
X64881000Y-90613500I0J62500D01*
G01*
X64881000Y-90488500D01*
G75*
G02*
X64943500Y-90426000I62500J0D01*
G01*
X65693500Y-90426000D01*
G75*
G02*
X65756000Y-90488500I0J-62500D01*
G01*
G37*
G04 #@! TD.AperFunction*
G04 #@! TA.AperFunction,SMDPad,CuDef*
G36*
G01*
X65756000Y-90988500D02*
X65756000Y-91113500D01*
G75*
G02*
X65693500Y-91176000I-62500J0D01*
G01*
X64943500Y-91176000D01*
G75*
G02*
X64881000Y-91113500I0J62500D01*
G01*
X64881000Y-90988500D01*
G75*
G02*
X64943500Y-90926000I62500J0D01*
G01*
X65693500Y-90926000D01*
G75*
G02*
X65756000Y-90988500I0J-62500D01*
G01*
G37*
G04 #@! TD.AperFunction*
G04 #@! TA.AperFunction,SMDPad,CuDef*
G36*
G01*
X65756000Y-91488500D02*
X65756000Y-91613500D01*
G75*
G02*
X65693500Y-91676000I-62500J0D01*
G01*
X64943500Y-91676000D01*
G75*
G02*
X64881000Y-91613500I0J62500D01*
G01*
X64881000Y-91488500D01*
G75*
G02*
X64943500Y-91426000I62500J0D01*
G01*
X65693500Y-91426000D01*
G75*
G02*
X65756000Y-91488500I0J-62500D01*
G01*
G37*
G04 #@! TD.AperFunction*
X63331000Y-90251000D03*
X64431000Y-90251000D03*
X63331000Y-91351000D03*
X64431000Y-91351000D03*
G04 #@! TA.AperFunction,SMDPad,CuDef*
G36*
G01*
X64681000Y-90251000D02*
X64681000Y-91351000D01*
G75*
G02*
X64431000Y-91601000I-250000J0D01*
G01*
X63331000Y-91601000D01*
G75*
G02*
X63081000Y-91351000I0J250000D01*
G01*
X63081000Y-90251000D01*
G75*
G02*
X63331000Y-90001000I250000J0D01*
G01*
X64431000Y-90001000D01*
G75*
G02*
X64681000Y-90251000I0J-250000D01*
G01*
G37*
G04 #@! TD.AperFunction*
D15*
X87200000Y-81700000D03*
X73800000Y-94400000D03*
X68900000Y-75900000D03*
D16*
X55010500Y-94130500D03*
X55010500Y-91630500D03*
X55010500Y-89130500D03*
G04 #@! TA.AperFunction,SMDPad,CuDef*
G36*
G01*
X57543750Y-91350000D02*
X58056250Y-91350000D01*
G75*
G02*
X58275000Y-91568750I0J-218750D01*
G01*
X58275000Y-92006250D01*
G75*
G02*
X58056250Y-92225000I-218750J0D01*
G01*
X57543750Y-92225000D01*
G75*
G02*
X57325000Y-92006250I0J218750D01*
G01*
X57325000Y-91568750D01*
G75*
G02*
X57543750Y-91350000I218750J0D01*
G01*
G37*
G04 #@! TD.AperFunction*
G04 #@! TA.AperFunction,SMDPad,CuDef*
G36*
G01*
X57543750Y-89775000D02*
X58056250Y-89775000D01*
G75*
G02*
X58275000Y-89993750I0J-218750D01*
G01*
X58275000Y-90431250D01*
G75*
G02*
X58056250Y-90650000I-218750J0D01*
G01*
X57543750Y-90650000D01*
G75*
G02*
X57325000Y-90431250I0J218750D01*
G01*
X57325000Y-89993750D01*
G75*
G02*
X57543750Y-89775000I218750J0D01*
G01*
G37*
G04 #@! TD.AperFunction*
G04 #@! TA.AperFunction,SMDPad,CuDef*
G36*
G01*
X102743750Y-95150000D02*
X103256250Y-95150000D01*
G75*
G02*
X103475000Y-95368750I0J-218750D01*
G01*
X103475000Y-95806250D01*
G75*
G02*
X103256250Y-96025000I-218750J0D01*
G01*
X102743750Y-96025000D01*
G75*
G02*
X102525000Y-95806250I0J218750D01*
G01*
X102525000Y-95368750D01*
G75*
G02*
X102743750Y-95150000I218750J0D01*
G01*
G37*
G04 #@! TD.AperFunction*
G04 #@! TA.AperFunction,SMDPad,CuDef*
G36*
G01*
X102743750Y-93575000D02*
X103256250Y-93575000D01*
G75*
G02*
X103475000Y-93793750I0J-218750D01*
G01*
X103475000Y-94231250D01*
G75*
G02*
X103256250Y-94450000I-218750J0D01*
G01*
X102743750Y-94450000D01*
G75*
G02*
X102525000Y-94231250I0J218750D01*
G01*
X102525000Y-93793750D01*
G75*
G02*
X102743750Y-93575000I218750J0D01*
G01*
G37*
G04 #@! TD.AperFunction*
G04 #@! TA.AperFunction,SMDPad,CuDef*
G36*
G01*
X99556250Y-86750000D02*
X99043750Y-86750000D01*
G75*
G02*
X98825000Y-86531250I0J218750D01*
G01*
X98825000Y-86093750D01*
G75*
G02*
X99043750Y-85875000I218750J0D01*
G01*
X99556250Y-85875000D01*
G75*
G02*
X99775000Y-86093750I0J-218750D01*
G01*
X99775000Y-86531250D01*
G75*
G02*
X99556250Y-86750000I-218750J0D01*
G01*
G37*
G04 #@! TD.AperFunction*
G04 #@! TA.AperFunction,SMDPad,CuDef*
G36*
G01*
X99556250Y-88325000D02*
X99043750Y-88325000D01*
G75*
G02*
X98825000Y-88106250I0J218750D01*
G01*
X98825000Y-87668750D01*
G75*
G02*
X99043750Y-87450000I218750J0D01*
G01*
X99556250Y-87450000D01*
G75*
G02*
X99775000Y-87668750I0J-218750D01*
G01*
X99775000Y-88106250D01*
G75*
G02*
X99556250Y-88325000I-218750J0D01*
G01*
G37*
G04 #@! TD.AperFunction*
G04 #@! TA.AperFunction,SMDPad,CuDef*
G36*
G01*
X97443750Y-87450000D02*
X97956250Y-87450000D01*
G75*
G02*
X98175000Y-87668750I0J-218750D01*
G01*
X98175000Y-88106250D01*
G75*
G02*
X97956250Y-88325000I-218750J0D01*
G01*
X97443750Y-88325000D01*
G75*
G02*
X97225000Y-88106250I0J218750D01*
G01*
X97225000Y-87668750D01*
G75*
G02*
X97443750Y-87450000I218750J0D01*
G01*
G37*
G04 #@! TD.AperFunction*
G04 #@! TA.AperFunction,SMDPad,CuDef*
G36*
G01*
X97443750Y-85875000D02*
X97956250Y-85875000D01*
G75*
G02*
X98175000Y-86093750I0J-218750D01*
G01*
X98175000Y-86531250D01*
G75*
G02*
X97956250Y-86750000I-218750J0D01*
G01*
X97443750Y-86750000D01*
G75*
G02*
X97225000Y-86531250I0J218750D01*
G01*
X97225000Y-86093750D01*
G75*
G02*
X97443750Y-85875000I218750J0D01*
G01*
G37*
G04 #@! TD.AperFunction*
G04 #@! TA.AperFunction,SMDPad,CuDef*
G36*
G01*
X102443750Y-67650000D02*
X102956250Y-67650000D01*
G75*
G02*
X103175000Y-67868750I0J-218750D01*
G01*
X103175000Y-68306250D01*
G75*
G02*
X102956250Y-68525000I-218750J0D01*
G01*
X102443750Y-68525000D01*
G75*
G02*
X102225000Y-68306250I0J218750D01*
G01*
X102225000Y-67868750D01*
G75*
G02*
X102443750Y-67650000I218750J0D01*
G01*
G37*
G04 #@! TD.AperFunction*
G04 #@! TA.AperFunction,SMDPad,CuDef*
G36*
G01*
X102443750Y-66075000D02*
X102956250Y-66075000D01*
G75*
G02*
X103175000Y-66293750I0J-218750D01*
G01*
X103175000Y-66731250D01*
G75*
G02*
X102956250Y-66950000I-218750J0D01*
G01*
X102443750Y-66950000D01*
G75*
G02*
X102225000Y-66731250I0J218750D01*
G01*
X102225000Y-66293750D01*
G75*
G02*
X102443750Y-66075000I218750J0D01*
G01*
G37*
G04 #@! TD.AperFunction*
G04 #@! TA.AperFunction,SMDPad,CuDef*
G36*
G01*
X99656250Y-59150000D02*
X99143750Y-59150000D01*
G75*
G02*
X98925000Y-58931250I0J218750D01*
G01*
X98925000Y-58493750D01*
G75*
G02*
X99143750Y-58275000I218750J0D01*
G01*
X99656250Y-58275000D01*
G75*
G02*
X99875000Y-58493750I0J-218750D01*
G01*
X99875000Y-58931250D01*
G75*
G02*
X99656250Y-59150000I-218750J0D01*
G01*
G37*
G04 #@! TD.AperFunction*
G04 #@! TA.AperFunction,SMDPad,CuDef*
G36*
G01*
X99656250Y-60725000D02*
X99143750Y-60725000D01*
G75*
G02*
X98925000Y-60506250I0J218750D01*
G01*
X98925000Y-60068750D01*
G75*
G02*
X99143750Y-59850000I218750J0D01*
G01*
X99656250Y-59850000D01*
G75*
G02*
X99875000Y-60068750I0J-218750D01*
G01*
X99875000Y-60506250D01*
G75*
G02*
X99656250Y-60725000I-218750J0D01*
G01*
G37*
G04 #@! TD.AperFunction*
G04 #@! TA.AperFunction,SMDPad,CuDef*
G36*
G01*
X97543750Y-59850000D02*
X98056250Y-59850000D01*
G75*
G02*
X98275000Y-60068750I0J-218750D01*
G01*
X98275000Y-60506250D01*
G75*
G02*
X98056250Y-60725000I-218750J0D01*
G01*
X97543750Y-60725000D01*
G75*
G02*
X97325000Y-60506250I0J218750D01*
G01*
X97325000Y-60068750D01*
G75*
G02*
X97543750Y-59850000I218750J0D01*
G01*
G37*
G04 #@! TD.AperFunction*
G04 #@! TA.AperFunction,SMDPad,CuDef*
G36*
G01*
X97543750Y-58275000D02*
X98056250Y-58275000D01*
G75*
G02*
X98275000Y-58493750I0J-218750D01*
G01*
X98275000Y-58931250D01*
G75*
G02*
X98056250Y-59150000I-218750J0D01*
G01*
X97543750Y-59150000D01*
G75*
G02*
X97325000Y-58931250I0J218750D01*
G01*
X97325000Y-58493750D01*
G75*
G02*
X97543750Y-58275000I218750J0D01*
G01*
G37*
G04 #@! TD.AperFunction*
G04 #@! TA.AperFunction,SMDPad,CuDef*
G36*
G01*
X102843750Y-81250000D02*
X103356250Y-81250000D01*
G75*
G02*
X103575000Y-81468750I0J-218750D01*
G01*
X103575000Y-81906250D01*
G75*
G02*
X103356250Y-82125000I-218750J0D01*
G01*
X102843750Y-82125000D01*
G75*
G02*
X102625000Y-81906250I0J218750D01*
G01*
X102625000Y-81468750D01*
G75*
G02*
X102843750Y-81250000I218750J0D01*
G01*
G37*
G04 #@! TD.AperFunction*
G04 #@! TA.AperFunction,SMDPad,CuDef*
G36*
G01*
X102843750Y-79675000D02*
X103356250Y-79675000D01*
G75*
G02*
X103575000Y-79893750I0J-218750D01*
G01*
X103575000Y-80331250D01*
G75*
G02*
X103356250Y-80550000I-218750J0D01*
G01*
X102843750Y-80550000D01*
G75*
G02*
X102625000Y-80331250I0J218750D01*
G01*
X102625000Y-79893750D01*
G75*
G02*
X102843750Y-79675000I218750J0D01*
G01*
G37*
G04 #@! TD.AperFunction*
G04 #@! TA.AperFunction,SMDPad,CuDef*
G36*
G01*
X90974500Y-86518750D02*
X90974500Y-87031250D01*
G75*
G02*
X90755750Y-87250000I-218750J0D01*
G01*
X90318250Y-87250000D01*
G75*
G02*
X90099500Y-87031250I0J218750D01*
G01*
X90099500Y-86518750D01*
G75*
G02*
X90318250Y-86300000I218750J0D01*
G01*
X90755750Y-86300000D01*
G75*
G02*
X90974500Y-86518750I0J-218750D01*
G01*
G37*
G04 #@! TD.AperFunction*
G04 #@! TA.AperFunction,SMDPad,CuDef*
G36*
G01*
X92549500Y-86518750D02*
X92549500Y-87031250D01*
G75*
G02*
X92330750Y-87250000I-218750J0D01*
G01*
X91893250Y-87250000D01*
G75*
G02*
X91674500Y-87031250I0J218750D01*
G01*
X91674500Y-86518750D01*
G75*
G02*
X91893250Y-86300000I218750J0D01*
G01*
X92330750Y-86300000D01*
G75*
G02*
X92549500Y-86518750I0J-218750D01*
G01*
G37*
G04 #@! TD.AperFunction*
G04 #@! TA.AperFunction,SMDPad,CuDef*
G36*
G01*
X91674500Y-85380250D02*
X91674500Y-84867750D01*
G75*
G02*
X91893250Y-84649000I218750J0D01*
G01*
X92330750Y-84649000D01*
G75*
G02*
X92549500Y-84867750I0J-218750D01*
G01*
X92549500Y-85380250D01*
G75*
G02*
X92330750Y-85599000I-218750J0D01*
G01*
X91893250Y-85599000D01*
G75*
G02*
X91674500Y-85380250I0J218750D01*
G01*
G37*
G04 #@! TD.AperFunction*
G04 #@! TA.AperFunction,SMDPad,CuDef*
G36*
G01*
X90099500Y-85380250D02*
X90099500Y-84867750D01*
G75*
G02*
X90318250Y-84649000I218750J0D01*
G01*
X90755750Y-84649000D01*
G75*
G02*
X90974500Y-84867750I0J-218750D01*
G01*
X90974500Y-85380250D01*
G75*
G02*
X90755750Y-85599000I-218750J0D01*
G01*
X90318250Y-85599000D01*
G75*
G02*
X90099500Y-85380250I0J218750D01*
G01*
G37*
G04 #@! TD.AperFunction*
G04 #@! TA.AperFunction,SMDPad,CuDef*
G36*
G01*
X99256250Y-73050000D02*
X98743750Y-73050000D01*
G75*
G02*
X98525000Y-72831250I0J218750D01*
G01*
X98525000Y-72393750D01*
G75*
G02*
X98743750Y-72175000I218750J0D01*
G01*
X99256250Y-72175000D01*
G75*
G02*
X99475000Y-72393750I0J-218750D01*
G01*
X99475000Y-72831250D01*
G75*
G02*
X99256250Y-73050000I-218750J0D01*
G01*
G37*
G04 #@! TD.AperFunction*
G04 #@! TA.AperFunction,SMDPad,CuDef*
G36*
G01*
X99256250Y-74625000D02*
X98743750Y-74625000D01*
G75*
G02*
X98525000Y-74406250I0J218750D01*
G01*
X98525000Y-73968750D01*
G75*
G02*
X98743750Y-73750000I218750J0D01*
G01*
X99256250Y-73750000D01*
G75*
G02*
X99475000Y-73968750I0J-218750D01*
G01*
X99475000Y-74406250D01*
G75*
G02*
X99256250Y-74625000I-218750J0D01*
G01*
G37*
G04 #@! TD.AperFunction*
G04 #@! TA.AperFunction,SMDPad,CuDef*
G36*
G01*
X80306500Y-94900750D02*
X80306500Y-95413250D01*
G75*
G02*
X80087750Y-95632000I-218750J0D01*
G01*
X79650250Y-95632000D01*
G75*
G02*
X79431500Y-95413250I0J218750D01*
G01*
X79431500Y-94900750D01*
G75*
G02*
X79650250Y-94682000I218750J0D01*
G01*
X80087750Y-94682000D01*
G75*
G02*
X80306500Y-94900750I0J-218750D01*
G01*
G37*
G04 #@! TD.AperFunction*
G04 #@! TA.AperFunction,SMDPad,CuDef*
G36*
G01*
X81881500Y-94900750D02*
X81881500Y-95413250D01*
G75*
G02*
X81662750Y-95632000I-218750J0D01*
G01*
X81225250Y-95632000D01*
G75*
G02*
X81006500Y-95413250I0J218750D01*
G01*
X81006500Y-94900750D01*
G75*
G02*
X81225250Y-94682000I218750J0D01*
G01*
X81662750Y-94682000D01*
G75*
G02*
X81881500Y-94900750I0J-218750D01*
G01*
G37*
G04 #@! TD.AperFunction*
G04 #@! TA.AperFunction,SMDPad,CuDef*
G36*
G01*
X82940250Y-94491000D02*
X83452750Y-94491000D01*
G75*
G02*
X83671500Y-94709750I0J-218750D01*
G01*
X83671500Y-95147250D01*
G75*
G02*
X83452750Y-95366000I-218750J0D01*
G01*
X82940250Y-95366000D01*
G75*
G02*
X82721500Y-95147250I0J218750D01*
G01*
X82721500Y-94709750D01*
G75*
G02*
X82940250Y-94491000I218750J0D01*
G01*
G37*
G04 #@! TD.AperFunction*
G04 #@! TA.AperFunction,SMDPad,CuDef*
G36*
G01*
X82940250Y-92916000D02*
X83452750Y-92916000D01*
G75*
G02*
X83671500Y-93134750I0J-218750D01*
G01*
X83671500Y-93572250D01*
G75*
G02*
X83452750Y-93791000I-218750J0D01*
G01*
X82940250Y-93791000D01*
G75*
G02*
X82721500Y-93572250I0J218750D01*
G01*
X82721500Y-93134750D01*
G75*
G02*
X82940250Y-92916000I218750J0D01*
G01*
G37*
G04 #@! TD.AperFunction*
G04 #@! TA.AperFunction,SMDPad,CuDef*
G36*
G01*
X68351250Y-85883000D02*
X67838750Y-85883000D01*
G75*
G02*
X67620000Y-85664250I0J218750D01*
G01*
X67620000Y-85226750D01*
G75*
G02*
X67838750Y-85008000I218750J0D01*
G01*
X68351250Y-85008000D01*
G75*
G02*
X68570000Y-85226750I0J-218750D01*
G01*
X68570000Y-85664250D01*
G75*
G02*
X68351250Y-85883000I-218750J0D01*
G01*
G37*
G04 #@! TD.AperFunction*
G04 #@! TA.AperFunction,SMDPad,CuDef*
G36*
G01*
X68351250Y-87458000D02*
X67838750Y-87458000D01*
G75*
G02*
X67620000Y-87239250I0J218750D01*
G01*
X67620000Y-86801750D01*
G75*
G02*
X67838750Y-86583000I218750J0D01*
G01*
X68351250Y-86583000D01*
G75*
G02*
X68570000Y-86801750I0J-218750D01*
G01*
X68570000Y-87239250D01*
G75*
G02*
X68351250Y-87458000I-218750J0D01*
G01*
G37*
G04 #@! TD.AperFunction*
G04 #@! TA.AperFunction,SMDPad,CuDef*
G36*
G01*
X66700250Y-85883000D02*
X66187750Y-85883000D01*
G75*
G02*
X65969000Y-85664250I0J218750D01*
G01*
X65969000Y-85226750D01*
G75*
G02*
X66187750Y-85008000I218750J0D01*
G01*
X66700250Y-85008000D01*
G75*
G02*
X66919000Y-85226750I0J-218750D01*
G01*
X66919000Y-85664250D01*
G75*
G02*
X66700250Y-85883000I-218750J0D01*
G01*
G37*
G04 #@! TD.AperFunction*
G04 #@! TA.AperFunction,SMDPad,CuDef*
G36*
G01*
X66700250Y-87458000D02*
X66187750Y-87458000D01*
G75*
G02*
X65969000Y-87239250I0J218750D01*
G01*
X65969000Y-86801750D01*
G75*
G02*
X66187750Y-86583000I218750J0D01*
G01*
X66700250Y-86583000D01*
G75*
G02*
X66919000Y-86801750I0J-218750D01*
G01*
X66919000Y-87239250D01*
G75*
G02*
X66700250Y-87458000I-218750J0D01*
G01*
G37*
G04 #@! TD.AperFunction*
G04 #@! TA.AperFunction,SMDPad,CuDef*
G36*
G01*
X68600750Y-93568000D02*
X69113250Y-93568000D01*
G75*
G02*
X69332000Y-93786750I0J-218750D01*
G01*
X69332000Y-94224250D01*
G75*
G02*
X69113250Y-94443000I-218750J0D01*
G01*
X68600750Y-94443000D01*
G75*
G02*
X68382000Y-94224250I0J218750D01*
G01*
X68382000Y-93786750D01*
G75*
G02*
X68600750Y-93568000I218750J0D01*
G01*
G37*
G04 #@! TD.AperFunction*
G04 #@! TA.AperFunction,SMDPad,CuDef*
G36*
G01*
X68600750Y-91993000D02*
X69113250Y-91993000D01*
G75*
G02*
X69332000Y-92211750I0J-218750D01*
G01*
X69332000Y-92649250D01*
G75*
G02*
X69113250Y-92868000I-218750J0D01*
G01*
X68600750Y-92868000D01*
G75*
G02*
X68382000Y-92649250I0J218750D01*
G01*
X68382000Y-92211750D01*
G75*
G02*
X68600750Y-91993000I218750J0D01*
G01*
G37*
G04 #@! TD.AperFunction*
G04 #@! TA.AperFunction,SMDPad,CuDef*
G36*
G01*
X64473250Y-97060500D02*
X64985750Y-97060500D01*
G75*
G02*
X65204500Y-97279250I0J-218750D01*
G01*
X65204500Y-97716750D01*
G75*
G02*
X64985750Y-97935500I-218750J0D01*
G01*
X64473250Y-97935500D01*
G75*
G02*
X64254500Y-97716750I0J218750D01*
G01*
X64254500Y-97279250D01*
G75*
G02*
X64473250Y-97060500I218750J0D01*
G01*
G37*
G04 #@! TD.AperFunction*
G04 #@! TA.AperFunction,SMDPad,CuDef*
G36*
G01*
X64473250Y-95485500D02*
X64985750Y-95485500D01*
G75*
G02*
X65204500Y-95704250I0J-218750D01*
G01*
X65204500Y-96141750D01*
G75*
G02*
X64985750Y-96360500I-218750J0D01*
G01*
X64473250Y-96360500D01*
G75*
G02*
X64254500Y-96141750I0J218750D01*
G01*
X64254500Y-95704250D01*
G75*
G02*
X64473250Y-95485500I218750J0D01*
G01*
G37*
G04 #@! TD.AperFunction*
G04 #@! TA.AperFunction,SMDPad,CuDef*
G36*
G01*
X62885750Y-97060500D02*
X63398250Y-97060500D01*
G75*
G02*
X63617000Y-97279250I0J-218750D01*
G01*
X63617000Y-97716750D01*
G75*
G02*
X63398250Y-97935500I-218750J0D01*
G01*
X62885750Y-97935500D01*
G75*
G02*
X62667000Y-97716750I0J218750D01*
G01*
X62667000Y-97279250D01*
G75*
G02*
X62885750Y-97060500I218750J0D01*
G01*
G37*
G04 #@! TD.AperFunction*
G04 #@! TA.AperFunction,SMDPad,CuDef*
G36*
G01*
X62885750Y-95485500D02*
X63398250Y-95485500D01*
G75*
G02*
X63617000Y-95704250I0J-218750D01*
G01*
X63617000Y-96141750D01*
G75*
G02*
X63398250Y-96360500I-218750J0D01*
G01*
X62885750Y-96360500D01*
G75*
G02*
X62667000Y-96141750I0J218750D01*
G01*
X62667000Y-95704250D01*
G75*
G02*
X62885750Y-95485500I218750J0D01*
G01*
G37*
G04 #@! TD.AperFunction*
G04 #@! TA.AperFunction,SMDPad,CuDef*
G36*
G01*
X67081250Y-92931500D02*
X66568750Y-92931500D01*
G75*
G02*
X66350000Y-92712750I0J218750D01*
G01*
X66350000Y-92275250D01*
G75*
G02*
X66568750Y-92056500I218750J0D01*
G01*
X67081250Y-92056500D01*
G75*
G02*
X67300000Y-92275250I0J-218750D01*
G01*
X67300000Y-92712750D01*
G75*
G02*
X67081250Y-92931500I-218750J0D01*
G01*
G37*
G04 #@! TD.AperFunction*
G04 #@! TA.AperFunction,SMDPad,CuDef*
G36*
G01*
X67081250Y-94506500D02*
X66568750Y-94506500D01*
G75*
G02*
X66350000Y-94287750I0J218750D01*
G01*
X66350000Y-93850250D01*
G75*
G02*
X66568750Y-93631500I218750J0D01*
G01*
X67081250Y-93631500D01*
G75*
G02*
X67300000Y-93850250I0J-218750D01*
G01*
X67300000Y-94287750D01*
G75*
G02*
X67081250Y-94506500I-218750J0D01*
G01*
G37*
G04 #@! TD.AperFunction*
G04 #@! TA.AperFunction,SMDPad,CuDef*
G36*
G01*
X97143750Y-73750000D02*
X97656250Y-73750000D01*
G75*
G02*
X97875000Y-73968750I0J-218750D01*
G01*
X97875000Y-74406250D01*
G75*
G02*
X97656250Y-74625000I-218750J0D01*
G01*
X97143750Y-74625000D01*
G75*
G02*
X96925000Y-74406250I0J218750D01*
G01*
X96925000Y-73968750D01*
G75*
G02*
X97143750Y-73750000I218750J0D01*
G01*
G37*
G04 #@! TD.AperFunction*
G04 #@! TA.AperFunction,SMDPad,CuDef*
G36*
G01*
X97143750Y-72175000D02*
X97656250Y-72175000D01*
G75*
G02*
X97875000Y-72393750I0J-218750D01*
G01*
X97875000Y-72831250D01*
G75*
G02*
X97656250Y-73050000I-218750J0D01*
G01*
X97143750Y-73050000D01*
G75*
G02*
X96925000Y-72831250I0J218750D01*
G01*
X96925000Y-72393750D01*
G75*
G02*
X97143750Y-72175000I218750J0D01*
G01*
G37*
G04 #@! TD.AperFunction*
G04 #@! TA.AperFunction,SMDPad,CuDef*
G36*
G01*
X61175750Y-92931500D02*
X60663250Y-92931500D01*
G75*
G02*
X60444500Y-92712750I0J218750D01*
G01*
X60444500Y-92275250D01*
G75*
G02*
X60663250Y-92056500I218750J0D01*
G01*
X61175750Y-92056500D01*
G75*
G02*
X61394500Y-92275250I0J-218750D01*
G01*
X61394500Y-92712750D01*
G75*
G02*
X61175750Y-92931500I-218750J0D01*
G01*
G37*
G04 #@! TD.AperFunction*
G04 #@! TA.AperFunction,SMDPad,CuDef*
G36*
G01*
X61175750Y-94506500D02*
X60663250Y-94506500D01*
G75*
G02*
X60444500Y-94287750I0J218750D01*
G01*
X60444500Y-93850250D01*
G75*
G02*
X60663250Y-93631500I218750J0D01*
G01*
X61175750Y-93631500D01*
G75*
G02*
X61394500Y-93850250I0J-218750D01*
G01*
X61394500Y-94287750D01*
G75*
G02*
X61175750Y-94506500I-218750J0D01*
G01*
G37*
G04 #@! TD.AperFunction*
D17*
X73798500Y-85841000D03*
X73798500Y-90041000D03*
D18*
X107000000Y-87100000D03*
X107000000Y-89600000D03*
X107000000Y-92100000D03*
G04 #@! TA.AperFunction,ComponentPad*
G36*
G01*
X107725000Y-95450000D02*
X106275000Y-95450000D01*
G75*
G02*
X106025000Y-95200000I0J250000D01*
G01*
X106025000Y-94000000D01*
G75*
G02*
X106275000Y-93750000I250000J0D01*
G01*
X107725000Y-93750000D01*
G75*
G02*
X107975000Y-94000000I0J-250000D01*
G01*
X107975000Y-95200000D01*
G75*
G02*
X107725000Y-95450000I-250000J0D01*
G01*
G37*
G04 #@! TD.AperFunction*
X106900000Y-59400000D03*
X106900000Y-61900000D03*
X106900000Y-64400000D03*
G04 #@! TA.AperFunction,ComponentPad*
G36*
G01*
X107625000Y-67750000D02*
X106175000Y-67750000D01*
G75*
G02*
X105925000Y-67500000I0J250000D01*
G01*
X105925000Y-66300000D01*
G75*
G02*
X106175000Y-66050000I250000J0D01*
G01*
X107625000Y-66050000D01*
G75*
G02*
X107875000Y-66300000I0J-250000D01*
G01*
X107875000Y-67500000D01*
G75*
G02*
X107625000Y-67750000I-250000J0D01*
G01*
G37*
G04 #@! TD.AperFunction*
X106934000Y-73237000D03*
X106934000Y-75737000D03*
X106934000Y-78237000D03*
G04 #@! TA.AperFunction,ComponentPad*
G36*
G01*
X107659000Y-81587000D02*
X106209000Y-81587000D01*
G75*
G02*
X105959000Y-81337000I0J250000D01*
G01*
X105959000Y-80137000D01*
G75*
G02*
X106209000Y-79887000I250000J0D01*
G01*
X107659000Y-79887000D01*
G75*
G02*
X107909000Y-80137000I0J-250000D01*
G01*
X107909000Y-81337000D01*
G75*
G02*
X107659000Y-81587000I-250000J0D01*
G01*
G37*
G04 #@! TD.AperFunction*
G04 #@! TA.AperFunction,SMDPad,CuDef*
G36*
G01*
X63271250Y-85883000D02*
X62758750Y-85883000D01*
G75*
G02*
X62540000Y-85664250I0J218750D01*
G01*
X62540000Y-85226750D01*
G75*
G02*
X62758750Y-85008000I218750J0D01*
G01*
X63271250Y-85008000D01*
G75*
G02*
X63490000Y-85226750I0J-218750D01*
G01*
X63490000Y-85664250D01*
G75*
G02*
X63271250Y-85883000I-218750J0D01*
G01*
G37*
G04 #@! TD.AperFunction*
G04 #@! TA.AperFunction,SMDPad,CuDef*
G36*
G01*
X63271250Y-87458000D02*
X62758750Y-87458000D01*
G75*
G02*
X62540000Y-87239250I0J218750D01*
G01*
X62540000Y-86801750D01*
G75*
G02*
X62758750Y-86583000I218750J0D01*
G01*
X63271250Y-86583000D01*
G75*
G02*
X63490000Y-86801750I0J-218750D01*
G01*
X63490000Y-87239250D01*
G75*
G02*
X63271250Y-87458000I-218750J0D01*
G01*
G37*
G04 #@! TD.AperFunction*
G04 #@! TA.AperFunction,SMDPad,CuDef*
G36*
G01*
X65049250Y-85883000D02*
X64536750Y-85883000D01*
G75*
G02*
X64318000Y-85664250I0J218750D01*
G01*
X64318000Y-85226750D01*
G75*
G02*
X64536750Y-85008000I218750J0D01*
G01*
X65049250Y-85008000D01*
G75*
G02*
X65268000Y-85226750I0J-218750D01*
G01*
X65268000Y-85664250D01*
G75*
G02*
X65049250Y-85883000I-218750J0D01*
G01*
G37*
G04 #@! TD.AperFunction*
G04 #@! TA.AperFunction,SMDPad,CuDef*
G36*
G01*
X65049250Y-87458000D02*
X64536750Y-87458000D01*
G75*
G02*
X64318000Y-87239250I0J218750D01*
G01*
X64318000Y-86801750D01*
G75*
G02*
X64536750Y-86583000I218750J0D01*
G01*
X65049250Y-86583000D01*
G75*
G02*
X65268000Y-86801750I0J-218750D01*
G01*
X65268000Y-87239250D01*
G75*
G02*
X65049250Y-87458000I-218750J0D01*
G01*
G37*
G04 #@! TD.AperFunction*
G04 #@! TA.AperFunction,SMDPad,CuDef*
G36*
G01*
X101356250Y-86750000D02*
X100843750Y-86750000D01*
G75*
G02*
X100625000Y-86531250I0J218750D01*
G01*
X100625000Y-86093750D01*
G75*
G02*
X100843750Y-85875000I218750J0D01*
G01*
X101356250Y-85875000D01*
G75*
G02*
X101575000Y-86093750I0J-218750D01*
G01*
X101575000Y-86531250D01*
G75*
G02*
X101356250Y-86750000I-218750J0D01*
G01*
G37*
G04 #@! TD.AperFunction*
G04 #@! TA.AperFunction,SMDPad,CuDef*
G36*
G01*
X101356250Y-88325000D02*
X100843750Y-88325000D01*
G75*
G02*
X100625000Y-88106250I0J218750D01*
G01*
X100625000Y-87668750D01*
G75*
G02*
X100843750Y-87450000I218750J0D01*
G01*
X101356250Y-87450000D01*
G75*
G02*
X101575000Y-87668750I0J-218750D01*
G01*
X101575000Y-88106250D01*
G75*
G02*
X101356250Y-88325000I-218750J0D01*
G01*
G37*
G04 #@! TD.AperFunction*
G04 #@! TA.AperFunction,SMDPad,CuDef*
G36*
G01*
X100475000Y-95825001D02*
X100475000Y-93974999D01*
G75*
G02*
X100724999Y-93725000I249999J0D01*
G01*
X101550001Y-93725000D01*
G75*
G02*
X101800000Y-93974999I0J-249999D01*
G01*
X101800000Y-95825001D01*
G75*
G02*
X101550001Y-96075000I-249999J0D01*
G01*
X100724999Y-96075000D01*
G75*
G02*
X100475000Y-95825001I0J249999D01*
G01*
G37*
G04 #@! TD.AperFunction*
G04 #@! TA.AperFunction,SMDPad,CuDef*
G36*
G01*
X97400000Y-95825001D02*
X97400000Y-93974999D01*
G75*
G02*
X97649999Y-93725000I249999J0D01*
G01*
X98475001Y-93725000D01*
G75*
G02*
X98725000Y-93974999I0J-249999D01*
G01*
X98725000Y-95825001D01*
G75*
G02*
X98475001Y-96075000I-249999J0D01*
G01*
X97649999Y-96075000D01*
G75*
G02*
X97400000Y-95825001I0J249999D01*
G01*
G37*
G04 #@! TD.AperFunction*
G04 #@! TA.AperFunction,SMDPad,CuDef*
G36*
G01*
X98556250Y-90050000D02*
X98043750Y-90050000D01*
G75*
G02*
X97825000Y-89831250I0J218750D01*
G01*
X97825000Y-89393750D01*
G75*
G02*
X98043750Y-89175000I218750J0D01*
G01*
X98556250Y-89175000D01*
G75*
G02*
X98775000Y-89393750I0J-218750D01*
G01*
X98775000Y-89831250D01*
G75*
G02*
X98556250Y-90050000I-218750J0D01*
G01*
G37*
G04 #@! TD.AperFunction*
G04 #@! TA.AperFunction,SMDPad,CuDef*
G36*
G01*
X98556250Y-91625000D02*
X98043750Y-91625000D01*
G75*
G02*
X97825000Y-91406250I0J218750D01*
G01*
X97825000Y-90968750D01*
G75*
G02*
X98043750Y-90750000I218750J0D01*
G01*
X98556250Y-90750000D01*
G75*
G02*
X98775000Y-90968750I0J-218750D01*
G01*
X98775000Y-91406250D01*
G75*
G02*
X98556250Y-91625000I-218750J0D01*
G01*
G37*
G04 #@! TD.AperFunction*
G04 #@! TA.AperFunction,SMDPad,CuDef*
G36*
G01*
X102956250Y-86750000D02*
X102443750Y-86750000D01*
G75*
G02*
X102225000Y-86531250I0J218750D01*
G01*
X102225000Y-86093750D01*
G75*
G02*
X102443750Y-85875000I218750J0D01*
G01*
X102956250Y-85875000D01*
G75*
G02*
X103175000Y-86093750I0J-218750D01*
G01*
X103175000Y-86531250D01*
G75*
G02*
X102956250Y-86750000I-218750J0D01*
G01*
G37*
G04 #@! TD.AperFunction*
G04 #@! TA.AperFunction,SMDPad,CuDef*
G36*
G01*
X102956250Y-88325000D02*
X102443750Y-88325000D01*
G75*
G02*
X102225000Y-88106250I0J218750D01*
G01*
X102225000Y-87668750D01*
G75*
G02*
X102443750Y-87450000I218750J0D01*
G01*
X102956250Y-87450000D01*
G75*
G02*
X103175000Y-87668750I0J-218750D01*
G01*
X103175000Y-88106250D01*
G75*
G02*
X102956250Y-88325000I-218750J0D01*
G01*
G37*
G04 #@! TD.AperFunction*
G04 #@! TA.AperFunction,SMDPad,CuDef*
G36*
G01*
X101456250Y-59150000D02*
X100943750Y-59150000D01*
G75*
G02*
X100725000Y-58931250I0J218750D01*
G01*
X100725000Y-58493750D01*
G75*
G02*
X100943750Y-58275000I218750J0D01*
G01*
X101456250Y-58275000D01*
G75*
G02*
X101675000Y-58493750I0J-218750D01*
G01*
X101675000Y-58931250D01*
G75*
G02*
X101456250Y-59150000I-218750J0D01*
G01*
G37*
G04 #@! TD.AperFunction*
G04 #@! TA.AperFunction,SMDPad,CuDef*
G36*
G01*
X101456250Y-60725000D02*
X100943750Y-60725000D01*
G75*
G02*
X100725000Y-60506250I0J218750D01*
G01*
X100725000Y-60068750D01*
G75*
G02*
X100943750Y-59850000I218750J0D01*
G01*
X101456250Y-59850000D01*
G75*
G02*
X101675000Y-60068750I0J-218750D01*
G01*
X101675000Y-60506250D01*
G75*
G02*
X101456250Y-60725000I-218750J0D01*
G01*
G37*
G04 #@! TD.AperFunction*
G04 #@! TA.AperFunction,SMDPad,CuDef*
G36*
G01*
X100175000Y-68325001D02*
X100175000Y-66474999D01*
G75*
G02*
X100424999Y-66225000I249999J0D01*
G01*
X101250001Y-66225000D01*
G75*
G02*
X101500000Y-66474999I0J-249999D01*
G01*
X101500000Y-68325001D01*
G75*
G02*
X101250001Y-68575000I-249999J0D01*
G01*
X100424999Y-68575000D01*
G75*
G02*
X100175000Y-68325001I0J249999D01*
G01*
G37*
G04 #@! TD.AperFunction*
G04 #@! TA.AperFunction,SMDPad,CuDef*
G36*
G01*
X97100000Y-68325001D02*
X97100000Y-66474999D01*
G75*
G02*
X97349999Y-66225000I249999J0D01*
G01*
X98175001Y-66225000D01*
G75*
G02*
X98425000Y-66474999I0J-249999D01*
G01*
X98425000Y-68325001D01*
G75*
G02*
X98175001Y-68575000I-249999J0D01*
G01*
X97349999Y-68575000D01*
G75*
G02*
X97100000Y-68325001I0J249999D01*
G01*
G37*
G04 #@! TD.AperFunction*
G04 #@! TA.AperFunction,SMDPad,CuDef*
G36*
G01*
X98456250Y-62250000D02*
X97943750Y-62250000D01*
G75*
G02*
X97725000Y-62031250I0J218750D01*
G01*
X97725000Y-61593750D01*
G75*
G02*
X97943750Y-61375000I218750J0D01*
G01*
X98456250Y-61375000D01*
G75*
G02*
X98675000Y-61593750I0J-218750D01*
G01*
X98675000Y-62031250D01*
G75*
G02*
X98456250Y-62250000I-218750J0D01*
G01*
G37*
G04 #@! TD.AperFunction*
G04 #@! TA.AperFunction,SMDPad,CuDef*
G36*
G01*
X98456250Y-63825000D02*
X97943750Y-63825000D01*
G75*
G02*
X97725000Y-63606250I0J218750D01*
G01*
X97725000Y-63168750D01*
G75*
G02*
X97943750Y-62950000I218750J0D01*
G01*
X98456250Y-62950000D01*
G75*
G02*
X98675000Y-63168750I0J-218750D01*
G01*
X98675000Y-63606250D01*
G75*
G02*
X98456250Y-63825000I-218750J0D01*
G01*
G37*
G04 #@! TD.AperFunction*
G04 #@! TA.AperFunction,SMDPad,CuDef*
G36*
G01*
X102956250Y-73050000D02*
X102443750Y-73050000D01*
G75*
G02*
X102225000Y-72831250I0J218750D01*
G01*
X102225000Y-72393750D01*
G75*
G02*
X102443750Y-72175000I218750J0D01*
G01*
X102956250Y-72175000D01*
G75*
G02*
X103175000Y-72393750I0J-218750D01*
G01*
X103175000Y-72831250D01*
G75*
G02*
X102956250Y-73050000I-218750J0D01*
G01*
G37*
G04 #@! TD.AperFunction*
G04 #@! TA.AperFunction,SMDPad,CuDef*
G36*
G01*
X102956250Y-74625000D02*
X102443750Y-74625000D01*
G75*
G02*
X102225000Y-74406250I0J218750D01*
G01*
X102225000Y-73968750D01*
G75*
G02*
X102443750Y-73750000I218750J0D01*
G01*
X102956250Y-73750000D01*
G75*
G02*
X103175000Y-73968750I0J-218750D01*
G01*
X103175000Y-74406250D01*
G75*
G02*
X102956250Y-74625000I-218750J0D01*
G01*
G37*
G04 #@! TD.AperFunction*
G04 #@! TA.AperFunction,SMDPad,CuDef*
G36*
G01*
X86108500Y-91009000D02*
X88158500Y-91009000D01*
G75*
G02*
X88408500Y-91259000I0J-250000D01*
G01*
X88408500Y-92834000D01*
G75*
G02*
X88158500Y-93084000I-250000J0D01*
G01*
X86108500Y-93084000D01*
G75*
G02*
X85858500Y-92834000I0J250000D01*
G01*
X85858500Y-91259000D01*
G75*
G02*
X86108500Y-91009000I250000J0D01*
G01*
G37*
G04 #@! TD.AperFunction*
G04 #@! TA.AperFunction,SMDPad,CuDef*
G36*
G01*
X86108500Y-84784000D02*
X88158500Y-84784000D01*
G75*
G02*
X88408500Y-85034000I0J-250000D01*
G01*
X88408500Y-86609000D01*
G75*
G02*
X88158500Y-86859000I-250000J0D01*
G01*
X86108500Y-86859000D01*
G75*
G02*
X85858500Y-86609000I0J250000D01*
G01*
X85858500Y-85034000D01*
G75*
G02*
X86108500Y-84784000I250000J0D01*
G01*
G37*
G04 #@! TD.AperFunction*
G04 #@! TA.AperFunction,SMDPad,CuDef*
G36*
G01*
X101256250Y-73050000D02*
X100743750Y-73050000D01*
G75*
G02*
X100525000Y-72831250I0J218750D01*
G01*
X100525000Y-72393750D01*
G75*
G02*
X100743750Y-72175000I218750J0D01*
G01*
X101256250Y-72175000D01*
G75*
G02*
X101475000Y-72393750I0J-218750D01*
G01*
X101475000Y-72831250D01*
G75*
G02*
X101256250Y-73050000I-218750J0D01*
G01*
G37*
G04 #@! TD.AperFunction*
G04 #@! TA.AperFunction,SMDPad,CuDef*
G36*
G01*
X101256250Y-74625000D02*
X100743750Y-74625000D01*
G75*
G02*
X100525000Y-74406250I0J218750D01*
G01*
X100525000Y-73968750D01*
G75*
G02*
X100743750Y-73750000I218750J0D01*
G01*
X101256250Y-73750000D01*
G75*
G02*
X101475000Y-73968750I0J-218750D01*
G01*
X101475000Y-74406250D01*
G75*
G02*
X101256250Y-74625000I-218750J0D01*
G01*
G37*
G04 #@! TD.AperFunction*
G04 #@! TA.AperFunction,SMDPad,CuDef*
G36*
G01*
X100575000Y-82025001D02*
X100575000Y-80174999D01*
G75*
G02*
X100824999Y-79925000I249999J0D01*
G01*
X101650001Y-79925000D01*
G75*
G02*
X101900000Y-80174999I0J-249999D01*
G01*
X101900000Y-82025001D01*
G75*
G02*
X101650001Y-82275000I-249999J0D01*
G01*
X100824999Y-82275000D01*
G75*
G02*
X100575000Y-82025001I0J249999D01*
G01*
G37*
G04 #@! TD.AperFunction*
G04 #@! TA.AperFunction,SMDPad,CuDef*
G36*
G01*
X97500000Y-82025001D02*
X97500000Y-80174999D01*
G75*
G02*
X97749999Y-79925000I249999J0D01*
G01*
X98575001Y-79925000D01*
G75*
G02*
X98825000Y-80174999I0J-249999D01*
G01*
X98825000Y-82025001D01*
G75*
G02*
X98575001Y-82275000I-249999J0D01*
G01*
X97749999Y-82275000D01*
G75*
G02*
X97500000Y-82025001I0J249999D01*
G01*
G37*
G04 #@! TD.AperFunction*
G04 #@! TA.AperFunction,SMDPad,CuDef*
G36*
G01*
X98456250Y-76150000D02*
X97943750Y-76150000D01*
G75*
G02*
X97725000Y-75931250I0J218750D01*
G01*
X97725000Y-75493750D01*
G75*
G02*
X97943750Y-75275000I218750J0D01*
G01*
X98456250Y-75275000D01*
G75*
G02*
X98675000Y-75493750I0J-218750D01*
G01*
X98675000Y-75931250D01*
G75*
G02*
X98456250Y-76150000I-218750J0D01*
G01*
G37*
G04 #@! TD.AperFunction*
G04 #@! TA.AperFunction,SMDPad,CuDef*
G36*
G01*
X98456250Y-77725000D02*
X97943750Y-77725000D01*
G75*
G02*
X97725000Y-77506250I0J218750D01*
G01*
X97725000Y-77068750D01*
G75*
G02*
X97943750Y-76850000I218750J0D01*
G01*
X98456250Y-76850000D01*
G75*
G02*
X98675000Y-77068750I0J-218750D01*
G01*
X98675000Y-77506250D01*
G75*
G02*
X98456250Y-77725000I-218750J0D01*
G01*
G37*
G04 #@! TD.AperFunction*
G04 #@! TA.AperFunction,SMDPad,CuDef*
G36*
G01*
X61185250Y-89339000D02*
X60272750Y-89339000D01*
G75*
G02*
X60029000Y-89095250I0J243750D01*
G01*
X60029000Y-88607750D01*
G75*
G02*
X60272750Y-88364000I243750J0D01*
G01*
X61185250Y-88364000D01*
G75*
G02*
X61429000Y-88607750I0J-243750D01*
G01*
X61429000Y-89095250D01*
G75*
G02*
X61185250Y-89339000I-243750J0D01*
G01*
G37*
G04 #@! TD.AperFunction*
G04 #@! TA.AperFunction,SMDPad,CuDef*
G36*
G01*
X61185250Y-91214000D02*
X60272750Y-91214000D01*
G75*
G02*
X60029000Y-90970250I0J243750D01*
G01*
X60029000Y-90482750D01*
G75*
G02*
X60272750Y-90239000I243750J0D01*
G01*
X61185250Y-90239000D01*
G75*
G02*
X61429000Y-90482750I0J-243750D01*
G01*
X61429000Y-90970250D01*
G75*
G02*
X61185250Y-91214000I-243750J0D01*
G01*
G37*
G04 #@! TD.AperFunction*
G04 #@! TA.AperFunction,SMDPad,CuDef*
G36*
G01*
X67471750Y-89275500D02*
X66559250Y-89275500D01*
G75*
G02*
X66315500Y-89031750I0J243750D01*
G01*
X66315500Y-88544250D01*
G75*
G02*
X66559250Y-88300500I243750J0D01*
G01*
X67471750Y-88300500D01*
G75*
G02*
X67715500Y-88544250I0J-243750D01*
G01*
X67715500Y-89031750D01*
G75*
G02*
X67471750Y-89275500I-243750J0D01*
G01*
G37*
G04 #@! TD.AperFunction*
G04 #@! TA.AperFunction,SMDPad,CuDef*
G36*
G01*
X67471750Y-91150500D02*
X66559250Y-91150500D01*
G75*
G02*
X66315500Y-90906750I0J243750D01*
G01*
X66315500Y-90419250D01*
G75*
G02*
X66559250Y-90175500I243750J0D01*
G01*
X67471750Y-90175500D01*
G75*
G02*
X67715500Y-90419250I0J-243750D01*
G01*
X67715500Y-90906750D01*
G75*
G02*
X67471750Y-91150500I-243750J0D01*
G01*
G37*
G04 #@! TD.AperFunction*
G04 #@! TA.AperFunction,SMDPad,CuDef*
G36*
G01*
X64100000Y-94436250D02*
X64100000Y-93523750D01*
G75*
G02*
X64343750Y-93280000I243750J0D01*
G01*
X64831250Y-93280000D01*
G75*
G02*
X65075000Y-93523750I0J-243750D01*
G01*
X65075000Y-94436250D01*
G75*
G02*
X64831250Y-94680000I-243750J0D01*
G01*
X64343750Y-94680000D01*
G75*
G02*
X64100000Y-94436250I0J243750D01*
G01*
G37*
G04 #@! TD.AperFunction*
G04 #@! TA.AperFunction,SMDPad,CuDef*
G36*
G01*
X62225000Y-94436250D02*
X62225000Y-93523750D01*
G75*
G02*
X62468750Y-93280000I243750J0D01*
G01*
X62956250Y-93280000D01*
G75*
G02*
X63200000Y-93523750I0J-243750D01*
G01*
X63200000Y-94436250D01*
G75*
G02*
X62956250Y-94680000I-243750J0D01*
G01*
X62468750Y-94680000D01*
G75*
G02*
X62225000Y-94436250I0J243750D01*
G01*
G37*
G04 #@! TD.AperFunction*
G04 #@! TA.AperFunction,SMDPad,CuDef*
G36*
G01*
X103056250Y-59150000D02*
X102543750Y-59150000D01*
G75*
G02*
X102325000Y-58931250I0J218750D01*
G01*
X102325000Y-58493750D01*
G75*
G02*
X102543750Y-58275000I218750J0D01*
G01*
X103056250Y-58275000D01*
G75*
G02*
X103275000Y-58493750I0J-218750D01*
G01*
X103275000Y-58931250D01*
G75*
G02*
X103056250Y-59150000I-218750J0D01*
G01*
G37*
G04 #@! TD.AperFunction*
G04 #@! TA.AperFunction,SMDPad,CuDef*
G36*
G01*
X103056250Y-60725000D02*
X102543750Y-60725000D01*
G75*
G02*
X102325000Y-60506250I0J218750D01*
G01*
X102325000Y-60068750D01*
G75*
G02*
X102543750Y-59850000I218750J0D01*
G01*
X103056250Y-59850000D01*
G75*
G02*
X103275000Y-60068750I0J-218750D01*
G01*
X103275000Y-60506250D01*
G75*
G02*
X103056250Y-60725000I-218750J0D01*
G01*
G37*
G04 #@! TD.AperFunction*
G04 #@! TA.AperFunction,SMDPad,CuDef*
G36*
G01*
X55750000Y-79600000D02*
X58650000Y-79600000D01*
G75*
G02*
X58900000Y-79850000I0J-250000D01*
G01*
X58900000Y-80850000D01*
G75*
G02*
X58650000Y-81100000I-250000J0D01*
G01*
X55750000Y-81100000D01*
G75*
G02*
X55500000Y-80850000I0J250000D01*
G01*
X55500000Y-79850000D01*
G75*
G02*
X55750000Y-79600000I250000J0D01*
G01*
G37*
G04 #@! TD.AperFunction*
G04 #@! TA.AperFunction,SMDPad,CuDef*
G36*
G01*
X55750000Y-72900000D02*
X58650000Y-72900000D01*
G75*
G02*
X58900000Y-73150000I0J-250000D01*
G01*
X58900000Y-74150000D01*
G75*
G02*
X58650000Y-74400000I-250000J0D01*
G01*
X55750000Y-74400000D01*
G75*
G02*
X55500000Y-74150000I0J250000D01*
G01*
X55500000Y-73150000D01*
G75*
G02*
X55750000Y-72900000I250000J0D01*
G01*
G37*
G04 #@! TD.AperFunction*
G04 #@! TA.AperFunction,SMDPad,CuDef*
G36*
G01*
X61450000Y-77500000D02*
X64450000Y-77500000D01*
G75*
G02*
X64700000Y-77750000I0J-250000D01*
G01*
X64700000Y-78250000D01*
G75*
G02*
X64450000Y-78500000I-250000J0D01*
G01*
X61450000Y-78500000D01*
G75*
G02*
X61200000Y-78250000I0J250000D01*
G01*
X61200000Y-77750000D01*
G75*
G02*
X61450000Y-77500000I250000J0D01*
G01*
G37*
G04 #@! TD.AperFunction*
G04 #@! TA.AperFunction,SMDPad,CuDef*
G36*
G01*
X61450000Y-75500000D02*
X64450000Y-75500000D01*
G75*
G02*
X64700000Y-75750000I0J-250000D01*
G01*
X64700000Y-76250000D01*
G75*
G02*
X64450000Y-76500000I-250000J0D01*
G01*
X61450000Y-76500000D01*
G75*
G02*
X61200000Y-76250000I0J250000D01*
G01*
X61200000Y-75750000D01*
G75*
G02*
X61450000Y-75500000I250000J0D01*
G01*
G37*
G04 #@! TD.AperFunction*
G04 #@! TA.AperFunction,SMDPad,CuDef*
G36*
G01*
X80395500Y-87550500D02*
X80395500Y-86900500D01*
G75*
G02*
X80483000Y-86813000I87500J0D01*
G01*
X80658000Y-86813000D01*
G75*
G02*
X80745500Y-86900500I0J-87500D01*
G01*
X80745500Y-87550500D01*
G75*
G02*
X80658000Y-87638000I-87500J0D01*
G01*
X80483000Y-87638000D01*
G75*
G02*
X80395500Y-87550500I0J87500D01*
G01*
G37*
G04 #@! TD.AperFunction*
G04 #@! TA.AperFunction,SMDPad,CuDef*
G36*
G01*
X81045500Y-87550500D02*
X81045500Y-86900500D01*
G75*
G02*
X81133000Y-86813000I87500J0D01*
G01*
X81308000Y-86813000D01*
G75*
G02*
X81395500Y-86900500I0J-87500D01*
G01*
X81395500Y-87550500D01*
G75*
G02*
X81308000Y-87638000I-87500J0D01*
G01*
X81133000Y-87638000D01*
G75*
G02*
X81045500Y-87550500I0J87500D01*
G01*
G37*
G04 #@! TD.AperFunction*
G04 #@! TA.AperFunction,SMDPad,CuDef*
G36*
G01*
X81695500Y-87550500D02*
X81695500Y-86900500D01*
G75*
G02*
X81783000Y-86813000I87500J0D01*
G01*
X81958000Y-86813000D01*
G75*
G02*
X82045500Y-86900500I0J-87500D01*
G01*
X82045500Y-87550500D01*
G75*
G02*
X81958000Y-87638000I-87500J0D01*
G01*
X81783000Y-87638000D01*
G75*
G02*
X81695500Y-87550500I0J87500D01*
G01*
G37*
G04 #@! TD.AperFunction*
G04 #@! TA.AperFunction,SMDPad,CuDef*
G36*
G01*
X82345500Y-87550500D02*
X82345500Y-86900500D01*
G75*
G02*
X82433000Y-86813000I87500J0D01*
G01*
X82608000Y-86813000D01*
G75*
G02*
X82695500Y-86900500I0J-87500D01*
G01*
X82695500Y-87550500D01*
G75*
G02*
X82608000Y-87638000I-87500J0D01*
G01*
X82433000Y-87638000D01*
G75*
G02*
X82345500Y-87550500I0J87500D01*
G01*
G37*
G04 #@! TD.AperFunction*
G04 #@! TA.AperFunction,SMDPad,CuDef*
G36*
G01*
X83095500Y-88300500D02*
X83095500Y-88125500D01*
G75*
G02*
X83183000Y-88038000I87500J0D01*
G01*
X83833000Y-88038000D01*
G75*
G02*
X83920500Y-88125500I0J-87500D01*
G01*
X83920500Y-88300500D01*
G75*
G02*
X83833000Y-88388000I-87500J0D01*
G01*
X83183000Y-88388000D01*
G75*
G02*
X83095500Y-88300500I0J87500D01*
G01*
G37*
G04 #@! TD.AperFunction*
G04 #@! TA.AperFunction,SMDPad,CuDef*
G36*
G01*
X83095500Y-88950500D02*
X83095500Y-88775500D01*
G75*
G02*
X83183000Y-88688000I87500J0D01*
G01*
X83833000Y-88688000D01*
G75*
G02*
X83920500Y-88775500I0J-87500D01*
G01*
X83920500Y-88950500D01*
G75*
G02*
X83833000Y-89038000I-87500J0D01*
G01*
X83183000Y-89038000D01*
G75*
G02*
X83095500Y-88950500I0J87500D01*
G01*
G37*
G04 #@! TD.AperFunction*
G04 #@! TA.AperFunction,SMDPad,CuDef*
G36*
G01*
X83095500Y-89600500D02*
X83095500Y-89425500D01*
G75*
G02*
X83183000Y-89338000I87500J0D01*
G01*
X83833000Y-89338000D01*
G75*
G02*
X83920500Y-89425500I0J-87500D01*
G01*
X83920500Y-89600500D01*
G75*
G02*
X83833000Y-89688000I-87500J0D01*
G01*
X83183000Y-89688000D01*
G75*
G02*
X83095500Y-89600500I0J87500D01*
G01*
G37*
G04 #@! TD.AperFunction*
G04 #@! TA.AperFunction,SMDPad,CuDef*
G36*
G01*
X83095500Y-90250500D02*
X83095500Y-90075500D01*
G75*
G02*
X83183000Y-89988000I87500J0D01*
G01*
X83833000Y-89988000D01*
G75*
G02*
X83920500Y-90075500I0J-87500D01*
G01*
X83920500Y-90250500D01*
G75*
G02*
X83833000Y-90338000I-87500J0D01*
G01*
X83183000Y-90338000D01*
G75*
G02*
X83095500Y-90250500I0J87500D01*
G01*
G37*
G04 #@! TD.AperFunction*
G04 #@! TA.AperFunction,SMDPad,CuDef*
G36*
G01*
X82345500Y-91475500D02*
X82345500Y-90825500D01*
G75*
G02*
X82433000Y-90738000I87500J0D01*
G01*
X82608000Y-90738000D01*
G75*
G02*
X82695500Y-90825500I0J-87500D01*
G01*
X82695500Y-91475500D01*
G75*
G02*
X82608000Y-91563000I-87500J0D01*
G01*
X82433000Y-91563000D01*
G75*
G02*
X82345500Y-91475500I0J87500D01*
G01*
G37*
G04 #@! TD.AperFunction*
G04 #@! TA.AperFunction,SMDPad,CuDef*
G36*
G01*
X81695500Y-91475500D02*
X81695500Y-90825500D01*
G75*
G02*
X81783000Y-90738000I87500J0D01*
G01*
X81958000Y-90738000D01*
G75*
G02*
X82045500Y-90825500I0J-87500D01*
G01*
X82045500Y-91475500D01*
G75*
G02*
X81958000Y-91563000I-87500J0D01*
G01*
X81783000Y-91563000D01*
G75*
G02*
X81695500Y-91475500I0J87500D01*
G01*
G37*
G04 #@! TD.AperFunction*
G04 #@! TA.AperFunction,SMDPad,CuDef*
G36*
G01*
X81045500Y-91475500D02*
X81045500Y-90825500D01*
G75*
G02*
X81133000Y-90738000I87500J0D01*
G01*
X81308000Y-90738000D01*
G75*
G02*
X81395500Y-90825500I0J-87500D01*
G01*
X81395500Y-91475500D01*
G75*
G02*
X81308000Y-91563000I-87500J0D01*
G01*
X81133000Y-91563000D01*
G75*
G02*
X81045500Y-91475500I0J87500D01*
G01*
G37*
G04 #@! TD.AperFunction*
G04 #@! TA.AperFunction,SMDPad,CuDef*
G36*
G01*
X80395500Y-91475500D02*
X80395500Y-90825500D01*
G75*
G02*
X80483000Y-90738000I87500J0D01*
G01*
X80658000Y-90738000D01*
G75*
G02*
X80745500Y-90825500I0J-87500D01*
G01*
X80745500Y-91475500D01*
G75*
G02*
X80658000Y-91563000I-87500J0D01*
G01*
X80483000Y-91563000D01*
G75*
G02*
X80395500Y-91475500I0J87500D01*
G01*
G37*
G04 #@! TD.AperFunction*
G04 #@! TA.AperFunction,SMDPad,CuDef*
G36*
G01*
X79170500Y-90250500D02*
X79170500Y-90075500D01*
G75*
G02*
X79258000Y-89988000I87500J0D01*
G01*
X79908000Y-89988000D01*
G75*
G02*
X79995500Y-90075500I0J-87500D01*
G01*
X79995500Y-90250500D01*
G75*
G02*
X79908000Y-90338000I-87500J0D01*
G01*
X79258000Y-90338000D01*
G75*
G02*
X79170500Y-90250500I0J87500D01*
G01*
G37*
G04 #@! TD.AperFunction*
G04 #@! TA.AperFunction,SMDPad,CuDef*
G36*
G01*
X79170500Y-89600500D02*
X79170500Y-89425500D01*
G75*
G02*
X79258000Y-89338000I87500J0D01*
G01*
X79908000Y-89338000D01*
G75*
G02*
X79995500Y-89425500I0J-87500D01*
G01*
X79995500Y-89600500D01*
G75*
G02*
X79908000Y-89688000I-87500J0D01*
G01*
X79258000Y-89688000D01*
G75*
G02*
X79170500Y-89600500I0J87500D01*
G01*
G37*
G04 #@! TD.AperFunction*
G04 #@! TA.AperFunction,SMDPad,CuDef*
G36*
G01*
X79170500Y-88950500D02*
X79170500Y-88775500D01*
G75*
G02*
X79258000Y-88688000I87500J0D01*
G01*
X79908000Y-88688000D01*
G75*
G02*
X79995500Y-88775500I0J-87500D01*
G01*
X79995500Y-88950500D01*
G75*
G02*
X79908000Y-89038000I-87500J0D01*
G01*
X79258000Y-89038000D01*
G75*
G02*
X79170500Y-88950500I0J87500D01*
G01*
G37*
G04 #@! TD.AperFunction*
G04 #@! TA.AperFunction,SMDPad,CuDef*
G36*
G01*
X79170500Y-88300500D02*
X79170500Y-88125500D01*
G75*
G02*
X79258000Y-88038000I87500J0D01*
G01*
X79908000Y-88038000D01*
G75*
G02*
X79995500Y-88125500I0J-87500D01*
G01*
X79995500Y-88300500D01*
G75*
G02*
X79908000Y-88388000I-87500J0D01*
G01*
X79258000Y-88388000D01*
G75*
G02*
X79170500Y-88300500I0J87500D01*
G01*
G37*
G04 #@! TD.AperFunction*
D14*
X82645500Y-90288000D03*
X81545500Y-90288000D03*
X80445500Y-90288000D03*
X82645500Y-89188000D03*
X81545500Y-89188000D03*
X80445500Y-89188000D03*
X82645500Y-88088000D03*
X81545500Y-88088000D03*
X80445500Y-88088000D03*
G04 #@! TA.AperFunction,SMDPad,CuDef*
G36*
G01*
X80195500Y-90286900D02*
X80195500Y-88089100D01*
G75*
G02*
X80446600Y-87838000I251100J0D01*
G01*
X82644400Y-87838000D01*
G75*
G02*
X82895500Y-88089100I0J-251100D01*
G01*
X82895500Y-90286900D01*
G75*
G02*
X82644400Y-90538000I-251100J0D01*
G01*
X80446600Y-90538000D01*
G75*
G02*
X80195500Y-90286900I0J251100D01*
G01*
G37*
G04 #@! TD.AperFunction*
G04 #@! TA.AperFunction,SMDPad,CuDef*
G36*
G01*
X54675000Y-61500000D02*
X55925000Y-61500000D01*
G75*
G02*
X56075000Y-61650000I0J-150000D01*
G01*
X56075000Y-61950000D01*
G75*
G02*
X55925000Y-62100000I-150000J0D01*
G01*
X54675000Y-62100000D01*
G75*
G02*
X54525000Y-61950000I0J150000D01*
G01*
X54525000Y-61650000D01*
G75*
G02*
X54675000Y-61500000I150000J0D01*
G01*
G37*
G04 #@! TD.AperFunction*
G04 #@! TA.AperFunction,SMDPad,CuDef*
G36*
G01*
X54675000Y-62500000D02*
X55925000Y-62500000D01*
G75*
G02*
X56075000Y-62650000I0J-150000D01*
G01*
X56075000Y-62950000D01*
G75*
G02*
X55925000Y-63100000I-150000J0D01*
G01*
X54675000Y-63100000D01*
G75*
G02*
X54525000Y-62950000I0J150000D01*
G01*
X54525000Y-62650000D01*
G75*
G02*
X54675000Y-62500000I150000J0D01*
G01*
G37*
G04 #@! TD.AperFunction*
G04 #@! TA.AperFunction,SMDPad,CuDef*
G36*
G01*
X54675000Y-63500000D02*
X55925000Y-63500000D01*
G75*
G02*
X56075000Y-63650000I0J-150000D01*
G01*
X56075000Y-63950000D01*
G75*
G02*
X55925000Y-64100000I-150000J0D01*
G01*
X54675000Y-64100000D01*
G75*
G02*
X54525000Y-63950000I0J150000D01*
G01*
X54525000Y-63650000D01*
G75*
G02*
X54675000Y-63500000I150000J0D01*
G01*
G37*
G04 #@! TD.AperFunction*
G04 #@! TA.AperFunction,SMDPad,CuDef*
G36*
G01*
X54675000Y-64500000D02*
X55925000Y-64500000D01*
G75*
G02*
X56075000Y-64650000I0J-150000D01*
G01*
X56075000Y-64950000D01*
G75*
G02*
X55925000Y-65100000I-150000J0D01*
G01*
X54675000Y-65100000D01*
G75*
G02*
X54525000Y-64950000I0J150000D01*
G01*
X54525000Y-64650000D01*
G75*
G02*
X54675000Y-64500000I150000J0D01*
G01*
G37*
G04 #@! TD.AperFunction*
G04 #@! TA.AperFunction,SMDPad,CuDef*
G36*
G01*
X50774999Y-59900000D02*
X52075001Y-59900000D01*
G75*
G02*
X52325000Y-60149999I0J-249999D01*
G01*
X52325000Y-60850001D01*
G75*
G02*
X52075001Y-61100000I-249999J0D01*
G01*
X50774999Y-61100000D01*
G75*
G02*
X50525000Y-60850001I0J249999D01*
G01*
X50525000Y-60149999D01*
G75*
G02*
X50774999Y-59900000I249999J0D01*
G01*
G37*
G04 #@! TD.AperFunction*
G04 #@! TA.AperFunction,SMDPad,CuDef*
G36*
G01*
X50774999Y-65500000D02*
X52075001Y-65500000D01*
G75*
G02*
X52325000Y-65749999I0J-249999D01*
G01*
X52325000Y-66450001D01*
G75*
G02*
X52075001Y-66700000I-249999J0D01*
G01*
X50774999Y-66700000D01*
G75*
G02*
X50525000Y-66450001I0J249999D01*
G01*
X50525000Y-65749999D01*
G75*
G02*
X50774999Y-65500000I249999J0D01*
G01*
G37*
G04 #@! TD.AperFunction*
G04 #@! TA.AperFunction,SMDPad,CuDef*
G36*
G01*
X81620750Y-86295000D02*
X80708250Y-86295000D01*
G75*
G02*
X80464500Y-86051250I0J243750D01*
G01*
X80464500Y-85563750D01*
G75*
G02*
X80708250Y-85320000I243750J0D01*
G01*
X81620750Y-85320000D01*
G75*
G02*
X81864500Y-85563750I0J-243750D01*
G01*
X81864500Y-86051250D01*
G75*
G02*
X81620750Y-86295000I-243750J0D01*
G01*
G37*
G04 #@! TD.AperFunction*
G04 #@! TA.AperFunction,SMDPad,CuDef*
G36*
G01*
X81620750Y-84420000D02*
X80708250Y-84420000D01*
G75*
G02*
X80464500Y-84176250I0J243750D01*
G01*
X80464500Y-83688750D01*
G75*
G02*
X80708250Y-83445000I243750J0D01*
G01*
X81620750Y-83445000D01*
G75*
G02*
X81864500Y-83688750I0J-243750D01*
G01*
X81864500Y-84176250D01*
G75*
G02*
X81620750Y-84420000I-243750J0D01*
G01*
G37*
G04 #@! TD.AperFunction*
G04 #@! TA.AperFunction,SMDPad,CuDef*
G36*
G01*
X82081500Y-92414750D02*
X82081500Y-93327250D01*
G75*
G02*
X81837750Y-93571000I-243750J0D01*
G01*
X81350250Y-93571000D01*
G75*
G02*
X81106500Y-93327250I0J243750D01*
G01*
X81106500Y-92414750D01*
G75*
G02*
X81350250Y-92171000I243750J0D01*
G01*
X81837750Y-92171000D01*
G75*
G02*
X82081500Y-92414750I0J-243750D01*
G01*
G37*
G04 #@! TD.AperFunction*
G04 #@! TA.AperFunction,SMDPad,CuDef*
G36*
G01*
X80206500Y-92414750D02*
X80206500Y-93327250D01*
G75*
G02*
X79962750Y-93571000I-243750J0D01*
G01*
X79475250Y-93571000D01*
G75*
G02*
X79231500Y-93327250I0J243750D01*
G01*
X79231500Y-92414750D01*
G75*
G02*
X79475250Y-92171000I243750J0D01*
G01*
X79962750Y-92171000D01*
G75*
G02*
X80206500Y-92414750I0J-243750D01*
G01*
G37*
G04 #@! TD.AperFunction*
D19*
X106660000Y-51260000D03*
X106660000Y-53800000D03*
X104120000Y-51260000D03*
X104120000Y-53800000D03*
X101580000Y-51260000D03*
X101580000Y-53800000D03*
X99040000Y-51260000D03*
X99040000Y-53800000D03*
X96500000Y-51260000D03*
X96500000Y-53800000D03*
X93960000Y-51260000D03*
X93960000Y-53800000D03*
X91420000Y-51260000D03*
X91420000Y-53800000D03*
X88880000Y-51260000D03*
X88880000Y-53800000D03*
X86340000Y-51260000D03*
X86340000Y-53800000D03*
X83800000Y-51260000D03*
X83800000Y-53800000D03*
X81260000Y-51260000D03*
X81260000Y-53800000D03*
X78720000Y-51260000D03*
X78720000Y-53800000D03*
X76180000Y-51260000D03*
X76180000Y-53800000D03*
X73640000Y-51260000D03*
X73640000Y-53800000D03*
X71100000Y-51260000D03*
X71100000Y-53800000D03*
X68560000Y-51260000D03*
X68560000Y-53800000D03*
X66020000Y-51260000D03*
X66020000Y-53800000D03*
X63480000Y-51260000D03*
X63480000Y-53800000D03*
X60940000Y-51260000D03*
X60940000Y-53800000D03*
X58400000Y-51260000D03*
D20*
X58400000Y-53800000D03*
D21*
X65999500Y-95885000D03*
X64031000Y-102298500D03*
D22*
X63142000Y-88265000D03*
X60919500Y-95250000D03*
X60983000Y-87693500D03*
X55800000Y-60800000D03*
X103700000Y-67500000D03*
X99400000Y-57600000D03*
X102778718Y-64572738D03*
X102900000Y-78900000D03*
X97100000Y-76500000D03*
X103700000Y-72600000D03*
X99400000Y-71700000D03*
X103100000Y-82700000D03*
X99680250Y-94794493D03*
X103700000Y-86300000D03*
X100200000Y-85400000D03*
X97000000Y-90000000D03*
X103872695Y-58827305D03*
X97100000Y-61800000D03*
D21*
X57500000Y-88400000D03*
X79900000Y-100500000D03*
X66000000Y-78000000D03*
X68500000Y-89000000D03*
X79700000Y-83950000D03*
D22*
X89250000Y-92000000D03*
X87150000Y-93850000D03*
X87150000Y-90200000D03*
X89300000Y-86900000D03*
X79600000Y-91200000D03*
X80650000Y-94050000D03*
X105200000Y-84800000D03*
X105200000Y-82800000D03*
X105100000Y-59100000D03*
X90800000Y-56600000D03*
D21*
X69350000Y-90750000D03*
X69700000Y-86170490D03*
X85326210Y-89550000D03*
D22*
X96500000Y-67400000D03*
X96797854Y-81002146D03*
X96900000Y-94700000D03*
X85300000Y-84200000D03*
X90500000Y-83800000D03*
X88900000Y-84200000D03*
X80005689Y-85420480D03*
X83963448Y-86399990D03*
X84212500Y-91601000D03*
X84212493Y-94648993D03*
X89927500Y-88426000D03*
X87006500Y-88426000D03*
X59150000Y-92650000D03*
X84550000Y-88350000D03*
D21*
X59200000Y-90900000D03*
X65500000Y-89200000D03*
D22*
X112800000Y-61100000D03*
X104042051Y-59689974D03*
X100988666Y-65689796D03*
X101758590Y-65907134D03*
X96600000Y-60700000D03*
X104000000Y-61200000D03*
X96900000Y-75200000D03*
X103800000Y-76300000D03*
X97000000Y-89000000D03*
X103700000Y-90000000D03*
X95300000Y-67800000D03*
X95800000Y-82400000D03*
X95800000Y-72600000D03*
X95179478Y-55323790D03*
X100003279Y-73405979D03*
X99300000Y-75423790D03*
X99800000Y-78600000D03*
X98488421Y-79335291D03*
X97100000Y-62600000D03*
X103400000Y-69000000D03*
X98599987Y-64700000D03*
X100200000Y-87100000D03*
X99200000Y-89000000D03*
X100000000Y-93100000D03*
X98805142Y-92633531D03*
X104200000Y-80100000D03*
X99010472Y-78729089D03*
X99400000Y-64700000D03*
X104286694Y-65861850D03*
X104100000Y-94000000D03*
X99625974Y-92292806D03*
D23*
X80570500Y-91150500D02*
X81220500Y-91150500D01*
X81220500Y-91150500D02*
X81870500Y-91150500D01*
X82520500Y-88213000D02*
X81545500Y-89188000D01*
X82520500Y-87225500D02*
X82520500Y-88213000D01*
X80570500Y-90163000D02*
X81545500Y-89188000D01*
X80570500Y-91150500D02*
X80570500Y-90163000D01*
X81220500Y-89513000D02*
X81545500Y-89188000D01*
X81220500Y-91150500D02*
X81220500Y-89513000D01*
X81870500Y-89513000D02*
X81545500Y-89188000D01*
X81870500Y-91150500D02*
X81870500Y-89513000D01*
D24*
X64729500Y-95923000D02*
X64254500Y-95923000D01*
X64254500Y-95923000D02*
X63929500Y-95923000D01*
X63929500Y-95923000D02*
X63142000Y-95923000D01*
D25*
X63631000Y-91051000D02*
X63881000Y-90801000D01*
X63631000Y-92238500D02*
X63631000Y-91051000D01*
X64806010Y-90125990D02*
X64556010Y-90125990D01*
X64556010Y-90125990D02*
X63881000Y-90801000D01*
X64881000Y-90051000D02*
X64806010Y-90125990D01*
X65318500Y-90051000D02*
X64881000Y-90051000D01*
X64131000Y-90551000D02*
X63881000Y-90801000D01*
X64131000Y-89363500D02*
X64131000Y-90551000D01*
X63181010Y-90101010D02*
X63881000Y-90801000D01*
X63181010Y-89851010D02*
X63181010Y-90101010D01*
X63131000Y-89801000D02*
X63181010Y-89851010D01*
X63131000Y-89363500D02*
X63131000Y-89801000D01*
X65961500Y-95923000D02*
X65999500Y-95885000D01*
X64729500Y-95923000D02*
X65961500Y-95923000D01*
X63631000Y-93023500D02*
X63631000Y-92238500D01*
X64587500Y-93980000D02*
X63631000Y-93023500D01*
D23*
X66667500Y-100418000D02*
X65612500Y-101473000D01*
X66667500Y-99568000D02*
X66667500Y-100418000D01*
X61267500Y-100418000D02*
X61267500Y-99568000D01*
X62322500Y-101473000D02*
X61267500Y-100418000D01*
X64031000Y-101473000D02*
X64031000Y-102298500D01*
X65612500Y-101473000D02*
X64031000Y-101473000D01*
X64031000Y-101473000D02*
X62322500Y-101473000D01*
D24*
X63131000Y-89363500D02*
X63131000Y-88276000D01*
X63131000Y-88276000D02*
X63142000Y-88265000D01*
X60919500Y-94069000D02*
X60919500Y-95250000D01*
X68793500Y-94069000D02*
X68857000Y-94005500D01*
X66825000Y-94069000D02*
X68793500Y-94069000D01*
X66825000Y-95059500D02*
X65999500Y-95885000D01*
X66825000Y-94069000D02*
X66825000Y-95059500D01*
D23*
X60729000Y-88851500D02*
X60729000Y-87947500D01*
X60729000Y-87947500D02*
X60983000Y-87693500D01*
D24*
X55300000Y-61800000D02*
X55300000Y-61300000D01*
X55300000Y-61300000D02*
X55800000Y-60800000D01*
D25*
X100910000Y-62790000D02*
X101310000Y-63190000D01*
X100910000Y-61740000D02*
X100910000Y-62790000D01*
X101710000Y-62790000D02*
X101310000Y-63190000D01*
X102760000Y-62790000D02*
X101710000Y-62790000D01*
X102012500Y-67400000D02*
X102700000Y-68087500D01*
X100837500Y-67400000D02*
X102012500Y-67400000D01*
X102700000Y-68087500D02*
X103112500Y-68087500D01*
X103112500Y-68087500D02*
X103700000Y-67500000D01*
D23*
X101200000Y-58712500D02*
X102800000Y-58712500D01*
D25*
X99400000Y-58712500D02*
X99400000Y-57600000D01*
D23*
X102512500Y-81100000D02*
X103100000Y-81687500D01*
X101237500Y-81100000D02*
X102512500Y-81100000D01*
D25*
X102100000Y-77900000D02*
X101300000Y-77100000D01*
X102100000Y-78550000D02*
X102100000Y-77900000D01*
X102750000Y-77900000D02*
X102100000Y-77900000D01*
X101700000Y-76700000D02*
X101300000Y-77100000D01*
X102750000Y-76700000D02*
X101700000Y-76700000D01*
X100900000Y-76700000D02*
X101300000Y-77100000D01*
X100900000Y-75650000D02*
X100900000Y-76700000D01*
X102760000Y-63990000D02*
X102760000Y-64554020D01*
X102760000Y-64554020D02*
X102778718Y-64572738D01*
X102100000Y-78550000D02*
X102550000Y-78550000D01*
X102550000Y-78550000D02*
X102900000Y-78900000D01*
D23*
X98200000Y-75712500D02*
X97887500Y-75712500D01*
X97887500Y-75712500D02*
X97100000Y-76500000D01*
X99000000Y-72612500D02*
X101000000Y-72612500D01*
X102700000Y-72612500D02*
X103687500Y-72612500D01*
X103687500Y-72612500D02*
X103700000Y-72600000D01*
X99000000Y-72100000D02*
X99400000Y-71700000D01*
X99000000Y-72612500D02*
X99000000Y-72100000D01*
X103100000Y-81687500D02*
X103100000Y-82700000D01*
D25*
X100900000Y-90050000D02*
X100725000Y-90225000D01*
X100900000Y-89350000D02*
X100900000Y-90050000D01*
X101700000Y-90400000D02*
X101300000Y-90800000D01*
X102750000Y-90400000D02*
X101700000Y-90400000D01*
D23*
X101825000Y-95587500D02*
X101137500Y-94900000D01*
X103000000Y-95587500D02*
X101825000Y-95587500D01*
X99774743Y-94700000D02*
X99680250Y-94794493D01*
X101137500Y-94700000D02*
X99774743Y-94700000D01*
X102700000Y-86312500D02*
X103687500Y-86312500D01*
X103687500Y-86312500D02*
X103700000Y-86300000D01*
X99300000Y-86312500D02*
X100187500Y-86312500D01*
X100187500Y-85412500D02*
X100200000Y-85400000D01*
X100187500Y-86312500D02*
X100187500Y-85412500D01*
X100187500Y-86312500D02*
X101100000Y-86312500D01*
X98300000Y-89612500D02*
X97387500Y-89612500D01*
X97387500Y-89612500D02*
X97000000Y-90000000D01*
X102800000Y-58712500D02*
X103757890Y-58712500D01*
X103757890Y-58712500D02*
X103872695Y-58827305D01*
X98200000Y-61812500D02*
X97112500Y-61812500D01*
X97112500Y-61812500D02*
X97100000Y-61800000D01*
D26*
X55010500Y-89130500D02*
X56769500Y-89130500D01*
X56769500Y-89130500D02*
X57500000Y-88400000D01*
X79900000Y-103200000D02*
X79900000Y-100500000D01*
D23*
X62950000Y-78000000D02*
X66000000Y-78000000D01*
X67015500Y-88788000D02*
X68288000Y-88788000D01*
X68288000Y-88788000D02*
X68500000Y-89000000D01*
X81164500Y-83932500D02*
X79717500Y-83932500D01*
X79717500Y-83932500D02*
X79700000Y-83950000D01*
X87133500Y-92046500D02*
X89203500Y-92046500D01*
X89203500Y-92046500D02*
X89250000Y-92000000D01*
X87133500Y-92046500D02*
X87133500Y-93833500D01*
X87133500Y-93833500D02*
X87150000Y-93850000D01*
X87133500Y-92046500D02*
X87133500Y-90216500D01*
X87133500Y-90216500D02*
X87150000Y-90200000D01*
X90537000Y-86775000D02*
X89425000Y-86775000D01*
X89425000Y-86775000D02*
X89300000Y-86900000D01*
X80570500Y-91150500D02*
X79649500Y-91150500D01*
X79649500Y-91150500D02*
X79600000Y-91200000D01*
X79719000Y-92871000D02*
X79719000Y-93119000D01*
X79719000Y-93119000D02*
X80650000Y-94050000D01*
X62712500Y-92657000D02*
X63131000Y-92238500D01*
X62712500Y-93980000D02*
X62712500Y-92657000D01*
X62467500Y-98718000D02*
X61920500Y-98171000D01*
X62467500Y-99568000D02*
X62467500Y-98718000D01*
X61920500Y-94772000D02*
X62712500Y-93980000D01*
X61920500Y-98171000D02*
X61920500Y-94772000D01*
X62467500Y-100418000D02*
X62760500Y-100711000D01*
X62467500Y-99568000D02*
X62467500Y-100418000D01*
X65467500Y-100418000D02*
X65467500Y-99568000D01*
X65174500Y-100711000D02*
X65467500Y-100418000D01*
X62760500Y-100711000D02*
X65174500Y-100711000D01*
D24*
X56075000Y-62800000D02*
X58400000Y-60475000D01*
X58400000Y-60475000D02*
X58400000Y-53800000D01*
X55300000Y-62800000D02*
X56075000Y-62800000D01*
D25*
X102760000Y-63590000D02*
X102760000Y-63190000D01*
X102800000Y-61050000D02*
X102800000Y-60287500D01*
X102110000Y-61740000D02*
X102800000Y-61050000D01*
X102750000Y-77500000D02*
X102750000Y-77250000D01*
X102750000Y-77250000D02*
X102750000Y-77100000D01*
X102700000Y-75050000D02*
X102700000Y-74187500D01*
X102100000Y-75650000D02*
X102700000Y-75050000D01*
X103990000Y-63590000D02*
X102760000Y-63590000D01*
X104500000Y-64100000D02*
X103990000Y-63590000D01*
X104500000Y-64800000D02*
X104500000Y-64100000D01*
X102110000Y-64640000D02*
X102110000Y-65310000D01*
X102110000Y-65310000D02*
X102400000Y-65600000D01*
X102400000Y-65600000D02*
X103700000Y-65600000D01*
X103700000Y-65600000D02*
X104500000Y-64800000D01*
X102100000Y-75650000D02*
X104150000Y-75650000D01*
X104150000Y-75650000D02*
X104700000Y-76200000D01*
X104100000Y-77500000D02*
X102750000Y-77500000D01*
X104700000Y-76900000D02*
X104100000Y-77500000D01*
X102800000Y-60287500D02*
X103987500Y-60287500D01*
X103987500Y-60287500D02*
X104700000Y-61000000D01*
X104310000Y-63190000D02*
X102760000Y-63190000D01*
X104700000Y-62800000D02*
X104310000Y-63190000D01*
D23*
X77450000Y-52530000D02*
X78720000Y-53800000D01*
X77450000Y-50650000D02*
X77450000Y-52530000D01*
X57100000Y-52500000D02*
X57100000Y-50746998D01*
X58400000Y-53800000D02*
X57100000Y-52500000D01*
X58146998Y-49700000D02*
X76500000Y-49700000D01*
X57100000Y-50746998D02*
X58146998Y-49700000D01*
X76500000Y-49700000D02*
X77450000Y-50650000D01*
D25*
X102100000Y-92250000D02*
X102750000Y-91600000D01*
X102750000Y-91200000D02*
X102750000Y-91600000D01*
X102750000Y-91200000D02*
X102750000Y-90800000D01*
X102700000Y-88750000D02*
X102700000Y-87887500D01*
X102100000Y-89350000D02*
X102700000Y-88750000D01*
X104300001Y-89511999D02*
X104138002Y-89350000D01*
X104138002Y-89350000D02*
X102100000Y-89350000D01*
X104300001Y-90288001D02*
X104300001Y-89511999D01*
X103788002Y-90800000D02*
X104300001Y-90288001D01*
X102750000Y-90800000D02*
X103788002Y-90800000D01*
D23*
X102700000Y-87887500D02*
X104512500Y-87887500D01*
X104512500Y-87887500D02*
X105200000Y-87200000D01*
X105200000Y-87200000D02*
X105200000Y-84800000D01*
X105200000Y-59200000D02*
X105100000Y-59100000D01*
X81520000Y-56600000D02*
X78720000Y-53800000D01*
X90800000Y-56600000D02*
X81520000Y-56600000D01*
D25*
X105100000Y-76600000D02*
X105200000Y-76500000D01*
X104700000Y-76600000D02*
X105100000Y-76600000D01*
X104700000Y-76600000D02*
X104700000Y-76900000D01*
D23*
X105200000Y-82800000D02*
X105200000Y-76500000D01*
X105200000Y-76500000D02*
X105200000Y-68900000D01*
D25*
X104700000Y-76200000D02*
X104700000Y-76600000D01*
X105100000Y-62000000D02*
X105200000Y-62100000D01*
X104700000Y-62000000D02*
X105100000Y-62000000D01*
X104700000Y-62000000D02*
X104700000Y-62800000D01*
D23*
X105200000Y-68900000D02*
X105200000Y-62100000D01*
D25*
X104700000Y-61000000D02*
X104700000Y-62000000D01*
D23*
X105200000Y-62100000D02*
X105200000Y-59200000D01*
D27*
X68800000Y-76000000D02*
X68900000Y-75900000D01*
X62950000Y-76000000D02*
X68800000Y-76000000D01*
X67102500Y-90750000D02*
X67015500Y-90663000D01*
X69350000Y-90750000D02*
X67102500Y-90750000D01*
X65430500Y-90663000D02*
X65393510Y-90626010D01*
X67015500Y-90663000D02*
X65430500Y-90663000D01*
D25*
X65318500Y-90775000D02*
X65430500Y-90663000D01*
X65318500Y-91051000D02*
X65318500Y-90775000D01*
D27*
X69700000Y-76700000D02*
X69700000Y-86170490D01*
X68900000Y-75900000D02*
X69700000Y-76700000D01*
X85289210Y-89513000D02*
X85326210Y-89550000D01*
X83508000Y-89513000D02*
X85289210Y-89513000D01*
D23*
X58400000Y-51260000D02*
X60940000Y-51260000D01*
X80570500Y-87225500D02*
X81220500Y-87225500D01*
X79583000Y-88038000D02*
X79583000Y-88213000D01*
X80395500Y-87225500D02*
X79583000Y-88038000D01*
X80570500Y-87225500D02*
X80395500Y-87225500D01*
X81220500Y-85863500D02*
X81164500Y-85807500D01*
X81220500Y-87225500D02*
X81220500Y-85863500D01*
D25*
X98200000Y-63387500D02*
X98712500Y-63387500D01*
X98910000Y-63190000D02*
X99860000Y-63190000D01*
X98712500Y-63387500D02*
X98910000Y-63190000D01*
X97762500Y-67400000D02*
X96500000Y-67400000D01*
D23*
X97762500Y-63825000D02*
X98200000Y-63387500D01*
X97762500Y-67400000D02*
X97762500Y-63825000D01*
D25*
X98387500Y-77100000D02*
X98200000Y-77287500D01*
X99850000Y-77100000D02*
X98387500Y-77100000D01*
D23*
X98162500Y-81100000D02*
X96895708Y-81100000D01*
X96895708Y-81100000D02*
X96797854Y-81002146D01*
X96797854Y-78689646D02*
X98200000Y-77287500D01*
X96797854Y-81002146D02*
X96797854Y-78689646D01*
D25*
X98687500Y-90800000D02*
X98300000Y-91187500D01*
X99850000Y-90800000D02*
X98687500Y-90800000D01*
D23*
X98062500Y-91425000D02*
X98300000Y-91187500D01*
X98062500Y-94700000D02*
X98062500Y-91425000D01*
X98062500Y-94700000D02*
X96900000Y-94700000D01*
X87133500Y-81766500D02*
X87200000Y-81700000D01*
X87133500Y-85821500D02*
X87133500Y-81766500D01*
X87133500Y-85821500D02*
X86921500Y-85821500D01*
X86921500Y-85821500D02*
X85300000Y-84200000D01*
X90537000Y-85124000D02*
X90537000Y-83837000D01*
X90537000Y-83837000D02*
X90500000Y-83800000D01*
X87133500Y-85821500D02*
X87278500Y-85821500D01*
X87278500Y-85821500D02*
X88900000Y-84200000D01*
X80392709Y-85807500D02*
X80005689Y-85420480D01*
X81164500Y-85807500D02*
X80392709Y-85807500D01*
X81164500Y-85807500D02*
X81848000Y-85124000D01*
X81848000Y-85124000D02*
X90449500Y-85124000D01*
D24*
X64793000Y-87020500D02*
X64793000Y-87458000D01*
X64793000Y-87458000D02*
X63631000Y-88620000D01*
X63631000Y-88620000D02*
X63631000Y-88926000D01*
X63631000Y-88926000D02*
X63631000Y-89363500D01*
X83508000Y-86855438D02*
X83963448Y-86399990D01*
X83508000Y-88213000D02*
X83508000Y-86855438D01*
X63467500Y-97823500D02*
X63142000Y-97498000D01*
X63467500Y-99568000D02*
X63467500Y-97823500D01*
X64467500Y-97760000D02*
X64729500Y-97498000D01*
X64467500Y-99568000D02*
X64467500Y-97760000D01*
X63480000Y-57395000D02*
X63480000Y-53800000D01*
X56075000Y-64800000D02*
X63480000Y-57395000D01*
X55300000Y-64800000D02*
X56075000Y-64800000D01*
X60940000Y-58935000D02*
X60940000Y-53800000D01*
X56075000Y-63800000D02*
X60940000Y-58935000D01*
X55300000Y-63800000D02*
X56075000Y-63800000D01*
D23*
X79583000Y-90163000D02*
X79583000Y-89513000D01*
X79166410Y-89513000D02*
X79170500Y-89513000D01*
X79170500Y-89513000D02*
X79583000Y-89513000D01*
D27*
X79060344Y-89513000D02*
X79583000Y-89513000D01*
X75388344Y-85841000D02*
X79060344Y-89513000D01*
X73798500Y-85841000D02*
X75388344Y-85841000D01*
D24*
X68857000Y-91993000D02*
X68857000Y-92430500D01*
X65318500Y-91551000D02*
X65334500Y-91567000D01*
X68431000Y-91567000D02*
X68857000Y-91993000D01*
X65334500Y-91567000D02*
X68431000Y-91567000D01*
X83055500Y-95157000D02*
X83196500Y-95016000D01*
X81531500Y-95157000D02*
X83055500Y-95157000D01*
X83508000Y-90896500D02*
X84212500Y-91601000D01*
X83508000Y-90163000D02*
X83508000Y-90896500D01*
X83196500Y-95016000D02*
X83845486Y-95016000D01*
X83845486Y-95016000D02*
X84212493Y-94648993D01*
X92199500Y-85124000D02*
X92199500Y-86775000D01*
X92199500Y-86775000D02*
X92199500Y-87250000D01*
X92199500Y-87250000D02*
X91023500Y-88426000D01*
X91023500Y-88426000D02*
X89927500Y-88426000D01*
X84404289Y-85823789D02*
X82859711Y-85823789D01*
X87006500Y-88426000D02*
X84404289Y-85823789D01*
X82859711Y-85823789D02*
X81870500Y-86813000D01*
X81870500Y-86813000D02*
X81870500Y-87225500D01*
D26*
X55167500Y-91787500D02*
X55010500Y-91630500D01*
X57800000Y-91787500D02*
X55167500Y-91787500D01*
D24*
X57800000Y-91787500D02*
X58287500Y-91787500D01*
X58287500Y-91787500D02*
X59150000Y-92650000D01*
X84037000Y-88863000D02*
X83508000Y-88863000D01*
X84550000Y-88350000D02*
X84037000Y-88863000D01*
D25*
X62443500Y-91051000D02*
X62443500Y-90551000D01*
D23*
X62119000Y-90726500D02*
X62443500Y-91051000D01*
X60729000Y-90726500D02*
X62119000Y-90726500D01*
X64631000Y-88833500D02*
X66444000Y-87020500D01*
X64631000Y-89363500D02*
X64631000Y-88833500D01*
D26*
X60215000Y-90212500D02*
X60729000Y-90726500D01*
X57800000Y-90212500D02*
X60215000Y-90212500D01*
D23*
X60729000Y-90726500D02*
X59373500Y-90726500D01*
X59373500Y-90726500D02*
X59200000Y-90900000D01*
X64794500Y-89200000D02*
X64631000Y-89363500D01*
X65500000Y-89200000D02*
X64794500Y-89200000D01*
X82520500Y-91944500D02*
X81594000Y-92871000D01*
X82520500Y-91150500D02*
X82520500Y-91944500D01*
D27*
X66444000Y-87020500D02*
X68095000Y-87020500D01*
X70167998Y-87020500D02*
X73188498Y-90041000D01*
X68095000Y-87020500D02*
X70167998Y-87020500D01*
X73188498Y-90041000D02*
X73798500Y-90041000D01*
X73798500Y-94398500D02*
X73800000Y-94400000D01*
X73798500Y-90041000D02*
X73798500Y-94398500D01*
X73800000Y-94400000D02*
X77150000Y-97750000D01*
X77150000Y-97750000D02*
X83450000Y-97750000D01*
X83450000Y-97750000D02*
X85800000Y-95400000D01*
X85800000Y-95400000D02*
X85800000Y-94600000D01*
X84553500Y-93353500D02*
X83196500Y-93353500D01*
X85800000Y-94600000D02*
X84553500Y-93353500D01*
X82076500Y-93353500D02*
X81594000Y-92871000D01*
X83196500Y-93353500D02*
X82076500Y-93353500D01*
D25*
X101300000Y-74487500D02*
X101000000Y-74187500D01*
X101300000Y-75650000D02*
X101300000Y-74487500D01*
X101310000Y-60397500D02*
X101200000Y-60287500D01*
X101310000Y-61740000D02*
X101310000Y-60397500D01*
X101300000Y-88087500D02*
X101100000Y-87887500D01*
X101300000Y-89350000D02*
X101300000Y-88087500D01*
D24*
X65969000Y-85445500D02*
X64793000Y-85445500D01*
X66444000Y-85445500D02*
X65969000Y-85445500D01*
X68095000Y-85008000D02*
X68095000Y-85445500D01*
X63568000Y-84455000D02*
X67542000Y-84455000D01*
X63015000Y-85445500D02*
X63015000Y-85008000D01*
X67542000Y-84455000D02*
X68095000Y-85008000D01*
X63015000Y-85008000D02*
X63568000Y-84455000D01*
X62443500Y-89926000D02*
X62443500Y-90051000D01*
X62443500Y-88029500D02*
X62443500Y-89926000D01*
X63015000Y-87020500D02*
X63015000Y-87458000D01*
X63015000Y-87458000D02*
X62443500Y-88029500D01*
X101700000Y-88462482D02*
X101900000Y-88262482D01*
X101700000Y-89350000D02*
X101700000Y-88462482D01*
X101900000Y-85937518D02*
X104137518Y-83700000D01*
X101900000Y-88262482D02*
X101900000Y-85937518D01*
X104137518Y-83700000D02*
X111800000Y-83700000D01*
X111800000Y-83700000D02*
X113300000Y-82200000D01*
X113300000Y-82200000D02*
X113300000Y-61600000D01*
X113300000Y-61600000D02*
X112800000Y-61100000D01*
X114100000Y-90200000D02*
X114100000Y-60600000D01*
X110047589Y-56547589D02*
X99247589Y-56547589D01*
X99247589Y-56547589D02*
X96500000Y-53800000D01*
X99104048Y-95604048D02*
X100700000Y-97200000D01*
X101300000Y-92250000D02*
X101300000Y-92852780D01*
X100700000Y-97200000D02*
X107100000Y-97200000D01*
X100279622Y-93676202D02*
X99945761Y-93676202D01*
X99945761Y-93676202D02*
X99104048Y-94517915D01*
X107100000Y-97200000D02*
X114100000Y-90200000D01*
X114100000Y-60600000D02*
X110047589Y-56547589D01*
X100507034Y-93448790D02*
X100279622Y-93676202D01*
X100703990Y-93448790D02*
X100507034Y-93448790D01*
X99104048Y-94517915D02*
X99104048Y-95604048D01*
X101300000Y-92852780D02*
X100703990Y-93448790D01*
X101700000Y-92250000D02*
X101700000Y-92736332D01*
X113700000Y-61000000D02*
X109600000Y-56900000D01*
X113700000Y-90000000D02*
X113700000Y-61000000D01*
X101700000Y-92736332D02*
X102262458Y-93298790D01*
X94508466Y-53800000D02*
X93960000Y-53800000D01*
X110401210Y-93298790D02*
X113700000Y-90000000D01*
X109600000Y-56900000D02*
X97608466Y-56900000D01*
X97608466Y-56900000D02*
X94508466Y-53800000D01*
X102262458Y-93298790D02*
X110401210Y-93298790D01*
X102338728Y-59573790D02*
X103925867Y-59573790D01*
X101710000Y-61740000D02*
X101710000Y-60952482D01*
X102048790Y-60613692D02*
X102048790Y-59863728D01*
X103925867Y-59573790D02*
X104042051Y-59689974D01*
X102048790Y-59863728D02*
X102338728Y-59573790D01*
X101710000Y-60952482D02*
X102048790Y-60613692D01*
X101310000Y-65368462D02*
X100988666Y-65689796D01*
X101310000Y-64640000D02*
X101310000Y-65368462D01*
X101710000Y-64640000D02*
X101710000Y-65858544D01*
X101710000Y-65858544D02*
X101758590Y-65907134D01*
X93503798Y-71123798D02*
X77029999Y-54649999D01*
X77029999Y-54649999D02*
X76180000Y-53800000D01*
X101700000Y-74662482D02*
X101900000Y-74462482D01*
X101700000Y-75650000D02*
X101700000Y-74662482D01*
X101900000Y-74462482D02*
X101900000Y-72337518D01*
X100686280Y-71123798D02*
X93503798Y-71123798D01*
X101900000Y-72337518D02*
X100686280Y-71123798D01*
X101276210Y-78723790D02*
X101276210Y-79060122D01*
X101276210Y-79060122D02*
X101085122Y-79251210D01*
X101085122Y-79251210D02*
X100348790Y-79251210D01*
X92900000Y-73060000D02*
X73640000Y-53800000D01*
X101300000Y-78550000D02*
X101300000Y-78700000D01*
X101300000Y-78700000D02*
X101276210Y-78723790D01*
X100348790Y-79251210D02*
X99300000Y-80300000D01*
X99300000Y-80300000D02*
X99300000Y-82044176D01*
X99300000Y-82044176D02*
X98792966Y-82551210D01*
X97532034Y-82551210D02*
X92900000Y-77919176D01*
X98792966Y-82551210D02*
X97532034Y-82551210D01*
X92900000Y-77919176D02*
X92900000Y-73060000D01*
X92500000Y-78055454D02*
X92500000Y-75200000D01*
X97444546Y-83000000D02*
X92500000Y-78055454D01*
X98842560Y-83000000D02*
X97444546Y-83000000D01*
X92500000Y-75200000D02*
X71100000Y-53800000D01*
X101700000Y-79200000D02*
X101251210Y-79648790D01*
X101251210Y-79648790D02*
X100451210Y-79648790D01*
X99700000Y-82142560D02*
X98842560Y-83000000D01*
X101700000Y-78550000D02*
X101700000Y-79200000D01*
X100451210Y-79648790D02*
X99700000Y-80400000D01*
X99700000Y-80400000D02*
X99700000Y-82142560D01*
X97800000Y-60287500D02*
X97012500Y-60287500D01*
X97012500Y-60287500D02*
X96600000Y-60700000D01*
X102810000Y-62390000D02*
X102760000Y-62390000D01*
X104000000Y-61200000D02*
X102810000Y-62390000D01*
X97400000Y-74187500D02*
X97400000Y-74700000D01*
X97400000Y-74700000D02*
X96900000Y-75200000D01*
X103800000Y-76300000D02*
X102750000Y-76300000D01*
X97700000Y-87887500D02*
X97700000Y-88300000D01*
X97700000Y-88300000D02*
X97000000Y-89000000D01*
X103700000Y-90000000D02*
X102750000Y-90000000D01*
X97700000Y-84300000D02*
X95800000Y-82400000D01*
X97700000Y-86312500D02*
X97700000Y-84300000D01*
X97400000Y-72612500D02*
X95812500Y-72612500D01*
X95812500Y-72612500D02*
X95800000Y-72600000D01*
X95300000Y-55444312D02*
X95179478Y-55323790D01*
X95312500Y-58712500D02*
X95300000Y-58700000D01*
X97800000Y-58712500D02*
X95312500Y-58712500D01*
X95300000Y-67800000D02*
X95300000Y-58700000D01*
X95300000Y-58700000D02*
X95300000Y-55444312D01*
D25*
X100500000Y-75000000D02*
X100500000Y-75650000D01*
X100000000Y-74500000D02*
X100500000Y-75000000D01*
X100003279Y-73405979D02*
X100000000Y-73409258D01*
X100000000Y-73409258D02*
X100000000Y-74500000D01*
X99000001Y-75723789D02*
X99300000Y-75423790D01*
X99200000Y-76700000D02*
X99000001Y-76500001D01*
X99000001Y-76500001D02*
X99000001Y-75723789D01*
X99850000Y-76700000D02*
X99200000Y-76700000D01*
X99850000Y-78550000D02*
X99800000Y-78600000D01*
X100500000Y-78550000D02*
X99850000Y-78550000D01*
X99850000Y-77500000D02*
X99196140Y-77500000D01*
X99196140Y-77500000D02*
X98188422Y-78507718D01*
X98188422Y-79035292D02*
X98488421Y-79335291D01*
X98188422Y-78507718D02*
X98188422Y-79035292D01*
X105300000Y-57800000D02*
X106900000Y-59400000D01*
X100700000Y-57800000D02*
X105300000Y-57800000D01*
X100510000Y-61740000D02*
X100300000Y-61530000D01*
X100300000Y-58200000D02*
X100700000Y-57800000D01*
X100300000Y-61530000D02*
X100300000Y-58200000D01*
X98621140Y-62600000D02*
X97100000Y-62600000D01*
X99860000Y-62790000D02*
X98811140Y-62790000D01*
X98811140Y-62790000D02*
X98621140Y-62600000D01*
X100510000Y-65065000D02*
X100510000Y-64640000D01*
X99700000Y-65875000D02*
X100510000Y-65065000D01*
X99700000Y-68500000D02*
X99700000Y-65875000D01*
X100200000Y-69000000D02*
X99700000Y-68500000D01*
X103500000Y-69000000D02*
X103400000Y-69000000D01*
X103400000Y-69000000D02*
X100200000Y-69000000D01*
X98599987Y-64200013D02*
X98599987Y-64700000D01*
X99860000Y-63590000D02*
X99210000Y-63590000D01*
X99210000Y-63590000D02*
X98599987Y-64200013D01*
X100250008Y-87150008D02*
X100200000Y-87100000D01*
X100200000Y-89050000D02*
X100325000Y-89175000D01*
X100200000Y-87100000D02*
X100200000Y-89050000D01*
X100500000Y-89350000D02*
X100325000Y-89175000D01*
X100325000Y-89175000D02*
X100250008Y-89100008D01*
X99124990Y-89075010D02*
X99124990Y-90324990D01*
X99200000Y-89000000D02*
X99124990Y-89075010D01*
X99200000Y-90400000D02*
X99850000Y-90400000D01*
X99124990Y-90324990D02*
X99200000Y-90400000D01*
X100500000Y-92250000D02*
X100500000Y-92600000D01*
X100500000Y-92600000D02*
X100000000Y-93100000D01*
X99075010Y-91939399D02*
X98805142Y-92209267D01*
X99850000Y-91200000D02*
X99300000Y-91200000D01*
X99075010Y-91424990D02*
X99075010Y-91939399D01*
X98805142Y-92209267D02*
X98805142Y-92633531D01*
X99300000Y-91200000D02*
X99075010Y-91424990D01*
D24*
X61500500Y-92494000D02*
X62443500Y-91551000D01*
X60919500Y-92494000D02*
X61500500Y-92494000D01*
X64886500Y-92494000D02*
X64631000Y-92238500D01*
X66825000Y-92494000D02*
X64886500Y-92494000D01*
D25*
X99950000Y-76200000D02*
X99950000Y-75015700D01*
X99300000Y-74365700D02*
X99300000Y-74187500D01*
X99950000Y-75015700D02*
X99300000Y-74365700D01*
X99850000Y-76300000D02*
X99950000Y-76200000D01*
X103100000Y-80112500D02*
X104187500Y-80112500D01*
X104187500Y-80112500D02*
X104200000Y-80100000D01*
X99850000Y-77900000D02*
X99425000Y-77900000D01*
X99010472Y-78314528D02*
X99010472Y-78729089D01*
X99425000Y-77900000D02*
X99010472Y-78314528D01*
X99860000Y-60747500D02*
X99400000Y-60287500D01*
X99860000Y-62390000D02*
X99860000Y-60747500D01*
X99800000Y-64300000D02*
X99800000Y-64050000D01*
X99800000Y-64050000D02*
X99860000Y-63990000D01*
X99400000Y-64700000D02*
X99800000Y-64300000D01*
X103636044Y-66512500D02*
X104286694Y-65861850D01*
X102700000Y-66512500D02*
X103636044Y-66512500D01*
X99300000Y-87887500D02*
X99300000Y-88100000D01*
X99300000Y-88100000D02*
X99800000Y-88600000D01*
X99800000Y-89950000D02*
X99850000Y-90000000D01*
X99800000Y-88600000D02*
X99800000Y-89950000D01*
X103000000Y-94012500D02*
X104087500Y-94012500D01*
X104087500Y-94012500D02*
X104100000Y-94000000D01*
X99850000Y-91600000D02*
X99625974Y-91824026D01*
X99625974Y-91824026D02*
X99625974Y-92292806D01*
D28*
G36*
X78592243Y-89937268D02*
G01*
X78612001Y-89961343D01*
X78636076Y-89981101D01*
X78636078Y-89981103D01*
X78685792Y-90021902D01*
X78708083Y-90040196D01*
X78787657Y-90082729D01*
X78787657Y-90250500D01*
X78796695Y-90342259D01*
X78823460Y-90430492D01*
X78866924Y-90511809D01*
X78925417Y-90583083D01*
X78996691Y-90641576D01*
X79078008Y-90685040D01*
X79166241Y-90711805D01*
X79258000Y-90720843D01*
X79574400Y-90720843D01*
X79583000Y-90721690D01*
X79591600Y-90720843D01*
X79908000Y-90720843D01*
X79999759Y-90711805D01*
X80015714Y-90706965D01*
X80012657Y-90738000D01*
X80014500Y-90928250D01*
X80109750Y-91023500D01*
X80522500Y-91023500D01*
X80522500Y-90915601D01*
X80543984Y-90914358D01*
X80618500Y-90895003D01*
X80618500Y-91023500D01*
X81172500Y-91023500D01*
X81172500Y-91003500D01*
X81268500Y-91003500D01*
X81268500Y-91023500D01*
X81822500Y-91023500D01*
X81822500Y-91003500D01*
X81918500Y-91003500D01*
X81918500Y-91023500D01*
X81962657Y-91023500D01*
X81962657Y-91277500D01*
X81918500Y-91277500D01*
X81918500Y-91297500D01*
X81822500Y-91297500D01*
X81822500Y-91277500D01*
X81268500Y-91277500D01*
X81268500Y-91297500D01*
X81172500Y-91297500D01*
X81172500Y-91277500D01*
X80618500Y-91277500D01*
X80618500Y-91848750D01*
X80713750Y-91944000D01*
X80745500Y-91945843D01*
X80820189Y-91938487D01*
X80892008Y-91916701D01*
X80895500Y-91914834D01*
X80898992Y-91916701D01*
X80953886Y-91933353D01*
X80907182Y-91971682D01*
X80829257Y-92066634D01*
X80771354Y-92174963D01*
X80735697Y-92292508D01*
X80723657Y-92414750D01*
X80723657Y-93327250D01*
X80735697Y-93449492D01*
X80771354Y-93567037D01*
X80829257Y-93675366D01*
X80907182Y-93770318D01*
X81002134Y-93848243D01*
X81110463Y-93906146D01*
X81228008Y-93941803D01*
X81350250Y-93953843D01*
X81837750Y-93953843D01*
X81871031Y-93950565D01*
X81952802Y-93975370D01*
X82045502Y-93984500D01*
X82045511Y-93984500D01*
X82076499Y-93987552D01*
X82107487Y-93984500D01*
X82504076Y-93984500D01*
X82514860Y-93997640D01*
X82606023Y-94072456D01*
X82710030Y-94128049D01*
X82752723Y-94141000D01*
X82710030Y-94153951D01*
X82606023Y-94209544D01*
X82514860Y-94284360D01*
X82440044Y-94375523D01*
X82384451Y-94479530D01*
X82350216Y-94592385D01*
X82339637Y-94699800D01*
X82227428Y-94699800D01*
X82218549Y-94670530D01*
X82162956Y-94566523D01*
X82088140Y-94475360D01*
X81996977Y-94400544D01*
X81892970Y-94344951D01*
X81780115Y-94310716D01*
X81662750Y-94299157D01*
X81225250Y-94299157D01*
X81107885Y-94310716D01*
X80995030Y-94344951D01*
X80891023Y-94400544D01*
X80799860Y-94475360D01*
X80725044Y-94566523D01*
X80685294Y-94640890D01*
X80681987Y-94607311D01*
X80660201Y-94535492D01*
X80624822Y-94469304D01*
X80577211Y-94411289D01*
X80519196Y-94363678D01*
X80453008Y-94328299D01*
X80381189Y-94306513D01*
X80306500Y-94299157D01*
X80091250Y-94301000D01*
X79996000Y-94396250D01*
X79996000Y-95030000D01*
X80016000Y-95030000D01*
X80016000Y-95284000D01*
X79996000Y-95284000D01*
X79996000Y-95304000D01*
X79742000Y-95304000D01*
X79742000Y-95284000D01*
X79145750Y-95284000D01*
X79050500Y-95379250D01*
X79048657Y-95632000D01*
X79056013Y-95706689D01*
X79077799Y-95778508D01*
X79113178Y-95844696D01*
X79160789Y-95902711D01*
X79180637Y-95919000D01*
X79005500Y-95919000D01*
X79005500Y-94682000D01*
X79048657Y-94682000D01*
X79050500Y-94934750D01*
X79145750Y-95030000D01*
X79742000Y-95030000D01*
X79742000Y-94396250D01*
X79646750Y-94301000D01*
X79431500Y-94299157D01*
X79356811Y-94306513D01*
X79284992Y-94328299D01*
X79218804Y-94363678D01*
X79160789Y-94411289D01*
X79113178Y-94469304D01*
X79077799Y-94535492D01*
X79056013Y-94607311D01*
X79048657Y-94682000D01*
X79005500Y-94682000D01*
X79005500Y-93878404D01*
X79018804Y-93889322D01*
X79084992Y-93924701D01*
X79156811Y-93946487D01*
X79231500Y-93953843D01*
X79496750Y-93952000D01*
X79592000Y-93856750D01*
X79592000Y-92998000D01*
X79846000Y-92998000D01*
X79846000Y-93856750D01*
X79941250Y-93952000D01*
X80206500Y-93953843D01*
X80281189Y-93946487D01*
X80353008Y-93924701D01*
X80419196Y-93889322D01*
X80477211Y-93841711D01*
X80524822Y-93783696D01*
X80560201Y-93717508D01*
X80581987Y-93645689D01*
X80589343Y-93571000D01*
X80587500Y-93093250D01*
X80492250Y-92998000D01*
X79846000Y-92998000D01*
X79592000Y-92998000D01*
X79572000Y-92998000D01*
X79572000Y-92744000D01*
X79592000Y-92744000D01*
X79592000Y-91885250D01*
X79846000Y-91885250D01*
X79846000Y-92744000D01*
X80492250Y-92744000D01*
X80587500Y-92648750D01*
X80589343Y-92171000D01*
X80581987Y-92096311D01*
X80560201Y-92024492D01*
X80524822Y-91958304D01*
X80477211Y-91900289D01*
X80473778Y-91897472D01*
X80522500Y-91848750D01*
X80522500Y-91277500D01*
X80109750Y-91277500D01*
X80014500Y-91372750D01*
X80012657Y-91563000D01*
X80020013Y-91637689D01*
X80041799Y-91709508D01*
X80077178Y-91775696D01*
X80088080Y-91788980D01*
X79941250Y-91790000D01*
X79846000Y-91885250D01*
X79592000Y-91885250D01*
X79496750Y-91790000D01*
X79231500Y-91788157D01*
X79156811Y-91795513D01*
X79084992Y-91817299D01*
X79018804Y-91852678D01*
X79005500Y-91863596D01*
X79005500Y-91474000D01*
X79003060Y-91449224D01*
X78995833Y-91425399D01*
X78984097Y-91403443D01*
X78968303Y-91384197D01*
X78949057Y-91368403D01*
X78927101Y-91356667D01*
X78903276Y-91349440D01*
X78878955Y-91347001D01*
X77003279Y-91340280D01*
X77061196Y-91309322D01*
X77119211Y-91261711D01*
X77166822Y-91203696D01*
X77202201Y-91137508D01*
X77223987Y-91065689D01*
X77231343Y-90991000D01*
X77231343Y-89188000D01*
X77842975Y-89188000D01*
X78592243Y-89937268D01*
G37*
X78592243Y-89937268D02*
X78612001Y-89961343D01*
X78636076Y-89981101D01*
X78636078Y-89981103D01*
X78685792Y-90021902D01*
X78708083Y-90040196D01*
X78787657Y-90082729D01*
X78787657Y-90250500D01*
X78796695Y-90342259D01*
X78823460Y-90430492D01*
X78866924Y-90511809D01*
X78925417Y-90583083D01*
X78996691Y-90641576D01*
X79078008Y-90685040D01*
X79166241Y-90711805D01*
X79258000Y-90720843D01*
X79574400Y-90720843D01*
X79583000Y-90721690D01*
X79591600Y-90720843D01*
X79908000Y-90720843D01*
X79999759Y-90711805D01*
X80015714Y-90706965D01*
X80012657Y-90738000D01*
X80014500Y-90928250D01*
X80109750Y-91023500D01*
X80522500Y-91023500D01*
X80522500Y-90915601D01*
X80543984Y-90914358D01*
X80618500Y-90895003D01*
X80618500Y-91023500D01*
X81172500Y-91023500D01*
X81172500Y-91003500D01*
X81268500Y-91003500D01*
X81268500Y-91023500D01*
X81822500Y-91023500D01*
X81822500Y-91003500D01*
X81918500Y-91003500D01*
X81918500Y-91023500D01*
X81962657Y-91023500D01*
X81962657Y-91277500D01*
X81918500Y-91277500D01*
X81918500Y-91297500D01*
X81822500Y-91297500D01*
X81822500Y-91277500D01*
X81268500Y-91277500D01*
X81268500Y-91297500D01*
X81172500Y-91297500D01*
X81172500Y-91277500D01*
X80618500Y-91277500D01*
X80618500Y-91848750D01*
X80713750Y-91944000D01*
X80745500Y-91945843D01*
X80820189Y-91938487D01*
X80892008Y-91916701D01*
X80895500Y-91914834D01*
X80898992Y-91916701D01*
X80953886Y-91933353D01*
X80907182Y-91971682D01*
X80829257Y-92066634D01*
X80771354Y-92174963D01*
X80735697Y-92292508D01*
X80723657Y-92414750D01*
X80723657Y-93327250D01*
X80735697Y-93449492D01*
X80771354Y-93567037D01*
X80829257Y-93675366D01*
X80907182Y-93770318D01*
X81002134Y-93848243D01*
X81110463Y-93906146D01*
X81228008Y-93941803D01*
X81350250Y-93953843D01*
X81837750Y-93953843D01*
X81871031Y-93950565D01*
X81952802Y-93975370D01*
X82045502Y-93984500D01*
X82045511Y-93984500D01*
X82076499Y-93987552D01*
X82107487Y-93984500D01*
X82504076Y-93984500D01*
X82514860Y-93997640D01*
X82606023Y-94072456D01*
X82710030Y-94128049D01*
X82752723Y-94141000D01*
X82710030Y-94153951D01*
X82606023Y-94209544D01*
X82514860Y-94284360D01*
X82440044Y-94375523D01*
X82384451Y-94479530D01*
X82350216Y-94592385D01*
X82339637Y-94699800D01*
X82227428Y-94699800D01*
X82218549Y-94670530D01*
X82162956Y-94566523D01*
X82088140Y-94475360D01*
X81996977Y-94400544D01*
X81892970Y-94344951D01*
X81780115Y-94310716D01*
X81662750Y-94299157D01*
X81225250Y-94299157D01*
X81107885Y-94310716D01*
X80995030Y-94344951D01*
X80891023Y-94400544D01*
X80799860Y-94475360D01*
X80725044Y-94566523D01*
X80685294Y-94640890D01*
X80681987Y-94607311D01*
X80660201Y-94535492D01*
X80624822Y-94469304D01*
X80577211Y-94411289D01*
X80519196Y-94363678D01*
X80453008Y-94328299D01*
X80381189Y-94306513D01*
X80306500Y-94299157D01*
X80091250Y-94301000D01*
X79996000Y-94396250D01*
X79996000Y-95030000D01*
X80016000Y-95030000D01*
X80016000Y-95284000D01*
X79996000Y-95284000D01*
X79996000Y-95304000D01*
X79742000Y-95304000D01*
X79742000Y-95284000D01*
X79145750Y-95284000D01*
X79050500Y-95379250D01*
X79048657Y-95632000D01*
X79056013Y-95706689D01*
X79077799Y-95778508D01*
X79113178Y-95844696D01*
X79160789Y-95902711D01*
X79180637Y-95919000D01*
X79005500Y-95919000D01*
X79005500Y-94682000D01*
X79048657Y-94682000D01*
X79050500Y-94934750D01*
X79145750Y-95030000D01*
X79742000Y-95030000D01*
X79742000Y-94396250D01*
X79646750Y-94301000D01*
X79431500Y-94299157D01*
X79356811Y-94306513D01*
X79284992Y-94328299D01*
X79218804Y-94363678D01*
X79160789Y-94411289D01*
X79113178Y-94469304D01*
X79077799Y-94535492D01*
X79056013Y-94607311D01*
X79048657Y-94682000D01*
X79005500Y-94682000D01*
X79005500Y-93878404D01*
X79018804Y-93889322D01*
X79084992Y-93924701D01*
X79156811Y-93946487D01*
X79231500Y-93953843D01*
X79496750Y-93952000D01*
X79592000Y-93856750D01*
X79592000Y-92998000D01*
X79846000Y-92998000D01*
X79846000Y-93856750D01*
X79941250Y-93952000D01*
X80206500Y-93953843D01*
X80281189Y-93946487D01*
X80353008Y-93924701D01*
X80419196Y-93889322D01*
X80477211Y-93841711D01*
X80524822Y-93783696D01*
X80560201Y-93717508D01*
X80581987Y-93645689D01*
X80589343Y-93571000D01*
X80587500Y-93093250D01*
X80492250Y-92998000D01*
X79846000Y-92998000D01*
X79592000Y-92998000D01*
X79572000Y-92998000D01*
X79572000Y-92744000D01*
X79592000Y-92744000D01*
X79592000Y-91885250D01*
X79846000Y-91885250D01*
X79846000Y-92744000D01*
X80492250Y-92744000D01*
X80587500Y-92648750D01*
X80589343Y-92171000D01*
X80581987Y-92096311D01*
X80560201Y-92024492D01*
X80524822Y-91958304D01*
X80477211Y-91900289D01*
X80473778Y-91897472D01*
X80522500Y-91848750D01*
X80522500Y-91277500D01*
X80109750Y-91277500D01*
X80014500Y-91372750D01*
X80012657Y-91563000D01*
X80020013Y-91637689D01*
X80041799Y-91709508D01*
X80077178Y-91775696D01*
X80088080Y-91788980D01*
X79941250Y-91790000D01*
X79846000Y-91885250D01*
X79592000Y-91885250D01*
X79496750Y-91790000D01*
X79231500Y-91788157D01*
X79156811Y-91795513D01*
X79084992Y-91817299D01*
X79018804Y-91852678D01*
X79005500Y-91863596D01*
X79005500Y-91474000D01*
X79003060Y-91449224D01*
X78995833Y-91425399D01*
X78984097Y-91403443D01*
X78968303Y-91384197D01*
X78949057Y-91368403D01*
X78927101Y-91356667D01*
X78903276Y-91349440D01*
X78878955Y-91347001D01*
X77003279Y-91340280D01*
X77061196Y-91309322D01*
X77119211Y-91261711D01*
X77166822Y-91203696D01*
X77202201Y-91137508D01*
X77223987Y-91065689D01*
X77231343Y-90991000D01*
X77231343Y-89188000D01*
X77842975Y-89188000D01*
X78592243Y-89937268D01*
G36*
X80903405Y-89471957D02*
G01*
X81021013Y-89454098D01*
X81061868Y-89336709D01*
X81079037Y-89213604D01*
X81077556Y-89188000D01*
X82013444Y-89188000D01*
X82019142Y-89286484D01*
X82050390Y-89406789D01*
X82069987Y-89454098D01*
X82187595Y-89471957D01*
X82471552Y-89188000D01*
X82779198Y-89188000D01*
X82748460Y-89245508D01*
X82727811Y-89313579D01*
X82662471Y-89378919D01*
X82645500Y-89361948D01*
X82361543Y-89645905D01*
X82375528Y-89738000D01*
X82361543Y-89830095D01*
X82645500Y-90114052D01*
X82662471Y-90097081D01*
X82712657Y-90147267D01*
X82712657Y-90250500D01*
X82721695Y-90342259D01*
X82731247Y-90373747D01*
X82699759Y-90364195D01*
X82608000Y-90355157D01*
X82504767Y-90355157D01*
X82454581Y-90304971D01*
X82471552Y-90288000D01*
X82187595Y-90004043D01*
X82095500Y-90018028D01*
X82003405Y-90004043D01*
X81719448Y-90288000D01*
X81736419Y-90304971D01*
X81685221Y-90356169D01*
X81620811Y-90362513D01*
X81548992Y-90384299D01*
X81545500Y-90386166D01*
X81542008Y-90384299D01*
X81470189Y-90362513D01*
X81405779Y-90356169D01*
X81354581Y-90304971D01*
X81371552Y-90288000D01*
X81087595Y-90004043D01*
X80995500Y-90018028D01*
X80903405Y-90004043D01*
X80619448Y-90288000D01*
X80636419Y-90304971D01*
X80505820Y-90435570D01*
X80427250Y-90357000D01*
X80395500Y-90355157D01*
X80364465Y-90358214D01*
X80369305Y-90342259D01*
X80378343Y-90250500D01*
X80378343Y-90147267D01*
X80428529Y-90097081D01*
X80445500Y-90114052D01*
X80729457Y-89830095D01*
X81261543Y-89830095D01*
X81545500Y-90114052D01*
X81829457Y-89830095D01*
X81811598Y-89712487D01*
X81694209Y-89671632D01*
X81571104Y-89654463D01*
X81447016Y-89661642D01*
X81326711Y-89692890D01*
X81279402Y-89712487D01*
X81261543Y-89830095D01*
X80729457Y-89830095D01*
X80715472Y-89738000D01*
X80729457Y-89645905D01*
X80445500Y-89361948D01*
X80428529Y-89378919D01*
X80363189Y-89313579D01*
X80342540Y-89245508D01*
X80311802Y-89188000D01*
X80619448Y-89188000D01*
X80903405Y-89471957D01*
G37*
X80903405Y-89471957D02*
X81021013Y-89454098D01*
X81061868Y-89336709D01*
X81079037Y-89213604D01*
X81077556Y-89188000D01*
X82013444Y-89188000D01*
X82019142Y-89286484D01*
X82050390Y-89406789D01*
X82069987Y-89454098D01*
X82187595Y-89471957D01*
X82471552Y-89188000D01*
X82779198Y-89188000D01*
X82748460Y-89245508D01*
X82727811Y-89313579D01*
X82662471Y-89378919D01*
X82645500Y-89361948D01*
X82361543Y-89645905D01*
X82375528Y-89738000D01*
X82361543Y-89830095D01*
X82645500Y-90114052D01*
X82662471Y-90097081D01*
X82712657Y-90147267D01*
X82712657Y-90250500D01*
X82721695Y-90342259D01*
X82731247Y-90373747D01*
X82699759Y-90364195D01*
X82608000Y-90355157D01*
X82504767Y-90355157D01*
X82454581Y-90304971D01*
X82471552Y-90288000D01*
X82187595Y-90004043D01*
X82095500Y-90018028D01*
X82003405Y-90004043D01*
X81719448Y-90288000D01*
X81736419Y-90304971D01*
X81685221Y-90356169D01*
X81620811Y-90362513D01*
X81548992Y-90384299D01*
X81545500Y-90386166D01*
X81542008Y-90384299D01*
X81470189Y-90362513D01*
X81405779Y-90356169D01*
X81354581Y-90304971D01*
X81371552Y-90288000D01*
X81087595Y-90004043D01*
X80995500Y-90018028D01*
X80903405Y-90004043D01*
X80619448Y-90288000D01*
X80636419Y-90304971D01*
X80505820Y-90435570D01*
X80427250Y-90357000D01*
X80395500Y-90355157D01*
X80364465Y-90358214D01*
X80369305Y-90342259D01*
X80378343Y-90250500D01*
X80378343Y-90147267D01*
X80428529Y-90097081D01*
X80445500Y-90114052D01*
X80729457Y-89830095D01*
X81261543Y-89830095D01*
X81545500Y-90114052D01*
X81829457Y-89830095D01*
X81811598Y-89712487D01*
X81694209Y-89671632D01*
X81571104Y-89654463D01*
X81447016Y-89661642D01*
X81326711Y-89692890D01*
X81279402Y-89712487D01*
X81261543Y-89830095D01*
X80729457Y-89830095D01*
X80715472Y-89738000D01*
X80729457Y-89645905D01*
X80445500Y-89361948D01*
X80428529Y-89378919D01*
X80363189Y-89313579D01*
X80342540Y-89245508D01*
X80311802Y-89188000D01*
X80619448Y-89188000D01*
X80903405Y-89471957D01*
M02*
