G04 #@! TF.GenerationSoftware,KiCad,Pcbnew,(5.1.6)-1*
G04 #@! TF.CreationDate,2020-07-17T13:37:25+03:00*
G04 #@! TF.ProjectId,AstroPiMicro,41737472-6f50-4694-9d69-63726f2e6b69,1.0.8*
G04 #@! TF.SameCoordinates,Original*
G04 #@! TF.FileFunction,Soldermask,Top*
G04 #@! TF.FilePolarity,Negative*
%FSLAX46Y46*%
G04 Gerber Fmt 4.6, Leading zero omitted, Abs format (unit mm)*
G04 Created by KiCad (PCBNEW (5.1.6)-1) date 2020-07-17 13:37:25*
%MOMM*%
%LPD*%
G01*
G04 APERTURE LIST*
%ADD10C,0.100000*%
G04 APERTURE END LIST*
D10*
G36*
X112204780Y-98459565D02*
G01*
X112504237Y-98519131D01*
X113068401Y-98752815D01*
X113576135Y-99092072D01*
X114007928Y-99523865D01*
X114347185Y-100031599D01*
X114580869Y-100595763D01*
X114700000Y-101194677D01*
X114700000Y-101805323D01*
X114580869Y-102404237D01*
X114347185Y-102968401D01*
X114007928Y-103476135D01*
X113576135Y-103907928D01*
X113068401Y-104247185D01*
X112504237Y-104480869D01*
X112204780Y-104540435D01*
X111905325Y-104600000D01*
X111294675Y-104600000D01*
X110995220Y-104540435D01*
X110695763Y-104480869D01*
X110131599Y-104247185D01*
X109623865Y-103907928D01*
X109192072Y-103476135D01*
X108852815Y-102968401D01*
X108619131Y-102404237D01*
X108500000Y-101805323D01*
X108500000Y-101194677D01*
X108619131Y-100595763D01*
X108852815Y-100031599D01*
X109192072Y-99523865D01*
X109623865Y-99092072D01*
X110131599Y-98752815D01*
X110695763Y-98519131D01*
X110995220Y-98459565D01*
X111294675Y-98400000D01*
X111905325Y-98400000D01*
X112204780Y-98459565D01*
G37*
G36*
X54204780Y-98459565D02*
G01*
X54504237Y-98519131D01*
X55068401Y-98752815D01*
X55576135Y-99092072D01*
X56007928Y-99523865D01*
X56347185Y-100031599D01*
X56580869Y-100595763D01*
X56700000Y-101194677D01*
X56700000Y-101805323D01*
X56580869Y-102404237D01*
X56347185Y-102968401D01*
X56007928Y-103476135D01*
X55576135Y-103907928D01*
X55068401Y-104247185D01*
X54504237Y-104480869D01*
X54204780Y-104540435D01*
X53905325Y-104600000D01*
X53294675Y-104600000D01*
X52995220Y-104540435D01*
X52695763Y-104480869D01*
X52131599Y-104247185D01*
X51623865Y-103907928D01*
X51192072Y-103476135D01*
X50852815Y-102968401D01*
X50619131Y-102404237D01*
X50500000Y-101805323D01*
X50500000Y-101194677D01*
X50619131Y-100595763D01*
X50852815Y-100031599D01*
X51192072Y-99523865D01*
X51623865Y-99092072D01*
X52131599Y-98752815D01*
X52695763Y-98519131D01*
X52995220Y-98459565D01*
X53294675Y-98400000D01*
X53905325Y-98400000D01*
X54204780Y-98459565D01*
G37*
G36*
X81201000Y-104501000D02*
G01*
X78599000Y-104501000D01*
X78599000Y-101899000D01*
X81201000Y-101899000D01*
X81201000Y-104501000D01*
G37*
G36*
X59755514Y-102424973D02*
G01*
X59859378Y-102456479D01*
X59903407Y-102480013D01*
X59955099Y-102507643D01*
X59955101Y-102507644D01*
X59955100Y-102507644D01*
X60039001Y-102576499D01*
X60107856Y-102660400D01*
X60159021Y-102756121D01*
X60190527Y-102859985D01*
X60198500Y-102940933D01*
X60198500Y-103795067D01*
X60190527Y-103876015D01*
X60159021Y-103979879D01*
X60159019Y-103979882D01*
X60107857Y-104075600D01*
X60039001Y-104159501D01*
X59955100Y-104228357D01*
X59886555Y-104264995D01*
X59859379Y-104279521D01*
X59755515Y-104311027D01*
X59647500Y-104321666D01*
X59539486Y-104311027D01*
X59435622Y-104279521D01*
X59408446Y-104264995D01*
X59339901Y-104228357D01*
X59256000Y-104159501D01*
X59187144Y-104075600D01*
X59135982Y-103979882D01*
X59135980Y-103979879D01*
X59104473Y-103876015D01*
X59096500Y-103795067D01*
X59096500Y-102940934D01*
X59104473Y-102859986D01*
X59135979Y-102756122D01*
X59187144Y-102660400D01*
X59255999Y-102576499D01*
X59339900Y-102507644D01*
X59339899Y-102507644D01*
X59339901Y-102507643D01*
X59391593Y-102480013D01*
X59435621Y-102456479D01*
X59539485Y-102424973D01*
X59647500Y-102414334D01*
X59755514Y-102424973D01*
G37*
G36*
X68395514Y-102424973D02*
G01*
X68499378Y-102456479D01*
X68543407Y-102480013D01*
X68595099Y-102507643D01*
X68595101Y-102507644D01*
X68595100Y-102507644D01*
X68679001Y-102576499D01*
X68747856Y-102660400D01*
X68799021Y-102756121D01*
X68830527Y-102859985D01*
X68838500Y-102940933D01*
X68838500Y-103795067D01*
X68830527Y-103876015D01*
X68799021Y-103979879D01*
X68799019Y-103979882D01*
X68747857Y-104075600D01*
X68679001Y-104159501D01*
X68595100Y-104228357D01*
X68526555Y-104264995D01*
X68499379Y-104279521D01*
X68395515Y-104311027D01*
X68287500Y-104321666D01*
X68179486Y-104311027D01*
X68075622Y-104279521D01*
X68048446Y-104264995D01*
X67979901Y-104228357D01*
X67896000Y-104159501D01*
X67827144Y-104075600D01*
X67775982Y-103979882D01*
X67775980Y-103979879D01*
X67744473Y-103876015D01*
X67736500Y-103795067D01*
X67736500Y-102940934D01*
X67744473Y-102859986D01*
X67775979Y-102756122D01*
X67827144Y-102660400D01*
X67895999Y-102576499D01*
X67979900Y-102507644D01*
X67979899Y-102507644D01*
X67979901Y-102507643D01*
X68031593Y-102480013D01*
X68075621Y-102456479D01*
X68179485Y-102424973D01*
X68287500Y-102414334D01*
X68395514Y-102424973D01*
G37*
G36*
X68395514Y-98624973D02*
G01*
X68499378Y-98656479D01*
X68543407Y-98680013D01*
X68595099Y-98707643D01*
X68595101Y-98707644D01*
X68595100Y-98707644D01*
X68679001Y-98776499D01*
X68747856Y-98860400D01*
X68799021Y-98956121D01*
X68830527Y-99059985D01*
X68838500Y-99140933D01*
X68838500Y-99995067D01*
X68830527Y-100076015D01*
X68799021Y-100179879D01*
X68799019Y-100179882D01*
X68747857Y-100275600D01*
X68679001Y-100359501D01*
X68595100Y-100428357D01*
X68526555Y-100464995D01*
X68499379Y-100479521D01*
X68395515Y-100511027D01*
X68287500Y-100521666D01*
X68179486Y-100511027D01*
X68075622Y-100479521D01*
X68048446Y-100464995D01*
X67979901Y-100428357D01*
X67896000Y-100359501D01*
X67827144Y-100275600D01*
X67775982Y-100179882D01*
X67775980Y-100179879D01*
X67744473Y-100076015D01*
X67736500Y-99995067D01*
X67736500Y-99140934D01*
X67744473Y-99059986D01*
X67775979Y-98956122D01*
X67827144Y-98860400D01*
X67895999Y-98776499D01*
X67979900Y-98707644D01*
X67979899Y-98707644D01*
X67979901Y-98707643D01*
X68031593Y-98680013D01*
X68075621Y-98656479D01*
X68179485Y-98624973D01*
X68287500Y-98614334D01*
X68395514Y-98624973D01*
G37*
G36*
X59755514Y-98624973D02*
G01*
X59859378Y-98656479D01*
X59903407Y-98680013D01*
X59955099Y-98707643D01*
X59955101Y-98707644D01*
X59955100Y-98707644D01*
X60039001Y-98776499D01*
X60107856Y-98860400D01*
X60159021Y-98956121D01*
X60190527Y-99059985D01*
X60198500Y-99140933D01*
X60198500Y-99995067D01*
X60190527Y-100076015D01*
X60159021Y-100179879D01*
X60159019Y-100179882D01*
X60107857Y-100275600D01*
X60039001Y-100359501D01*
X59955100Y-100428357D01*
X59886555Y-100464995D01*
X59859379Y-100479521D01*
X59755515Y-100511027D01*
X59647500Y-100521666D01*
X59539486Y-100511027D01*
X59435622Y-100479521D01*
X59408446Y-100464995D01*
X59339901Y-100428357D01*
X59256000Y-100359501D01*
X59187144Y-100275600D01*
X59135982Y-100179882D01*
X59135980Y-100179879D01*
X59104473Y-100076015D01*
X59096500Y-99995067D01*
X59096500Y-99140934D01*
X59104473Y-99059986D01*
X59135979Y-98956122D01*
X59187144Y-98860400D01*
X59255999Y-98776499D01*
X59339900Y-98707644D01*
X59339899Y-98707644D01*
X59339901Y-98707643D01*
X59391593Y-98680013D01*
X59435621Y-98656479D01*
X59539485Y-98624973D01*
X59647500Y-98614334D01*
X59755514Y-98624973D01*
G37*
G36*
X61718500Y-100119000D02*
G01*
X60816500Y-100119000D01*
X60816500Y-99017000D01*
X61718500Y-99017000D01*
X61718500Y-100119000D01*
G37*
G36*
X65918500Y-100119000D02*
G01*
X62016500Y-100119000D01*
X62016500Y-99017000D01*
X65918500Y-99017000D01*
X65918500Y-100119000D01*
G37*
G36*
X67118500Y-100119000D02*
G01*
X66216500Y-100119000D01*
X66216500Y-99017000D01*
X67118500Y-99017000D01*
X67118500Y-100119000D01*
G37*
G36*
X63521591Y-97013585D02*
G01*
X63555569Y-97023893D01*
X63586890Y-97040634D01*
X63614339Y-97063161D01*
X63636866Y-97090610D01*
X63653607Y-97121931D01*
X63663915Y-97155909D01*
X63668000Y-97197390D01*
X63668000Y-97798610D01*
X63663915Y-97840091D01*
X63653607Y-97874069D01*
X63636866Y-97905390D01*
X63614339Y-97932839D01*
X63586890Y-97955366D01*
X63555569Y-97972107D01*
X63521591Y-97982415D01*
X63480110Y-97986500D01*
X62803890Y-97986500D01*
X62762409Y-97982415D01*
X62728431Y-97972107D01*
X62697110Y-97955366D01*
X62669661Y-97932839D01*
X62647134Y-97905390D01*
X62630393Y-97874069D01*
X62620085Y-97840091D01*
X62616000Y-97798610D01*
X62616000Y-97197390D01*
X62620085Y-97155909D01*
X62630393Y-97121931D01*
X62647134Y-97090610D01*
X62669661Y-97063161D01*
X62697110Y-97040634D01*
X62728431Y-97023893D01*
X62762409Y-97013585D01*
X62803890Y-97009500D01*
X63480110Y-97009500D01*
X63521591Y-97013585D01*
G37*
G36*
X65109091Y-97013585D02*
G01*
X65143069Y-97023893D01*
X65174390Y-97040634D01*
X65201839Y-97063161D01*
X65224366Y-97090610D01*
X65241107Y-97121931D01*
X65251415Y-97155909D01*
X65255500Y-97197390D01*
X65255500Y-97798610D01*
X65251415Y-97840091D01*
X65241107Y-97874069D01*
X65224366Y-97905390D01*
X65201839Y-97932839D01*
X65174390Y-97955366D01*
X65143069Y-97972107D01*
X65109091Y-97982415D01*
X65067610Y-97986500D01*
X64391390Y-97986500D01*
X64349909Y-97982415D01*
X64315931Y-97972107D01*
X64284610Y-97955366D01*
X64257161Y-97932839D01*
X64234634Y-97905390D01*
X64217893Y-97874069D01*
X64207585Y-97840091D01*
X64203500Y-97798610D01*
X64203500Y-97197390D01*
X64207585Y-97155909D01*
X64217893Y-97121931D01*
X64234634Y-97090610D01*
X64257161Y-97063161D01*
X64284610Y-97040634D01*
X64315931Y-97023893D01*
X64349909Y-97013585D01*
X64391390Y-97009500D01*
X65067610Y-97009500D01*
X65109091Y-97013585D01*
G37*
G36*
X65109091Y-95438585D02*
G01*
X65143069Y-95448893D01*
X65174390Y-95465634D01*
X65201839Y-95488161D01*
X65224366Y-95515610D01*
X65241107Y-95546931D01*
X65251415Y-95580909D01*
X65255500Y-95622390D01*
X65255500Y-96223610D01*
X65251415Y-96265091D01*
X65241107Y-96299069D01*
X65224366Y-96330390D01*
X65201839Y-96357839D01*
X65174390Y-96380366D01*
X65143069Y-96397107D01*
X65109091Y-96407415D01*
X65067610Y-96411500D01*
X64391390Y-96411500D01*
X64349909Y-96407415D01*
X64315931Y-96397107D01*
X64284610Y-96380366D01*
X64257161Y-96357839D01*
X64234634Y-96330390D01*
X64217893Y-96299069D01*
X64207585Y-96265091D01*
X64203500Y-96223610D01*
X64203500Y-95622390D01*
X64207585Y-95580909D01*
X64217893Y-95546931D01*
X64234634Y-95515610D01*
X64257161Y-95488161D01*
X64284610Y-95465634D01*
X64315931Y-95448893D01*
X64349909Y-95438585D01*
X64391390Y-95434500D01*
X65067610Y-95434500D01*
X65109091Y-95438585D01*
G37*
G36*
X63521591Y-95438585D02*
G01*
X63555569Y-95448893D01*
X63586890Y-95465634D01*
X63614339Y-95488161D01*
X63636866Y-95515610D01*
X63653607Y-95546931D01*
X63663915Y-95580909D01*
X63668000Y-95622390D01*
X63668000Y-96223610D01*
X63663915Y-96265091D01*
X63653607Y-96299069D01*
X63636866Y-96330390D01*
X63614339Y-96357839D01*
X63586890Y-96380366D01*
X63555569Y-96397107D01*
X63521591Y-96407415D01*
X63480110Y-96411500D01*
X62803890Y-96411500D01*
X62762409Y-96407415D01*
X62728431Y-96397107D01*
X62697110Y-96380366D01*
X62669661Y-96357839D01*
X62647134Y-96330390D01*
X62630393Y-96299069D01*
X62620085Y-96265091D01*
X62616000Y-96223610D01*
X62616000Y-95622390D01*
X62620085Y-95580909D01*
X62630393Y-95546931D01*
X62647134Y-95515610D01*
X62669661Y-95488161D01*
X62697110Y-95465634D01*
X62728431Y-95448893D01*
X62762409Y-95438585D01*
X62803890Y-95434500D01*
X63480110Y-95434500D01*
X63521591Y-95438585D01*
G37*
G36*
X101696811Y-93678271D02*
G01*
X101732603Y-93689129D01*
X101765595Y-93706763D01*
X101794508Y-93730492D01*
X101818237Y-93759405D01*
X101835871Y-93792397D01*
X101846729Y-93828189D01*
X101851000Y-93871555D01*
X101851000Y-95928445D01*
X101846729Y-95971811D01*
X101835871Y-96007603D01*
X101818237Y-96040595D01*
X101794508Y-96069508D01*
X101765595Y-96093237D01*
X101732603Y-96110871D01*
X101696811Y-96121729D01*
X101653445Y-96126000D01*
X100621555Y-96126000D01*
X100578189Y-96121729D01*
X100542397Y-96110871D01*
X100509405Y-96093237D01*
X100480492Y-96069508D01*
X100456763Y-96040595D01*
X100439129Y-96007603D01*
X100428271Y-95971811D01*
X100424000Y-95928445D01*
X100424000Y-93871555D01*
X100428271Y-93828189D01*
X100439129Y-93792397D01*
X100456763Y-93759405D01*
X100480492Y-93730492D01*
X100509405Y-93706763D01*
X100542397Y-93689129D01*
X100578189Y-93678271D01*
X100621555Y-93674000D01*
X101653445Y-93674000D01*
X101696811Y-93678271D01*
G37*
G36*
X98621811Y-93678271D02*
G01*
X98657603Y-93689129D01*
X98690595Y-93706763D01*
X98719508Y-93730492D01*
X98743237Y-93759405D01*
X98760871Y-93792397D01*
X98771729Y-93828189D01*
X98776000Y-93871555D01*
X98776000Y-95928445D01*
X98771729Y-95971811D01*
X98760871Y-96007603D01*
X98743237Y-96040595D01*
X98719508Y-96069508D01*
X98690595Y-96093237D01*
X98657603Y-96110871D01*
X98621811Y-96121729D01*
X98578445Y-96126000D01*
X97546555Y-96126000D01*
X97503189Y-96121729D01*
X97467397Y-96110871D01*
X97434405Y-96093237D01*
X97405492Y-96069508D01*
X97381763Y-96040595D01*
X97364129Y-96007603D01*
X97353271Y-95971811D01*
X97349000Y-95928445D01*
X97349000Y-93871555D01*
X97353271Y-93828189D01*
X97364129Y-93792397D01*
X97381763Y-93759405D01*
X97405492Y-93730492D01*
X97434405Y-93706763D01*
X97467397Y-93689129D01*
X97503189Y-93678271D01*
X97546555Y-93674000D01*
X98578445Y-93674000D01*
X98621811Y-93678271D01*
G37*
G36*
X103379591Y-95103085D02*
G01*
X103413569Y-95113393D01*
X103444890Y-95130134D01*
X103472339Y-95152661D01*
X103494866Y-95180110D01*
X103511607Y-95211431D01*
X103521915Y-95245409D01*
X103526000Y-95286890D01*
X103526000Y-95888110D01*
X103521915Y-95929591D01*
X103511607Y-95963569D01*
X103494866Y-95994890D01*
X103472339Y-96022339D01*
X103444890Y-96044866D01*
X103413569Y-96061607D01*
X103379591Y-96071915D01*
X103338110Y-96076000D01*
X102661890Y-96076000D01*
X102620409Y-96071915D01*
X102586431Y-96061607D01*
X102555110Y-96044866D01*
X102527661Y-96022339D01*
X102505134Y-95994890D01*
X102488393Y-95963569D01*
X102478085Y-95929591D01*
X102474000Y-95888110D01*
X102474000Y-95286890D01*
X102478085Y-95245409D01*
X102488393Y-95211431D01*
X102505134Y-95180110D01*
X102527661Y-95152661D01*
X102555110Y-95130134D01*
X102586431Y-95113393D01*
X102620409Y-95103085D01*
X102661890Y-95099000D01*
X103338110Y-95099000D01*
X103379591Y-95103085D01*
G37*
G36*
X80211091Y-94635085D02*
G01*
X80245069Y-94645393D01*
X80276390Y-94662134D01*
X80303839Y-94684661D01*
X80326366Y-94712110D01*
X80343107Y-94743431D01*
X80353415Y-94777409D01*
X80357500Y-94818890D01*
X80357500Y-95495110D01*
X80353415Y-95536591D01*
X80343107Y-95570569D01*
X80326366Y-95601890D01*
X80303839Y-95629339D01*
X80276390Y-95651866D01*
X80245069Y-95668607D01*
X80211091Y-95678915D01*
X80169610Y-95683000D01*
X79568390Y-95683000D01*
X79526909Y-95678915D01*
X79492931Y-95668607D01*
X79461610Y-95651866D01*
X79434161Y-95629339D01*
X79411634Y-95601890D01*
X79394893Y-95570569D01*
X79384585Y-95536591D01*
X79380500Y-95495110D01*
X79380500Y-94818890D01*
X79384585Y-94777409D01*
X79394893Y-94743431D01*
X79411634Y-94712110D01*
X79434161Y-94684661D01*
X79461610Y-94662134D01*
X79492931Y-94645393D01*
X79526909Y-94635085D01*
X79568390Y-94631000D01*
X80169610Y-94631000D01*
X80211091Y-94635085D01*
G37*
G36*
X81786091Y-94635085D02*
G01*
X81820069Y-94645393D01*
X81851390Y-94662134D01*
X81878839Y-94684661D01*
X81901366Y-94712110D01*
X81918107Y-94743431D01*
X81928415Y-94777409D01*
X81932500Y-94818890D01*
X81932500Y-95495110D01*
X81928415Y-95536591D01*
X81918107Y-95570569D01*
X81901366Y-95601890D01*
X81878839Y-95629339D01*
X81851390Y-95651866D01*
X81820069Y-95668607D01*
X81786091Y-95678915D01*
X81744610Y-95683000D01*
X81143390Y-95683000D01*
X81101909Y-95678915D01*
X81067931Y-95668607D01*
X81036610Y-95651866D01*
X81009161Y-95629339D01*
X80986634Y-95601890D01*
X80969893Y-95570569D01*
X80959585Y-95536591D01*
X80955500Y-95495110D01*
X80955500Y-94818890D01*
X80959585Y-94777409D01*
X80969893Y-94743431D01*
X80986634Y-94712110D01*
X81009161Y-94684661D01*
X81036610Y-94662134D01*
X81067931Y-94645393D01*
X81101909Y-94635085D01*
X81143390Y-94631000D01*
X81744610Y-94631000D01*
X81786091Y-94635085D01*
G37*
G36*
X52357142Y-94538908D02*
G01*
X52406636Y-94548753D01*
X52444402Y-94564396D01*
X52497811Y-94586519D01*
X52497812Y-94586520D01*
X52579869Y-94641348D01*
X52649652Y-94711131D01*
X52662928Y-94731000D01*
X52704481Y-94793189D01*
X52718734Y-94827599D01*
X52742247Y-94884364D01*
X52751874Y-94932760D01*
X52761500Y-94981155D01*
X52761500Y-95079845D01*
X52742247Y-95176635D01*
X52704481Y-95267811D01*
X52704480Y-95267812D01*
X52649652Y-95349869D01*
X52579869Y-95419652D01*
X52574285Y-95423383D01*
X52497811Y-95474481D01*
X52469033Y-95486401D01*
X52406636Y-95512247D01*
X52358240Y-95521873D01*
X52309845Y-95531500D01*
X52211155Y-95531500D01*
X52162760Y-95521873D01*
X52114364Y-95512247D01*
X52051967Y-95486401D01*
X52023189Y-95474481D01*
X51946715Y-95423383D01*
X51941131Y-95419652D01*
X51871348Y-95349869D01*
X51816520Y-95267812D01*
X51816519Y-95267811D01*
X51778753Y-95176635D01*
X51759500Y-95079845D01*
X51759500Y-94981155D01*
X51769127Y-94932760D01*
X51778753Y-94884364D01*
X51802266Y-94827599D01*
X51816519Y-94793189D01*
X51858072Y-94731000D01*
X51871348Y-94711131D01*
X51941131Y-94641348D01*
X52023188Y-94586520D01*
X52023189Y-94586519D01*
X52076598Y-94564396D01*
X52114364Y-94548753D01*
X52163858Y-94538908D01*
X52211155Y-94529500D01*
X52309845Y-94529500D01*
X52357142Y-94538908D01*
G37*
G36*
X107883600Y-93702989D02*
G01*
X107916652Y-93713015D01*
X107947103Y-93729292D01*
X107973799Y-93751201D01*
X107995708Y-93777897D01*
X108011985Y-93808348D01*
X108022011Y-93841400D01*
X108026000Y-93881903D01*
X108026000Y-95318097D01*
X108022011Y-95358600D01*
X108011985Y-95391652D01*
X107995708Y-95422103D01*
X107973799Y-95448799D01*
X107947103Y-95470708D01*
X107916652Y-95486985D01*
X107883600Y-95497011D01*
X107843097Y-95501000D01*
X106156903Y-95501000D01*
X106116400Y-95497011D01*
X106083348Y-95486985D01*
X106052897Y-95470708D01*
X106026201Y-95448799D01*
X106004292Y-95422103D01*
X105988015Y-95391652D01*
X105977989Y-95358600D01*
X105974000Y-95318097D01*
X105974000Y-93881903D01*
X105977989Y-93841400D01*
X105988015Y-93808348D01*
X106004292Y-93777897D01*
X106026201Y-93751201D01*
X106052897Y-93729292D01*
X106083348Y-93713015D01*
X106116400Y-93702989D01*
X106156903Y-93699000D01*
X107843097Y-93699000D01*
X107883600Y-93702989D01*
G37*
G36*
X74106564Y-93389389D02*
G01*
X74297833Y-93468615D01*
X74297835Y-93468616D01*
X74469973Y-93583635D01*
X74616365Y-93730027D01*
X74723735Y-93890717D01*
X74731385Y-93902167D01*
X74810611Y-94093436D01*
X74851000Y-94296484D01*
X74851000Y-94503516D01*
X74810611Y-94706564D01*
X74731385Y-94897833D01*
X74731384Y-94897835D01*
X74616365Y-95069973D01*
X74469973Y-95216365D01*
X74297835Y-95331384D01*
X74297834Y-95331385D01*
X74297833Y-95331385D01*
X74106564Y-95410611D01*
X73903516Y-95451000D01*
X73696484Y-95451000D01*
X73493436Y-95410611D01*
X73302167Y-95331385D01*
X73302166Y-95331385D01*
X73302165Y-95331384D01*
X73130027Y-95216365D01*
X72983635Y-95069973D01*
X72868616Y-94897835D01*
X72868615Y-94897833D01*
X72789389Y-94706564D01*
X72749000Y-94503516D01*
X72749000Y-94296484D01*
X72789389Y-94093436D01*
X72868615Y-93902167D01*
X72876266Y-93890717D01*
X72983635Y-93730027D01*
X73130027Y-93583635D01*
X73302165Y-93468616D01*
X73302167Y-93468615D01*
X73493436Y-93389389D01*
X73696484Y-93349000D01*
X73903516Y-93349000D01*
X74106564Y-93389389D01*
G37*
G36*
X83576091Y-94444085D02*
G01*
X83610069Y-94454393D01*
X83641390Y-94471134D01*
X83668839Y-94493661D01*
X83691366Y-94521110D01*
X83708107Y-94552431D01*
X83718415Y-94586409D01*
X83722500Y-94627890D01*
X83722500Y-95229110D01*
X83718415Y-95270591D01*
X83708107Y-95304569D01*
X83691366Y-95335890D01*
X83668839Y-95363339D01*
X83641390Y-95385866D01*
X83610069Y-95402607D01*
X83576091Y-95412915D01*
X83534610Y-95417000D01*
X82858390Y-95417000D01*
X82816909Y-95412915D01*
X82782931Y-95402607D01*
X82751610Y-95385866D01*
X82724161Y-95363339D01*
X82701634Y-95335890D01*
X82684893Y-95304569D01*
X82674585Y-95270591D01*
X82670500Y-95229110D01*
X82670500Y-94627890D01*
X82674585Y-94586409D01*
X82684893Y-94552431D01*
X82701634Y-94521110D01*
X82724161Y-94493661D01*
X82751610Y-94471134D01*
X82782931Y-94454393D01*
X82816909Y-94444085D01*
X82858390Y-94440000D01*
X83534610Y-94440000D01*
X83576091Y-94444085D01*
G37*
G36*
X56311500Y-94806500D02*
G01*
X53709500Y-94806500D01*
X53709500Y-93454500D01*
X56311500Y-93454500D01*
X56311500Y-94806500D01*
G37*
G36*
X63084468Y-93233565D02*
G01*
X63123138Y-93245296D01*
X63158777Y-93264346D01*
X63190017Y-93289983D01*
X63215654Y-93321223D01*
X63234704Y-93356862D01*
X63246435Y-93395532D01*
X63251000Y-93441888D01*
X63251000Y-94518112D01*
X63246435Y-94564468D01*
X63234704Y-94603138D01*
X63215654Y-94638777D01*
X63190017Y-94670017D01*
X63158777Y-94695654D01*
X63123138Y-94714704D01*
X63084468Y-94726435D01*
X63038112Y-94731000D01*
X62386888Y-94731000D01*
X62340532Y-94726435D01*
X62301862Y-94714704D01*
X62266223Y-94695654D01*
X62234983Y-94670017D01*
X62209346Y-94638777D01*
X62190296Y-94603138D01*
X62178565Y-94564468D01*
X62174000Y-94518112D01*
X62174000Y-93441888D01*
X62178565Y-93395532D01*
X62190296Y-93356862D01*
X62209346Y-93321223D01*
X62234983Y-93289983D01*
X62266223Y-93264346D01*
X62301862Y-93245296D01*
X62340532Y-93233565D01*
X62386888Y-93229000D01*
X63038112Y-93229000D01*
X63084468Y-93233565D01*
G37*
G36*
X64959468Y-93233565D02*
G01*
X64998138Y-93245296D01*
X65033777Y-93264346D01*
X65065017Y-93289983D01*
X65090654Y-93321223D01*
X65109704Y-93356862D01*
X65121435Y-93395532D01*
X65126000Y-93441888D01*
X65126000Y-94518112D01*
X65121435Y-94564468D01*
X65109704Y-94603138D01*
X65090654Y-94638777D01*
X65065017Y-94670017D01*
X65033777Y-94695654D01*
X64998138Y-94714704D01*
X64959468Y-94726435D01*
X64913112Y-94731000D01*
X64261888Y-94731000D01*
X64215532Y-94726435D01*
X64176862Y-94714704D01*
X64141223Y-94695654D01*
X64109983Y-94670017D01*
X64084346Y-94638777D01*
X64065296Y-94603138D01*
X64053565Y-94564468D01*
X64049000Y-94518112D01*
X64049000Y-93441888D01*
X64053565Y-93395532D01*
X64065296Y-93356862D01*
X64084346Y-93321223D01*
X64109983Y-93289983D01*
X64141223Y-93264346D01*
X64176862Y-93245296D01*
X64215532Y-93233565D01*
X64261888Y-93229000D01*
X64913112Y-93229000D01*
X64959468Y-93233565D01*
G37*
G36*
X67204591Y-93584585D02*
G01*
X67238569Y-93594893D01*
X67269890Y-93611634D01*
X67297339Y-93634161D01*
X67319866Y-93661610D01*
X67336607Y-93692931D01*
X67346915Y-93726909D01*
X67351000Y-93768390D01*
X67351000Y-94369610D01*
X67346915Y-94411091D01*
X67336607Y-94445069D01*
X67319866Y-94476390D01*
X67297339Y-94503839D01*
X67269890Y-94526366D01*
X67238569Y-94543107D01*
X67204591Y-94553415D01*
X67163110Y-94557500D01*
X66486890Y-94557500D01*
X66445409Y-94553415D01*
X66411431Y-94543107D01*
X66380110Y-94526366D01*
X66352661Y-94503839D01*
X66330134Y-94476390D01*
X66313393Y-94445069D01*
X66303085Y-94411091D01*
X66299000Y-94369610D01*
X66299000Y-93768390D01*
X66303085Y-93726909D01*
X66313393Y-93692931D01*
X66330134Y-93661610D01*
X66352661Y-93634161D01*
X66380110Y-93611634D01*
X66411431Y-93594893D01*
X66445409Y-93584585D01*
X66486890Y-93580500D01*
X67163110Y-93580500D01*
X67204591Y-93584585D01*
G37*
G36*
X61299091Y-93584585D02*
G01*
X61333069Y-93594893D01*
X61364390Y-93611634D01*
X61391839Y-93634161D01*
X61414366Y-93661610D01*
X61431107Y-93692931D01*
X61441415Y-93726909D01*
X61445500Y-93768390D01*
X61445500Y-94369610D01*
X61441415Y-94411091D01*
X61431107Y-94445069D01*
X61414366Y-94476390D01*
X61391839Y-94503839D01*
X61364390Y-94526366D01*
X61333069Y-94543107D01*
X61299091Y-94553415D01*
X61257610Y-94557500D01*
X60581390Y-94557500D01*
X60539909Y-94553415D01*
X60505931Y-94543107D01*
X60474610Y-94526366D01*
X60447161Y-94503839D01*
X60424634Y-94476390D01*
X60407893Y-94445069D01*
X60397585Y-94411091D01*
X60393500Y-94369610D01*
X60393500Y-93768390D01*
X60397585Y-93726909D01*
X60407893Y-93692931D01*
X60424634Y-93661610D01*
X60447161Y-93634161D01*
X60474610Y-93611634D01*
X60505931Y-93594893D01*
X60539909Y-93584585D01*
X60581390Y-93580500D01*
X61257610Y-93580500D01*
X61299091Y-93584585D01*
G37*
G36*
X103379591Y-93528085D02*
G01*
X103413569Y-93538393D01*
X103444890Y-93555134D01*
X103472339Y-93577661D01*
X103494866Y-93605110D01*
X103511607Y-93636431D01*
X103521915Y-93670409D01*
X103526000Y-93711890D01*
X103526000Y-94313110D01*
X103521915Y-94354591D01*
X103511607Y-94388569D01*
X103494866Y-94419890D01*
X103472339Y-94447339D01*
X103444890Y-94469866D01*
X103413569Y-94486607D01*
X103379591Y-94496915D01*
X103338110Y-94501000D01*
X102661890Y-94501000D01*
X102620409Y-94496915D01*
X102586431Y-94486607D01*
X102555110Y-94469866D01*
X102527661Y-94447339D01*
X102505134Y-94419890D01*
X102488393Y-94388569D01*
X102478085Y-94354591D01*
X102474000Y-94313110D01*
X102474000Y-93711890D01*
X102478085Y-93670409D01*
X102488393Y-93636431D01*
X102505134Y-93605110D01*
X102527661Y-93577661D01*
X102555110Y-93555134D01*
X102586431Y-93538393D01*
X102620409Y-93528085D01*
X102661890Y-93524000D01*
X103338110Y-93524000D01*
X103379591Y-93528085D01*
G37*
G36*
X69236591Y-93521085D02*
G01*
X69270569Y-93531393D01*
X69301890Y-93548134D01*
X69329339Y-93570661D01*
X69351866Y-93598110D01*
X69368607Y-93629431D01*
X69378915Y-93663409D01*
X69383000Y-93704890D01*
X69383000Y-94306110D01*
X69378915Y-94347591D01*
X69368607Y-94381569D01*
X69351866Y-94412890D01*
X69329339Y-94440339D01*
X69301890Y-94462866D01*
X69270569Y-94479607D01*
X69236591Y-94489915D01*
X69195110Y-94494000D01*
X68518890Y-94494000D01*
X68477409Y-94489915D01*
X68443431Y-94479607D01*
X68412110Y-94462866D01*
X68384661Y-94440339D01*
X68362134Y-94412890D01*
X68345393Y-94381569D01*
X68335085Y-94347591D01*
X68331000Y-94306110D01*
X68331000Y-93704890D01*
X68335085Y-93663409D01*
X68345393Y-93629431D01*
X68362134Y-93598110D01*
X68384661Y-93570661D01*
X68412110Y-93548134D01*
X68443431Y-93531393D01*
X68477409Y-93521085D01*
X68518890Y-93517000D01*
X69195110Y-93517000D01*
X69236591Y-93521085D01*
G37*
G36*
X83576091Y-92869085D02*
G01*
X83610069Y-92879393D01*
X83641390Y-92896134D01*
X83668839Y-92918661D01*
X83691366Y-92946110D01*
X83708107Y-92977431D01*
X83718415Y-93011409D01*
X83722500Y-93052890D01*
X83722500Y-93654110D01*
X83718415Y-93695591D01*
X83708107Y-93729569D01*
X83691366Y-93760890D01*
X83668839Y-93788339D01*
X83641390Y-93810866D01*
X83610069Y-93827607D01*
X83576091Y-93837915D01*
X83534610Y-93842000D01*
X82858390Y-93842000D01*
X82816909Y-93837915D01*
X82782931Y-93827607D01*
X82751610Y-93810866D01*
X82724161Y-93788339D01*
X82701634Y-93760890D01*
X82684893Y-93729569D01*
X82674585Y-93695591D01*
X82670500Y-93654110D01*
X82670500Y-93052890D01*
X82674585Y-93011409D01*
X82684893Y-92977431D01*
X82701634Y-92946110D01*
X82724161Y-92918661D01*
X82751610Y-92896134D01*
X82782931Y-92879393D01*
X82816909Y-92869085D01*
X82858390Y-92865000D01*
X83534610Y-92865000D01*
X83576091Y-92869085D01*
G37*
G36*
X80090968Y-92124565D02*
G01*
X80129638Y-92136296D01*
X80165277Y-92155346D01*
X80196517Y-92180983D01*
X80222154Y-92212223D01*
X80241204Y-92247862D01*
X80252935Y-92286532D01*
X80257500Y-92332888D01*
X80257500Y-93409112D01*
X80252935Y-93455468D01*
X80241204Y-93494138D01*
X80222154Y-93529777D01*
X80196517Y-93561017D01*
X80165277Y-93586654D01*
X80129638Y-93605704D01*
X80090968Y-93617435D01*
X80044612Y-93622000D01*
X79393388Y-93622000D01*
X79347032Y-93617435D01*
X79308362Y-93605704D01*
X79272723Y-93586654D01*
X79241483Y-93561017D01*
X79215846Y-93529777D01*
X79196796Y-93494138D01*
X79185065Y-93455468D01*
X79180500Y-93409112D01*
X79180500Y-92332888D01*
X79185065Y-92286532D01*
X79196796Y-92247862D01*
X79215846Y-92212223D01*
X79241483Y-92180983D01*
X79272723Y-92155346D01*
X79308362Y-92136296D01*
X79347032Y-92124565D01*
X79393388Y-92120000D01*
X80044612Y-92120000D01*
X80090968Y-92124565D01*
G37*
G36*
X81965968Y-92124565D02*
G01*
X82004638Y-92136296D01*
X82040277Y-92155346D01*
X82071517Y-92180983D01*
X82097154Y-92212223D01*
X82116204Y-92247862D01*
X82127935Y-92286532D01*
X82132500Y-92332888D01*
X82132500Y-93409112D01*
X82127935Y-93455468D01*
X82116204Y-93494138D01*
X82097154Y-93529777D01*
X82071517Y-93561017D01*
X82040277Y-93586654D01*
X82004638Y-93605704D01*
X81965968Y-93617435D01*
X81919612Y-93622000D01*
X81268388Y-93622000D01*
X81222032Y-93617435D01*
X81183362Y-93605704D01*
X81147723Y-93586654D01*
X81116483Y-93561017D01*
X81090846Y-93529777D01*
X81071796Y-93494138D01*
X81060065Y-93455468D01*
X81055500Y-93409112D01*
X81055500Y-92332888D01*
X81060065Y-92286532D01*
X81071796Y-92247862D01*
X81090846Y-92212223D01*
X81116483Y-92180983D01*
X81147723Y-92155346D01*
X81183362Y-92136296D01*
X81222032Y-92124565D01*
X81268388Y-92120000D01*
X81919612Y-92120000D01*
X81965968Y-92124565D01*
G37*
G36*
X88324632Y-90961810D02*
G01*
X88355923Y-90971302D01*
X88384763Y-90986717D01*
X88410039Y-91007461D01*
X88430783Y-91032737D01*
X88446198Y-91061577D01*
X88455690Y-91092868D01*
X88459500Y-91131551D01*
X88459500Y-92961449D01*
X88455690Y-93000132D01*
X88446198Y-93031423D01*
X88430783Y-93060263D01*
X88410039Y-93085539D01*
X88384763Y-93106283D01*
X88355923Y-93121698D01*
X88324632Y-93131190D01*
X88285949Y-93135000D01*
X85981051Y-93135000D01*
X85942368Y-93131190D01*
X85911077Y-93121698D01*
X85882237Y-93106283D01*
X85856961Y-93085539D01*
X85836217Y-93060263D01*
X85820802Y-93031423D01*
X85811310Y-93000132D01*
X85807500Y-92961449D01*
X85807500Y-91131551D01*
X85811310Y-91092868D01*
X85820802Y-91061577D01*
X85836217Y-91032737D01*
X85856961Y-91007461D01*
X85882237Y-90986717D01*
X85911077Y-90971302D01*
X85942368Y-90961810D01*
X85981051Y-90958000D01*
X88285949Y-90958000D01*
X88324632Y-90961810D01*
G37*
G36*
X107235443Y-91205519D02*
G01*
X107301627Y-91212037D01*
X107471466Y-91263557D01*
X107471468Y-91263558D01*
X107474166Y-91265000D01*
X107627991Y-91347222D01*
X107661838Y-91375000D01*
X107765186Y-91459814D01*
X107822712Y-91529911D01*
X107877778Y-91597009D01*
X107886860Y-91614000D01*
X107961373Y-91753402D01*
X107961443Y-91753534D01*
X108012963Y-91923373D01*
X108030359Y-92100000D01*
X108012963Y-92276627D01*
X107961443Y-92446466D01*
X107877778Y-92602991D01*
X107848448Y-92638729D01*
X107765186Y-92740186D01*
X107679570Y-92810448D01*
X107627991Y-92852778D01*
X107471466Y-92936443D01*
X107301627Y-92987963D01*
X107235442Y-92994482D01*
X107169260Y-93001000D01*
X106830740Y-93001000D01*
X106764558Y-92994482D01*
X106698373Y-92987963D01*
X106528534Y-92936443D01*
X106372009Y-92852778D01*
X106320430Y-92810448D01*
X106234814Y-92740186D01*
X106151552Y-92638729D01*
X106122222Y-92602991D01*
X106038557Y-92446466D01*
X105987037Y-92276627D01*
X105969641Y-92100000D01*
X105987037Y-91923373D01*
X106038557Y-91753534D01*
X106038628Y-91753402D01*
X106113140Y-91614000D01*
X106122222Y-91597009D01*
X106177288Y-91529911D01*
X106234814Y-91459814D01*
X106338162Y-91375000D01*
X106372009Y-91347222D01*
X106525834Y-91265000D01*
X106528532Y-91263558D01*
X106528534Y-91263557D01*
X106698373Y-91212037D01*
X106764557Y-91205519D01*
X106830740Y-91199000D01*
X107169260Y-91199000D01*
X107235443Y-91205519D01*
G37*
G36*
X67204591Y-92009585D02*
G01*
X67238569Y-92019893D01*
X67269890Y-92036634D01*
X67297339Y-92059161D01*
X67319866Y-92086610D01*
X67336607Y-92117931D01*
X67346915Y-92151909D01*
X67351000Y-92193390D01*
X67351000Y-92794610D01*
X67346915Y-92836091D01*
X67336607Y-92870069D01*
X67319866Y-92901390D01*
X67297339Y-92928839D01*
X67269890Y-92951366D01*
X67238569Y-92968107D01*
X67204591Y-92978415D01*
X67163110Y-92982500D01*
X66486890Y-92982500D01*
X66445409Y-92978415D01*
X66411431Y-92968107D01*
X66380110Y-92951366D01*
X66352661Y-92928839D01*
X66330134Y-92901390D01*
X66313393Y-92870069D01*
X66303085Y-92836091D01*
X66299000Y-92794610D01*
X66299000Y-92193390D01*
X66303085Y-92151909D01*
X66313393Y-92117931D01*
X66330134Y-92086610D01*
X66352661Y-92059161D01*
X66380110Y-92036634D01*
X66411431Y-92019893D01*
X66445409Y-92009585D01*
X66486890Y-92005500D01*
X67163110Y-92005500D01*
X67204591Y-92009585D01*
G37*
G36*
X61299091Y-92009585D02*
G01*
X61333069Y-92019893D01*
X61364390Y-92036634D01*
X61391839Y-92059161D01*
X61414366Y-92086610D01*
X61431107Y-92117931D01*
X61441415Y-92151909D01*
X61445500Y-92193390D01*
X61445500Y-92794610D01*
X61441415Y-92836091D01*
X61431107Y-92870069D01*
X61414366Y-92901390D01*
X61391839Y-92928839D01*
X61364390Y-92951366D01*
X61333069Y-92968107D01*
X61299091Y-92978415D01*
X61257610Y-92982500D01*
X60581390Y-92982500D01*
X60539909Y-92978415D01*
X60505931Y-92968107D01*
X60474610Y-92951366D01*
X60447161Y-92928839D01*
X60424634Y-92901390D01*
X60407893Y-92870069D01*
X60397585Y-92836091D01*
X60393500Y-92794610D01*
X60393500Y-92193390D01*
X60397585Y-92151909D01*
X60407893Y-92117931D01*
X60424634Y-92086610D01*
X60447161Y-92059161D01*
X60474610Y-92036634D01*
X60505931Y-92019893D01*
X60539909Y-92009585D01*
X60581390Y-92005500D01*
X61257610Y-92005500D01*
X61299091Y-92009585D01*
G37*
G36*
X69236591Y-91946085D02*
G01*
X69270569Y-91956393D01*
X69301890Y-91973134D01*
X69329339Y-91995661D01*
X69351866Y-92023110D01*
X69368607Y-92054431D01*
X69378915Y-92088409D01*
X69383000Y-92129890D01*
X69383000Y-92731110D01*
X69378915Y-92772591D01*
X69368607Y-92806569D01*
X69351866Y-92837890D01*
X69329339Y-92865339D01*
X69301890Y-92887866D01*
X69270569Y-92904607D01*
X69236591Y-92914915D01*
X69195110Y-92919000D01*
X68518890Y-92919000D01*
X68477409Y-92914915D01*
X68443431Y-92904607D01*
X68412110Y-92887866D01*
X68384661Y-92865339D01*
X68362134Y-92837890D01*
X68345393Y-92806569D01*
X68335085Y-92772591D01*
X68331000Y-92731110D01*
X68331000Y-92129890D01*
X68335085Y-92088409D01*
X68345393Y-92054431D01*
X68362134Y-92023110D01*
X68384661Y-91995661D01*
X68412110Y-91973134D01*
X68443431Y-91956393D01*
X68477409Y-91946085D01*
X68518890Y-91942000D01*
X69195110Y-91942000D01*
X69236591Y-91946085D01*
G37*
G36*
X63286355Y-88876083D02*
G01*
X63291029Y-88877501D01*
X63295330Y-88879800D01*
X63301702Y-88885029D01*
X63322076Y-88898643D01*
X63344715Y-88908020D01*
X63368749Y-88912800D01*
X63393253Y-88912800D01*
X63417286Y-88908019D01*
X63439925Y-88898642D01*
X63460298Y-88885029D01*
X63466670Y-88879800D01*
X63470971Y-88877501D01*
X63475645Y-88876083D01*
X63486641Y-88875000D01*
X63775359Y-88875000D01*
X63786355Y-88876083D01*
X63791029Y-88877501D01*
X63795330Y-88879800D01*
X63801702Y-88885029D01*
X63822076Y-88898643D01*
X63844715Y-88908020D01*
X63868749Y-88912800D01*
X63893253Y-88912800D01*
X63917286Y-88908019D01*
X63939925Y-88898642D01*
X63960298Y-88885029D01*
X63966670Y-88879800D01*
X63970971Y-88877501D01*
X63975645Y-88876083D01*
X63986641Y-88875000D01*
X64275359Y-88875000D01*
X64286355Y-88876083D01*
X64291029Y-88877501D01*
X64295330Y-88879800D01*
X64301702Y-88885029D01*
X64322076Y-88898643D01*
X64344715Y-88908020D01*
X64368749Y-88912800D01*
X64393253Y-88912800D01*
X64417286Y-88908019D01*
X64439925Y-88898642D01*
X64460298Y-88885029D01*
X64466670Y-88879800D01*
X64470971Y-88877501D01*
X64475645Y-88876083D01*
X64486641Y-88875000D01*
X64775359Y-88875000D01*
X64786355Y-88876083D01*
X64791029Y-88877501D01*
X64795331Y-88879800D01*
X64799104Y-88882896D01*
X64802200Y-88886669D01*
X64804499Y-88890971D01*
X64805917Y-88895645D01*
X64807000Y-88906641D01*
X64807000Y-89750001D01*
X64809402Y-89774387D01*
X64816515Y-89797836D01*
X64828066Y-89819447D01*
X64843611Y-89838389D01*
X64862553Y-89853934D01*
X64884164Y-89865485D01*
X64907613Y-89872598D01*
X64931999Y-89875000D01*
X65775359Y-89875000D01*
X65786355Y-89876083D01*
X65791029Y-89877501D01*
X65795331Y-89879800D01*
X65799104Y-89882896D01*
X65802200Y-89886669D01*
X65804499Y-89890971D01*
X65805917Y-89895645D01*
X65807000Y-89906641D01*
X65807000Y-90195359D01*
X65805917Y-90206355D01*
X65804499Y-90211029D01*
X65802200Y-90215330D01*
X65796971Y-90221702D01*
X65783357Y-90242076D01*
X65773980Y-90264715D01*
X65769200Y-90288749D01*
X65769200Y-90313253D01*
X65773981Y-90337286D01*
X65783358Y-90359925D01*
X65796971Y-90380298D01*
X65802200Y-90386670D01*
X65804499Y-90390971D01*
X65805917Y-90395645D01*
X65807000Y-90406641D01*
X65807000Y-90695359D01*
X65805917Y-90706355D01*
X65804499Y-90711029D01*
X65802200Y-90715330D01*
X65796971Y-90721702D01*
X65783357Y-90742076D01*
X65773980Y-90764715D01*
X65769200Y-90788749D01*
X65769200Y-90813253D01*
X65773981Y-90837286D01*
X65783358Y-90859925D01*
X65796971Y-90880298D01*
X65802200Y-90886670D01*
X65804499Y-90890971D01*
X65805917Y-90895645D01*
X65807000Y-90906641D01*
X65807000Y-91195359D01*
X65805917Y-91206355D01*
X65804499Y-91211029D01*
X65802200Y-91215330D01*
X65796971Y-91221702D01*
X65783357Y-91242076D01*
X65773980Y-91264715D01*
X65769200Y-91288749D01*
X65769200Y-91313253D01*
X65773981Y-91337286D01*
X65783358Y-91359925D01*
X65796971Y-91380298D01*
X65802200Y-91386670D01*
X65804499Y-91390971D01*
X65805917Y-91395645D01*
X65807000Y-91406641D01*
X65807000Y-91695359D01*
X65805917Y-91706355D01*
X65804499Y-91711029D01*
X65802200Y-91715331D01*
X65799104Y-91719104D01*
X65795331Y-91722200D01*
X65791029Y-91724499D01*
X65786355Y-91725917D01*
X65775359Y-91727000D01*
X64931999Y-91727000D01*
X64907613Y-91729402D01*
X64884164Y-91736515D01*
X64862553Y-91748066D01*
X64843611Y-91763611D01*
X64828066Y-91782553D01*
X64816515Y-91804164D01*
X64809402Y-91827613D01*
X64807000Y-91851999D01*
X64807000Y-92695359D01*
X64805917Y-92706355D01*
X64804499Y-92711029D01*
X64802200Y-92715331D01*
X64799104Y-92719104D01*
X64795331Y-92722200D01*
X64791029Y-92724499D01*
X64786355Y-92725917D01*
X64775359Y-92727000D01*
X64486641Y-92727000D01*
X64475645Y-92725917D01*
X64470971Y-92724499D01*
X64466670Y-92722200D01*
X64460298Y-92716971D01*
X64439924Y-92703357D01*
X64417285Y-92693980D01*
X64393251Y-92689200D01*
X64368747Y-92689200D01*
X64344714Y-92693981D01*
X64322075Y-92703358D01*
X64301702Y-92716971D01*
X64295330Y-92722200D01*
X64291029Y-92724499D01*
X64286355Y-92725917D01*
X64275359Y-92727000D01*
X63986641Y-92727000D01*
X63975645Y-92725917D01*
X63970971Y-92724499D01*
X63966670Y-92722200D01*
X63960298Y-92716971D01*
X63939924Y-92703357D01*
X63917285Y-92693980D01*
X63893251Y-92689200D01*
X63868747Y-92689200D01*
X63844714Y-92693981D01*
X63822075Y-92703358D01*
X63801702Y-92716971D01*
X63795330Y-92722200D01*
X63791029Y-92724499D01*
X63786355Y-92725917D01*
X63775359Y-92727000D01*
X63486641Y-92727000D01*
X63475645Y-92725917D01*
X63470971Y-92724499D01*
X63466670Y-92722200D01*
X63460298Y-92716971D01*
X63439924Y-92703357D01*
X63417285Y-92693980D01*
X63393251Y-92689200D01*
X63368747Y-92689200D01*
X63344714Y-92693981D01*
X63322075Y-92703358D01*
X63301702Y-92716971D01*
X63295330Y-92722200D01*
X63291029Y-92724499D01*
X63286355Y-92725917D01*
X63275359Y-92727000D01*
X62986641Y-92727000D01*
X62975645Y-92725917D01*
X62970971Y-92724499D01*
X62966669Y-92722200D01*
X62962896Y-92719104D01*
X62959800Y-92715331D01*
X62957501Y-92711029D01*
X62956083Y-92706355D01*
X62955000Y-92695359D01*
X62955000Y-91851999D01*
X62952598Y-91827613D01*
X62945485Y-91804164D01*
X62933934Y-91782553D01*
X62918389Y-91763611D01*
X62899447Y-91748066D01*
X62877836Y-91736515D01*
X62854387Y-91729402D01*
X62830001Y-91727000D01*
X61986641Y-91727000D01*
X61975645Y-91725917D01*
X61970971Y-91724499D01*
X61966669Y-91722200D01*
X61962896Y-91719104D01*
X61959800Y-91715331D01*
X61957501Y-91711029D01*
X61956083Y-91706355D01*
X61955000Y-91695359D01*
X61955000Y-91406641D01*
X61956083Y-91395645D01*
X61957501Y-91390971D01*
X61959800Y-91386670D01*
X61965029Y-91380298D01*
X61978643Y-91359924D01*
X61988020Y-91337285D01*
X61992800Y-91313251D01*
X61992800Y-91288747D01*
X61988019Y-91264714D01*
X61978642Y-91242075D01*
X61965029Y-91221702D01*
X61959800Y-91215330D01*
X61957501Y-91211029D01*
X61956083Y-91206355D01*
X61955000Y-91195359D01*
X61955000Y-90906641D01*
X61956083Y-90895645D01*
X61957501Y-90890971D01*
X61959800Y-90886670D01*
X61965029Y-90880298D01*
X61978643Y-90859924D01*
X61988020Y-90837285D01*
X61992800Y-90813251D01*
X61992800Y-90788747D01*
X61988019Y-90764714D01*
X61978642Y-90742075D01*
X61965029Y-90721702D01*
X61959800Y-90715330D01*
X61957501Y-90711029D01*
X61956083Y-90706355D01*
X61955000Y-90695359D01*
X61955000Y-90406641D01*
X61956083Y-90395645D01*
X61957501Y-90390971D01*
X61959800Y-90386670D01*
X61965029Y-90380298D01*
X61978643Y-90359924D01*
X61988020Y-90337285D01*
X61992800Y-90313251D01*
X61992800Y-90288747D01*
X61988019Y-90264714D01*
X61978642Y-90242075D01*
X61965029Y-90221702D01*
X61959800Y-90215330D01*
X61957501Y-90211029D01*
X61956083Y-90206355D01*
X61955000Y-90195359D01*
X61955000Y-89906641D01*
X61956083Y-89895645D01*
X61957501Y-89890971D01*
X61959800Y-89886669D01*
X61962896Y-89882896D01*
X61966669Y-89879800D01*
X61970971Y-89877501D01*
X61975645Y-89876083D01*
X61986641Y-89875000D01*
X62830001Y-89875000D01*
X62854387Y-89872598D01*
X62877836Y-89865485D01*
X62899447Y-89853934D01*
X62918389Y-89838389D01*
X62933934Y-89819447D01*
X62945485Y-89797836D01*
X62952598Y-89774387D01*
X62955000Y-89750001D01*
X62955000Y-88906641D01*
X62956083Y-88895645D01*
X62957501Y-88890971D01*
X62959800Y-88886669D01*
X62962896Y-88882896D01*
X62966669Y-88879800D01*
X62970971Y-88877501D01*
X62975645Y-88876083D01*
X62986641Y-88875000D01*
X63275359Y-88875000D01*
X63286355Y-88876083D01*
G37*
G36*
X100640416Y-88874843D02*
G01*
X100644556Y-88876099D01*
X100663716Y-88884035D01*
X100687750Y-88888815D01*
X100712254Y-88888815D01*
X100736287Y-88884034D01*
X100755445Y-88876099D01*
X100759584Y-88874843D01*
X100768143Y-88874000D01*
X101031857Y-88874000D01*
X101040416Y-88874843D01*
X101044556Y-88876099D01*
X101063716Y-88884035D01*
X101087750Y-88888815D01*
X101112254Y-88888815D01*
X101136287Y-88884034D01*
X101155445Y-88876099D01*
X101159584Y-88874843D01*
X101168143Y-88874000D01*
X101431857Y-88874000D01*
X101440416Y-88874843D01*
X101444556Y-88876099D01*
X101463716Y-88884035D01*
X101487750Y-88888815D01*
X101512254Y-88888815D01*
X101536287Y-88884034D01*
X101555445Y-88876099D01*
X101559584Y-88874843D01*
X101568143Y-88874000D01*
X101831857Y-88874000D01*
X101840416Y-88874843D01*
X101844556Y-88876099D01*
X101863716Y-88884035D01*
X101887750Y-88888815D01*
X101912254Y-88888815D01*
X101936287Y-88884034D01*
X101955445Y-88876099D01*
X101959584Y-88874843D01*
X101968143Y-88874000D01*
X102231857Y-88874000D01*
X102240416Y-88874843D01*
X102242745Y-88875550D01*
X102244887Y-88876695D01*
X102246765Y-88878235D01*
X102248305Y-88880113D01*
X102249450Y-88882255D01*
X102250157Y-88884584D01*
X102251000Y-88893143D01*
X102251000Y-89724001D01*
X102253402Y-89748387D01*
X102260515Y-89771836D01*
X102272066Y-89793447D01*
X102287611Y-89812389D01*
X102306553Y-89827934D01*
X102328164Y-89839485D01*
X102351613Y-89846598D01*
X102375999Y-89849000D01*
X103206857Y-89849000D01*
X103215416Y-89849843D01*
X103217745Y-89850550D01*
X103219887Y-89851695D01*
X103221765Y-89853235D01*
X103223305Y-89855113D01*
X103224450Y-89857255D01*
X103225157Y-89859584D01*
X103226000Y-89868143D01*
X103226000Y-90131857D01*
X103225157Y-90140416D01*
X103223901Y-90144556D01*
X103215965Y-90163716D01*
X103211185Y-90187750D01*
X103211185Y-90212254D01*
X103215966Y-90236287D01*
X103223901Y-90255445D01*
X103225157Y-90259584D01*
X103226000Y-90268143D01*
X103226000Y-90531857D01*
X103225157Y-90540416D01*
X103223901Y-90544556D01*
X103215965Y-90563716D01*
X103211185Y-90587750D01*
X103211185Y-90612254D01*
X103215966Y-90636287D01*
X103223901Y-90655445D01*
X103225157Y-90659584D01*
X103226000Y-90668143D01*
X103226000Y-90931857D01*
X103225157Y-90940416D01*
X103223901Y-90944556D01*
X103215965Y-90963716D01*
X103211185Y-90987750D01*
X103211185Y-91012254D01*
X103215966Y-91036287D01*
X103223901Y-91055445D01*
X103225157Y-91059584D01*
X103226000Y-91068143D01*
X103226000Y-91331857D01*
X103225157Y-91340416D01*
X103223901Y-91344556D01*
X103215965Y-91363716D01*
X103211185Y-91387750D01*
X103211185Y-91412254D01*
X103215966Y-91436287D01*
X103223901Y-91455445D01*
X103225157Y-91459584D01*
X103226000Y-91468143D01*
X103226000Y-91731857D01*
X103225157Y-91740416D01*
X103224450Y-91742745D01*
X103223305Y-91744887D01*
X103221765Y-91746765D01*
X103219887Y-91748305D01*
X103217745Y-91749450D01*
X103215416Y-91750157D01*
X103206857Y-91751000D01*
X102375999Y-91751000D01*
X102351613Y-91753402D01*
X102328164Y-91760515D01*
X102306553Y-91772066D01*
X102287611Y-91787611D01*
X102272066Y-91806553D01*
X102260515Y-91828164D01*
X102253402Y-91851613D01*
X102251000Y-91875999D01*
X102251000Y-92706857D01*
X102250157Y-92715416D01*
X102249450Y-92717745D01*
X102248305Y-92719887D01*
X102246765Y-92721765D01*
X102244887Y-92723305D01*
X102242745Y-92724450D01*
X102240416Y-92725157D01*
X102231857Y-92726000D01*
X101968143Y-92726000D01*
X101959584Y-92725157D01*
X101955444Y-92723901D01*
X101936284Y-92715965D01*
X101912250Y-92711185D01*
X101887746Y-92711185D01*
X101863713Y-92715966D01*
X101844555Y-92723901D01*
X101840416Y-92725157D01*
X101831857Y-92726000D01*
X101568143Y-92726000D01*
X101559584Y-92725157D01*
X101555444Y-92723901D01*
X101536284Y-92715965D01*
X101512250Y-92711185D01*
X101487746Y-92711185D01*
X101463713Y-92715966D01*
X101444555Y-92723901D01*
X101440416Y-92725157D01*
X101431857Y-92726000D01*
X101168143Y-92726000D01*
X101159584Y-92725157D01*
X101155444Y-92723901D01*
X101136284Y-92715965D01*
X101112250Y-92711185D01*
X101087746Y-92711185D01*
X101063713Y-92715966D01*
X101044555Y-92723901D01*
X101040416Y-92725157D01*
X101031857Y-92726000D01*
X100768143Y-92726000D01*
X100759584Y-92725157D01*
X100755444Y-92723901D01*
X100736284Y-92715965D01*
X100712250Y-92711185D01*
X100687746Y-92711185D01*
X100663713Y-92715966D01*
X100644555Y-92723901D01*
X100640416Y-92725157D01*
X100631857Y-92726000D01*
X100368143Y-92726000D01*
X100359584Y-92725157D01*
X100357255Y-92724450D01*
X100355113Y-92723305D01*
X100353235Y-92721765D01*
X100351695Y-92719887D01*
X100350550Y-92717745D01*
X100349843Y-92715416D01*
X100349000Y-92706857D01*
X100349000Y-91875999D01*
X100346598Y-91851613D01*
X100339485Y-91828164D01*
X100327934Y-91806553D01*
X100312389Y-91787611D01*
X100293447Y-91772066D01*
X100271836Y-91760515D01*
X100248387Y-91753402D01*
X100224001Y-91751000D01*
X99393143Y-91751000D01*
X99384584Y-91750157D01*
X99382255Y-91749450D01*
X99380113Y-91748305D01*
X99378235Y-91746765D01*
X99376695Y-91744887D01*
X99375550Y-91742745D01*
X99374843Y-91740416D01*
X99374000Y-91731857D01*
X99374000Y-91468143D01*
X99374843Y-91459584D01*
X99376099Y-91455444D01*
X99384035Y-91436284D01*
X99388815Y-91412250D01*
X99388815Y-91387746D01*
X99384034Y-91363713D01*
X99376099Y-91344555D01*
X99374843Y-91340416D01*
X99374000Y-91331857D01*
X99374000Y-91068143D01*
X99374843Y-91059584D01*
X99376099Y-91055444D01*
X99384035Y-91036284D01*
X99388815Y-91012250D01*
X99388815Y-90987746D01*
X99384034Y-90963713D01*
X99376099Y-90944555D01*
X99374843Y-90940416D01*
X99374000Y-90931857D01*
X99374000Y-90668143D01*
X99374843Y-90659584D01*
X99376099Y-90655444D01*
X99384035Y-90636284D01*
X99388815Y-90612250D01*
X99388815Y-90587746D01*
X99384034Y-90563713D01*
X99376099Y-90544555D01*
X99374843Y-90540416D01*
X99374000Y-90531857D01*
X99374000Y-90268143D01*
X99374843Y-90259584D01*
X99376099Y-90255444D01*
X99384035Y-90236284D01*
X99388815Y-90212250D01*
X99388815Y-90187746D01*
X99384034Y-90163713D01*
X99376099Y-90144555D01*
X99374843Y-90140416D01*
X99374000Y-90131857D01*
X99374000Y-89868143D01*
X99374843Y-89859584D01*
X99375550Y-89857255D01*
X99376695Y-89855113D01*
X99378235Y-89853235D01*
X99380113Y-89851695D01*
X99382255Y-89850550D01*
X99384584Y-89849843D01*
X99393143Y-89849000D01*
X100224001Y-89849000D01*
X100248387Y-89846598D01*
X100271836Y-89839485D01*
X100293447Y-89827934D01*
X100312389Y-89812389D01*
X100327934Y-89793447D01*
X100339485Y-89771836D01*
X100346598Y-89748387D01*
X100349000Y-89724001D01*
X100349000Y-88893143D01*
X100349843Y-88884584D01*
X100350550Y-88882255D01*
X100351695Y-88880113D01*
X100353235Y-88878235D01*
X100355113Y-88876695D01*
X100357255Y-88875550D01*
X100359584Y-88874843D01*
X100368143Y-88874000D01*
X100631857Y-88874000D01*
X100640416Y-88874843D01*
G37*
G36*
X56311500Y-92306500D02*
G01*
X53709500Y-92306500D01*
X53709500Y-90954500D01*
X56311500Y-90954500D01*
X56311500Y-92306500D01*
G37*
G36*
X58179591Y-91303085D02*
G01*
X58213569Y-91313393D01*
X58244890Y-91330134D01*
X58272339Y-91352661D01*
X58294866Y-91380110D01*
X58311607Y-91411431D01*
X58321915Y-91445409D01*
X58326000Y-91486890D01*
X58326000Y-92088110D01*
X58321915Y-92129591D01*
X58311607Y-92163569D01*
X58294866Y-92194890D01*
X58272339Y-92222339D01*
X58244890Y-92244866D01*
X58213569Y-92261607D01*
X58179591Y-92271915D01*
X58138110Y-92276000D01*
X57461890Y-92276000D01*
X57420409Y-92271915D01*
X57386431Y-92261607D01*
X57355110Y-92244866D01*
X57327661Y-92222339D01*
X57305134Y-92194890D01*
X57288393Y-92163569D01*
X57278085Y-92129591D01*
X57274000Y-92088110D01*
X57274000Y-91486890D01*
X57278085Y-91445409D01*
X57288393Y-91411431D01*
X57305134Y-91380110D01*
X57327661Y-91352661D01*
X57355110Y-91330134D01*
X57386431Y-91313393D01*
X57420409Y-91303085D01*
X57461890Y-91299000D01*
X58138110Y-91299000D01*
X58179591Y-91303085D01*
G37*
G36*
X98679591Y-90703085D02*
G01*
X98713569Y-90713393D01*
X98744890Y-90730134D01*
X98772339Y-90752661D01*
X98794866Y-90780110D01*
X98811607Y-90811431D01*
X98821915Y-90845409D01*
X98826000Y-90886890D01*
X98826000Y-91488110D01*
X98821915Y-91529591D01*
X98811607Y-91563569D01*
X98794866Y-91594890D01*
X98772339Y-91622339D01*
X98744890Y-91644866D01*
X98713569Y-91661607D01*
X98679591Y-91671915D01*
X98638110Y-91676000D01*
X97961890Y-91676000D01*
X97920409Y-91671915D01*
X97886431Y-91661607D01*
X97855110Y-91644866D01*
X97827661Y-91622339D01*
X97805134Y-91594890D01*
X97788393Y-91563569D01*
X97778085Y-91529591D01*
X97774000Y-91488110D01*
X97774000Y-90886890D01*
X97778085Y-90845409D01*
X97788393Y-90811431D01*
X97805134Y-90780110D01*
X97827661Y-90752661D01*
X97855110Y-90730134D01*
X97886431Y-90713393D01*
X97920409Y-90703085D01*
X97961890Y-90699000D01*
X98638110Y-90699000D01*
X98679591Y-90703085D01*
G37*
G36*
X80755732Y-86763563D02*
G01*
X80765095Y-86766403D01*
X80773724Y-86771016D01*
X80781282Y-86777218D01*
X80790479Y-86788425D01*
X80798874Y-86800990D01*
X80816201Y-86818317D01*
X80836576Y-86831931D01*
X80859214Y-86841309D01*
X80883248Y-86846089D01*
X80907752Y-86846089D01*
X80931785Y-86841309D01*
X80954424Y-86831931D01*
X80974798Y-86818318D01*
X80992125Y-86800991D01*
X81000521Y-86788426D01*
X81009718Y-86777218D01*
X81017276Y-86771016D01*
X81025905Y-86766403D01*
X81035268Y-86763563D01*
X81051140Y-86762000D01*
X81389860Y-86762000D01*
X81405732Y-86763563D01*
X81415095Y-86766403D01*
X81423724Y-86771016D01*
X81431282Y-86777218D01*
X81440479Y-86788425D01*
X81448874Y-86800990D01*
X81466201Y-86818317D01*
X81486576Y-86831931D01*
X81509214Y-86841309D01*
X81533248Y-86846089D01*
X81557752Y-86846089D01*
X81581785Y-86841309D01*
X81604424Y-86831931D01*
X81624798Y-86818318D01*
X81642125Y-86800991D01*
X81650521Y-86788426D01*
X81659718Y-86777218D01*
X81667276Y-86771016D01*
X81675905Y-86766403D01*
X81685268Y-86763563D01*
X81701140Y-86762000D01*
X82039860Y-86762000D01*
X82055732Y-86763563D01*
X82065095Y-86766403D01*
X82073724Y-86771016D01*
X82081282Y-86777218D01*
X82090479Y-86788425D01*
X82098874Y-86800990D01*
X82116201Y-86818317D01*
X82136576Y-86831931D01*
X82159214Y-86841309D01*
X82183248Y-86846089D01*
X82207752Y-86846089D01*
X82231785Y-86841309D01*
X82254424Y-86831931D01*
X82274798Y-86818318D01*
X82292125Y-86800991D01*
X82300521Y-86788426D01*
X82309718Y-86777218D01*
X82317276Y-86771016D01*
X82325905Y-86766403D01*
X82335268Y-86763563D01*
X82351140Y-86762000D01*
X82689860Y-86762000D01*
X82705732Y-86763563D01*
X82715095Y-86766403D01*
X82723724Y-86771016D01*
X82731282Y-86777218D01*
X82737484Y-86784776D01*
X82742097Y-86793405D01*
X82744937Y-86802768D01*
X82746500Y-86818640D01*
X82746500Y-87632360D01*
X82743950Y-87658255D01*
X82743084Y-87662604D01*
X82743082Y-87687108D01*
X82747859Y-87711142D01*
X82757234Y-87733782D01*
X82770845Y-87754158D01*
X82788170Y-87771487D01*
X82808543Y-87785103D01*
X82831196Y-87794487D01*
X82848219Y-87799651D01*
X82875571Y-87814271D01*
X82899550Y-87833950D01*
X82919229Y-87857929D01*
X82933849Y-87885281D01*
X82939013Y-87902304D01*
X82948390Y-87924943D01*
X82962004Y-87945318D01*
X82979331Y-87962645D01*
X82999705Y-87976259D01*
X83022344Y-87985636D01*
X83046377Y-87990417D01*
X83070881Y-87990417D01*
X83075229Y-87989552D01*
X83101140Y-87987000D01*
X83914860Y-87987000D01*
X83930732Y-87988563D01*
X83940095Y-87991403D01*
X83948724Y-87996016D01*
X83956282Y-88002218D01*
X83962484Y-88009776D01*
X83967097Y-88018405D01*
X83969937Y-88027768D01*
X83971500Y-88043640D01*
X83971500Y-88382360D01*
X83969937Y-88398232D01*
X83967097Y-88407595D01*
X83962484Y-88416224D01*
X83956282Y-88423782D01*
X83945075Y-88432979D01*
X83932510Y-88441374D01*
X83915183Y-88458701D01*
X83901569Y-88479076D01*
X83892191Y-88501714D01*
X83887411Y-88525748D01*
X83887411Y-88550252D01*
X83892191Y-88574285D01*
X83901569Y-88596924D01*
X83915182Y-88617298D01*
X83932509Y-88634625D01*
X83945074Y-88643021D01*
X83956282Y-88652218D01*
X83962484Y-88659776D01*
X83967097Y-88668405D01*
X83969937Y-88677768D01*
X83971500Y-88693640D01*
X83971500Y-89032360D01*
X83969937Y-89048232D01*
X83967097Y-89057595D01*
X83962484Y-89066224D01*
X83956282Y-89073782D01*
X83945075Y-89082979D01*
X83932510Y-89091374D01*
X83915183Y-89108701D01*
X83901569Y-89129076D01*
X83892191Y-89151714D01*
X83887411Y-89175748D01*
X83887411Y-89200252D01*
X83892191Y-89224285D01*
X83901569Y-89246924D01*
X83915182Y-89267298D01*
X83932509Y-89284625D01*
X83945074Y-89293021D01*
X83956282Y-89302218D01*
X83962484Y-89309776D01*
X83967097Y-89318405D01*
X83969937Y-89327768D01*
X83971500Y-89343640D01*
X83971500Y-89682360D01*
X83969937Y-89698232D01*
X83967097Y-89707595D01*
X83962484Y-89716224D01*
X83956282Y-89723782D01*
X83945075Y-89732979D01*
X83932510Y-89741374D01*
X83915183Y-89758701D01*
X83901569Y-89779076D01*
X83892191Y-89801714D01*
X83887411Y-89825748D01*
X83887411Y-89850252D01*
X83892191Y-89874285D01*
X83901569Y-89896924D01*
X83915182Y-89917298D01*
X83932509Y-89934625D01*
X83945074Y-89943021D01*
X83956282Y-89952218D01*
X83962484Y-89959776D01*
X83967097Y-89968405D01*
X83969937Y-89977768D01*
X83971500Y-89993640D01*
X83971500Y-90332360D01*
X83969937Y-90348232D01*
X83967097Y-90357595D01*
X83962484Y-90366224D01*
X83956282Y-90373782D01*
X83948724Y-90379984D01*
X83940095Y-90384597D01*
X83930732Y-90387437D01*
X83914860Y-90389000D01*
X83101140Y-90389000D01*
X83075245Y-90386450D01*
X83070896Y-90385584D01*
X83046392Y-90385582D01*
X83022358Y-90390359D01*
X82999718Y-90399734D01*
X82979342Y-90413345D01*
X82962013Y-90430670D01*
X82948397Y-90451043D01*
X82939013Y-90473696D01*
X82933849Y-90490719D01*
X82919229Y-90518071D01*
X82899550Y-90542050D01*
X82875571Y-90561729D01*
X82848219Y-90576349D01*
X82831196Y-90581513D01*
X82808557Y-90590890D01*
X82788182Y-90604504D01*
X82770855Y-90621831D01*
X82757241Y-90642205D01*
X82747864Y-90664844D01*
X82743083Y-90688877D01*
X82743083Y-90713381D01*
X82743948Y-90717729D01*
X82746500Y-90743640D01*
X82746500Y-91557360D01*
X82744937Y-91573232D01*
X82742097Y-91582595D01*
X82737484Y-91591224D01*
X82731282Y-91598782D01*
X82723724Y-91604984D01*
X82715095Y-91609597D01*
X82705732Y-91612437D01*
X82689860Y-91614000D01*
X82351140Y-91614000D01*
X82335268Y-91612437D01*
X82325905Y-91609597D01*
X82317276Y-91604984D01*
X82309718Y-91598782D01*
X82300521Y-91587575D01*
X82292126Y-91575010D01*
X82274799Y-91557683D01*
X82254424Y-91544069D01*
X82231786Y-91534691D01*
X82207752Y-91529911D01*
X82183248Y-91529911D01*
X82159215Y-91534691D01*
X82136576Y-91544069D01*
X82116202Y-91557682D01*
X82098875Y-91575009D01*
X82090479Y-91587574D01*
X82081282Y-91598782D01*
X82073724Y-91604984D01*
X82065095Y-91609597D01*
X82055732Y-91612437D01*
X82039860Y-91614000D01*
X81701140Y-91614000D01*
X81685268Y-91612437D01*
X81675905Y-91609597D01*
X81667276Y-91604984D01*
X81659718Y-91598782D01*
X81650521Y-91587575D01*
X81642126Y-91575010D01*
X81624799Y-91557683D01*
X81604424Y-91544069D01*
X81581786Y-91534691D01*
X81557752Y-91529911D01*
X81533248Y-91529911D01*
X81509215Y-91534691D01*
X81486576Y-91544069D01*
X81466202Y-91557682D01*
X81448875Y-91575009D01*
X81440479Y-91587574D01*
X81431282Y-91598782D01*
X81423724Y-91604984D01*
X81415095Y-91609597D01*
X81405732Y-91612437D01*
X81389860Y-91614000D01*
X81051140Y-91614000D01*
X81035268Y-91612437D01*
X81025905Y-91609597D01*
X81017276Y-91604984D01*
X81009718Y-91598782D01*
X81000521Y-91587575D01*
X80992126Y-91575010D01*
X80974799Y-91557683D01*
X80954424Y-91544069D01*
X80931786Y-91534691D01*
X80907752Y-91529911D01*
X80883248Y-91529911D01*
X80859215Y-91534691D01*
X80836576Y-91544069D01*
X80816202Y-91557682D01*
X80798875Y-91575009D01*
X80790479Y-91587574D01*
X80781282Y-91598782D01*
X80773724Y-91604984D01*
X80765095Y-91609597D01*
X80755732Y-91612437D01*
X80739860Y-91614000D01*
X80401140Y-91614000D01*
X80385268Y-91612437D01*
X80375905Y-91609597D01*
X80367276Y-91604984D01*
X80359718Y-91598782D01*
X80353516Y-91591224D01*
X80348903Y-91582595D01*
X80346063Y-91573232D01*
X80344500Y-91557360D01*
X80344500Y-90743640D01*
X80347050Y-90717745D01*
X80347916Y-90713396D01*
X80347918Y-90688892D01*
X80343141Y-90664858D01*
X80333766Y-90642218D01*
X80320155Y-90621842D01*
X80302830Y-90604513D01*
X80282457Y-90590897D01*
X80259804Y-90581513D01*
X80242781Y-90576349D01*
X80215429Y-90561729D01*
X80191450Y-90542050D01*
X80171771Y-90518071D01*
X80157151Y-90490719D01*
X80151987Y-90473696D01*
X80142610Y-90451057D01*
X80128996Y-90430682D01*
X80111669Y-90413355D01*
X80091295Y-90399741D01*
X80068656Y-90390364D01*
X80044623Y-90385583D01*
X80020119Y-90385583D01*
X80015771Y-90386448D01*
X79989860Y-90389000D01*
X79176140Y-90389000D01*
X79160268Y-90387437D01*
X79150905Y-90384597D01*
X79142276Y-90379984D01*
X79134718Y-90373782D01*
X79128516Y-90366224D01*
X79123903Y-90357595D01*
X79121063Y-90348232D01*
X79119500Y-90332360D01*
X79119500Y-89993640D01*
X79121063Y-89977768D01*
X79123903Y-89968405D01*
X79128516Y-89959776D01*
X79134718Y-89952218D01*
X79145925Y-89943021D01*
X79158490Y-89934626D01*
X79175817Y-89917299D01*
X79189431Y-89896924D01*
X79198809Y-89874286D01*
X79203589Y-89850252D01*
X79203589Y-89825748D01*
X79198809Y-89801715D01*
X79189431Y-89779076D01*
X79175818Y-89758702D01*
X79158491Y-89741375D01*
X79145926Y-89732979D01*
X79134718Y-89723782D01*
X79128516Y-89716224D01*
X79123903Y-89707595D01*
X79121063Y-89698232D01*
X79119500Y-89682360D01*
X79119500Y-89343640D01*
X79121063Y-89327768D01*
X79123903Y-89318405D01*
X79128516Y-89309776D01*
X79134718Y-89302218D01*
X79145925Y-89293021D01*
X79158490Y-89284626D01*
X79175817Y-89267299D01*
X79189431Y-89246924D01*
X79198809Y-89224286D01*
X79203589Y-89200252D01*
X79203589Y-89175748D01*
X79198809Y-89151715D01*
X79189431Y-89129076D01*
X79175818Y-89108702D01*
X79158491Y-89091375D01*
X79145926Y-89082979D01*
X79134718Y-89073782D01*
X79128516Y-89066224D01*
X79123903Y-89057595D01*
X79121063Y-89048232D01*
X79119500Y-89032360D01*
X79119500Y-88693640D01*
X79121063Y-88677768D01*
X79123903Y-88668405D01*
X79128516Y-88659776D01*
X79134718Y-88652218D01*
X79145925Y-88643021D01*
X79158490Y-88634626D01*
X79175817Y-88617299D01*
X79189431Y-88596924D01*
X79198809Y-88574286D01*
X79203589Y-88550252D01*
X79203589Y-88525748D01*
X79198809Y-88501715D01*
X79189431Y-88479076D01*
X79175818Y-88458702D01*
X79158491Y-88441375D01*
X79145926Y-88432979D01*
X79134718Y-88423782D01*
X79128516Y-88416224D01*
X79123903Y-88407595D01*
X79121063Y-88398232D01*
X79119500Y-88382360D01*
X79119500Y-88043640D01*
X79121063Y-88027768D01*
X79123903Y-88018405D01*
X79128516Y-88009776D01*
X79134718Y-88002218D01*
X79142276Y-87996016D01*
X79150905Y-87991403D01*
X79160268Y-87988563D01*
X79176140Y-87987000D01*
X79989860Y-87987000D01*
X80015755Y-87989550D01*
X80020104Y-87990416D01*
X80044608Y-87990418D01*
X80068642Y-87985641D01*
X80091282Y-87976266D01*
X80111658Y-87962655D01*
X80128987Y-87945330D01*
X80142603Y-87924957D01*
X80151987Y-87902304D01*
X80157151Y-87885281D01*
X80171771Y-87857929D01*
X80191450Y-87833950D01*
X80215429Y-87814271D01*
X80242781Y-87799651D01*
X80259804Y-87794487D01*
X80282443Y-87785110D01*
X80302818Y-87771496D01*
X80320145Y-87754169D01*
X80333759Y-87733795D01*
X80343136Y-87711156D01*
X80347917Y-87687123D01*
X80347917Y-87662619D01*
X80347052Y-87658271D01*
X80344500Y-87632360D01*
X80344500Y-86818640D01*
X80346063Y-86802768D01*
X80348903Y-86793405D01*
X80353516Y-86784776D01*
X80359718Y-86777218D01*
X80367276Y-86771016D01*
X80375905Y-86766403D01*
X80385268Y-86763563D01*
X80401140Y-86762000D01*
X80739860Y-86762000D01*
X80755732Y-86763563D01*
G37*
G36*
X61313468Y-90192565D02*
G01*
X61352138Y-90204296D01*
X61387777Y-90223346D01*
X61419017Y-90248983D01*
X61444654Y-90280223D01*
X61463704Y-90315862D01*
X61475435Y-90354532D01*
X61480000Y-90400888D01*
X61480000Y-91052112D01*
X61475435Y-91098468D01*
X61463704Y-91137138D01*
X61444654Y-91172777D01*
X61419017Y-91204017D01*
X61387777Y-91229654D01*
X61352138Y-91248704D01*
X61313468Y-91260435D01*
X61267112Y-91265000D01*
X60190888Y-91265000D01*
X60144532Y-91260435D01*
X60105862Y-91248704D01*
X60070223Y-91229654D01*
X60038983Y-91204017D01*
X60013346Y-91172777D01*
X59994296Y-91137138D01*
X59982565Y-91098468D01*
X59978000Y-91052112D01*
X59978000Y-90400888D01*
X59982565Y-90354532D01*
X59994296Y-90315862D01*
X60013346Y-90280223D01*
X60038983Y-90248983D01*
X60070223Y-90223346D01*
X60105862Y-90204296D01*
X60144532Y-90192565D01*
X60190888Y-90188000D01*
X61267112Y-90188000D01*
X61313468Y-90192565D01*
G37*
G36*
X67599968Y-90129065D02*
G01*
X67638638Y-90140796D01*
X67674277Y-90159846D01*
X67705517Y-90185483D01*
X67731154Y-90216723D01*
X67750204Y-90252362D01*
X67761935Y-90291032D01*
X67766500Y-90337388D01*
X67766500Y-90988612D01*
X67761935Y-91034968D01*
X67750204Y-91073638D01*
X67731154Y-91109277D01*
X67705517Y-91140517D01*
X67674277Y-91166154D01*
X67638638Y-91185204D01*
X67599968Y-91196935D01*
X67553612Y-91201500D01*
X66477388Y-91201500D01*
X66431032Y-91196935D01*
X66392362Y-91185204D01*
X66356723Y-91166154D01*
X66325483Y-91140517D01*
X66299846Y-91109277D01*
X66280796Y-91073638D01*
X66269065Y-91034968D01*
X66264500Y-90988612D01*
X66264500Y-90337388D01*
X66269065Y-90291032D01*
X66280796Y-90252362D01*
X66299846Y-90216723D01*
X66325483Y-90185483D01*
X66356723Y-90159846D01*
X66392362Y-90140796D01*
X66431032Y-90129065D01*
X66477388Y-90124500D01*
X67553612Y-90124500D01*
X67599968Y-90129065D01*
G37*
G36*
X76899500Y-91042000D02*
G01*
X70697500Y-91042000D01*
X70697500Y-89040000D01*
X76899500Y-89040000D01*
X76899500Y-91042000D01*
G37*
G36*
X58179591Y-89728085D02*
G01*
X58213569Y-89738393D01*
X58244890Y-89755134D01*
X58272339Y-89777661D01*
X58294866Y-89805110D01*
X58311607Y-89836431D01*
X58321915Y-89870409D01*
X58326000Y-89911890D01*
X58326000Y-90513110D01*
X58321915Y-90554591D01*
X58311607Y-90588569D01*
X58294866Y-90619890D01*
X58272339Y-90647339D01*
X58244890Y-90669866D01*
X58213569Y-90686607D01*
X58179591Y-90696915D01*
X58138110Y-90701000D01*
X57461890Y-90701000D01*
X57420409Y-90696915D01*
X57386431Y-90686607D01*
X57355110Y-90669866D01*
X57327661Y-90647339D01*
X57305134Y-90619890D01*
X57288393Y-90588569D01*
X57278085Y-90554591D01*
X57274000Y-90513110D01*
X57274000Y-89911890D01*
X57278085Y-89870409D01*
X57288393Y-89836431D01*
X57305134Y-89805110D01*
X57327661Y-89777661D01*
X57355110Y-89755134D01*
X57386431Y-89738393D01*
X57420409Y-89728085D01*
X57461890Y-89724000D01*
X58138110Y-89724000D01*
X58179591Y-89728085D01*
G37*
G36*
X107235442Y-88705518D02*
G01*
X107301627Y-88712037D01*
X107471466Y-88763557D01*
X107627991Y-88847222D01*
X107663158Y-88876083D01*
X107765186Y-88959814D01*
X107844043Y-89055903D01*
X107877778Y-89097009D01*
X107884028Y-89108702D01*
X107945810Y-89224286D01*
X107961443Y-89253534D01*
X108012963Y-89423373D01*
X108030359Y-89600000D01*
X108012963Y-89776627D01*
X107961705Y-89945602D01*
X107961442Y-89946468D01*
X107957100Y-89954591D01*
X107877778Y-90102991D01*
X107856379Y-90129065D01*
X107765186Y-90240186D01*
X107676152Y-90313253D01*
X107627991Y-90352778D01*
X107566618Y-90385583D01*
X107482267Y-90430670D01*
X107471466Y-90436443D01*
X107301627Y-90487963D01*
X107235442Y-90494482D01*
X107169260Y-90501000D01*
X106830740Y-90501000D01*
X106764558Y-90494482D01*
X106698373Y-90487963D01*
X106528534Y-90436443D01*
X106517734Y-90430670D01*
X106433382Y-90385583D01*
X106372009Y-90352778D01*
X106323848Y-90313253D01*
X106234814Y-90240186D01*
X106143621Y-90129065D01*
X106122222Y-90102991D01*
X106042900Y-89954591D01*
X106038558Y-89946468D01*
X106038295Y-89945602D01*
X105987037Y-89776627D01*
X105969641Y-89600000D01*
X105987037Y-89423373D01*
X106038557Y-89253534D01*
X106054191Y-89224286D01*
X106115972Y-89108702D01*
X106122222Y-89097009D01*
X106155957Y-89055903D01*
X106234814Y-88959814D01*
X106336842Y-88876083D01*
X106372009Y-88847222D01*
X106528534Y-88763557D01*
X106698373Y-88712037D01*
X106764558Y-88705518D01*
X106830740Y-88699000D01*
X107169260Y-88699000D01*
X107235442Y-88705518D01*
G37*
G36*
X98679591Y-89128085D02*
G01*
X98713569Y-89138393D01*
X98744890Y-89155134D01*
X98772339Y-89177661D01*
X98794866Y-89205110D01*
X98811607Y-89236431D01*
X98821915Y-89270409D01*
X98826000Y-89311890D01*
X98826000Y-89913110D01*
X98821915Y-89954591D01*
X98811607Y-89988569D01*
X98794866Y-90019890D01*
X98772339Y-90047339D01*
X98744890Y-90069866D01*
X98713569Y-90086607D01*
X98679591Y-90096915D01*
X98638110Y-90101000D01*
X97961890Y-90101000D01*
X97920409Y-90096915D01*
X97886431Y-90086607D01*
X97855110Y-90069866D01*
X97827661Y-90047339D01*
X97805134Y-90019890D01*
X97788393Y-89988569D01*
X97778085Y-89954591D01*
X97774000Y-89913110D01*
X97774000Y-89311890D01*
X97778085Y-89270409D01*
X97788393Y-89236431D01*
X97805134Y-89205110D01*
X97827661Y-89177661D01*
X97855110Y-89155134D01*
X97886431Y-89138393D01*
X97920409Y-89128085D01*
X97961890Y-89124000D01*
X98638110Y-89124000D01*
X98679591Y-89128085D01*
G37*
G36*
X56311500Y-89806500D02*
G01*
X53709500Y-89806500D01*
X53709500Y-88454500D01*
X56311500Y-88454500D01*
X56311500Y-89806500D01*
G37*
G36*
X61313468Y-88317565D02*
G01*
X61352138Y-88329296D01*
X61387777Y-88348346D01*
X61419017Y-88373983D01*
X61444654Y-88405223D01*
X61463704Y-88440862D01*
X61475435Y-88479532D01*
X61480000Y-88525888D01*
X61480000Y-89177112D01*
X61475435Y-89223468D01*
X61463704Y-89262138D01*
X61444654Y-89297777D01*
X61419017Y-89329017D01*
X61387777Y-89354654D01*
X61352138Y-89373704D01*
X61313468Y-89385435D01*
X61267112Y-89390000D01*
X60190888Y-89390000D01*
X60144532Y-89385435D01*
X60105862Y-89373704D01*
X60070223Y-89354654D01*
X60038983Y-89329017D01*
X60013346Y-89297777D01*
X59994296Y-89262138D01*
X59982565Y-89223468D01*
X59978000Y-89177112D01*
X59978000Y-88525888D01*
X59982565Y-88479532D01*
X59994296Y-88440862D01*
X60013346Y-88405223D01*
X60038983Y-88373983D01*
X60070223Y-88348346D01*
X60105862Y-88329296D01*
X60144532Y-88317565D01*
X60190888Y-88313000D01*
X61267112Y-88313000D01*
X61313468Y-88317565D01*
G37*
G36*
X67599968Y-88254065D02*
G01*
X67638638Y-88265796D01*
X67674277Y-88284846D01*
X67705517Y-88310483D01*
X67731154Y-88341723D01*
X67750204Y-88377362D01*
X67761935Y-88416032D01*
X67766500Y-88462388D01*
X67766500Y-89113612D01*
X67761935Y-89159968D01*
X67750204Y-89198638D01*
X67731154Y-89234277D01*
X67705517Y-89265517D01*
X67674277Y-89291154D01*
X67638638Y-89310204D01*
X67599968Y-89321935D01*
X67553612Y-89326500D01*
X66477388Y-89326500D01*
X66431032Y-89321935D01*
X66392362Y-89310204D01*
X66356723Y-89291154D01*
X66325483Y-89265517D01*
X66299846Y-89234277D01*
X66280796Y-89198638D01*
X66269065Y-89159968D01*
X66264500Y-89113612D01*
X66264500Y-88462388D01*
X66269065Y-88416032D01*
X66280796Y-88377362D01*
X66299846Y-88341723D01*
X66325483Y-88310483D01*
X66356723Y-88284846D01*
X66392362Y-88265796D01*
X66431032Y-88254065D01*
X66477388Y-88249500D01*
X67553612Y-88249500D01*
X67599968Y-88254065D01*
G37*
G36*
X52331437Y-87733795D02*
G01*
X52406636Y-87748753D01*
X52444402Y-87764396D01*
X52497811Y-87786519D01*
X52538562Y-87813748D01*
X52579869Y-87841348D01*
X52649652Y-87911131D01*
X52649653Y-87911133D01*
X52704481Y-87993189D01*
X52718804Y-88027768D01*
X52730812Y-88056757D01*
X52742247Y-88084365D01*
X52761500Y-88181155D01*
X52761500Y-88279845D01*
X52755406Y-88310483D01*
X52742374Y-88376000D01*
X52742247Y-88376635D01*
X52704481Y-88467811D01*
X52704480Y-88467812D01*
X52649652Y-88549869D01*
X52579869Y-88619652D01*
X52550656Y-88639171D01*
X52497811Y-88674481D01*
X52444402Y-88696604D01*
X52406636Y-88712247D01*
X52358240Y-88721874D01*
X52309845Y-88731500D01*
X52211155Y-88731500D01*
X52162760Y-88721874D01*
X52114364Y-88712247D01*
X52076598Y-88696604D01*
X52023189Y-88674481D01*
X51970344Y-88639171D01*
X51941131Y-88619652D01*
X51871348Y-88549869D01*
X51816520Y-88467812D01*
X51816519Y-88467811D01*
X51778753Y-88376635D01*
X51778627Y-88376000D01*
X51765594Y-88310483D01*
X51759500Y-88279845D01*
X51759500Y-88181155D01*
X51778753Y-88084365D01*
X51790189Y-88056757D01*
X51802196Y-88027768D01*
X51816519Y-87993189D01*
X51871347Y-87911133D01*
X51871348Y-87911131D01*
X51941131Y-87841348D01*
X51982438Y-87813748D01*
X52023189Y-87786519D01*
X52076598Y-87764396D01*
X52114364Y-87748753D01*
X52189563Y-87733795D01*
X52211155Y-87729500D01*
X52309845Y-87729500D01*
X52331437Y-87733795D01*
G37*
G36*
X101479591Y-87403085D02*
G01*
X101513569Y-87413393D01*
X101544890Y-87430134D01*
X101572339Y-87452661D01*
X101594866Y-87480110D01*
X101611607Y-87511431D01*
X101621915Y-87545409D01*
X101626000Y-87586890D01*
X101626000Y-88188110D01*
X101621915Y-88229591D01*
X101611607Y-88263569D01*
X101594866Y-88294890D01*
X101572339Y-88322339D01*
X101544890Y-88344866D01*
X101513569Y-88361607D01*
X101479591Y-88371915D01*
X101438110Y-88376000D01*
X100761890Y-88376000D01*
X100720409Y-88371915D01*
X100686431Y-88361607D01*
X100655110Y-88344866D01*
X100627661Y-88322339D01*
X100605134Y-88294890D01*
X100588393Y-88263569D01*
X100578085Y-88229591D01*
X100574000Y-88188110D01*
X100574000Y-87586890D01*
X100578085Y-87545409D01*
X100588393Y-87511431D01*
X100605134Y-87480110D01*
X100627661Y-87452661D01*
X100655110Y-87430134D01*
X100686431Y-87413393D01*
X100720409Y-87403085D01*
X100761890Y-87399000D01*
X101438110Y-87399000D01*
X101479591Y-87403085D01*
G37*
G36*
X103079591Y-87403085D02*
G01*
X103113569Y-87413393D01*
X103144890Y-87430134D01*
X103172339Y-87452661D01*
X103194866Y-87480110D01*
X103211607Y-87511431D01*
X103221915Y-87545409D01*
X103226000Y-87586890D01*
X103226000Y-88188110D01*
X103221915Y-88229591D01*
X103211607Y-88263569D01*
X103194866Y-88294890D01*
X103172339Y-88322339D01*
X103144890Y-88344866D01*
X103113569Y-88361607D01*
X103079591Y-88371915D01*
X103038110Y-88376000D01*
X102361890Y-88376000D01*
X102320409Y-88371915D01*
X102286431Y-88361607D01*
X102255110Y-88344866D01*
X102227661Y-88322339D01*
X102205134Y-88294890D01*
X102188393Y-88263569D01*
X102178085Y-88229591D01*
X102174000Y-88188110D01*
X102174000Y-87586890D01*
X102178085Y-87545409D01*
X102188393Y-87511431D01*
X102205134Y-87480110D01*
X102227661Y-87452661D01*
X102255110Y-87430134D01*
X102286431Y-87413393D01*
X102320409Y-87403085D01*
X102361890Y-87399000D01*
X103038110Y-87399000D01*
X103079591Y-87403085D01*
G37*
G36*
X98079591Y-87403085D02*
G01*
X98113569Y-87413393D01*
X98144890Y-87430134D01*
X98172339Y-87452661D01*
X98194866Y-87480110D01*
X98211607Y-87511431D01*
X98221915Y-87545409D01*
X98226000Y-87586890D01*
X98226000Y-88188110D01*
X98221915Y-88229591D01*
X98211607Y-88263569D01*
X98194866Y-88294890D01*
X98172339Y-88322339D01*
X98144890Y-88344866D01*
X98113569Y-88361607D01*
X98079591Y-88371915D01*
X98038110Y-88376000D01*
X97361890Y-88376000D01*
X97320409Y-88371915D01*
X97286431Y-88361607D01*
X97255110Y-88344866D01*
X97227661Y-88322339D01*
X97205134Y-88294890D01*
X97188393Y-88263569D01*
X97178085Y-88229591D01*
X97174000Y-88188110D01*
X97174000Y-87586890D01*
X97178085Y-87545409D01*
X97188393Y-87511431D01*
X97205134Y-87480110D01*
X97227661Y-87452661D01*
X97255110Y-87430134D01*
X97286431Y-87413393D01*
X97320409Y-87403085D01*
X97361890Y-87399000D01*
X98038110Y-87399000D01*
X98079591Y-87403085D01*
G37*
G36*
X99679591Y-87403085D02*
G01*
X99713569Y-87413393D01*
X99744890Y-87430134D01*
X99772339Y-87452661D01*
X99794866Y-87480110D01*
X99811607Y-87511431D01*
X99821915Y-87545409D01*
X99826000Y-87586890D01*
X99826000Y-88188110D01*
X99821915Y-88229591D01*
X99811607Y-88263569D01*
X99794866Y-88294890D01*
X99772339Y-88322339D01*
X99744890Y-88344866D01*
X99713569Y-88361607D01*
X99679591Y-88371915D01*
X99638110Y-88376000D01*
X98961890Y-88376000D01*
X98920409Y-88371915D01*
X98886431Y-88361607D01*
X98855110Y-88344866D01*
X98827661Y-88322339D01*
X98805134Y-88294890D01*
X98788393Y-88263569D01*
X98778085Y-88229591D01*
X98774000Y-88188110D01*
X98774000Y-87586890D01*
X98778085Y-87545409D01*
X98788393Y-87511431D01*
X98805134Y-87480110D01*
X98827661Y-87452661D01*
X98855110Y-87430134D01*
X98886431Y-87413393D01*
X98920409Y-87403085D01*
X98961890Y-87399000D01*
X99638110Y-87399000D01*
X99679591Y-87403085D01*
G37*
G36*
X107235443Y-86205519D02*
G01*
X107301627Y-86212037D01*
X107471466Y-86263557D01*
X107471468Y-86263558D01*
X107479015Y-86267592D01*
X107627991Y-86347222D01*
X107663729Y-86376552D01*
X107765186Y-86459814D01*
X107827779Y-86536085D01*
X107877778Y-86597009D01*
X107961443Y-86753534D01*
X108012963Y-86923373D01*
X108030359Y-87100000D01*
X108012963Y-87276627D01*
X107961443Y-87446466D01*
X107877778Y-87602991D01*
X107864440Y-87619243D01*
X107765186Y-87740186D01*
X107674912Y-87814271D01*
X107627991Y-87852778D01*
X107471466Y-87936443D01*
X107301627Y-87987963D01*
X107235442Y-87994482D01*
X107169260Y-88001000D01*
X106830740Y-88001000D01*
X106764558Y-87994482D01*
X106698373Y-87987963D01*
X106528534Y-87936443D01*
X106372009Y-87852778D01*
X106325088Y-87814271D01*
X106234814Y-87740186D01*
X106135560Y-87619243D01*
X106122222Y-87602991D01*
X106038557Y-87446466D01*
X105987037Y-87276627D01*
X105969641Y-87100000D01*
X105987037Y-86923373D01*
X106038557Y-86753534D01*
X106122222Y-86597009D01*
X106172221Y-86536085D01*
X106234814Y-86459814D01*
X106336271Y-86376552D01*
X106372009Y-86347222D01*
X106520985Y-86267592D01*
X106528532Y-86263558D01*
X106528534Y-86263557D01*
X106698373Y-86212037D01*
X106764557Y-86205519D01*
X106830740Y-86199000D01*
X107169260Y-86199000D01*
X107235443Y-86205519D01*
G37*
G36*
X66823591Y-86536085D02*
G01*
X66857569Y-86546393D01*
X66888890Y-86563134D01*
X66916339Y-86585661D01*
X66938866Y-86613110D01*
X66955607Y-86644431D01*
X66965915Y-86678409D01*
X66970000Y-86719890D01*
X66970000Y-87321110D01*
X66965915Y-87362591D01*
X66955607Y-87396569D01*
X66938866Y-87427890D01*
X66916339Y-87455339D01*
X66888890Y-87477866D01*
X66857569Y-87494607D01*
X66823591Y-87504915D01*
X66782110Y-87509000D01*
X66105890Y-87509000D01*
X66064409Y-87504915D01*
X66030431Y-87494607D01*
X65999110Y-87477866D01*
X65971661Y-87455339D01*
X65949134Y-87427890D01*
X65932393Y-87396569D01*
X65922085Y-87362591D01*
X65918000Y-87321110D01*
X65918000Y-86719890D01*
X65922085Y-86678409D01*
X65932393Y-86644431D01*
X65949134Y-86613110D01*
X65971661Y-86585661D01*
X65999110Y-86563134D01*
X66030431Y-86546393D01*
X66064409Y-86536085D01*
X66105890Y-86532000D01*
X66782110Y-86532000D01*
X66823591Y-86536085D01*
G37*
G36*
X68474591Y-86536085D02*
G01*
X68508569Y-86546393D01*
X68539890Y-86563134D01*
X68567339Y-86585661D01*
X68589866Y-86613110D01*
X68606607Y-86644431D01*
X68616915Y-86678409D01*
X68621000Y-86719890D01*
X68621000Y-87321110D01*
X68616915Y-87362591D01*
X68606607Y-87396569D01*
X68589866Y-87427890D01*
X68567339Y-87455339D01*
X68539890Y-87477866D01*
X68508569Y-87494607D01*
X68474591Y-87504915D01*
X68433110Y-87509000D01*
X67756890Y-87509000D01*
X67715409Y-87504915D01*
X67681431Y-87494607D01*
X67650110Y-87477866D01*
X67622661Y-87455339D01*
X67600134Y-87427890D01*
X67583393Y-87396569D01*
X67573085Y-87362591D01*
X67569000Y-87321110D01*
X67569000Y-86719890D01*
X67573085Y-86678409D01*
X67583393Y-86644431D01*
X67600134Y-86613110D01*
X67622661Y-86585661D01*
X67650110Y-86563134D01*
X67681431Y-86546393D01*
X67715409Y-86536085D01*
X67756890Y-86532000D01*
X68433110Y-86532000D01*
X68474591Y-86536085D01*
G37*
G36*
X65172591Y-86536085D02*
G01*
X65206569Y-86546393D01*
X65237890Y-86563134D01*
X65265339Y-86585661D01*
X65287866Y-86613110D01*
X65304607Y-86644431D01*
X65314915Y-86678409D01*
X65319000Y-86719890D01*
X65319000Y-87321110D01*
X65314915Y-87362591D01*
X65304607Y-87396569D01*
X65287866Y-87427890D01*
X65265339Y-87455339D01*
X65237890Y-87477866D01*
X65206569Y-87494607D01*
X65172591Y-87504915D01*
X65131110Y-87509000D01*
X64454890Y-87509000D01*
X64413409Y-87504915D01*
X64379431Y-87494607D01*
X64348110Y-87477866D01*
X64320661Y-87455339D01*
X64298134Y-87427890D01*
X64281393Y-87396569D01*
X64271085Y-87362591D01*
X64267000Y-87321110D01*
X64267000Y-86719890D01*
X64271085Y-86678409D01*
X64281393Y-86644431D01*
X64298134Y-86613110D01*
X64320661Y-86585661D01*
X64348110Y-86563134D01*
X64379431Y-86546393D01*
X64413409Y-86536085D01*
X64454890Y-86532000D01*
X65131110Y-86532000D01*
X65172591Y-86536085D01*
G37*
G36*
X63394591Y-86536085D02*
G01*
X63428569Y-86546393D01*
X63459890Y-86563134D01*
X63487339Y-86585661D01*
X63509866Y-86613110D01*
X63526607Y-86644431D01*
X63536915Y-86678409D01*
X63541000Y-86719890D01*
X63541000Y-87321110D01*
X63536915Y-87362591D01*
X63526607Y-87396569D01*
X63509866Y-87427890D01*
X63487339Y-87455339D01*
X63459890Y-87477866D01*
X63428569Y-87494607D01*
X63394591Y-87504915D01*
X63353110Y-87509000D01*
X62676890Y-87509000D01*
X62635409Y-87504915D01*
X62601431Y-87494607D01*
X62570110Y-87477866D01*
X62542661Y-87455339D01*
X62520134Y-87427890D01*
X62503393Y-87396569D01*
X62493085Y-87362591D01*
X62489000Y-87321110D01*
X62489000Y-86719890D01*
X62493085Y-86678409D01*
X62503393Y-86644431D01*
X62520134Y-86613110D01*
X62542661Y-86585661D01*
X62570110Y-86563134D01*
X62601431Y-86546393D01*
X62635409Y-86536085D01*
X62676890Y-86532000D01*
X63353110Y-86532000D01*
X63394591Y-86536085D01*
G37*
G36*
X92454091Y-86253085D02*
G01*
X92488069Y-86263393D01*
X92519390Y-86280134D01*
X92546839Y-86302661D01*
X92569366Y-86330110D01*
X92586107Y-86361431D01*
X92596415Y-86395409D01*
X92600500Y-86436890D01*
X92600500Y-87113110D01*
X92596415Y-87154591D01*
X92586107Y-87188569D01*
X92569366Y-87219890D01*
X92546839Y-87247339D01*
X92519390Y-87269866D01*
X92488069Y-87286607D01*
X92454091Y-87296915D01*
X92412610Y-87301000D01*
X91811390Y-87301000D01*
X91769909Y-87296915D01*
X91735931Y-87286607D01*
X91704610Y-87269866D01*
X91677161Y-87247339D01*
X91654634Y-87219890D01*
X91637893Y-87188569D01*
X91627585Y-87154591D01*
X91623500Y-87113110D01*
X91623500Y-86436890D01*
X91627585Y-86395409D01*
X91637893Y-86361431D01*
X91654634Y-86330110D01*
X91677161Y-86302661D01*
X91704610Y-86280134D01*
X91735931Y-86263393D01*
X91769909Y-86253085D01*
X91811390Y-86249000D01*
X92412610Y-86249000D01*
X92454091Y-86253085D01*
G37*
G36*
X90879091Y-86253085D02*
G01*
X90913069Y-86263393D01*
X90944390Y-86280134D01*
X90971839Y-86302661D01*
X90994366Y-86330110D01*
X91011107Y-86361431D01*
X91021415Y-86395409D01*
X91025500Y-86436890D01*
X91025500Y-87113110D01*
X91021415Y-87154591D01*
X91011107Y-87188569D01*
X90994366Y-87219890D01*
X90971839Y-87247339D01*
X90944390Y-87269866D01*
X90913069Y-87286607D01*
X90879091Y-87296915D01*
X90837610Y-87301000D01*
X90236390Y-87301000D01*
X90194909Y-87296915D01*
X90160931Y-87286607D01*
X90129610Y-87269866D01*
X90102161Y-87247339D01*
X90079634Y-87219890D01*
X90062893Y-87188569D01*
X90052585Y-87154591D01*
X90048500Y-87113110D01*
X90048500Y-86436890D01*
X90052585Y-86395409D01*
X90062893Y-86361431D01*
X90079634Y-86330110D01*
X90102161Y-86302661D01*
X90129610Y-86280134D01*
X90160931Y-86263393D01*
X90194909Y-86253085D01*
X90236390Y-86249000D01*
X90837610Y-86249000D01*
X90879091Y-86253085D01*
G37*
G36*
X88324632Y-84736810D02*
G01*
X88355923Y-84746302D01*
X88384763Y-84761717D01*
X88410039Y-84782461D01*
X88430783Y-84807737D01*
X88446198Y-84836577D01*
X88455690Y-84867868D01*
X88459500Y-84906551D01*
X88459500Y-86736449D01*
X88455690Y-86775132D01*
X88446198Y-86806423D01*
X88430783Y-86835263D01*
X88410039Y-86860539D01*
X88384763Y-86881283D01*
X88355923Y-86896698D01*
X88324632Y-86906190D01*
X88285949Y-86910000D01*
X85981051Y-86910000D01*
X85942368Y-86906190D01*
X85911077Y-86896698D01*
X85882237Y-86881283D01*
X85856961Y-86860539D01*
X85836217Y-86835263D01*
X85820802Y-86806423D01*
X85811310Y-86775132D01*
X85807500Y-86736449D01*
X85807500Y-84906551D01*
X85811310Y-84867868D01*
X85820802Y-84836577D01*
X85836217Y-84807737D01*
X85856961Y-84782461D01*
X85882237Y-84761717D01*
X85911077Y-84746302D01*
X85942368Y-84736810D01*
X85981051Y-84733000D01*
X88285949Y-84733000D01*
X88324632Y-84736810D01*
G37*
G36*
X76899500Y-86842000D02*
G01*
X70697500Y-86842000D01*
X70697500Y-84840000D01*
X76899500Y-84840000D01*
X76899500Y-86842000D01*
G37*
G36*
X101479591Y-85828085D02*
G01*
X101513569Y-85838393D01*
X101544890Y-85855134D01*
X101572339Y-85877661D01*
X101594866Y-85905110D01*
X101611607Y-85936431D01*
X101621915Y-85970409D01*
X101626000Y-86011890D01*
X101626000Y-86613110D01*
X101621915Y-86654591D01*
X101611607Y-86688569D01*
X101594866Y-86719890D01*
X101572339Y-86747339D01*
X101544890Y-86769866D01*
X101513569Y-86786607D01*
X101479591Y-86796915D01*
X101438110Y-86801000D01*
X100761890Y-86801000D01*
X100720409Y-86796915D01*
X100686431Y-86786607D01*
X100655110Y-86769866D01*
X100627661Y-86747339D01*
X100605134Y-86719890D01*
X100588393Y-86688569D01*
X100578085Y-86654591D01*
X100574000Y-86613110D01*
X100574000Y-86011890D01*
X100578085Y-85970409D01*
X100588393Y-85936431D01*
X100605134Y-85905110D01*
X100627661Y-85877661D01*
X100655110Y-85855134D01*
X100686431Y-85838393D01*
X100720409Y-85828085D01*
X100761890Y-85824000D01*
X101438110Y-85824000D01*
X101479591Y-85828085D01*
G37*
G36*
X99679591Y-85828085D02*
G01*
X99713569Y-85838393D01*
X99744890Y-85855134D01*
X99772339Y-85877661D01*
X99794866Y-85905110D01*
X99811607Y-85936431D01*
X99821915Y-85970409D01*
X99826000Y-86011890D01*
X99826000Y-86613110D01*
X99821915Y-86654591D01*
X99811607Y-86688569D01*
X99794866Y-86719890D01*
X99772339Y-86747339D01*
X99744890Y-86769866D01*
X99713569Y-86786607D01*
X99679591Y-86796915D01*
X99638110Y-86801000D01*
X98961890Y-86801000D01*
X98920409Y-86796915D01*
X98886431Y-86786607D01*
X98855110Y-86769866D01*
X98827661Y-86747339D01*
X98805134Y-86719890D01*
X98788393Y-86688569D01*
X98778085Y-86654591D01*
X98774000Y-86613110D01*
X98774000Y-86011890D01*
X98778085Y-85970409D01*
X98788393Y-85936431D01*
X98805134Y-85905110D01*
X98827661Y-85877661D01*
X98855110Y-85855134D01*
X98886431Y-85838393D01*
X98920409Y-85828085D01*
X98961890Y-85824000D01*
X99638110Y-85824000D01*
X99679591Y-85828085D01*
G37*
G36*
X103079591Y-85828085D02*
G01*
X103113569Y-85838393D01*
X103144890Y-85855134D01*
X103172339Y-85877661D01*
X103194866Y-85905110D01*
X103211607Y-85936431D01*
X103221915Y-85970409D01*
X103226000Y-86011890D01*
X103226000Y-86613110D01*
X103221915Y-86654591D01*
X103211607Y-86688569D01*
X103194866Y-86719890D01*
X103172339Y-86747339D01*
X103144890Y-86769866D01*
X103113569Y-86786607D01*
X103079591Y-86796915D01*
X103038110Y-86801000D01*
X102361890Y-86801000D01*
X102320409Y-86796915D01*
X102286431Y-86786607D01*
X102255110Y-86769866D01*
X102227661Y-86747339D01*
X102205134Y-86719890D01*
X102188393Y-86688569D01*
X102178085Y-86654591D01*
X102174000Y-86613110D01*
X102174000Y-86011890D01*
X102178085Y-85970409D01*
X102188393Y-85936431D01*
X102205134Y-85905110D01*
X102227661Y-85877661D01*
X102255110Y-85855134D01*
X102286431Y-85838393D01*
X102320409Y-85828085D01*
X102361890Y-85824000D01*
X103038110Y-85824000D01*
X103079591Y-85828085D01*
G37*
G36*
X98079591Y-85828085D02*
G01*
X98113569Y-85838393D01*
X98144890Y-85855134D01*
X98172339Y-85877661D01*
X98194866Y-85905110D01*
X98211607Y-85936431D01*
X98221915Y-85970409D01*
X98226000Y-86011890D01*
X98226000Y-86613110D01*
X98221915Y-86654591D01*
X98211607Y-86688569D01*
X98194866Y-86719890D01*
X98172339Y-86747339D01*
X98144890Y-86769866D01*
X98113569Y-86786607D01*
X98079591Y-86796915D01*
X98038110Y-86801000D01*
X97361890Y-86801000D01*
X97320409Y-86796915D01*
X97286431Y-86786607D01*
X97255110Y-86769866D01*
X97227661Y-86747339D01*
X97205134Y-86719890D01*
X97188393Y-86688569D01*
X97178085Y-86654591D01*
X97174000Y-86613110D01*
X97174000Y-86011890D01*
X97178085Y-85970409D01*
X97188393Y-85936431D01*
X97205134Y-85905110D01*
X97227661Y-85877661D01*
X97255110Y-85855134D01*
X97286431Y-85838393D01*
X97320409Y-85828085D01*
X97361890Y-85824000D01*
X98038110Y-85824000D01*
X98079591Y-85828085D01*
G37*
G36*
X81748968Y-85273565D02*
G01*
X81787638Y-85285296D01*
X81823277Y-85304346D01*
X81854517Y-85329983D01*
X81880154Y-85361223D01*
X81899204Y-85396862D01*
X81910935Y-85435532D01*
X81915500Y-85481888D01*
X81915500Y-86133112D01*
X81910935Y-86179468D01*
X81899204Y-86218138D01*
X81880154Y-86253777D01*
X81854517Y-86285017D01*
X81823277Y-86310654D01*
X81787638Y-86329704D01*
X81748968Y-86341435D01*
X81702612Y-86346000D01*
X80626388Y-86346000D01*
X80580032Y-86341435D01*
X80541362Y-86329704D01*
X80505723Y-86310654D01*
X80474483Y-86285017D01*
X80448846Y-86253777D01*
X80429796Y-86218138D01*
X80418065Y-86179468D01*
X80413500Y-86133112D01*
X80413500Y-85481888D01*
X80418065Y-85435532D01*
X80429796Y-85396862D01*
X80448846Y-85361223D01*
X80474483Y-85329983D01*
X80505723Y-85304346D01*
X80541362Y-85285296D01*
X80580032Y-85273565D01*
X80626388Y-85269000D01*
X81702612Y-85269000D01*
X81748968Y-85273565D01*
G37*
G36*
X63394591Y-84961085D02*
G01*
X63428569Y-84971393D01*
X63459890Y-84988134D01*
X63487339Y-85010661D01*
X63509866Y-85038110D01*
X63526607Y-85069431D01*
X63536915Y-85103409D01*
X63541000Y-85144890D01*
X63541000Y-85746110D01*
X63536915Y-85787591D01*
X63526607Y-85821569D01*
X63509866Y-85852890D01*
X63487339Y-85880339D01*
X63459890Y-85902866D01*
X63428569Y-85919607D01*
X63394591Y-85929915D01*
X63353110Y-85934000D01*
X62676890Y-85934000D01*
X62635409Y-85929915D01*
X62601431Y-85919607D01*
X62570110Y-85902866D01*
X62542661Y-85880339D01*
X62520134Y-85852890D01*
X62503393Y-85821569D01*
X62493085Y-85787591D01*
X62489000Y-85746110D01*
X62489000Y-85144890D01*
X62493085Y-85103409D01*
X62503393Y-85069431D01*
X62520134Y-85038110D01*
X62542661Y-85010661D01*
X62570110Y-84988134D01*
X62601431Y-84971393D01*
X62635409Y-84961085D01*
X62676890Y-84957000D01*
X63353110Y-84957000D01*
X63394591Y-84961085D01*
G37*
G36*
X65172591Y-84961085D02*
G01*
X65206569Y-84971393D01*
X65237890Y-84988134D01*
X65265339Y-85010661D01*
X65287866Y-85038110D01*
X65304607Y-85069431D01*
X65314915Y-85103409D01*
X65319000Y-85144890D01*
X65319000Y-85746110D01*
X65314915Y-85787591D01*
X65304607Y-85821569D01*
X65287866Y-85852890D01*
X65265339Y-85880339D01*
X65237890Y-85902866D01*
X65206569Y-85919607D01*
X65172591Y-85929915D01*
X65131110Y-85934000D01*
X64454890Y-85934000D01*
X64413409Y-85929915D01*
X64379431Y-85919607D01*
X64348110Y-85902866D01*
X64320661Y-85880339D01*
X64298134Y-85852890D01*
X64281393Y-85821569D01*
X64271085Y-85787591D01*
X64267000Y-85746110D01*
X64267000Y-85144890D01*
X64271085Y-85103409D01*
X64281393Y-85069431D01*
X64298134Y-85038110D01*
X64320661Y-85010661D01*
X64348110Y-84988134D01*
X64379431Y-84971393D01*
X64413409Y-84961085D01*
X64454890Y-84957000D01*
X65131110Y-84957000D01*
X65172591Y-84961085D01*
G37*
G36*
X66823591Y-84961085D02*
G01*
X66857569Y-84971393D01*
X66888890Y-84988134D01*
X66916339Y-85010661D01*
X66938866Y-85038110D01*
X66955607Y-85069431D01*
X66965915Y-85103409D01*
X66970000Y-85144890D01*
X66970000Y-85746110D01*
X66965915Y-85787591D01*
X66955607Y-85821569D01*
X66938866Y-85852890D01*
X66916339Y-85880339D01*
X66888890Y-85902866D01*
X66857569Y-85919607D01*
X66823591Y-85929915D01*
X66782110Y-85934000D01*
X66105890Y-85934000D01*
X66064409Y-85929915D01*
X66030431Y-85919607D01*
X65999110Y-85902866D01*
X65971661Y-85880339D01*
X65949134Y-85852890D01*
X65932393Y-85821569D01*
X65922085Y-85787591D01*
X65918000Y-85746110D01*
X65918000Y-85144890D01*
X65922085Y-85103409D01*
X65932393Y-85069431D01*
X65949134Y-85038110D01*
X65971661Y-85010661D01*
X65999110Y-84988134D01*
X66030431Y-84971393D01*
X66064409Y-84961085D01*
X66105890Y-84957000D01*
X66782110Y-84957000D01*
X66823591Y-84961085D01*
G37*
G36*
X68474591Y-84961085D02*
G01*
X68508569Y-84971393D01*
X68539890Y-84988134D01*
X68567339Y-85010661D01*
X68589866Y-85038110D01*
X68606607Y-85069431D01*
X68616915Y-85103409D01*
X68621000Y-85144890D01*
X68621000Y-85746110D01*
X68616915Y-85787591D01*
X68606607Y-85821569D01*
X68589866Y-85852890D01*
X68567339Y-85880339D01*
X68539890Y-85902866D01*
X68508569Y-85919607D01*
X68474591Y-85929915D01*
X68433110Y-85934000D01*
X67756890Y-85934000D01*
X67715409Y-85929915D01*
X67681431Y-85919607D01*
X67650110Y-85902866D01*
X67622661Y-85880339D01*
X67600134Y-85852890D01*
X67583393Y-85821569D01*
X67573085Y-85787591D01*
X67569000Y-85746110D01*
X67569000Y-85144890D01*
X67573085Y-85103409D01*
X67583393Y-85069431D01*
X67600134Y-85038110D01*
X67622661Y-85010661D01*
X67650110Y-84988134D01*
X67681431Y-84971393D01*
X67715409Y-84961085D01*
X67756890Y-84957000D01*
X68433110Y-84957000D01*
X68474591Y-84961085D01*
G37*
G36*
X90879091Y-84602085D02*
G01*
X90913069Y-84612393D01*
X90944390Y-84629134D01*
X90971839Y-84651661D01*
X90994366Y-84679110D01*
X91011107Y-84710431D01*
X91021415Y-84744409D01*
X91025500Y-84785890D01*
X91025500Y-85462110D01*
X91021415Y-85503591D01*
X91011107Y-85537569D01*
X90994366Y-85568890D01*
X90971839Y-85596339D01*
X90944390Y-85618866D01*
X90913069Y-85635607D01*
X90879091Y-85645915D01*
X90837610Y-85650000D01*
X90236390Y-85650000D01*
X90194909Y-85645915D01*
X90160931Y-85635607D01*
X90129610Y-85618866D01*
X90102161Y-85596339D01*
X90079634Y-85568890D01*
X90062893Y-85537569D01*
X90052585Y-85503591D01*
X90048500Y-85462110D01*
X90048500Y-84785890D01*
X90052585Y-84744409D01*
X90062893Y-84710431D01*
X90079634Y-84679110D01*
X90102161Y-84651661D01*
X90129610Y-84629134D01*
X90160931Y-84612393D01*
X90194909Y-84602085D01*
X90236390Y-84598000D01*
X90837610Y-84598000D01*
X90879091Y-84602085D01*
G37*
G36*
X92454091Y-84602085D02*
G01*
X92488069Y-84612393D01*
X92519390Y-84629134D01*
X92546839Y-84651661D01*
X92569366Y-84679110D01*
X92586107Y-84710431D01*
X92596415Y-84744409D01*
X92600500Y-84785890D01*
X92600500Y-85462110D01*
X92596415Y-85503591D01*
X92586107Y-85537569D01*
X92569366Y-85568890D01*
X92546839Y-85596339D01*
X92519390Y-85618866D01*
X92488069Y-85635607D01*
X92454091Y-85645915D01*
X92412610Y-85650000D01*
X91811390Y-85650000D01*
X91769909Y-85645915D01*
X91735931Y-85635607D01*
X91704610Y-85618866D01*
X91677161Y-85596339D01*
X91654634Y-85568890D01*
X91637893Y-85537569D01*
X91627585Y-85503591D01*
X91623500Y-85462110D01*
X91623500Y-84785890D01*
X91627585Y-84744409D01*
X91637893Y-84710431D01*
X91654634Y-84679110D01*
X91677161Y-84651661D01*
X91704610Y-84629134D01*
X91735931Y-84612393D01*
X91769909Y-84602085D01*
X91811390Y-84598000D01*
X92412610Y-84598000D01*
X92454091Y-84602085D01*
G37*
G36*
X81748968Y-83398565D02*
G01*
X81787638Y-83410296D01*
X81823277Y-83429346D01*
X81854517Y-83454983D01*
X81880154Y-83486223D01*
X81899204Y-83521862D01*
X81910935Y-83560532D01*
X81915500Y-83606888D01*
X81915500Y-84258112D01*
X81910935Y-84304468D01*
X81899204Y-84343138D01*
X81880154Y-84378777D01*
X81854517Y-84410017D01*
X81823277Y-84435654D01*
X81787638Y-84454704D01*
X81748968Y-84466435D01*
X81702612Y-84471000D01*
X80626388Y-84471000D01*
X80580032Y-84466435D01*
X80541362Y-84454704D01*
X80505723Y-84435654D01*
X80474483Y-84410017D01*
X80448846Y-84378777D01*
X80429796Y-84343138D01*
X80418065Y-84304468D01*
X80413500Y-84258112D01*
X80413500Y-83606888D01*
X80418065Y-83560532D01*
X80429796Y-83521862D01*
X80448846Y-83486223D01*
X80474483Y-83454983D01*
X80505723Y-83429346D01*
X80541362Y-83410296D01*
X80580032Y-83398565D01*
X80626388Y-83394000D01*
X81702612Y-83394000D01*
X81748968Y-83398565D01*
G37*
G36*
X87506564Y-80689389D02*
G01*
X87697833Y-80768615D01*
X87697835Y-80768616D01*
X87869973Y-80883635D01*
X88016365Y-81030027D01*
X88097197Y-81151000D01*
X88131385Y-81202167D01*
X88210611Y-81393436D01*
X88251000Y-81596484D01*
X88251000Y-81803516D01*
X88210611Y-82006564D01*
X88131385Y-82197833D01*
X88131384Y-82197835D01*
X88016365Y-82369973D01*
X87869973Y-82516365D01*
X87697835Y-82631384D01*
X87697834Y-82631385D01*
X87697833Y-82631385D01*
X87506564Y-82710611D01*
X87303516Y-82751000D01*
X87096484Y-82751000D01*
X86893436Y-82710611D01*
X86702167Y-82631385D01*
X86702166Y-82631385D01*
X86702165Y-82631384D01*
X86530027Y-82516365D01*
X86383635Y-82369973D01*
X86268616Y-82197835D01*
X86268615Y-82197833D01*
X86189389Y-82006564D01*
X86149000Y-81803516D01*
X86149000Y-81596484D01*
X86189389Y-81393436D01*
X86268615Y-81202167D01*
X86302804Y-81151000D01*
X86383635Y-81030027D01*
X86530027Y-80883635D01*
X86702165Y-80768616D01*
X86702167Y-80768615D01*
X86893436Y-80689389D01*
X87096484Y-80649000D01*
X87303516Y-80649000D01*
X87506564Y-80689389D01*
G37*
G36*
X98721811Y-79878271D02*
G01*
X98757603Y-79889129D01*
X98790595Y-79906763D01*
X98819508Y-79930492D01*
X98843237Y-79959405D01*
X98860871Y-79992397D01*
X98871729Y-80028189D01*
X98876000Y-80071555D01*
X98876000Y-82128445D01*
X98871729Y-82171811D01*
X98860871Y-82207603D01*
X98843237Y-82240595D01*
X98819508Y-82269508D01*
X98790595Y-82293237D01*
X98757603Y-82310871D01*
X98721811Y-82321729D01*
X98678445Y-82326000D01*
X97646555Y-82326000D01*
X97603189Y-82321729D01*
X97567397Y-82310871D01*
X97534405Y-82293237D01*
X97505492Y-82269508D01*
X97481763Y-82240595D01*
X97464129Y-82207603D01*
X97453271Y-82171811D01*
X97449000Y-82128445D01*
X97449000Y-80071555D01*
X97453271Y-80028189D01*
X97464129Y-79992397D01*
X97481763Y-79959405D01*
X97505492Y-79930492D01*
X97534405Y-79906763D01*
X97567397Y-79889129D01*
X97603189Y-79878271D01*
X97646555Y-79874000D01*
X98678445Y-79874000D01*
X98721811Y-79878271D01*
G37*
G36*
X101796811Y-79878271D02*
G01*
X101832603Y-79889129D01*
X101865595Y-79906763D01*
X101894508Y-79930492D01*
X101918237Y-79959405D01*
X101935871Y-79992397D01*
X101946729Y-80028189D01*
X101951000Y-80071555D01*
X101951000Y-82128445D01*
X101946729Y-82171811D01*
X101935871Y-82207603D01*
X101918237Y-82240595D01*
X101894508Y-82269508D01*
X101865595Y-82293237D01*
X101832603Y-82310871D01*
X101796811Y-82321729D01*
X101753445Y-82326000D01*
X100721555Y-82326000D01*
X100678189Y-82321729D01*
X100642397Y-82310871D01*
X100609405Y-82293237D01*
X100580492Y-82269508D01*
X100556763Y-82240595D01*
X100539129Y-82207603D01*
X100528271Y-82171811D01*
X100524000Y-82128445D01*
X100524000Y-80071555D01*
X100528271Y-80028189D01*
X100539129Y-79992397D01*
X100556763Y-79959405D01*
X100580492Y-79930492D01*
X100609405Y-79906763D01*
X100642397Y-79889129D01*
X100678189Y-79878271D01*
X100721555Y-79874000D01*
X101753445Y-79874000D01*
X101796811Y-79878271D01*
G37*
G36*
X103479591Y-81203085D02*
G01*
X103513569Y-81213393D01*
X103544890Y-81230134D01*
X103572339Y-81252661D01*
X103594866Y-81280110D01*
X103611607Y-81311431D01*
X103621915Y-81345409D01*
X103626000Y-81386890D01*
X103626000Y-81988110D01*
X103621915Y-82029591D01*
X103611607Y-82063569D01*
X103594866Y-82094890D01*
X103572339Y-82122339D01*
X103544890Y-82144866D01*
X103513569Y-82161607D01*
X103479591Y-82171915D01*
X103438110Y-82176000D01*
X102761890Y-82176000D01*
X102720409Y-82171915D01*
X102686431Y-82161607D01*
X102655110Y-82144866D01*
X102627661Y-82122339D01*
X102605134Y-82094890D01*
X102588393Y-82063569D01*
X102578085Y-82029591D01*
X102574000Y-81988110D01*
X102574000Y-81386890D01*
X102578085Y-81345409D01*
X102588393Y-81311431D01*
X102605134Y-81280110D01*
X102627661Y-81252661D01*
X102655110Y-81230134D01*
X102686431Y-81213393D01*
X102720409Y-81203085D01*
X102761890Y-81199000D01*
X103438110Y-81199000D01*
X103479591Y-81203085D01*
G37*
G36*
X107817600Y-79839989D02*
G01*
X107850652Y-79850015D01*
X107881103Y-79866292D01*
X107907799Y-79888201D01*
X107929708Y-79914897D01*
X107945985Y-79945348D01*
X107956011Y-79978400D01*
X107960000Y-80018903D01*
X107960000Y-81455097D01*
X107956011Y-81495600D01*
X107945985Y-81528652D01*
X107929708Y-81559103D01*
X107907799Y-81585799D01*
X107881103Y-81607708D01*
X107850652Y-81623985D01*
X107817600Y-81634011D01*
X107777097Y-81638000D01*
X106090903Y-81638000D01*
X106050400Y-81634011D01*
X106017348Y-81623985D01*
X105986897Y-81607708D01*
X105960201Y-81585799D01*
X105938292Y-81559103D01*
X105922015Y-81528652D01*
X105911989Y-81495600D01*
X105908000Y-81455097D01*
X105908000Y-80018903D01*
X105911989Y-79978400D01*
X105922015Y-79945348D01*
X105938292Y-79914897D01*
X105960201Y-79888201D01*
X105986897Y-79866292D01*
X106017348Y-79850015D01*
X106050400Y-79839989D01*
X106090903Y-79836000D01*
X107777097Y-79836000D01*
X107817600Y-79839989D01*
G37*
G36*
X58803048Y-79553122D02*
G01*
X58837387Y-79563539D01*
X58869036Y-79580456D01*
X58896778Y-79603222D01*
X58919544Y-79630964D01*
X58936461Y-79662613D01*
X58946878Y-79696952D01*
X58951000Y-79738807D01*
X58951000Y-80961193D01*
X58946878Y-81003048D01*
X58936461Y-81037387D01*
X58919544Y-81069036D01*
X58896778Y-81096778D01*
X58869036Y-81119544D01*
X58837387Y-81136461D01*
X58803048Y-81146878D01*
X58761193Y-81151000D01*
X55638807Y-81151000D01*
X55596952Y-81146878D01*
X55562613Y-81136461D01*
X55530964Y-81119544D01*
X55503222Y-81096778D01*
X55480456Y-81069036D01*
X55463539Y-81037387D01*
X55453122Y-81003048D01*
X55449000Y-80961193D01*
X55449000Y-79738807D01*
X55453122Y-79696952D01*
X55463539Y-79662613D01*
X55480456Y-79630964D01*
X55503222Y-79603222D01*
X55530964Y-79580456D01*
X55562613Y-79563539D01*
X55596952Y-79553122D01*
X55638807Y-79549000D01*
X58761193Y-79549000D01*
X58803048Y-79553122D01*
G37*
G36*
X103479591Y-79628085D02*
G01*
X103513569Y-79638393D01*
X103544890Y-79655134D01*
X103572339Y-79677661D01*
X103594866Y-79705110D01*
X103611607Y-79736431D01*
X103621915Y-79770409D01*
X103626000Y-79811890D01*
X103626000Y-80413110D01*
X103621915Y-80454591D01*
X103611607Y-80488569D01*
X103594866Y-80519890D01*
X103572339Y-80547339D01*
X103544890Y-80569866D01*
X103513569Y-80586607D01*
X103479591Y-80596915D01*
X103438110Y-80601000D01*
X102761890Y-80601000D01*
X102720409Y-80596915D01*
X102686431Y-80586607D01*
X102655110Y-80569866D01*
X102627661Y-80547339D01*
X102605134Y-80519890D01*
X102588393Y-80488569D01*
X102578085Y-80454591D01*
X102574000Y-80413110D01*
X102574000Y-79811890D01*
X102578085Y-79770409D01*
X102588393Y-79736431D01*
X102605134Y-79705110D01*
X102627661Y-79677661D01*
X102655110Y-79655134D01*
X102686431Y-79638393D01*
X102720409Y-79628085D01*
X102761890Y-79624000D01*
X103438110Y-79624000D01*
X103479591Y-79628085D01*
G37*
G36*
X107169443Y-77342519D02*
G01*
X107235627Y-77349037D01*
X107405466Y-77400557D01*
X107561991Y-77484222D01*
X107595612Y-77511814D01*
X107699186Y-77596814D01*
X107759865Y-77670753D01*
X107811778Y-77734009D01*
X107895443Y-77890534D01*
X107946963Y-78060373D01*
X107964359Y-78237000D01*
X107946963Y-78413627D01*
X107895443Y-78583466D01*
X107811778Y-78739991D01*
X107782448Y-78775729D01*
X107699186Y-78877186D01*
X107609851Y-78950500D01*
X107561991Y-78989778D01*
X107405466Y-79073443D01*
X107235627Y-79124963D01*
X107169443Y-79131481D01*
X107103260Y-79138000D01*
X106764740Y-79138000D01*
X106698557Y-79131481D01*
X106632373Y-79124963D01*
X106462534Y-79073443D01*
X106306009Y-78989778D01*
X106258149Y-78950500D01*
X106168814Y-78877186D01*
X106085552Y-78775729D01*
X106056222Y-78739991D01*
X105972557Y-78583466D01*
X105921037Y-78413627D01*
X105903641Y-78237000D01*
X105921037Y-78060373D01*
X105972557Y-77890534D01*
X106056222Y-77734009D01*
X106108135Y-77670753D01*
X106168814Y-77596814D01*
X106272388Y-77511814D01*
X106306009Y-77484222D01*
X106462534Y-77400557D01*
X106632373Y-77349037D01*
X106698557Y-77342519D01*
X106764740Y-77336000D01*
X107103260Y-77336000D01*
X107169443Y-77342519D01*
G37*
G36*
X100640416Y-75174843D02*
G01*
X100644556Y-75176099D01*
X100663716Y-75184035D01*
X100687750Y-75188815D01*
X100712254Y-75188815D01*
X100736287Y-75184034D01*
X100755445Y-75176099D01*
X100759584Y-75174843D01*
X100768143Y-75174000D01*
X101031857Y-75174000D01*
X101040416Y-75174843D01*
X101044556Y-75176099D01*
X101063716Y-75184035D01*
X101087750Y-75188815D01*
X101112254Y-75188815D01*
X101136287Y-75184034D01*
X101155445Y-75176099D01*
X101159584Y-75174843D01*
X101168143Y-75174000D01*
X101431857Y-75174000D01*
X101440416Y-75174843D01*
X101444556Y-75176099D01*
X101463716Y-75184035D01*
X101487750Y-75188815D01*
X101512254Y-75188815D01*
X101536287Y-75184034D01*
X101555445Y-75176099D01*
X101559584Y-75174843D01*
X101568143Y-75174000D01*
X101831857Y-75174000D01*
X101840416Y-75174843D01*
X101844556Y-75176099D01*
X101863716Y-75184035D01*
X101887750Y-75188815D01*
X101912254Y-75188815D01*
X101936287Y-75184034D01*
X101955445Y-75176099D01*
X101959584Y-75174843D01*
X101968143Y-75174000D01*
X102231857Y-75174000D01*
X102240416Y-75174843D01*
X102242745Y-75175550D01*
X102244887Y-75176695D01*
X102246765Y-75178235D01*
X102248305Y-75180113D01*
X102249450Y-75182255D01*
X102250157Y-75184584D01*
X102251000Y-75193143D01*
X102251000Y-76024001D01*
X102253402Y-76048387D01*
X102260515Y-76071836D01*
X102272066Y-76093447D01*
X102287611Y-76112389D01*
X102306553Y-76127934D01*
X102328164Y-76139485D01*
X102351613Y-76146598D01*
X102375999Y-76149000D01*
X103206857Y-76149000D01*
X103215416Y-76149843D01*
X103217745Y-76150550D01*
X103219887Y-76151695D01*
X103221765Y-76153235D01*
X103223305Y-76155113D01*
X103224450Y-76157255D01*
X103225157Y-76159584D01*
X103226000Y-76168143D01*
X103226000Y-76431857D01*
X103225157Y-76440416D01*
X103223901Y-76444556D01*
X103215965Y-76463716D01*
X103211185Y-76487750D01*
X103211185Y-76512254D01*
X103215966Y-76536287D01*
X103223901Y-76555445D01*
X103225157Y-76559584D01*
X103226000Y-76568143D01*
X103226000Y-76831857D01*
X103225157Y-76840416D01*
X103223901Y-76844556D01*
X103215965Y-76863716D01*
X103211185Y-76887750D01*
X103211185Y-76912254D01*
X103215966Y-76936287D01*
X103223901Y-76955445D01*
X103225157Y-76959584D01*
X103226000Y-76968143D01*
X103226000Y-77231857D01*
X103225157Y-77240416D01*
X103223901Y-77244556D01*
X103215965Y-77263716D01*
X103211185Y-77287750D01*
X103211185Y-77312254D01*
X103215966Y-77336287D01*
X103223901Y-77355445D01*
X103225157Y-77359584D01*
X103226000Y-77368143D01*
X103226000Y-77631857D01*
X103225157Y-77640416D01*
X103223901Y-77644556D01*
X103215965Y-77663716D01*
X103211185Y-77687750D01*
X103211185Y-77712254D01*
X103215966Y-77736287D01*
X103223901Y-77755445D01*
X103225157Y-77759584D01*
X103226000Y-77768143D01*
X103226000Y-78031857D01*
X103225157Y-78040416D01*
X103224450Y-78042745D01*
X103223305Y-78044887D01*
X103221765Y-78046765D01*
X103219887Y-78048305D01*
X103217745Y-78049450D01*
X103215416Y-78050157D01*
X103206857Y-78051000D01*
X102375999Y-78051000D01*
X102351613Y-78053402D01*
X102328164Y-78060515D01*
X102306553Y-78072066D01*
X102287611Y-78087611D01*
X102272066Y-78106553D01*
X102260515Y-78128164D01*
X102253402Y-78151613D01*
X102251000Y-78175999D01*
X102251000Y-79006857D01*
X102250157Y-79015416D01*
X102249450Y-79017745D01*
X102248305Y-79019887D01*
X102246765Y-79021765D01*
X102244887Y-79023305D01*
X102242745Y-79024450D01*
X102240416Y-79025157D01*
X102231857Y-79026000D01*
X101968143Y-79026000D01*
X101959584Y-79025157D01*
X101955444Y-79023901D01*
X101936284Y-79015965D01*
X101912250Y-79011185D01*
X101887746Y-79011185D01*
X101863713Y-79015966D01*
X101844555Y-79023901D01*
X101840416Y-79025157D01*
X101831857Y-79026000D01*
X101568143Y-79026000D01*
X101559584Y-79025157D01*
X101555444Y-79023901D01*
X101536284Y-79015965D01*
X101512250Y-79011185D01*
X101487746Y-79011185D01*
X101463713Y-79015966D01*
X101444555Y-79023901D01*
X101440416Y-79025157D01*
X101431857Y-79026000D01*
X101168143Y-79026000D01*
X101159584Y-79025157D01*
X101155444Y-79023901D01*
X101136284Y-79015965D01*
X101112250Y-79011185D01*
X101087746Y-79011185D01*
X101063713Y-79015966D01*
X101044555Y-79023901D01*
X101040416Y-79025157D01*
X101031857Y-79026000D01*
X100768143Y-79026000D01*
X100759584Y-79025157D01*
X100755444Y-79023901D01*
X100736284Y-79015965D01*
X100712250Y-79011185D01*
X100687746Y-79011185D01*
X100663713Y-79015966D01*
X100644555Y-79023901D01*
X100640416Y-79025157D01*
X100631857Y-79026000D01*
X100368143Y-79026000D01*
X100359584Y-79025157D01*
X100357255Y-79024450D01*
X100355113Y-79023305D01*
X100353235Y-79021765D01*
X100351695Y-79019887D01*
X100350550Y-79017745D01*
X100349843Y-79015416D01*
X100349000Y-79006857D01*
X100349000Y-78175999D01*
X100346598Y-78151613D01*
X100339485Y-78128164D01*
X100327934Y-78106553D01*
X100312389Y-78087611D01*
X100293447Y-78072066D01*
X100271836Y-78060515D01*
X100248387Y-78053402D01*
X100224001Y-78051000D01*
X99393143Y-78051000D01*
X99384584Y-78050157D01*
X99382255Y-78049450D01*
X99380113Y-78048305D01*
X99378235Y-78046765D01*
X99376695Y-78044887D01*
X99375550Y-78042745D01*
X99374843Y-78040416D01*
X99374000Y-78031857D01*
X99374000Y-77768143D01*
X99374843Y-77759584D01*
X99376099Y-77755444D01*
X99384035Y-77736284D01*
X99388815Y-77712250D01*
X99388815Y-77687746D01*
X99384034Y-77663713D01*
X99376099Y-77644555D01*
X99374843Y-77640416D01*
X99374000Y-77631857D01*
X99374000Y-77368143D01*
X99374843Y-77359584D01*
X99376099Y-77355444D01*
X99384035Y-77336284D01*
X99388815Y-77312250D01*
X99388815Y-77287746D01*
X99384034Y-77263713D01*
X99376099Y-77244555D01*
X99374843Y-77240416D01*
X99374000Y-77231857D01*
X99374000Y-76968143D01*
X99374843Y-76959584D01*
X99376099Y-76955444D01*
X99384035Y-76936284D01*
X99388815Y-76912250D01*
X99388815Y-76887746D01*
X99384034Y-76863713D01*
X99376099Y-76844555D01*
X99374843Y-76840416D01*
X99374000Y-76831857D01*
X99374000Y-76568143D01*
X99374843Y-76559584D01*
X99376099Y-76555444D01*
X99384035Y-76536284D01*
X99388815Y-76512250D01*
X99388815Y-76487746D01*
X99384034Y-76463713D01*
X99376099Y-76444555D01*
X99374843Y-76440416D01*
X99374000Y-76431857D01*
X99374000Y-76168143D01*
X99374843Y-76159584D01*
X99375550Y-76157255D01*
X99376695Y-76155113D01*
X99378235Y-76153235D01*
X99380113Y-76151695D01*
X99382255Y-76150550D01*
X99384584Y-76149843D01*
X99393143Y-76149000D01*
X100224001Y-76149000D01*
X100248387Y-76146598D01*
X100271836Y-76139485D01*
X100293447Y-76127934D01*
X100312389Y-76112389D01*
X100327934Y-76093447D01*
X100339485Y-76071836D01*
X100346598Y-76048387D01*
X100349000Y-76024001D01*
X100349000Y-75193143D01*
X100349843Y-75184584D01*
X100350550Y-75182255D01*
X100351695Y-75180113D01*
X100353235Y-75178235D01*
X100355113Y-75176695D01*
X100357255Y-75175550D01*
X100359584Y-75174843D01*
X100368143Y-75174000D01*
X100631857Y-75174000D01*
X100640416Y-75174843D01*
G37*
G36*
X64579434Y-77453686D02*
G01*
X64619284Y-77465774D01*
X64655999Y-77485399D01*
X64688186Y-77511814D01*
X64714601Y-77544001D01*
X64734226Y-77580716D01*
X64746314Y-77620566D01*
X64751000Y-77668141D01*
X64751000Y-78331859D01*
X64746314Y-78379434D01*
X64734226Y-78419284D01*
X64714601Y-78455999D01*
X64688186Y-78488186D01*
X64655999Y-78514601D01*
X64619284Y-78534226D01*
X64579434Y-78546314D01*
X64531859Y-78551000D01*
X61368141Y-78551000D01*
X61320566Y-78546314D01*
X61280716Y-78534226D01*
X61244001Y-78514601D01*
X61211814Y-78488186D01*
X61185399Y-78455999D01*
X61165774Y-78419284D01*
X61153686Y-78379434D01*
X61149000Y-78331859D01*
X61149000Y-77668141D01*
X61153686Y-77620566D01*
X61165774Y-77580716D01*
X61185399Y-77544001D01*
X61211814Y-77511814D01*
X61244001Y-77485399D01*
X61280716Y-77465774D01*
X61320566Y-77453686D01*
X61368141Y-77449000D01*
X64531859Y-77449000D01*
X64579434Y-77453686D01*
G37*
G36*
X98579591Y-76803085D02*
G01*
X98613569Y-76813393D01*
X98644890Y-76830134D01*
X98672339Y-76852661D01*
X98694866Y-76880110D01*
X98711607Y-76911431D01*
X98721915Y-76945409D01*
X98726000Y-76986890D01*
X98726000Y-77588110D01*
X98721915Y-77629591D01*
X98711607Y-77663569D01*
X98694866Y-77694890D01*
X98672339Y-77722339D01*
X98644890Y-77744866D01*
X98613569Y-77761607D01*
X98579591Y-77771915D01*
X98538110Y-77776000D01*
X97861890Y-77776000D01*
X97820409Y-77771915D01*
X97786431Y-77761607D01*
X97755110Y-77744866D01*
X97727661Y-77722339D01*
X97705134Y-77694890D01*
X97688393Y-77663569D01*
X97678085Y-77629591D01*
X97674000Y-77588110D01*
X97674000Y-76986890D01*
X97678085Y-76945409D01*
X97688393Y-76911431D01*
X97705134Y-76880110D01*
X97727661Y-76852661D01*
X97755110Y-76830134D01*
X97786431Y-76813393D01*
X97820409Y-76803085D01*
X97861890Y-76799000D01*
X98538110Y-76799000D01*
X98579591Y-76803085D01*
G37*
G36*
X69206564Y-74889389D02*
G01*
X69397833Y-74968615D01*
X69397835Y-74968616D01*
X69421191Y-74984222D01*
X69569973Y-75083635D01*
X69716365Y-75230027D01*
X69831385Y-75402167D01*
X69910611Y-75593436D01*
X69951000Y-75796484D01*
X69951000Y-76003516D01*
X69910611Y-76206564D01*
X69831385Y-76397833D01*
X69831384Y-76397835D01*
X69716365Y-76569973D01*
X69569973Y-76716365D01*
X69397835Y-76831384D01*
X69397834Y-76831385D01*
X69397833Y-76831385D01*
X69206564Y-76910611D01*
X69003516Y-76951000D01*
X68796484Y-76951000D01*
X68593436Y-76910611D01*
X68402167Y-76831385D01*
X68402166Y-76831385D01*
X68402165Y-76831384D01*
X68230027Y-76716365D01*
X68083635Y-76569973D01*
X67968616Y-76397835D01*
X67968615Y-76397833D01*
X67889389Y-76206564D01*
X67849000Y-76003516D01*
X67849000Y-75796484D01*
X67889389Y-75593436D01*
X67968615Y-75402167D01*
X68083635Y-75230027D01*
X68230027Y-75083635D01*
X68378809Y-74984222D01*
X68402165Y-74968616D01*
X68402167Y-74968615D01*
X68593436Y-74889389D01*
X68796484Y-74849000D01*
X69003516Y-74849000D01*
X69206564Y-74889389D01*
G37*
G36*
X107169443Y-74842519D02*
G01*
X107235627Y-74849037D01*
X107405466Y-74900557D01*
X107561991Y-74984222D01*
X107597729Y-75013552D01*
X107699186Y-75096814D01*
X107770765Y-75184035D01*
X107811778Y-75234009D01*
X107895443Y-75390534D01*
X107946963Y-75560373D01*
X107964359Y-75737000D01*
X107946963Y-75913627D01*
X107895443Y-76083466D01*
X107895442Y-76083468D01*
X107859586Y-76150550D01*
X107811778Y-76239991D01*
X107782636Y-76275500D01*
X107699186Y-76377186D01*
X107611010Y-76449549D01*
X107561991Y-76489778D01*
X107561989Y-76489779D01*
X107440444Y-76554747D01*
X107405466Y-76573443D01*
X107235627Y-76624963D01*
X107169442Y-76631482D01*
X107103260Y-76638000D01*
X106764740Y-76638000D01*
X106698558Y-76631482D01*
X106632373Y-76624963D01*
X106462534Y-76573443D01*
X106427557Y-76554747D01*
X106306011Y-76489779D01*
X106306009Y-76489778D01*
X106256990Y-76449549D01*
X106168814Y-76377186D01*
X106085364Y-76275500D01*
X106056222Y-76239991D01*
X106008414Y-76150550D01*
X105972558Y-76083468D01*
X105972557Y-76083466D01*
X105921037Y-75913627D01*
X105903641Y-75737000D01*
X105921037Y-75560373D01*
X105972557Y-75390534D01*
X106056222Y-75234009D01*
X106097235Y-75184035D01*
X106168814Y-75096814D01*
X106270271Y-75013552D01*
X106306009Y-74984222D01*
X106462534Y-74900557D01*
X106632373Y-74849037D01*
X106698557Y-74842519D01*
X106764740Y-74836000D01*
X107103260Y-74836000D01*
X107169443Y-74842519D01*
G37*
G36*
X64579434Y-75453686D02*
G01*
X64619284Y-75465774D01*
X64655999Y-75485399D01*
X64688186Y-75511814D01*
X64714601Y-75544001D01*
X64734226Y-75580716D01*
X64746314Y-75620566D01*
X64751000Y-75668141D01*
X64751000Y-76331859D01*
X64746314Y-76379434D01*
X64734226Y-76419284D01*
X64714601Y-76455999D01*
X64688186Y-76488186D01*
X64655999Y-76514601D01*
X64619284Y-76534226D01*
X64579434Y-76546314D01*
X64531859Y-76551000D01*
X61368141Y-76551000D01*
X61320566Y-76546314D01*
X61280716Y-76534226D01*
X61244001Y-76514601D01*
X61211814Y-76488186D01*
X61185399Y-76455999D01*
X61165774Y-76419284D01*
X61153686Y-76379434D01*
X61149000Y-76331859D01*
X61149000Y-75668141D01*
X61153686Y-75620566D01*
X61165774Y-75580716D01*
X61185399Y-75544001D01*
X61211814Y-75511814D01*
X61244001Y-75485399D01*
X61280716Y-75465774D01*
X61320566Y-75453686D01*
X61368141Y-75449000D01*
X64531859Y-75449000D01*
X64579434Y-75453686D01*
G37*
G36*
X98579591Y-75228085D02*
G01*
X98613569Y-75238393D01*
X98644890Y-75255134D01*
X98672339Y-75277661D01*
X98694866Y-75305110D01*
X98711607Y-75336431D01*
X98721915Y-75370409D01*
X98726000Y-75411890D01*
X98726000Y-76013110D01*
X98721915Y-76054591D01*
X98711607Y-76088569D01*
X98694866Y-76119890D01*
X98672339Y-76147339D01*
X98644890Y-76169866D01*
X98613569Y-76186607D01*
X98579591Y-76196915D01*
X98538110Y-76201000D01*
X97861890Y-76201000D01*
X97820409Y-76196915D01*
X97786431Y-76186607D01*
X97755110Y-76169866D01*
X97727661Y-76147339D01*
X97705134Y-76119890D01*
X97688393Y-76088569D01*
X97678085Y-76054591D01*
X97674000Y-76013110D01*
X97674000Y-75411890D01*
X97678085Y-75370409D01*
X97688393Y-75336431D01*
X97705134Y-75305110D01*
X97727661Y-75277661D01*
X97755110Y-75255134D01*
X97786431Y-75238393D01*
X97820409Y-75228085D01*
X97861890Y-75224000D01*
X98538110Y-75224000D01*
X98579591Y-75228085D01*
G37*
G36*
X99379591Y-73703085D02*
G01*
X99413569Y-73713393D01*
X99444890Y-73730134D01*
X99472339Y-73752661D01*
X99494866Y-73780110D01*
X99511607Y-73811431D01*
X99521915Y-73845409D01*
X99526000Y-73886890D01*
X99526000Y-74488110D01*
X99521915Y-74529591D01*
X99511607Y-74563569D01*
X99494866Y-74594890D01*
X99472339Y-74622339D01*
X99444890Y-74644866D01*
X99413569Y-74661607D01*
X99379591Y-74671915D01*
X99338110Y-74676000D01*
X98661890Y-74676000D01*
X98620409Y-74671915D01*
X98586431Y-74661607D01*
X98555110Y-74644866D01*
X98527661Y-74622339D01*
X98505134Y-74594890D01*
X98488393Y-74563569D01*
X98478085Y-74529591D01*
X98474000Y-74488110D01*
X98474000Y-73886890D01*
X98478085Y-73845409D01*
X98488393Y-73811431D01*
X98505134Y-73780110D01*
X98527661Y-73752661D01*
X98555110Y-73730134D01*
X98586431Y-73713393D01*
X98620409Y-73703085D01*
X98661890Y-73699000D01*
X99338110Y-73699000D01*
X99379591Y-73703085D01*
G37*
G36*
X97779591Y-73703085D02*
G01*
X97813569Y-73713393D01*
X97844890Y-73730134D01*
X97872339Y-73752661D01*
X97894866Y-73780110D01*
X97911607Y-73811431D01*
X97921915Y-73845409D01*
X97926000Y-73886890D01*
X97926000Y-74488110D01*
X97921915Y-74529591D01*
X97911607Y-74563569D01*
X97894866Y-74594890D01*
X97872339Y-74622339D01*
X97844890Y-74644866D01*
X97813569Y-74661607D01*
X97779591Y-74671915D01*
X97738110Y-74676000D01*
X97061890Y-74676000D01*
X97020409Y-74671915D01*
X96986431Y-74661607D01*
X96955110Y-74644866D01*
X96927661Y-74622339D01*
X96905134Y-74594890D01*
X96888393Y-74563569D01*
X96878085Y-74529591D01*
X96874000Y-74488110D01*
X96874000Y-73886890D01*
X96878085Y-73845409D01*
X96888393Y-73811431D01*
X96905134Y-73780110D01*
X96927661Y-73752661D01*
X96955110Y-73730134D01*
X96986431Y-73713393D01*
X97020409Y-73703085D01*
X97061890Y-73699000D01*
X97738110Y-73699000D01*
X97779591Y-73703085D01*
G37*
G36*
X103079591Y-73703085D02*
G01*
X103113569Y-73713393D01*
X103144890Y-73730134D01*
X103172339Y-73752661D01*
X103194866Y-73780110D01*
X103211607Y-73811431D01*
X103221915Y-73845409D01*
X103226000Y-73886890D01*
X103226000Y-74488110D01*
X103221915Y-74529591D01*
X103211607Y-74563569D01*
X103194866Y-74594890D01*
X103172339Y-74622339D01*
X103144890Y-74644866D01*
X103113569Y-74661607D01*
X103079591Y-74671915D01*
X103038110Y-74676000D01*
X102361890Y-74676000D01*
X102320409Y-74671915D01*
X102286431Y-74661607D01*
X102255110Y-74644866D01*
X102227661Y-74622339D01*
X102205134Y-74594890D01*
X102188393Y-74563569D01*
X102178085Y-74529591D01*
X102174000Y-74488110D01*
X102174000Y-73886890D01*
X102178085Y-73845409D01*
X102188393Y-73811431D01*
X102205134Y-73780110D01*
X102227661Y-73752661D01*
X102255110Y-73730134D01*
X102286431Y-73713393D01*
X102320409Y-73703085D01*
X102361890Y-73699000D01*
X103038110Y-73699000D01*
X103079591Y-73703085D01*
G37*
G36*
X101379591Y-73703085D02*
G01*
X101413569Y-73713393D01*
X101444890Y-73730134D01*
X101472339Y-73752661D01*
X101494866Y-73780110D01*
X101511607Y-73811431D01*
X101521915Y-73845409D01*
X101526000Y-73886890D01*
X101526000Y-74488110D01*
X101521915Y-74529591D01*
X101511607Y-74563569D01*
X101494866Y-74594890D01*
X101472339Y-74622339D01*
X101444890Y-74644866D01*
X101413569Y-74661607D01*
X101379591Y-74671915D01*
X101338110Y-74676000D01*
X100661890Y-74676000D01*
X100620409Y-74671915D01*
X100586431Y-74661607D01*
X100555110Y-74644866D01*
X100527661Y-74622339D01*
X100505134Y-74594890D01*
X100488393Y-74563569D01*
X100478085Y-74529591D01*
X100474000Y-74488110D01*
X100474000Y-73886890D01*
X100478085Y-73845409D01*
X100488393Y-73811431D01*
X100505134Y-73780110D01*
X100527661Y-73752661D01*
X100555110Y-73730134D01*
X100586431Y-73713393D01*
X100620409Y-73703085D01*
X100661890Y-73699000D01*
X101338110Y-73699000D01*
X101379591Y-73703085D01*
G37*
G36*
X58803048Y-72853122D02*
G01*
X58837387Y-72863539D01*
X58869036Y-72880456D01*
X58896778Y-72903222D01*
X58919544Y-72930964D01*
X58936461Y-72962613D01*
X58946878Y-72996952D01*
X58951000Y-73038807D01*
X58951000Y-74261193D01*
X58946878Y-74303048D01*
X58936461Y-74337387D01*
X58919544Y-74369036D01*
X58896778Y-74396778D01*
X58869036Y-74419544D01*
X58837387Y-74436461D01*
X58803048Y-74446878D01*
X58761193Y-74451000D01*
X55638807Y-74451000D01*
X55596952Y-74446878D01*
X55562613Y-74436461D01*
X55530964Y-74419544D01*
X55503222Y-74396778D01*
X55480456Y-74369036D01*
X55463539Y-74337387D01*
X55453122Y-74303048D01*
X55449000Y-74261193D01*
X55449000Y-73038807D01*
X55453122Y-72996952D01*
X55463539Y-72962613D01*
X55480456Y-72930964D01*
X55503222Y-72903222D01*
X55530964Y-72880456D01*
X55562613Y-72863539D01*
X55596952Y-72853122D01*
X55638807Y-72849000D01*
X58761193Y-72849000D01*
X58803048Y-72853122D01*
G37*
G36*
X107169443Y-72342519D02*
G01*
X107235627Y-72349037D01*
X107405466Y-72400557D01*
X107561991Y-72484222D01*
X107597729Y-72513552D01*
X107699186Y-72596814D01*
X107782448Y-72698271D01*
X107811778Y-72734009D01*
X107895443Y-72890534D01*
X107946963Y-73060373D01*
X107964359Y-73237000D01*
X107946963Y-73413627D01*
X107895443Y-73583466D01*
X107811778Y-73739991D01*
X107801380Y-73752661D01*
X107699186Y-73877186D01*
X107597729Y-73960448D01*
X107561991Y-73989778D01*
X107405466Y-74073443D01*
X107235627Y-74124963D01*
X107169442Y-74131482D01*
X107103260Y-74138000D01*
X106764740Y-74138000D01*
X106698558Y-74131482D01*
X106632373Y-74124963D01*
X106462534Y-74073443D01*
X106306009Y-73989778D01*
X106270271Y-73960448D01*
X106168814Y-73877186D01*
X106066620Y-73752661D01*
X106056222Y-73739991D01*
X105972557Y-73583466D01*
X105921037Y-73413627D01*
X105903641Y-73237000D01*
X105921037Y-73060373D01*
X105972557Y-72890534D01*
X106056222Y-72734009D01*
X106085552Y-72698271D01*
X106168814Y-72596814D01*
X106270271Y-72513552D01*
X106306009Y-72484222D01*
X106462534Y-72400557D01*
X106632373Y-72349037D01*
X106698557Y-72342519D01*
X106764740Y-72336000D01*
X107103260Y-72336000D01*
X107169443Y-72342519D01*
G37*
G36*
X99379591Y-72128085D02*
G01*
X99413569Y-72138393D01*
X99444890Y-72155134D01*
X99472339Y-72177661D01*
X99494866Y-72205110D01*
X99511607Y-72236431D01*
X99521915Y-72270409D01*
X99526000Y-72311890D01*
X99526000Y-72913110D01*
X99521915Y-72954591D01*
X99511607Y-72988569D01*
X99494866Y-73019890D01*
X99472339Y-73047339D01*
X99444890Y-73069866D01*
X99413569Y-73086607D01*
X99379591Y-73096915D01*
X99338110Y-73101000D01*
X98661890Y-73101000D01*
X98620409Y-73096915D01*
X98586431Y-73086607D01*
X98555110Y-73069866D01*
X98527661Y-73047339D01*
X98505134Y-73019890D01*
X98488393Y-72988569D01*
X98478085Y-72954591D01*
X98474000Y-72913110D01*
X98474000Y-72311890D01*
X98478085Y-72270409D01*
X98488393Y-72236431D01*
X98505134Y-72205110D01*
X98527661Y-72177661D01*
X98555110Y-72155134D01*
X98586431Y-72138393D01*
X98620409Y-72128085D01*
X98661890Y-72124000D01*
X99338110Y-72124000D01*
X99379591Y-72128085D01*
G37*
G36*
X101379591Y-72128085D02*
G01*
X101413569Y-72138393D01*
X101444890Y-72155134D01*
X101472339Y-72177661D01*
X101494866Y-72205110D01*
X101511607Y-72236431D01*
X101521915Y-72270409D01*
X101526000Y-72311890D01*
X101526000Y-72913110D01*
X101521915Y-72954591D01*
X101511607Y-72988569D01*
X101494866Y-73019890D01*
X101472339Y-73047339D01*
X101444890Y-73069866D01*
X101413569Y-73086607D01*
X101379591Y-73096915D01*
X101338110Y-73101000D01*
X100661890Y-73101000D01*
X100620409Y-73096915D01*
X100586431Y-73086607D01*
X100555110Y-73069866D01*
X100527661Y-73047339D01*
X100505134Y-73019890D01*
X100488393Y-72988569D01*
X100478085Y-72954591D01*
X100474000Y-72913110D01*
X100474000Y-72311890D01*
X100478085Y-72270409D01*
X100488393Y-72236431D01*
X100505134Y-72205110D01*
X100527661Y-72177661D01*
X100555110Y-72155134D01*
X100586431Y-72138393D01*
X100620409Y-72128085D01*
X100661890Y-72124000D01*
X101338110Y-72124000D01*
X101379591Y-72128085D01*
G37*
G36*
X103079591Y-72128085D02*
G01*
X103113569Y-72138393D01*
X103144890Y-72155134D01*
X103172339Y-72177661D01*
X103194866Y-72205110D01*
X103211607Y-72236431D01*
X103221915Y-72270409D01*
X103226000Y-72311890D01*
X103226000Y-72913110D01*
X103221915Y-72954591D01*
X103211607Y-72988569D01*
X103194866Y-73019890D01*
X103172339Y-73047339D01*
X103144890Y-73069866D01*
X103113569Y-73086607D01*
X103079591Y-73096915D01*
X103038110Y-73101000D01*
X102361890Y-73101000D01*
X102320409Y-73096915D01*
X102286431Y-73086607D01*
X102255110Y-73069866D01*
X102227661Y-73047339D01*
X102205134Y-73019890D01*
X102188393Y-72988569D01*
X102178085Y-72954591D01*
X102174000Y-72913110D01*
X102174000Y-72311890D01*
X102178085Y-72270409D01*
X102188393Y-72236431D01*
X102205134Y-72205110D01*
X102227661Y-72177661D01*
X102255110Y-72155134D01*
X102286431Y-72138393D01*
X102320409Y-72128085D01*
X102361890Y-72124000D01*
X103038110Y-72124000D01*
X103079591Y-72128085D01*
G37*
G36*
X97779591Y-72128085D02*
G01*
X97813569Y-72138393D01*
X97844890Y-72155134D01*
X97872339Y-72177661D01*
X97894866Y-72205110D01*
X97911607Y-72236431D01*
X97921915Y-72270409D01*
X97926000Y-72311890D01*
X97926000Y-72913110D01*
X97921915Y-72954591D01*
X97911607Y-72988569D01*
X97894866Y-73019890D01*
X97872339Y-73047339D01*
X97844890Y-73069866D01*
X97813569Y-73086607D01*
X97779591Y-73096915D01*
X97738110Y-73101000D01*
X97061890Y-73101000D01*
X97020409Y-73096915D01*
X96986431Y-73086607D01*
X96955110Y-73069866D01*
X96927661Y-73047339D01*
X96905134Y-73019890D01*
X96888393Y-72988569D01*
X96878085Y-72954591D01*
X96874000Y-72913110D01*
X96874000Y-72311890D01*
X96878085Y-72270409D01*
X96888393Y-72236431D01*
X96905134Y-72205110D01*
X96927661Y-72177661D01*
X96955110Y-72155134D01*
X96986431Y-72138393D01*
X97020409Y-72128085D01*
X97061890Y-72124000D01*
X97738110Y-72124000D01*
X97779591Y-72128085D01*
G37*
G36*
X101396811Y-66178271D02*
G01*
X101432603Y-66189129D01*
X101465595Y-66206763D01*
X101494508Y-66230492D01*
X101518237Y-66259405D01*
X101535871Y-66292397D01*
X101546729Y-66328189D01*
X101551000Y-66371555D01*
X101551000Y-68428445D01*
X101546729Y-68471811D01*
X101535871Y-68507603D01*
X101518237Y-68540595D01*
X101494508Y-68569508D01*
X101465595Y-68593237D01*
X101432603Y-68610871D01*
X101396811Y-68621729D01*
X101353445Y-68626000D01*
X100321555Y-68626000D01*
X100278189Y-68621729D01*
X100242397Y-68610871D01*
X100209405Y-68593237D01*
X100180492Y-68569508D01*
X100156763Y-68540595D01*
X100139129Y-68507603D01*
X100128271Y-68471811D01*
X100124000Y-68428445D01*
X100124000Y-66371555D01*
X100128271Y-66328189D01*
X100139129Y-66292397D01*
X100156763Y-66259405D01*
X100180492Y-66230492D01*
X100209405Y-66206763D01*
X100242397Y-66189129D01*
X100278189Y-66178271D01*
X100321555Y-66174000D01*
X101353445Y-66174000D01*
X101396811Y-66178271D01*
G37*
G36*
X98321811Y-66178271D02*
G01*
X98357603Y-66189129D01*
X98390595Y-66206763D01*
X98419508Y-66230492D01*
X98443237Y-66259405D01*
X98460871Y-66292397D01*
X98471729Y-66328189D01*
X98476000Y-66371555D01*
X98476000Y-68428445D01*
X98471729Y-68471811D01*
X98460871Y-68507603D01*
X98443237Y-68540595D01*
X98419508Y-68569508D01*
X98390595Y-68593237D01*
X98357603Y-68610871D01*
X98321811Y-68621729D01*
X98278445Y-68626000D01*
X97246555Y-68626000D01*
X97203189Y-68621729D01*
X97167397Y-68610871D01*
X97134405Y-68593237D01*
X97105492Y-68569508D01*
X97081763Y-68540595D01*
X97064129Y-68507603D01*
X97053271Y-68471811D01*
X97049000Y-68428445D01*
X97049000Y-66371555D01*
X97053271Y-66328189D01*
X97064129Y-66292397D01*
X97081763Y-66259405D01*
X97105492Y-66230492D01*
X97134405Y-66206763D01*
X97167397Y-66189129D01*
X97203189Y-66178271D01*
X97246555Y-66174000D01*
X98278445Y-66174000D01*
X98321811Y-66178271D01*
G37*
G36*
X103079591Y-67603085D02*
G01*
X103113569Y-67613393D01*
X103144890Y-67630134D01*
X103172339Y-67652661D01*
X103194866Y-67680110D01*
X103211607Y-67711431D01*
X103221915Y-67745409D01*
X103226000Y-67786890D01*
X103226000Y-68388110D01*
X103221915Y-68429591D01*
X103211607Y-68463569D01*
X103194866Y-68494890D01*
X103172339Y-68522339D01*
X103144890Y-68544866D01*
X103113569Y-68561607D01*
X103079591Y-68571915D01*
X103038110Y-68576000D01*
X102361890Y-68576000D01*
X102320409Y-68571915D01*
X102286431Y-68561607D01*
X102255110Y-68544866D01*
X102227661Y-68522339D01*
X102205134Y-68494890D01*
X102188393Y-68463569D01*
X102178085Y-68429591D01*
X102174000Y-68388110D01*
X102174000Y-67786890D01*
X102178085Y-67745409D01*
X102188393Y-67711431D01*
X102205134Y-67680110D01*
X102227661Y-67652661D01*
X102255110Y-67630134D01*
X102286431Y-67613393D01*
X102320409Y-67603085D01*
X102361890Y-67599000D01*
X103038110Y-67599000D01*
X103079591Y-67603085D01*
G37*
G36*
X107783600Y-66002989D02*
G01*
X107816652Y-66013015D01*
X107847103Y-66029292D01*
X107873799Y-66051201D01*
X107895708Y-66077897D01*
X107911985Y-66108348D01*
X107922011Y-66141400D01*
X107926000Y-66181903D01*
X107926000Y-67618097D01*
X107922011Y-67658600D01*
X107911985Y-67691652D01*
X107895708Y-67722103D01*
X107873799Y-67748799D01*
X107847103Y-67770708D01*
X107816652Y-67786985D01*
X107783600Y-67797011D01*
X107743097Y-67801000D01*
X106056903Y-67801000D01*
X106016400Y-67797011D01*
X105983348Y-67786985D01*
X105952897Y-67770708D01*
X105926201Y-67748799D01*
X105904292Y-67722103D01*
X105888015Y-67691652D01*
X105877989Y-67658600D01*
X105874000Y-67618097D01*
X105874000Y-66181903D01*
X105877989Y-66141400D01*
X105888015Y-66108348D01*
X105904292Y-66077897D01*
X105926201Y-66051201D01*
X105952897Y-66029292D01*
X105983348Y-66013015D01*
X106016400Y-66002989D01*
X106056903Y-65999000D01*
X107743097Y-65999000D01*
X107783600Y-66002989D01*
G37*
G36*
X103079591Y-66028085D02*
G01*
X103113569Y-66038393D01*
X103144890Y-66055134D01*
X103172339Y-66077661D01*
X103194866Y-66105110D01*
X103211607Y-66136431D01*
X103221915Y-66170409D01*
X103226000Y-66211890D01*
X103226000Y-66813110D01*
X103221915Y-66854591D01*
X103211607Y-66888569D01*
X103194866Y-66919890D01*
X103172339Y-66947339D01*
X103144890Y-66969866D01*
X103113569Y-66986607D01*
X103079591Y-66996915D01*
X103038110Y-67001000D01*
X102361890Y-67001000D01*
X102320409Y-66996915D01*
X102286431Y-66986607D01*
X102255110Y-66969866D01*
X102227661Y-66947339D01*
X102205134Y-66919890D01*
X102188393Y-66888569D01*
X102178085Y-66854591D01*
X102174000Y-66813110D01*
X102174000Y-66211890D01*
X102178085Y-66170409D01*
X102188393Y-66136431D01*
X102205134Y-66105110D01*
X102227661Y-66077661D01*
X102255110Y-66055134D01*
X102286431Y-66038393D01*
X102320409Y-66028085D01*
X102361890Y-66024000D01*
X103038110Y-66024000D01*
X103079591Y-66028085D01*
G37*
G36*
X52216242Y-65453404D02*
G01*
X52253337Y-65464657D01*
X52287515Y-65482925D01*
X52317481Y-65507519D01*
X52342075Y-65537485D01*
X52360343Y-65571663D01*
X52371596Y-65608758D01*
X52376000Y-65653474D01*
X52376000Y-66546526D01*
X52371596Y-66591242D01*
X52360343Y-66628337D01*
X52342075Y-66662515D01*
X52317481Y-66692481D01*
X52287515Y-66717075D01*
X52253337Y-66735343D01*
X52216242Y-66746596D01*
X52171526Y-66751000D01*
X50678474Y-66751000D01*
X50633758Y-66746596D01*
X50596663Y-66735343D01*
X50562485Y-66717075D01*
X50532519Y-66692481D01*
X50507925Y-66662515D01*
X50489657Y-66628337D01*
X50478404Y-66591242D01*
X50474000Y-66546526D01*
X50474000Y-65653474D01*
X50478404Y-65608758D01*
X50489657Y-65571663D01*
X50507925Y-65537485D01*
X50532519Y-65507519D01*
X50562485Y-65482925D01*
X50596663Y-65464657D01*
X50633758Y-65453404D01*
X50678474Y-65449000D01*
X52171526Y-65449000D01*
X52216242Y-65453404D01*
G37*
G36*
X107135443Y-63505519D02*
G01*
X107201627Y-63512037D01*
X107371466Y-63563557D01*
X107527991Y-63647222D01*
X107563729Y-63676552D01*
X107665186Y-63759814D01*
X107738857Y-63849584D01*
X107777778Y-63897009D01*
X107861443Y-64053534D01*
X107912963Y-64223373D01*
X107930359Y-64400000D01*
X107912963Y-64576627D01*
X107861443Y-64746466D01*
X107777778Y-64902991D01*
X107748448Y-64938729D01*
X107665186Y-65040186D01*
X107574573Y-65114549D01*
X107527991Y-65152778D01*
X107371466Y-65236443D01*
X107201627Y-65287963D01*
X107135443Y-65294481D01*
X107069260Y-65301000D01*
X106730740Y-65301000D01*
X106664557Y-65294481D01*
X106598373Y-65287963D01*
X106428534Y-65236443D01*
X106272009Y-65152778D01*
X106225427Y-65114549D01*
X106134814Y-65040186D01*
X106051552Y-64938729D01*
X106022222Y-64902991D01*
X105938557Y-64746466D01*
X105887037Y-64576627D01*
X105869641Y-64400000D01*
X105887037Y-64223373D01*
X105938557Y-64053534D01*
X106022222Y-63897009D01*
X106061143Y-63849584D01*
X106134814Y-63759814D01*
X106236271Y-63676552D01*
X106272009Y-63647222D01*
X106428534Y-63563557D01*
X106598373Y-63512037D01*
X106664557Y-63505519D01*
X106730740Y-63499000D01*
X107069260Y-63499000D01*
X107135443Y-63505519D01*
G37*
G36*
X56034928Y-64451764D02*
G01*
X56056009Y-64458160D01*
X56075445Y-64468548D01*
X56092476Y-64482524D01*
X56106452Y-64499555D01*
X56116840Y-64518991D01*
X56123236Y-64540072D01*
X56126000Y-64568140D01*
X56126000Y-65031860D01*
X56123236Y-65059928D01*
X56116840Y-65081009D01*
X56106452Y-65100445D01*
X56092476Y-65117476D01*
X56075445Y-65131452D01*
X56056009Y-65141840D01*
X56034928Y-65148236D01*
X56006860Y-65151000D01*
X54593140Y-65151000D01*
X54565072Y-65148236D01*
X54543991Y-65141840D01*
X54524555Y-65131452D01*
X54507524Y-65117476D01*
X54493548Y-65100445D01*
X54483160Y-65081009D01*
X54476764Y-65059928D01*
X54474000Y-65031860D01*
X54474000Y-64568140D01*
X54476764Y-64540072D01*
X54483160Y-64518991D01*
X54493548Y-64499555D01*
X54507524Y-64482524D01*
X54524555Y-64468548D01*
X54543991Y-64458160D01*
X54565072Y-64451764D01*
X54593140Y-64449000D01*
X56006860Y-64449000D01*
X56034928Y-64451764D01*
G37*
G36*
X100650416Y-61264843D02*
G01*
X100654556Y-61266099D01*
X100673716Y-61274035D01*
X100697750Y-61278815D01*
X100722254Y-61278815D01*
X100746287Y-61274034D01*
X100765445Y-61266099D01*
X100769584Y-61264843D01*
X100778143Y-61264000D01*
X101041857Y-61264000D01*
X101050416Y-61264843D01*
X101054556Y-61266099D01*
X101073716Y-61274035D01*
X101097750Y-61278815D01*
X101122254Y-61278815D01*
X101146287Y-61274034D01*
X101165445Y-61266099D01*
X101169584Y-61264843D01*
X101178143Y-61264000D01*
X101441857Y-61264000D01*
X101450416Y-61264843D01*
X101454556Y-61266099D01*
X101473716Y-61274035D01*
X101497750Y-61278815D01*
X101522254Y-61278815D01*
X101546287Y-61274034D01*
X101565445Y-61266099D01*
X101569584Y-61264843D01*
X101578143Y-61264000D01*
X101841857Y-61264000D01*
X101850416Y-61264843D01*
X101854556Y-61266099D01*
X101873716Y-61274035D01*
X101897750Y-61278815D01*
X101922254Y-61278815D01*
X101946287Y-61274034D01*
X101965445Y-61266099D01*
X101969584Y-61264843D01*
X101978143Y-61264000D01*
X102241857Y-61264000D01*
X102250416Y-61264843D01*
X102252745Y-61265550D01*
X102254887Y-61266695D01*
X102256765Y-61268235D01*
X102258305Y-61270113D01*
X102259450Y-61272255D01*
X102260157Y-61274584D01*
X102261000Y-61283143D01*
X102261000Y-62114001D01*
X102263402Y-62138387D01*
X102270515Y-62161836D01*
X102282066Y-62183447D01*
X102297611Y-62202389D01*
X102316553Y-62217934D01*
X102338164Y-62229485D01*
X102361613Y-62236598D01*
X102385999Y-62239000D01*
X103216857Y-62239000D01*
X103225416Y-62239843D01*
X103227745Y-62240550D01*
X103229887Y-62241695D01*
X103231765Y-62243235D01*
X103233305Y-62245113D01*
X103234450Y-62247255D01*
X103235157Y-62249584D01*
X103236000Y-62258143D01*
X103236000Y-62521857D01*
X103235157Y-62530416D01*
X103233901Y-62534556D01*
X103225965Y-62553716D01*
X103221185Y-62577750D01*
X103221185Y-62602254D01*
X103225966Y-62626287D01*
X103233901Y-62645445D01*
X103235157Y-62649584D01*
X103236000Y-62658143D01*
X103236000Y-62921857D01*
X103235157Y-62930416D01*
X103233901Y-62934556D01*
X103225965Y-62953716D01*
X103221185Y-62977750D01*
X103221185Y-63002254D01*
X103225966Y-63026287D01*
X103233901Y-63045445D01*
X103235157Y-63049584D01*
X103236000Y-63058143D01*
X103236000Y-63321857D01*
X103235157Y-63330416D01*
X103233901Y-63334556D01*
X103225965Y-63353716D01*
X103221185Y-63377750D01*
X103221185Y-63402254D01*
X103225966Y-63426287D01*
X103233901Y-63445445D01*
X103235157Y-63449584D01*
X103236000Y-63458143D01*
X103236000Y-63721857D01*
X103235157Y-63730416D01*
X103233901Y-63734556D01*
X103225965Y-63753716D01*
X103221185Y-63777750D01*
X103221185Y-63802254D01*
X103225966Y-63826287D01*
X103233901Y-63845445D01*
X103235157Y-63849584D01*
X103236000Y-63858143D01*
X103236000Y-64121857D01*
X103235157Y-64130416D01*
X103234450Y-64132745D01*
X103233305Y-64134887D01*
X103231765Y-64136765D01*
X103229887Y-64138305D01*
X103227745Y-64139450D01*
X103225416Y-64140157D01*
X103216857Y-64141000D01*
X102385999Y-64141000D01*
X102361613Y-64143402D01*
X102338164Y-64150515D01*
X102316553Y-64162066D01*
X102297611Y-64177611D01*
X102282066Y-64196553D01*
X102270515Y-64218164D01*
X102263402Y-64241613D01*
X102261000Y-64265999D01*
X102261000Y-65096857D01*
X102260157Y-65105416D01*
X102259450Y-65107745D01*
X102258305Y-65109887D01*
X102256765Y-65111765D01*
X102254887Y-65113305D01*
X102252745Y-65114450D01*
X102250416Y-65115157D01*
X102241857Y-65116000D01*
X101978143Y-65116000D01*
X101969584Y-65115157D01*
X101965444Y-65113901D01*
X101946284Y-65105965D01*
X101922250Y-65101185D01*
X101897746Y-65101185D01*
X101873713Y-65105966D01*
X101854555Y-65113901D01*
X101850416Y-65115157D01*
X101841857Y-65116000D01*
X101578143Y-65116000D01*
X101569584Y-65115157D01*
X101565444Y-65113901D01*
X101546284Y-65105965D01*
X101522250Y-65101185D01*
X101497746Y-65101185D01*
X101473713Y-65105966D01*
X101454555Y-65113901D01*
X101450416Y-65115157D01*
X101441857Y-65116000D01*
X101178143Y-65116000D01*
X101169584Y-65115157D01*
X101165444Y-65113901D01*
X101146284Y-65105965D01*
X101122250Y-65101185D01*
X101097746Y-65101185D01*
X101073713Y-65105966D01*
X101054555Y-65113901D01*
X101050416Y-65115157D01*
X101041857Y-65116000D01*
X100778143Y-65116000D01*
X100769584Y-65115157D01*
X100765444Y-65113901D01*
X100746284Y-65105965D01*
X100722250Y-65101185D01*
X100697746Y-65101185D01*
X100673713Y-65105966D01*
X100654555Y-65113901D01*
X100650416Y-65115157D01*
X100641857Y-65116000D01*
X100378143Y-65116000D01*
X100369584Y-65115157D01*
X100367255Y-65114450D01*
X100365113Y-65113305D01*
X100363235Y-65111765D01*
X100361695Y-65109887D01*
X100360550Y-65107745D01*
X100359843Y-65105416D01*
X100359000Y-65096857D01*
X100359000Y-64265999D01*
X100356598Y-64241613D01*
X100349485Y-64218164D01*
X100337934Y-64196553D01*
X100322389Y-64177611D01*
X100303447Y-64162066D01*
X100281836Y-64150515D01*
X100258387Y-64143402D01*
X100234001Y-64141000D01*
X99403143Y-64141000D01*
X99394584Y-64140157D01*
X99392255Y-64139450D01*
X99390113Y-64138305D01*
X99388235Y-64136765D01*
X99386695Y-64134887D01*
X99385550Y-64132745D01*
X99384843Y-64130416D01*
X99384000Y-64121857D01*
X99384000Y-63858143D01*
X99384843Y-63849584D01*
X99386099Y-63845444D01*
X99394035Y-63826284D01*
X99398815Y-63802250D01*
X99398815Y-63777746D01*
X99394034Y-63753713D01*
X99386099Y-63734555D01*
X99384843Y-63730416D01*
X99384000Y-63721857D01*
X99384000Y-63458143D01*
X99384843Y-63449584D01*
X99386099Y-63445444D01*
X99394035Y-63426284D01*
X99398815Y-63402250D01*
X99398815Y-63377746D01*
X99394034Y-63353713D01*
X99386099Y-63334555D01*
X99384843Y-63330416D01*
X99384000Y-63321857D01*
X99384000Y-63058143D01*
X99384843Y-63049584D01*
X99386099Y-63045444D01*
X99394035Y-63026284D01*
X99398815Y-63002250D01*
X99398815Y-62977746D01*
X99394034Y-62953713D01*
X99386099Y-62934555D01*
X99384843Y-62930416D01*
X99384000Y-62921857D01*
X99384000Y-62658143D01*
X99384843Y-62649584D01*
X99386099Y-62645444D01*
X99394035Y-62626284D01*
X99398815Y-62602250D01*
X99398815Y-62577746D01*
X99394034Y-62553713D01*
X99386099Y-62534555D01*
X99384843Y-62530416D01*
X99384000Y-62521857D01*
X99384000Y-62258143D01*
X99384843Y-62249584D01*
X99385550Y-62247255D01*
X99386695Y-62245113D01*
X99388235Y-62243235D01*
X99390113Y-62241695D01*
X99392255Y-62240550D01*
X99394584Y-62239843D01*
X99403143Y-62239000D01*
X100234001Y-62239000D01*
X100258387Y-62236598D01*
X100281836Y-62229485D01*
X100303447Y-62217934D01*
X100322389Y-62202389D01*
X100337934Y-62183447D01*
X100349485Y-62161836D01*
X100356598Y-62138387D01*
X100359000Y-62114001D01*
X100359000Y-61283143D01*
X100359843Y-61274584D01*
X100360550Y-61272255D01*
X100361695Y-61270113D01*
X100363235Y-61268235D01*
X100365113Y-61266695D01*
X100367255Y-61265550D01*
X100369584Y-61264843D01*
X100378143Y-61264000D01*
X100641857Y-61264000D01*
X100650416Y-61264843D01*
G37*
G36*
X56034928Y-63451764D02*
G01*
X56056009Y-63458160D01*
X56075445Y-63468548D01*
X56092476Y-63482524D01*
X56106452Y-63499555D01*
X56116840Y-63518991D01*
X56123236Y-63540072D01*
X56126000Y-63568140D01*
X56126000Y-64031860D01*
X56123236Y-64059928D01*
X56116840Y-64081009D01*
X56106452Y-64100445D01*
X56092476Y-64117476D01*
X56075445Y-64131452D01*
X56056009Y-64141840D01*
X56034928Y-64148236D01*
X56006860Y-64151000D01*
X54593140Y-64151000D01*
X54565072Y-64148236D01*
X54543991Y-64141840D01*
X54524555Y-64131452D01*
X54507524Y-64117476D01*
X54493548Y-64100445D01*
X54483160Y-64081009D01*
X54476764Y-64059928D01*
X54474000Y-64031860D01*
X54474000Y-63568140D01*
X54476764Y-63540072D01*
X54483160Y-63518991D01*
X54493548Y-63499555D01*
X54507524Y-63482524D01*
X54524555Y-63468548D01*
X54543991Y-63458160D01*
X54565072Y-63451764D01*
X54593140Y-63449000D01*
X56006860Y-63449000D01*
X56034928Y-63451764D01*
G37*
G36*
X98579591Y-62903085D02*
G01*
X98613569Y-62913393D01*
X98644890Y-62930134D01*
X98672339Y-62952661D01*
X98694866Y-62980110D01*
X98711607Y-63011431D01*
X98721915Y-63045409D01*
X98726000Y-63086890D01*
X98726000Y-63688110D01*
X98721915Y-63729591D01*
X98711607Y-63763569D01*
X98694866Y-63794890D01*
X98672339Y-63822339D01*
X98644890Y-63844866D01*
X98613569Y-63861607D01*
X98579591Y-63871915D01*
X98538110Y-63876000D01*
X97861890Y-63876000D01*
X97820409Y-63871915D01*
X97786431Y-63861607D01*
X97755110Y-63844866D01*
X97727661Y-63822339D01*
X97705134Y-63794890D01*
X97688393Y-63763569D01*
X97678085Y-63729591D01*
X97674000Y-63688110D01*
X97674000Y-63086890D01*
X97678085Y-63045409D01*
X97688393Y-63011431D01*
X97705134Y-62980110D01*
X97727661Y-62952661D01*
X97755110Y-62930134D01*
X97786431Y-62913393D01*
X97820409Y-62903085D01*
X97861890Y-62899000D01*
X98538110Y-62899000D01*
X98579591Y-62903085D01*
G37*
G36*
X56034928Y-62451764D02*
G01*
X56056009Y-62458160D01*
X56075445Y-62468548D01*
X56092476Y-62482524D01*
X56106452Y-62499555D01*
X56116840Y-62518991D01*
X56123236Y-62540072D01*
X56126000Y-62568140D01*
X56126000Y-63031860D01*
X56123236Y-63059928D01*
X56116840Y-63081009D01*
X56106452Y-63100445D01*
X56092476Y-63117476D01*
X56075445Y-63131452D01*
X56056009Y-63141840D01*
X56034928Y-63148236D01*
X56006860Y-63151000D01*
X54593140Y-63151000D01*
X54565072Y-63148236D01*
X54543991Y-63141840D01*
X54524555Y-63131452D01*
X54507524Y-63117476D01*
X54493548Y-63100445D01*
X54483160Y-63081009D01*
X54476764Y-63059928D01*
X54474000Y-63031860D01*
X54474000Y-62568140D01*
X54476764Y-62540072D01*
X54483160Y-62518991D01*
X54493548Y-62499555D01*
X54507524Y-62482524D01*
X54524555Y-62468548D01*
X54543991Y-62458160D01*
X54565072Y-62451764D01*
X54593140Y-62449000D01*
X56006860Y-62449000D01*
X56034928Y-62451764D01*
G37*
G36*
X107135443Y-61005519D02*
G01*
X107201627Y-61012037D01*
X107371466Y-61063557D01*
X107527991Y-61147222D01*
X107532594Y-61151000D01*
X107665186Y-61259814D01*
X107733119Y-61342592D01*
X107777778Y-61397009D01*
X107861443Y-61553534D01*
X107912963Y-61723373D01*
X107930359Y-61900000D01*
X107912963Y-62076627D01*
X107862890Y-62241695D01*
X107861442Y-62246468D01*
X107854297Y-62259836D01*
X107777778Y-62402991D01*
X107753990Y-62431976D01*
X107665186Y-62540186D01*
X107563729Y-62623448D01*
X107527991Y-62652778D01*
X107371466Y-62736443D01*
X107201627Y-62787963D01*
X107135442Y-62794482D01*
X107069260Y-62801000D01*
X106730740Y-62801000D01*
X106664558Y-62794482D01*
X106598373Y-62787963D01*
X106428534Y-62736443D01*
X106272009Y-62652778D01*
X106236271Y-62623448D01*
X106134814Y-62540186D01*
X106046010Y-62431976D01*
X106022222Y-62402991D01*
X105945703Y-62259836D01*
X105938558Y-62246468D01*
X105937110Y-62241695D01*
X105887037Y-62076627D01*
X105869641Y-61900000D01*
X105887037Y-61723373D01*
X105938557Y-61553534D01*
X106022222Y-61397009D01*
X106066881Y-61342592D01*
X106134814Y-61259814D01*
X106267406Y-61151000D01*
X106272009Y-61147222D01*
X106428534Y-61063557D01*
X106598373Y-61012037D01*
X106664557Y-61005519D01*
X106730740Y-60999000D01*
X107069260Y-60999000D01*
X107135443Y-61005519D01*
G37*
G36*
X98579591Y-61328085D02*
G01*
X98613569Y-61338393D01*
X98644890Y-61355134D01*
X98672339Y-61377661D01*
X98694866Y-61405110D01*
X98711607Y-61436431D01*
X98721915Y-61470409D01*
X98726000Y-61511890D01*
X98726000Y-62113110D01*
X98721915Y-62154591D01*
X98711607Y-62188569D01*
X98694866Y-62219890D01*
X98672339Y-62247339D01*
X98644890Y-62269866D01*
X98613569Y-62286607D01*
X98579591Y-62296915D01*
X98538110Y-62301000D01*
X97861890Y-62301000D01*
X97820409Y-62296915D01*
X97786431Y-62286607D01*
X97755110Y-62269866D01*
X97727661Y-62247339D01*
X97705134Y-62219890D01*
X97688393Y-62188569D01*
X97678085Y-62154591D01*
X97674000Y-62113110D01*
X97674000Y-61511890D01*
X97678085Y-61470409D01*
X97688393Y-61436431D01*
X97705134Y-61405110D01*
X97727661Y-61377661D01*
X97755110Y-61355134D01*
X97786431Y-61338393D01*
X97820409Y-61328085D01*
X97861890Y-61324000D01*
X98538110Y-61324000D01*
X98579591Y-61328085D01*
G37*
G36*
X56034928Y-61451764D02*
G01*
X56056009Y-61458160D01*
X56075445Y-61468548D01*
X56092476Y-61482524D01*
X56106452Y-61499555D01*
X56116840Y-61518991D01*
X56123236Y-61540072D01*
X56126000Y-61568140D01*
X56126000Y-62031860D01*
X56123236Y-62059928D01*
X56116840Y-62081009D01*
X56106452Y-62100445D01*
X56092476Y-62117476D01*
X56075445Y-62131452D01*
X56056009Y-62141840D01*
X56034928Y-62148236D01*
X56006860Y-62151000D01*
X54593140Y-62151000D01*
X54565072Y-62148236D01*
X54543991Y-62141840D01*
X54524555Y-62131452D01*
X54507524Y-62117476D01*
X54493548Y-62100445D01*
X54483160Y-62081009D01*
X54476764Y-62059928D01*
X54474000Y-62031860D01*
X54474000Y-61568140D01*
X54476764Y-61540072D01*
X54483160Y-61518991D01*
X54493548Y-61499555D01*
X54507524Y-61482524D01*
X54524555Y-61468548D01*
X54543991Y-61458160D01*
X54565072Y-61451764D01*
X54593140Y-61449000D01*
X56006860Y-61449000D01*
X56034928Y-61451764D01*
G37*
G36*
X52216242Y-59853404D02*
G01*
X52253337Y-59864657D01*
X52287515Y-59882925D01*
X52317481Y-59907519D01*
X52342075Y-59937485D01*
X52360343Y-59971663D01*
X52371596Y-60008758D01*
X52376000Y-60053474D01*
X52376000Y-60946526D01*
X52371596Y-60991242D01*
X52360343Y-61028337D01*
X52342075Y-61062515D01*
X52317481Y-61092481D01*
X52287515Y-61117075D01*
X52253337Y-61135343D01*
X52216242Y-61146596D01*
X52171526Y-61151000D01*
X50678474Y-61151000D01*
X50633758Y-61146596D01*
X50596663Y-61135343D01*
X50562485Y-61117075D01*
X50532519Y-61092481D01*
X50507925Y-61062515D01*
X50489657Y-61028337D01*
X50478404Y-60991242D01*
X50474000Y-60946526D01*
X50474000Y-60053474D01*
X50478404Y-60008758D01*
X50489657Y-59971663D01*
X50507925Y-59937485D01*
X50532519Y-59907519D01*
X50562485Y-59882925D01*
X50596663Y-59864657D01*
X50633758Y-59853404D01*
X50678474Y-59849000D01*
X52171526Y-59849000D01*
X52216242Y-59853404D01*
G37*
G36*
X98179591Y-59803085D02*
G01*
X98213569Y-59813393D01*
X98244890Y-59830134D01*
X98272339Y-59852661D01*
X98294866Y-59880110D01*
X98311607Y-59911431D01*
X98321915Y-59945409D01*
X98326000Y-59986890D01*
X98326000Y-60588110D01*
X98321915Y-60629591D01*
X98311607Y-60663569D01*
X98294866Y-60694890D01*
X98272339Y-60722339D01*
X98244890Y-60744866D01*
X98213569Y-60761607D01*
X98179591Y-60771915D01*
X98138110Y-60776000D01*
X97461890Y-60776000D01*
X97420409Y-60771915D01*
X97386431Y-60761607D01*
X97355110Y-60744866D01*
X97327661Y-60722339D01*
X97305134Y-60694890D01*
X97288393Y-60663569D01*
X97278085Y-60629591D01*
X97274000Y-60588110D01*
X97274000Y-59986890D01*
X97278085Y-59945409D01*
X97288393Y-59911431D01*
X97305134Y-59880110D01*
X97327661Y-59852661D01*
X97355110Y-59830134D01*
X97386431Y-59813393D01*
X97420409Y-59803085D01*
X97461890Y-59799000D01*
X98138110Y-59799000D01*
X98179591Y-59803085D01*
G37*
G36*
X99779591Y-59803085D02*
G01*
X99813569Y-59813393D01*
X99844890Y-59830134D01*
X99872339Y-59852661D01*
X99894866Y-59880110D01*
X99911607Y-59911431D01*
X99921915Y-59945409D01*
X99926000Y-59986890D01*
X99926000Y-60588110D01*
X99921915Y-60629591D01*
X99911607Y-60663569D01*
X99894866Y-60694890D01*
X99872339Y-60722339D01*
X99844890Y-60744866D01*
X99813569Y-60761607D01*
X99779591Y-60771915D01*
X99738110Y-60776000D01*
X99061890Y-60776000D01*
X99020409Y-60771915D01*
X98986431Y-60761607D01*
X98955110Y-60744866D01*
X98927661Y-60722339D01*
X98905134Y-60694890D01*
X98888393Y-60663569D01*
X98878085Y-60629591D01*
X98874000Y-60588110D01*
X98874000Y-59986890D01*
X98878085Y-59945409D01*
X98888393Y-59911431D01*
X98905134Y-59880110D01*
X98927661Y-59852661D01*
X98955110Y-59830134D01*
X98986431Y-59813393D01*
X99020409Y-59803085D01*
X99061890Y-59799000D01*
X99738110Y-59799000D01*
X99779591Y-59803085D01*
G37*
G36*
X103179591Y-59803085D02*
G01*
X103213569Y-59813393D01*
X103244890Y-59830134D01*
X103272339Y-59852661D01*
X103294866Y-59880110D01*
X103311607Y-59911431D01*
X103321915Y-59945409D01*
X103326000Y-59986890D01*
X103326000Y-60588110D01*
X103321915Y-60629591D01*
X103311607Y-60663569D01*
X103294866Y-60694890D01*
X103272339Y-60722339D01*
X103244890Y-60744866D01*
X103213569Y-60761607D01*
X103179591Y-60771915D01*
X103138110Y-60776000D01*
X102461890Y-60776000D01*
X102420409Y-60771915D01*
X102386431Y-60761607D01*
X102355110Y-60744866D01*
X102327661Y-60722339D01*
X102305134Y-60694890D01*
X102288393Y-60663569D01*
X102278085Y-60629591D01*
X102274000Y-60588110D01*
X102274000Y-59986890D01*
X102278085Y-59945409D01*
X102288393Y-59911431D01*
X102305134Y-59880110D01*
X102327661Y-59852661D01*
X102355110Y-59830134D01*
X102386431Y-59813393D01*
X102420409Y-59803085D01*
X102461890Y-59799000D01*
X103138110Y-59799000D01*
X103179591Y-59803085D01*
G37*
G36*
X101579591Y-59803085D02*
G01*
X101613569Y-59813393D01*
X101644890Y-59830134D01*
X101672339Y-59852661D01*
X101694866Y-59880110D01*
X101711607Y-59911431D01*
X101721915Y-59945409D01*
X101726000Y-59986890D01*
X101726000Y-60588110D01*
X101721915Y-60629591D01*
X101711607Y-60663569D01*
X101694866Y-60694890D01*
X101672339Y-60722339D01*
X101644890Y-60744866D01*
X101613569Y-60761607D01*
X101579591Y-60771915D01*
X101538110Y-60776000D01*
X100861890Y-60776000D01*
X100820409Y-60771915D01*
X100786431Y-60761607D01*
X100755110Y-60744866D01*
X100727661Y-60722339D01*
X100705134Y-60694890D01*
X100688393Y-60663569D01*
X100678085Y-60629591D01*
X100674000Y-60588110D01*
X100674000Y-59986890D01*
X100678085Y-59945409D01*
X100688393Y-59911431D01*
X100705134Y-59880110D01*
X100727661Y-59852661D01*
X100755110Y-59830134D01*
X100786431Y-59813393D01*
X100820409Y-59803085D01*
X100861890Y-59799000D01*
X101538110Y-59799000D01*
X101579591Y-59803085D01*
G37*
G36*
X107135443Y-58505519D02*
G01*
X107201627Y-58512037D01*
X107371466Y-58563557D01*
X107527991Y-58647222D01*
X107563729Y-58676552D01*
X107665186Y-58759814D01*
X107748448Y-58861271D01*
X107777778Y-58897009D01*
X107861443Y-59053534D01*
X107912963Y-59223373D01*
X107930359Y-59400000D01*
X107912963Y-59576627D01*
X107861443Y-59746466D01*
X107861442Y-59746468D01*
X107823425Y-59817592D01*
X107777778Y-59902991D01*
X107749469Y-59937485D01*
X107665186Y-60040186D01*
X107563729Y-60123448D01*
X107527991Y-60152778D01*
X107371466Y-60236443D01*
X107201627Y-60287963D01*
X107135442Y-60294482D01*
X107069260Y-60301000D01*
X106730740Y-60301000D01*
X106664558Y-60294482D01*
X106598373Y-60287963D01*
X106428534Y-60236443D01*
X106272009Y-60152778D01*
X106236271Y-60123448D01*
X106134814Y-60040186D01*
X106050531Y-59937485D01*
X106022222Y-59902991D01*
X105976575Y-59817592D01*
X105938558Y-59746468D01*
X105938557Y-59746466D01*
X105887037Y-59576627D01*
X105869641Y-59400000D01*
X105887037Y-59223373D01*
X105938557Y-59053534D01*
X106022222Y-58897009D01*
X106051552Y-58861271D01*
X106134814Y-58759814D01*
X106236271Y-58676552D01*
X106272009Y-58647222D01*
X106428534Y-58563557D01*
X106598373Y-58512037D01*
X106664557Y-58505519D01*
X106730740Y-58499000D01*
X107069260Y-58499000D01*
X107135443Y-58505519D01*
G37*
G36*
X101579591Y-58228085D02*
G01*
X101613569Y-58238393D01*
X101644890Y-58255134D01*
X101672339Y-58277661D01*
X101694866Y-58305110D01*
X101711607Y-58336431D01*
X101721915Y-58370409D01*
X101726000Y-58411890D01*
X101726000Y-59013110D01*
X101721915Y-59054591D01*
X101711607Y-59088569D01*
X101694866Y-59119890D01*
X101672339Y-59147339D01*
X101644890Y-59169866D01*
X101613569Y-59186607D01*
X101579591Y-59196915D01*
X101538110Y-59201000D01*
X100861890Y-59201000D01*
X100820409Y-59196915D01*
X100786431Y-59186607D01*
X100755110Y-59169866D01*
X100727661Y-59147339D01*
X100705134Y-59119890D01*
X100688393Y-59088569D01*
X100678085Y-59054591D01*
X100674000Y-59013110D01*
X100674000Y-58411890D01*
X100678085Y-58370409D01*
X100688393Y-58336431D01*
X100705134Y-58305110D01*
X100727661Y-58277661D01*
X100755110Y-58255134D01*
X100786431Y-58238393D01*
X100820409Y-58228085D01*
X100861890Y-58224000D01*
X101538110Y-58224000D01*
X101579591Y-58228085D01*
G37*
G36*
X98179591Y-58228085D02*
G01*
X98213569Y-58238393D01*
X98244890Y-58255134D01*
X98272339Y-58277661D01*
X98294866Y-58305110D01*
X98311607Y-58336431D01*
X98321915Y-58370409D01*
X98326000Y-58411890D01*
X98326000Y-59013110D01*
X98321915Y-59054591D01*
X98311607Y-59088569D01*
X98294866Y-59119890D01*
X98272339Y-59147339D01*
X98244890Y-59169866D01*
X98213569Y-59186607D01*
X98179591Y-59196915D01*
X98138110Y-59201000D01*
X97461890Y-59201000D01*
X97420409Y-59196915D01*
X97386431Y-59186607D01*
X97355110Y-59169866D01*
X97327661Y-59147339D01*
X97305134Y-59119890D01*
X97288393Y-59088569D01*
X97278085Y-59054591D01*
X97274000Y-59013110D01*
X97274000Y-58411890D01*
X97278085Y-58370409D01*
X97288393Y-58336431D01*
X97305134Y-58305110D01*
X97327661Y-58277661D01*
X97355110Y-58255134D01*
X97386431Y-58238393D01*
X97420409Y-58228085D01*
X97461890Y-58224000D01*
X98138110Y-58224000D01*
X98179591Y-58228085D01*
G37*
G36*
X99779591Y-58228085D02*
G01*
X99813569Y-58238393D01*
X99844890Y-58255134D01*
X99872339Y-58277661D01*
X99894866Y-58305110D01*
X99911607Y-58336431D01*
X99921915Y-58370409D01*
X99926000Y-58411890D01*
X99926000Y-59013110D01*
X99921915Y-59054591D01*
X99911607Y-59088569D01*
X99894866Y-59119890D01*
X99872339Y-59147339D01*
X99844890Y-59169866D01*
X99813569Y-59186607D01*
X99779591Y-59196915D01*
X99738110Y-59201000D01*
X99061890Y-59201000D01*
X99020409Y-59196915D01*
X98986431Y-59186607D01*
X98955110Y-59169866D01*
X98927661Y-59147339D01*
X98905134Y-59119890D01*
X98888393Y-59088569D01*
X98878085Y-59054591D01*
X98874000Y-59013110D01*
X98874000Y-58411890D01*
X98878085Y-58370409D01*
X98888393Y-58336431D01*
X98905134Y-58305110D01*
X98927661Y-58277661D01*
X98955110Y-58255134D01*
X98986431Y-58238393D01*
X99020409Y-58228085D01*
X99061890Y-58224000D01*
X99738110Y-58224000D01*
X99779591Y-58228085D01*
G37*
G36*
X103179591Y-58228085D02*
G01*
X103213569Y-58238393D01*
X103244890Y-58255134D01*
X103272339Y-58277661D01*
X103294866Y-58305110D01*
X103311607Y-58336431D01*
X103321915Y-58370409D01*
X103326000Y-58411890D01*
X103326000Y-59013110D01*
X103321915Y-59054591D01*
X103311607Y-59088569D01*
X103294866Y-59119890D01*
X103272339Y-59147339D01*
X103244890Y-59169866D01*
X103213569Y-59186607D01*
X103179591Y-59196915D01*
X103138110Y-59201000D01*
X102461890Y-59201000D01*
X102420409Y-59196915D01*
X102386431Y-59186607D01*
X102355110Y-59169866D01*
X102327661Y-59147339D01*
X102305134Y-59119890D01*
X102288393Y-59088569D01*
X102278085Y-59054591D01*
X102274000Y-59013110D01*
X102274000Y-58411890D01*
X102278085Y-58370409D01*
X102288393Y-58336431D01*
X102305134Y-58305110D01*
X102327661Y-58277661D01*
X102355110Y-58255134D01*
X102386431Y-58238393D01*
X102420409Y-58228085D01*
X102461890Y-58224000D01*
X103138110Y-58224000D01*
X103179591Y-58228085D01*
G37*
G36*
X54104780Y-49459566D02*
G01*
X54404237Y-49519131D01*
X54968401Y-49752815D01*
X55476135Y-50092072D01*
X55907928Y-50523865D01*
X56247185Y-51031599D01*
X56480869Y-51595763D01*
X56540435Y-51895220D01*
X56600000Y-52194675D01*
X56600000Y-52805325D01*
X56574479Y-52933625D01*
X56480869Y-53404237D01*
X56247185Y-53968401D01*
X55907928Y-54476135D01*
X55476135Y-54907928D01*
X54968401Y-55247185D01*
X54404237Y-55480869D01*
X54104780Y-55540434D01*
X53805325Y-55600000D01*
X53194675Y-55600000D01*
X52895220Y-55540434D01*
X52595763Y-55480869D01*
X52031599Y-55247185D01*
X51523865Y-54907928D01*
X51092072Y-54476135D01*
X50752815Y-53968401D01*
X50519131Y-53404237D01*
X50425521Y-52933625D01*
X50400000Y-52805325D01*
X50400000Y-52194675D01*
X50459565Y-51895220D01*
X50519131Y-51595763D01*
X50752815Y-51031599D01*
X51092072Y-50523865D01*
X51523865Y-50092072D01*
X52031599Y-49752815D01*
X52595763Y-49519131D01*
X52895220Y-49459566D01*
X53194675Y-49400000D01*
X53805325Y-49400000D01*
X54104780Y-49459566D01*
G37*
G36*
X112204780Y-49459566D02*
G01*
X112504237Y-49519131D01*
X113068401Y-49752815D01*
X113576135Y-50092072D01*
X114007928Y-50523865D01*
X114347185Y-51031599D01*
X114580869Y-51595763D01*
X114640434Y-51895220D01*
X114700000Y-52194675D01*
X114700000Y-52805325D01*
X114674479Y-52933625D01*
X114580869Y-53404237D01*
X114347185Y-53968401D01*
X114007928Y-54476135D01*
X113576135Y-54907928D01*
X113068401Y-55247185D01*
X112504237Y-55480869D01*
X112204780Y-55540434D01*
X111905325Y-55600000D01*
X111294675Y-55600000D01*
X110995220Y-55540434D01*
X110695763Y-55480869D01*
X110131599Y-55247185D01*
X109623865Y-54907928D01*
X109192072Y-54476135D01*
X108852815Y-53968401D01*
X108619131Y-53404237D01*
X108525521Y-52933625D01*
X108500000Y-52805325D01*
X108500000Y-52194675D01*
X108559566Y-51895220D01*
X108619131Y-51595763D01*
X108852815Y-51031599D01*
X109192072Y-50523865D01*
X109623865Y-50092072D01*
X110131599Y-49752815D01*
X110695763Y-49519131D01*
X110995220Y-49459566D01*
X111294675Y-49400000D01*
X111905325Y-49400000D01*
X112204780Y-49459566D01*
G37*
G36*
X59301000Y-54701000D02*
G01*
X57499000Y-54701000D01*
X57499000Y-52899000D01*
X59301000Y-52899000D01*
X59301000Y-54701000D01*
G37*
G36*
X66133512Y-52903927D02*
G01*
X66282812Y-52933624D01*
X66446784Y-53001544D01*
X66594354Y-53100147D01*
X66719853Y-53225646D01*
X66818456Y-53373216D01*
X66886376Y-53537188D01*
X66921000Y-53711259D01*
X66921000Y-53888741D01*
X66886376Y-54062812D01*
X66818456Y-54226784D01*
X66719853Y-54374354D01*
X66594354Y-54499853D01*
X66446784Y-54598456D01*
X66282812Y-54666376D01*
X66133512Y-54696073D01*
X66108742Y-54701000D01*
X65931258Y-54701000D01*
X65906488Y-54696073D01*
X65757188Y-54666376D01*
X65593216Y-54598456D01*
X65445646Y-54499853D01*
X65320147Y-54374354D01*
X65221544Y-54226784D01*
X65153624Y-54062812D01*
X65119000Y-53888741D01*
X65119000Y-53711259D01*
X65153624Y-53537188D01*
X65221544Y-53373216D01*
X65320147Y-53225646D01*
X65445646Y-53100147D01*
X65593216Y-53001544D01*
X65757188Y-52933624D01*
X65906488Y-52903927D01*
X65931258Y-52899000D01*
X66108742Y-52899000D01*
X66133512Y-52903927D01*
G37*
G36*
X68673512Y-52903927D02*
G01*
X68822812Y-52933624D01*
X68986784Y-53001544D01*
X69134354Y-53100147D01*
X69259853Y-53225646D01*
X69358456Y-53373216D01*
X69426376Y-53537188D01*
X69461000Y-53711259D01*
X69461000Y-53888741D01*
X69426376Y-54062812D01*
X69358456Y-54226784D01*
X69259853Y-54374354D01*
X69134354Y-54499853D01*
X68986784Y-54598456D01*
X68822812Y-54666376D01*
X68673512Y-54696073D01*
X68648742Y-54701000D01*
X68471258Y-54701000D01*
X68446488Y-54696073D01*
X68297188Y-54666376D01*
X68133216Y-54598456D01*
X67985646Y-54499853D01*
X67860147Y-54374354D01*
X67761544Y-54226784D01*
X67693624Y-54062812D01*
X67659000Y-53888741D01*
X67659000Y-53711259D01*
X67693624Y-53537188D01*
X67761544Y-53373216D01*
X67860147Y-53225646D01*
X67985646Y-53100147D01*
X68133216Y-53001544D01*
X68297188Y-52933624D01*
X68446488Y-52903927D01*
X68471258Y-52899000D01*
X68648742Y-52899000D01*
X68673512Y-52903927D01*
G37*
G36*
X71213512Y-52903927D02*
G01*
X71362812Y-52933624D01*
X71526784Y-53001544D01*
X71674354Y-53100147D01*
X71799853Y-53225646D01*
X71898456Y-53373216D01*
X71966376Y-53537188D01*
X72001000Y-53711259D01*
X72001000Y-53888741D01*
X71966376Y-54062812D01*
X71898456Y-54226784D01*
X71799853Y-54374354D01*
X71674354Y-54499853D01*
X71526784Y-54598456D01*
X71362812Y-54666376D01*
X71213512Y-54696073D01*
X71188742Y-54701000D01*
X71011258Y-54701000D01*
X70986488Y-54696073D01*
X70837188Y-54666376D01*
X70673216Y-54598456D01*
X70525646Y-54499853D01*
X70400147Y-54374354D01*
X70301544Y-54226784D01*
X70233624Y-54062812D01*
X70199000Y-53888741D01*
X70199000Y-53711259D01*
X70233624Y-53537188D01*
X70301544Y-53373216D01*
X70400147Y-53225646D01*
X70525646Y-53100147D01*
X70673216Y-53001544D01*
X70837188Y-52933624D01*
X70986488Y-52903927D01*
X71011258Y-52899000D01*
X71188742Y-52899000D01*
X71213512Y-52903927D01*
G37*
G36*
X73753512Y-52903927D02*
G01*
X73902812Y-52933624D01*
X74066784Y-53001544D01*
X74214354Y-53100147D01*
X74339853Y-53225646D01*
X74438456Y-53373216D01*
X74506376Y-53537188D01*
X74541000Y-53711259D01*
X74541000Y-53888741D01*
X74506376Y-54062812D01*
X74438456Y-54226784D01*
X74339853Y-54374354D01*
X74214354Y-54499853D01*
X74066784Y-54598456D01*
X73902812Y-54666376D01*
X73753512Y-54696073D01*
X73728742Y-54701000D01*
X73551258Y-54701000D01*
X73526488Y-54696073D01*
X73377188Y-54666376D01*
X73213216Y-54598456D01*
X73065646Y-54499853D01*
X72940147Y-54374354D01*
X72841544Y-54226784D01*
X72773624Y-54062812D01*
X72739000Y-53888741D01*
X72739000Y-53711259D01*
X72773624Y-53537188D01*
X72841544Y-53373216D01*
X72940147Y-53225646D01*
X73065646Y-53100147D01*
X73213216Y-53001544D01*
X73377188Y-52933624D01*
X73526488Y-52903927D01*
X73551258Y-52899000D01*
X73728742Y-52899000D01*
X73753512Y-52903927D01*
G37*
G36*
X76293512Y-52903927D02*
G01*
X76442812Y-52933624D01*
X76606784Y-53001544D01*
X76754354Y-53100147D01*
X76879853Y-53225646D01*
X76978456Y-53373216D01*
X77046376Y-53537188D01*
X77081000Y-53711259D01*
X77081000Y-53888741D01*
X77046376Y-54062812D01*
X76978456Y-54226784D01*
X76879853Y-54374354D01*
X76754354Y-54499853D01*
X76606784Y-54598456D01*
X76442812Y-54666376D01*
X76293512Y-54696073D01*
X76268742Y-54701000D01*
X76091258Y-54701000D01*
X76066488Y-54696073D01*
X75917188Y-54666376D01*
X75753216Y-54598456D01*
X75605646Y-54499853D01*
X75480147Y-54374354D01*
X75381544Y-54226784D01*
X75313624Y-54062812D01*
X75279000Y-53888741D01*
X75279000Y-53711259D01*
X75313624Y-53537188D01*
X75381544Y-53373216D01*
X75480147Y-53225646D01*
X75605646Y-53100147D01*
X75753216Y-53001544D01*
X75917188Y-52933624D01*
X76066488Y-52903927D01*
X76091258Y-52899000D01*
X76268742Y-52899000D01*
X76293512Y-52903927D01*
G37*
G36*
X78833512Y-52903927D02*
G01*
X78982812Y-52933624D01*
X79146784Y-53001544D01*
X79294354Y-53100147D01*
X79419853Y-53225646D01*
X79518456Y-53373216D01*
X79586376Y-53537188D01*
X79621000Y-53711259D01*
X79621000Y-53888741D01*
X79586376Y-54062812D01*
X79518456Y-54226784D01*
X79419853Y-54374354D01*
X79294354Y-54499853D01*
X79146784Y-54598456D01*
X78982812Y-54666376D01*
X78833512Y-54696073D01*
X78808742Y-54701000D01*
X78631258Y-54701000D01*
X78606488Y-54696073D01*
X78457188Y-54666376D01*
X78293216Y-54598456D01*
X78145646Y-54499853D01*
X78020147Y-54374354D01*
X77921544Y-54226784D01*
X77853624Y-54062812D01*
X77819000Y-53888741D01*
X77819000Y-53711259D01*
X77853624Y-53537188D01*
X77921544Y-53373216D01*
X78020147Y-53225646D01*
X78145646Y-53100147D01*
X78293216Y-53001544D01*
X78457188Y-52933624D01*
X78606488Y-52903927D01*
X78631258Y-52899000D01*
X78808742Y-52899000D01*
X78833512Y-52903927D01*
G37*
G36*
X81373512Y-52903927D02*
G01*
X81522812Y-52933624D01*
X81686784Y-53001544D01*
X81834354Y-53100147D01*
X81959853Y-53225646D01*
X82058456Y-53373216D01*
X82126376Y-53537188D01*
X82161000Y-53711259D01*
X82161000Y-53888741D01*
X82126376Y-54062812D01*
X82058456Y-54226784D01*
X81959853Y-54374354D01*
X81834354Y-54499853D01*
X81686784Y-54598456D01*
X81522812Y-54666376D01*
X81373512Y-54696073D01*
X81348742Y-54701000D01*
X81171258Y-54701000D01*
X81146488Y-54696073D01*
X80997188Y-54666376D01*
X80833216Y-54598456D01*
X80685646Y-54499853D01*
X80560147Y-54374354D01*
X80461544Y-54226784D01*
X80393624Y-54062812D01*
X80359000Y-53888741D01*
X80359000Y-53711259D01*
X80393624Y-53537188D01*
X80461544Y-53373216D01*
X80560147Y-53225646D01*
X80685646Y-53100147D01*
X80833216Y-53001544D01*
X80997188Y-52933624D01*
X81146488Y-52903927D01*
X81171258Y-52899000D01*
X81348742Y-52899000D01*
X81373512Y-52903927D01*
G37*
G36*
X106773512Y-52903927D02*
G01*
X106922812Y-52933624D01*
X107086784Y-53001544D01*
X107234354Y-53100147D01*
X107359853Y-53225646D01*
X107458456Y-53373216D01*
X107526376Y-53537188D01*
X107561000Y-53711259D01*
X107561000Y-53888741D01*
X107526376Y-54062812D01*
X107458456Y-54226784D01*
X107359853Y-54374354D01*
X107234354Y-54499853D01*
X107086784Y-54598456D01*
X106922812Y-54666376D01*
X106773512Y-54696073D01*
X106748742Y-54701000D01*
X106571258Y-54701000D01*
X106546488Y-54696073D01*
X106397188Y-54666376D01*
X106233216Y-54598456D01*
X106085646Y-54499853D01*
X105960147Y-54374354D01*
X105861544Y-54226784D01*
X105793624Y-54062812D01*
X105759000Y-53888741D01*
X105759000Y-53711259D01*
X105793624Y-53537188D01*
X105861544Y-53373216D01*
X105960147Y-53225646D01*
X106085646Y-53100147D01*
X106233216Y-53001544D01*
X106397188Y-52933624D01*
X106546488Y-52903927D01*
X106571258Y-52899000D01*
X106748742Y-52899000D01*
X106773512Y-52903927D01*
G37*
G36*
X104233512Y-52903927D02*
G01*
X104382812Y-52933624D01*
X104546784Y-53001544D01*
X104694354Y-53100147D01*
X104819853Y-53225646D01*
X104918456Y-53373216D01*
X104986376Y-53537188D01*
X105021000Y-53711259D01*
X105021000Y-53888741D01*
X104986376Y-54062812D01*
X104918456Y-54226784D01*
X104819853Y-54374354D01*
X104694354Y-54499853D01*
X104546784Y-54598456D01*
X104382812Y-54666376D01*
X104233512Y-54696073D01*
X104208742Y-54701000D01*
X104031258Y-54701000D01*
X104006488Y-54696073D01*
X103857188Y-54666376D01*
X103693216Y-54598456D01*
X103545646Y-54499853D01*
X103420147Y-54374354D01*
X103321544Y-54226784D01*
X103253624Y-54062812D01*
X103219000Y-53888741D01*
X103219000Y-53711259D01*
X103253624Y-53537188D01*
X103321544Y-53373216D01*
X103420147Y-53225646D01*
X103545646Y-53100147D01*
X103693216Y-53001544D01*
X103857188Y-52933624D01*
X104006488Y-52903927D01*
X104031258Y-52899000D01*
X104208742Y-52899000D01*
X104233512Y-52903927D01*
G37*
G36*
X99153512Y-52903927D02*
G01*
X99302812Y-52933624D01*
X99466784Y-53001544D01*
X99614354Y-53100147D01*
X99739853Y-53225646D01*
X99838456Y-53373216D01*
X99906376Y-53537188D01*
X99941000Y-53711259D01*
X99941000Y-53888741D01*
X99906376Y-54062812D01*
X99838456Y-54226784D01*
X99739853Y-54374354D01*
X99614354Y-54499853D01*
X99466784Y-54598456D01*
X99302812Y-54666376D01*
X99153512Y-54696073D01*
X99128742Y-54701000D01*
X98951258Y-54701000D01*
X98926488Y-54696073D01*
X98777188Y-54666376D01*
X98613216Y-54598456D01*
X98465646Y-54499853D01*
X98340147Y-54374354D01*
X98241544Y-54226784D01*
X98173624Y-54062812D01*
X98139000Y-53888741D01*
X98139000Y-53711259D01*
X98173624Y-53537188D01*
X98241544Y-53373216D01*
X98340147Y-53225646D01*
X98465646Y-53100147D01*
X98613216Y-53001544D01*
X98777188Y-52933624D01*
X98926488Y-52903927D01*
X98951258Y-52899000D01*
X99128742Y-52899000D01*
X99153512Y-52903927D01*
G37*
G36*
X101693512Y-52903927D02*
G01*
X101842812Y-52933624D01*
X102006784Y-53001544D01*
X102154354Y-53100147D01*
X102279853Y-53225646D01*
X102378456Y-53373216D01*
X102446376Y-53537188D01*
X102481000Y-53711259D01*
X102481000Y-53888741D01*
X102446376Y-54062812D01*
X102378456Y-54226784D01*
X102279853Y-54374354D01*
X102154354Y-54499853D01*
X102006784Y-54598456D01*
X101842812Y-54666376D01*
X101693512Y-54696073D01*
X101668742Y-54701000D01*
X101491258Y-54701000D01*
X101466488Y-54696073D01*
X101317188Y-54666376D01*
X101153216Y-54598456D01*
X101005646Y-54499853D01*
X100880147Y-54374354D01*
X100781544Y-54226784D01*
X100713624Y-54062812D01*
X100679000Y-53888741D01*
X100679000Y-53711259D01*
X100713624Y-53537188D01*
X100781544Y-53373216D01*
X100880147Y-53225646D01*
X101005646Y-53100147D01*
X101153216Y-53001544D01*
X101317188Y-52933624D01*
X101466488Y-52903927D01*
X101491258Y-52899000D01*
X101668742Y-52899000D01*
X101693512Y-52903927D01*
G37*
G36*
X61053512Y-52903927D02*
G01*
X61202812Y-52933624D01*
X61366784Y-53001544D01*
X61514354Y-53100147D01*
X61639853Y-53225646D01*
X61738456Y-53373216D01*
X61806376Y-53537188D01*
X61841000Y-53711259D01*
X61841000Y-53888741D01*
X61806376Y-54062812D01*
X61738456Y-54226784D01*
X61639853Y-54374354D01*
X61514354Y-54499853D01*
X61366784Y-54598456D01*
X61202812Y-54666376D01*
X61053512Y-54696073D01*
X61028742Y-54701000D01*
X60851258Y-54701000D01*
X60826488Y-54696073D01*
X60677188Y-54666376D01*
X60513216Y-54598456D01*
X60365646Y-54499853D01*
X60240147Y-54374354D01*
X60141544Y-54226784D01*
X60073624Y-54062812D01*
X60039000Y-53888741D01*
X60039000Y-53711259D01*
X60073624Y-53537188D01*
X60141544Y-53373216D01*
X60240147Y-53225646D01*
X60365646Y-53100147D01*
X60513216Y-53001544D01*
X60677188Y-52933624D01*
X60826488Y-52903927D01*
X60851258Y-52899000D01*
X61028742Y-52899000D01*
X61053512Y-52903927D01*
G37*
G36*
X63593512Y-52903927D02*
G01*
X63742812Y-52933624D01*
X63906784Y-53001544D01*
X64054354Y-53100147D01*
X64179853Y-53225646D01*
X64278456Y-53373216D01*
X64346376Y-53537188D01*
X64381000Y-53711259D01*
X64381000Y-53888741D01*
X64346376Y-54062812D01*
X64278456Y-54226784D01*
X64179853Y-54374354D01*
X64054354Y-54499853D01*
X63906784Y-54598456D01*
X63742812Y-54666376D01*
X63593512Y-54696073D01*
X63568742Y-54701000D01*
X63391258Y-54701000D01*
X63366488Y-54696073D01*
X63217188Y-54666376D01*
X63053216Y-54598456D01*
X62905646Y-54499853D01*
X62780147Y-54374354D01*
X62681544Y-54226784D01*
X62613624Y-54062812D01*
X62579000Y-53888741D01*
X62579000Y-53711259D01*
X62613624Y-53537188D01*
X62681544Y-53373216D01*
X62780147Y-53225646D01*
X62905646Y-53100147D01*
X63053216Y-53001544D01*
X63217188Y-52933624D01*
X63366488Y-52903927D01*
X63391258Y-52899000D01*
X63568742Y-52899000D01*
X63593512Y-52903927D01*
G37*
G36*
X86453512Y-52903927D02*
G01*
X86602812Y-52933624D01*
X86766784Y-53001544D01*
X86914354Y-53100147D01*
X87039853Y-53225646D01*
X87138456Y-53373216D01*
X87206376Y-53537188D01*
X87241000Y-53711259D01*
X87241000Y-53888741D01*
X87206376Y-54062812D01*
X87138456Y-54226784D01*
X87039853Y-54374354D01*
X86914354Y-54499853D01*
X86766784Y-54598456D01*
X86602812Y-54666376D01*
X86453512Y-54696073D01*
X86428742Y-54701000D01*
X86251258Y-54701000D01*
X86226488Y-54696073D01*
X86077188Y-54666376D01*
X85913216Y-54598456D01*
X85765646Y-54499853D01*
X85640147Y-54374354D01*
X85541544Y-54226784D01*
X85473624Y-54062812D01*
X85439000Y-53888741D01*
X85439000Y-53711259D01*
X85473624Y-53537188D01*
X85541544Y-53373216D01*
X85640147Y-53225646D01*
X85765646Y-53100147D01*
X85913216Y-53001544D01*
X86077188Y-52933624D01*
X86226488Y-52903927D01*
X86251258Y-52899000D01*
X86428742Y-52899000D01*
X86453512Y-52903927D01*
G37*
G36*
X83913512Y-52903927D02*
G01*
X84062812Y-52933624D01*
X84226784Y-53001544D01*
X84374354Y-53100147D01*
X84499853Y-53225646D01*
X84598456Y-53373216D01*
X84666376Y-53537188D01*
X84701000Y-53711259D01*
X84701000Y-53888741D01*
X84666376Y-54062812D01*
X84598456Y-54226784D01*
X84499853Y-54374354D01*
X84374354Y-54499853D01*
X84226784Y-54598456D01*
X84062812Y-54666376D01*
X83913512Y-54696073D01*
X83888742Y-54701000D01*
X83711258Y-54701000D01*
X83686488Y-54696073D01*
X83537188Y-54666376D01*
X83373216Y-54598456D01*
X83225646Y-54499853D01*
X83100147Y-54374354D01*
X83001544Y-54226784D01*
X82933624Y-54062812D01*
X82899000Y-53888741D01*
X82899000Y-53711259D01*
X82933624Y-53537188D01*
X83001544Y-53373216D01*
X83100147Y-53225646D01*
X83225646Y-53100147D01*
X83373216Y-53001544D01*
X83537188Y-52933624D01*
X83686488Y-52903927D01*
X83711258Y-52899000D01*
X83888742Y-52899000D01*
X83913512Y-52903927D01*
G37*
G36*
X88993512Y-52903927D02*
G01*
X89142812Y-52933624D01*
X89306784Y-53001544D01*
X89454354Y-53100147D01*
X89579853Y-53225646D01*
X89678456Y-53373216D01*
X89746376Y-53537188D01*
X89781000Y-53711259D01*
X89781000Y-53888741D01*
X89746376Y-54062812D01*
X89678456Y-54226784D01*
X89579853Y-54374354D01*
X89454354Y-54499853D01*
X89306784Y-54598456D01*
X89142812Y-54666376D01*
X88993512Y-54696073D01*
X88968742Y-54701000D01*
X88791258Y-54701000D01*
X88766488Y-54696073D01*
X88617188Y-54666376D01*
X88453216Y-54598456D01*
X88305646Y-54499853D01*
X88180147Y-54374354D01*
X88081544Y-54226784D01*
X88013624Y-54062812D01*
X87979000Y-53888741D01*
X87979000Y-53711259D01*
X88013624Y-53537188D01*
X88081544Y-53373216D01*
X88180147Y-53225646D01*
X88305646Y-53100147D01*
X88453216Y-53001544D01*
X88617188Y-52933624D01*
X88766488Y-52903927D01*
X88791258Y-52899000D01*
X88968742Y-52899000D01*
X88993512Y-52903927D01*
G37*
G36*
X91533512Y-52903927D02*
G01*
X91682812Y-52933624D01*
X91846784Y-53001544D01*
X91994354Y-53100147D01*
X92119853Y-53225646D01*
X92218456Y-53373216D01*
X92286376Y-53537188D01*
X92321000Y-53711259D01*
X92321000Y-53888741D01*
X92286376Y-54062812D01*
X92218456Y-54226784D01*
X92119853Y-54374354D01*
X91994354Y-54499853D01*
X91846784Y-54598456D01*
X91682812Y-54666376D01*
X91533512Y-54696073D01*
X91508742Y-54701000D01*
X91331258Y-54701000D01*
X91306488Y-54696073D01*
X91157188Y-54666376D01*
X90993216Y-54598456D01*
X90845646Y-54499853D01*
X90720147Y-54374354D01*
X90621544Y-54226784D01*
X90553624Y-54062812D01*
X90519000Y-53888741D01*
X90519000Y-53711259D01*
X90553624Y-53537188D01*
X90621544Y-53373216D01*
X90720147Y-53225646D01*
X90845646Y-53100147D01*
X90993216Y-53001544D01*
X91157188Y-52933624D01*
X91306488Y-52903927D01*
X91331258Y-52899000D01*
X91508742Y-52899000D01*
X91533512Y-52903927D01*
G37*
G36*
X94073512Y-52903927D02*
G01*
X94222812Y-52933624D01*
X94386784Y-53001544D01*
X94534354Y-53100147D01*
X94659853Y-53225646D01*
X94758456Y-53373216D01*
X94826376Y-53537188D01*
X94861000Y-53711259D01*
X94861000Y-53888741D01*
X94826376Y-54062812D01*
X94758456Y-54226784D01*
X94659853Y-54374354D01*
X94534354Y-54499853D01*
X94386784Y-54598456D01*
X94222812Y-54666376D01*
X94073512Y-54696073D01*
X94048742Y-54701000D01*
X93871258Y-54701000D01*
X93846488Y-54696073D01*
X93697188Y-54666376D01*
X93533216Y-54598456D01*
X93385646Y-54499853D01*
X93260147Y-54374354D01*
X93161544Y-54226784D01*
X93093624Y-54062812D01*
X93059000Y-53888741D01*
X93059000Y-53711259D01*
X93093624Y-53537188D01*
X93161544Y-53373216D01*
X93260147Y-53225646D01*
X93385646Y-53100147D01*
X93533216Y-53001544D01*
X93697188Y-52933624D01*
X93846488Y-52903927D01*
X93871258Y-52899000D01*
X94048742Y-52899000D01*
X94073512Y-52903927D01*
G37*
G36*
X96613512Y-52903927D02*
G01*
X96762812Y-52933624D01*
X96926784Y-53001544D01*
X97074354Y-53100147D01*
X97199853Y-53225646D01*
X97298456Y-53373216D01*
X97366376Y-53537188D01*
X97401000Y-53711259D01*
X97401000Y-53888741D01*
X97366376Y-54062812D01*
X97298456Y-54226784D01*
X97199853Y-54374354D01*
X97074354Y-54499853D01*
X96926784Y-54598456D01*
X96762812Y-54666376D01*
X96613512Y-54696073D01*
X96588742Y-54701000D01*
X96411258Y-54701000D01*
X96386488Y-54696073D01*
X96237188Y-54666376D01*
X96073216Y-54598456D01*
X95925646Y-54499853D01*
X95800147Y-54374354D01*
X95701544Y-54226784D01*
X95633624Y-54062812D01*
X95599000Y-53888741D01*
X95599000Y-53711259D01*
X95633624Y-53537188D01*
X95701544Y-53373216D01*
X95800147Y-53225646D01*
X95925646Y-53100147D01*
X96073216Y-53001544D01*
X96237188Y-52933624D01*
X96386488Y-52903927D01*
X96411258Y-52899000D01*
X96588742Y-52899000D01*
X96613512Y-52903927D01*
G37*
G36*
X86453512Y-50363927D02*
G01*
X86602812Y-50393624D01*
X86766784Y-50461544D01*
X86914354Y-50560147D01*
X87039853Y-50685646D01*
X87138456Y-50833216D01*
X87206376Y-50997188D01*
X87241000Y-51171259D01*
X87241000Y-51348741D01*
X87206376Y-51522812D01*
X87138456Y-51686784D01*
X87039853Y-51834354D01*
X86914354Y-51959853D01*
X86766784Y-52058456D01*
X86602812Y-52126376D01*
X86453512Y-52156073D01*
X86428742Y-52161000D01*
X86251258Y-52161000D01*
X86226488Y-52156073D01*
X86077188Y-52126376D01*
X85913216Y-52058456D01*
X85765646Y-51959853D01*
X85640147Y-51834354D01*
X85541544Y-51686784D01*
X85473624Y-51522812D01*
X85439000Y-51348741D01*
X85439000Y-51171259D01*
X85473624Y-50997188D01*
X85541544Y-50833216D01*
X85640147Y-50685646D01*
X85765646Y-50560147D01*
X85913216Y-50461544D01*
X86077188Y-50393624D01*
X86226488Y-50363927D01*
X86251258Y-50359000D01*
X86428742Y-50359000D01*
X86453512Y-50363927D01*
G37*
G36*
X88993512Y-50363927D02*
G01*
X89142812Y-50393624D01*
X89306784Y-50461544D01*
X89454354Y-50560147D01*
X89579853Y-50685646D01*
X89678456Y-50833216D01*
X89746376Y-50997188D01*
X89781000Y-51171259D01*
X89781000Y-51348741D01*
X89746376Y-51522812D01*
X89678456Y-51686784D01*
X89579853Y-51834354D01*
X89454354Y-51959853D01*
X89306784Y-52058456D01*
X89142812Y-52126376D01*
X88993512Y-52156073D01*
X88968742Y-52161000D01*
X88791258Y-52161000D01*
X88766488Y-52156073D01*
X88617188Y-52126376D01*
X88453216Y-52058456D01*
X88305646Y-51959853D01*
X88180147Y-51834354D01*
X88081544Y-51686784D01*
X88013624Y-51522812D01*
X87979000Y-51348741D01*
X87979000Y-51171259D01*
X88013624Y-50997188D01*
X88081544Y-50833216D01*
X88180147Y-50685646D01*
X88305646Y-50560147D01*
X88453216Y-50461544D01*
X88617188Y-50393624D01*
X88766488Y-50363927D01*
X88791258Y-50359000D01*
X88968742Y-50359000D01*
X88993512Y-50363927D01*
G37*
G36*
X91533512Y-50363927D02*
G01*
X91682812Y-50393624D01*
X91846784Y-50461544D01*
X91994354Y-50560147D01*
X92119853Y-50685646D01*
X92218456Y-50833216D01*
X92286376Y-50997188D01*
X92321000Y-51171259D01*
X92321000Y-51348741D01*
X92286376Y-51522812D01*
X92218456Y-51686784D01*
X92119853Y-51834354D01*
X91994354Y-51959853D01*
X91846784Y-52058456D01*
X91682812Y-52126376D01*
X91533512Y-52156073D01*
X91508742Y-52161000D01*
X91331258Y-52161000D01*
X91306488Y-52156073D01*
X91157188Y-52126376D01*
X90993216Y-52058456D01*
X90845646Y-51959853D01*
X90720147Y-51834354D01*
X90621544Y-51686784D01*
X90553624Y-51522812D01*
X90519000Y-51348741D01*
X90519000Y-51171259D01*
X90553624Y-50997188D01*
X90621544Y-50833216D01*
X90720147Y-50685646D01*
X90845646Y-50560147D01*
X90993216Y-50461544D01*
X91157188Y-50393624D01*
X91306488Y-50363927D01*
X91331258Y-50359000D01*
X91508742Y-50359000D01*
X91533512Y-50363927D01*
G37*
G36*
X94073512Y-50363927D02*
G01*
X94222812Y-50393624D01*
X94386784Y-50461544D01*
X94534354Y-50560147D01*
X94659853Y-50685646D01*
X94758456Y-50833216D01*
X94826376Y-50997188D01*
X94861000Y-51171259D01*
X94861000Y-51348741D01*
X94826376Y-51522812D01*
X94758456Y-51686784D01*
X94659853Y-51834354D01*
X94534354Y-51959853D01*
X94386784Y-52058456D01*
X94222812Y-52126376D01*
X94073512Y-52156073D01*
X94048742Y-52161000D01*
X93871258Y-52161000D01*
X93846488Y-52156073D01*
X93697188Y-52126376D01*
X93533216Y-52058456D01*
X93385646Y-51959853D01*
X93260147Y-51834354D01*
X93161544Y-51686784D01*
X93093624Y-51522812D01*
X93059000Y-51348741D01*
X93059000Y-51171259D01*
X93093624Y-50997188D01*
X93161544Y-50833216D01*
X93260147Y-50685646D01*
X93385646Y-50560147D01*
X93533216Y-50461544D01*
X93697188Y-50393624D01*
X93846488Y-50363927D01*
X93871258Y-50359000D01*
X94048742Y-50359000D01*
X94073512Y-50363927D01*
G37*
G36*
X83913512Y-50363927D02*
G01*
X84062812Y-50393624D01*
X84226784Y-50461544D01*
X84374354Y-50560147D01*
X84499853Y-50685646D01*
X84598456Y-50833216D01*
X84666376Y-50997188D01*
X84701000Y-51171259D01*
X84701000Y-51348741D01*
X84666376Y-51522812D01*
X84598456Y-51686784D01*
X84499853Y-51834354D01*
X84374354Y-51959853D01*
X84226784Y-52058456D01*
X84062812Y-52126376D01*
X83913512Y-52156073D01*
X83888742Y-52161000D01*
X83711258Y-52161000D01*
X83686488Y-52156073D01*
X83537188Y-52126376D01*
X83373216Y-52058456D01*
X83225646Y-51959853D01*
X83100147Y-51834354D01*
X83001544Y-51686784D01*
X82933624Y-51522812D01*
X82899000Y-51348741D01*
X82899000Y-51171259D01*
X82933624Y-50997188D01*
X83001544Y-50833216D01*
X83100147Y-50685646D01*
X83225646Y-50560147D01*
X83373216Y-50461544D01*
X83537188Y-50393624D01*
X83686488Y-50363927D01*
X83711258Y-50359000D01*
X83888742Y-50359000D01*
X83913512Y-50363927D01*
G37*
G36*
X99153512Y-50363927D02*
G01*
X99302812Y-50393624D01*
X99466784Y-50461544D01*
X99614354Y-50560147D01*
X99739853Y-50685646D01*
X99838456Y-50833216D01*
X99906376Y-50997188D01*
X99941000Y-51171259D01*
X99941000Y-51348741D01*
X99906376Y-51522812D01*
X99838456Y-51686784D01*
X99739853Y-51834354D01*
X99614354Y-51959853D01*
X99466784Y-52058456D01*
X99302812Y-52126376D01*
X99153512Y-52156073D01*
X99128742Y-52161000D01*
X98951258Y-52161000D01*
X98926488Y-52156073D01*
X98777188Y-52126376D01*
X98613216Y-52058456D01*
X98465646Y-51959853D01*
X98340147Y-51834354D01*
X98241544Y-51686784D01*
X98173624Y-51522812D01*
X98139000Y-51348741D01*
X98139000Y-51171259D01*
X98173624Y-50997188D01*
X98241544Y-50833216D01*
X98340147Y-50685646D01*
X98465646Y-50560147D01*
X98613216Y-50461544D01*
X98777188Y-50393624D01*
X98926488Y-50363927D01*
X98951258Y-50359000D01*
X99128742Y-50359000D01*
X99153512Y-50363927D01*
G37*
G36*
X101693512Y-50363927D02*
G01*
X101842812Y-50393624D01*
X102006784Y-50461544D01*
X102154354Y-50560147D01*
X102279853Y-50685646D01*
X102378456Y-50833216D01*
X102446376Y-50997188D01*
X102481000Y-51171259D01*
X102481000Y-51348741D01*
X102446376Y-51522812D01*
X102378456Y-51686784D01*
X102279853Y-51834354D01*
X102154354Y-51959853D01*
X102006784Y-52058456D01*
X101842812Y-52126376D01*
X101693512Y-52156073D01*
X101668742Y-52161000D01*
X101491258Y-52161000D01*
X101466488Y-52156073D01*
X101317188Y-52126376D01*
X101153216Y-52058456D01*
X101005646Y-51959853D01*
X100880147Y-51834354D01*
X100781544Y-51686784D01*
X100713624Y-51522812D01*
X100679000Y-51348741D01*
X100679000Y-51171259D01*
X100713624Y-50997188D01*
X100781544Y-50833216D01*
X100880147Y-50685646D01*
X101005646Y-50560147D01*
X101153216Y-50461544D01*
X101317188Y-50393624D01*
X101466488Y-50363927D01*
X101491258Y-50359000D01*
X101668742Y-50359000D01*
X101693512Y-50363927D01*
G37*
G36*
X104233512Y-50363927D02*
G01*
X104382812Y-50393624D01*
X104546784Y-50461544D01*
X104694354Y-50560147D01*
X104819853Y-50685646D01*
X104918456Y-50833216D01*
X104986376Y-50997188D01*
X105021000Y-51171259D01*
X105021000Y-51348741D01*
X104986376Y-51522812D01*
X104918456Y-51686784D01*
X104819853Y-51834354D01*
X104694354Y-51959853D01*
X104546784Y-52058456D01*
X104382812Y-52126376D01*
X104233512Y-52156073D01*
X104208742Y-52161000D01*
X104031258Y-52161000D01*
X104006488Y-52156073D01*
X103857188Y-52126376D01*
X103693216Y-52058456D01*
X103545646Y-51959853D01*
X103420147Y-51834354D01*
X103321544Y-51686784D01*
X103253624Y-51522812D01*
X103219000Y-51348741D01*
X103219000Y-51171259D01*
X103253624Y-50997188D01*
X103321544Y-50833216D01*
X103420147Y-50685646D01*
X103545646Y-50560147D01*
X103693216Y-50461544D01*
X103857188Y-50393624D01*
X104006488Y-50363927D01*
X104031258Y-50359000D01*
X104208742Y-50359000D01*
X104233512Y-50363927D01*
G37*
G36*
X106773512Y-50363927D02*
G01*
X106922812Y-50393624D01*
X107086784Y-50461544D01*
X107234354Y-50560147D01*
X107359853Y-50685646D01*
X107458456Y-50833216D01*
X107526376Y-50997188D01*
X107561000Y-51171259D01*
X107561000Y-51348741D01*
X107526376Y-51522812D01*
X107458456Y-51686784D01*
X107359853Y-51834354D01*
X107234354Y-51959853D01*
X107086784Y-52058456D01*
X106922812Y-52126376D01*
X106773512Y-52156073D01*
X106748742Y-52161000D01*
X106571258Y-52161000D01*
X106546488Y-52156073D01*
X106397188Y-52126376D01*
X106233216Y-52058456D01*
X106085646Y-51959853D01*
X105960147Y-51834354D01*
X105861544Y-51686784D01*
X105793624Y-51522812D01*
X105759000Y-51348741D01*
X105759000Y-51171259D01*
X105793624Y-50997188D01*
X105861544Y-50833216D01*
X105960147Y-50685646D01*
X106085646Y-50560147D01*
X106233216Y-50461544D01*
X106397188Y-50393624D01*
X106546488Y-50363927D01*
X106571258Y-50359000D01*
X106748742Y-50359000D01*
X106773512Y-50363927D01*
G37*
G36*
X96613512Y-50363927D02*
G01*
X96762812Y-50393624D01*
X96926784Y-50461544D01*
X97074354Y-50560147D01*
X97199853Y-50685646D01*
X97298456Y-50833216D01*
X97366376Y-50997188D01*
X97401000Y-51171259D01*
X97401000Y-51348741D01*
X97366376Y-51522812D01*
X97298456Y-51686784D01*
X97199853Y-51834354D01*
X97074354Y-51959853D01*
X96926784Y-52058456D01*
X96762812Y-52126376D01*
X96613512Y-52156073D01*
X96588742Y-52161000D01*
X96411258Y-52161000D01*
X96386488Y-52156073D01*
X96237188Y-52126376D01*
X96073216Y-52058456D01*
X95925646Y-51959853D01*
X95800147Y-51834354D01*
X95701544Y-51686784D01*
X95633624Y-51522812D01*
X95599000Y-51348741D01*
X95599000Y-51171259D01*
X95633624Y-50997188D01*
X95701544Y-50833216D01*
X95800147Y-50685646D01*
X95925646Y-50560147D01*
X96073216Y-50461544D01*
X96237188Y-50393624D01*
X96386488Y-50363927D01*
X96411258Y-50359000D01*
X96588742Y-50359000D01*
X96613512Y-50363927D01*
G37*
G36*
X58513512Y-50363927D02*
G01*
X58662812Y-50393624D01*
X58826784Y-50461544D01*
X58974354Y-50560147D01*
X59099853Y-50685646D01*
X59198456Y-50833216D01*
X59266376Y-50997188D01*
X59301000Y-51171259D01*
X59301000Y-51348741D01*
X59266376Y-51522812D01*
X59198456Y-51686784D01*
X59099853Y-51834354D01*
X58974354Y-51959853D01*
X58826784Y-52058456D01*
X58662812Y-52126376D01*
X58513512Y-52156073D01*
X58488742Y-52161000D01*
X58311258Y-52161000D01*
X58286488Y-52156073D01*
X58137188Y-52126376D01*
X57973216Y-52058456D01*
X57825646Y-51959853D01*
X57700147Y-51834354D01*
X57601544Y-51686784D01*
X57533624Y-51522812D01*
X57499000Y-51348741D01*
X57499000Y-51171259D01*
X57533624Y-50997188D01*
X57601544Y-50833216D01*
X57700147Y-50685646D01*
X57825646Y-50560147D01*
X57973216Y-50461544D01*
X58137188Y-50393624D01*
X58286488Y-50363927D01*
X58311258Y-50359000D01*
X58488742Y-50359000D01*
X58513512Y-50363927D01*
G37*
G36*
X61053512Y-50363927D02*
G01*
X61202812Y-50393624D01*
X61366784Y-50461544D01*
X61514354Y-50560147D01*
X61639853Y-50685646D01*
X61738456Y-50833216D01*
X61806376Y-50997188D01*
X61841000Y-51171259D01*
X61841000Y-51348741D01*
X61806376Y-51522812D01*
X61738456Y-51686784D01*
X61639853Y-51834354D01*
X61514354Y-51959853D01*
X61366784Y-52058456D01*
X61202812Y-52126376D01*
X61053512Y-52156073D01*
X61028742Y-52161000D01*
X60851258Y-52161000D01*
X60826488Y-52156073D01*
X60677188Y-52126376D01*
X60513216Y-52058456D01*
X60365646Y-51959853D01*
X60240147Y-51834354D01*
X60141544Y-51686784D01*
X60073624Y-51522812D01*
X60039000Y-51348741D01*
X60039000Y-51171259D01*
X60073624Y-50997188D01*
X60141544Y-50833216D01*
X60240147Y-50685646D01*
X60365646Y-50560147D01*
X60513216Y-50461544D01*
X60677188Y-50393624D01*
X60826488Y-50363927D01*
X60851258Y-50359000D01*
X61028742Y-50359000D01*
X61053512Y-50363927D01*
G37*
G36*
X63593512Y-50363927D02*
G01*
X63742812Y-50393624D01*
X63906784Y-50461544D01*
X64054354Y-50560147D01*
X64179853Y-50685646D01*
X64278456Y-50833216D01*
X64346376Y-50997188D01*
X64381000Y-51171259D01*
X64381000Y-51348741D01*
X64346376Y-51522812D01*
X64278456Y-51686784D01*
X64179853Y-51834354D01*
X64054354Y-51959853D01*
X63906784Y-52058456D01*
X63742812Y-52126376D01*
X63593512Y-52156073D01*
X63568742Y-52161000D01*
X63391258Y-52161000D01*
X63366488Y-52156073D01*
X63217188Y-52126376D01*
X63053216Y-52058456D01*
X62905646Y-51959853D01*
X62780147Y-51834354D01*
X62681544Y-51686784D01*
X62613624Y-51522812D01*
X62579000Y-51348741D01*
X62579000Y-51171259D01*
X62613624Y-50997188D01*
X62681544Y-50833216D01*
X62780147Y-50685646D01*
X62905646Y-50560147D01*
X63053216Y-50461544D01*
X63217188Y-50393624D01*
X63366488Y-50363927D01*
X63391258Y-50359000D01*
X63568742Y-50359000D01*
X63593512Y-50363927D01*
G37*
G36*
X66133512Y-50363927D02*
G01*
X66282812Y-50393624D01*
X66446784Y-50461544D01*
X66594354Y-50560147D01*
X66719853Y-50685646D01*
X66818456Y-50833216D01*
X66886376Y-50997188D01*
X66921000Y-51171259D01*
X66921000Y-51348741D01*
X66886376Y-51522812D01*
X66818456Y-51686784D01*
X66719853Y-51834354D01*
X66594354Y-51959853D01*
X66446784Y-52058456D01*
X66282812Y-52126376D01*
X66133512Y-52156073D01*
X66108742Y-52161000D01*
X65931258Y-52161000D01*
X65906488Y-52156073D01*
X65757188Y-52126376D01*
X65593216Y-52058456D01*
X65445646Y-51959853D01*
X65320147Y-51834354D01*
X65221544Y-51686784D01*
X65153624Y-51522812D01*
X65119000Y-51348741D01*
X65119000Y-51171259D01*
X65153624Y-50997188D01*
X65221544Y-50833216D01*
X65320147Y-50685646D01*
X65445646Y-50560147D01*
X65593216Y-50461544D01*
X65757188Y-50393624D01*
X65906488Y-50363927D01*
X65931258Y-50359000D01*
X66108742Y-50359000D01*
X66133512Y-50363927D01*
G37*
G36*
X68673512Y-50363927D02*
G01*
X68822812Y-50393624D01*
X68986784Y-50461544D01*
X69134354Y-50560147D01*
X69259853Y-50685646D01*
X69358456Y-50833216D01*
X69426376Y-50997188D01*
X69461000Y-51171259D01*
X69461000Y-51348741D01*
X69426376Y-51522812D01*
X69358456Y-51686784D01*
X69259853Y-51834354D01*
X69134354Y-51959853D01*
X68986784Y-52058456D01*
X68822812Y-52126376D01*
X68673512Y-52156073D01*
X68648742Y-52161000D01*
X68471258Y-52161000D01*
X68446488Y-52156073D01*
X68297188Y-52126376D01*
X68133216Y-52058456D01*
X67985646Y-51959853D01*
X67860147Y-51834354D01*
X67761544Y-51686784D01*
X67693624Y-51522812D01*
X67659000Y-51348741D01*
X67659000Y-51171259D01*
X67693624Y-50997188D01*
X67761544Y-50833216D01*
X67860147Y-50685646D01*
X67985646Y-50560147D01*
X68133216Y-50461544D01*
X68297188Y-50393624D01*
X68446488Y-50363927D01*
X68471258Y-50359000D01*
X68648742Y-50359000D01*
X68673512Y-50363927D01*
G37*
G36*
X71213512Y-50363927D02*
G01*
X71362812Y-50393624D01*
X71526784Y-50461544D01*
X71674354Y-50560147D01*
X71799853Y-50685646D01*
X71898456Y-50833216D01*
X71966376Y-50997188D01*
X72001000Y-51171259D01*
X72001000Y-51348741D01*
X71966376Y-51522812D01*
X71898456Y-51686784D01*
X71799853Y-51834354D01*
X71674354Y-51959853D01*
X71526784Y-52058456D01*
X71362812Y-52126376D01*
X71213512Y-52156073D01*
X71188742Y-52161000D01*
X71011258Y-52161000D01*
X70986488Y-52156073D01*
X70837188Y-52126376D01*
X70673216Y-52058456D01*
X70525646Y-51959853D01*
X70400147Y-51834354D01*
X70301544Y-51686784D01*
X70233624Y-51522812D01*
X70199000Y-51348741D01*
X70199000Y-51171259D01*
X70233624Y-50997188D01*
X70301544Y-50833216D01*
X70400147Y-50685646D01*
X70525646Y-50560147D01*
X70673216Y-50461544D01*
X70837188Y-50393624D01*
X70986488Y-50363927D01*
X71011258Y-50359000D01*
X71188742Y-50359000D01*
X71213512Y-50363927D01*
G37*
G36*
X73753512Y-50363927D02*
G01*
X73902812Y-50393624D01*
X74066784Y-50461544D01*
X74214354Y-50560147D01*
X74339853Y-50685646D01*
X74438456Y-50833216D01*
X74506376Y-50997188D01*
X74541000Y-51171259D01*
X74541000Y-51348741D01*
X74506376Y-51522812D01*
X74438456Y-51686784D01*
X74339853Y-51834354D01*
X74214354Y-51959853D01*
X74066784Y-52058456D01*
X73902812Y-52126376D01*
X73753512Y-52156073D01*
X73728742Y-52161000D01*
X73551258Y-52161000D01*
X73526488Y-52156073D01*
X73377188Y-52126376D01*
X73213216Y-52058456D01*
X73065646Y-51959853D01*
X72940147Y-51834354D01*
X72841544Y-51686784D01*
X72773624Y-51522812D01*
X72739000Y-51348741D01*
X72739000Y-51171259D01*
X72773624Y-50997188D01*
X72841544Y-50833216D01*
X72940147Y-50685646D01*
X73065646Y-50560147D01*
X73213216Y-50461544D01*
X73377188Y-50393624D01*
X73526488Y-50363927D01*
X73551258Y-50359000D01*
X73728742Y-50359000D01*
X73753512Y-50363927D01*
G37*
G36*
X76293512Y-50363927D02*
G01*
X76442812Y-50393624D01*
X76606784Y-50461544D01*
X76754354Y-50560147D01*
X76879853Y-50685646D01*
X76978456Y-50833216D01*
X77046376Y-50997188D01*
X77081000Y-51171259D01*
X77081000Y-51348741D01*
X77046376Y-51522812D01*
X76978456Y-51686784D01*
X76879853Y-51834354D01*
X76754354Y-51959853D01*
X76606784Y-52058456D01*
X76442812Y-52126376D01*
X76293512Y-52156073D01*
X76268742Y-52161000D01*
X76091258Y-52161000D01*
X76066488Y-52156073D01*
X75917188Y-52126376D01*
X75753216Y-52058456D01*
X75605646Y-51959853D01*
X75480147Y-51834354D01*
X75381544Y-51686784D01*
X75313624Y-51522812D01*
X75279000Y-51348741D01*
X75279000Y-51171259D01*
X75313624Y-50997188D01*
X75381544Y-50833216D01*
X75480147Y-50685646D01*
X75605646Y-50560147D01*
X75753216Y-50461544D01*
X75917188Y-50393624D01*
X76066488Y-50363927D01*
X76091258Y-50359000D01*
X76268742Y-50359000D01*
X76293512Y-50363927D01*
G37*
G36*
X78833512Y-50363927D02*
G01*
X78982812Y-50393624D01*
X79146784Y-50461544D01*
X79294354Y-50560147D01*
X79419853Y-50685646D01*
X79518456Y-50833216D01*
X79586376Y-50997188D01*
X79621000Y-51171259D01*
X79621000Y-51348741D01*
X79586376Y-51522812D01*
X79518456Y-51686784D01*
X79419853Y-51834354D01*
X79294354Y-51959853D01*
X79146784Y-52058456D01*
X78982812Y-52126376D01*
X78833512Y-52156073D01*
X78808742Y-52161000D01*
X78631258Y-52161000D01*
X78606488Y-52156073D01*
X78457188Y-52126376D01*
X78293216Y-52058456D01*
X78145646Y-51959853D01*
X78020147Y-51834354D01*
X77921544Y-51686784D01*
X77853624Y-51522812D01*
X77819000Y-51348741D01*
X77819000Y-51171259D01*
X77853624Y-50997188D01*
X77921544Y-50833216D01*
X78020147Y-50685646D01*
X78145646Y-50560147D01*
X78293216Y-50461544D01*
X78457188Y-50393624D01*
X78606488Y-50363927D01*
X78631258Y-50359000D01*
X78808742Y-50359000D01*
X78833512Y-50363927D01*
G37*
G36*
X81373512Y-50363927D02*
G01*
X81522812Y-50393624D01*
X81686784Y-50461544D01*
X81834354Y-50560147D01*
X81959853Y-50685646D01*
X82058456Y-50833216D01*
X82126376Y-50997188D01*
X82161000Y-51171259D01*
X82161000Y-51348741D01*
X82126376Y-51522812D01*
X82058456Y-51686784D01*
X81959853Y-51834354D01*
X81834354Y-51959853D01*
X81686784Y-52058456D01*
X81522812Y-52126376D01*
X81373512Y-52156073D01*
X81348742Y-52161000D01*
X81171258Y-52161000D01*
X81146488Y-52156073D01*
X80997188Y-52126376D01*
X80833216Y-52058456D01*
X80685646Y-51959853D01*
X80560147Y-51834354D01*
X80461544Y-51686784D01*
X80393624Y-51522812D01*
X80359000Y-51348741D01*
X80359000Y-51171259D01*
X80393624Y-50997188D01*
X80461544Y-50833216D01*
X80560147Y-50685646D01*
X80685646Y-50560147D01*
X80833216Y-50461544D01*
X80997188Y-50393624D01*
X81146488Y-50363927D01*
X81171258Y-50359000D01*
X81348742Y-50359000D01*
X81373512Y-50363927D01*
G37*
M02*
